<?xml version="1.0" encoding="UTF-8" standalone="yes"?>
<svg xmlns="http://www.w3.org/2000/svg" xmlns:xlink="http://www.w3.org/1999/xlink" width="283.418pt" height="243.096pt" version="1.1" viewBox="227.832 561.463 283.418 243.096">
  <!--
	Exported with Concepts: Smarter Sketching
	Version: 2024.9.7 on Microsoft Windows NT 10.0.22631.0
	https://concepts.app/
	-->
  <title>Drawing 2</title>
  <desc>Drawing exported from Concepts: Smarter Sketching</desc>
  <defs></defs>
  <g id="Pen" opacity="1.000">
    <path id="STROKE_b02555e8-1ce1-4319-a112-164c7a012e55" opacity="1.000" fill="none" stroke="#000000" stroke-width="1.600" stroke-opacity="1.000" stroke-linecap="round" stroke-linejoin="round" d="M 300.000 568.000 L 300.000 768.000 L 300.000 768.000 "></path>
    <path id="STROKE_dfc3b841-64aa-44e8-8ece-27d262d0a3f5" opacity="1.000" fill="none" stroke="#000000" stroke-width="1.600" stroke-opacity="1.000" stroke-linecap="round" stroke-linejoin="round" d="M 300.000 768.000 L 490.000 768.000 L 500.000 768.000 "></path>
    <path id="STROKE_9a4cfe83-23a9-42b4-a542-741da1cd73d6" opacity="1.000" fill="none" stroke="#000000" stroke-width="1.600" stroke-opacity="1.000" stroke-linecap="round" stroke-linejoin="round" d="M 298.240 567.275 Q 298.204 567.275 297.949 567.166 Q 297.746 566.130 293.324 575.650 Q 294.033 575.229 294.079 575.096 Q 294.124 574.963 294.292 574.687 Q 294.461 574.411 295.151 573.380 Q 295.841 572.349 296.605 571.305 Q 297.368 570.261 297.714 569.816 Q 298.061 569.371 300.206 566.037 Q 300.568 566.209 300.841 567.566 Q 301.114 568.923 302.511 570.483 Q 303.908 572.043 308.290 573.320 "></path>
    <path id="STROKE_f652f92c-2f2a-415a-bbff-45a228807fa3" opacity="1.000" fill="none" stroke="#000000" stroke-width="1.600" stroke-opacity="1.000" stroke-linecap="round" stroke-linejoin="round" d="M 496.985 761.429 Q 497.156 761.796 497.345 762.402 Q 497.534 763.007 498.778 763.530 Q 500.022 764.053 501.733 764.206 Q 503.444 764.358 504.448 764.570 Q 505.452 764.781 506.021 765.110 Q 506.589 765.438 506.685 766.242 Q 506.781 767.046 506.193 767.522 Q 505.605 767.999 503.571 769.582 Q 501.536 771.165 499.571 773.263 "></path>
    <path id="STROKE_90b6055d-3826-4d9c-b114-e9c16d2cdd69" opacity="1.000" fill="none" stroke="#71c047" stroke-width="1.600" stroke-opacity="1.000" stroke-linecap="round" stroke-linejoin="round" d="M 302.318 621.567 Q 302.127 621.361 302.100 621.312 Q 301.933 621.533 305.262 627.567 Q 308.591 633.601 310.512 636.893 Q 312.434 640.185 313.271 641.858 Q 314.109 643.531 314.967 644.549 Q 315.826 645.568 316.338 646.339 Q 316.850 647.110 318.837 650.672 Q 320.825 654.234 325.491 660.555 Q 330.157 666.876 332.859 670.417 Q 335.562 673.958 337.812 676.516 Q 340.062 679.074 341.492 680.418 Q 342.921 681.762 345.939 684.759 Q 348.957 687.756 350.647 689.720 Q 352.337 691.684 355.464 694.345 Q 358.591 697.006 360.434 698.454 Q 362.276 699.902 365.973 703.375 Q 369.669 706.847 374.417 710.371 Q 379.165 713.896 381.657 715.817 Q 384.148 717.738 386.128 718.883 Q 388.109 720.028 393.164 723.749 Q 398.219 727.469 400.925 729.493 Q 403.631 731.518 406.199 733.004 Q 408.767 734.491 410.203 735.421 Q 411.638 736.351 414.406 738.489 Q 417.174 740.627 419.948 742.396 Q 422.722 744.164 424.609 745.503 Q 426.497 746.843 432.385 749.597 Q 438.274 752.350 441.746 753.801 Q 445.217 755.252 448.198 756.313 Q 451.179 757.375 453.194 757.832 Q 455.210 758.290 455.930 758.471 Q 456.650 758.652 458.981 759.330 Q 461.312 760.008 463.033 760.511 Q 464.753 761.014 471.204 762.667 "></path>
    <path id="STROKE_4707ca92-65cd-45e2-8106-f67d0bb3734f" opacity="1.000" fill="none" stroke="#71c047" stroke-width="1.600" stroke-opacity="1.000" stroke-linecap="round" stroke-linejoin="round" d="M 471.896 761.538 Q 472.557 761.665 472.497 761.574 L 472.588 761.538 Q 472.759 761.620 472.177 761.205 Q 471.596 760.789 471.078 760.477 Q 470.561 760.164 470.296 759.984 Q 470.031 759.804 469.715 759.625 Q 469.399 759.445 469.098 759.281 Q 468.796 759.118 468.574 759.021 Q 468.351 758.923 468.312 758.924 Q 468.273 758.925 467.552 758.576 Q 466.830 758.228 465.938 757.823 Q 465.047 757.418 464.322 757.241 Q 464.713 756.999 466.955 758.203 Q 469.197 759.408 470.804 761.356 Q 471.138 761.370 469.078 762.765 Q 467.019 764.159 465.488 767.473 "></path>
    <path id="STROKE_048bb02e-3bda-46a1-b3df-31fc0ca64d2e" opacity="1.000" fill="none" stroke="#71c047" stroke-width="1.600" stroke-opacity="1.000" stroke-linecap="round" stroke-linejoin="round" d="M 464.395 739.617 Q 464.527 739.496 463.324 742.882 Q 462.122 746.268 460.572 749.886 Q 460.688 749.590 461.622 746.518 Q 462.555 743.447 466.981 730.332 Q 466.757 730.053 467.281 730.756 Q 467.804 731.459 468.159 732.262 Q 468.514 733.066 469.085 735.612 Q 469.656 738.158 470.105 741.229 Q 470.554 744.300 472.479 747.701 "></path>
    <path id="STROKE_d179e68b-ada7-43e1-a038-e8e4d53e1d7e" opacity="1.000" fill="none" stroke="#71c047" stroke-width="1.600" stroke-opacity="1.000" stroke-linecap="round" stroke-linejoin="round" d="M 464.395 744.788 Q 465.070 745.033 465.051 745.006 Q 465.195 745.391 468.838 744.533 "></path>
    <path id="STROKE_58cd8bf0-13b7-43da-a58d-837c96cf514e" opacity="1.000" fill="none" stroke="#5a6edc" stroke-width="1.600" stroke-opacity="1.000" stroke-linecap="round" stroke-linejoin="round" d="M 300.935 766.854 Q 301.101 766.794 301.441 766.594 Q 301.782 766.393 301.789 766.278 Q 301.796 766.163 301.752 766.264 Q 301.708 766.365 301.941 765.982 Q 302.174 765.599 302.156 765.637 Q 302.137 765.675 302.136 765.672 Q 302.135 765.668 302.113 765.715 Q 302.091 765.761 302.115 765.717 Q 302.139 765.672 302.208 765.532 Q 302.278 765.391 302.562 764.914 Q 302.846 764.436 302.929 764.334 Q 303.013 764.231 303.014 764.143 Q 303.015 764.055 302.922 764.274 Q 302.830 764.493 303.831 762.524 Q 304.833 760.556 305.627 758.687 Q 306.422 756.819 306.803 755.701 Q 307.185 754.584 309.503 749.883 Q 311.821 745.183 313.861 741.353 Q 315.902 737.523 317.240 735.399 Q 318.578 733.274 319.752 731.089 Q 320.926 728.904 321.546 727.685 Q 322.167 726.466 322.706 725.473 Q 323.245 724.480 325.811 720.697 Q 328.377 716.913 330.126 714.216 Q 331.875 711.518 333.197 709.593 Q 334.518 707.669 336.439 705.030 Q 338.360 702.391 340.291 699.790 Q 342.221 697.190 345.271 694.109 Q 348.320 691.028 349.964 689.496 Q 351.609 687.965 353.305 686.088 Q 355.001 684.211 356.300 682.997 Q 357.599 681.782 360.006 679.850 Q 362.413 677.919 363.476 676.903 Q 364.540 675.888 365.325 675.134 Q 366.109 674.379 367.483 673.097 Q 368.856 671.815 370.445 670.636 Q 372.035 669.456 373.203 668.509 Q 374.372 667.563 374.845 667.276 Q 375.317 666.989 377.933 665.004 Q 380.548 663.019 382.555 661.678 Q 384.563 660.336 385.714 659.831 Q 386.866 659.325 387.215 659.259 Q 387.564 659.193 388.397 658.769 Q 389.230 658.345 389.776 658.080 Q 390.323 657.815 391.899 657.168 Q 393.476 656.521 394.278 656.279 Q 395.081 656.037 395.446 655.924 Q 395.812 655.812 395.863 655.799 Q 395.914 655.786 396.637 655.534 Q 397.360 655.281 398.474 654.929 Q 399.588 654.576 400.393 654.372 Q 401.199 654.169 402.729 653.801 Q 404.260 653.433 405.191 653.409 Q 406.122 653.385 406.762 653.292 Q 407.401 653.198 408.174 653.228 Q 408.946 653.258 409.395 653.357 Q 409.844 653.457 410.059 653.475 Q 410.273 653.494 410.298 653.507 Q 410.323 653.521 410.271 653.498 Q 410.220 653.476 410.615 653.613 Q 411.010 653.749 411.752 653.991 Q 412.495 654.233 412.983 654.435 Q 413.471 654.637 413.771 654.748 Q 414.072 654.858 414.255 654.937 Q 414.438 655.015 414.434 655.015 Q 414.430 655.014 414.437 655.016 Q 414.444 655.017 414.378 654.992 Q 414.313 654.967 414.793 655.237 Q 415.274 655.506 415.669 655.567 Q 416.064 655.627 416.136 655.659 Q 416.208 655.691 416.193 655.675 Q 416.177 655.660 416.177 655.663 Q 416.178 655.666 416.201 655.668 Q 416.224 655.670 416.436 655.722 Q 416.648 655.774 417.335 655.987 Q 418.022 656.201 417.996 656.241 Q 417.970 656.281 418.134 656.261 Q 418.299 656.241 419.645 657.310 Q 420.992 658.378 421.961 659.522 Q 422.931 660.666 423.498 661.275 Q 424.064 661.883 424.271 662.133 Q 424.477 662.382 424.550 662.490 Q 424.624 662.597 424.611 662.577 Q 424.598 662.558 424.577 662.538 Q 424.555 662.519 424.807 662.776 Q 425.060 663.032 425.184 663.156 Q 425.308 663.281 425.278 663.255 Q 425.248 663.230 425.251 663.224 Q 425.253 663.219 425.319 663.306 Q 425.385 663.394 425.718 663.798 Q 426.051 664.201 426.075 664.236 Q 426.100 664.270 426.131 664.297 Q 426.162 664.324 426.247 664.451 Q 426.331 664.578 427.177 665.846 Q 428.024 667.114 428.731 667.991 Q 429.439 668.868 429.751 669.221 Q 430.064 669.574 430.183 669.681 Q 430.302 669.788 430.587 670.040 Q 430.871 670.291 430.854 670.287 Q 430.837 670.283 430.851 670.299 Q 430.864 670.314 430.805 670.271 Q 430.745 670.227 431.000 670.471 Q 431.255 670.716 431.407 670.841 Q 431.559 670.967 431.545 670.954 Q 431.532 670.941 431.764 671.093 Q 431.996 671.245 432.289 671.419 Q 432.583 671.594 432.533 671.653 Q 432.915 671.957 432.879 671.926 Q 433.189 672.211 433.088 672.113 Q 432.987 672.015 433.012 672.035 Q 433.037 672.054 433.044 672.072 Q 433.051 672.089 433.060 672.080 Q 433.068 672.072 433.291 672.353 Q 433.514 672.634 433.680 672.855 Q 433.846 673.076 433.791 673.025 Q 433.735 672.975 433.797 673.081 Q 433.860 673.187 433.844 673.149 Q 433.829 673.111 434.026 673.351 Q 434.223 673.591 434.300 673.992 Q 434.377 674.394 434.380 674.350 Q 434.382 674.305 434.479 674.964 Q 434.577 675.624 434.636 675.620 Q 434.695 675.616 434.685 675.655 Q 434.676 675.694 434.661 675.615 Q 434.645 675.536 434.764 675.891 Q 434.883 676.246 435.068 676.582 Q 435.253 676.917 435.454 677.221 Q 435.655 677.525 435.775 677.663 Q 435.896 677.802 435.857 677.775 Q 435.818 677.747 435.841 677.776 Q 435.864 677.804 435.834 677.757 Q 435.804 677.710 435.992 678.236 Q 436.180 678.763 436.313 678.929 Q 436.447 679.095 436.397 679.043 Q 436.348 678.991 436.611 679.356 Q 436.874 679.722 437.190 680.211 Q 437.506 680.701 437.642 681.054 Q 437.777 681.408 437.783 681.404 Q 437.790 681.399 437.797 681.397 Q 437.804 681.395 437.797 681.530 Q 437.791 681.665 437.919 681.936 Q 438.047 682.207 438.217 682.489 Q 438.387 682.771 438.438 682.820 Q 438.488 682.870 438.412 682.808 Q 438.335 682.747 438.687 683.044 Q 439.039 683.341 440.471 685.399 "></path>
    <path id="STROKE_a50ac2fc-e0be-4c22-a52c-0dd3fc628e69" opacity="1.000" fill="none" stroke="#5a6edc" stroke-width="1.600" stroke-opacity="1.000" stroke-linecap="round" stroke-linejoin="round" d="M 433.844 688.384 Q 433.867 689.175 433.899 688.949 Q 434.161 689.148 435.157 689.887 Q 436.153 690.626 437.548 691.043 Q 438.943 691.460 439.545 691.531 Q 440.147 691.602 440.827 691.453 Q 441.508 691.304 442.227 687.960 Q 442.946 684.616 443.530 679.354 "></path>
    <path id="STROKE_972f1bfc-a8d1-45fd-8dba-48abe3a4864f" opacity="1.000" fill="none" stroke="#5a6edc" stroke-width="1.600" stroke-opacity="1.000" stroke-linecap="round" stroke-linejoin="round" d="M 405.296 631.107 Q 405.041 630.467 406.061 642.759 "></path>
    <path id="STROKE_79465e65-10c1-49d1-9ad8-11c05fe7bba1" opacity="1.000" fill="none" stroke="#5a6edc" stroke-width="1.600" stroke-opacity="1.000" stroke-linecap="round" stroke-linejoin="round" d="M 405.696 630.306 Q 405.418 630.187 405.280 629.816 Q 405.143 629.446 405.181 629.571 Q 405.219 629.696 405.467 629.069 Q 405.716 628.443 407.057 627.719 Q 408.399 626.994 409.885 626.446 Q 411.370 625.898 412.460 626.197 Q 413.550 626.495 414.198 626.983 Q 414.847 627.471 414.988 628.161 Q 415.129 628.852 415.144 629.013 Q 415.159 629.174 414.630 630.288 Q 414.101 631.401 410.102 634.166 Q 410.246 634.237 410.035 634.149 Q 409.824 634.061 410.767 634.673 Q 411.710 635.286 412.815 635.958 Q 413.920 636.629 414.488 637.052 Q 415.056 637.474 415.322 638.254 Q 415.589 639.034 415.347 639.612 Q 415.105 640.189 414.491 640.818 Q 413.878 641.447 412.194 642.217 Q 410.511 642.987 407.845 642.686 "></path>
    <path id="STROKE_be3505bc-d55b-4156-a376-dfc5b1b128b4" opacity="1.000" fill="none" stroke="#ffb352" stroke-width="1.600" stroke-opacity="1.000" stroke-linecap="round" stroke-linejoin="round" d="M 301.626 767.291 Q 301.559 766.628 304.602 766.809 Q 307.645 766.990 311.036 766.615 Q 314.427 766.240 315.891 765.924 Q 317.356 765.608 317.936 765.645 Q 318.517 765.682 318.875 765.682 Q 319.233 765.682 320.061 765.576 Q 320.889 765.470 321.346 765.432 Q 321.804 765.393 321.707 765.379 Q 321.611 765.366 321.961 765.341 Q 322.312 765.315 325.737 764.925 Q 329.163 764.535 333.298 763.848 Q 337.434 763.161 339.322 762.684 Q 341.211 762.208 344.038 761.763 Q 346.864 761.319 348.585 760.950 Q 350.305 760.582 355.083 758.573 Q 359.860 756.565 362.218 755.581 Q 364.575 754.597 365.696 754.108 Q 366.817 753.619 367.367 753.196 Q 367.916 752.773 368.405 752.458 Q 368.894 752.144 369.200 751.971 Q 369.506 751.799 369.434 751.874 Q 369.363 751.949 369.709 751.607 Q 370.056 751.264 372.401 749.931 Q 374.747 748.598 375.971 748.083 Q 377.196 747.568 378.149 747.086 Q 379.102 746.605 379.785 746.236 Q 380.467 745.867 380.684 745.736 Q 380.901 745.604 381.332 745.290 Q 381.763 744.977 382.038 744.790 Q 382.313 744.604 382.479 744.475 Q 382.645 744.347 382.755 744.259 Q 382.866 744.172 383.088 743.958 Q 383.311 743.745 383.827 743.356 Q 384.343 742.967 384.843 742.579 Q 385.344 742.191 386.010 741.711 Q 386.676 741.231 388.593 740.226 Q 390.510 739.221 391.868 738.485 Q 393.227 737.749 394.596 736.454 Q 395.965 735.160 396.955 734.358 Q 397.946 733.555 398.428 733.257 Q 398.911 732.958 399.285 732.660 Q 399.659 732.361 400.009 732.119 Q 400.360 731.876 400.384 731.860 Q 400.407 731.845 400.499 731.816 Q 400.591 731.787 401.214 731.244 Q 401.838 730.701 402.428 730.230 Q 403.017 729.759 403.332 729.548 Q 403.646 729.336 404.078 728.867 Q 404.510 728.398 404.683 728.244 Q 404.856 728.090 405.025 727.985 Q 405.195 727.881 405.060 727.933 Q 404.926 727.984 405.806 727.487 Q 406.685 726.990 407.399 726.517 Q 408.114 726.043 408.469 725.730 Q 408.824 725.417 409.250 725.267 Q 409.675 725.116 411.106 723.814 Q 412.536 722.512 413.248 721.715 Q 413.961 720.918 414.472 720.491 Q 414.983 720.065 415.211 719.902 Q 415.439 719.739 415.619 719.612 Q 415.798 719.486 415.859 719.434 Q 415.920 719.382 415.881 719.414 Q 415.843 719.447 415.982 719.394 Q 416.122 719.341 416.637 718.865 Q 417.151 718.390 417.338 718.081 Q 417.524 717.773 417.647 717.603 Q 417.770 717.434 417.801 717.401 Q 417.833 717.369 418.077 716.786 "></path>
    <path id="STROKE_7018e10a-64b3-4706-948c-6a65693b7981" opacity="1.000" fill="none" stroke="#ffb352" stroke-width="1.600" stroke-opacity="1.000" stroke-linecap="round" stroke-linejoin="round" d="M 414.072 715.111 Q 414.025 715.490 416.447 714.686 Q 418.869 713.882 420.430 713.508 Q 421.991 713.134 422.937 713.473 Q 423.883 713.812 424.196 714.023 Q 424.510 714.233 424.621 714.469 Q 424.731 714.704 424.692 714.627 Q 424.653 714.550 424.756 714.741 Q 424.858 714.932 424.886 717.915 "></path>
    <path id="STROKE_18b5113a-c2f5-4e95-ba50-0642fe826a17" opacity="1.000" fill="none" stroke="#ffb352" stroke-width="1.600" stroke-opacity="1.000" stroke-linecap="round" stroke-linejoin="round" d="M 411.013 701.275 Q 410.880 701.471 411.092 701.254 Q 411.303 701.038 410.171 701.406 Q 409.039 701.774 408.294 702.450 Q 407.548 703.125 407.068 703.661 Q 406.588 704.198 406.170 704.943 Q 405.753 705.688 405.835 706.193 Q 405.917 706.699 406.180 707.150 Q 406.442 707.601 407.633 708.357 Q 408.823 709.113 413.161 707.647 "></path>
    <path id="STROKE_1f1ea7d0-04dc-473f-a36f-c89b0dceef0b" opacity="1.000" fill="none" stroke="#000000" stroke-width="1.600" stroke-opacity="1.000" stroke-linecap="round" stroke-linejoin="round" d="M 397.321 780.036 Q 396.967 779.104 395.901 784.817 Q 394.835 790.530 394.445 797.113 "></path>
    <path id="STROKE_ef535a44-c238-4796-aa73-ca0bdc6cfd5b" opacity="1.000" fill="none" stroke="#000000" stroke-width="1.600" stroke-opacity="1.000" stroke-linecap="round" stroke-linejoin="round" d="M 388.436 789.321 Q 389.066 789.577 389.070 789.564 Q 389.074 789.551 389.090 789.508 Q 389.107 789.465 389.358 789.730 Q 389.609 789.996 402.820 788.265 "></path>
    <path id="STROKE_00026a4f-6ee4-4fdb-b177-25e40d51ac28" opacity="1.000" fill="none" stroke="#000000" stroke-width="1.600" stroke-opacity="1.000" stroke-linecap="round" stroke-linejoin="round" d="M 394.736 797.222 Q 394.569 797.159 393.462 799.152 Q 393.352 798.970 394.044 799.644 Q 394.736 800.319 396.504 799.675 Q 398.272 799.031 399.980 797.732 "></path>
    <path id="STROKE_55296edf-e002-4739-9eb8-3c1ef9c2457e" opacity="1.000" fill="none" stroke="#000000" stroke-width="1.600" stroke-opacity="1.000" stroke-linecap="round" stroke-linejoin="round" d="M 241.726 679.864 Q 241.798 679.657 240.044 679.781 Q 238.289 679.904 236.675 680.528 Q 235.061 681.152 234.190 681.363 Q 233.319 681.574 232.659 681.612 Q 232.918 681.150 232.911 683.288 Q 232.904 685.426 232.679 687.761 Q 232.454 690.095 232.466 691.451 Q 232.478 692.807 232.422 694.902 Q 232.365 696.997 232.473 699.499 Q 232.581 702.001 232.616 704.748 Q 232.652 707.494 232.659 712.253 Q 232.827 712.680 240.342 709.613 "></path>
    <path id="STROKE_19533e6f-90e1-4522-9126-c923e45f037f" opacity="1.000" fill="none" stroke="#000000" stroke-width="1.600" stroke-opacity="1.000" stroke-linecap="round" stroke-linejoin="round" d="M 248.135 685.107 Q 247.810 686.085 245.659 700.437 Q 245.773 700.489 246.522 699.447 Q 247.271 698.405 247.759 694.772 Q 248.247 691.139 248.407 688.861 Q 248.567 686.582 249.030 684.876 Q 249.492 683.170 249.883 682.358 Q 250.273 681.547 250.437 681.274 Q 250.602 681.002 251.101 681.136 Q 251.600 681.271 252.324 682.377 Q 253.049 683.483 254.634 686.825 Q 256.219 690.166 260.661 697.815 "></path>
    <path id="STROKE_b2950b45-d39c-4ce4-9c2d-8aa031a3b4a2" opacity="1.000" fill="none" stroke="#000000" stroke-width="1.600" stroke-opacity="1.000" stroke-linecap="round" stroke-linejoin="round" d="M 250.393 694.028 Q 251.166 693.060 251.048 693.282 Q 251.078 693.000 252.548 692.046 Q 254.018 691.092 257.967 690.533 "></path>
    <path id="STROKE_e94ec7de-d0fe-47c5-be96-3623a20cbe62" opacity="1.000" fill="none" stroke="#000000" stroke-width="1.600" stroke-opacity="1.000" stroke-linecap="round" stroke-linejoin="round" d="M 267.835 694.283 Q 268.259 695.075 268.615 696.516 Q 268.972 697.957 268.814 698.814 Q 268.657 699.671 268.483 700.075 Q 268.309 700.478 268.282 700.439 Q 268.256 700.400 268.027 700.565 Q 267.799 700.731 267.267 700.811 Q 266.736 700.892 266.503 700.781 Q 266.270 700.670 265.978 700.328 "></path>
    <circle id="STROKE_70035e30-514f-4699-bc6c-1f312e0b1644" opacity="1.000" fill="#000000" stroke="#000000" stroke-width="0.1" stroke-opacity="1.000" fill-opacity="1.000" cx="267.835" cy="687.037" r="0.800"></circle>
    <path id="STROKE_0e3e6c03-0dd3-475c-a725-7972512fe3ea" opacity="1.000" fill="none" stroke="#000000" stroke-width="1.600" stroke-opacity="1.000" stroke-linecap="round" stroke-linejoin="round" d="M 273.952 674.074 Q 274.154 674.103 274.921 673.807 Q 275.687 673.511 277.493 673.274 Q 279.299 673.038 280.244 673.164 Q 281.188 673.290 281.492 673.447 Q 281.795 673.604 282.245 673.882 Q 282.695 674.161 282.000 676.918 Q 281.305 679.675 281.287 684.553 Q 281.268 689.431 281.380 693.324 Q 281.493 697.217 285.168 704.115 Q 285.449 704.995 279.086 702.986 "></path>
  </g>
</svg>