<?xml version="1.0" encoding="UTF-8" standalone="yes"?>
<svg xmlns="http://www.w3.org/2000/svg" xmlns:xlink="http://www.w3.org/1999/xlink" width="345.261pt" height="351.862pt" version="1.1" viewBox="-139.952 567.113 345.261 351.862">
  <!--
	Exported with Concepts: Smarter Sketching
	Version: 2024.8.4 on Microsoft Windows NT 10.0.22631.0
	https://concepts.app/
	-->
  <title>Drawing 6</title>
  <desc>Drawing exported from Concepts: Smarter Sketching</desc>
  <defs></defs>
  <g id="Pen" opacity="1.000">
    <path id="STROKE_8e6bcbba-1efd-4758-98dd-747d7c2da557" opacity="1.000" fill="none" stroke="#000000" stroke-width="1.600" stroke-opacity="1.000" stroke-linecap="round" stroke-linejoin="round" d="M -100.000 572.423 L -100.000 858.000 L -100.000 868.000 "></path>
    <path id="STROKE_cc07a86b-3fdf-4d92-b405-41dd982670d4" opacity="1.000" fill="none" stroke="#000000" stroke-width="1.600" stroke-opacity="1.000" stroke-linecap="round" stroke-linejoin="round" d="M -114.338 868.000 L 40.000 868.000 L 50.000 868.000 "></path>
    <path id="STROKE_431a9b97-5a1e-4cac-9a3f-d2c0a807b1df" opacity="1.000" fill="none" stroke="#000000" stroke-width="1.600" stroke-opacity="1.000" stroke-linecap="round" stroke-linejoin="round" d="M -100.000 864.225 L -100.000 868.000 L -100.000 868.000 "></path>
    <path id="STROKE_e9c3c6a2-6046-482f-9ab7-a61420f159b5" opacity="1.000" fill="none" stroke="#000000" stroke-width="1.600" stroke-opacity="1.000" stroke-linecap="round" stroke-linejoin="round" d="M -104.492 868.000 L -100.000 868.000 L -100.000 878.000 L -100.000 878.000 "></path>
    <path id="STROKE_e246aa82-7706-4da1-b7ae-06e9348fc310" opacity="1.000" fill="none" stroke="#000000" stroke-width="1.600" stroke-opacity="1.000" stroke-linecap="round" stroke-linejoin="round" d="M 50.000 868.000 L 200.000 868.000 L 200.000 868.000 "></path>
    <path id="STROKE_76673390-a9dc-4958-9525-2739bd78a724" opacity="1.000" fill="none" stroke="#000000" stroke-width="1.600" stroke-opacity="1.000" stroke-linecap="round" stroke-linejoin="round" d="M -70.846 600.592 Q -70.130 601.536 -70.224 601.385 Q -70.318 601.233 -70.261 601.283 Q -70.204 601.333 -69.622 601.665 Q -69.041 601.997 -68.299 602.856 Q -67.557 603.714 -66.392 605.123 Q -65.227 606.532 -64.171 607.417 Q -63.116 608.303 -61.090 610.483 Q -59.065 612.664 -57.850 613.938 Q -56.635 615.212 -55.544 616.332 Q -54.452 617.453 -53.721 618.429 Q -52.989 619.405 -52.956 619.733 Q -52.923 620.061 -50.766 622.127 Q -48.609 624.193 -46.613 626.345 Q -44.616 628.497 -43.697 629.332 Q -42.779 630.167 -40.760 632.063 Q -38.741 633.960 -37.502 635.259 Q -36.264 636.558 -34.989 638.150 Q -33.714 639.742 -32.912 640.530 Q -32.109 641.319 -31.497 642.013 Q -30.884 642.707 -30.759 642.891 Q -30.634 643.074 -30.737 642.958 Q -30.839 642.843 -28.509 644.827 Q -26.179 646.810 -24.839 647.784 Q -23.499 648.758 -22.823 649.684 Q -22.148 650.610 -21.748 651.030 Q -21.348 651.450 -20.392 652.147 Q -19.437 652.845 -18.152 653.921 Q -16.866 654.997 -16.374 655.471 Q -15.883 655.945 -15.611 656.197 Q -15.338 656.448 -14.581 657.198 Q -13.825 657.948 -13.037 658.893 Q -12.250 659.839 -11.888 660.338 Q -11.525 660.836 -11.445 660.968 Q -11.364 661.100 -11.010 661.431 Q -10.655 661.761 -10.438 661.968 Q -10.220 662.174 -10.332 661.944 Q -10.445 661.714 -9.808 662.673 Q -9.171 663.631 -7.668 665.175 Q -6.166 666.719 -5.069 667.392 Q -3.972 668.065 -3.660 668.466 Q -3.348 668.868 -3.032 669.150 Q -2.716 669.431 -2.391 669.790 Q -2.067 670.149 -2.003 670.188 Q -1.939 670.227 -2.099 670.168 Q -2.259 670.109 -1.309 671.109 Q -0.359 672.108 0.943 673.054 Q 2.244 674.000 2.905 674.494 Q 3.566 674.988 4.132 675.550 Q 4.699 676.111 4.684 676.099 Q 4.669 676.087 4.660 676.139 Q 4.651 676.190 5.370 676.836 Q 6.088 677.482 7.362 678.832 Q 8.637 680.183 9.285 680.900 Q 9.933 681.618 10.243 681.939 Q 10.553 682.261 10.751 682.482 Q 10.948 682.702 12.619 684.663 Q 14.291 686.624 15.363 687.683 Q 16.435 688.742 17.125 689.405 Q 17.816 690.068 18.362 690.444 Q 18.909 690.820 19.404 691.246 Q 19.899 691.673 20.048 691.782 Q 20.196 691.891 20.563 692.374 Q 20.929 692.857 20.901 692.848 Q 20.873 692.838 20.811 692.783 Q 20.749 692.728 21.234 693.251 Q 21.719 693.774 21.984 694.042 Q 22.250 694.309 23.872 695.921 Q 25.494 697.533 26.533 698.558 Q 27.573 699.584 28.146 700.186 Q 28.719 700.788 28.855 700.974 Q 28.991 701.160 29.460 701.630 Q 29.929 702.101 29.833 701.988 Q 29.738 701.876 30.233 702.350 Q 30.728 702.824 30.984 703.077 Q 31.239 703.330 31.426 703.466 Q 31.613 703.602 31.678 703.647 Q 31.742 703.691 32.063 703.981 Q 32.385 704.271 32.656 704.540 Q 32.927 704.810 32.914 704.807 Q 32.902 704.803 32.775 704.744 Q 32.649 704.684 34.662 706.913 Q 36.675 709.141 37.746 710.204 Q 38.817 711.267 39.184 711.578 Q 39.551 711.890 39.882 712.233 Q 40.213 712.577 40.405 712.759 Q 40.597 712.942 40.808 713.122 Q 41.019 713.302 41.332 713.575 Q 41.644 713.847 41.617 713.854 Q 41.589 713.861 41.585 713.822 Q 41.581 713.782 41.935 714.403 Q 42.289 715.024 45.506 717.959 Q 48.723 720.895 50.115 722.294 Q 51.507 723.693 52.235 724.287 Q 52.963 724.880 54.878 726.784 Q 56.793 728.688 58.094 729.985 Q 59.396 731.282 60.846 732.540 Q 62.297 733.799 62.999 734.398 Q 63.700 734.998 64.317 735.510 Q 64.934 736.021 64.864 735.960 Q 64.794 735.899 64.871 735.996 Q 64.948 736.093 65.934 736.854 Q 66.919 737.616 68.491 738.648 Q 70.064 739.680 71.163 740.754 Q 72.263 741.828 72.901 742.442 Q 73.540 743.056 74.019 743.448 Q 74.498 743.840 74.865 744.165 Q 75.232 744.490 75.547 744.835 Q 75.862 745.180 75.821 745.159 Q 75.781 745.138 75.769 745.153 Q 75.756 745.168 76.250 745.581 Q 76.744 745.994 77.263 746.456 Q 77.781 746.918 78.229 747.358 Q 78.676 747.798 78.746 747.847 Q 78.816 747.897 78.753 747.836 Q 78.691 747.775 78.999 748.151 Q 79.306 748.527 80.895 749.812 Q 82.483 751.098 83.379 751.795 Q 84.274 752.491 85.081 753.138 Q 85.888 753.784 85.945 753.940 Q 86.001 754.097 88.047 755.303 Q 90.093 756.509 91.447 757.691 Q 92.802 758.874 93.361 759.489 Q 93.920 760.104 94.298 760.446 Q 94.676 760.789 94.676 760.785 Q 94.676 760.781 94.635 760.715 Q 94.595 760.650 94.739 760.802 Q 94.884 760.953 95.302 761.464 Q 95.721 761.975 95.747 761.976 Q 95.774 761.976 96.214 762.448 Q 96.654 762.919 96.690 762.918 Q 96.725 762.918 96.681 762.897 Q 96.636 762.876 96.728 762.920 Q 96.819 762.965 98.062 764.254 Q 99.305 765.543 100.084 766.563 Q 100.862 767.584 101.729 768.169 Q 102.595 768.754 103.260 769.417 Q 103.924 770.079 104.504 770.567 Q 105.084 771.054 105.191 771.180 Q 105.298 771.305 106.088 771.990 Q 106.878 772.675 107.642 773.593 Q 108.406 774.511 111.079 776.709 Q 113.752 778.906 115.384 780.376 Q 117.015 781.846 117.570 782.336 Q 118.124 782.825 119.137 783.768 Q 120.150 784.710 121.625 786.235 Q 123.101 787.761 123.365 787.842 Q 123.629 787.923 125.269 789.490 Q 126.910 791.057 129.163 793.119 Q 131.416 795.181 132.831 796.449 Q 134.247 797.718 135.565 798.911 Q 136.882 800.104 137.575 800.688 Q 138.268 801.272 138.443 801.427 Q 138.617 801.583 138.794 801.706 Q 138.971 801.830 139.780 802.756 Q 140.589 803.682 141.164 804.310 Q 141.738 804.938 142.222 805.458 Q 142.705 805.978 142.708 805.973 Q 142.711 805.969 142.998 806.353 Q 143.285 806.737 144.746 808.283 Q 146.207 809.829 147.791 811.379 Q 149.375 812.929 150.175 813.547 Q 150.974 814.165 151.500 814.704 Q 152.027 815.242 152.342 815.771 Q 152.658 816.299 152.528 816.171 Q 152.399 816.044 153.602 817.188 Q 154.804 818.332 157.025 820.365 Q 159.247 822.399 160.507 823.792 Q 161.767 825.185 162.552 825.964 Q 163.337 826.744 163.614 827.111 Q 163.891 827.479 163.740 827.255 Q 163.589 827.031 164.528 828.321 Q 165.467 829.611 168.725 832.582 Q 171.983 835.554 173.589 837.148 Q 175.194 838.741 175.868 839.359 Q 176.542 839.977 176.928 840.243 Q 177.314 840.510 177.834 840.997 Q 178.354 841.484 178.764 841.842 Q 179.175 842.200 179.499 842.464 Q 179.823 842.728 179.840 842.750 Q 179.857 842.772 179.813 842.738 Q 179.769 842.704 183.314 846.428 "></path>
    <path id="STROKE_df3a3a52-0eb0-48ec-a8f5-66cd5b116b2b" opacity="1.000" fill="none" stroke="#000000" stroke-width="1.600" stroke-opacity="1.000" stroke-linecap="round" stroke-linejoin="round" d="M 8.556 882.495 Q 9.164 883.807 9.090 883.518 Q 9.015 883.228 8.697 887.906 Q 8.379 892.584 8.240 902.398 "></path>
    <path id="STROKE_c9dd182f-f283-4483-aab9-81ac5763c64d" opacity="1.000" fill="none" stroke="#000000" stroke-width="1.600" stroke-opacity="1.000" stroke-linecap="round" stroke-linejoin="round" d="M 27.090 884.022 Q 28.441 883.907 25.996 889.908 Q 23.551 895.908 20.308 902.154 Q 17.066 908.399 13.980 913.666 "></path>
    <path id="STROKE_50c23243-c7bc-4c1c-ac61-03051185dc29" opacity="1.000" fill="none" stroke="#000000" stroke-width="1.600" stroke-opacity="1.000" stroke-linecap="round" stroke-linejoin="round" d="M 37.884 894.553 Q 38.151 895.663 38.042 895.685 Q 37.692 896.115 39.306 908.980 "></path>
    <path id="STROKE_e02c0b03-6a2a-48ab-bde1-573bcb03f4d5" opacity="1.000" fill="none" stroke="#000000" stroke-width="1.600" stroke-opacity="1.000" stroke-linecap="round" stroke-linejoin="round" d="M 25.669 893.763 L 25.721 893.763 Q 25.669 893.710 25.669 893.658 Q 26.756 894.323 26.517 894.167 Q 26.278 894.012 26.670 894.199 Q 27.062 894.387 28.295 894.332 Q 29.529 894.277 32.369 893.979 Q 35.210 893.681 37.220 893.528 Q 39.230 893.376 48.994 891.762 "></path>
    <path id="STROKE_e9ad8540-7c7a-4960-be66-1f4a1aaf4dcf" opacity="1.000" fill="none" stroke="#000000" stroke-width="1.600" stroke-opacity="1.000" stroke-linecap="round" stroke-linejoin="round" d="M -116.707 791.458 Q -116.628 791.590 -116.549 791.722 Q -114.848 790.949 -117.079 787.407 Q -119.310 783.864 -121.285 781.726 Q -123.259 779.587 -125.993 777.845 Q -128.727 776.103 -134.662 776.874 Q -135.107 777.680 -129.339 779.725 Q -123.571 781.770 -119.420 782.774 Q -115.269 783.778 -112.820 783.802 Q -110.370 783.826 -109.162 783.553 Q -107.954 783.281 -107.559 782.658 Q -107.164 782.035 -107.861 780.823 "></path>
    <path id="STROKE_44c059a4-4020-4aa6-b483-04d972297c73" opacity="1.000" fill="none" stroke="#000000" stroke-width="1.600" stroke-opacity="1.000" stroke-linecap="round" stroke-linejoin="round" d="M -117.708 771.029 Q -117.821 771.087 -116.971 771.108 Q -117.203 770.784 -117.446 770.426 Q -117.690 770.067 -117.749 770.018 Q -117.808 769.969 -117.898 769.923 Q -117.988 769.877 -119.639 768.149 Q -121.290 766.420 -122.137 765.090 Q -122.984 763.759 -123.162 762.839 Q -123.341 761.920 -123.160 761.320 Q -122.980 760.719 -121.565 759.857 Q -120.150 758.996 -110.547 759.656 "></path>
    <path id="STROKE_e1b7d3b4-8299-4c44-9034-7a242dfe5cd8" opacity="1.000" fill="none" stroke="#000000" stroke-width="1.600" stroke-opacity="1.000" stroke-linecap="round" stroke-linejoin="round" d="M -132.819 740.912 Q -132.812 741.432 -129.973 742.825 Q -127.133 744.218 -124.191 744.782 Q -121.250 745.346 -118.337 744.735 Q -115.424 744.124 -113.782 743.464 Q -112.141 742.804 -110.449 741.564 Q -108.757 740.325 -107.316 738.710 Q -105.874 737.096 -107.282 734.172 "></path>
    <path id="STROKE_62ba2123-61b7-4f68-86e0-fa5838bd650d" opacity="1.000" fill="none" stroke="#000000" stroke-width="1.600" stroke-opacity="1.000" stroke-linecap="round" stroke-linejoin="round" d="M -129.660 725.432 Q -129.016 724.916 -129.134 725.063 Q -127.844 725.063 -127.975 725.063 Q -128.741 724.761 -116.444 725.063 "></path>
    <path id="STROKE_34ff656c-33df-49ce-839d-4375aef28dc7" opacity="1.000" fill="none" stroke="#000000" stroke-width="1.600" stroke-opacity="1.000" stroke-linecap="round" stroke-linejoin="round" d="M -122.710 722.009 Q -122.932 722.034 -123.405 720.965 Q -123.878 719.897 -124.126 719.123 Q -124.374 718.350 -124.565 717.938 Q -124.756 717.525 -124.890 717.042 Q -125.025 716.559 -125.099 716.439 Q -125.173 716.320 -125.260 716.147 Q -125.347 715.975 -125.553 715.586 "></path>
    <path id="STROKE_4acec39e-677b-4ce6-b806-d2be7f5d7a01" opacity="1.000" fill="none" stroke="#000000" stroke-width="1.600" stroke-opacity="1.000" stroke-linecap="round" stroke-linejoin="round" d="M -124.289 722.536 Q -123.856 722.079 -123.947 722.267 Q -124.039 722.456 -124.016 722.410 Q -123.993 722.365 -123.874 721.915 Q -123.756 721.464 -122.738 720.653 Q -121.719 719.842 -120.981 719.320 Q -120.243 718.797 -119.763 718.620 Q -119.283 718.443 -118.771 717.857 Q -118.258 717.271 -117.884 716.977 Q -117.510 716.683 -116.865 714.533 "></path>
    <path id="STROKE_9d5e4e70-c144-4b9a-84ac-ebe821148708" opacity="1.000" fill="none" stroke="#000000" stroke-width="1.600" stroke-opacity="1.000" stroke-linecap="round" stroke-linejoin="round" d="M -132.819 710.268 Q -132.469 710.547 -131.568 710.321 Q -130.667 710.095 -128.730 708.634 Q -126.794 707.173 -124.273 705.898 Q -121.752 704.622 -118.512 704.769 Q -115.272 704.916 -112.836 705.302 Q -110.399 705.689 -107.598 709.215 "></path>
  </g>
</svg>