<?xml version="1.0" encoding="UTF-8" standalone="yes"?>
<svg xmlns="http://www.w3.org/2000/svg" xmlns:xlink="http://www.w3.org/1999/xlink" width="108.822pt" height="132.531pt" version="1.1" viewBox="-195.136 634.962 108.822 132.531">
  <!--
	Exported with Concepts: Smarter Sketching
	Version: 2024.8.7 on Microsoft Windows NT 10.0.22631.0
	https://concepts.app/
	-->
  <title>Drawing</title>
  <desc>Drawing exported from Concepts: Smarter Sketching</desc>
  <defs></defs>
  <g id="Pen" opacity="1.000">
    <path id="STROKE_07e932e1-4a7b-4ffe-955a-0bd3447d6cad" opacity="1.000" fill="none" stroke="#000000" stroke-width="1.600" stroke-opacity="1.000" stroke-linecap="round" stroke-linejoin="round" d="M -189.473 664.334 L -189.473 744.334 L -189.473 754.334 "></path>
    <path id="STROKE_4a39da6d-6c0d-4a9c-9703-82043a697680" opacity="1.000" fill="none" stroke="#000000" stroke-width="1.600" stroke-opacity="1.000" stroke-linecap="round" stroke-linejoin="round" d="M -189.473 750.251 L -189.473 754.334 L -189.473 764.334 "></path>
    <path id="STROKE_4ebddcfa-147d-433e-9ad1-9f00ded0764f" opacity="1.000" fill="none" stroke="#000000" stroke-width="1.600" stroke-opacity="1.000" stroke-linecap="round" stroke-linejoin="round" d="M -189.473 764.334 L -99.473 764.334 L -89.473 764.334 "></path>
    <path id="STROKE_22414959-d047-4a55-8c83-e656ed35e8a6" opacity="1.000" fill="none" stroke="#000000" stroke-width="1.600" stroke-opacity="1.000" stroke-linecap="round" stroke-linejoin="round" d="M -89.473 669.234 L -89.473 734.334 L -89.473 734.334 "></path>
    <path id="STROKE_e74287e1-05ff-4325-b385-f163367c806b" opacity="1.000" fill="none" stroke="#000000" stroke-width="1.600" stroke-opacity="1.000" stroke-linecap="round" stroke-linejoin="round" d="M -89.473 734.334 L -89.473 754.334 L -89.473 764.334 "></path>
    <path id="STROKE_a7201ca4-f86a-4514-b9a6-7d5fd0036d2a" opacity="1.000" fill="none" stroke="#000000" stroke-width="1.600" stroke-opacity="1.000" stroke-linecap="round" stroke-linejoin="round" d="M -89.473 664.334 L -89.473 674.334 L -89.473 674.334 "></path>
    <path id="STROKE_c9ac58df-0132-4fad-b7b9-222e3a2ab200" opacity="1.000" fill="none" stroke="#000000" stroke-width="1.600" stroke-opacity="1.000" stroke-linecap="round" stroke-linejoin="round" d="M -189.057 702.531 Q -189.160 702.842 -187.956 701.958 Q -186.752 701.075 -185.918 700.422 Q -185.084 699.769 -184.518 699.654 Q -183.952 699.540 -182.963 700.084 Q -181.975 700.628 -181.183 701.522 Q -180.392 702.417 -179.568 702.793 Q -178.744 703.169 -178.103 703.044 Q -177.463 702.919 -177.182 702.675 Q -176.900 702.430 -176.270 701.760 Q -175.639 701.089 -174.258 700.053 Q -172.877 699.017 -172.103 698.296 Q -171.330 697.576 -170.298 697.774 Q -169.265 697.973 -169.029 698.229 Q -168.793 698.484 -168.424 698.676 Q -168.055 698.867 -167.785 698.928 Q -167.515 698.989 -167.321 698.987 Q -167.126 698.986 -167.082 698.996 Q -167.039 699.006 -167.068 698.994 Q -167.097 698.983 -166.910 698.967 Q -166.723 698.952 -165.832 698.421 Q -164.941 697.891 -164.335 697.714 Q -163.728 697.538 -163.317 697.472 Q -162.906 697.406 -162.481 697.411 Q -162.057 697.417 -161.631 697.644 Q -161.205 697.871 -160.584 698.499 Q -159.963 699.128 -159.271 699.283 Q -158.579 699.438 -158.329 699.451 Q -158.079 699.464 -156.742 698.820 Q -155.406 698.177 -154.552 697.727 Q -153.698 697.276 -153.006 697.292 Q -152.314 697.308 -151.967 697.514 Q -151.619 697.721 -151.527 697.753 Q -151.435 697.786 -151.317 697.929 Q -151.198 698.073 -150.674 698.683 Q -150.150 699.293 -149.467 699.786 Q -148.785 700.280 -147.432 699.602 Q -146.079 698.925 -145.444 698.500 Q -144.810 698.076 -144.031 698.109 Q -143.253 698.142 -142.910 698.624 Q -142.567 699.105 -142.286 699.492 Q -142.004 699.879 -142.104 699.772 Q -142.204 699.664 -141.769 700.133 Q -141.333 700.602 -140.541 700.572 Q -139.749 700.541 -139.377 700.372 Q -139.005 700.203 -138.920 700.139 Q -138.834 700.075 -138.331 699.778 Q -137.827 699.482 -137.224 699.158 Q -136.621 698.835 -136.253 698.670 Q -135.884 698.505 -135.469 698.345 Q -135.054 698.185 -134.122 698.868 Q -133.191 699.551 -132.500 700.245 Q -131.809 700.940 -131.012 700.890 Q -130.216 700.841 -128.591 700.061 Q -126.967 699.280 -126.154 699.041 Q -125.340 698.802 -124.630 699.008 Q -123.920 699.215 -123.282 699.509 Q -122.644 699.803 -122.129 699.942 Q -121.614 700.081 -121.294 700.182 Q -120.973 700.283 -120.732 700.399 Q -120.491 700.514 -119.449 700.189 Q -118.406 699.865 -117.706 699.551 Q -117.005 699.237 -116.523 699.036 Q -116.041 698.836 -115.520 698.942 Q -115.000 699.049 -114.381 699.478 Q -113.762 699.907 -113.218 699.946 Q -112.674 699.985 -112.237 699.963 Q -111.799 699.941 -111.506 699.802 Q -111.213 699.664 -110.863 699.600 Q -110.514 699.537 -110.175 699.489 Q -109.836 699.441 -109.371 699.483 Q -108.907 699.526 -107.432 699.062 Q -105.956 698.599 -105.257 698.224 Q -104.557 697.849 -104.200 697.783 Q -103.842 697.717 -103.477 697.785 Q -103.112 697.853 -102.603 697.993 Q -102.094 698.132 -100.268 697.584 Q -98.442 697.036 -96.312 696.796 "></path>
    <path id="STROKE_88085597-2897-4e69-b03d-dcfa10ac1e01" opacity="1.000" fill="none" stroke="#000000" stroke-width="1.600" stroke-opacity="1.000" stroke-linecap="round" stroke-linejoin="round" d="M -95.912 696.251 Q -95.966 696.150 -95.880 696.167 Q -95.795 696.184 -95.593 697.538 Q -95.391 698.892 -95.084 699.650 Q -94.776 700.409 -94.481 700.747 Q -94.186 701.085 -93.907 701.176 Q -93.628 701.266 -93.154 701.152 "></path>
    <path id="STROKE_82a8bf87-a41d-460e-acad-ef2275bc356e" opacity="1.000" fill="none" stroke="#000000" stroke-width="1.600" stroke-opacity="1.000" stroke-linecap="round" stroke-linejoin="round" d="M -91.811 701.406 Q -91.952 701.389 -91.521 701.380 Q -91.090 701.371 -89.814 700.535 "></path>
    <path id="STROKE_0e6201a9-83c9-46c7-99d9-162b8dccf562" opacity="1.000" fill="none" stroke="#000000" stroke-width="1.600" stroke-opacity="1.000" stroke-linecap="round" stroke-linejoin="round" d="M -191.997 638.101 Q -191.918 638.190 -191.725 638.462 Q -191.533 638.733 -191.553 638.774 Q -191.574 638.814 -191.538 638.633 Q -191.503 638.452 -189.100 643.660 Q -186.698 648.868 -184.869 652.612 Q -183.040 656.356 -179.563 662.947 Q -176.086 669.538 -174.218 673.141 Q -172.350 676.743 -171.188 679.049 Q -170.026 681.355 -168.682 684.119 Q -167.339 686.884 -166.072 689.510 Q -164.805 692.137 -163.009 695.545 Q -161.212 698.954 -152.903 719.301 "></path>
    <path id="STROKE_aff0e9e1-cd99-49b7-86af-8da4bb98be0f" opacity="1.000" fill="none" stroke="#000000" stroke-width="1.600" stroke-opacity="1.000" stroke-linecap="round" stroke-linejoin="round" d="M -164.373 726.742 Q -164.428 726.688 -164.482 726.561 Q -164.895 726.886 -163.522 725.413 Q -162.149 723.939 -161.220 722.965 Q -160.292 721.991 -159.711 721.715 Q -159.131 721.439 -158.876 721.265 Q -158.621 721.091 -158.529 721.058 Q -158.438 721.025 -158.481 721.040 Q -158.524 721.056 -158.322 720.947 Q -158.121 720.838 -157.157 720.745 Q -156.193 720.652 -155.246 720.729 Q -154.299 720.806 -153.670 721.058 Q -153.041 721.309 -152.212 721.598 Q -151.383 721.888 -149.545 722.226 Q -147.707 722.565 -146.588 722.708 Q -145.469 722.852 -144.082 722.301 Q -142.695 721.749 -141.810 721.061 Q -140.926 720.372 -140.501 719.960 Q -140.075 719.547 -139.815 719.311 Q -139.554 719.074 -139.043 718.692 Q -138.532 718.310 -137.529 717.124 Q -136.527 715.938 -135.658 714.723 Q -134.790 713.508 -134.252 712.012 Q -133.715 710.517 -133.855 709.313 Q -133.995 708.109 -134.149 707.586 Q -134.302 707.062 -134.777 706.716 Q -135.252 706.370 -135.770 706.246 Q -136.289 706.122 -136.656 706.106 Q -137.023 706.089 -137.413 705.951 Q -137.804 705.812 -138.502 705.993 Q -139.201 706.174 -139.618 706.496 Q -140.034 706.817 -140.329 706.953 Q -140.624 707.088 -141.249 707.651 Q -141.874 708.213 -143.075 709.384 Q -144.276 710.555 -144.992 711.263 Q -145.709 711.971 -146.461 712.662 Q -147.213 713.354 -148.565 714.705 Q -149.917 716.055 -150.988 717.522 Q -152.060 718.988 -153.268 721.100 Q -154.476 723.211 -155.811 725.476 Q -157.146 727.741 -162.522 730.917 "></path>
    <path id="STROKE_1ef2e835-46b4-43c3-b709-eed0f56761f2" opacity="1.000" fill="none" stroke="#000000" stroke-width="1.600" stroke-opacity="1.000" stroke-linecap="round" stroke-linejoin="round" d="M -164.773 726.198 Q -164.928 726.479 -165.072 726.795 Q -165.215 727.111 -165.259 727.258 Q -165.303 727.405 -165.454 727.528 Q -165.605 727.651 -166.842 731.461 Q -166.814 731.585 -166.334 731.607 "></path>
    <path id="STROKE_81386939-2d7f-4d3a-9f5c-7a3c9cff80e8" opacity="1.000" fill="none" stroke="#000000" stroke-width="1.600" stroke-opacity="1.000" stroke-linecap="round" stroke-linejoin="round" d="M -166.443 732.405 Q -166.783 732.066 -162.704 731.788 "></path>
    <path id="STROKE_a69b3fea-a197-45ba-b327-5163d540c6d6" opacity="1.000" fill="none" stroke="#000000" stroke-width="1.600" stroke-opacity="1.000" stroke-linecap="round" stroke-linejoin="round" d="M -189.473 664.334 L -189.473 744.334 L -189.473 754.334 "></path>
    <path id="STROKE_1129f5d0-cbe0-4464-9924-621b0cb00fa2" opacity="1.000" fill="none" stroke="#000000" stroke-width="1.600" stroke-opacity="1.000" stroke-linecap="round" stroke-linejoin="round" d="M -189.473 750.251 L -189.473 754.334 L -189.473 764.334 "></path>
    <path id="STROKE_a201da3c-437a-4012-9547-a1c19f1f18c8" opacity="1.000" fill="none" stroke="#000000" stroke-width="1.600" stroke-opacity="1.000" stroke-linecap="round" stroke-linejoin="round" d="M -189.473 764.334 L -99.473 764.334 L -89.473 764.334 "></path>
    <path id="STROKE_a931c36e-217b-4d33-9a95-ed3cfc9eb439" opacity="1.000" fill="none" stroke="#000000" stroke-width="1.600" stroke-opacity="1.000" stroke-linecap="round" stroke-linejoin="round" d="M -89.473 669.234 L -89.473 734.334 L -89.473 734.334 "></path>
    <path id="STROKE_605b9b58-a907-4d6b-8ff9-3666631b2d4d" opacity="1.000" fill="none" stroke="#000000" stroke-width="1.600" stroke-opacity="1.000" stroke-linecap="round" stroke-linejoin="round" d="M -89.473 734.334 L -89.473 754.334 L -89.473 764.334 "></path>
    <path id="STROKE_e29c61b7-8a26-48f9-a991-9ae5e755e23c" opacity="1.000" fill="none" stroke="#000000" stroke-width="1.600" stroke-opacity="1.000" stroke-linecap="round" stroke-linejoin="round" d="M -89.473 664.334 L -89.473 674.334 L -89.473 674.334 "></path>
    <path id="STROKE_254564ad-e022-415c-8c76-481364958f43" opacity="1.000" fill="none" stroke="#000000" stroke-width="1.600" stroke-opacity="1.000" stroke-linecap="round" stroke-linejoin="round" d="M -189.057 702.531 Q -189.160 702.842 -187.956 701.958 Q -186.752 701.075 -185.918 700.422 Q -185.084 699.769 -184.518 699.654 Q -183.952 699.540 -182.963 700.084 Q -181.975 700.628 -181.183 701.522 Q -180.392 702.417 -179.568 702.793 Q -178.744 703.169 -178.103 703.044 Q -177.463 702.919 -177.182 702.675 Q -176.900 702.430 -176.270 701.760 Q -175.639 701.089 -174.258 700.053 Q -172.877 699.017 -172.103 698.296 Q -171.330 697.576 -170.298 697.774 Q -169.265 697.973 -169.029 698.229 Q -168.793 698.484 -168.424 698.676 Q -168.055 698.867 -167.785 698.928 Q -167.515 698.989 -167.321 698.987 Q -167.126 698.986 -167.082 698.996 Q -167.039 699.006 -167.068 698.994 Q -167.097 698.983 -166.910 698.967 Q -166.723 698.952 -165.832 698.421 Q -164.941 697.891 -164.335 697.714 Q -163.728 697.538 -163.317 697.472 Q -162.906 697.406 -162.481 697.411 Q -162.057 697.417 -161.631 697.644 Q -161.205 697.871 -160.584 698.499 Q -159.963 699.128 -159.271 699.283 Q -158.579 699.438 -158.329 699.451 Q -158.079 699.464 -156.742 698.820 Q -155.406 698.177 -154.552 697.727 Q -153.698 697.276 -153.006 697.292 Q -152.314 697.308 -151.967 697.514 Q -151.619 697.721 -151.527 697.753 Q -151.435 697.786 -151.317 697.929 Q -151.198 698.073 -150.674 698.683 Q -150.150 699.293 -149.467 699.786 Q -148.785 700.280 -147.432 699.602 Q -146.079 698.925 -145.444 698.500 Q -144.810 698.076 -144.031 698.109 Q -143.253 698.142 -142.910 698.624 Q -142.567 699.105 -142.286 699.492 Q -142.004 699.879 -142.104 699.772 Q -142.204 699.664 -141.769 700.133 Q -141.333 700.602 -140.541 700.572 Q -139.749 700.541 -139.377 700.372 Q -139.005 700.203 -138.920 700.139 Q -138.834 700.075 -138.331 699.778 Q -137.827 699.482 -137.224 699.158 Q -136.621 698.835 -136.253 698.670 Q -135.884 698.505 -135.469 698.345 Q -135.054 698.185 -134.122 698.868 Q -133.191 699.551 -132.500 700.245 Q -131.809 700.940 -131.012 700.890 Q -130.216 700.841 -128.591 700.061 Q -126.967 699.280 -126.154 699.041 Q -125.340 698.802 -124.630 699.008 Q -123.920 699.215 -123.282 699.509 Q -122.644 699.803 -122.129 699.942 Q -121.614 700.081 -121.294 700.182 Q -120.973 700.283 -120.732 700.399 Q -120.491 700.514 -119.449 700.189 Q -118.406 699.865 -117.706 699.551 Q -117.005 699.237 -116.523 699.036 Q -116.041 698.836 -115.520 698.942 Q -115.000 699.049 -114.381 699.478 Q -113.762 699.907 -113.218 699.946 Q -112.674 699.985 -112.237 699.963 Q -111.799 699.941 -111.506 699.802 Q -111.213 699.664 -110.863 699.600 Q -110.514 699.537 -110.175 699.489 Q -109.836 699.441 -109.371 699.483 Q -108.907 699.526 -107.432 699.062 Q -105.956 698.599 -105.257 698.224 Q -104.557 697.849 -104.200 697.783 Q -103.842 697.717 -103.477 697.785 Q -103.112 697.853 -102.603 697.993 Q -102.094 698.132 -100.268 697.584 Q -98.442 697.036 -96.312 696.796 "></path>
    <path id="STROKE_5241aaa5-f968-411b-8e09-8276054bdb3f" opacity="1.000" fill="none" stroke="#000000" stroke-width="1.600" stroke-opacity="1.000" stroke-linecap="round" stroke-linejoin="round" d="M -95.912 696.251 Q -95.966 696.150 -95.880 696.167 Q -95.795 696.184 -95.593 697.538 Q -95.391 698.892 -95.084 699.650 Q -94.776 700.409 -94.481 700.747 Q -94.186 701.085 -93.907 701.176 Q -93.628 701.266 -93.154 701.152 "></path>
    <path id="STROKE_784e18bf-dc2f-4e80-ace3-f8955d5d6543" opacity="1.000" fill="none" stroke="#000000" stroke-width="1.600" stroke-opacity="1.000" stroke-linecap="round" stroke-linejoin="round" d="M -91.811 701.406 Q -91.952 701.389 -91.521 701.380 Q -91.090 701.371 -89.814 700.535 "></path>
    <path id="STROKE_abbed31d-bd17-430a-9e1a-50f4949b5708" opacity="1.000" fill="none" stroke="#000000" stroke-width="1.600" stroke-opacity="1.000" stroke-linecap="round" stroke-linejoin="round" d="M -191.997 638.101 Q -191.918 638.190 -191.725 638.462 Q -191.533 638.733 -191.553 638.774 Q -191.574 638.814 -191.538 638.633 Q -191.503 638.452 -189.100 643.660 Q -186.698 648.868 -184.869 652.612 Q -183.040 656.356 -179.563 662.947 Q -176.086 669.538 -174.218 673.141 Q -172.350 676.743 -171.188 679.049 Q -170.026 681.355 -168.682 684.119 Q -167.339 686.884 -166.072 689.510 Q -164.805 692.137 -163.009 695.545 Q -161.212 698.954 -152.903 719.301 "></path>
    <path id="STROKE_7feb21fe-a5b8-481c-81b7-b6399a11cd0c" opacity="1.000" fill="none" stroke="#000000" stroke-width="1.600" stroke-opacity="1.000" stroke-linecap="round" stroke-linejoin="round" d="M -164.373 726.742 Q -164.428 726.688 -164.482 726.561 Q -164.895 726.886 -163.522 725.413 Q -162.149 723.939 -161.220 722.965 Q -160.292 721.991 -159.711 721.715 Q -159.131 721.439 -158.876 721.265 Q -158.621 721.091 -158.529 721.058 Q -158.438 721.025 -158.481 721.040 Q -158.524 721.056 -158.322 720.947 Q -158.121 720.838 -157.157 720.745 Q -156.193 720.652 -155.246 720.729 Q -154.299 720.806 -153.670 721.058 Q -153.041 721.309 -152.212 721.598 Q -151.383 721.888 -149.545 722.226 Q -147.707 722.565 -146.588 722.708 Q -145.469 722.852 -144.082 722.301 Q -142.695 721.749 -141.810 721.061 Q -140.926 720.372 -140.501 719.960 Q -140.075 719.547 -139.815 719.311 Q -139.554 719.074 -139.043 718.692 Q -138.532 718.310 -137.529 717.124 Q -136.527 715.938 -135.658 714.723 Q -134.790 713.508 -134.252 712.012 Q -133.715 710.517 -133.855 709.313 Q -133.995 708.109 -134.149 707.586 Q -134.302 707.062 -134.777 706.716 Q -135.252 706.370 -135.770 706.246 Q -136.289 706.122 -136.656 706.106 Q -137.023 706.089 -137.413 705.951 Q -137.804 705.812 -138.502 705.993 Q -139.201 706.174 -139.618 706.496 Q -140.034 706.817 -140.329 706.953 Q -140.624 707.088 -141.249 707.651 Q -141.874 708.213 -143.075 709.384 Q -144.276 710.555 -144.992 711.263 Q -145.709 711.971 -146.461 712.662 Q -147.213 713.354 -148.565 714.705 Q -149.917 716.055 -150.988 717.522 Q -152.060 718.988 -153.268 721.100 Q -154.476 723.211 -155.811 725.476 Q -157.146 727.741 -162.522 730.917 "></path>
    <path id="STROKE_69b25c96-3b85-4e04-a6ea-b5363c72abb0" opacity="1.000" fill="none" stroke="#000000" stroke-width="1.600" stroke-opacity="1.000" stroke-linecap="round" stroke-linejoin="round" d="M -164.773 726.198 Q -164.928 726.479 -165.072 726.795 Q -165.215 727.111 -165.259 727.258 Q -165.303 727.405 -165.454 727.528 Q -165.605 727.651 -166.842 731.461 Q -166.814 731.585 -166.334 731.607 "></path>
    <path id="STROKE_4ccbb51f-a62f-413b-b16e-47c869c32e89" opacity="1.000" fill="none" stroke="#000000" stroke-width="1.600" stroke-opacity="1.000" stroke-linecap="round" stroke-linejoin="round" d="M -166.443 732.405 Q -166.783 732.066 -162.704 731.788 "></path>
    <path id="STROKE_f281dee6-2a1b-44ae-b1f9-9a57826f43d1" opacity="1.000" fill="none" stroke="#000000" stroke-width="1.600" stroke-opacity="1.000" stroke-linecap="round" stroke-linejoin="round" d="M -177.049 681.104 Q -177.036 681.096 -176.969 681.505 Q -176.901 681.914 -176.706 682.049 Q -176.512 682.185 -175.732 682.142 Q -174.952 682.099 -173.637 680.951 Q -172.323 679.803 -171.410 678.539 Q -170.497 677.275 -169.879 676.324 Q -169.261 675.374 -168.828 674.454 Q -168.395 673.534 -168.544 672.746 Q -168.693 671.958 -169.486 671.558 "></path>
    <path id="STROKE_31a6ce3f-a4c5-42e4-997f-32877244abb4" opacity="1.000" fill="none" stroke="#000000" stroke-width="1.600" stroke-opacity="1.000" stroke-linecap="round" stroke-linejoin="round" d="M -171.618 672.996 Q -171.358 672.996 -170.789 671.378 Q -170.220 669.760 -169.535 667.615 Q -169.476 668.046 -169.124 668.732 Q -168.771 669.417 -168.377 669.628 Q -167.982 669.839 -167.741 669.902 Q -167.501 669.965 -167.172 669.978 Q -166.842 669.990 -165.841 669.351 "></path>
  </g>
</svg>