<?xml version="1.0" encoding="UTF-8" standalone="yes"?>
<svg xmlns="http://www.w3.org/2000/svg" xmlns:xlink="http://www.w3.org/1999/xlink" width="383.001pt" height="151.344pt" version="1.1" viewBox="-446.478 752.188 383.001 151.344">
  <!--
	Exported with Concepts: Smarter Sketching
	Version: 2024.10.4 on Microsoft Windows NT 10.0.22631.0
	https://concepts.app/
	-->
  <title>Drawing 6</title>
  <desc>Drawing exported from Concepts: Smarter Sketching</desc>
  <defs></defs>
  <g id="Pen" opacity="1.000">
    <path id="STROKE_fcae1e65-0b48-4792-bcf1-3c1c99133f7c" opacity="1.000" fill="none" stroke="#000000" stroke-width="1.600" stroke-opacity="1.000" stroke-linecap="round" stroke-linejoin="round" d="M -390.986 789.641 L -391.115 789.710 Q -390.955 789.396 -390.847 789.166 Q -390.913 788.752 -390.884 789.970 Q -390.856 791.189 -390.423 792.260 Q -389.989 793.331 -389.624 793.686 Q -389.258 794.040 -389.203 794.130 Q -389.147 794.220 -388.969 794.549 Q -388.792 794.877 -388.767 794.916 Q -388.742 794.955 -388.737 794.970 Q -388.732 794.984 -388.705 795.060 Q -388.677 795.135 -387.811 796.164 Q -386.945 797.193 -385.694 798.724 Q -384.443 800.254 -383.826 800.878 Q -383.209 801.501 -382.887 801.692 Q -382.565 801.883 -382.145 801.921 Q -381.725 801.960 -381.903 801.937 Q -382.081 801.915 -381.272 801.956 Q -380.464 801.996 -379.461 801.909 Q -378.458 801.823 -377.924 801.366 Q -377.390 800.909 -376.610 800.338 Q -375.831 799.767 -375.574 799.598 Q -375.318 799.430 -375.309 799.422 Q -375.299 799.413 -375.214 799.350 Q -375.130 799.287 -374.942 799.134 Q -374.755 798.981 -374.334 798.669 Q -373.913 798.356 -373.652 798.047 Q -373.390 797.738 -372.154 796.165 Q -370.918 794.591 -369.575 793.135 Q -368.231 791.678 -367.746 790.962 Q -367.261 790.246 -366.934 789.882 Q -366.607 789.518 -366.396 789.298 Q -366.185 789.077 -366.094 788.984 Q -366.002 788.890 -365.916 788.782 Q -365.829 788.674 -365.594 788.442 Q -365.358 788.209 -364.972 787.754 Q -364.587 787.299 -363.968 787.050 Q -363.350 786.801 -363.153 786.803 Q -362.955 786.805 -362.833 786.815 Q -362.712 786.824 -362.446 786.839 Q -362.180 786.854 -362.135 786.860 Q -362.089 786.866 -362.084 786.871 Q -362.078 786.876 -362.009 786.796 Q -361.940 786.716 -361.216 786.901 Q -360.492 787.085 -360.044 787.241 Q -359.596 787.397 -359.507 787.470 Q -359.418 787.543 -359.431 787.540 Q -359.444 787.537 -359.401 787.569 Q -359.359 787.601 -358.780 788.347 Q -358.201 789.094 -358.003 789.343 Q -357.804 789.593 -357.772 789.628 Q -357.740 789.664 -357.750 789.634 Q -357.759 789.604 -357.625 789.975 Q -357.492 790.346 -357.309 790.609 Q -357.127 790.872 -356.819 791.144 Q -356.512 791.417 -356.511 791.417 Q -356.510 791.416 -356.543 791.382 Q -356.576 791.348 -356.240 791.677 Q -355.904 792.006 -355.920 791.997 Q -355.935 791.989 -355.932 791.992 Q -355.929 791.994 -355.835 792.154 Q -355.741 792.313 -355.360 793.070 Q -354.979 793.828 -354.947 793.876 Q -354.916 793.924 -354.820 794.095 Q -354.725 794.266 -354.720 794.271 Q -354.715 794.276 -354.736 794.230 Q -354.757 794.185 -354.386 795.154 Q -354.016 796.123 -352.912 797.967 Q -351.808 799.812 -351.120 800.764 Q -350.432 801.716 -349.945 803.014 Q -349.458 804.311 -349.247 804.961 Q -349.036 805.611 -348.537 806.448 Q -348.037 807.285 -347.758 807.780 Q -347.479 808.275 -347.274 808.692 Q -347.069 809.109 -346.955 809.298 Q -346.841 809.486 -346.727 809.677 Q -346.612 809.867 -346.568 809.944 Q -346.525 810.021 -346.566 809.974 Q -346.606 809.928 -346.348 810.290 Q -346.091 810.653 -345.332 812.075 Q -344.573 813.497 -344.165 814.337 Q -343.757 815.177 -343.436 815.702 Q -343.114 816.227 -343.025 816.403 Q -342.936 816.579 -342.784 816.927 Q -342.633 817.275 -342.562 817.417 Q -342.491 817.559 -342.397 817.756 Q -342.302 817.953 -342.298 817.940 Q -342.294 817.928 -341.738 819.239 Q -341.182 820.550 -340.341 822.351 Q -339.500 824.152 -338.939 825.211 Q -338.378 826.269 -338.178 826.802 Q -337.978 827.335 -337.971 827.522 Q -337.963 827.710 -337.689 828.077 Q -337.414 828.444 -337.225 828.972 Q -337.037 829.500 -336.906 829.819 Q -336.774 830.137 -336.691 830.291 Q -336.608 830.445 -336.633 830.406 Q -336.658 830.367 -336.539 830.621 Q -336.420 830.875 -335.569 832.988 Q -334.718 835.102 -333.990 837.114 Q -333.262 839.127 -332.718 840.322 Q -332.174 841.518 -331.931 842.000 Q -331.687 842.481 -331.558 842.751 Q -331.430 843.020 -331.296 843.298 Q -331.162 843.575 -331.137 843.625 Q -331.112 843.674 -330.896 844.159 Q -330.680 844.644 -330.573 844.863 Q -330.466 845.082 -330.292 845.435 Q -330.117 845.788 -330.104 845.824 Q -330.092 845.859 -330.060 845.935 Q -330.028 846.012 -330.010 846.058 Q -329.992 846.103 -329.759 846.546 Q -329.527 846.989 -329.315 847.479 Q -329.102 847.969 -329.022 848.175 Q -328.941 848.382 -328.837 848.705 Q -328.732 849.027 -328.529 849.558 Q -328.326 850.089 -328.193 850.431 Q -328.060 850.773 -327.907 851.047 Q -327.754 851.321 -326.995 852.996 Q -326.236 854.671 -325.462 856.280 Q -324.689 857.890 -324.286 858.887 Q -323.884 859.883 -323.644 860.412 Q -323.404 860.941 -323.309 861.148 Q -323.214 861.355 -323.209 861.353 Q -323.204 861.351 -322.748 862.318 Q -322.291 863.284 -321.566 864.877 Q -320.840 866.469 -320.505 866.951 Q -320.170 867.433 -319.787 867.827 Q -319.404 868.220 -319.223 868.371 Q -319.042 868.522 -318.913 868.635 Q -318.785 868.749 -318.788 868.747 Q -318.792 868.746 -318.459 869.011 Q -318.127 869.277 -317.871 869.533 Q -317.614 869.788 -317.300 870.111 Q -316.987 870.433 -316.988 870.424 Q -316.988 870.415 -317.011 870.417 Q -317.034 870.418 -316.446 870.966 Q -315.858 871.513 -315.341 871.780 Q -314.824 872.047 -314.555 872.150 Q -314.286 872.254 -314.219 872.284 Q -314.152 872.315 -314.138 872.320 Q -314.124 872.324 -313.809 872.510 Q -313.495 872.696 -313.472 872.702 Q -313.450 872.708 -313.413 872.723 Q -313.375 872.739 -313.447 872.754 Q -313.519 872.770 -313.081 872.952 Q -312.643 873.134 -311.886 873.229 Q -311.129 873.324 -311.185 873.311 Q -311.241 873.298 -311.187 873.319 Q -311.133 873.339 -310.892 873.307 Q -310.652 873.275 -309.902 873.077 Q -309.152 872.879 -309.046 872.834 Q -308.940 872.789 -308.693 872.756 Q -308.447 872.724 -306.618 872.235 Q -304.790 871.747 -301.929 869.897 Q -299.068 868.047 -297.259 866.460 Q -295.449 864.872 -294.725 864.148 Q -294.002 863.425 -291.962 861.372 Q -289.923 859.319 -287.894 857.144 "></path>
    <path id="STROKE_412f2207-58da-4fea-8a62-7bb54ea39c59" opacity="1.000" fill="none" stroke="#000000" stroke-width="1.600" stroke-opacity="1.000" stroke-linecap="round" stroke-linejoin="round" d="M -184.504 858.213 L -184.531 858.207 Q -184.730 858.527 -184.215 859.809 Q -183.700 861.090 -183.235 862.040 Q -182.770 862.990 -182.553 863.565 Q -182.337 864.140 -182.068 864.567 Q -181.799 864.994 -181.842 864.917 Q -181.884 864.840 -181.662 865.300 Q -181.441 865.761 -181.295 866.084 Q -181.150 866.407 -180.963 866.753 Q -180.775 867.099 -180.799 867.049 Q -180.823 867.000 -180.794 867.048 Q -180.765 867.097 -180.790 867.030 Q -180.814 866.963 -180.529 867.637 Q -180.243 868.311 -179.852 868.853 Q -179.461 869.396 -179.231 869.644 Q -179.001 869.892 -178.966 869.934 Q -178.931 869.975 -178.651 870.293 Q -178.371 870.611 -178.438 870.539 Q -178.506 870.466 -178.325 870.719 Q -178.143 870.971 -177.967 871.178 Q -177.791 871.384 -177.102 871.650 Q -176.412 871.916 -175.980 872.053 Q -175.548 872.191 -175.248 872.423 Q -174.949 872.654 -174.930 872.642 Q -174.912 872.629 -174.936 872.716 Q -174.961 872.803 -174.308 872.733 Q -173.655 872.663 -173.232 872.432 Q -172.809 872.201 -172.821 872.208 Q -172.834 872.215 -172.816 872.201 Q -172.798 872.187 -172.663 872.119 Q -172.527 872.052 -171.654 871.953 Q -170.782 871.855 -170.120 871.460 Q -169.458 871.066 -169.135 870.715 Q -168.813 870.363 -168.792 870.339 Q -168.771 870.316 -167.148 869.078 Q -165.525 867.840 -164.616 866.764 Q -163.707 865.688 -163.235 864.968 Q -162.764 864.248 -162.369 863.674 Q -161.975 863.100 -161.494 862.442 Q -161.012 861.784 -160.608 860.993 Q -160.204 860.202 -159.986 859.739 Q -159.768 859.276 -159.678 859.091 Q -159.588 858.905 -159.456 858.643 Q -159.324 858.381 -159.431 858.584 Q -159.538 858.786 -158.560 856.921 Q -157.581 855.057 -156.876 853.746 Q -156.171 852.435 -155.966 851.961 Q -155.761 851.486 -155.531 851.105 Q -155.300 850.724 -153.876 847.543 Q -152.452 844.362 -151.517 842.036 Q -150.581 839.710 -150.229 838.763 Q -149.877 837.815 -149.592 837.067 Q -149.307 836.320 -148.581 834.170 Q -147.855 832.019 -147.424 830.849 Q -146.993 829.678 -146.162 828.498 Q -145.331 827.319 -144.834 826.079 Q -144.336 824.840 -143.917 824.009 Q -143.499 823.179 -143.232 822.505 Q -142.966 821.831 -142.580 820.749 Q -142.195 819.667 -141.926 818.595 Q -141.656 817.522 -141.485 816.733 Q -141.315 815.944 -141.208 815.681 Q -141.102 815.419 -141.058 815.317 Q -141.014 815.215 -141.087 815.326 Q -141.159 815.437 -140.715 814.370 Q -140.270 813.302 -139.866 812.627 Q -139.461 811.951 -138.315 809.571 Q -137.169 807.190 -136.688 805.845 Q -136.207 804.501 -135.935 803.656 Q -135.662 802.811 -135.428 802.335 Q -135.195 801.858 -135.047 801.619 Q -134.899 801.381 -134.820 801.248 Q -134.742 801.115 -134.503 800.815 Q -134.265 800.516 -134.135 800.326 Q -134.004 800.137 -133.823 799.923 Q -133.642 799.710 -133.477 799.490 Q -133.313 799.271 -133.127 798.986 Q -132.942 798.702 -132.880 798.597 Q -132.818 798.493 -132.901 798.704 Q -132.983 798.915 -131.898 797.163 Q -130.814 795.411 -130.366 794.391 Q -129.919 793.371 -129.541 792.892 Q -129.163 792.412 -128.973 792.204 Q -128.783 791.996 -128.788 792.003 Q -128.793 792.010 -128.702 791.910 Q -128.611 791.811 -128.424 791.614 Q -128.237 791.417 -127.932 791.116 Q -127.626 790.814 -127.631 790.820 Q -127.636 790.825 -127.642 790.820 Q -127.649 790.815 -127.063 790.449 Q -126.477 790.082 -126.215 789.906 Q -125.952 789.729 -125.401 789.467 Q -124.849 789.205 -124.501 789.054 Q -124.153 788.902 -123.922 788.796 Q -123.692 788.689 -123.459 788.600 Q -123.227 788.510 -122.886 788.433 Q -122.545 788.357 -122.247 788.334 Q -121.949 788.312 -121.688 788.281 Q -121.427 788.250 -121.113 788.325 Q -120.799 788.401 -120.568 788.385 Q -120.337 788.369 -120.018 788.473 Q -119.699 788.577 -119.431 788.725 Q -119.163 788.873 -118.811 789.268 Q -118.458 789.664 -118.459 789.670 Q -118.460 789.676 -118.252 789.986 Q -118.043 790.296 -118.067 790.275 Q -118.091 790.253 -118.095 790.246 Q -118.099 790.239 -117.789 790.643 Q -117.479 791.047 -117.123 791.622 Q -116.767 792.197 -116.565 792.566 Q -116.363 792.935 -116.034 793.260 Q -115.705 793.585 -115.506 793.771 Q -115.307 793.957 -115.243 794.044 Q -115.178 794.131 -115.220 794.085 Q -115.261 794.039 -114.965 794.469 Q -114.669 794.899 -114.447 795.398 Q -114.224 795.897 -114.090 796.431 Q -113.956 796.965 -113.896 797.228 Q -113.836 797.491 -113.768 797.721 Q -113.699 797.952 -113.675 798.022 Q -113.651 798.092 -113.614 798.214 Q -113.577 798.337 -113.368 798.915 Q -113.160 799.494 -113.037 799.895 Q -112.914 800.296 -112.908 800.298 Q -112.901 800.299 -112.885 800.456 Q -112.870 800.612 -112.622 801.544 Q -112.373 802.475 -112.047 803.124 Q -111.721 803.773 -111.522 804.141 Q -111.324 804.509 -110.994 804.933 Q -110.664 805.357 -110.271 806.158 Q -109.879 806.958 -109.786 807.341 Q -109.693 807.724 -109.537 808.048 Q -109.381 808.372 -109.115 808.868 Q -108.850 809.364 -108.671 809.669 Q -108.493 809.974 -108.101 811.190 Q -107.708 812.406 -107.418 813.065 Q -107.127 813.725 -107.015 813.861 Q -106.903 813.997 -106.834 814.120 Q -106.766 814.243 -106.439 814.540 Q -106.112 814.836 -105.912 815.001 Q -105.711 815.167 -104.915 815.570 Q -104.119 815.974 -103.456 816.200 Q -102.793 816.427 -102.464 816.528 Q -102.134 816.630 -101.677 816.722 Q -101.221 816.815 -100.429 816.736 Q -99.638 816.657 -98.569 816.195 Q -97.500 815.733 -96.067 815.047 Q -94.635 814.361 -94.119 814.119 Q -93.604 813.877 -92.575 812.971 Q -91.546 812.064 -90.941 811.516 Q -90.336 810.969 -90.099 810.678 Q -89.862 810.388 -88.304 809.739 Q -86.746 809.089 -85.805 808.177 Q -84.864 807.266 -84.576 806.301 Q -84.621 806.254 -84.736 806.205 "></path>
    <path id="STROKE_da2a073e-8277-43e3-ba9f-53fb153f286a" opacity="1.000" fill="none" stroke="#000000" stroke-width="1.600" stroke-opacity="1.000" stroke-linecap="round" stroke-linejoin="round" d="M -410.139 762.328 Q -410.136 762.901 -410.137 762.804 Q -410.133 763.628 -410.134 763.427 Q -410.134 763.516 -410.132 763.903 Q -410.132 763.874 -410.133 763.814 Q -410.132 763.844 -410.132 763.904 L -410.132 763.875 Q -410.132 763.907 -410.100 771.500 Q -410.067 779.094 -410.042 784.971 Q -410.017 790.848 -410.006 793.607 Q -409.994 796.366 -409.982 799.095 Q -409.971 801.824 -409.917 814.454 Q -409.863 827.084 -409.833 834.092 Q -409.803 841.100 -409.790 844.158 Q -409.777 847.215 -409.768 849.353 Q -409.759 851.491 -409.581 893.190 Q -409.582 893.131 -409.584 892.687 "></path>
    <path id="STROKE_a1a9c66d-3ab6-418d-8bd9-81693b7783fe" opacity="1.000" fill="none" stroke="#000000" stroke-width="1.600" stroke-opacity="1.000" stroke-linecap="round" stroke-linejoin="round" d="M -409.985 895.583 Q -409.491 895.582 -409.599 895.583 Q -408.760 895.581 -408.905 895.581 Q -409.049 895.581 -408.987 895.581 Q -408.925 895.581 -408.695 895.581 Q -408.466 895.580 -408.508 895.580 Q -408.550 895.580 -408.494 895.580 Q -408.439 895.580 -408.553 895.580 Q -408.668 895.581 -402.899 895.568 Q -397.131 895.556 -392.281 895.546 Q -387.430 895.535 -384.369 895.529 Q -381.309 895.522 -379.788 895.519 Q -378.267 895.516 -360.003 895.477 Q -341.740 895.438 -332.027 895.417 Q -322.315 895.396 -318.322 895.388 Q -314.329 895.379 -312.944 895.376 Q -311.559 895.373 -310.135 895.370 Q -308.710 895.367 -305.743 895.361 Q -302.775 895.354 -298.414 895.345 Q -294.052 895.336 -288.652 895.324 Q -288.255 895.323 -290.256 895.328 L -290.197 895.328 "></path>
    <path id="STROKE_c1004c3d-5205-4891-897a-cc16013780db" opacity="1.000" fill="none" stroke="#000000" stroke-width="1.600" stroke-opacity="1.000" stroke-linecap="round" stroke-linejoin="round" d="M -289.911 895.327 Q -289.825 895.327 -290.387 895.328 Q -289.810 895.327 -289.853 895.327 Q -289.167 895.325 -289.258 895.326 Q -288.704 895.324 -288.753 895.324 Q -288.090 895.323 -288.159 895.323 Q -287.525 895.322 -277.054 895.299 "></path>
    <path id="STROKE_8745c127-fa24-459a-8860-6ac884049b96" opacity="1.000" fill="none" stroke="#000000" stroke-width="1.600" stroke-opacity="1.000" stroke-linecap="round" stroke-linejoin="round" d="M -185.138 894.055 Q -184.806 894.053 -186.142 894.063 Q -186.037 894.062 -179.196 894.010 Q -172.355 893.957 -168.518 893.928 Q -164.682 893.899 -163.056 893.886 Q -161.430 893.874 -160.782 893.869 Q -160.135 893.864 -143.542 893.737 Q -126.950 893.609 -118.273 893.543 Q -109.596 893.477 -105.925 893.448 Q -102.253 893.420 -100.939 893.410 Q -99.625 893.400 -98.499 893.391 Q -97.372 893.383 -96.149 893.374 Q -94.927 893.364 -94.271 893.359 Q -93.615 893.354 -91.422 893.337 Q -89.229 893.320 -88.250 893.313 Q -87.270 893.305 -86.615 893.300 Q -85.959 893.295 -85.648 893.293 Q -85.337 893.291 -85.111 893.289 Q -84.885 893.287 -84.760 893.286 Q -84.635 893.285 -84.662 893.285 Q -84.689 893.286 -81.781 893.263 Q -81.811 893.264 -81.841 893.264 "></path>
    <path id="STROKE_19ef67a1-4d16-4a21-bb9e-bc34b84f7a49" opacity="1.000" fill="none" stroke="#000000" stroke-width="1.600" stroke-opacity="1.000" stroke-linecap="round" stroke-linejoin="round" d="M -182.838 894.038 Q -182.751 894.037 -182.911 894.038 Q -183.072 894.040 -183.814 894.045 Q -184.556 894.051 -184.870 894.053 Q -185.184 894.056 -185.416 894.058 Q -185.649 894.059 -185.810 894.061 Q -185.972 894.062 -186.123 894.063 Q -186.275 894.064 -186.363 894.065 Q -186.451 894.065 -186.236 894.064 Q -186.021 894.062 -190.029 894.093 Q -189.828 894.091 -188.904 894.084 "></path>
    <path id="STROKE_606f3e47-a2df-40c9-809c-2212666d14d7" opacity="1.000" fill="none" stroke="#000000" stroke-width="1.600" stroke-opacity="1.000" stroke-linecap="round" stroke-linejoin="round" d="M -211.729 768.145 Q -211.733 767.573 -211.732 767.703 Q -211.732 767.644 -211.733 767.469 Q -211.731 767.901 -211.731 767.830 Q -211.728 768.477 -211.728 768.366 Q -211.724 769.111 -211.725 768.989 Q -211.720 769.916 -211.676 777.970 Q -211.632 786.024 -211.599 792.066 Q -211.566 798.108 -211.526 805.502 Q -211.486 812.897 -211.462 817.228 Q -211.439 821.559 -211.405 827.671 Q -211.372 833.782 -211.340 839.677 Q -211.308 845.571 -211.293 848.265 Q -211.278 850.960 -211.263 853.764 Q -211.248 856.569 -211.238 858.389 Q -211.228 860.210 -211.223 861.188 Q -211.217 862.166 -211.189 867.444 Q -211.160 872.722 -211.144 875.676 Q -211.128 878.630 -211.117 880.566 Q -211.107 882.502 -211.104 883.030 Q -211.101 883.557 -211.091 885.395 Q -211.081 887.233 -211.070 889.189 Q -211.060 891.145 -211.042 894.453 Q -211.042 894.408 -211.046 893.715 "></path>
    <path id="STROKE_123b0015-1f79-4b41-ac64-f45b29591487" opacity="1.000" fill="none" stroke="#000000" stroke-width="1.600" stroke-opacity="1.000" stroke-linecap="round" stroke-linejoin="round" d="M -183.771 894.055 Q -183.723 894.054 -185.611 894.068 Q -187.499 894.082 -189.966 894.100 Q -192.433 894.117 -193.534 894.125 Q -194.635 894.133 -195.302 894.138 Q -195.970 894.143 -196.443 894.147 Q -196.916 894.150 -197.023 894.151 Q -197.129 894.151 -197.107 894.151 Q -197.084 894.151 -197.096 894.151 Q -197.107 894.151 -197.387 894.153 Q -197.666 894.155 -197.645 894.155 Q -197.624 894.155 -197.682 894.156 Q -197.741 894.156 -197.915 894.157 Q -198.090 894.158 -198.082 894.158 Q -198.074 894.158 -198.309 894.160 Q -198.545 894.162 -198.568 894.162 Q -198.591 894.162 -198.581 894.162 Q -198.571 894.162 -198.718 894.163 Q -198.865 894.164 -198.830 894.164 Q -198.796 894.164 -199.681 894.170 Q -200.567 894.176 -201.634 894.184 Q -202.702 894.192 -204.041 894.202 Q -205.380 894.211 -206.091 894.216 Q -206.802 894.222 -207.010 894.223 Q -207.217 894.225 -207.386 894.226 Q -207.555 894.227 -207.574 894.227 Q -207.592 894.227 -207.602 894.227 Q -207.611 894.228 -208.402 894.233 Q -209.192 894.239 -209.992 894.245 Q -209.392 894.240 -209.426 894.241 Q -208.858 894.237 -208.832 894.236 Q -208.806 894.236 -208.799 894.236 Q -208.792 894.236 -208.866 894.237 Q -208.940 894.237 -208.417 894.233 "></path>
    <path id="STROKE_935d4e67-c603-462b-995b-a4a68c8f3c69" opacity="1.000" fill="none" stroke="#000000" stroke-width="1.600" stroke-opacity="1.000" stroke-linecap="round" stroke-linejoin="round" d="M -411.023 759.987 L -411.022 759.868 Q -410.985 759.255 -411.020 759.418 Q -411.790 759.201 -416.336 768.149 Q -415.986 767.502 -413.842 764.216 Q -411.698 760.930 -408.517 757.580 Q -408.308 757.266 -408.364 759.086 Q -408.420 760.906 -408.004 762.387 Q -407.589 763.868 -407.017 764.786 Q -406.445 765.703 -403.751 767.408 "></path>
    <path id="STROKE_3cbf7d13-98f4-45ef-8929-ac8a0639bac0" opacity="1.000" fill="none" stroke="#000000" stroke-width="1.600" stroke-opacity="1.000" stroke-linecap="round" stroke-linejoin="round" d="M -275.783 889.471 Q -275.639 889.618 -276.116 888.719 L -276.138 888.718 Q -276.236 888.827 -275.500 889.232 Q -274.765 889.637 -274.109 889.884 Q -273.452 890.130 -272.834 890.538 Q -272.215 890.946 -271.660 891.383 Q -271.104 891.821 -270.934 892.647 Q -270.764 893.473 -271.637 894.584 Q -272.510 895.695 -273.008 896.487 Q -273.507 897.279 -273.616 898.139 "></path>
    <path id="STROKE_fe9c3362-8560-4d47-bc4d-7565d88da41a" opacity="1.000" fill="none" stroke="#000000" stroke-width="1.600" stroke-opacity="1.000" stroke-linecap="round" stroke-linejoin="round" d="M -211.784 767.200 Q -211.926 766.241 -211.893 766.515 Q -211.909 766.459 -211.962 766.397 Q -212.341 766.917 -212.341 766.923 Q -213.044 767.905 -217.882 775.197 L -217.876 775.222 Q -217.889 775.579 -216.023 772.829 Q -214.157 770.079 -212.813 765.947 Q -212.922 765.896 -212.776 767.349 Q -212.630 768.802 -211.926 770.120 Q -211.221 771.437 -209.373 772.351 Q -207.526 773.265 -205.778 773.624 Q -204.030 773.983 -201.632 774.799 "></path>
    <path id="STROKE_8bc91c86-98f8-44d2-8545-b3a19adfabf3" opacity="1.000" fill="none" stroke="#000000" stroke-width="1.600" stroke-opacity="1.000" stroke-linecap="round" stroke-linejoin="round" d="M -79.660 886.294 Q -79.860 885.583 -79.833 885.714 Q -79.807 885.845 -79.725 885.693 Q -79.380 885.822 -77.443 886.793 Q -75.506 887.765 -74.490 888.168 Q -73.474 888.572 -73.107 888.851 Q -72.741 889.130 -72.704 889.386 Q -72.668 889.642 -72.642 889.596 Q -72.616 889.549 -72.870 889.935 Q -73.123 890.320 -75.041 891.069 Q -76.959 891.818 -78.808 892.451 Q -80.657 893.085 -82.362 894.725 "></path>
    <path id="STROKE_03c7230d-88db-45f3-be75-746d6d92ba7b" opacity="1.000" fill="none" stroke="#000000" stroke-width="1.600" stroke-opacity="1.000" stroke-linecap="round" stroke-linejoin="round" d="M -119.318 847.022 Q -119.672 847.774 -119.549 847.463 Q -119.427 847.152 -120.074 848.387 Q -120.722 849.621 -121.024 850.650 Q -121.326 851.679 -121.146 852.561 Q -121.042 852.598 -120.980 852.602 "></path>
    <path id="STROKE_123be28d-67bd-4e6e-850b-f79ef6f28784" opacity="1.000" fill="none" stroke="#000000" stroke-width="1.600" stroke-opacity="1.000" stroke-linecap="round" stroke-linejoin="round" d="M -117.240 849.723 Q -117.949 849.999 -117.389 852.810 "></path>
    <path id="STROKE_ae5571c7-c503-478a-bb0a-fea41ce6c237" opacity="1.000" fill="none" stroke="#000000" stroke-width="1.600" stroke-opacity="1.000" stroke-linecap="round" stroke-linejoin="round" d="M -109.166 846.755 Q -109.204 846.500 -110.034 849.964 Q -110.863 853.428 -110.977 856.232 Q -111.091 859.036 -111.041 860.317 Q -110.990 861.598 -110.944 862.184 Q -110.897 862.770 -110.233 862.921 Q -109.568 863.071 -109.053 862.938 Q -108.537 862.805 -108.079 862.645 Q -107.621 862.485 -107.460 862.426 Q -107.299 862.367 -106.589 862.063 Q -105.879 861.758 -104.625 861.389 "></path>
    <path id="STROKE_4baad421-ba3e-4300-8bc4-283ba28f0408" opacity="1.000" fill="none" stroke="#000000" stroke-width="1.600" stroke-opacity="1.000" stroke-linecap="round" stroke-linejoin="round" d="M -100.380 859.727 Q -100.368 859.723 -100.426 859.671 Q -100.483 859.619 -100.235 860.050 Q -99.988 860.482 -99.171 860.468 Q -98.354 860.453 -97.712 859.979 Q -97.069 859.505 -96.734 859.197 Q -96.398 858.890 -96.144 858.383 Q -95.891 857.876 -95.897 857.290 Q -95.903 856.703 -96.294 856.325 Q -96.685 855.947 -97.247 855.748 Q -97.808 855.549 -98.829 855.714 Q -99.850 855.878 -100.698 856.468 Q -101.546 857.057 -101.508 858.658 "></path>
    <path id="STROKE_501ae638-be31-4a12-a6ec-a0b26ebac51e" opacity="1.000" fill="none" stroke="#000000" stroke-width="1.600" stroke-opacity="1.000" stroke-linecap="round" stroke-linejoin="round" d="M -97.114 856.936 L -97.160 856.846 Q -97.131 856.731 -97.164 857.193 Q -97.196 857.655 -96.086 858.954 Q -94.976 860.253 -93.048 860.914 "></path>
    <path id="STROKE_bf9d815d-98c0-4c13-aa93-3837f5c47f0f" opacity="1.000" fill="none" stroke="#000000" stroke-width="1.600" stroke-opacity="1.000" stroke-linecap="round" stroke-linejoin="round" d="M -86.191 852.157 Q -87.674 851.180 -86.515 863.141 Q -86.535 863.129 -86.636 862.784 "></path>
    <path id="STROKE_15cdff59-7f30-4d2b-bfa0-5ba0776191fc" opacity="1.000" fill="none" stroke="#000000" stroke-width="1.600" stroke-opacity="1.000" stroke-linecap="round" stroke-linejoin="round" d="M -88.298 858.628 Q -88.387 858.553 -88.687 858.278 Q -88.873 858.383 -88.201 857.747 Q -87.528 857.112 -84.143 858.035 "></path>
    <path id="STROKE_b8930e77-cf0a-4866-a81b-738d1772b032" opacity="1.000" fill="none" stroke="#000000" stroke-width="1.600" stroke-opacity="1.000" stroke-linecap="round" stroke-linejoin="round" d="M -80.670 858.569 Q -80.158 858.280 -80.037 858.195 Q -79.916 858.111 -79.923 858.075 Q -79.762 857.863 -79.240 857.314 Q -78.717 856.765 -78.524 856.137 Q -78.331 855.510 -78.249 855.040 Q -78.167 854.570 -78.311 854.273 Q -78.454 853.975 -78.837 853.890 Q -79.220 853.805 -79.797 853.937 Q -80.373 854.068 -80.600 854.219 Q -80.826 854.369 -81.141 854.598 Q -81.456 854.827 -82.078 855.367 Q -82.700 855.907 -82.992 856.655 Q -83.285 857.404 -82.843 858.717 Q -82.401 860.030 -81.679 860.516 Q -80.958 861.002 -80.313 861.033 Q -79.668 861.064 -79.097 860.915 Q -78.526 860.765 -77.434 859.994 "></path>
    <path id="STROKE_34af839d-28f4-4e0d-9394-54f431a74bd8" opacity="1.000" fill="none" stroke="#000000" stroke-width="1.600" stroke-opacity="1.000" stroke-linecap="round" stroke-linejoin="round" d="M -72.417 846.339 Q -72.475 846.571 -72.499 846.713 Q -72.524 846.855 -72.522 846.858 Q -72.520 846.861 -72.521 847.062 Q -72.522 847.263 -72.574 847.844 Q -72.626 848.424 -72.039 850.602 Q -71.785 850.362 -71.794 850.317 "></path>
    <path id="STROKE_6c99b7f0-4559-4ecf-b01f-2566cb569976" opacity="1.000" fill="none" stroke="#000000" stroke-width="1.600" stroke-opacity="1.000" stroke-linecap="round" stroke-linejoin="round" d="M -68.855 848.417 Q -68.770 848.409 -69.174 848.506 Q -69.578 848.603 -69.775 851.059 "></path>
    <path id="STROKE_3a485ff7-a531-4a6e-9d95-24eef5081f1d" opacity="1.000" fill="none" stroke="#000000" stroke-width="1.600" stroke-opacity="1.000" stroke-linecap="round" stroke-linejoin="round" d="M -99.697 871.511 Q -99.851 871.668 -100.446 874.904 Q -101.041 878.141 -100.245 882.599 L -100.231 882.614 "></path>
    <path id="STROKE_eefed73d-ac40-418f-99ef-92f7cb014a8f" opacity="1.000" fill="none" stroke="#000000" stroke-width="1.600" stroke-opacity="1.000" stroke-linecap="round" stroke-linejoin="round" d="M -104.001 871.422 Q -104.532 871.786 -104.385 871.756 Q -104.129 873.297 -100.782 873.699 Q -97.435 874.101 -92.157 872.758 "></path>
    <path id="STROKE_2e993b5e-671c-47ad-b616-51a83da29dd8" opacity="1.000" fill="none" stroke="#000000" stroke-width="1.600" stroke-opacity="1.000" stroke-linecap="round" stroke-linejoin="round" d="M -86.309 869.315 Q -86.595 868.957 -87.864 869.994 Q -89.132 871.031 -89.714 871.745 Q -90.296 872.459 -90.675 873.305 Q -91.054 874.151 -90.979 875.029 Q -90.903 875.907 -89.555 876.849 Q -88.206 877.790 -87.347 878.225 Q -86.487 878.661 -86.055 879.191 Q -85.622 879.722 -85.527 880.268 Q -85.432 880.814 -85.879 881.308 Q -86.327 881.802 -88.328 881.634 "></path>
    <path id="STROKE_9971b953-7471-4970-8c28-d6d460d64d18" opacity="1.000" fill="none" stroke="#000000" stroke-width="1.600" stroke-opacity="1.000" stroke-linecap="round" stroke-linejoin="round" d="M -333.399 789.374 L -333.365 789.314 Q -333.312 789.342 -333.279 789.341 Q -333.246 789.339 -333.610 791.825 Q -333.975 794.312 -334.049 796.235 Q -334.123 798.158 -333.929 799.594 Q -333.736 801.031 -333.255 801.698 Q -332.775 802.366 -332.476 802.749 Q -332.177 803.133 -331.157 802.706 Q -330.138 802.279 -329.561 801.836 Q -328.983 801.393 -327.552 799.912 "></path>
    <path id="STROKE_3e8b2d76-35ba-4381-86a6-059c342c1dcc" opacity="1.000" fill="none" stroke="#000000" stroke-width="1.600" stroke-opacity="1.000" stroke-linecap="round" stroke-linejoin="round" d="M -330.758 794.955 Q -331.354 794.908 -331.281 794.923 Q -331.365 794.933 -331.531 795.030 Q -330.663 795.516 -327.166 793.886 "></path>
    <path id="STROKE_a27f8739-fab2-4aff-b315-282af735904e" opacity="1.000" fill="none" stroke="#000000" stroke-width="1.600" stroke-opacity="1.000" stroke-linecap="round" stroke-linejoin="round" d="M -332.064 791.571 Q -332.052 791.449 -331.979 791.147 Q -331.905 790.844 -331.891 790.832 Q -331.681 790.181 -330.051 789.367 Q -328.422 788.553 -326.572 788.276 "></path>
    <path id="STROKE_c72142c9-f77c-444b-b0c3-b75f6c6c9c48" opacity="1.000" fill="none" stroke="#000000" stroke-width="1.600" stroke-opacity="1.000" stroke-linecap="round" stroke-linejoin="round" d="M -336.991 783.348 Q -337.642 783.867 -337.545 783.800 Q -337.448 783.733 -337.524 783.823 Q -337.600 783.914 -337.659 783.932 Q -337.718 783.950 -338.123 784.696 Q -338.529 785.443 -338.768 786.006 Q -339.007 786.570 -339.032 786.952 Q -339.057 787.335 -339.069 787.742 "></path>
    <path id="STROKE_7aff563f-9666-4cf7-bad5-a566aa08509e" opacity="1.000" fill="none" stroke="#000000" stroke-width="1.600" stroke-opacity="1.000" stroke-linecap="round" stroke-linejoin="round" d="M -332.687 784.625 Q -332.935 784.464 -333.547 784.882 Q -334.158 785.300 -335.240 786.999 "></path>
    <path id="STROKE_54ba60e9-f237-476a-a2d8-7f84e5aa0f87" opacity="1.000" fill="none" stroke="#000000" stroke-width="1.600" stroke-opacity="1.000" stroke-linecap="round" stroke-linejoin="round" d="M -322.535 791.808 Q -323.107 792.437 -322.733 793.755 Q -322.360 795.073 -321.899 795.708 Q -321.438 796.343 -320.452 796.713 Q -319.467 797.083 -318.694 796.732 Q -317.921 796.380 -317.540 796.018 Q -317.158 795.655 -317.117 795.430 Q -317.077 795.205 -317.092 795.184 Q -317.108 795.162 -316.993 795.133 Q -316.879 795.104 -317.362 794.189 Q -317.844 793.273 -318.556 792.451 Q -319.268 791.629 -321.104 791.554 Q -321.173 791.649 -320.962 791.808 "></path>
    <path id="STROKE_7e27b246-078e-44d8-b88e-29133c67312b" opacity="1.000" fill="none" stroke="#000000" stroke-width="1.600" stroke-opacity="1.000" stroke-linecap="round" stroke-linejoin="round" d="M -317.726 791.126 Q -317.807 791.846 -317.786 791.709 L -317.742 792.268 Q -317.709 792.933 -317.409 794.326 Q -317.109 795.719 -316.601 796.507 Q -316.093 797.295 -313.808 796.855 "></path>
    <path id="STROKE_bd7ed66e-5a86-411b-9f0a-ac6c010f28af" opacity="1.000" fill="none" stroke="#000000" stroke-width="1.600" stroke-opacity="1.000" stroke-linecap="round" stroke-linejoin="round" d="M -310.305 792.372 Q -310.336 792.367 -310.469 792.400 Q -310.532 792.859 -310.531 792.869 Q -310.667 792.934 -309.889 795.608 Q -309.720 795.183 -309.456 793.965 Q -309.191 792.747 -308.543 791.786 Q -307.894 790.826 -307.428 790.528 Q -306.961 790.231 -305.437 790.057 "></path>
    <path id="STROKE_a64ccfdf-0f9c-44aa-87dd-bc0ea081d088" opacity="1.000" fill="none" stroke="#000000" stroke-width="1.600" stroke-opacity="1.000" stroke-linecap="round" stroke-linejoin="round" d="M -299.767 788.454 Q -300.175 789.056 -300.242 795.786 "></path>
    <path id="STROKE_97bbce89-f452-4f36-a007-77ff721cdd4b" opacity="1.000" fill="none" stroke="#000000" stroke-width="1.600" stroke-opacity="1.000" stroke-linecap="round" stroke-linejoin="round" d="M -289.734 788.632 Q -290.133 788.755 -290.807 791.301 Q -291.481 793.846 -291.632 795.319 Q -291.783 796.792 -291.847 797.688 Q -291.911 798.585 -291.826 799.073 Q -291.741 799.562 -291.515 799.764 "></path>
    <path id="STROKE_762912f5-4d28-4cc9-9230-4b11d2faacd3" opacity="1.000" fill="none" stroke="#000000" stroke-width="1.600" stroke-opacity="1.000" stroke-linecap="round" stroke-linejoin="round" d="M -290.951 795.964 Q -290.913 795.727 -294.903 792.275 Q -295.062 792.218 -294.395 792.224 "></path>
    <path id="STROKE_390fdfdc-4c4b-4039-979c-354d06d42f99" opacity="1.000" fill="none" stroke="#000000" stroke-width="1.600" stroke-opacity="1.000" stroke-linecap="round" stroke-linejoin="round" d="M -284.747 783.378 Q -284.899 783.722 -284.892 783.726 Q -285.107 784.551 -285.103 784.544 Q -285.567 785.251 -285.193 787.860 "></path>
    <path id="STROKE_f06f7646-6fe8-493b-8bb0-68feaec67c67" opacity="1.000" fill="none" stroke="#000000" stroke-width="1.600" stroke-opacity="1.000" stroke-linecap="round" stroke-linejoin="round" d="M -283.441 786.198 Q -283.921 786.747 -283.776 786.624 Q -284.042 787.008 -283.412 789.166 "></path>
    <path id="STROKE_1ec24043-893b-4ed9-881e-4f54e1c80d88" opacity="1.000" fill="none" stroke="#000000" stroke-width="1.600" stroke-opacity="1.000" stroke-linecap="round" stroke-linejoin="round" d="M -313.511 811.786 Q -313.512 811.835 -313.491 812.174 Q -313.469 812.512 -313.463 812.568 Q -313.456 812.625 -313.285 814.631 Q -313.115 816.637 -312.969 818.817 Q -312.823 820.997 -312.799 822.918 "></path>
    <path id="STROKE_4920e921-fe47-406d-8e43-8b945910bea0" opacity="1.000" fill="none" stroke="#000000" stroke-width="1.600" stroke-opacity="1.000" stroke-linecap="round" stroke-linejoin="round" d="M -318.528 813.033 L -318.534 812.998 Q -317.886 812.866 -317.949 812.900 Q -317.931 812.915 -317.733 812.813 Q -317.535 812.711 -307.129 812.647 "></path>
    <path id="STROKE_5c48c1f0-8609-48d0-b784-793fec613cad" opacity="1.000" fill="none" stroke="#000000" stroke-width="1.600" stroke-opacity="1.000" stroke-linecap="round" stroke-linejoin="round" d="M -301.222 808.996 Q -301.567 808.403 -301.525 808.510 Q -301.876 808.263 -301.854 808.323 Q -302.259 808.157 -302.949 808.419 Q -303.639 808.680 -304.289 809.245 Q -304.939 809.810 -304.829 810.647 Q -304.718 811.483 -303.360 812.752 Q -302.002 814.021 -301.146 815.335 Q -300.291 816.649 -300.022 817.218 Q -299.753 817.787 -299.700 818.692 Q -299.646 819.598 -299.761 820.102 Q -299.876 820.606 -300.573 821.436 Q -301.269 822.266 -301.815 822.418 Q -302.362 822.570 -303.068 822.588 Q -303.774 822.606 -304.403 822.241 Q -305.031 821.877 -305.081 820.009 "></path>
    <path id="STROKE_ade886a9-67dc-4cd2-819c-e0a3ba24f707" opacity="1.000" fill="none" stroke="#000000" stroke-width="1.600" stroke-opacity="1.000" stroke-linecap="round" stroke-linejoin="round" d="M -439.164 816.565 Q -439.208 816.378 -439.975 816.152 Q -440.231 816.422 -440.768 818.031 Q -441.304 819.640 -440.952 823.263 Q -440.601 826.885 -440.386 828.704 Q -440.172 830.523 -440.173 830.956 Q -440.175 831.389 -439.686 832.476 Q -439.197 833.563 -436.437 831.478 Q -433.678 829.392 -430.971 826.836 "></path>
    <path id="STROKE_8f792b2e-f5ac-435b-a75f-2576d2d974dc" opacity="1.000" fill="none" stroke="#000000" stroke-width="1.600" stroke-opacity="1.000" stroke-linecap="round" stroke-linejoin="round" d="M -438.718 826.124 Q -438.813 825.756 -438.886 825.659 Q -438.959 825.561 -438.513 825.012 Q -438.068 824.463 -437.413 823.802 Q -436.758 823.140 -435.927 822.559 Q -435.097 821.978 -433.843 822.010 Q -433.858 822.050 -433.910 822.087 "></path>
    <path id="STROKE_4ff9316b-f3d1-4a30-af07-a3f782b56f2f" opacity="1.000" fill="none" stroke="#000000" stroke-width="1.600" stroke-opacity="1.000" stroke-linecap="round" stroke-linejoin="round" d="M -438.362 820.009 Q -438.291 820.113 -438.545 819.647 Q -438.798 819.181 -438.218 818.174 Q -437.637 817.166 -436.280 815.874 Q -434.923 814.581 -434.012 813.952 Q -433.101 813.323 -432.217 812.860 Q -431.332 812.397 -429.902 811.756 "></path>
    <path id="STROKE_870f9f8a-f5b6-476b-8bc5-bb0563379d54" opacity="1.000" fill="none" stroke="#000000" stroke-width="1.600" stroke-opacity="1.000" stroke-linecap="round" stroke-linejoin="round" d="M -235.116 819.118 L -235.161 819.070 Q -235.115 819.069 -235.473 819.360 Q -235.832 819.650 -236.203 821.940 Q -236.574 824.230 -236.603 826.595 Q -236.631 828.960 -236.551 830.787 Q -236.471 832.613 -236.245 833.683 Q -236.018 834.754 -235.672 835.299 Q -235.326 835.844 -234.515 835.868 Q -233.704 835.893 -233.237 835.670 Q -232.771 835.446 -231.667 834.666 Q -230.563 833.885 -229.883 833.225 Q -229.204 832.565 -228.871 832.232 Q -228.539 831.899 -228.081 831.441 Q -227.623 830.984 -226.359 828.914 "></path>
    <path id="STROKE_fb2ff262-d124-4d0c-864d-e30bc641fac3" opacity="1.000" fill="none" stroke="#000000" stroke-width="1.600" stroke-opacity="1.000" stroke-linecap="round" stroke-linejoin="round" d="M -234.255 826.332 Q -233.856 825.961 -233.930 826.020 Q -233.906 825.741 -228.656 823.142 Q -228.824 823.268 -229.208 823.422 "></path>
    <path id="STROKE_2b053dd4-b2cc-430f-8034-8e42d40a7ea9" opacity="1.000" fill="none" stroke="#000000" stroke-width="1.600" stroke-opacity="1.000" stroke-linecap="round" stroke-linejoin="round" d="M -234.284 821.849 Q -234.100 821.254 -234.123 821.387 Q -234.356 820.591 -226.359 815.734 "></path>
    <circle id="STROKE_45a02751-2456-4027-ae85-59885c01ad0e" opacity="1.000" fill="#000000" stroke="#000000" stroke-width="0.1" stroke-opacity="1.000" fill-opacity="1.000" cx="-262.336" cy="890.153" r="0.800"></circle>
    <path id="STROKE_e2f237e6-ced0-496d-90f0-b98b2389c896" opacity="1.000" fill="none" stroke="#000000" stroke-width="1.600" stroke-opacity="1.000" stroke-linecap="round" stroke-linejoin="round" d="M -413.339 797.923 Q -413.463 798.373 -400.218 798.695 "></path>
    <path id="STROKE_5581d7c6-0606-460b-a547-c5874710ee83" opacity="1.000" fill="none" stroke="#000000" stroke-width="1.600" stroke-opacity="1.000" stroke-linecap="round" stroke-linejoin="round" d="M -422.630 797.003 Q -423.450 797.478 -423.532 798.938 Q -423.614 800.398 -423.561 801.164 Q -423.509 801.930 -423.238 802.543 Q -422.968 803.157 -421.764 803.173 Q -420.561 803.188 -419.514 802.476 Q -418.466 801.765 -417.927 801.131 Q -417.387 800.497 -417.125 799.946 Q -416.863 799.394 -416.880 798.739 Q -416.896 798.085 -417.133 797.519 Q -417.369 796.954 -417.910 796.097 Q -418.451 795.240 -419.259 794.565 Q -420.067 793.889 -421.239 793.627 Q -422.411 793.364 -423.436 793.662 Q -424.462 793.960 -425.042 794.401 Q -425.623 794.842 -425.865 796.766 "></path>
    <path id="STROKE_37b067ae-e418-4bf1-84f4-341472c850ff" opacity="1.000" fill="none" stroke="#000000" stroke-width="1.600" stroke-opacity="1.000" stroke-linecap="round" stroke-linejoin="round" d="M -217.483 873.708 L -217.519 873.639 Q -216.960 873.864 -214.884 874.463 Q -212.808 875.062 -205.550 873.203 "></path>
    <path id="STROKE_23829e6a-d0f6-4ab8-bcae-593017f15530" opacity="1.000" fill="none" stroke="#000000" stroke-width="1.600" stroke-opacity="1.000" stroke-linecap="round" stroke-linejoin="round" d="M -229.802 871.986 Q -230.004 872.418 -230.142 872.531 Q -230.281 872.643 -230.078 873.732 Q -229.874 874.821 -229.617 875.405 Q -229.360 875.989 -228.737 876.308 Q -228.114 876.628 -226.867 876.514 Q -225.620 876.400 -224.592 875.800 Q -223.564 875.199 -222.603 874.257 Q -221.641 873.315 -221.352 872.263 Q -221.063 871.211 -221.149 870.705 Q -221.236 870.199 -221.625 869.431 Q -222.013 868.664 -222.783 867.857 Q -223.552 867.050 -224.922 866.585 Q -226.291 866.120 -227.222 866.523 Q -228.154 866.926 -228.831 867.370 Q -229.509 867.815 -229.683 868.959 "></path>
  </g>
</svg>