<?xml version="1.0" encoding="UTF-8" standalone="yes"?>
<svg xmlns="http://www.w3.org/2000/svg" xmlns:xlink="http://www.w3.org/1999/xlink" width="309.617pt" height="284.013pt" version="1.1" viewBox="295.191 588.751 309.617 284.013">
  <!--
	Exported with Concepts: Smarter Sketching
	Version: 2024.8.5 on Microsoft Windows NT 10.0.22631.0
	https://concepts.app/
	-->
  <title>Drawing 7</title>
  <desc>Drawing exported from Concepts: Smarter Sketching</desc>
  <defs></defs>
  <g id="Pen" opacity="1.000">
    <path id="STROKE_5c018568-6d0f-4598-8cb5-37d165d0499f" opacity="1.000" fill="none" stroke="#000000" stroke-width="1.600" stroke-opacity="1.000" stroke-linecap="round" stroke-linejoin="round" d="M 300.000 668.000 L 300.000 792.800 "></path>
    <path id="STROKE_397d1f60-1b4e-4bb1-b7db-4778b7894422" opacity="1.000" fill="none" stroke="#000000" stroke-width="1.600" stroke-opacity="1.000" stroke-linecap="round" stroke-linejoin="round" d="M 300.000 836.730 L 300.000 868.000 L 300.000 868.000 "></path>
    <path id="STROKE_00c5554e-a903-4994-8b75-a56706377ad6" opacity="1.000" fill="none" stroke="#000000" stroke-width="1.600" stroke-opacity="1.000" stroke-linecap="round" stroke-linejoin="round" d="M 303.973 668.000 L 590.000 668.000 L 600.000 668.000 "></path>
    <path id="STROKE_4f356556-c501-41fc-a72c-a5d1ec38d061" opacity="1.000" fill="none" stroke="#000000" stroke-width="1.600" stroke-opacity="1.000" stroke-linecap="round" stroke-linejoin="round" d="M 600.000 668.000 L 600.000 858.000 L 600.000 868.000 "></path>
    <path id="STROKE_c389966b-426f-4185-8dcf-c87e34524cb0" opacity="1.000" fill="none" stroke="#000000" stroke-width="1.600" stroke-opacity="1.000" stroke-linecap="round" stroke-linejoin="round" d="M 419.127 685.309 Q 419.555 684.449 419.285 700.841 "></path>
    <path id="STROKE_cf536fdb-215b-4a8e-919f-9fe51359cc2b" opacity="1.000" fill="none" stroke="#000000" stroke-width="1.600" stroke-opacity="1.000" stroke-linecap="round" stroke-linejoin="round" d="M 417.864 685.309 Q 418.007 685.084 418.198 684.821 Q 418.390 684.558 418.847 684.151 Q 419.304 683.744 420.881 683.666 Q 422.458 683.588 422.947 683.642 Q 423.437 683.695 424.508 684.378 Q 425.579 685.061 426.090 685.523 Q 426.601 685.984 426.928 687.134 Q 427.255 688.283 426.778 689.137 Q 426.302 689.991 425.799 690.430 Q 425.297 690.869 424.197 691.407 Q 423.096 691.946 421.813 692.627 Q 422.379 692.922 422.870 692.952 Q 423.360 692.982 424.618 693.586 Q 425.875 694.190 426.240 694.601 Q 426.604 695.011 426.707 695.246 Q 426.809 695.481 426.771 695.456 Q 426.733 695.432 426.968 695.723 Q 427.204 696.013 427.148 697.379 Q 427.092 698.745 426.820 699.042 Q 426.547 699.339 426.235 699.968 Q 425.923 700.597 420.391 702.526 Q 420.410 702.896 420.286 701.736 "></path>
    <path id="STROKE_db900b84-5960-400e-98f0-6c1c8d766d8e" opacity="1.000" fill="none" stroke="#000000" stroke-width="1.600" stroke-opacity="1.000" stroke-linecap="round" stroke-linejoin="round" d="M 443.085 688.205 Q 442.524 689.190 442.558 689.152 Q 442.563 689.010 441.853 690.496 Q 441.142 691.982 440.505 694.260 Q 440.028 694.270 440.136 694.207 Q 439.246 693.588 439.705 691.830 Q 440.164 690.073 440.661 689.224 Q 441.159 688.375 442.119 687.717 Q 443.079 687.059 444.235 686.674 Q 445.391 686.289 446.471 686.053 Q 447.550 685.817 448.772 685.941 "></path>
    <circle id="STROKE_ff2e45a5-5778-4f83-b97d-a1008e90e2a1" opacity="1.000" fill="#000000" stroke="#000000" stroke-width="0.1" stroke-opacity="1.000" fill-opacity="1.000" cx="459.566" cy="691.469" r="0.800"></circle>
    <path id="STROKE_42cdcd21-8045-44f5-9f1d-43e920da9981" opacity="1.000" fill="none" stroke="#000000" stroke-width="1.600" stroke-opacity="1.000" stroke-linecap="round" stroke-linejoin="round" d="M 456.459 694.681 Q 456.723 693.756 456.670 693.891 Q 456.749 693.560 458.302 691.890 Q 458.809 692.059 458.472 692.771 Q 458.136 693.484 457.843 693.776 Q 457.550 694.067 457.598 693.978 Q 457.645 693.889 457.643 693.898 Q 457.641 693.907 457.707 693.947 Q 457.772 693.987 457.278 694.142 Q 456.784 694.297 456.036 694.008 Q 455.287 693.719 455.415 693.862 Q 455.544 694.005 455.435 693.337 Q 455.326 692.669 455.807 692.010 Q 456.288 691.351 456.830 691.151 Q 457.373 690.951 457.973 691.093 Q 458.573 691.235 459.039 691.469 Q 458.630 692.331 458.012 692.659 Q 457.394 692.988 456.459 692.996 "></path>
    <path id="STROKE_d6e38462-5ef9-4524-852a-45d77c0b3c95" opacity="1.000" fill="none" stroke="#000000" stroke-width="1.600" stroke-opacity="1.000" stroke-linecap="round" stroke-linejoin="round" d="M 424.121 846.511 Q 425.984 846.623 423.511 859.260 Q 423.816 858.999 424.121 858.738 "></path>
    <path id="STROKE_cf87353d-e838-401b-840d-64c16034a4af" opacity="1.000" fill="none" stroke="#000000" stroke-width="1.600" stroke-opacity="1.000" stroke-linecap="round" stroke-linejoin="round" d="M 434.216 845.640 Q 434.492 845.552 434.901 845.312 Q 435.310 845.071 435.253 845.081 Q 435.195 845.091 435.304 845.031 Q 435.495 847.360 435.312 846.439 Q 435.129 845.517 434.956 858.434 "></path>
    <path id="STROKE_0c76ac2c-0947-43a7-ba46-2e0498efb816" opacity="1.000" fill="none" stroke="#000000" stroke-width="1.600" stroke-opacity="1.000" stroke-linecap="round" stroke-linejoin="round" d="M 425.774 853.516 Q 425.554 853.461 426.135 853.652 Q 426.717 853.843 429.457 853.411 Q 432.196 852.980 435.043 852.255 "></path>
    <circle id="STROKE_0907a6f5-d56c-4412-a5ca-8963a7dff3c7" opacity="1.000" fill="#000000" stroke="#000000" stroke-width="0.1" stroke-opacity="1.000" fill-opacity="1.000" cx="441.179" cy="854.865" r="0.800"></circle>
    <path id="STROKE_6ccd8894-00c7-48ab-b7c9-1ede1a70e80b" opacity="1.000" fill="none" stroke="#000000" stroke-width="1.600" stroke-opacity="1.000" stroke-linecap="round" stroke-linejoin="round" d="M 440.700 855.692 Q 440.484 855.167 440.482 855.301 Q 440.205 854.908 441.309 853.081 Q 441.799 853.259 441.723 853.255 Q 442.548 854.454 442.223 854.234 Q 442.433 854.838 441.527 856.432 Q 440.618 855.617 440.961 855.583 Q 440.468 855.028 442.136 853.516 Q 442.377 854.241 442.354 854.234 Q 442.142 855.040 441.788 855.692 Q 441.583 855.919 441.318 855.402 Q 441.054 854.885 442.223 853.821 Q 441.798 854.439 442.105 853.752 Q 442.412 853.066 442.458 853.145 Q 442.503 853.224 442.486 853.205 Q 442.469 853.187 442.464 853.110 Q 442.458 853.033 443.180 853.669 Q 443.141 853.792 442.968 854.633 Q 442.795 855.474 442.006 856.432 Q 441.577 856.364 441.612 855.402 Q 441.647 854.440 443.398 853.604 Q 442.937 853.895 442.963 853.908 Q 442.985 853.662 442.484 855.083 "></path>
    <path id="STROKE_2cfcc43f-417a-4325-b8d8-12a15b41dd62" opacity="1.000" fill="none" stroke="#000000" stroke-width="1.600" stroke-opacity="1.000" stroke-linecap="round" stroke-linejoin="round" d="M 474.120 699.692 Q 474.156 699.003 475.095 699.168 Q 476.034 699.333 477.119 699.736 Q 478.203 700.139 479.263 700.820 Q 480.322 701.501 481.035 701.950 Q 481.748 702.398 483.258 702.879 Q 484.767 703.360 485.806 703.708 Q 486.845 704.056 488.666 706.123 Q 490.486 708.191 491.627 709.450 Q 492.769 710.709 493.523 711.297 Q 494.277 711.884 494.898 712.444 Q 495.518 713.004 495.870 713.160 Q 496.221 713.316 497.830 715.026 Q 499.440 716.736 500.288 718.520 Q 501.135 720.305 502.442 723.615 Q 503.748 726.926 504.324 728.513 Q 504.899 730.100 505.524 731.697 Q 506.149 733.293 507.358 736.129 Q 508.566 738.965 510.160 742.378 Q 511.754 745.792 512.248 750.381 Q 512.742 754.970 512.723 757.392 Q 512.704 759.814 512.661 761.660 Q 512.617 763.506 512.508 764.949 Q 512.398 766.392 512.268 767.334 Q 512.138 768.277 511.709 770.436 Q 511.279 772.596 510.884 773.878 Q 510.490 775.160 510.346 775.856 Q 510.203 776.551 509.664 778.972 Q 509.124 781.393 508.192 783.289 Q 507.260 785.184 505.979 787.703 Q 504.698 790.221 503.218 792.614 Q 501.739 795.006 500.057 797.261 Q 498.375 799.516 497.642 800.486 Q 496.908 801.456 496.526 802.162 Q 496.144 802.867 495.103 804.520 Q 494.061 806.172 493.171 807.373 Q 492.280 808.574 491.772 809.124 Q 491.264 809.673 490.981 809.951 Q 490.698 810.229 490.429 810.551 Q 490.159 810.873 489.751 811.396 Q 489.343 811.919 487.838 813.425 Q 486.332 814.930 484.553 816.379 Q 482.775 817.828 480.873 819.494 Q 478.971 821.160 478.032 822.114 Q 477.092 823.068 475.421 824.143 Q 473.750 825.217 472.103 826.929 Q 470.457 828.641 469.704 829.597 Q 468.950 830.554 468.526 831.265 Q 468.102 831.976 467.929 832.207 Q 467.755 832.438 467.036 833.351 Q 466.316 834.265 465.382 834.975 Q 464.447 835.685 463.855 836.096 Q 463.263 836.507 463.139 836.569 Q 463.016 836.631 462.800 836.726 Q 462.585 836.820 462.537 836.819 Q 462.488 836.817 462.054 836.918 Q 461.620 837.019 460.717 837.111 "></path>
    <path id="STROKE_74d70327-5a94-4807-9b4a-af520c57adf5" opacity="1.000" fill="none" stroke="#000000" stroke-width="1.600" stroke-opacity="1.000" stroke-linecap="round" stroke-linejoin="round" d="M 460.935 828.713 Q 460.945 828.446 459.965 831.878 Q 458.984 835.310 456.931 839.809 Q 457.242 840.270 458.881 840.392 Q 460.520 840.514 463.386 839.683 Q 466.252 838.852 469.290 837.721 "></path>
    <path id="STROKE_d62e86dc-ab4d-4419-a568-872c4c2212cf" opacity="1.000" fill="none" stroke="#000000" stroke-width="1.600" stroke-opacity="1.000" stroke-linecap="round" stroke-linejoin="round" d="M 402.319 696.733 Q 402.731 696.583 401.849 696.698 Q 400.967 696.813 400.234 697.128 Q 399.500 697.442 399.257 697.565 Q 399.014 697.687 398.812 697.787 Q 398.609 697.887 398.260 698.035 Q 397.911 698.184 398.047 698.119 Q 398.183 698.055 397.755 698.220 Q 397.326 698.386 397.035 698.501 Q 396.744 698.617 395.989 698.881 Q 395.233 699.146 395.330 699.114 Q 395.427 699.082 395.402 699.103 Q 395.378 699.124 393.883 699.828 Q 392.388 700.532 390.036 701.825 Q 387.683 703.117 386.602 703.824 Q 385.520 704.531 384.692 704.893 Q 383.864 705.255 381.459 708.302 Q 379.054 711.349 377.377 713.356 Q 375.701 715.364 373.403 717.193 Q 371.105 719.022 368.908 722.957 Q 366.710 726.892 365.676 729.255 Q 364.641 731.617 364.175 732.590 Q 363.708 733.562 362.649 736.740 Q 361.589 739.918 360.979 742.145 Q 360.369 744.373 359.840 747.055 Q 359.310 749.736 358.839 752.521 Q 358.368 755.306 358.098 760.721 Q 357.828 766.135 358.043 769.840 Q 358.258 773.544 358.697 775.909 Q 359.136 778.274 359.623 780.141 Q 360.110 782.008 361.353 784.886 Q 362.595 787.764 364.539 791.601 Q 366.483 795.439 370.165 800.438 Q 373.846 805.438 375.780 808.139 Q 377.714 810.840 378.755 812.391 Q 379.795 813.942 381.619 816.308 Q 383.443 818.673 384.139 820.037 Q 384.834 821.401 387.722 823.615 Q 390.610 825.830 394.105 828.821 Q 397.599 831.811 399.461 833.298 Q 401.323 834.785 403.084 835.761 Q 404.845 836.736 410.196 839.070 "></path>
    <path id="STROKE_df75b536-3292-4733-90c8-740312006180" opacity="1.000" fill="none" stroke="#000000" stroke-width="1.600" stroke-opacity="1.000" stroke-linecap="round" stroke-linejoin="round" d="M 399.230 689.640 Q 399.078 689.611 397.489 689.814 Q 397.489 689.923 397.576 690.684 Q 396.803 691.371 410.196 692.642 Q 410.004 693.702 409.913 693.447 Q 409.407 693.910 409.557 693.760 Q 409.708 693.610 409.336 694.011 Q 408.964 694.412 408.714 694.766 Q 408.463 695.119 408.251 695.534 Q 408.039 695.948 407.904 696.121 Q 407.768 696.293 406.731 697.360 Q 405.694 698.428 404.817 699.780 Q 403.941 701.132 403.712 702.694 "></path>
    <path id="STROKE_0c869ce4-d246-4644-b26b-db5ccdcbe391" opacity="1.000" fill="none" stroke="#000000" stroke-width="1.600" stroke-opacity="1.000" stroke-linecap="round" stroke-linejoin="round" d="M 550.446 699.866 Q 550.507 699.968 550.662 700.376 Q 550.818 700.784 550.775 700.761 Q 550.732 700.739 550.893 700.771 Q 551.055 700.802 551.008 705.389 Q 550.962 709.976 550.446 714.748 "></path>
    <path id="STROKE_9d3d21a6-7cdf-40e5-886c-eb8d0bf88ed3" opacity="1.000" fill="none" stroke="#000000" stroke-width="1.600" stroke-opacity="1.000" stroke-linecap="round" stroke-linejoin="round" d="M 562.326 700.388 Q 562.339 700.353 562.414 700.323 Q 562.490 700.293 562.031 700.809 Q 561.571 701.326 561.986 705.052 Q 562.400 708.779 563.066 712.659 "></path>
    <path id="STROKE_2e7ac71a-75ce-4997-833e-fd1b4374dd31" opacity="1.000" fill="none" stroke="#000000" stroke-width="1.600" stroke-opacity="1.000" stroke-linecap="round" stroke-linejoin="round" d="M 553.275 710.135 Q 555.155 709.527 562.674 708.134 "></path>
    <path id="STROKE_63356e79-7705-437d-b56c-24975f63c6eb" opacity="1.000" fill="none" stroke="#000000" stroke-width="1.600" stroke-opacity="1.000" stroke-linecap="round" stroke-linejoin="round" d="M 568.679 708.351 Q 569.318 707.785 569.158 707.916 Q 569.950 707.286 569.941 707.307 Q 571.237 706.758 571.907 706.731 Q 572.576 706.704 572.881 707.444 Q 573.186 708.184 573.153 708.922 Q 573.119 709.661 572.724 710.693 Q 572.330 711.726 572.103 712.310 Q 571.876 712.895 571.445 713.666 Q 571.014 714.436 570.690 714.825 Q 570.365 715.214 570.341 715.221 Q 570.316 715.228 569.887 715.823 Q 569.458 716.417 567.766 717.794 Q 567.870 717.811 568.533 717.691 Q 569.195 717.571 571.276 717.087 Q 573.357 716.603 575.511 716.097 "></path>
    <path id="STROKE_adb2508d-f1b0-4163-9698-52428e79ad29" opacity="1.000" fill="none" stroke="#000000" stroke-width="1.600" stroke-opacity="1.000" stroke-linecap="round" stroke-linejoin="round" d="M 539.829 809.871 Q 539.829 809.828 539.829 809.567 Q 540.825 809.403 540.364 815.104 Q 539.903 820.805 538.915 826.842 "></path>
    <path id="STROKE_30472810-9abb-4f2a-bc63-31ad8fb1d33a" opacity="1.000" fill="none" stroke="#000000" stroke-width="1.600" stroke-opacity="1.000" stroke-linecap="round" stroke-linejoin="round" d="M 547.009 811.133 Q 547.009 810.981 547.009 810.611 Q 547.139 810.567 547.270 810.524 Q 547.267 810.195 547.295 810.183 Q 547.324 810.172 547.640 810.184 Q 547.956 810.196 548.300 810.271 Q 548.643 810.346 548.682 810.523 Q 548.722 810.699 548.907 811.033 Q 549.092 811.366 549.030 811.397 Q 548.968 811.428 549.228 811.687 Q 549.488 811.947 549.271 822.969 "></path>
    <path id="STROKE_f9a61aa2-d6d0-4c16-a8ff-7a699e1656f8" opacity="1.000" fill="none" stroke="#000000" stroke-width="1.600" stroke-opacity="1.000" stroke-linecap="round" stroke-linejoin="round" d="M 541.613 818.357 Q 541.563 818.154 544.309 817.772 Q 547.055 817.390 550.098 817.225 "></path>
    <path id="STROKE_d82d03cd-7f7b-4aa4-8822-ce4c0b013d44" opacity="1.000" fill="none" stroke="#000000" stroke-width="1.600" stroke-opacity="1.000" stroke-linecap="round" stroke-linejoin="round" d="M 556.234 810.393 Q 556.140 809.500 556.863 814.228 Q 557.586 818.956 556.582 826.842 Q 556.691 826.733 556.800 826.624 "></path>
    <path id="STROKE_ff82d54d-fb51-48c1-a56a-bf89603021e4" opacity="1.000" fill="none" stroke="#000000" stroke-width="1.600" stroke-opacity="1.000" stroke-linecap="round" stroke-linejoin="round" d="M 556.234 810.219 Q 556.043 810.400 557.918 810.229 Q 559.793 810.057 561.141 810.607 Q 562.489 811.156 563.039 811.707 Q 563.588 812.258 563.675 812.636 Q 563.761 813.015 563.657 813.324 Q 563.554 813.633 563.413 813.981 Q 563.273 814.329 562.538 815.032 Q 561.803 815.735 560.962 816.198 Q 560.120 816.661 559.150 816.790 Q 559.426 816.457 560.689 816.819 Q 561.952 817.181 562.576 817.704 Q 563.200 818.227 563.585 818.596 Q 563.971 818.965 564.006 819.918 Q 564.041 820.872 563.401 821.794 Q 562.761 822.717 562.015 823.401 Q 561.270 824.085 560.835 824.505 Q 560.399 824.925 560.002 825.194 Q 559.604 825.463 559.195 825.700 Q 558.786 825.938 558.593 826.056 Q 558.400 826.174 557.148 826.320 "></path>
    <path id="STROKE_ff1a0ef4-cfea-4445-9c23-3f8475f2e009" opacity="1.000" fill="none" stroke="#000000" stroke-width="1.600" stroke-opacity="1.000" stroke-linecap="round" stroke-linejoin="round" d="M 571.508 816.572 Q 571.489 817.055 570.681 820.141 Q 570.972 819.624 571.988 817.497 Q 573.004 815.371 574.148 814.319 Q 575.292 813.267 576.156 812.744 Q 577.021 812.222 577.611 811.842 Q 578.202 811.463 581.168 810.828 "></path>
    <path id="STROKE_5c2912ea-aa67-45cb-b2f0-6091489ef507" opacity="1.000" fill="none" stroke="#000000" stroke-width="1.600" stroke-opacity="1.000" stroke-linecap="round" stroke-linejoin="round" d="M 540.438 714.313 Q 540.547 714.313 540.786 714.313 Q 541.027 714.110 540.594 714.593 Q 540.162 715.077 538.655 716.060 Q 537.148 717.043 536.191 717.813 Q 535.234 718.583 534.813 718.929 Q 534.391 719.276 534.370 719.337 Q 534.349 719.399 534.317 719.428 Q 534.285 719.457 533.960 719.840 Q 533.635 720.223 533.556 720.250 Q 533.478 720.276 533.495 720.277 Q 533.512 720.279 533.523 720.253 Q 533.533 720.227 533.176 720.657 Q 532.818 721.087 532.460 721.505 Q 532.102 721.923 532.025 721.981 Q 531.948 722.039 531.910 722.072 Q 531.872 722.105 531.409 722.490 Q 530.945 722.875 530.969 722.901 Q 530.993 722.928 531.013 722.907 Q 531.033 722.887 530.845 723.014 Q 530.657 723.141 529.527 724.520 Q 528.398 725.898 527.813 726.644 Q 527.228 727.390 527.005 727.812 Q 526.781 728.234 526.713 728.518 Q 526.644 728.802 526.494 729.006 Q 526.343 729.210 526.298 729.185 Q 526.254 729.159 525.990 729.510 Q 525.727 729.862 525.124 730.968 Q 524.520 732.075 524.164 732.703 Q 523.808 733.331 523.657 733.610 Q 523.506 733.890 523.415 734.126 Q 523.325 734.362 523.450 734.214 Q 523.575 734.067 522.341 736.244 Q 521.107 738.421 519.669 740.952 Q 518.231 743.483 517.701 744.778 Q 517.171 746.073 516.884 746.613 Q 516.597 747.154 516.386 747.627 Q 516.175 748.100 516.142 748.178 Q 516.109 748.255 516.095 748.259 Q 516.082 748.263 515.987 748.433 Q 515.892 748.603 515.680 749.042 Q 515.467 749.480 515.357 749.772 Q 515.246 750.064 515.263 750.016 Q 515.279 749.968 515.281 749.919 Q 515.283 749.869 515.063 750.492 Q 514.842 751.116 514.720 751.847 Q 514.597 752.578 514.394 752.975 Q 514.191 753.373 514.129 753.656 Q 514.067 753.938 513.821 755.085 Q 513.574 756.232 513.486 756.828 Q 513.397 757.423 513.377 757.926 Q 513.358 758.430 513.351 758.464 Q 513.345 758.499 513.385 758.383 Q 513.425 758.267 513.349 759.783 Q 513.272 761.299 513.085 762.459 Q 512.898 763.618 512.857 764.081 Q 512.817 764.544 512.736 764.766 Q 512.655 764.988 512.647 764.978 Q 512.639 764.969 512.639 765.159 Q 512.638 765.348 512.530 766.878 Q 512.421 768.408 511.897 770.171 Q 511.373 771.934 511.267 774.469 Q 511.161 777.004 511.281 778.313 Q 511.402 779.622 511.484 780.353 Q 511.567 781.084 511.594 780.851 Q 511.621 780.619 512.091 783.718 Q 512.560 786.817 512.820 789.457 Q 513.080 792.097 513.421 793.260 Q 513.762 794.422 513.768 794.699 Q 513.774 794.975 514.072 795.667 Q 514.370 796.359 514.653 797.189 Q 514.936 798.019 514.942 798.220 Q 514.948 798.420 515.423 799.726 Q 515.898 801.032 516.110 801.666 Q 516.322 802.301 516.519 802.563 Q 516.716 802.826 516.995 803.184 Q 517.275 803.542 517.781 804.137 Q 518.287 804.731 518.162 804.621 Q 518.037 804.511 518.677 805.304 Q 519.317 806.097 519.673 806.595 Q 520.029 807.093 520.281 807.352 Q 520.533 807.610 520.932 807.919 Q 521.331 808.227 521.590 808.599 Q 521.849 808.971 522.048 809.171 Q 522.247 809.372 522.364 809.472 Q 522.481 809.573 523.028 810.032 Q 523.575 810.491 524.035 810.904 Q 524.495 811.317 524.536 811.324 Q 524.577 811.330 524.562 811.302 Q 524.548 811.273 524.855 811.652 Q 525.163 812.030 525.159 812.052 Q 525.156 812.074 525.112 812.022 Q 525.068 811.970 525.297 812.223 Q 525.525 812.475 526.398 813.462 Q 527.271 814.448 529.385 816.572 "></path>
    <path id="STROKE_57ed6ed4-e2bf-40c2-ab8a-ddd35b78dc33" opacity="1.000" fill="none" stroke="#000000" stroke-width="1.600" stroke-opacity="1.000" stroke-linecap="round" stroke-linejoin="round" d="M 525.730 818.487 Q 525.664 818.487 525.599 818.487 Q 525.413 818.193 525.956 819.115 Q 526.498 820.036 527.447 820.476 Q 528.395 820.916 528.919 820.947 Q 529.444 820.979 529.637 820.928 Q 529.831 820.877 530.043 820.756 Q 530.255 820.634 530.549 820.680 Q 530.843 820.725 531.477 819.147 Q 532.112 817.568 532.109 815.891 Q 532.106 814.215 531.873 813.121 Q 531.640 812.028 531.256 810.916 "></path>
    <path id="STROKE_646dce43-2222-41bf-8bec-b26341376e36" opacity="1.000" fill="none" stroke="#000000" stroke-width="1.600" stroke-opacity="1.000" stroke-linecap="round" stroke-linejoin="round" d="M 300.000 788.000 L 300.000 828.000 L 300.000 838.000 "></path>
    <path id="STROKE_7aa955f7-c6e0-4644-9d61-fa21a619abd5" opacity="1.000" fill="none" stroke="#000000" stroke-width="1.600" stroke-opacity="1.000" stroke-linecap="round" stroke-linejoin="round" d="M 312.590 808.087 Q 312.691 807.971 312.808 807.695 Q 313.554 807.860 313.417 812.087 Q 313.280 816.314 313.251 818.759 Q 313.221 821.203 312.964 822.832 Q 312.707 824.461 312.329 825.580 "></path>
    <path id="STROKE_b5f2f1b6-a56e-444e-9b6c-5bd9b0a55b53" opacity="1.000" fill="none" stroke="#000000" stroke-width="1.600" stroke-opacity="1.000" stroke-linecap="round" stroke-linejoin="round" d="M 320.467 807.565 Q 320.305 808.515 320.467 820.750 "></path>
    <path id="STROKE_fc9c1213-6d58-47b2-8862-947038cee5ed" opacity="1.000" fill="none" stroke="#000000" stroke-width="1.600" stroke-opacity="1.000" stroke-linecap="round" stroke-linejoin="round" d="M 314.940 816.572 Q 315.611 816.570 320.467 817.008 "></path>
    <path id="STROKE_3f2a312f-238a-4362-9e14-4beacf451d01" opacity="1.000" fill="none" stroke="#000000" stroke-width="1.600" stroke-opacity="1.000" stroke-linecap="round" stroke-linejoin="round" d="M 326.950 812.395 Q 326.403 813.880 329.779 823.056 "></path>
    <path id="STROKE_e062b36a-f86c-45f6-9ca3-d7360d619c7f" opacity="1.000" fill="none" stroke="#000000" stroke-width="1.600" stroke-opacity="1.000" stroke-linecap="round" stroke-linejoin="round" d="M 329.170 812.482 Q 329.011 812.370 328.604 812.177 Q 328.252 812.348 329.037 811.761 Q 329.822 811.173 330.723 811.323 Q 331.624 811.472 332.206 811.942 Q 332.788 812.413 332.909 812.827 Q 333.030 813.241 333.040 813.555 Q 333.051 813.869 332.948 814.146 Q 332.845 814.423 333.107 814.397 Q 333.368 814.371 330.475 817.095 Q 330.452 817.039 331.706 818.000 Q 332.961 818.962 333.445 819.451 Q 333.930 819.941 334.032 820.722 Q 334.133 821.502 334.096 822.159 Q 334.058 822.815 333.556 823.552 Q 333.054 824.288 332.416 824.708 Q 331.777 825.128 331.240 824.972 Q 330.702 824.817 330.442 824.565 Q 330.181 824.312 330.151 823.957 Q 330.121 823.603 330.127 822.882 "></path>
    <path id="STROKE_000de17e-56e4-4d44-aac0-efe507e15060" opacity="1.000" fill="none" stroke="#000000" stroke-width="1.600" stroke-opacity="1.000" stroke-linecap="round" stroke-linejoin="round" d="M 338.613 820.967 Q 338.613 821.076 338.613 821.185 Q 339.270 820.788 340.297 819.235 Q 341.324 817.683 342.581 816.801 Q 343.838 815.919 344.760 815.331 Q 345.683 814.743 346.834 814.326 Q 347.985 813.910 349.187 813.526 "></path>
    <path id="STROKE_4065696e-aa20-46de-a373-c2c56d6f9f44" opacity="1.000" fill="none" stroke="#000000" stroke-width="1.600" stroke-opacity="1.000" stroke-linecap="round" stroke-linejoin="round" d="M 309.762 696.515 Q 309.798 696.339 309.507 696.546 Q 309.215 696.754 309.005 698.140 Q 308.794 699.527 308.973 700.672 Q 309.151 701.817 309.116 702.358 Q 309.080 702.899 309.094 704.210 Q 309.108 705.522 309.206 707.071 Q 309.303 708.619 309.849 709.918 "></path>
    <path id="STROKE_74c2aa4b-1cc9-4acf-90b5-1bd33feceec6" opacity="1.000" fill="none" stroke="#000000" stroke-width="1.600" stroke-opacity="1.000" stroke-linecap="round" stroke-linejoin="round" d="M 308.804 695.253 Q 308.739 695.253 308.674 695.253 Q 308.481 695.290 309.081 694.807 Q 309.681 694.325 310.915 694.415 Q 312.148 694.506 312.962 694.926 Q 313.776 695.345 314.178 696.364 Q 314.579 697.383 314.691 697.923 Q 314.803 698.464 314.086 699.704 Q 313.370 700.945 312.458 701.732 Q 311.547 702.518 311.456 702.545 Q 311.366 702.572 310.110 702.912 Q 310.020 702.836 311.488 702.929 Q 312.955 703.022 313.992 703.735 Q 315.028 704.449 315.347 705.471 Q 315.666 706.492 315.546 706.460 Q 315.426 706.427 315.439 706.364 Q 315.453 706.300 315.465 706.720 Q 315.476 707.140 315.021 707.477 Q 314.566 707.814 314.172 708.099 Q 313.777 708.384 310.806 707.916 "></path>
    <path id="STROKE_cf30640a-e79e-432a-9cde-fdea0de4fed9" opacity="1.000" fill="none" stroke="#000000" stroke-width="1.600" stroke-opacity="1.000" stroke-linecap="round" stroke-linejoin="round" d="M 324.470 698.430 Q 324.741 698.453 323.791 699.989 Q 322.841 701.526 323.513 703.956 Q 323.528 703.873 323.474 704.001 Q 323.421 704.129 323.656 703.997 Q 323.890 703.864 324.341 703.335 Q 324.791 702.806 324.667 702.977 Q 324.542 703.149 325.117 701.336 Q 325.691 699.524 326.118 698.441 Q 326.545 697.358 328.144 696.669 Q 329.743 695.981 331.650 695.688 "></path>
    <path id="STROKE_6305645d-0955-4622-8572-ff6fa5501592" opacity="1.000" fill="none" stroke="#000000" stroke-width="1.600" stroke-opacity="1.000" stroke-linecap="round" stroke-linejoin="round" d="M 331.433 702.999 Q 331.530 703.016 331.458 703.007 Q 331.385 702.998 332.256 702.595 Q 333.127 702.191 333.817 702.151 Q 334.506 702.110 334.933 702.589 Q 335.359 703.069 335.328 703.070 Q 335.297 703.072 335.323 703.110 Q 335.349 703.147 335.526 703.614 Q 335.704 704.080 334.996 706.214 Q 334.288 708.348 331.171 711.919 Q 331.542 711.274 338.482 710.222 "></path>
    <path id="STROKE_a7d013bb-38dd-4cae-b1ec-660d424095c6" opacity="1.000" fill="none" stroke="#000000" stroke-width="1.600" stroke-opacity="1.000" stroke-linecap="round" stroke-linejoin="round" d="M 334.957 715.140 Q 335.139 715.317 335.160 715.330 Q 335.181 715.342 335.202 715.347 Q 335.222 715.352 335.158 715.419 Q 335.094 715.486 335.944 715.563 Q 336.794 715.640 337.806 716.119 Q 338.818 716.599 339.324 717.031 Q 339.829 717.462 340.300 717.696 Q 340.770 717.930 341.382 718.324 Q 341.994 718.718 341.963 718.773 Q 342.096 718.959 342.360 719.271 Q 342.624 719.582 342.639 719.599 Q 342.655 719.615 342.690 719.691 Q 342.726 719.766 342.677 719.608 Q 342.628 719.449 343.605 720.621 Q 344.582 721.794 344.905 722.223 Q 345.228 722.653 345.495 723.069 Q 345.761 723.484 345.823 723.696 Q 345.886 723.908 345.752 723.653 Q 345.618 723.397 346.083 724.534 Q 346.547 725.671 347.061 726.787 Q 347.575 727.902 347.662 728.431 Q 347.749 728.961 347.828 729.513 Q 347.908 730.066 348.019 730.655 Q 348.131 731.243 348.148 731.558 Q 348.165 731.872 348.314 732.126 Q 348.463 732.380 348.666 732.726 Q 348.868 733.073 349.145 733.741 Q 349.422 734.410 349.589 734.881 Q 349.757 735.351 349.921 735.578 Q 350.085 735.805 350.118 735.898 Q 350.152 735.992 350.112 735.871 Q 350.071 735.750 350.298 736.430 Q 350.525 737.110 350.711 737.581 Q 350.897 738.051 350.979 738.306 Q 351.061 738.561 351.227 738.883 Q 351.393 739.204 351.433 739.300 Q 351.472 739.397 351.462 739.361 Q 351.453 739.325 351.548 739.537 Q 351.644 739.748 351.899 740.290 Q 352.154 740.833 352.322 741.258 Q 352.490 741.682 352.476 741.781 Q 352.462 741.880 352.445 741.867 Q 352.428 741.854 352.573 742.212 Q 352.718 742.569 353.362 744.992 Q 354.006 747.415 354.099 748.594 Q 354.191 749.772 354.316 750.727 Q 354.441 751.681 354.543 752.288 Q 354.645 752.895 354.649 753.369 Q 354.654 753.843 354.694 754.073 Q 354.734 754.302 354.735 754.297 Q 354.736 754.291 354.849 754.701 Q 354.962 755.110 354.889 755.827 Q 354.817 756.544 355.176 758.612 Q 355.536 760.681 355.844 761.921 Q 356.152 763.160 356.180 763.506 Q 356.208 763.853 356.250 764.240 Q 356.292 764.626 356.281 764.812 Q 356.270 764.997 356.329 764.898 Q 356.388 764.800 356.819 766.790 Q 357.250 768.780 357.345 769.734 Q 357.440 770.687 357.367 771.349 Q 357.293 772.010 357.398 772.624 Q 357.502 773.237 357.520 773.354 Q 357.537 773.471 357.532 773.742 Q 357.527 774.013 357.495 773.926 Q 357.463 773.838 357.662 774.008 Q 357.861 774.177 357.759 776.774 Q 357.658 779.371 357.599 781.969 Q 357.540 784.567 357.113 786.429 Q 356.686 788.292 356.349 789.942 Q 356.011 791.592 355.389 793.186 Q 354.768 794.780 353.948 796.736 Q 353.128 798.693 352.190 800.233 Q 351.251 801.772 350.702 802.639 Q 350.153 803.506 349.814 803.941 Q 349.475 804.376 349.394 804.466 Q 349.312 804.555 349.372 804.474 Q 349.431 804.393 349.182 804.738 Q 348.934 805.082 348.328 805.681 Q 347.723 806.280 347.338 806.577 Q 346.953 806.875 346.814 806.979 Q 346.675 807.084 346.633 807.119 Q 346.591 807.155 346.718 807.094 Q 346.846 807.033 346.194 807.323 Q 345.543 807.613 345.005 807.922 Q 344.467 808.230 344.270 808.522 "></path>
    <path id="STROKE_e1dfd328-aa95-475d-acbc-044d8dc2dfe5" opacity="1.000" fill="none" stroke="#000000" stroke-width="1.600" stroke-opacity="1.000" stroke-linecap="round" stroke-linejoin="round" d="M 345.444 802.996 Q 345.403 802.966 344.487 803.300 Q 343.999 803.891 344.139 803.692 Q 344.224 803.531 344.067 804.215 Q 343.911 804.898 343.796 806.055 Q 343.682 807.213 341.528 811.133 Q 341.558 810.766 350.492 809.044 "></path>
    <path id="STROKE_674d631f-19c9-45d9-b369-685dde11437e" opacity="1.000" fill="none" stroke="#000000" stroke-width="1.600" stroke-opacity="1.000" stroke-linecap="round" stroke-linejoin="round" d="M 300.000 668.000 L 300.000 668.000 "></path>
    <path id="STROKE_2fd0e4da-0db6-41ff-ac7d-85b69fa00238" opacity="1.000" fill="none" stroke="#000000" stroke-width="1.600" stroke-opacity="1.000" stroke-linecap="round" stroke-linejoin="round" d="M 300.000 668.000 L 300.000 668.000 "></path>
    <path id="STROKE_f80b3709-cd0d-44e1-9736-39b117e3bc62" opacity="1.000" fill="none" stroke="#000000" stroke-width="1.600" stroke-opacity="1.000" stroke-linecap="round" stroke-linejoin="round" d="M 300.000 668.000 L 300.000 668.000 "></path>
    <path id="STROKE_e9415f8a-fedc-4774-afb8-d9c84372d07f" opacity="1.000" fill="none" stroke="#000000" stroke-width="1.600" stroke-opacity="1.000" stroke-linecap="round" stroke-linejoin="round" d="M 300.000 668.000 L 300.000 668.000 "></path>
    <path id="STROKE_188d1eae-1a3a-42e2-9ea2-2a629b7174ac" opacity="1.000" fill="none" stroke="#000000" stroke-width="1.600" stroke-opacity="1.000" stroke-linecap="round" stroke-linejoin="round" d="M 300.000 668.000 L 310.000 668.000 "></path>
    <path id="STROKE_781ea1c8-4be1-4d72-bf41-ac73fd3ad0ee" opacity="1.000" fill="none" stroke="#000000" stroke-width="1.600" stroke-opacity="1.000" stroke-linecap="round" stroke-linejoin="round" d="M 427.994 600.043 Q 428.033 599.625 427.863 599.521 Q 427.652 599.571 427.645 603.016 Q 427.638 606.461 427.978 608.624 Q 428.319 610.787 428.451 611.904 Q 428.582 613.021 428.429 613.750 "></path>
    <path id="STROKE_9dc32082-0e22-4ba6-91b1-e07de415d9a8" opacity="1.000" fill="none" stroke="#000000" stroke-width="1.600" stroke-opacity="1.000" stroke-linecap="round" stroke-linejoin="round" d="M 427.036 596.257 Q 427.023 596.006 427.418 595.550 Q 427.813 595.094 427.776 595.238 Q 427.738 595.383 427.698 595.204 Q 427.657 595.025 429.911 594.278 Q 432.164 593.532 433.612 593.557 Q 435.060 593.582 435.666 593.803 Q 436.271 594.025 436.452 594.399 Q 436.632 594.774 436.634 595.123 Q 436.637 595.471 436.740 595.322 Q 436.844 595.172 436.295 596.505 Q 435.747 597.838 434.582 599.012 Q 433.417 600.186 431.040 601.392 Q 431.887 601.939 431.823 601.892 Q 433.528 602.591 434.853 603.700 Q 436.177 604.810 436.658 606.355 Q 437.139 607.900 436.472 608.999 Q 435.806 610.099 435.321 610.416 Q 434.836 610.734 434.092 611.191 Q 433.349 611.648 432.462 611.996 Q 431.576 612.343 431.087 612.567 Q 430.599 612.790 427.254 613.228 "></path>
    <path id="STROKE_40c763d3-9ee8-4d04-a311-4931e658bea0" opacity="1.000" fill="none" stroke="#000000" stroke-width="1.600" stroke-opacity="1.000" stroke-linecap="round" stroke-linejoin="round" d="M 443.181 603.046 Q 443.060 603.726 442.484 607.353 Q 442.233 606.834 442.385 605.907 Q 442.536 604.981 443.061 603.702 Q 443.585 602.424 444.157 601.616 Q 444.729 600.808 445.688 600.172 Q 446.647 599.536 447.059 599.387 Q 447.471 599.238 447.743 599.120 Q 448.015 599.001 449.605 598.556 Q 451.194 598.111 453.668 597.606 "></path>
    <path id="STROKE_ac0851eb-76ad-481f-8f6b-2081b8cc1d47" opacity="1.000" fill="none" stroke="#000000" stroke-width="1.600" stroke-opacity="1.000" stroke-linecap="round" stroke-linejoin="round" d="M 453.407 605.134 Q 453.642 604.968 453.912 604.682 Q 454.183 604.397 454.203 604.443 Q 454.224 604.488 454.191 604.513 Q 454.159 604.539 454.409 604.288 Q 454.658 604.038 458.019 604.612 Q 458.005 604.889 458.073 605.702 Q 458.141 606.515 457.128 607.742 Q 456.116 608.969 453.189 610.269 Q 453.497 609.734 456.906 609.669 Q 460.315 609.603 464.112 609.442 "></path>
    <path id="STROKE_c5ca66e4-617d-4b84-8b0c-ce22000c7901" opacity="1.000" fill="none" stroke="#000000" stroke-width="1.600" stroke-opacity="1.000" stroke-linecap="round" stroke-linejoin="round" d="M 427.167 625.673 Q 428.028 626.362 428.423 635.477 Q 428.818 644.591 428.791 650.314 Q 428.765 656.037 428.342 662.530 "></path>
    <path id="STROKE_f2b1caa4-2bfc-4f9f-8db4-8bd73fb75b10" opacity="1.000" fill="none" stroke="#000000" stroke-width="1.600" stroke-opacity="1.000" stroke-linecap="round" stroke-linejoin="round" d="M 428.342 659.049 Q 428.150 660.473 428.188 660.299 Q 428.226 660.125 428.231 660.428 Q 428.236 660.731 428.169 660.611 Q 428.102 660.492 428.167 662.714 Q 428.232 664.935 428.278 667.709 Q 428.324 670.483 427.645 675.062 "></path>
    <path id="STROKE_82476a5e-3861-4623-9cf5-e88e2a221c38" opacity="1.000" fill="none" stroke="#000000" stroke-width="1.600" stroke-opacity="1.000" stroke-linecap="round" stroke-linejoin="round" d="M 422.685 670.276 Q 422.984 670.946 422.806 670.977 Q 422.629 671.008 423.274 672.775 Q 423.918 674.541 425.644 677.282 Q 426.686 677.399 427.928 675.117 Q 429.170 672.836 429.626 671.360 Q 430.081 669.884 430.419 668.951 Q 430.756 668.019 431.170 667.230 "></path>
    <path id="STROKE_c5901c1b-1dfe-4b77-99a8-7e9b41c1f1c6" opacity="1.000" fill="none" stroke="#000000" stroke-width="1.600" stroke-opacity="1.000" stroke-linecap="round" stroke-linejoin="round" d="M 444.094 671.842 Q 443.929 670.299 444.755 662.814 Q 445.582 655.330 446.085 651.580 Q 446.588 647.831 446.750 645.408 Q 446.912 642.985 447.018 641.531 Q 447.125 640.077 447.357 638.346 Q 447.589 636.614 447.941 634.530 Q 448.293 632.445 447.271 629.546 "></path>
    <path id="STROKE_eb5c1252-5864-4ff6-b597-6d368f6ea285" opacity="1.000" fill="none" stroke="#000000" stroke-width="1.600" stroke-opacity="1.000" stroke-linecap="round" stroke-linejoin="round" d="M 444.834 628.502 Q 443.969 628.385 439.743 636.465 Q 440.656 635.801 440.461 635.877 Q 440.454 635.800 440.489 635.933 Q 440.525 636.065 446.488 627.022 Q 446.397 626.921 447.773 628.664 Q 449.148 630.406 452.101 631.113 "></path>
  </g>
</svg>