<?xml version="1.0" encoding="UTF-8" standalone="yes"?>
<svg xmlns="http://www.w3.org/2000/svg" xmlns:xlink="http://www.w3.org/1999/xlink" width="260.634pt" height="126.371pt" version="1.1" viewBox="-104.180 585.809 260.634 126.371">
  <!--
	Exported with Concepts: Smarter Sketching
	Version: 2024.9.7 on Microsoft Windows NT 10.0.22631.0
	https://concepts.app/
	-->
  <title>Drawing</title>
  <desc>Drawing exported from Concepts: Smarter Sketching</desc>
  <defs></defs>
  <g id="Pen" opacity="1.000">
    <path id="STROKE_3ad96100-d759-4355-b2c9-bfbfa5e1fe34" opacity="1.000" fill="none" stroke="#000000" stroke-width="1.600" stroke-opacity="1.000" stroke-linecap="round" stroke-linejoin="round" d="M -100.000 668.000 L 90.000 668.000 L 100.000 668.000 "></path>
    <path id="STROKE_291c9aa1-8617-4b58-839d-da7691261c3b" opacity="1.000" fill="none" stroke="#000000" stroke-width="1.600" stroke-opacity="1.000" stroke-linecap="round" stroke-linejoin="round" d="M -100.000 668.000 L -100.000 698.000 L -100.000 708.000 "></path>
    <path id="STROKE_cfc79442-087d-4201-8678-577d9bc47bf9" opacity="1.000" fill="none" stroke="#000000" stroke-width="1.600" stroke-opacity="1.000" stroke-linecap="round" stroke-linejoin="round" d="M -100.000 708.000 L 90.000 708.000 L 100.000 708.000 "></path>
    <path id="STROKE_54b0593b-b6b9-46ff-92b0-77f716a4f2b8" opacity="1.000" fill="none" stroke="#000000" stroke-width="1.600" stroke-opacity="1.000" stroke-linecap="round" stroke-linejoin="round" d="M 100.000 668.000 L 100.000 698.000 L 100.000 708.000 "></path>
    <path id="STROKE_cd5823e8-44e3-4405-9f65-42ba42eba3a3" opacity="1.000" fill="none" stroke="#000000" stroke-width="1.600" stroke-opacity="1.000" stroke-linecap="round" stroke-linejoin="round" d="M -99.016 689.839 Q -98.943 689.705 -97.993 688.727 Q -97.042 687.749 -96.350 686.980 Q -95.658 686.210 -95.405 685.993 Q -95.151 685.776 -94.289 684.766 Q -93.428 683.755 -92.067 682.373 Q -90.706 680.990 -89.634 679.966 Q -88.562 678.942 -79.955 671.726 "></path>
    <path id="STROKE_fd725f1a-03d0-46d0-be02-0d4f0be86459" opacity="1.000" fill="none" stroke="#000000" stroke-width="1.600" stroke-opacity="1.000" stroke-linecap="round" stroke-linejoin="round" d="M -99.858 702.633 Q -98.897 701.879 -96.683 699.938 Q -94.470 697.998 -91.624 695.600 Q -88.779 693.202 -72.215 679.940 "></path>
    <path id="STROKE_640c5cb0-e24d-4fb0-8a41-d366d56d15f9" opacity="1.000" fill="none" stroke="#000000" stroke-width="1.600" stroke-opacity="1.000" stroke-linecap="round" stroke-linejoin="round" d="M -84.641 707.319 Q -84.780 707.252 -78.912 702.450 Q -73.044 697.647 -69.534 694.661 Q -66.023 691.675 -62.952 689.122 Q -59.882 686.569 -43.150 673.095 "></path>
    <path id="STROKE_07189d29-5f02-42c0-8511-e6e48300116e" opacity="1.000" fill="none" stroke="#000000" stroke-width="1.600" stroke-opacity="1.000" stroke-linecap="round" stroke-linejoin="round" d="M -55.155 704.634 Q -55.208 704.502 -55.208 704.371 Q -54.805 704.996 -48.468 700.325 Q -42.130 695.655 -36.854 690.882 Q -31.577 686.110 -25.512 679.996 Q -19.448 673.883 -13.558 668.303 "></path>
    <path id="STROKE_b75d6ecf-0f53-467c-8a73-6542900157c9" opacity="1.000" fill="none" stroke="#000000" stroke-width="1.600" stroke-opacity="1.000" stroke-linecap="round" stroke-linejoin="round" d="M -23.668 707.530 Q -22.086 705.570 -19.758 703.465 Q -17.430 701.360 -15.489 699.765 Q -13.548 698.169 -12.457 697.388 Q -11.366 696.607 -10.315 695.817 Q -9.263 695.027 -6.308 692.657 Q -3.352 690.288 0.683 687.031 Q 4.719 683.773 7.162 682.040 Q 9.606 680.306 12.338 678.414 Q 15.070 676.522 29.618 665.987 "></path>
    <path id="STROKE_ae339859-f28d-4ccf-bfcd-0a203d6595f5" opacity="1.000" fill="none" stroke="#000000" stroke-width="1.600" stroke-opacity="1.000" stroke-linecap="round" stroke-linejoin="round" d="M 12.242 705.634 Q 13.263 705.634 13.111 705.634 Q 13.999 705.245 17.982 701.642 Q 21.964 698.038 26.180 694.142 Q 30.397 690.246 47.731 674.095 "></path>
    <path id="STROKE_14bdae0b-e7c8-4abd-97ed-2325b71c33eb" opacity="1.000" fill="none" stroke="#000000" stroke-width="1.600" stroke-opacity="1.000" stroke-linecap="round" stroke-linejoin="round" d="M 49.310 706.687 Q 48.986 706.802 51.885 704.681 Q 54.785 702.559 60.414 696.440 Q 66.042 690.321 69.582 686.246 Q 73.122 682.171 83.641 672.726 "></path>
    <path id="STROKE_b725c4cf-bbb6-4c12-a87f-92af41fbce09" opacity="1.000" fill="none" stroke="#000000" stroke-width="1.600" stroke-opacity="1.000" stroke-linecap="round" stroke-linejoin="round" d="M 77.638 706.056 Q 78.947 705.810 95.593 687.522 "></path>
    <path id="STROKE_5ae059b3-b3c7-44ea-a4aa-39727854e084" opacity="1.000" fill="none" stroke="#000000" stroke-width="1.600" stroke-opacity="1.000" stroke-linecap="round" stroke-linejoin="round" d="M -52.312 646.611 Q -51.726 646.632 -52.653 652.212 Q -53.580 657.793 -53.312 664.512 "></path>
    <path id="STROKE_95ccc699-e9b5-416a-9fb8-13b64b7c1255" opacity="1.000" fill="none" stroke="#000000" stroke-width="1.600" stroke-opacity="1.000" stroke-linecap="round" stroke-linejoin="round" d="M -59.420 628.287 Q -59.303 628.139 -61.044 630.996 Q -62.784 633.853 -63.329 636.633 Q -63.874 639.413 -64.029 640.802 Q -64.183 642.191 -63.435 643.609 Q -62.687 645.027 -61.797 646.200 Q -60.907 647.373 -58.489 648.241 Q -56.071 649.109 -52.676 649.092 Q -49.282 649.074 -46.171 647.987 Q -43.060 646.900 -41.385 645.609 Q -39.711 644.318 -38.603 642.717 Q -37.495 641.117 -37.989 638.696 Q -38.483 636.276 -39.972 633.783 Q -41.460 631.290 -44.388 628.717 Q -47.315 626.145 -57.419 624.707 "></path>
    <path id="STROKE_bb49f180-b0b2-4a19-bf0f-88472896be15" opacity="1.000" fill="none" stroke="#000000" stroke-width="1.600" stroke-opacity="1.000" stroke-linecap="round" stroke-linejoin="round" d="M -25.146 624.792 Q -25.594 624.697 -17.773 622.589 Q -17.584 623.154 -17.618 623.185 Q -17.652 623.215 -17.708 623.282 Q -17.764 623.348 -17.587 623.226 Q -17.410 623.105 -18.688 625.743 Q -19.967 628.381 -21.050 630.130 Q -22.134 631.879 -22.584 633.300 Q -23.035 634.721 -23.166 635.632 Q -23.296 636.543 -23.128 637.327 Q -22.959 638.111 -22.174 638.645 Q -21.388 639.179 -16.010 637.071 "></path>
    <path id="STROKE_7332353c-7098-452c-a078-d81cc3893ad2" opacity="1.000" fill="none" stroke="#000000" stroke-width="1.600" stroke-opacity="1.000" stroke-linecap="round" stroke-linejoin="round" d="M -25.322 630.314 Q -25.454 630.570 -19.183 628.258 "></path>
    <path id="STROKE_e08386c4-8fff-4cdb-83c6-e7bc715fdaac" opacity="1.000" fill="none" stroke="#000000" stroke-width="1.600" stroke-opacity="1.000" stroke-linecap="round" stroke-linejoin="round" d="M -8.695 632.929 Q -8.740 632.885 -8.872 632.841 Q -9.001 634.057 -7.579 639.479 "></path>
    <path id="STROKE_f025cd47-3f25-4b15-81dc-e1706a4fe068" opacity="1.000" fill="none" stroke="#000000" stroke-width="1.600" stroke-opacity="1.000" stroke-linecap="round" stroke-linejoin="round" d="M -11.163 637.570 Q -11.207 637.570 -11.251 637.570 Q -12.134 638.317 -5.288 635.044 "></path>
    <path id="STROKE_5c729734-b120-4a43-bfbe-ebe9dcd959d8" opacity="1.000" fill="none" stroke="#000000" stroke-width="1.600" stroke-opacity="1.000" stroke-linecap="round" stroke-linejoin="round" d="M -1.880 635.954 Q -1.514 636.662 -1.587 636.556 Q -1.255 637.393 -1.352 637.144 Q -1.322 637.217 -0.823 637.511 Q -0.609 637.699 -0.364 636.772 Q -0.119 635.845 0.432 634.649 Q 0.984 633.453 1.576 632.823 Q 2.168 632.193 2.831 631.667 Q 3.494 631.141 4.347 630.784 "></path>
    <path id="STROKE_ea46e05e-361a-4a35-92c3-ceb08d8053e9" opacity="1.000" fill="none" stroke="#000000" stroke-width="1.600" stroke-opacity="1.000" stroke-linecap="round" stroke-linejoin="round" d="M 9.106 633.986 Q 9.109 633.997 9.329 634.127 Q 9.549 634.257 9.547 634.214 Q 9.545 634.170 9.670 634.247 Q 9.795 634.324 10.486 634.228 Q 11.177 634.131 11.919 633.491 Q 12.661 632.851 12.958 632.687 Q 13.255 632.523 13.592 632.109 Q 13.929 631.696 13.926 631.289 Q 13.924 630.881 13.834 630.743 Q 13.744 630.604 13.695 630.608 Q 13.646 630.611 13.746 630.557 Q 13.846 630.503 12.698 630.183 Q 11.549 629.864 10.691 630.009 Q 9.833 630.153 9.106 631.431 "></path>
    <path id="STROKE_aeadd854-e97a-4ff1-a282-300e8643aedb" opacity="1.000" fill="none" stroke="#000000" stroke-width="1.600" stroke-opacity="1.000" stroke-linecap="round" stroke-linejoin="round" d="M 13.865 630.373 Q 13.448 629.950 16.802 632.488 "></path>
    <path id="STROKE_665f775f-8f44-4a89-b4bc-e67d4bc115cd" opacity="1.000" fill="none" stroke="#000000" stroke-width="1.600" stroke-opacity="1.000" stroke-linecap="round" stroke-linejoin="round" d="M 20.944 630.784 Q 21.100 630.517 21.195 630.456 Q 21.289 630.394 21.268 630.401 Q 21.247 630.408 21.308 630.295 Q 21.368 630.181 21.669 629.272 Q 21.970 628.363 22.595 627.841 Q 23.221 627.319 23.703 627.200 Q 24.185 627.081 24.273 627.103 Q 24.362 627.125 24.524 627.124 Q 24.685 627.123 25.338 627.549 Q 25.990 627.974 26.908 629.227 "></path>
    <path id="STROKE_8bcc42c1-9830-4e71-9350-7c6ec6d784d5" opacity="1.000" fill="none" stroke="#000000" stroke-width="1.600" stroke-opacity="1.000" stroke-linecap="round" stroke-linejoin="round" d="M 33.106 623.940 Q 32.780 623.494 31.740 624.330 Q 30.701 625.166 30.250 625.704 Q 29.800 626.241 29.601 626.773 Q 29.402 627.304 31.085 628.013 Q 32.768 628.722 33.966 629.173 Q 35.165 629.625 35.882 630.165 Q 36.599 630.704 36.376 631.261 Q 36.153 631.817 35.853 632.286 Q 35.554 632.754 34.856 632.914 Q 34.158 633.073 33.637 633.036 Q 33.115 633.000 32.724 632.635 "></path>
    <path id="STROKE_58db5512-4228-493d-b28d-9c87b4308809" opacity="1.000" fill="none" stroke="#000000" stroke-width="1.600" stroke-opacity="1.000" stroke-linecap="round" stroke-linejoin="round" d="M 58.466 612.788 Q 59.455 615.433 60.275 617.927 Q 61.096 620.420 61.806 622.471 "></path>
    <path id="STROKE_757c0334-9379-46f6-8cc5-194d4f0e0105" opacity="1.000" fill="none" stroke="#000000" stroke-width="1.600" stroke-opacity="1.000" stroke-linecap="round" stroke-linejoin="round" d="M -14.798 650.385 Q -15.071 650.281 -16.935 651.917 Q -18.799 653.553 -19.953 655.374 Q -21.106 657.195 -21.533 658.862 Q -21.959 660.528 -21.434 661.671 Q -20.909 662.814 -14.700 661.995 "></path>
    <path id="STROKE_9e67d45f-5fc0-4167-86f9-c8f184267c93" opacity="1.000" fill="none" stroke="#000000" stroke-width="1.600" stroke-opacity="1.000" stroke-linecap="round" stroke-linejoin="round" d="M -5.341 650.613 Q -5.349 650.599 -5.492 650.891 Q -5.636 651.184 -5.506 651.179 Q -5.377 651.175 -5.647 651.485 Q -5.917 651.795 -5.988 654.418 Q -6.059 657.041 -5.944 658.958 Q -5.830 660.874 -6.384 661.929 Q -6.254 661.929 -6.123 661.929 Q -6.385 661.563 -2.503 658.766 Q -2.333 658.641 -1.623 662.060 Q -1.109 662.109 -1.101 662.158 "></path>
    <path id="STROKE_59bf4f22-48a7-47ff-8dd3-5dbb81c10c17" opacity="1.000" fill="none" stroke="#000000" stroke-width="1.600" stroke-opacity="1.000" stroke-linecap="round" stroke-linejoin="round" d="M 4.117 656.418 Q 4.200 656.939 5.434 656.748 Q 6.668 656.557 7.465 655.830 Q 8.263 655.103 8.580 654.547 Q 8.897 653.992 9.062 653.814 Q 9.226 653.636 9.473 653.362 Q 9.719 653.087 9.648 652.489 Q 9.576 651.890 9.435 651.669 Q 9.293 651.448 8.950 651.324 Q 8.607 651.200 8.356 651.221 Q 8.105 651.241 6.898 651.695 Q 5.691 652.149 4.698 653.200 Q 3.705 654.250 3.221 654.825 Q 2.738 655.400 2.413 656.224 Q 2.088 657.047 2.595 658.399 Q 3.103 659.751 4.467 660.120 Q 5.832 660.489 6.447 660.439 Q 7.062 660.389 8.521 660.047 Q 9.980 659.706 11.520 659.092 "></path>
    <path id="STROKE_5885669c-7156-4c1d-8a35-b86c12dbc68c" opacity="1.000" fill="none" stroke="#000000" stroke-width="1.600" stroke-opacity="1.000" stroke-linecap="round" stroke-linejoin="round" d="M 14.064 654.461 Q 14.335 654.293 13.537 655.801 Q 12.738 657.309 12.564 659.875 Q 13.064 660.060 13.378 658.977 Q 13.692 657.893 14.203 656.931 Q 14.714 655.969 15.175 655.553 Q 15.637 655.137 15.803 655.079 Q 15.969 655.022 16.051 654.992 Q 16.134 654.961 16.520 654.990 Q 16.906 655.019 16.918 655.096 Q 16.930 655.173 17.019 655.375 Q 17.107 655.576 17.181 655.799 Q 17.255 656.023 17.270 656.078 Q 17.285 656.133 17.319 656.414 Q 17.353 656.696 17.347 656.673 Q 17.340 656.651 17.314 656.651 Q 17.288 656.651 17.413 656.773 Q 17.539 656.895 17.799 657.052 Q 18.058 657.209 18.043 657.178 Q 18.028 657.147 18.072 657.166 Q 18.116 657.184 18.294 657.223 Q 18.471 657.262 19.332 656.616 Q 20.193 655.970 20.895 655.715 Q 21.598 655.460 21.863 655.525 Q 22.129 655.590 22.222 655.731 Q 22.315 655.871 22.494 656.181 Q 22.674 656.490 22.766 656.899 Q 22.858 657.307 22.641 658.310 "></path>
    <path id="STROKE_86d9c348-d785-46c8-ba45-b2f811cf85f6" opacity="1.000" fill="none" stroke="#000000" stroke-width="1.600" stroke-opacity="1.000" stroke-linecap="round" stroke-linejoin="round" d="M 29.881 654.527 Q 29.727 654.820 29.522 658.375 "></path>
    <circle id="STROKE_70b26f33-d9e2-4259-be57-ed44fbf15a8d" opacity="1.000" fill="#000000" stroke="#000000" stroke-width="0.1" stroke-opacity="1.000" fill-opacity="1.000" cx="29.685" cy="651.005" r="0.800"></circle>
    <path id="STROKE_8a6a6895-7310-41f5-99b0-01a552f69dde" opacity="1.000" fill="none" stroke="#000000" stroke-width="1.600" stroke-opacity="1.000" stroke-linecap="round" stroke-linejoin="round" d="M 41.002 648.200 Q 40.838 648.284 39.746 648.583 Q 38.655 648.881 37.266 649.665 Q 35.877 650.450 35.115 652.097 Q 35.164 652.491 36.668 652.666 Q 38.172 652.840 39.229 653.083 Q 40.286 653.327 41.055 653.879 Q 41.824 654.432 42.418 655.050 Q 43.012 655.668 42.858 656.413 Q 42.704 657.158 42.645 657.542 Q 42.586 657.925 42.054 658.239 Q 41.522 658.553 40.942 658.825 Q 40.361 659.097 39.449 658.838 Q 38.536 658.578 38.067 657.527 "></path>
    <path id="STROKE_323dd64c-6a31-42c0-bf36-f409c27f18ca" opacity="1.000" fill="none" stroke="#000000" stroke-width="1.600" stroke-opacity="1.000" stroke-linecap="round" stroke-linejoin="round" d="M 46.187 654.135 Q 46.116 654.097 46.050 654.343 Q 45.984 654.589 46.104 654.762 Q 46.225 654.935 46.384 655.123 Q 46.542 655.311 46.724 655.335 Q 46.906 655.360 47.960 655.103 Q 49.014 654.846 50.835 652.391 Q 51.197 652.274 50.372 651.887 Q 49.547 651.500 48.783 651.485 Q 48.020 651.469 46.864 651.810 Q 45.708 652.150 44.687 653.516 Q 44.753 653.649 45.405 654.005 "></path>
    <path id="STROKE_7b66f73b-7c29-4f50-9ef2-e54796a7ae6c" opacity="1.000" fill="none" stroke="#000000" stroke-width="1.600" stroke-opacity="1.000" stroke-linecap="round" stroke-linejoin="round" d="M 54.569 654.005 Q 54.556 653.737 54.764 654.787 Q 54.730 654.943 55.253 653.758 Q 55.777 652.573 61.026 649.504 "></path>
    <path id="STROKE_b0a45f21-0f4e-470d-bace-1e58f410d347" opacity="1.000" fill="none" stroke="#000000" stroke-width="1.600" stroke-opacity="1.000" stroke-linecap="round" stroke-linejoin="round" d="M 67.809 646.374 Q 67.645 647.170 67.199 648.504 Q 66.753 649.837 65.690 654.624 Q 65.724 654.740 66.777 654.006 Q 67.831 653.273 68.599 652.920 Q 69.368 652.567 69.973 652.438 Q 70.577 652.308 71.025 652.560 Q 71.472 652.812 71.629 652.836 Q 71.785 652.860 71.821 653.939 Q 71.857 655.019 71.245 656.151 Q 70.634 657.283 69.679 657.884 Q 68.724 658.485 66.505 657.820 Q 66.476 657.842 66.570 657.364 "></path>
    <path id="STROKE_5a58a337-a5d0-4965-890a-ae8ecedcbc38" opacity="1.000" fill="none" stroke="#000000" stroke-width="1.600" stroke-opacity="1.000" stroke-linecap="round" stroke-linejoin="round" d="M 76.191 654.298 Q 75.621 654.512 76.748 654.214 Q 77.876 653.915 78.343 653.578 Q 78.811 653.241 79.253 652.902 Q 79.695 652.563 79.995 652.216 Q 80.295 651.870 80.482 651.537 Q 80.670 651.203 80.748 651.140 Q 80.826 651.076 81.000 650.799 Q 81.175 650.523 81.092 649.996 Q 81.010 649.469 80.333 649.274 Q 79.657 649.079 78.526 649.930 Q 77.394 650.781 76.793 651.886 Q 76.192 652.991 76.031 653.700 Q 75.869 654.410 76.242 655.195 Q 76.616 655.980 77.639 656.404 Q 78.661 656.828 79.423 657.046 Q 80.184 657.264 85.127 655.864 "></path>
    <path id="STROKE_e00e31e0-1177-4a44-9a36-f2d90d91004a" opacity="1.000" fill="none" stroke="#000000" stroke-width="1.600" stroke-opacity="1.000" stroke-linecap="round" stroke-linejoin="round" d="M 94.389 646.765 Q 94.453 646.580 93.618 647.828 Q 92.783 649.077 92.380 650.746 Q 91.978 652.415 91.890 653.487 Q 91.802 654.560 91.989 654.958 Q 92.177 655.355 92.352 655.661 Q 92.527 655.967 92.936 656.119 Q 93.346 656.271 93.749 655.979 Q 94.152 655.688 94.154 655.715 Q 94.156 655.743 94.334 655.505 Q 94.511 655.268 94.494 654.723 Q 94.477 654.179 94.371 653.951 Q 94.265 653.723 94.209 653.796 Q 94.152 653.870 94.085 653.635 Q 94.017 653.401 92.687 653.421 Q 91.356 653.442 89.679 654.280 Q 88.002 655.118 86.659 657.559 Q 86.889 657.861 86.971 657.945 Q 87.054 658.028 87.138 658.076 Q 87.223 658.123 87.355 658.265 Q 87.486 658.407 90.605 658.212 "></path>
    <path id="STROKE_dfd13117-8e1b-4b2b-8f41-ef8e01786738" opacity="1.000" fill="none" stroke="#000000" stroke-width="1.600" stroke-opacity="1.000" stroke-linecap="round" stroke-linejoin="round" d="M 70.000 621.686 L 70.000 628.000 "></path>
    <path id="STROKE_e55efbce-268a-4a50-be68-557ead8252cf" opacity="1.000" fill="none" stroke="#000000" stroke-width="1.600" stroke-opacity="1.000" stroke-linecap="round" stroke-linejoin="round" d="M 80.528 606.685 Q 80.163 606.971 82.436 606.227 Q 84.709 605.482 86.343 604.916 Q 87.977 604.350 90.932 604.663 Q 91.106 604.945 90.854 605.492 Q 90.603 606.040 90.056 606.910 Q 89.509 607.779 89.042 608.942 Q 88.575 610.104 88.188 610.873 Q 87.801 611.642 87.329 612.910 Q 86.858 614.178 86.670 614.980 Q 86.481 615.781 86.764 616.299 Q 87.048 616.816 87.402 616.933 Q 87.756 617.049 87.904 617.091 Q 88.053 617.134 90.751 616.412 Q 93.450 615.691 96.867 614.838 "></path>
    <path id="STROKE_edb32b9a-0da4-4c24-8c03-668fccfecffe" opacity="1.000" fill="none" stroke="#000000" stroke-width="1.600" stroke-opacity="1.000" stroke-linecap="round" stroke-linejoin="round" d="M 83.789 610.761 Q 84.471 610.767 84.409 610.810 Q 85.045 611.047 91.029 609.196 "></path>
    <path id="STROKE_2ffd0340-f658-4bbc-a90f-b051d958eb5b" opacity="1.000" fill="none" stroke="#000000" stroke-width="1.600" stroke-opacity="1.000" stroke-linecap="round" stroke-linejoin="round" d="M 102.607 612.718 Q 102.171 613.209 102.161 613.993 Q 102.151 614.776 102.160 615.007 Q 102.169 615.238 102.395 615.481 Q 102.621 615.724 102.657 615.755 Q 102.693 615.785 102.604 615.695 Q 102.515 615.605 103.073 615.959 Q 103.630 616.314 104.419 614.950 Q 105.207 613.585 105.704 612.363 Q 106.200 611.140 106.657 610.589 Q 107.114 610.039 107.531 609.750 Q 107.949 609.462 108.043 609.445 Q 108.138 609.429 108.608 609.294 "></path>
    <path id="STROKE_431fe91f-6457-4339-af94-7eb6365167de" opacity="1.000" fill="none" stroke="#000000" stroke-width="1.600" stroke-opacity="1.000" stroke-linecap="round" stroke-linejoin="round" d="M 116.174 611.479 Q 116.425 611.332 116.321 611.428 Q 116.216 611.523 116.963 610.991 Q 117.710 610.460 118.238 609.841 Q 118.765 609.222 118.931 608.795 Q 119.097 608.368 119.096 608.085 Q 119.095 607.802 119.044 607.671 Q 118.992 607.539 118.920 607.414 Q 118.847 607.290 118.502 607.099 Q 118.157 606.909 117.775 606.883 Q 117.393 606.857 116.794 607.168 Q 116.195 607.479 115.879 607.658 Q 115.563 607.836 115.035 608.294 Q 114.507 608.752 114.291 609.075 Q 114.076 609.399 113.764 609.904 Q 113.452 610.410 115.489 610.924 "></path>
    <path id="STROKE_3f060a6a-3e87-425c-a273-ff366aec7b1d" opacity="1.000" fill="none" stroke="#000000" stroke-width="1.600" stroke-opacity="1.000" stroke-linecap="round" stroke-linejoin="round" d="M 124.392 604.174 Q 124.262 604.174 124.131 604.174 Q 123.273 604.718 125.534 611.479 "></path>
    <path id="STROKE_303f73a0-c0d0-4a80-a4e5-51812a032e6e" opacity="1.000" fill="none" stroke="#000000" stroke-width="1.600" stroke-opacity="1.000" stroke-linecap="round" stroke-linejoin="round" d="M 122.011 610.696 Q 121.699 610.861 126.153 608.968 "></path>
    <path id="STROKE_700d3fee-f400-43e5-9e77-b783ab38c0ca" opacity="1.000" fill="none" stroke="#000000" stroke-width="1.600" stroke-opacity="1.000" stroke-linecap="round" stroke-linejoin="round" d="M 136.654 596.086 Q 136.767 596.301 140.372 595.010 "></path>
    <path id="STROKE_ada7720d-3702-4ea0-b808-470b3787b0f6" opacity="1.000" fill="none" stroke="#000000" stroke-width="1.600" stroke-opacity="1.000" stroke-linecap="round" stroke-linejoin="round" d="M 136.557 601.760 Q 136.343 601.737 136.659 602.422 Q 136.974 603.107 138.658 602.566 Q 140.342 602.025 142.133 600.978 "></path>
    <path id="STROKE_c3b73cff-e53d-4a52-ba02-863a2544fd20" opacity="1.000" fill="none" stroke="#000000" stroke-width="1.600" stroke-opacity="1.000" stroke-linecap="round" stroke-linejoin="round" d="M 150.352 589.988 Q 150.548 589.885 150.731 592.329 Q 150.914 594.772 152.276 599.152 "></path>
    <path id="STROKE_e094d2fd-968d-4cfb-9e31-35a590fc815f" opacity="1.000" fill="none" stroke="#000000" stroke-width="1.600" stroke-opacity="1.000" stroke-linecap="round" stroke-linejoin="round" d="M 41.785 621.589 Q 42.370 621.565 42.206 621.612 Q 42.042 621.659 43.216 621.254 Q 44.390 620.849 45.595 620.485 Q 46.800 620.122 47.883 619.860 "></path>
    <path id="STROKE_ccff2f9a-fcea-4f2c-9a27-4cafee58d747" opacity="1.000" fill="none" stroke="#000000" stroke-width="1.600" stroke-opacity="1.000" stroke-linecap="round" stroke-linejoin="round" d="M 45.144 626.285 Q 44.590 626.560 50.427 624.263 "></path>
  </g>
</svg>