<?xml version="1.0" encoding="UTF-8" standalone="yes"?>
<svg xmlns="http://www.w3.org/2000/svg" xmlns:xlink="http://www.w3.org/1999/xlink" width="215.741pt" height="172.912pt" version="1.1" viewBox="-55.369 625.675 215.741 172.912">
  <!--
	Exported with Concepts: Smarter Sketching
	Version: 2024.8.7 on Microsoft Windows NT 10.0.22631.0
	https://concepts.app/
	-->
  <title>Drawing 3</title>
  <desc>Drawing exported from Concepts: Smarter Sketching</desc>
  <defs></defs>
  <g id="Pen" opacity="1.000">
    <path id="STROKE_b6e420ee-00cc-4d8d-be94-1035fb5cb6b6" opacity="1.000" fill="none" stroke="#000000" stroke-width="1.600" stroke-opacity="1.000" stroke-linecap="round" stroke-linejoin="round" d="M -44.564 704.346 Q -44.647 704.361 -44.493 704.361 Q -44.339 704.360 -45.476 704.312 Q -46.613 704.263 -47.137 704.290 Q -47.661 704.316 -51.569 706.457 Q -51.047 706.062 -51.207 709.914 Q -51.367 713.767 -51.378 716.422 Q -51.390 719.077 -51.510 721.228 Q -51.630 723.380 -51.549 724.634 Q -51.468 725.887 -51.294 726.686 Q -51.120 727.484 -50.643 728.134 Q -50.165 728.784 -43.845 729.435 "></path>
    <path id="STROKE_ceea7388-3950-4f58-b2c2-55a0c34cd73a" opacity="1.000" fill="none" stroke="#000000" stroke-width="1.600" stroke-opacity="1.000" stroke-linecap="round" stroke-linejoin="round" d="M -36.421 719.944 Q -36.913 719.451 -36.765 725.243 Q -36.486 725.409 -36.243 724.506 Q -36.000 723.603 -35.790 722.564 Q -35.579 721.525 -35.146 718.429 Q -34.713 715.333 -34.411 713.376 Q -34.110 711.419 -33.307 709.017 Q -33.539 708.476 -31.661 711.371 Q -29.784 714.267 -26.810 720.453 "></path>
    <path id="STROKE_3a5ff2c2-01b3-430e-ae9b-5f8ae4ff3e6f" opacity="1.000" fill="none" stroke="#000000" stroke-width="1.600" stroke-opacity="1.000" stroke-linecap="round" stroke-linejoin="round" d="M -31.600 720.034 Q -32.402 720.042 -32.229 720.064 Q -32.349 720.094 -32.529 720.154 Q -31.778 719.977 -31.810 719.974 Q -31.222 719.806 -30.621 719.560 Q -30.020 719.314 -29.915 719.280 Q -29.810 719.246 -26.661 717.459 "></path>
    <path id="STROKE_2590e0e6-cf7d-459b-943d-2fc03576fc0f" opacity="1.000" fill="none" stroke="#000000" stroke-width="1.600" stroke-opacity="1.000" stroke-linecap="round" stroke-linejoin="round" d="M -24.805 705.244 Q -25.132 705.386 -23.165 704.571 Q -21.198 703.756 -19.331 703.494 Q -17.465 703.232 -16.639 703.281 Q -15.814 703.331 -15.482 703.348 Q -15.150 703.365 -14.802 703.685 Q -14.455 704.005 -14.490 703.882 Q -14.525 703.759 -14.644 705.162 Q -14.763 706.564 -14.402 709.115 Q -14.042 711.666 -13.294 713.816 Q -12.546 715.965 -12.165 717.055 Q -11.784 718.145 -11.080 719.984 Q -10.375 721.824 -9.789 723.559 Q -9.203 725.294 -8.981 726.531 Q -8.758 727.768 -8.969 728.416 Q -9.179 729.064 -11.123 728.956 "></path>
    <path id="STROKE_124d256a-f5cf-41d6-b1f8-1ed0636b6dc9" opacity="1.000" fill="none" stroke="#000000" stroke-width="1.600" stroke-opacity="1.000" stroke-linecap="round" stroke-linejoin="round" d="M 56.119 778.085 Q 56.150 778.192 56.178 777.142 Q 56.518 777.264 56.110 780.506 Q 55.702 783.748 55.615 785.939 Q 55.528 788.129 55.603 789.261 Q 55.679 790.394 55.729 791.169 "></path>
    <path id="STROKE_3ca3def0-3e44-44f7-afbf-0ee1e96191ca" opacity="1.000" fill="none" stroke="#000000" stroke-width="1.600" stroke-opacity="1.000" stroke-linecap="round" stroke-linejoin="round" d="M 51.358 786.019 Q 51.313 785.959 51.179 785.810 Q 51.837 785.864 51.747 785.854 Q 52.615 786.359 62.016 784.986 Q 62.001 784.971 61.986 784.971 "></path>
    <path id="STROKE_aed95361-811b-4259-bcf7-1188e1ad02a9" opacity="1.000" fill="none" stroke="#000000" stroke-width="1.600" stroke-opacity="1.000" stroke-linecap="round" stroke-linejoin="round" d="M 56.657 787.726 Q 56.505 787.896 56.281 788.142 Q 56.056 788.389 56.096 788.394 Q 56.136 788.399 56.097 788.328 Q 56.057 788.258 55.644 789.402 Q 55.231 790.547 55.204 791.466 Q 55.177 792.385 55.378 793.147 Q 55.579 793.908 56.082 794.410 Q 56.586 794.912 58.425 794.798 Q 60.263 794.684 63.453 792.366 "></path>
    <path id="STROKE_cf4786b4-96c9-4585-b441-4fd4396510ad" opacity="1.000" fill="none" stroke="#000000" stroke-width="1.600" stroke-opacity="1.000" stroke-linecap="round" stroke-linejoin="round" d="M 0.000 640.000 L 0.000 768.000 L 0.000 768.000 "></path>
    <path id="STROKE_33b6d0fa-779c-4ec5-9f5d-66f6d4c560b0" opacity="1.000" fill="none" stroke="#000000" stroke-width="1.600" stroke-opacity="1.000" stroke-linecap="round" stroke-linejoin="round" d="M 4.146 768.000 L 128.000 768.000 L 128.000 768.000 "></path>
    <path id="STROKE_f3655da3-b281-4c75-a324-9c254bad9c10" opacity="1.000" fill="none" stroke="#000000" stroke-width="1.600" stroke-opacity="1.000" stroke-linecap="round" stroke-linejoin="round" d="M 5.493 768.000 L 0.000 768.000 L 0.000 768.000 "></path>
    <path id="STROKE_98002ec0-9874-4eac-a29e-8737c8d422b0" opacity="1.000" fill="none" stroke="#000000" stroke-width="1.600" stroke-opacity="1.000" stroke-linecap="round" stroke-linejoin="round" d="M -0.704 637.882 Q -0.704 637.867 -0.704 637.852 L -0.719 637.852 L -0.704 637.852 Q -0.636 637.731 -0.876 637.869 Q -1.117 638.008 -1.599 638.569 Q -2.081 639.130 -2.373 639.462 Q -2.664 639.794 -2.855 640.014 Q -3.046 640.233 -3.254 640.510 Q -3.462 640.786 -3.775 641.130 Q -4.088 641.474 -6.213 644.678 Q -6.598 644.910 -4.375 642.203 Q -2.152 639.497 0.284 635.906 Q 0.157 635.964 0.839 637.470 Q 1.521 638.976 2.970 640.235 Q 4.420 641.494 6.451 642.223 "></path>
    <path id="STROKE_6a13ce47-eb5d-4515-bc87-5c95183a42d3" opacity="1.000" fill="none" stroke="#000000" stroke-width="1.600" stroke-opacity="1.000" stroke-linecap="round" stroke-linejoin="round" d="M 124.467 763.445 Q 124.453 763.445 124.258 763.146 Q 124.277 763.486 124.346 763.709 Q 124.415 763.932 124.447 763.866 Q 124.479 763.800 124.455 763.961 Q 124.430 764.122 127.336 765.475 Q 130.242 766.829 132.940 768.610 Q 133.343 768.879 131.645 769.179 Q 129.947 769.479 128.569 770.218 Q 127.190 770.957 126.511 771.606 Q 125.831 772.255 125.426 772.906 "></path>
    <path id="STROKE_2626af10-5e11-42b3-8c6f-1daf6fc9eb09" opacity="1.000" fill="none" stroke="#000000" stroke-width="1.600" stroke-opacity="1.000" stroke-linecap="round" stroke-linejoin="round" d="M 11.039 645.917 Q 11.024 645.932 10.965 646.021 Q 10.731 646.627 11.068 648.532 Q 11.404 650.437 11.846 653.489 Q 12.288 656.542 12.537 658.121 Q 12.786 659.700 12.963 660.539 Q 13.140 661.378 13.230 661.639 Q 13.320 661.901 13.460 663.739 Q 13.599 665.578 13.898 667.388 Q 14.196 669.198 14.469 670.656 Q 14.742 672.115 14.915 672.850 Q 15.088 673.585 16.035 677.013 Q 16.981 680.440 18.231 683.990 Q 19.481 687.540 20.281 689.419 Q 21.081 691.297 21.523 692.482 Q 21.966 693.667 22.518 695.500 Q 23.069 697.333 24.202 699.401 Q 25.334 701.469 26.005 702.665 Q 26.677 703.862 26.962 704.341 Q 27.247 704.820 27.414 705.136 Q 27.582 705.451 27.784 705.790 Q 27.986 706.129 28.127 706.293 Q 28.269 706.457 30.702 710.534 Q 30.865 710.430 31.043 710.326 Q 31.007 710.489 32.169 712.462 Q 33.331 714.435 34.002 715.419 Q 34.673 716.404 35.055 716.801 Q 35.438 717.199 36.566 718.525 Q 37.694 719.851 38.860 721.599 Q 40.026 723.347 41.122 724.660 Q 42.218 725.972 42.763 726.643 Q 43.309 727.314 45.114 729.330 Q 46.919 731.346 48.085 732.387 Q 49.251 733.428 49.548 733.700 Q 49.846 733.972 50.253 734.335 Q 50.660 734.699 51.245 735.207 Q 51.830 735.716 52.128 736.014 Q 52.426 736.313 52.745 736.578 Q 53.064 736.842 53.228 736.970 Q 53.392 737.097 53.546 737.223 Q 53.700 737.350 53.887 737.503 Q 54.074 737.655 54.234 737.780 Q 54.395 737.904 54.614 738.076 Q 54.833 738.248 55.145 738.518 Q 55.457 738.787 55.713 739.033 Q 55.968 739.279 56.049 739.366 Q 56.130 739.454 56.130 739.459 Q 56.131 739.464 56.270 739.608 Q 56.409 739.752 56.538 739.880 Q 56.667 740.008 56.712 740.063 Q 56.758 740.119 56.939 740.346 Q 57.120 740.573 57.178 740.638 Q 57.236 740.703 57.250 740.694 Q 57.265 740.686 57.320 740.825 Q 57.375 740.964 58.606 741.892 Q 59.836 742.821 60.857 743.576 Q 61.878 744.332 62.762 744.872 Q 63.645 745.413 64.376 745.891 Q 65.107 746.369 65.247 746.549 Q 65.387 746.729 67.444 748.030 Q 69.502 749.331 70.624 749.916 Q 71.746 750.500 72.226 750.886 Q 72.707 751.271 72.787 751.334 Q 72.867 751.397 73.685 751.851 Q 74.503 752.305 75.074 752.583 Q 75.645 752.861 76.247 753.155 Q 76.849 753.449 77.247 753.640 Q 77.645 753.830 78.569 754.200 Q 79.494 754.570 80.289 754.988 Q 81.083 755.406 81.519 755.669 Q 81.955 755.932 82.328 756.102 Q 82.701 756.272 82.918 756.372 Q 83.135 756.472 83.319 756.546 Q 83.502 756.620 83.633 756.678 Q 83.763 756.737 83.761 756.730 Q 83.759 756.723 84.887 757.082 Q 86.015 757.442 88.016 758.338 Q 90.017 759.234 90.956 759.667 Q 91.894 760.100 92.674 760.382 Q 93.453 760.665 94.394 760.983 Q 95.334 761.300 95.765 761.488 Q 96.196 761.675 96.406 761.761 Q 96.616 761.847 96.689 761.868 Q 96.762 761.889 96.872 761.944 Q 96.982 762.000 97.812 762.341 Q 98.643 762.682 99.185 762.845 Q 99.728 763.008 100.607 763.307 Q 101.487 763.605 101.740 763.764 Q 101.993 763.923 102.797 764.204 Q 103.600 764.485 104.336 764.703 Q 105.072 764.921 105.916 765.026 Q 106.760 765.131 107.789 765.223 Q 108.818 765.314 109.251 765.284 Q 109.684 765.254 110.331 765.431 Q 110.979 765.609 111.400 765.843 Q 111.822 766.077 111.924 766.102 Q 112.027 766.127 112.199 766.183 Q 112.370 766.239 112.533 766.296 Q 112.696 766.354 112.677 766.355 Q 112.659 766.356 112.670 766.350 Q 112.682 766.345 113.093 766.655 "></path>
    <path id="STROKE_4feb4245-cbb1-4994-bbac-9e3aff4610ba" opacity="1.000" fill="none" stroke="#000000" stroke-width="1.600" stroke-opacity="1.000" stroke-linecap="round" stroke-linejoin="round" d="M 103.744 743.518 L 103.764 743.501 Q 103.744 743.952 103.735 743.967 Q 103.681 744.541 103.602 746.352 Q 103.523 748.163 104.641 751.729 Q 104.587 752.001 104.052 751.842 Q 103.516 751.683 104.009 749.422 Q 104.502 747.160 105.037 745.517 Q 105.573 743.875 106.205 742.228 Q 106.837 740.582 107.911 739.247 Q 108.986 737.912 110.295 737.115 "></path>
    <path id="STROKE_5f752af5-dc1a-4695-9b64-223d4521fa91" opacity="1.000" fill="none" stroke="#000000" stroke-width="1.600" stroke-opacity="1.000" stroke-linecap="round" stroke-linejoin="round" d="M 113.911 746.719 Q 113.508 746.503 113.084 748.423 Q 112.659 750.342 112.773 751.567 Q 112.887 752.792 113.705 753.823 Q 112.952 753.962 113.186 751.550 Q 113.421 749.138 113.599 747.701 Q 113.776 746.263 113.884 745.557 Q 113.991 744.852 114.551 744.282 Q 115.111 743.713 115.413 743.588 Q 115.716 743.463 115.954 743.419 Q 116.193 743.376 116.267 743.365 Q 116.340 743.353 116.300 743.310 Q 116.261 743.266 116.556 743.260 Q 116.852 743.255 116.921 743.389 Q 116.991 743.524 117.163 743.726 Q 117.336 743.929 117.519 744.224 Q 117.702 744.520 117.702 744.558 Q 117.702 744.596 118.678 746.112 Q 119.653 747.627 120.486 748.556 Q 121.318 749.484 122.062 749.995 Q 122.807 750.505 123.723 750.810 "></path>
    <path id="STROKE_bd7951bb-f8ad-40ef-90d2-49575ad31d32" opacity="1.000" fill="none" stroke="#000000" stroke-width="1.600" stroke-opacity="1.000" stroke-linecap="round" stroke-linejoin="round" d="M 114.267 751.047 Q 114.547 750.972 118.832 749.150 "></path>
    <path id="STROKE_7f52a53a-cbc4-40fe-8bfa-93653ea90997" opacity="1.000" fill="none" stroke="#000000" stroke-width="1.600" stroke-opacity="1.000" stroke-linecap="round" stroke-linejoin="round" d="M 127.873 742.065 Q 127.782 741.636 127.781 741.289 Q 127.780 740.943 128.306 740.452 Q 128.833 739.961 129.129 739.827 Q 129.425 739.694 129.692 739.727 Q 129.959 739.761 130.150 739.862 Q 130.341 739.963 130.489 740.121 Q 130.636 740.279 130.776 740.445 Q 130.917 740.610 131.013 740.770 Q 131.110 740.929 131.170 741.009 Q 131.230 741.089 131.291 741.243 Q 131.352 741.397 131.548 741.834 Q 131.743 742.272 132.120 742.705 Q 132.496 743.138 133.397 742.678 Q 134.298 742.217 134.603 741.686 Q 134.907 741.154 135.931 740.405 Q 136.954 739.656 137.724 739.206 Q 138.493 738.756 139.700 738.419 "></path>
    <path id="STROKE_fba9167f-673d-4914-898e-27b68dac08f1" opacity="1.000" fill="none" stroke="#000000" stroke-width="1.600" stroke-opacity="1.000" stroke-linecap="round" stroke-linejoin="round" d="M 134.009 747.845 Q 133.816 747.785 133.250 747.571 Q 133.877 746.797 133.789 746.854 Q 133.701 746.911 134.643 746.350 Q 135.585 745.789 136.323 745.595 Q 137.060 745.400 137.878 745.384 Q 138.695 745.367 139.620 747.757 Q 139.649 748.109 142.308 745.266 "></path>
    <path id="STROKE_1670438b-1095-489d-9cd7-bb6000b065ed" opacity="1.000" fill="none" stroke="#000000" stroke-width="1.600" stroke-opacity="1.000" stroke-linecap="round" stroke-linejoin="round" d="M 148.889 743.340 Q 148.788 743.348 148.591 743.475 Q 149.474 744.154 151.438 743.440 Q 153.402 742.725 154.434 741.898 Q 155.466 741.070 156.186 740.256 Q 156.906 739.442 156.356 738.559 Q 155.806 737.676 154.534 737.269 Q 153.263 736.861 152.042 736.958 Q 150.822 737.055 150.093 737.454 Q 149.364 737.854 148.702 738.681 Q 148.039 739.508 148.800 741.650 "></path>
    <path id="STROKE_109f8854-4795-4476-8787-3fb5a4ffddc5" opacity="1.000" fill="none" stroke="#000000" stroke-width="1.600" stroke-opacity="1.000" stroke-linecap="round" stroke-linejoin="round" d="M 24.688 639.264 L 24.638 639.289 Q 24.363 639.978 24.138 642.533 Q 23.913 645.087 24.617 647.665 Q 24.403 647.174 24.770 645.045 Q 25.138 642.916 25.811 641.079 Q 26.483 639.241 28.625 636.922 Q 30.767 634.603 33.610 632.831 "></path>
    <path id="STROKE_865f669d-ed77-476c-b69d-78f54aa0d224" opacity="1.000" fill="none" stroke="#000000" stroke-width="1.600" stroke-opacity="1.000" stroke-linecap="round" stroke-linejoin="round" d="M 37.108 644.600 Q 36.870 645.344 36.883 645.360 Q 36.897 645.377 36.885 645.412 Q 36.874 645.446 36.517 646.935 Q 36.161 648.424 37.204 651.715 Q 37.657 651.248 37.551 648.732 Q 37.444 646.217 37.645 644.113 Q 37.845 642.009 38.181 640.868 Q 38.517 639.728 38.680 639.366 Q 38.843 639.005 39.277 638.739 Q 39.712 638.474 39.923 638.528 Q 40.135 638.582 40.091 638.598 Q 40.048 638.614 40.244 638.521 Q 40.440 638.428 41.558 640.572 Q 42.677 642.715 43.271 644.024 Q 43.865 645.332 44.508 646.175 Q 45.151 647.017 45.940 647.539 Q 46.729 648.061 47.957 647.475 "></path>
    <path id="STROKE_ca53ed49-6359-44a8-b36b-1e8657f5bad9" opacity="1.000" fill="none" stroke="#000000" stroke-width="1.600" stroke-opacity="1.000" stroke-linecap="round" stroke-linejoin="round" d="M 41.347 647.178 Q 41.438 647.173 40.789 647.149 Q 41.585 647.140 41.468 647.143 Q 41.673 647.248 44.934 646.586 "></path>
    <path id="STROKE_496224ac-bf0c-4b61-9cdc-f532fd719803" opacity="1.000" fill="none" stroke="#000000" stroke-width="1.600" stroke-opacity="1.000" stroke-linecap="round" stroke-linejoin="round" d="M 62.867 629.986 Q 62.788 630.271 63.028 629.442 Q 63.267 629.478 62.304 633.936 Q 61.341 638.394 57.869 643.494 Q 57.998 643.542 59.358 643.172 Q 60.718 642.803 61.837 642.818 Q 62.955 642.833 63.924 643.178 Q 64.894 643.522 65.594 644.392 "></path>
    <path id="STROKE_b9783970-6b29-4492-acd5-b0d595dc0179" opacity="1.000" fill="none" stroke="#000000" stroke-width="1.600" stroke-opacity="1.000" stroke-linecap="round" stroke-linejoin="round" d="M 74.279 636.211 Q 74.022 636.368 74.093 637.108 Q 74.164 637.848 74.762 638.915 Q 75.361 639.983 76.501 640.566 Q 77.642 641.150 78.988 641.018 Q 80.333 640.886 81.729 640.036 Q 83.125 639.187 84.074 638.093 Q 85.023 637.000 85.303 636.232 Q 85.582 635.465 85.519 634.946 Q 85.457 634.426 85.011 633.744 Q 84.566 633.062 83.628 632.327 Q 82.689 631.591 81.535 631.290 Q 80.381 630.989 79.271 631.238 Q 78.160 631.487 77.441 632.024 Q 76.722 632.561 76.192 633.288 Q 75.663 634.016 76.740 635.529 "></path>
  </g>
</svg>