<?xml version="1.0" encoding="UTF-8" standalone="yes"?>
<svg xmlns="http://www.w3.org/2000/svg" xmlns:xlink="http://www.w3.org/1999/xlink" width="206.353pt" height="168.529pt" version="1.1" viewBox="220.295 631.134 206.353 168.529">
  <!--
	Exported with Concepts: Smarter Sketching
	Version: 2024.8.7 on Microsoft Windows NT 10.0.22631.0
	https://concepts.app/
	-->
  <title>Drawing 3</title>
  <desc>Drawing exported from Concepts: Smarter Sketching</desc>
  <defs></defs>
  <g id="Pen" opacity="1.000">
    <path id="STROKE_31945d53-4c9c-461e-ac0f-18b25e827d4e" opacity="1.000" fill="none" stroke="#000000" stroke-width="1.600" stroke-opacity="1.000" stroke-linecap="round" stroke-linejoin="round" d="M 256.000 640.000 L 256.000 743.071 "></path>
    <path id="STROKE_d3be2267-11a9-4230-a996-d28bbb162994" opacity="1.000" fill="none" stroke="#000000" stroke-width="1.600" stroke-opacity="1.000" stroke-linecap="round" stroke-linejoin="round" d="M 272.545 768.000 L 368.000 768.000 L 384.000 768.000 "></path>
    <path id="STROKE_1d90caf1-5006-4790-8e54-ece9a8766b5c" opacity="1.000" fill="none" stroke="#000000" stroke-width="1.600" stroke-opacity="1.000" stroke-linecap="round" stroke-linejoin="round" d="M 308.231 777.793 Q 308.305 777.288 308.305 777.437 Q 308.295 777.608 308.498 776.620 Q 308.791 776.356 307.588 779.701 Q 306.385 783.047 305.666 785.365 Q 304.947 787.683 304.866 789.200 Q 304.785 790.716 304.963 792.318 "></path>
    <circle id="STROKE_5dd54504-1c9b-4985-beba-c0751a330a63" opacity="1.000" fill="#000000" stroke="#000000" stroke-width="0.1" stroke-opacity="1.000" fill-opacity="1.000" cx="302.290" cy="785.189" r="0.800"></circle>
    <path id="STROKE_941beda5-5640-4586-a89a-6d6df2a38a7c" opacity="1.000" fill="none" stroke="#000000" stroke-width="1.600" stroke-opacity="1.000" stroke-linecap="round" stroke-linejoin="round" d="M 301.310 786.288 Q 301.022 785.995 301.013 786.021 Q 300.641 785.832 300.701 785.887 Q 300.833 785.891 299.914 785.768 Q 299.436 785.553 311.171 785.516 "></path>
    <path id="STROKE_26bb1ccc-97b3-4470-8b37-86c8efa20e8c" opacity="1.000" fill="none" stroke="#000000" stroke-width="1.600" stroke-opacity="1.000" stroke-linecap="round" stroke-linejoin="round" d="M 307.132 787.714 Q 306.897 787.680 305.904 788.718 Q 304.912 789.757 304.251 790.695 Q 303.591 791.633 303.340 792.236 Q 303.090 792.839 303.369 793.896 Q 303.648 794.954 305.142 795.450 Q 306.635 795.946 308.279 795.966 Q 309.924 795.986 312.159 795.566 Q 314.394 795.146 318.804 793.803 "></path>
    <path id="STROKE_64b14daf-45ed-4cfe-9b51-eda9c1104666" opacity="1.000" fill="none" stroke="#000000" stroke-width="1.600" stroke-opacity="1.000" stroke-linecap="round" stroke-linejoin="round" d="M 223.968 696.915 Q 223.972 696.905 223.946 696.867 Q 223.919 696.830 224.035 697.085 Q 224.150 697.340 224.366 697.722 Q 224.582 698.103 224.950 698.595 Q 225.319 699.087 225.404 699.328 Q 225.488 699.570 227.680 702.682 Q 229.872 705.793 235.730 710.459 "></path>
    <path id="STROKE_e47d702b-e0a9-492a-bd24-edf06d3806bd" opacity="1.000" fill="none" stroke="#000000" stroke-width="1.600" stroke-opacity="1.000" stroke-linecap="round" stroke-linejoin="round" d="M 233.888 697.242 Q 234.057 697.068 234.245 696.915 Q 234.440 696.203 234.408 696.336 Q 234.475 695.907 234.453 695.935 L 234.423 695.905 Q 234.171 696.474 233.489 698.241 Q 232.808 700.009 231.499 702.827 Q 230.190 705.646 228.793 708.318 Q 227.397 710.989 225.631 713.459 "></path>
    <path id="STROKE_187de909-c28a-45fb-90f5-a087943af05a" opacity="1.000" fill="none" stroke="#000000" stroke-width="1.600" stroke-opacity="1.000" stroke-linecap="round" stroke-linejoin="round" d="M 238.997 712.449 Q 238.967 712.449 238.923 712.509 Q 238.733 713.166 238.043 716.162 Q 237.353 719.159 237.824 722.652 Q 237.833 723.130 238.948 720.070 Q 240.063 717.009 241.232 713.764 Q 242.400 710.518 243.601 707.801 Q 243.466 707.650 243.996 708.083 Q 244.526 708.515 245.171 710.688 Q 245.816 712.861 246.019 715.166 Q 246.223 717.471 246.453 718.832 Q 246.682 720.193 246.913 721.095 Q 247.144 721.996 248.798 722.904 "></path>
    <path id="STROKE_cc1c1465-2f2f-4d55-b8c4-9eff4c27afad" opacity="1.000" fill="none" stroke="#000000" stroke-width="1.600" stroke-opacity="1.000" stroke-linecap="round" stroke-linejoin="round" d="M 241.492 720.053 Q 241.334 719.947 241.269 719.934 Q 240.626 719.869 245.204 719.845 "></path>
    <path id="STROKE_46baacee-3e8c-4a97-a7e7-307f6bb475a4" opacity="1.000" fill="none" stroke="#000000" stroke-width="1.600" stroke-opacity="1.000" stroke-linecap="round" stroke-linejoin="round" d="M 254.620 638.105 Q 254.305 638.347 254.352 638.343 Q 254.146 638.269 252.311 640.555 Q 250.477 642.842 248.501 645.887 Q 248.868 646.163 249.985 644.346 Q 251.102 642.530 257.085 634.823 Q 257.223 634.848 257.487 636.145 Q 257.751 637.442 258.503 638.919 Q 259.254 640.396 259.925 641.145 Q 260.595 641.894 261.162 642.369 Q 261.729 642.844 262.443 643.472 Q 263.158 644.101 263.797 644.848 "></path>
    <path id="STROKE_1f00cdea-1d2b-4cee-80e6-12a783280f1b" opacity="1.000" fill="none" stroke="#000000" stroke-width="1.600" stroke-opacity="1.000" stroke-linecap="round" stroke-linejoin="round" d="M 378.563 763.507 Q 378.504 763.522 378.445 763.566 Q 378.708 763.671 378.801 763.670 Q 380.034 764.169 381.868 765.554 Q 383.702 766.939 388.187 768.244 Q 388.724 768.686 386.890 769.807 Q 385.055 770.928 384.056 771.678 Q 383.057 772.427 382.531 773.375 Q 382.005 774.323 382.425 775.655 "></path>
    <path id="STROKE_29c83d32-eb4c-4656-97ca-6f74d9f0f362" opacity="1.000" fill="none" stroke="#000000" stroke-width="1.600" stroke-opacity="1.000" stroke-linecap="round" stroke-linejoin="round" d="M 256.000 743.613 L 256.000 744.686 "></path>
    <path id="STROKE_2863cc2f-1206-4b1a-9572-3d1fcddac10a" opacity="1.000" fill="none" stroke="#000000" stroke-width="1.600" stroke-opacity="1.000" stroke-linecap="round" stroke-linejoin="round" d="M 256.000 746.593 L 256.000 752.000 L 256.000 768.000 "></path>
    <path id="STROKE_1cc99ccd-5f60-468e-897c-c8b53129861f" opacity="1.000" fill="none" stroke="#000000" stroke-width="1.600" stroke-opacity="1.000" stroke-linecap="round" stroke-linejoin="round" d="M 256.000 768.000 L 272.000 768.000 L 272.000 768.000 "></path>
    <path id="STROKE_5a526947-a4b2-4327-b842-58cea5b46102" opacity="1.000" fill="none" stroke="#000000" stroke-width="1.600" stroke-opacity="1.000" stroke-linecap="round" stroke-linejoin="round" d="M 256.000 743.583 L 256.000 752.000 "></path>
    <path id="STROKE_2ed83f04-cf10-4026-bad3-ff2b809386d8" opacity="1.000" fill="none" stroke="#000000" stroke-width="1.600" stroke-opacity="1.000" stroke-linecap="round" stroke-linejoin="round" d="M 257.453 768.520 L 257.106 768.478 Q 257.006 768.301 257.082 768.084 Q 257.159 767.868 257.368 767.613 Q 257.577 767.358 257.590 767.321 Q 257.603 767.284 257.624 767.239 Q 257.645 767.195 257.665 767.133 Q 257.685 767.072 258.066 766.073 Q 258.448 765.074 258.897 764.200 Q 259.346 763.327 259.504 762.723 Q 259.663 762.120 260.595 760.711 Q 261.527 759.301 262.075 758.634 Q 262.622 757.968 263.034 757.317 Q 263.446 756.666 263.943 755.962 Q 264.440 755.258 264.475 755.209 Q 264.510 755.159 264.556 755.064 Q 264.602 754.968 266.571 752.703 Q 268.540 750.438 269.747 748.999 Q 270.953 747.559 272.145 745.922 Q 273.338 744.286 274.041 743.430 Q 274.745 742.574 275.607 741.574 Q 276.468 740.575 277.663 738.985 Q 278.858 737.395 280.000 736.208 Q 281.141 735.021 282.350 733.557 Q 283.559 732.092 284.891 730.498 Q 286.223 728.903 287.774 727.438 Q 289.324 725.973 290.050 725.082 Q 290.777 724.192 292.195 722.507 Q 293.613 720.822 294.625 719.750 Q 295.637 718.677 296.165 718.153 Q 296.693 717.629 297.046 717.299 Q 297.398 716.969 297.591 716.790 Q 297.784 716.611 298.043 716.356 Q 298.301 716.102 298.616 715.819 Q 298.930 715.536 299.787 714.794 Q 300.643 714.053 302.636 712.686 Q 304.629 711.320 307.120 709.309 Q 309.610 707.298 310.679 706.334 Q 311.749 705.369 313.206 704.162 Q 314.663 702.955 315.468 702.241 Q 316.274 701.527 317.782 700.342 Q 319.290 699.157 320.095 698.591 Q 320.900 698.025 321.436 697.621 Q 321.971 697.218 322.277 696.956 Q 322.583 696.695 323.559 695.936 Q 324.536 695.176 325.105 694.849 Q 325.674 694.522 326.653 693.841 Q 327.631 693.161 329.925 691.977 Q 332.218 690.793 333.544 690.390 Q 334.869 689.987 336.745 689.240 Q 338.620 688.494 339.854 687.915 Q 341.087 687.337 341.822 687.023 Q 342.558 686.708 342.618 686.689 Q 342.679 686.670 345.677 685.397 Q 348.674 684.125 350.220 683.444 Q 351.766 682.763 352.736 682.315 Q 353.707 681.866 355.677 680.919 Q 357.646 679.972 358.765 679.729 Q 359.883 679.486 362.711 678.690 Q 365.540 677.893 369.876 677.311 "></path>
    <circle id="STROKE_36a5b1d9-05aa-4470-a398-44db3e0580a1" opacity="1.000" fill="#000000" stroke="#000000" stroke-width="0.1" stroke-opacity="1.000" fill-opacity="1.000" cx="368.501" cy="676.711" r="0.800"></circle>
    <path id="STROKE_8edb89ac-88e9-4c50-b254-63c74e41a7c8" opacity="1.000" fill="none" stroke="#000000" stroke-width="1.600" stroke-opacity="1.000" stroke-linecap="round" stroke-linejoin="round" d="M 367.881 677.390 L 367.871 677.425 L 367.832 677.407 L 367.790 677.414 Q 367.748 677.412 367.671 677.435 Q 367.920 677.275 368.142 677.133 Q 368.365 676.990 368.367 676.999 Q 368.369 677.007 368.293 676.844 Q 368.218 676.681 379.626 675.619 "></path>
    <path id="STROKE_5e4961ee-c097-4ccb-ae9f-a48b3fb01a0d" opacity="1.000" fill="none" stroke="#000000" stroke-width="1.600" stroke-opacity="1.000" stroke-linecap="round" stroke-linejoin="round" d="M 372.721 653.693 Q 372.539 653.884 372.473 655.902 Q 372.406 657.919 371.924 660.213 Q 371.881 659.960 372.940 657.448 Q 373.999 654.935 374.971 653.214 Q 375.944 651.492 377.881 650.068 Q 379.819 648.643 383.463 647.702 "></path>
    <path id="STROKE_db2edf78-56e4-48c9-9169-a7d0027dad88" opacity="1.000" fill="none" stroke="#000000" stroke-width="1.600" stroke-opacity="1.000" stroke-linecap="round" stroke-linejoin="round" d="M 381.220 661.513 Q 381.219 661.515 380.717 662.611 Q 380.214 663.708 380.030 665.364 Q 380.054 665.441 380.699 663.664 Q 381.344 661.887 382.316 659.717 Q 383.288 657.547 384.012 655.769 Q 384.737 653.990 385.439 653.201 Q 385.686 653.543 385.666 653.550 Q 385.695 653.622 385.809 653.947 Q 385.923 654.273 386.021 654.564 Q 386.118 654.854 386.210 655.143 Q 386.303 655.432 386.388 655.639 Q 386.474 655.846 386.640 656.528 Q 386.806 657.209 387.356 659.095 Q 387.906 660.981 388.612 662.389 Q 389.318 663.796 390.604 664.700 "></path>
    <path id="STROKE_feb213f7-f25f-4c31-a30f-5d351d7f027a" opacity="1.000" fill="none" stroke="#000000" stroke-width="1.600" stroke-opacity="1.000" stroke-linecap="round" stroke-linejoin="round" d="M 383.286 661.985 Q 383.171 661.938 382.783 661.592 Q 384.311 660.952 383.956 661.034 Q 383.601 661.116 386.414 660.923 "></path>
    <path id="STROKE_d4a1caed-9a23-4992-9518-5c479c6f1d27" opacity="1.000" fill="none" stroke="#000000" stroke-width="1.600" stroke-opacity="1.000" stroke-linecap="round" stroke-linejoin="round" d="M 394.086 654.932 Q 394.350 654.584 394.398 654.545 Q 394.447 654.507 395.026 653.778 Q 395.605 653.049 396.386 652.843 Q 397.168 652.637 397.859 652.750 Q 398.549 652.863 398.815 654.017 Q 399.082 655.172 399.385 655.890 Q 399.687 656.608 400.465 656.888 Q 401.242 657.168 402.269 656.875 Q 403.295 656.582 404.303 655.602 Q 405.311 654.622 407.248 653.988 "></path>
    <path id="STROKE_3e3457c1-3903-45ad-ac60-92839b7f0140" opacity="1.000" fill="none" stroke="#000000" stroke-width="1.600" stroke-opacity="1.000" stroke-linecap="round" stroke-linejoin="round" d="M 399.428 660.687 Q 399.308 660.633 398.915 660.583 Q 398.911 660.604 399.662 660.490 Q 400.413 660.375 401.143 660.487 Q 401.874 660.598 402.097 660.711 Q 402.320 660.823 402.609 661.049 Q 402.897 661.275 402.977 661.961 Q 403.057 662.648 402.958 663.346 Q 403.427 663.464 404.677 662.762 Q 405.927 662.060 407.986 660.982 "></path>
    <path id="STROKE_d75139fc-4075-4968-a0db-822f7cff53ae" opacity="1.000" fill="none" stroke="#000000" stroke-width="1.600" stroke-opacity="1.000" stroke-linecap="round" stroke-linejoin="round" d="M 416.573 657.323 Q 416.496 657.002 416.339 657.722 Q 416.181 658.443 416.114 658.894 Q 416.047 659.345 416.225 659.756 Q 416.403 660.167 417.152 660.089 Q 417.902 660.012 419.021 659.415 Q 420.140 658.819 421.137 658.187 Q 422.134 657.555 422.527 656.750 Q 422.920 655.945 422.956 655.187 Q 422.992 654.429 422.636 653.844 Q 422.280 653.259 421.938 653.059 Q 421.596 652.859 420.727 652.559 Q 419.858 652.260 418.306 652.622 Q 416.754 652.984 416.015 653.492 Q 415.276 654.001 414.734 654.355 Q 414.193 654.710 414.508 656.585 "></path>
    <path id="STROKE_7252fadc-de99-44aa-8022-ab960a35b11e" opacity="1.000" fill="none" stroke="#000000" stroke-width="1.600" stroke-opacity="1.000" stroke-linecap="round" stroke-linejoin="round" d="M 271.883 754.797 Q 271.836 754.748 271.509 756.463 Q 271.182 758.178 271.228 759.622 Q 271.275 761.065 271.456 761.982 Q 271.637 762.899 272.024 763.574 Q 272.120 763.554 272.392 762.171 Q 272.664 760.787 273.437 758.766 Q 274.210 756.746 275.176 755.035 Q 276.142 753.324 277.719 751.965 Q 279.296 750.606 281.415 749.899 "></path>
    <path id="STROKE_ce5b83b7-b56f-4352-a0bd-fa0245777423" opacity="1.000" fill="none" stroke="#000000" stroke-width="1.600" stroke-opacity="1.000" stroke-linecap="round" stroke-linejoin="round" d="M 283.511 761.939 Q 283.403 762.321 283.412 762.249 Q 283.623 761.686 282.901 763.619 Q 282.918 763.675 283.579 761.474 Q 284.240 759.272 285.952 756.588 Q 286.578 756.764 286.418 756.744 Q 286.522 756.844 286.745 757.097 Q 286.967 757.349 286.979 757.345 Q 286.992 757.340 286.938 757.324 Q 286.884 757.307 288.033 758.816 Q 289.182 760.326 290.406 761.207 Q 291.631 762.089 293.190 762.116 "></path>
    <path id="STROKE_8ef6054e-5a8b-4c04-8f8d-17d63f07bc33" opacity="1.000" fill="none" stroke="#000000" stroke-width="1.600" stroke-opacity="1.000" stroke-linecap="round" stroke-linejoin="round" d="M 287.553 761.910 Q 287.406 761.896 286.701 761.871 Q 286.740 761.883 287.003 761.899 Q 287.267 761.914 287.389 761.904 Q 287.511 761.894 287.597 761.918 Q 287.682 761.942 290.150 761.644 "></path>
    <circle id="STROKE_88c20504-18c2-4d08-82ad-21aea285ebd2" opacity="1.000" fill="#000000" stroke="#000000" stroke-width="0.1" stroke-opacity="1.000" fill-opacity="1.000" cx="306.735" cy="749.131" r="0.800"></circle>
    <circle id="STROKE_b3bb4987-030b-4c40-b862-1057a2cabde2" opacity="1.000" fill="#000000" stroke="#000000" stroke-width="0.1" stroke-opacity="1.000" fill-opacity="1.000" cx="307.089" cy="749.249" r="0.800"></circle>
    <path id="STROKE_a305c183-0d29-4694-9a8e-ce19d82d8251" opacity="1.000" fill="none" stroke="#000000" stroke-width="1.600" stroke-opacity="1.000" stroke-linecap="round" stroke-linejoin="round" d="M 303.873 747.213 Q 304.260 746.965 304.238 746.990 Q 304.529 746.847 305.141 746.658 Q 305.144 746.762 304.950 747.068 Q 304.757 747.374 304.833 747.282 Q 304.910 747.190 304.661 747.528 Q 304.413 747.867 302.482 749.772 Q 300.551 751.677 299.742 752.510 Q 298.934 753.343 298.484 753.847 Q 298.035 754.351 297.947 754.661 Q 297.860 754.971 297.967 755.289 Q 298.075 755.606 298.074 755.599 Q 298.073 755.592 298.054 755.562 Q 298.034 755.533 298.116 755.661 Q 298.198 755.790 298.657 756.282 Q 298.264 755.945 306.735 754.650 "></path>
    <path id="STROKE_00c244b6-c70f-4446-9084-3f6a24d75d81" opacity="1.000" fill="none" stroke="#000000" stroke-width="1.600" stroke-opacity="1.000" stroke-linecap="round" stroke-linejoin="round" d="M 312.873 748.600 Q 312.764 748.396 312.323 748.790 Q 311.883 749.183 311.582 749.701 Q 311.282 750.219 311.361 751.148 Q 311.440 752.076 312.145 753.017 Q 312.850 753.957 313.452 754.423 Q 314.055 754.889 314.910 754.896 Q 315.766 754.902 316.506 754.424 Q 317.247 753.946 317.558 753.560 Q 317.869 753.174 318.203 752.638 Q 318.538 752.102 318.601 751.759 Q 318.664 751.416 318.762 750.936 Q 318.861 750.456 318.513 749.405 Q 318.166 748.353 317.585 747.534 Q 317.005 746.716 315.928 746.199 Q 314.851 745.681 313.602 745.655 Q 312.353 745.629 311.266 745.978 Q 310.178 746.327 309.535 746.753 Q 308.892 747.179 308.740 747.566 Q 308.587 747.952 308.661 748.149 Q 308.736 748.346 308.831 748.405 Q 308.926 748.464 309.258 748.599 Q 309.589 748.733 310.011 748.836 "></path>
  </g>
</svg>