<?xml version="1.0" encoding="UTF-8" standalone="yes"?>
<svg xmlns="http://www.w3.org/2000/svg" xmlns:xlink="http://www.w3.org/1999/xlink" width="243.480pt" height="143.516pt" version="1.1" viewBox="173.643 734.602 243.480 143.516">
  <!--
	Exported with Concepts: Smarter Sketching
	Version: 2024.9.7 on Microsoft Windows NT 10.0.22631.0
	https://concepts.app/
	-->
  <title>Drawing</title>
  <desc>Drawing exported from Concepts: Smarter Sketching</desc>
  <defs></defs>
  <g id="Pen" opacity="1.000">
    <path id="STROKE_d2be40f3-8019-48b3-9454-a9ef504ddc08" opacity="1.000" fill="none" stroke="#000000" stroke-width="1.600" stroke-opacity="1.000" stroke-linecap="round" stroke-linejoin="round" d="M 200.000 761.253 L 200.000 768.000 "></path>
    <path id="STROKE_2f7ae185-fa1e-4677-97ca-8ca1fd2b31b1" opacity="1.000" fill="none" stroke="#000000" stroke-width="1.600" stroke-opacity="1.000" stroke-linecap="round" stroke-linejoin="round" d="M 200.000 768.000 L 200.000 858.000 L 200.000 868.000 "></path>
    <path id="STROKE_af08f78e-e767-45e6-aeba-cff9e29642ac" opacity="1.000" fill="none" stroke="#000000" stroke-width="1.600" stroke-opacity="1.000" stroke-linecap="round" stroke-linejoin="round" d="M 200.000 868.000 L 353.221 868.000 "></path>
    <path id="STROKE_df69a24d-4476-4eab-8dbf-135dbed0461d" opacity="1.000" fill="none" stroke="#000000" stroke-width="1.600" stroke-opacity="1.000" stroke-linecap="round" stroke-linejoin="round" d="M 220.000 808.000 L 240.000 808.000 L 245.388 808.000 "></path>
    <path id="STROKE_cca2a8d8-baad-49ef-be2d-bf398d05b0c7" opacity="1.000" fill="none" stroke="#000000" stroke-width="1.600" stroke-opacity="1.000" stroke-linecap="round" stroke-linejoin="round" d="M 244.756 808.000 L 250.000 808.000 "></path>
    <path id="STROKE_b3939dd7-4a78-4587-846a-fa18ccf424bd" opacity="1.000" fill="none" stroke="#000000" stroke-width="1.600" stroke-opacity="1.000" stroke-linecap="round" stroke-linejoin="round" d="M 310.000 848.000 L 330.000 848.000 L 335.084 848.000 "></path>
    <path id="STROKE_2b2331fc-e4f0-484f-b95a-8c6cc1c9e664" opacity="1.000" fill="none" stroke="#000000" stroke-width="1.600" stroke-opacity="1.000" stroke-linecap="round" stroke-linejoin="round" d="M 334.531 848.000 L 340.000 848.000 "></path>
    <path id="STROKE_3a6eb7f1-16bd-49e5-9678-cda7e8357cad" opacity="1.000" fill="none" stroke="#000000" stroke-width="1.600" stroke-opacity="1.000" stroke-linecap="round" stroke-linejoin="round" d="M 254.997 811.922 Q 255.747 812.614 255.490 812.419 Q 255.233 812.224 256.037 812.897 Q 256.841 813.570 258.499 814.081 "></path>
    <path id="STROKE_21a7089f-8f4b-48d5-b7e9-fc31e70b158f" opacity="1.000" fill="none" stroke="#000000" stroke-width="1.600" stroke-opacity="1.000" stroke-linecap="round" stroke-linejoin="round" d="M 266.055 820.215 Q 266.397 820.737 266.052 820.432 Q 265.707 820.127 269.109 823.322 "></path>
    <path id="STROKE_f6d9b9a8-4529-4c23-b1d7-f926bd4ed5ef" opacity="1.000" fill="none" stroke="#000000" stroke-width="1.600" stroke-opacity="1.000" stroke-linecap="round" stroke-linejoin="round" d="M 277.796 829.008 Q 277.683 828.872 277.903 829.030 Q 278.122 829.187 279.165 830.034 Q 280.207 830.881 281.062 831.264 Q 281.917 831.647 282.799 832.062 "></path>
    <path id="STROKE_acc4b801-66ef-457f-bfe3-cfc9a1116e52" opacity="1.000" fill="none" stroke="#000000" stroke-width="1.600" stroke-opacity="1.000" stroke-linecap="round" stroke-linejoin="round" d="M 291.118 837.828 Q 291.190 837.873 291.543 838.356 Q 291.895 838.839 292.475 839.382 Q 293.055 839.925 293.594 840.355 Q 294.133 840.786 294.546 841.156 Q 294.959 841.526 296.173 842.250 "></path>
    <path id="STROKE_fcf83042-a727-4720-9577-890c5377d8d5" opacity="1.000" fill="none" stroke="#000000" stroke-width="1.600" stroke-opacity="1.000" stroke-linecap="round" stroke-linejoin="round" d="M 302.438 844.594 Q 303.109 845.205 302.987 845.082 Q 302.864 844.958 302.958 845.034 Q 303.053 845.110 303.130 845.198 Q 303.206 845.286 303.958 845.771 Q 304.710 846.257 305.940 846.805 "></path>
    <path id="STROKE_1c7f27b8-c19f-42ac-a0f8-6b03bc291c1f" opacity="1.000" fill="none" stroke="#000000" stroke-width="1.600" stroke-opacity="1.000" stroke-linecap="round" stroke-linejoin="round" d="M 360.094 808.684 Q 359.890 808.844 358.984 810.775 Q 358.079 812.707 356.948 814.713 Q 356.883 814.713 356.804 814.674 Q 356.486 814.678 357.541 812.944 Q 358.597 811.210 361.095 808.368 Q 361.378 808.802 361.564 809.182 Q 361.750 809.562 362.563 811.144 Q 363.376 812.726 365.939 815.345 "></path>
    <path id="STROKE_52c0d920-9963-4374-a0b3-65ecf63e5145" opacity="1.000" fill="none" stroke="#000000" stroke-width="1.600" stroke-opacity="1.000" stroke-linecap="round" stroke-linejoin="round" d="M 359.805 811.159 Q 359.984 811.584 359.936 811.475 Q 359.817 811.925 360.080 815.527 Q 360.343 819.129 360.407 821.587 Q 360.472 824.044 360.429 825.352 Q 360.387 826.659 360.189 828.204 Q 359.992 829.748 359.967 831.578 Q 359.941 833.407 359.612 835.353 Q 359.283 837.299 359.278 838.165 Q 359.273 839.031 359.084 840.266 Q 358.895 841.501 358.839 842.307 Q 358.782 843.114 358.813 843.388 Q 358.843 843.662 358.901 843.846 Q 358.959 844.031 358.943 843.994 Q 358.927 843.957 358.941 844.075 Q 358.956 844.192 358.883 846.937 "></path>
    <path id="STROKE_1e6bcb8e-8626-4cc4-9121-f7c16c64aeb7" opacity="1.000" fill="none" stroke="#000000" stroke-width="1.600" stroke-opacity="1.000" stroke-linecap="round" stroke-linejoin="round" d="M 355.040 844.014 Q 355.212 844.482 355.269 844.554 Q 355.327 844.625 355.643 845.086 Q 355.960 845.546 356.457 846.464 Q 356.954 847.381 358.594 849.859 Q 359.315 849.379 360.858 846.621 "></path>
    <path id="STROKE_b080be0a-9ec7-448c-bd12-3f005c827a98" opacity="1.000" fill="none" stroke="#000000" stroke-width="1.600" stroke-opacity="1.000" stroke-linecap="round" stroke-linejoin="round" d="M 360.937 847.700 Q 360.926 847.442 363.938 842.751 "></path>
    <path id="STROKE_8ae6594c-61bf-49c8-9855-f4420ff97c03" opacity="1.000" fill="none" stroke="#000000" stroke-width="1.600" stroke-opacity="1.000" stroke-linecap="round" stroke-linejoin="round" d="M 376.680 822.242 Q 376.489 822.137 375.653 824.683 Q 374.817 827.230 374.408 828.791 Q 373.999 830.351 373.836 831.051 Q 373.673 831.750 373.254 833.521 Q 372.834 835.292 372.837 837.156 Q 373.399 837.404 373.739 837.366 Q 374.080 837.328 374.127 837.394 Q 374.174 837.460 375.812 837.068 Q 377.449 836.676 378.745 836.200 Q 380.040 835.724 380.656 835.499 Q 381.271 835.274 381.926 834.825 Q 382.582 834.377 382.314 833.046 Q 382.046 831.714 381.229 830.452 Q 380.412 829.191 379.452 828.042 Q 378.492 826.893 377.754 825.470 Q 377.017 824.047 377.049 822.374 "></path>
    <path id="STROKE_847bcf57-f79e-4de4-a0be-10b9871f1339" opacity="1.000" fill="none" stroke="#000000" stroke-width="1.600" stroke-opacity="1.000" stroke-linecap="round" stroke-linejoin="round" d="M 385.026 820.847 Q 384.235 821.090 384.712 823.926 Q 385.189 826.763 385.297 828.335 Q 385.404 829.907 385.642 830.753 Q 385.880 831.598 386.153 831.857 Q 386.425 832.116 387.189 831.973 Q 387.953 831.830 389.342 831.146 Q 390.731 830.461 391.941 829.254 "></path>
    <path id="STROKE_bb0c4713-4ab1-400a-a46d-8ecb32f2fccd" opacity="1.000" fill="none" stroke="#000000" stroke-width="1.600" stroke-opacity="1.000" stroke-linecap="round" stroke-linejoin="round" d="M 385.368 826.349 Q 385.419 826.280 386.913 825.365 Q 388.408 824.449 389.037 823.962 "></path>
    <path id="STROKE_f493032e-dda8-471f-b3a7-9c66963eed01" opacity="1.000" fill="none" stroke="#000000" stroke-width="1.600" stroke-opacity="1.000" stroke-linecap="round" stroke-linejoin="round" d="M 384.315 820.084 Q 384.282 819.938 388.370 817.240 "></path>
    <path id="STROKE_109abe7f-1f2f-4e75-bd22-64aa5df74e87" opacity="1.000" fill="none" stroke="#000000" stroke-width="0.800" stroke-opacity="1.000" stroke-linecap="round" stroke-linejoin="round" d="M 395.909 825.687 Q 396.107 825.782 396.033 825.819 Q 395.889 825.630 396.332 826.180 Q 396.776 826.729 397.439 827.794 Q 398.101 828.859 399.066 830.104 Q 399.070 830.091 399.021 829.868 Q 398.972 829.645 398.594 829.237 Q 398.216 828.829 397.667 828.685 Q 397.118 828.541 396.696 829.005 Q 396.275 829.470 395.976 830.076 Q 395.678 830.683 395.578 831.335 Q 395.479 831.987 395.622 832.576 Q 395.766 833.166 396.196 833.418 Q 396.626 833.670 396.956 833.682 Q 397.286 833.695 397.525 833.665 Q 397.763 833.636 398.213 833.444 Q 398.662 833.253 399.285 832.487 Q 399.908 831.722 400.497 830.741 "></path>
    <path id="STROKE_b1af8d45-8524-478c-a989-7e660d626dd7" opacity="1.000" fill="none" stroke="#000000" stroke-width="0.800" stroke-opacity="1.000" stroke-linecap="round" stroke-linejoin="round" d="M 402.348 827.180 Q 402.962 826.956 402.768 827.001 Q 403.066 826.702 403.361 826.287 Q 403.656 825.873 403.983 825.228 Q 404.311 824.583 404.407 824.140 Q 404.503 823.697 404.354 823.448 Q 404.204 823.198 403.983 823.129 Q 403.762 823.059 403.337 823.304 Q 402.912 823.549 402.656 823.811 Q 402.400 824.073 401.961 824.774 Q 401.522 825.476 401.446 826.373 Q 401.371 827.269 401.593 827.872 Q 401.816 828.475 402.179 828.869 Q 402.541 829.263 403.104 829.462 Q 403.667 829.661 404.294 829.640 Q 404.921 829.618 405.641 828.986 Q 406.360 828.354 406.790 827.822 Q 407.219 827.291 408.149 825.018 "></path>
    <path id="STROKE_8b50f224-2dfb-4efc-8028-81a5859cb617" opacity="1.000" fill="none" stroke="#000000" stroke-width="0.800" stroke-opacity="1.000" stroke-linecap="round" stroke-linejoin="round" d="M 410.221 818.037 Q 410.247 818.038 409.696 818.702 Q 409.146 819.366 408.752 820.156 Q 408.358 820.946 408.266 821.379 Q 408.174 821.811 408.202 822.073 Q 408.230 822.335 408.294 822.472 Q 408.359 822.609 408.624 822.755 Q 408.889 822.900 409.204 822.971 Q 409.520 823.041 409.998 823.061 Q 410.477 823.081 411.120 823.172 Q 411.762 823.263 412.259 823.502 Q 412.755 823.740 413.170 824.186 Q 413.585 824.633 413.715 824.905 Q 413.845 825.178 413.768 825.569 Q 413.690 825.961 413.467 826.352 Q 413.245 826.743 411.687 827.264 "></path>
    <path id="STROKE_9cf14838-940e-4d05-b4d3-6c5dc69f8baa" opacity="1.000" fill="none" stroke="#000000" stroke-width="1.600" stroke-opacity="1.000" stroke-linecap="round" stroke-linejoin="round" d="M 197.316 758.436 Q 197.058 758.463 196.645 758.773 Q 196.232 759.084 196.045 759.321 Q 195.857 759.558 195.670 759.769 Q 195.482 759.981 195.558 759.947 Q 195.633 759.913 195.239 760.242 Q 194.846 760.571 193.164 767.018 Q 193.378 767.146 195.115 763.341 Q 196.852 759.537 198.904 755.706 Q 198.919 755.696 199.503 756.886 Q 200.086 758.076 201.075 759.153 Q 202.064 760.231 203.324 761.055 Q 204.583 761.878 205.842 762.337 "></path>
    <path id="STROKE_742c6cb2-28ac-4fd0-ab73-d9865c843fa6" opacity="1.000" fill="none" stroke="#000000" stroke-width="1.600" stroke-opacity="1.000" stroke-linecap="round" stroke-linejoin="round" d="M 349.559 862.530 Q 349.546 862.520 349.531 862.499 Q 349.516 862.478 349.671 862.647 Q 349.826 862.816 350.599 863.229 Q 351.373 863.642 352.079 863.929 Q 352.786 864.217 353.207 864.445 Q 353.629 864.673 353.987 864.815 Q 354.346 864.958 354.686 865.159 Q 355.025 865.360 356.251 866.164 Q 357.476 866.968 360.091 867.072 Q 359.223 867.282 359.492 867.211 Q 359.437 867.049 358.359 867.797 Q 357.281 868.545 356.245 869.079 Q 355.210 869.613 354.070 871.055 Q 352.931 872.498 352.178 874.121 "></path>
    <path id="STROKE_25407d85-1753-4e21-9725-6f1bb2146c2b" opacity="1.000" fill="none" stroke="#000000" stroke-width="1.600" stroke-opacity="1.000" stroke-linecap="round" stroke-linejoin="round" d="M 177.867 799.533 Q 177.776 799.358 177.709 799.201 Q 177.642 799.044 177.644 798.921 Q 178.004 799.181 178.856 803.702 Q 179.709 808.223 179.998 811.073 Q 180.288 813.924 181.211 815.847 Q 181.168 815.979 181.837 815.647 Q 182.506 815.314 184.024 813.246 Q 185.541 811.179 186.756 808.784 "></path>
    <path id="STROKE_b488ebb9-7c23-4974-a971-074b7836c870" opacity="1.000" fill="none" stroke="#000000" stroke-width="1.600" stroke-opacity="1.000" stroke-linecap="round" stroke-linejoin="round" d="M 179.065 806.889 Q 179.305 806.299 180.912 805.135 Q 182.519 803.971 184.722 801.345 "></path>
    <path id="STROKE_6e50b8a9-022f-4b90-b4a3-f5591ae4cf63" opacity="1.000" fill="none" stroke="#000000" stroke-width="1.600" stroke-opacity="1.000" stroke-linecap="round" stroke-linejoin="round" d="M 178.703 798.057 Q 178.824 797.834 179.004 797.593 Q 179.184 797.353 179.202 797.336 Q 179.219 797.320 179.337 797.068 Q 179.454 796.816 181.629 793.961 "></path>
    <path id="STROKE_c7c72f01-c4f2-4123-912c-38f43fdccab1" opacity="1.000" fill="none" stroke="#000000" stroke-width="1.600" stroke-opacity="1.000" stroke-linecap="round" stroke-linejoin="round" d="M 220.860 779.166 Q 221.192 778.675 222.281 788.472 "></path>
    <path id="STROKE_132445b2-ddf8-4231-909f-a1387aa2bf33" opacity="1.000" fill="none" stroke="#000000" stroke-width="1.600" stroke-opacity="1.000" stroke-linecap="round" stroke-linejoin="round" d="M 221.166 788.751 Q 221.194 788.806 221.222 788.862 Q 221.542 788.933 226.280 787.905 Q 231.019 786.877 234.112 786.373 Q 237.205 785.869 238.645 785.723 Q 240.084 785.578 242.163 785.688 Q 244.242 785.798 248.918 785.519 "></path>
    <path id="STROKE_35ce90f7-64f4-4835-8840-51adaa4cdd1f" opacity="1.000" fill="none" stroke="#000000" stroke-width="1.600" stroke-opacity="1.000" stroke-linecap="round" stroke-linejoin="round" d="M 224.621 775.878 Q 224.749 776.191 227.762 776.438 Q 230.775 776.684 232.379 776.519 Q 233.982 776.353 235.857 776.245 Q 237.731 776.136 241.510 775.585 Q 245.289 775.034 247.642 774.592 Q 249.994 774.151 252.512 773.872 "></path>
    <path id="STROKE_48fa64d9-5f89-4386-8a0a-c4e50dffcd85" opacity="1.000" fill="none" stroke="#000000" stroke-width="1.600" stroke-opacity="1.000" stroke-linecap="round" stroke-linejoin="round" d="M 252.512 775.460 Q 252.509 775.421 252.512 783.513 "></path>
    <path id="STROKE_c3e3016b-45cb-4bf5-882b-c30cc160f4f6" opacity="1.000" fill="none" stroke="#000000" stroke-width="1.600" stroke-opacity="1.000" stroke-linecap="round" stroke-linejoin="round" d="M 231.866 746.929 Q 231.367 747.350 231.329 749.214 Q 231.292 751.077 231.484 752.408 Q 231.676 753.738 231.994 754.540 Q 232.312 755.343 233.036 755.732 Q 233.759 756.121 234.336 756.428 Q 234.913 756.735 236.172 756.282 Q 237.431 755.829 238.927 754.477 Q 240.423 753.125 241.271 752.064 Q 242.119 751.003 242.827 749.528 Q 243.534 748.053 243.728 746.908 Q 243.921 745.762 243.749 744.579 Q 243.576 743.396 242.981 742.322 Q 242.387 741.248 241.643 740.450 Q 240.899 739.653 239.569 739.098 Q 238.239 738.543 236.658 738.611 Q 235.077 738.680 232.841 741.496 "></path>
    <path id="STROKE_d971985b-d46d-4c66-a268-6771f04e71ba" opacity="1.000" fill="none" stroke="#000000" stroke-width="1.600" stroke-opacity="1.000" stroke-linecap="round" stroke-linejoin="round" d="M 310.049 823.244 Q 310.385 823.142 310.656 825.396 Q 310.927 827.650 311.721 835.782 "></path>
    <path id="STROKE_1bf7ddbf-b39f-4a7c-97c2-7f444b75a7ce" opacity="1.000" fill="none" stroke="#000000" stroke-width="1.600" stroke-opacity="1.000" stroke-linecap="round" stroke-linejoin="round" d="M 310.133 835.532 Q 310.215 835.487 310.073 835.578 Q 309.932 835.670 311.639 835.178 Q 313.346 834.686 314.935 834.357 Q 316.524 834.027 317.841 834.118 Q 319.158 834.209 320.166 834.368 Q 321.175 834.526 324.092 834.932 Q 327.010 835.337 332.841 834.863 "></path>
    <path id="STROKE_6fae22fb-b13c-4f06-8897-5bf13a68a545" opacity="1.000" fill="none" stroke="#000000" stroke-width="1.600" stroke-opacity="1.000" stroke-linecap="round" stroke-linejoin="round" d="M 310.885 823.049 Q 310.885 823.091 310.885 823.133 Q 311.219 823.557 314.872 823.763 Q 318.524 823.969 320.610 824.123 Q 322.696 824.277 323.742 824.435 Q 324.788 824.592 327.530 824.815 Q 330.272 825.038 335.098 824.192 "></path>
    <path id="STROKE_89be71fc-ac1d-4044-b474-1f6f9b98b5e7" opacity="1.000" fill="none" stroke="#000000" stroke-width="1.600" stroke-opacity="1.000" stroke-linecap="round" stroke-linejoin="round" d="M 335.014 824.665 Q 335.065 824.547 334.598 827.903 Q 334.130 831.259 333.956 835.253 "></path>
    <path id="STROKE_432920a8-273f-451f-9d62-8f5b1a78e4f7" opacity="1.000" fill="none" stroke="#000000" stroke-width="1.600" stroke-opacity="1.000" stroke-linecap="round" stroke-linejoin="round" d="M 317.433 818.424 Q 317.525 818.549 317.611 819.620 Q 317.697 820.692 317.804 821.484 Q 317.912 822.277 318.338 822.737 Q 318.764 823.197 319.291 823.396 Q 319.818 823.595 321.050 823.332 Q 322.282 823.069 323.693 821.886 Q 325.104 820.704 325.922 819.587 Q 326.740 818.470 327.120 817.628 Q 327.499 816.785 327.334 816.111 Q 327.169 815.438 326.750 814.929 Q 326.331 814.421 325.792 814.109 Q 325.252 813.797 324.712 813.637 Q 324.172 813.477 323.672 813.397 Q 323.172 813.317 322.039 813.537 Q 320.906 813.757 320.048 814.157 Q 319.190 814.557 318.575 815.554 "></path>
  </g>
</svg>