<?xml version="1.0" encoding="UTF-8" standalone="yes"?>
<svg xmlns="http://www.w3.org/2000/svg" xmlns:xlink="http://www.w3.org/1999/xlink" width="721.370pt" height="218.825pt" version="1.1" viewBox="-109.509 500.043 721.370 218.825">
  <!--
	Exported with Concepts: Smarter Sketching
	Version: 2024.10.3 on Microsoft Windows NT 10.0.22631.0
	https://concepts.app/
	-->
  <title>Drawing 5</title>
  <desc>Drawing exported from Concepts: Smarter Sketching</desc>
  <defs></defs>
  <g id="Pen" opacity="1.000">
    <path id="STROKE_30a0ad53-98ba-4d33-9002-ea54828f7317" opacity="1.000" fill="none" stroke="#000000" stroke-width="1.600" stroke-opacity="1.000" stroke-linecap="round" stroke-linejoin="round" d="M -64.000 512.000 L -64.000 688.000 L -64.000 704.000 "></path>
    <path id="STROKE_4b0d02e6-da54-408c-905a-50a9b6469f61" opacity="1.000" fill="none" stroke="#000000" stroke-width="1.600" stroke-opacity="1.000" stroke-linecap="round" stroke-linejoin="round" d="M -64.000 704.000 L 112.000 704.000 L 128.000 704.000 "></path>
    <path id="STROKE_769a93ae-5ba6-4ae1-9656-b193e673fdc5" opacity="1.000" fill="none" stroke="#000000" stroke-width="1.600" stroke-opacity="1.000" stroke-linecap="round" stroke-linejoin="round" d="M -66.240 511.814 Q -66.404 511.869 -67.185 513.438 Q -67.965 515.006 -69.950 518.929 L -69.935 518.951 Q -69.872 519.016 -68.501 515.989 Q -67.129 512.962 -62.524 508.784 Q -62.317 508.673 -62.394 509.677 Q -62.470 510.680 -62.124 511.742 Q -61.778 512.805 -60.670 513.474 Q -59.562 514.144 -56.924 514.878 "></path>
    <path id="STROKE_93a8c5d5-182f-40c0-92b4-c697832f1285" opacity="1.000" fill="none" stroke="#000000" stroke-width="1.600" stroke-opacity="1.000" stroke-linecap="round" stroke-linejoin="round" d="M 122.683 697.460 Q 122.620 697.433 122.408 697.377 Q 122.605 697.443 124.599 698.245 Q 126.593 699.047 127.860 699.807 Q 129.127 700.567 129.600 701.207 Q 130.073 701.846 130.484 702.366 Q 130.895 702.887 129.566 703.927 Q 128.238 704.967 127.313 705.709 Q 126.388 706.452 125.940 706.977 Q 125.491 707.502 124.850 709.129 "></path>
    <path id="STROKE_0623228c-0c86-45f5-bc02-307d447fcbc8" opacity="1.000" fill="none" stroke="#000000" stroke-width="1.600" stroke-opacity="1.000" stroke-linecap="round" stroke-linejoin="round" d="M -35.006 644.386 Q -35.063 644.444 -35.469 644.859 Q -35.041 644.422 -35.075 644.456 Q -34.867 644.244 -28.242 637.481 Q -21.617 630.718 -16.347 625.339 Q -11.077 619.959 -4.440 613.183 Q 2.198 606.407 5.953 602.574 Q 9.708 598.740 11.356 597.058 Q 13.003 595.376 15.342 592.989 Q 17.680 590.602 18.853 589.405 Q 20.026 588.208 20.879 587.336 Q 21.732 586.465 28.894 579.154 "></path>
    <path id="STROKE_68d7915f-d60c-425c-8ff1-3dd70118bbbf" opacity="1.000" fill="none" stroke="#000000" stroke-width="1.600" stroke-opacity="1.000" stroke-linecap="round" stroke-linejoin="round" d="M 28.259 579.230 Q 28.492 579.460 28.649 579.614 Q 28.805 579.767 28.739 579.703 L 28.770 579.733 Q 28.755 579.718 28.709 579.673 Q 28.966 579.926 29.160 580.116 Q 29.354 580.307 29.387 580.339 Q 29.421 580.372 29.336 580.289 Q 29.252 580.207 29.561 580.511 Q 29.871 580.815 30.235 581.172 Q 30.599 581.530 30.591 581.523 Q 30.583 581.515 30.876 581.803 Q 31.169 582.091 31.109 582.032 Q 31.049 581.972 31.418 582.335 Q 31.787 582.698 32.092 582.998 Q 32.397 583.297 32.366 583.267 Q 32.335 583.237 32.615 583.512 Q 32.895 583.787 33.192 584.079 Q 33.489 584.370 33.740 584.617 Q 33.991 584.864 33.986 584.859 Q 33.981 584.854 34.342 585.209 Q 34.702 585.563 34.714 585.575 Q 34.725 585.586 34.721 585.581 Q 34.716 585.577 35.101 585.955 Q 35.485 586.332 35.301 586.151 Q 35.117 585.970 35.461 586.309 Q 35.806 586.648 36.130 586.966 Q 36.454 587.285 36.465 587.296 Q 36.476 587.306 36.517 587.346 Q 36.558 587.387 36.796 587.621 Q 37.034 587.854 37.029 587.850 Q 37.024 587.845 37.062 587.883 Q 37.100 587.920 37.034 587.855 Q 36.968 587.790 37.305 588.121 Q 37.642 588.452 38.399 589.196 Q 39.156 589.940 39.485 590.263 Q 39.814 590.587 39.952 590.722 Q 40.090 590.858 40.515 591.275 Q 40.939 591.693 41.890 592.627 Q 42.841 593.562 43.186 593.901 Q 43.531 594.240 47.092 597.740 Q 50.654 601.240 54.493 605.014 Q 58.333 608.787 60.525 610.941 Q 62.717 613.096 63.896 614.254 Q 65.074 615.412 66.171 616.490 Q 67.268 617.568 68.472 618.751 Q 69.675 619.934 70.886 621.124 Q 72.097 622.314 72.635 622.843 Q 73.173 623.372 73.321 623.517 Q 73.469 623.662 74.045 624.229 Q 74.622 624.795 79.273 629.366 Q 83.924 633.937 89.770 639.683 "></path>
    <path id="STROKE_f1af1dff-b4a2-4f67-a2de-7d011d9336dd" opacity="1.000" fill="none" stroke="#000000" stroke-width="1.600" stroke-opacity="1.000" stroke-linecap="round" stroke-linejoin="round" d="M 171.318 512.000 L 171.318 688.000 L 171.318 704.000 "></path>
    <path id="STROKE_cb419ca8-724d-480d-a7dc-752b164a8ae1" opacity="1.000" fill="none" stroke="#000000" stroke-width="1.600" stroke-opacity="1.000" stroke-linecap="round" stroke-linejoin="round" d="M 171.318 704.000 L 347.318 704.000 L 363.318 704.000 "></path>
    <path id="STROKE_9c5e9738-780d-4450-9ba6-d0819893d8e2" opacity="1.000" fill="none" stroke="#000000" stroke-width="1.600" stroke-opacity="1.000" stroke-linecap="round" stroke-linejoin="round" d="M 169.078 511.814 Q 168.914 511.869 168.134 513.438 Q 167.353 515.006 165.368 518.929 L 165.383 518.951 Q 165.446 519.016 166.818 515.989 Q 168.189 512.962 172.795 508.784 Q 173.001 508.673 172.925 509.677 Q 172.848 510.680 173.194 511.742 Q 173.540 512.805 174.648 513.474 Q 175.756 514.144 178.394 514.878 "></path>
    <path id="STROKE_29a09391-fcaf-4bc6-bd68-3fc0a8d50438" opacity="1.000" fill="none" stroke="#000000" stroke-width="1.600" stroke-opacity="1.000" stroke-linecap="round" stroke-linejoin="round" d="M 358.002 697.460 Q 357.938 697.433 357.726 697.377 Q 357.923 697.443 359.917 698.245 Q 361.912 699.047 363.179 699.807 Q 364.445 700.567 364.919 701.207 Q 365.392 701.846 365.803 702.366 Q 366.213 702.887 364.885 703.927 Q 363.556 704.967 362.632 705.709 Q 361.707 706.452 361.258 706.977 Q 360.809 707.502 360.168 709.129 "></path>
    <path id="STROKE_a3d0322d-5994-4267-a5b0-adb141fa0893" opacity="1.000" fill="none" stroke="#000000" stroke-width="1.600" stroke-opacity="1.000" stroke-linecap="round" stroke-linejoin="round" d="M 267.044 582.637 Q 267.106 582.698 267.410 582.998 Q 267.715 583.297 267.684 583.267 Q 267.653 583.237 267.933 583.512 Q 268.213 583.787 268.510 584.079 Q 268.807 584.370 269.058 584.617 Q 269.310 584.864 269.304 584.859 Q 269.299 584.854 269.660 585.209 Q 270.021 585.563 270.032 585.575 Q 270.044 585.586 270.039 585.581 Q 270.035 585.577 270.419 585.955 Q 270.803 586.332 270.619 586.151 Q 270.435 585.970 270.780 586.309 Q 271.125 586.648 271.449 586.966 Q 271.773 587.285 271.784 587.296 Q 271.794 587.306 271.835 587.346 Q 271.877 587.387 272.114 587.621 Q 272.352 587.854 272.347 587.850 Q 272.343 587.845 272.381 587.883 Q 272.419 587.920 272.353 587.855 Q 272.286 587.790 272.623 588.121 Q 272.960 588.452 273.718 589.196 Q 274.475 589.940 274.803 590.263 Q 275.132 590.587 275.270 590.722 Q 275.408 590.858 275.833 591.275 Q 276.258 591.693 277.209 592.627 Q 278.160 593.562 278.504 593.901 Q 278.849 594.240 282.411 597.740 Q 285.973 601.240 289.812 605.014 Q 293.651 608.787 295.844 610.941 Q 298.036 613.096 299.214 614.254 Q 300.392 615.412 301.490 616.490 Q 302.587 617.568 303.790 618.751 Q 304.994 619.934 306.205 621.124 Q 307.416 622.314 307.954 622.843 Q 308.492 623.372 308.639 623.517 Q 308.787 623.662 309.364 624.229 Q 309.940 624.795 314.591 629.366 Q 319.242 633.937 322.017 636.665 "></path>
    <path id="STROKE_ea13c69f-4eb1-453a-a3ad-d9ec6ab24d22" opacity="1.000" fill="none" stroke="#000000" stroke-width="1.600" stroke-opacity="1.000" stroke-linecap="round" stroke-linejoin="round" d="M 218.121 576.442 Q 218.141 576.171 217.957 578.696 Q 217.773 581.220 217.625 583.261 Q 217.476 585.302 217.392 586.455 Q 217.308 587.609 217.057 591.064 Q 216.805 594.519 216.606 597.259 Q 216.407 599.998 216.323 601.140 Q 216.240 602.282 216.175 603.175 Q 216.110 604.068 216.064 604.698 Q 216.019 605.328 215.921 606.669 Q 215.823 608.009 215.729 609.303 Q 215.635 610.596 215.462 612.981 Q 215.288 615.366 215.058 618.527 Q 214.828 621.688 214.693 623.537 Q 214.558 625.386 214.441 627.001 Q 214.323 628.615 214.240 629.763 Q 214.156 630.911 214.101 631.666 Q 214.046 632.422 214.004 632.998 Q 213.962 633.574 213.853 635.081 Q 213.743 636.589 213.684 637.399 Q 213.625 638.209 213.526 639.576 Q 213.426 640.943 213.287 642.853 "></path>
    <path id="STROKE_c70b876a-87ab-4af7-aa7c-3a75389d28ad" opacity="1.000" fill="none" stroke="#000000" stroke-width="1.600" stroke-opacity="1.000" stroke-linecap="round" stroke-linejoin="round" d="M 217.988 578.272 Q 218.031 577.677 218.022 577.808 Q 218.029 577.708 218.651 569.159 Q 219.274 560.610 219.650 555.444 Q 220.026 550.279 220.181 548.140 Q 220.337 546.001 220.452 544.423 Q 220.567 542.845 220.733 540.565 Q 220.899 538.285 220.924 537.936 "></path>
    <path id="STROKE_cce970aa-e844-4a81-95f4-e882f57de8f4" opacity="1.000" fill="none" stroke="#000000" stroke-width="1.600" stroke-opacity="1.000" stroke-linecap="round" stroke-linejoin="round" d="M 220.923 538.640 Q 220.970 538.686 220.986 538.701 Q 220.970 538.686 220.453 538.185 Q 220.755 538.477 221.008 538.722 Q 221.262 538.968 221.557 539.253 Q 221.852 539.539 222.199 539.875 Q 222.547 540.211 222.543 540.208 Q 222.540 540.204 222.522 540.187 Q 222.503 540.169 222.863 540.517 Q 223.223 540.866 223.082 540.729 Q 222.941 540.593 223.372 541.010 Q 223.802 541.427 224.222 541.832 Q 224.641 542.238 224.840 542.431 Q 225.039 542.624 225.182 542.762 Q 225.326 542.901 225.277 542.853 Q 225.228 542.806 225.324 542.899 Q 225.420 542.992 226.671 544.203 Q 227.921 545.413 231.158 548.546 Q 234.394 551.678 236.038 553.269 Q 237.681 554.860 238.463 555.616 Q 239.245 556.373 239.466 556.587 Q 239.688 556.802 239.822 556.931 Q 239.956 557.061 239.914 557.021 Q 239.872 556.980 239.979 557.083 Q 240.085 557.186 240.583 557.668 Q 241.081 558.150 241.367 558.427 Q 241.653 558.704 241.796 558.843 Q 241.940 558.981 242.005 559.044 Q 242.070 559.107 242.307 559.337 Q 242.545 559.567 243.800 560.782 Q 245.054 561.996 247.805 564.658 Q 250.555 567.320 251.944 568.664 Q 253.333 570.009 254.084 570.735 Q 254.835 571.462 255.173 571.790 Q 255.511 572.117 255.675 572.275 Q 255.838 572.434 255.835 572.430 Q 255.832 572.427 255.819 572.415 Q 255.806 572.403 256.039 572.628 Q 256.272 572.853 256.433 573.009 Q 256.594 573.165 256.575 573.147 Q 256.556 573.128 256.598 573.169 Q 256.639 573.209 256.909 573.470 Q 257.179 573.732 257.182 573.734 Q 257.185 573.737 257.176 573.728 Q 257.167 573.720 257.388 573.933 Q 257.609 574.147 258.451 574.962 Q 259.293 575.778 259.773 576.242 Q 260.253 576.706 260.507 576.952 Q 260.761 577.198 261.008 577.437 Q 261.254 577.675 261.485 577.899 Q 261.716 578.123 261.861 578.263 Q 262.006 578.403 261.991 578.388 Q 261.976 578.374 261.890 578.291 Q 261.803 578.207 263.900 580.236 "></path>
    <path id="STROKE_7354b2ea-59f1-4399-b926-322b29805e95" opacity="1.000" fill="none" stroke="#000000" stroke-width="1.600" stroke-opacity="1.000" stroke-linecap="round" stroke-linejoin="round" d="M 262.953 579.320 Q 263.023 579.388 268.694 584.876 "></path>
    <path id="STROKE_1552e019-55da-4f5b-b667-ad4c3eff1da7" opacity="1.000" fill="none" stroke="#000000" stroke-width="1.600" stroke-opacity="1.000" stroke-linecap="round" stroke-linejoin="round" d="M 233.084 668.087 Q 232.883 668.646 232.933 668.554 Q 232.719 669.444 232.713 669.447 Q 232.451 670.540 230.890 675.590 Q 230.667 675.578 231.916 672.735 Q 233.164 669.893 234.308 668.296 Q 235.453 666.700 236.180 666.119 Q 236.908 665.537 237.339 665.234 Q 237.771 664.930 238.197 665.183 Q 238.624 665.436 238.285 670.208 Q 238.294 670.736 239.602 669.641 Q 240.911 668.545 241.563 667.973 Q 242.216 667.400 243.283 667.106 Q 244.349 666.812 244.838 668.584 Q 245.327 670.356 247.167 671.709 "></path>
    <path id="STROKE_f5dbe4df-b5d8-4f46-afbe-7619c8a2c94f" opacity="1.000" fill="none" stroke="#000000" stroke-width="1.600" stroke-opacity="1.000" stroke-linecap="round" stroke-linejoin="round" d="M 254.843 673.287 Q 255.013 673.781 254.997 673.720 Q 255.122 673.505 254.843 681.056 "></path>
    <path id="STROKE_7203ab8c-681a-4ff6-b952-52f12680ae2f" opacity="1.000" fill="none" stroke="#000000" stroke-width="1.600" stroke-opacity="1.000" stroke-linecap="round" stroke-linejoin="round" d="M 223.923 665.766 Q 223.920 665.877 223.933 666.592 Q 223.947 667.307 223.963 668.712 Q 223.979 670.118 223.916 673.913 Q 223.854 677.708 223.732 680.526 Q 223.611 683.344 225.471 687.277 "></path>
    <path id="STROKE_c94d5b31-49ad-4004-ad6f-7bf534cdd1e7" opacity="1.000" fill="none" stroke="#000000" stroke-width="1.600" stroke-opacity="1.000" stroke-linecap="round" stroke-linejoin="round" d="M 265.954 665.302 Q 266.140 665.976 265.771 671.516 Q 265.402 677.055 265.830 683.934 "></path>
    <path id="STROKE_53dc9d92-4e17-4503-8ad7-09c30c3421df" opacity="1.000" fill="none" stroke="#000000" stroke-width="1.600" stroke-opacity="1.000" stroke-linecap="round" stroke-linejoin="round" d="M 280.996 673.597 Q 280.853 673.536 280.995 673.525 Q 281.137 673.515 279.723 673.314 Q 279.728 673.327 279.621 672.873 Q 279.204 672.945 278.607 673.505 Q 278.451 672.605 279.238 673.119 Q 280.026 673.634 281.747 673.831 Q 283.468 674.029 284.357 674.089 Q 285.246 674.149 286.230 674.362 Q 287.215 674.575 287.661 674.778 Q 288.107 674.982 288.434 675.231 Q 288.761 675.480 288.324 676.071 Q 287.887 676.662 287.468 677.013 Q 287.048 677.365 286.860 677.578 Q 286.671 677.790 286.470 678.021 Q 286.268 678.253 286.057 678.492 Q 285.845 678.731 285.492 679.110 Q 285.139 679.489 284.266 680.358 Q 283.393 681.226 282.618 681.981 Q 281.842 682.735 281.306 684.213 "></path>
    <path id="STROKE_4efd1193-d84c-4e86-99ad-5ea6458dab37" opacity="1.000" fill="none" stroke="#000000" stroke-width="1.600" stroke-opacity="1.000" stroke-linecap="round" stroke-linejoin="round" d="M 287.032 669.914 Q 286.759 670.003 286.896 670.381 Q 287.032 670.759 287.421 671.200 Q 287.809 671.641 287.983 671.775 Q 288.157 671.909 288.302 672.042 Q 288.446 672.175 290.488 672.961 Q 292.529 673.746 293.985 674.383 Q 295.440 675.021 296.028 675.547 Q 296.616 676.073 296.762 676.715 Q 296.907 677.356 296.732 677.705 Q 296.557 678.053 296.206 678.408 Q 295.855 678.763 295.683 678.752 Q 295.512 678.741 294.612 679.100 Q 293.712 679.459 293.290 679.833 Q 292.868 680.206 292.386 680.963 "></path>
    <path id="STROKE_167b8c3a-66fb-4290-9473-e3251b963db7" opacity="1.000" fill="none" stroke="#000000" stroke-width="1.600" stroke-opacity="1.000" stroke-linecap="round" stroke-linejoin="round" d="M 307.490 675.361 Q 307.949 674.604 304.924 680.391 Q 304.840 680.689 305.919 678.790 Q 306.997 676.890 307.858 675.728 Q 308.720 674.566 309.437 674.194 Q 310.155 673.821 310.650 673.838 Q 311.144 673.856 311.197 675.154 Q 311.250 676.451 311.205 677.003 Q 311.159 677.556 311.395 678.170 Q 311.631 678.784 312.107 678.770 Q 312.583 678.756 313.966 677.864 Q 315.350 676.971 316.242 676.399 Q 317.135 675.826 318.132 675.613 Q 319.129 675.401 319.411 676.577 Q 319.693 677.753 319.826 680.694 Q 319.783 680.763 320.397 680.747 "></path>
    <path id="STROKE_757535a8-92d6-48cc-8d3d-e643a097647d" opacity="1.000" fill="none" stroke="#000000" stroke-width="1.600" stroke-opacity="1.000" stroke-linecap="round" stroke-linejoin="round" d="M 325.565 681.706 Q 325.479 681.733 325.727 681.397 Q 325.975 681.061 326.449 680.868 Q 326.923 680.675 326.971 680.702 Q 327.018 680.729 327.339 680.794 Q 327.661 680.859 327.932 681.094 Q 328.204 681.329 328.009 682.248 Q 327.814 683.167 327.106 684.128 Q 326.398 685.089 326.036 685.776 Q 325.673 686.464 326.241 686.877 Q 326.809 687.289 328.324 687.341 Q 329.840 687.392 332.096 686.503 "></path>
    <path id="STROKE_ebb59715-30cd-447b-af90-c4c5198be2d6" opacity="1.000" fill="none" stroke="#000000" stroke-width="1.600" stroke-opacity="1.000" stroke-linecap="round" stroke-linejoin="round" d="M 340.545 675.918 Q 340.102 675.633 340.214 679.966 Q 340.325 684.298 340.979 689.258 "></path>
    <path id="STROKE_a57bb217-e8f8-43b5-b18b-728c68593546" opacity="1.000" fill="none" stroke="#000000" stroke-width="1.600" stroke-opacity="1.000" stroke-linecap="round" stroke-linejoin="round" d="M 302.847 670.347 Q 302.799 670.302 302.715 670.218 Q 302.746 670.141 302.958 675.574 Q 303.171 681.006 302.166 689.722 "></path>
    <path id="STROKE_5963256c-5ab7-4617-a748-79435f172b9b" opacity="1.000" fill="none" stroke="#000000" stroke-width="1.600" stroke-opacity="1.000" stroke-linecap="round" stroke-linejoin="round" d="M 276.973 540.599 Q 276.651 540.466 275.616 544.812 Q 275.982 544.930 276.323 544.808 "></path>
    <path id="STROKE_fead711b-2f92-4aca-80a2-3299a7003e3a" opacity="1.000" fill="none" stroke="#000000" stroke-width="1.600" stroke-opacity="1.000" stroke-linecap="round" stroke-linejoin="round" d="M 279.511 543.199 Q 279.172 543.457 279.177 543.473 Q 279.158 543.523 278.444 544.309 Q 277.729 545.095 277.397 545.973 Q 277.065 546.851 277.052 547.135 Q 277.039 547.419 277.468 547.749 "></path>
    <path id="STROKE_66c22323-f7ff-4934-b176-18753d6d02c7" opacity="1.000" fill="none" stroke="#000000" stroke-width="1.600" stroke-opacity="1.000" stroke-linecap="round" stroke-linejoin="round" d="M 286.660 545.737 L 286.681 545.733 Q 286.706 546.277 286.690 546.285 Q 286.769 546.652 286.153 550.353 Q 285.537 554.053 285.596 557.993 Q 285.805 558.760 291.860 554.744 "></path>
    <path id="STROKE_cfca979b-3971-417f-ba6b-42badfdc6fe6" opacity="1.000" fill="none" stroke="#000000" stroke-width="1.600" stroke-opacity="1.000" stroke-linecap="round" stroke-linejoin="round" d="M 287.496 551.989 Q 287.068 551.987 291.241 550.472 "></path>
    <path id="STROKE_6c35abdf-b5c2-49f6-b4ff-44eb0b16de61" opacity="1.000" fill="none" stroke="#000000" stroke-width="1.600" stroke-opacity="1.000" stroke-linecap="round" stroke-linejoin="round" d="M 289.105 546.139 Q 289.320 545.744 289.352 545.756 Q 289.292 545.547 292.701 544.338 L 292.727 544.344 "></path>
    <path id="STROKE_fb75de9c-6bf3-4b51-aae5-a0505f49f234" opacity="1.000" fill="none" stroke="#000000" stroke-width="1.600" stroke-opacity="1.000" stroke-linecap="round" stroke-linejoin="round" d="M 296.812 554.651 Q 296.804 554.683 296.815 554.773 Q 297.292 554.782 297.306 554.767 Q 297.591 554.720 298.510 554.394 Q 299.429 554.069 300.175 553.444 Q 300.921 552.820 301.224 552.411 Q 301.527 552.002 301.694 551.581 Q 301.861 551.161 301.488 550.696 Q 301.114 550.231 301.113 550.236 Q 301.112 550.241 300.613 549.884 Q 300.114 549.527 298.993 549.702 Q 297.872 549.876 297.347 550.176 Q 296.823 550.476 296.506 550.696 Q 296.190 550.916 295.850 551.331 Q 295.510 551.746 295.461 552.114 Q 295.412 552.483 295.410 552.448 Q 295.407 552.414 295.544 552.719 Q 295.681 553.024 296.874 553.196 "></path>
    <path id="STROKE_fd7daa93-48c5-45b5-9966-13147788a376" opacity="1.000" fill="none" stroke="#000000" stroke-width="1.600" stroke-opacity="1.000" stroke-linecap="round" stroke-linejoin="round" d="M 300.959 550.720 Q 300.982 550.727 300.934 550.639 Q 300.886 550.551 301.248 551.586 Q 301.611 552.621 302.116 553.019 Q 302.620 553.417 303.100 553.560 Q 303.580 553.703 303.986 553.784 Q 304.393 553.865 306.623 553.103 "></path>
    <path id="STROKE_58567c4b-05eb-4ce2-82c9-841d258b2ecf" opacity="1.000" fill="none" stroke="#000000" stroke-width="1.600" stroke-opacity="1.000" stroke-linecap="round" stroke-linejoin="round" d="M 309.564 550.565 Q 309.753 550.220 308.886 553.738 Q 308.871 553.933 308.982 553.428 Q 309.092 552.923 309.748 551.624 Q 310.404 550.326 314.949 549.420 "></path>
    <path id="STROKE_1d8db9a0-1fc5-4f21-98f7-81cfbdc9ef50" opacity="1.000" fill="none" stroke="#000000" stroke-width="1.600" stroke-opacity="1.000" stroke-linecap="round" stroke-linejoin="round" d="M 319.777 546.449 Q 319.415 546.679 319.466 546.724 Q 319.399 547.436 319.145 548.866 Q 318.891 550.296 319.073 551.332 Q 319.254 552.368 319.444 552.863 Q 319.634 553.358 320.458 553.475 "></path>
    <path id="STROKE_9d6b4047-ae26-46f4-9b84-d8ca4a971328" opacity="1.000" fill="none" stroke="#000000" stroke-width="1.600" stroke-opacity="1.000" stroke-linecap="round" stroke-linejoin="round" d="M 330.425 544.623 Q 329.813 544.837 329.962 544.806 Q 329.524 545.109 327.982 548.132 Q 326.441 551.155 326.463 555.084 "></path>
    <path id="STROKE_28f0e2a5-2ac2-4687-914e-2b21b488dc4d" opacity="1.000" fill="none" stroke="#000000" stroke-width="1.600" stroke-opacity="1.000" stroke-linecap="round" stroke-linejoin="round" d="M 327.856 550.968 Q 327.805 551.015 322.572 548.684 Q 322.463 548.438 323.275 547.780 "></path>
    <path id="STROKE_355adb9d-7003-4a75-a1f0-61d59a3edc28" opacity="1.000" fill="none" stroke="#000000" stroke-width="1.600" stroke-opacity="1.000" stroke-linecap="round" stroke-linejoin="round" d="M 335.531 542.735 Q 335.426 543.209 335.371 543.332 Q 335.316 543.456 335.179 544.765 Q 335.476 544.864 336.367 544.468 "></path>
    <path id="STROKE_21ff463f-dd6e-4780-84b5-d4beb5ba92fd" opacity="1.000" fill="none" stroke="#000000" stroke-width="1.600" stroke-opacity="1.000" stroke-linecap="round" stroke-linejoin="round" d="M 340.824 541.620 Q 340.660 541.034 339.975 544.212 Q 339.779 544.162 340.545 544.499 "></path>
    <path id="STROKE_ac8f5ff8-55fb-4306-b78f-59f742486a8d" opacity="1.000" fill="none" stroke="#000000" stroke-width="1.600" stroke-opacity="1.000" stroke-linecap="round" stroke-linejoin="round" d="M 306.871 564.339 Q 306.441 564.221 304.890 574.460 "></path>
    <path id="STROKE_dcf33fbc-4243-47c7-97ee-0adb1359cb01" opacity="1.000" fill="none" stroke="#000000" stroke-width="1.600" stroke-opacity="1.000" stroke-linecap="round" stroke-linejoin="round" d="M 300.681 566.041 Q 301.147 565.468 301.049 565.620 Q 300.977 565.702 302.970 564.659 Q 304.963 563.616 306.882 563.054 Q 308.801 562.493 310.802 562.946 "></path>
    <path id="STROKE_4bcdadbf-7fd6-4370-a686-8ce475168658" opacity="1.000" fill="none" stroke="#000000" stroke-width="1.600" stroke-opacity="1.000" stroke-linecap="round" stroke-linejoin="round" d="M 318.725 563.781 Q 318.307 563.651 318.279 563.697 Q 317.720 563.947 317.811 563.948 Q 317.900 563.936 316.775 564.687 Q 315.651 565.439 314.958 565.983 Q 314.265 566.526 313.953 567.026 Q 313.640 567.527 313.670 567.798 Q 313.700 568.070 314.349 568.641 Q 314.998 569.213 315.730 569.777 Q 316.461 570.340 316.642 570.742 Q 316.823 571.143 316.877 571.949 Q 316.931 572.754 316.377 573.809 Q 315.824 574.864 314.744 575.343 Q 313.665 575.822 312.442 575.729 "></path>
    <path id="STROKE_457007e9-775f-47f6-8763-579bd78fbfd3" opacity="1.000" fill="none" stroke="#bb3e45" stroke-width="1.600" stroke-opacity="1.000" stroke-linecap="round" stroke-linejoin="round" d="M 26.581 580.062 Q 26.955 579.259 26.892 579.479 Q 27.555 578.899 27.568 578.910 Q 27.580 578.920 27.530 578.812 Q 27.479 578.703 28.648 579.081 Q 28.459 579.557 28.441 579.531 Q 28.078 579.816 28.067 579.798 Q 26.741 578.980 27.137 578.865 Q 27.534 578.751 27.550 578.627 Q 27.566 578.503 27.507 578.573 Q 27.447 578.643 27.759 578.248 Q 28.070 577.854 28.386 577.719 Q 28.702 577.585 29.033 577.686 Q 29.364 577.787 29.333 577.795 Q 29.302 577.802 29.417 577.740 Q 29.531 577.678 29.537 578.208 Q 29.542 578.737 29.382 578.979 Q 29.222 579.220 29.020 579.454 Q 28.818 579.688 28.808 579.685 Q 28.799 579.683 28.838 579.700 Q 28.877 579.716 28.068 579.758 Q 27.925 579.793 27.922 579.749 Q 27.920 579.706 27.919 579.701 Q 27.918 579.696 28.057 579.533 Q 28.197 579.371 28.655 579.010 "></path>
    <path id="STROKE_ee1588a1-4dcb-4559-93d9-8250386a8cc4" opacity="1.000" fill="none" stroke="#bb3e45" stroke-width="1.600" stroke-opacity="1.000" stroke-linecap="round" stroke-linejoin="round" d="M 220.023 540.320 Q 219.999 540.266 219.999 539.906 Q 219.999 539.547 220.364 539.256 Q 220.728 538.965 220.980 538.900 Q 221.232 538.834 221.178 538.806 Q 221.125 538.779 221.937 539.108 Q 221.737 539.834 221.700 539.717 Q 221.399 540.000 220.147 539.865 Q 218.895 539.731 219.389 539.780 Q 219.883 539.829 219.671 539.814 Q 219.330 539.475 221.184 537.978 "></path>
    <path id="STROKE_283c06ad-f3cc-4d46-b326-cf820754b579" opacity="1.000" fill="none" stroke="#bb3e45" stroke-width="1.600" stroke-opacity="1.000" stroke-linecap="round" stroke-linejoin="round" d="M 221.470 538.020 Q 221.356 538.503 221.350 538.505 Q 221.345 538.506 221.321 538.523 Q 221.297 538.540 221.292 538.552 Q 221.286 538.563 221.361 538.540 Q 221.436 538.516 220.470 539.061 Q 220.116 539.118 220.952 538.278 "></path>
    <path id="STROKE_ec29eac6-18ae-420d-a521-ebcd2ad76167" opacity="1.000" fill="none" stroke="#bb3e45" stroke-width="1.600" stroke-opacity="1.000" stroke-linecap="round" stroke-linejoin="round" d="M -36.930 644.657 L -36.896 644.644 Q -36.426 644.849 -36.468 644.829 L -36.114 645.080 L -36.029 645.183 Q -36.056 644.846 -36.038 644.829 Q -35.900 644.143 -35.900 644.271 Q -35.537 643.623 -35.573 643.661 Q -35.610 643.700 -35.134 643.509 Q -34.705 643.658 -34.887 644.166 Q -35.069 644.673 -35.276 644.829 Q -35.483 644.985 -35.645 645.033 Q -35.807 645.080 -35.928 645.071 Q -36.049 645.062 -36.008 645.168 Q -35.968 645.274 -36.622 644.436 Q -36.720 644.502 -36.576 644.312 Q -36.433 644.123 -36.174 643.878 Q -35.916 643.634 -35.921 643.653 Q -35.927 643.672 -35.866 643.575 Q -35.805 643.478 -35.522 643.538 Q -35.240 643.598 -35.348 643.489 Q -35.456 643.381 -35.374 643.452 Q -35.291 643.523 -35.157 643.957 Q -35.024 644.391 -35.158 644.477 Q -35.292 644.563 -35.268 644.534 L -35.289 644.503 "></path>
    <path id="STROKE_387d8f36-5c97-4980-a815-6e059c7600d3" opacity="1.000" fill="none" stroke="#bb3e45" stroke-width="1.600" stroke-opacity="1.000" stroke-linecap="round" stroke-linejoin="round" d="M 212.007 643.079 Q 211.756 643.211 211.747 643.208 Q 211.694 643.213 211.527 643.196 Q 210.813 643.421 213.568 641.277 Q 213.554 641.338 213.609 641.218 Q 213.664 641.098 213.606 641.586 Q 213.547 642.074 213.372 642.242 Q 213.196 642.411 212.701 642.760 Q 212.206 643.109 212.082 643.145 Q 211.959 643.181 211.572 643.153 Q 211.184 643.125 211.072 642.877 Q 210.959 642.630 211.156 642.283 Q 211.353 641.936 211.979 641.661 Q 212.604 641.387 213.338 641.315 "></path>
    <path id="STROKE_c89bba7e-d1f8-48a5-85f6-1b1b893579ee" opacity="1.000" fill="none" stroke="#000000" stroke-width="1.600" stroke-opacity="1.000" stroke-linecap="round" stroke-linejoin="round" d="M 408.627 512.999 L 408.627 688.999 L 408.627 704.999 "></path>
    <path id="STROKE_4a437234-8604-4859-926c-7a89fa23eec3" opacity="1.000" fill="none" stroke="#000000" stroke-width="1.600" stroke-opacity="1.000" stroke-linecap="round" stroke-linejoin="round" d="M 408.627 704.999 L 584.627 704.999 L 600.627 704.999 "></path>
    <path id="STROKE_20c5f265-9e07-4629-8aed-ec36bb136add" opacity="1.000" fill="none" stroke="#000000" stroke-width="1.600" stroke-opacity="1.000" stroke-linecap="round" stroke-linejoin="round" d="M 406.387 512.813 Q 406.223 512.867 405.443 514.436 Q 404.662 516.005 402.677 519.928 L 402.692 519.950 Q 402.755 520.015 404.127 516.988 Q 405.498 513.961 410.104 509.782 Q 410.310 509.672 410.234 510.675 Q 410.157 511.679 410.503 512.741 Q 410.849 513.803 411.957 514.473 Q 413.065 515.142 415.703 515.877 "></path>
    <path id="STROKE_acf0ca03-7f90-40b6-9a19-6b86fe9e5d9f" opacity="1.000" fill="none" stroke="#000000" stroke-width="1.600" stroke-opacity="1.000" stroke-linecap="round" stroke-linejoin="round" d="M 595.311 698.459 Q 595.247 698.431 595.035 698.376 Q 595.232 698.441 597.227 699.243 Q 599.221 700.045 600.488 700.805 Q 601.754 701.566 602.228 702.205 Q 602.701 702.845 603.112 703.365 Q 603.522 703.885 602.194 704.925 Q 600.865 705.965 599.941 706.708 Q 599.016 707.451 598.567 707.975 Q 598.118 708.500 597.477 710.127 "></path>
    <path id="STROKE_f3b37572-dae8-46b0-b47e-ca78b090079b" opacity="1.000" fill="none" stroke="#000000" stroke-width="1.600" stroke-opacity="1.000" stroke-linecap="round" stroke-linejoin="round" d="M 551.650 630.118 L 554.170 632.596 "></path>
    <path id="STROKE_4ee0fbd4-f0e1-4b53-ba68-d88eb6248670" opacity="1.000" fill="none" stroke="#000000" stroke-width="1.600" stroke-opacity="1.000" stroke-linecap="round" stroke-linejoin="round" d="M 448.790 639.030 Q 448.757 639.032 448.611 639.042 Q 449.094 639.009 456.079 638.538 Q 463.063 638.068 467.289 637.783 Q 471.516 637.498 479.419 636.965 Q 487.321 636.432 491.266 636.166 Q 495.211 635.901 497.708 635.732 Q 500.204 635.564 503.936 635.312 Q 507.668 635.061 510.177 634.892 Q 512.686 634.722 516.423 634.471 Q 520.160 634.219 522.216 634.080 Q 524.273 633.941 525.628 633.850 Q 526.983 633.759 528.135 633.681 Q 529.288 633.603 529.686 633.577 Q 530.084 633.550 531.250 633.471 Q 532.416 633.392 533.315 633.332 Q 534.213 633.271 535.037 633.216 Q 535.862 633.160 536.830 633.095 Q 537.799 633.030 538.936 632.953 Q 540.073 632.876 540.835 632.825 Q 541.596 632.774 542.184 632.734 Q 542.771 632.694 552.380 632.047 Q 552.345 632.049 552.109 632.065 "></path>
    <path id="STROKE_6ce479f3-33a4-4200-97de-b92f269db105" opacity="1.000" fill="none" stroke="#000000" stroke-width="1.600" stroke-opacity="1.000" stroke-linecap="round" stroke-linejoin="round" d="M 554.378 631.615 Q 554.373 631.612 554.230 631.514 Q 554.306 631.566 554.284 631.551 Q 554.263 631.537 554.425 631.647 Q 554.586 631.758 554.732 631.857 Q 554.877 631.957 554.851 631.939 Q 554.825 631.921 554.979 632.027 Q 555.134 632.133 556.113 632.803 Q 557.093 633.473 557.659 633.861 Q 558.225 634.248 558.778 634.627 Q 559.332 635.006 559.540 635.148 Q 559.747 635.290 560.159 635.572 "></path>
    <path id="STROKE_b19025ad-199f-4a79-b0e0-86ced4a4067a" opacity="1.000" fill="none" stroke="#bb3e45" stroke-width="1.600" stroke-opacity="1.000" stroke-linecap="round" stroke-linejoin="round" d="M 447.012 639.606 Q 447.029 639.602 447.078 639.245 Q 447.126 638.889 447.653 638.660 Q 448.180 638.430 448.416 638.371 Q 448.653 638.312 449.377 638.739 Q 449.341 638.964 448.941 639.408 Q 448.540 639.851 448.211 639.988 Q 447.882 640.124 447.582 640.179 Q 447.281 640.234 447.150 639.871 Q 447.018 639.509 446.977 639.186 Q 446.935 638.864 447.726 638.692 Q 447.957 639.080 447.906 639.038 Q 447.901 639.074 447.871 639.153 L 447.858 639.154 L 447.841 639.126 "></path>
    <path id="STROKE_0686d11c-9d68-4c99-bcf8-40057a707d70" opacity="1.000" fill="none" stroke="#bb3e45" stroke-width="1.600" stroke-opacity="1.000" stroke-linecap="round" stroke-linejoin="round" d="M 551.123 631.428 Q 551.304 631.168 551.946 630.849 Q 552.587 630.530 552.981 630.453 Q 553.374 630.376 553.779 630.861 Q 553.513 631.298 553.524 631.260 Q 553.536 631.223 553.499 631.251 Q 553.462 631.279 553.243 631.406 Q 553.023 631.533 552.837 631.581 Q 552.650 631.628 552.454 631.636 Q 552.257 631.645 552.157 631.658 Q 552.057 631.671 551.984 631.646 Q 551.911 631.622 551.585 631.412 Q 551.260 631.201 551.275 631.204 Q 551.290 631.207 551.305 631.200 Q 551.319 631.193 551.264 631.082 Q 551.208 630.971 551.326 630.704 Q 551.444 630.437 551.740 630.213 Q 552.037 629.989 552.495 629.922 Q 552.954 629.855 553.114 630.043 Q 553.275 630.231 553.288 630.437 Q 553.300 630.643 552.932 631.210 Q 552.563 631.777 551.267 631.808 Q 551.377 631.134 551.373 631.306 Q 551.335 630.860 552.955 630.468 "></path>
    <path id="STROKE_f26a0d52-b221-4e88-9ab0-318c0c2d27e4" opacity="1.000" fill="none" stroke="#000000" stroke-width="1.600" stroke-opacity="1.000" stroke-linecap="round" stroke-linejoin="round" d="M 560.438 635.763 Q 560.519 635.818 559.951 635.430 Q 560.028 635.482 560.337 635.694 Q 560.646 635.905 560.844 636.041 Q 561.043 636.177 561.205 636.288 Q 561.367 636.399 561.424 636.437 Q 561.480 636.476 561.454 636.458 Q 561.428 636.440 561.515 636.500 Q 561.602 636.560 561.933 636.786 Q 562.264 637.013 562.569 637.221 Q 562.874 637.430 562.839 637.406 Q 562.805 637.383 562.959 637.488 Q 563.114 637.594 563.275 637.704 Q 563.436 637.814 563.491 637.852 Q 563.546 637.890 563.724 638.012 Q 563.901 638.133 564.007 638.206 Q 564.113 638.278 564.116 638.280 Q 564.118 638.282 564.485 638.533 Q 564.852 638.784 565.147 638.986 Q 565.442 639.188 565.614 639.305 Q 565.786 639.423 566.135 639.662 Q 566.484 639.901 566.318 639.787 Q 566.152 639.673 567.213 640.399 Q 568.273 641.125 569.237 641.785 Q 570.200 642.444 570.900 642.923 Q 571.600 643.402 571.860 643.580 Q 572.121 643.759 572.324 643.898 Q 572.527 644.037 572.842 644.253 Q 573.157 644.468 573.320 644.580 Q 573.483 644.691 573.726 644.857 Q 573.969 645.023 573.997 645.043 Q 574.026 645.062 574.109 645.119 Q 574.191 645.176 574.296 645.248 Q 574.401 645.320 575.674 646.190 Q 576.946 647.061 577.599 647.508 Q 578.251 647.954 578.477 648.109 Q 578.702 648.263 578.685 648.251 Q 578.667 648.239 578.666 648.238 Q 578.664 648.237 578.916 648.409 Q 579.167 648.581 579.488 648.801 Q 579.809 649.021 579.920 649.096 Q 580.030 649.172 579.975 649.134 Q 579.919 649.096 580.192 649.283 Q 580.465 649.470 580.760 649.672 Q 581.055 649.873 581.337 650.067 Q 581.619 650.260 581.743 650.344 Q 581.866 650.429 581.830 650.404 Q 581.794 650.380 581.979 650.506 Q 582.163 650.632 582.302 650.727 Q 582.441 650.822 582.467 650.840 Q 582.493 650.858 582.438 650.820 Q 582.382 650.782 582.767 651.045 Q 583.153 651.309 583.434 651.502 Q 583.716 651.694 583.982 651.877 Q 584.249 652.060 584.418 652.175 Q 584.588 652.291 584.556 652.269 Q 584.524 652.248 584.790 652.430 Q 585.056 652.612 585.078 652.627 Q 585.101 652.642 585.147 652.674 Q 585.194 652.707 585.139 652.669 Q 585.084 652.631 585.658 653.024 Q 586.232 653.416 586.819 653.818 Q 587.406 654.220 587.777 654.474 Q 588.148 654.728 588.272 654.813 Q 588.397 654.898 588.510 654.976 Q 588.624 655.054 588.557 655.008 Q 588.490 654.962 588.615 655.048 Q 588.740 655.133 588.953 655.279 Q 589.166 655.425 589.352 655.552 Q 589.538 655.679 589.559 655.694 Q 589.580 655.708 589.525 655.671 Q 589.471 655.634 589.812 655.867 L 589.801 655.859 L 589.806 655.863 L 589.795 655.855 L 589.811 655.866 "></path>
    <path id="STROKE_9792f8ee-90bd-4314-b273-2452321ac613" opacity="1.000" fill="none" stroke="#000000" stroke-width="1.600" stroke-opacity="1.000" stroke-linecap="round" stroke-linejoin="round" d="M 322.445 637.365 Q 322.432 637.353 322.323 637.248 Q 322.703 637.616 322.582 637.499 Q 322.820 637.729 322.772 637.682 Q 323.036 637.938 323.009 637.911 Q 323.184 638.081 323.345 638.237 Q 323.506 638.393 323.527 638.413 Q 323.547 638.433 323.543 638.429 Q 323.539 638.425 323.711 638.592 Q 323.883 638.758 324.067 638.936 Q 324.251 639.115 324.279 639.141 Q 324.307 639.168 324.272 639.134 Q 324.237 639.101 324.347 639.207 Q 324.457 639.313 324.639 639.489 Q 324.820 639.665 324.825 639.670 Q 324.829 639.674 324.864 639.707 Q 324.898 639.740 324.880 639.723 Q 324.862 639.706 325.052 639.889 Q 325.242 640.073 325.359 640.186 Q 325.476 640.300 325.646 640.464 Q 325.816 640.629 325.705 640.521 Q 325.593 640.413 325.892 640.703 Q 326.191 640.992 326.415 641.209 Q 326.640 641.427 326.619 641.407 Q 326.598 641.386 326.602 641.390 Q 326.606 641.394 326.719 641.503 Q 326.831 641.612 327.113 641.885 Q 327.394 642.157 327.593 642.350 Q 327.792 642.542 327.887 642.635 Q 327.983 642.727 327.987 642.731 Q 327.991 642.735 327.968 642.713 Q 327.945 642.691 330.245 644.917 Q 332.544 647.143 333.815 648.374 Q 335.086 649.604 335.658 650.158 Q 336.230 650.712 336.525 650.997 Q 336.820 651.283 336.863 651.324 Q 336.906 651.366 336.895 651.356 Q 336.884 651.345 336.881 651.342 Q 336.879 651.340 336.942 651.401 Q 337.005 651.461 337.194 651.645 Q 337.384 651.829 337.334 651.781 Q 337.284 651.732 337.308 651.755 Q 337.331 651.778 337.376 651.821 Q 337.421 651.865 337.594 652.032 Q 337.766 652.199 337.765 652.198 Q 337.764 652.197 337.742 652.176 Q 337.721 652.155 337.768 652.201 Q 337.815 652.246 337.773 652.206 Q 337.731 652.165 337.961 652.387 Q 338.191 652.610 338.183 652.602 Q 338.175 652.594 338.154 652.574 Q 338.133 652.554 338.145 652.566 Q 338.158 652.578 338.398 652.811 Q 338.639 653.044 338.623 653.028 Q 338.607 653.013 338.650 653.054 Q 338.692 653.096 338.640 653.045 Q 338.588 652.995 338.767 653.168 Q 338.946 653.341 339.021 653.414 Q 339.096 653.487 339.057 653.449 Q 339.018 653.411 339.042 653.435 Q 339.067 653.458 339.290 653.675 Q 339.514 653.891 339.510 653.887 Q 339.505 653.882 339.501 653.879 Q 339.498 653.875 339.523 653.900 Q 339.548 653.924 339.764 654.133 Q 339.980 654.343 339.974 654.336 Q 339.967 654.330 339.944 654.308 Q 339.922 654.286 340.183 654.539 Q 340.445 654.792 340.466 654.813 Q 340.487 654.834 340.460 654.807 Q 340.432 654.780 340.494 654.840 Q 340.556 654.899 340.552 654.896 Q 340.549 654.893 340.728 655.066 Q 340.906 655.239 341.096 655.423 Q 341.285 655.606 341.351 655.670 Q 341.417 655.734 341.417 655.733 Q 341.677 655.985 341.608 655.918 Q 341.937 656.237 341.871 656.173 Q 342.109 656.404 342.073 656.369 Q 342.364 656.651 342.311 656.599 Q 342.502 656.784 343.397 657.651 L 343.386 657.639 L 343.398 657.651 "></path>
    <path id="STROKE_f139ba1f-3239-4fb6-aecd-c3c8dd8efcca" opacity="1.000" fill="none" stroke="#000000" stroke-width="1.600" stroke-opacity="1.000" stroke-linecap="round" stroke-linejoin="round" d="M 89.817 639.386 Q 89.738 639.311 89.634 639.211 L 89.648 639.224 L 89.634 639.211 L 89.648 639.224 Q 89.635 639.212 89.622 639.199 L 89.636 639.212 Q 89.622 639.199 89.609 639.186 Q 89.357 638.945 90.306 639.856 Q 91.255 640.768 92.014 641.497 Q 92.774 642.227 93.136 642.575 Q 93.499 642.924 93.797 643.210 Q 94.094 643.496 94.092 643.493 Q 94.089 643.491 94.076 643.478 Q 94.062 643.464 94.102 643.503 Q 94.142 643.541 94.092 643.493 Q 94.041 643.445 94.267 643.661 Q 94.493 643.878 94.571 643.954 Q 94.650 644.029 94.631 644.011 Q 94.613 643.994 94.592 643.974 Q 94.571 643.954 94.903 644.273 Q 95.235 644.592 95.210 644.567 Q 95.184 644.543 95.229 644.586 Q 95.275 644.630 95.496 644.842 Q 95.717 645.054 95.883 645.214 Q 96.049 645.373 96.258 645.575 Q 96.468 645.776 96.561 645.865 Q 96.653 645.954 96.615 645.917 Q 96.576 645.880 96.588 645.891 Q 96.600 645.902 96.858 646.151 Q 97.116 646.399 97.285 646.561 Q 97.454 646.723 97.579 646.843 Q 97.704 646.964 97.732 646.990 Q 97.759 647.016 97.690 646.950 Q 97.620 646.883 99.492 648.681 Q 101.363 650.478 102.381 651.457 Q 103.400 652.435 103.925 652.939 Q 104.450 653.444 104.733 653.716 Q 105.016 653.987 105.042 654.012 Q 105.068 654.038 105.316 654.276 Q 105.565 654.515 105.600 654.549 Q 105.635 654.583 105.649 654.596 Q 105.663 654.609 105.638 654.585 Q 105.612 654.560 105.861 654.799 Q 106.110 655.038 106.372 655.290 Q 106.634 655.542 106.926 655.823 Q 107.219 656.104 107.209 656.094 Q 107.199 656.085 107.168 656.054 Q 107.136 656.024 107.424 656.300 Q 107.711 656.577 107.703 656.569 Q 107.695 656.561 107.721 656.586 Q 107.747 656.611 107.980 656.835 Q 108.214 657.060 108.197 657.043 Q 108.439 657.276 108.426 657.263 Q 108.639 657.468 108.852 657.673 Q 109.066 657.878 109.094 657.905 Q 109.122 657.932 109.219 658.025 Q 109.317 658.119 109.660 658.449 "></path>
    <path id="STROKE_e827fb9f-e07e-4863-90c3-aa937c2c84e5" opacity="1.000" fill="none" stroke="#bb434e" stroke-width="1.600" stroke-opacity="1.000" stroke-linecap="round" stroke-linejoin="round" d="M 108.965 658.825 L 109.045 658.695 Q 109.196 658.535 109.667 658.345 Q 109.770 658.498 109.771 658.426 Q 109.772 658.355 109.801 658.518 Q 109.831 658.681 109.835 659.036 Q 109.839 659.392 109.832 659.411 Q 109.825 659.430 109.755 659.784 Q 109.685 660.139 109.679 660.112 Q 109.656 660.140 109.579 660.211 Q 109.418 660.232 109.470 659.622 Q 109.522 659.013 109.766 658.736 Q 110.010 658.460 110.025 658.454 Q 110.039 658.449 110.261 658.356 Q 110.482 658.264 110.586 658.239 Q 110.689 658.214 110.596 658.207 Q 110.502 658.201 111.091 658.285 Q 111.079 658.585 111.107 658.513 Q 111.136 658.440 111.092 658.587 Q 111.049 658.735 110.844 659.088 Q 110.639 659.441 110.595 659.501 Q 110.552 659.561 110.493 659.646 Q 110.434 659.732 110.165 660.024 Q 109.899 660.654 110.589 658.697 Q 110.616 658.697 110.726 658.903 "></path>
    <path id="STROKE_35e54425-e36f-45c2-ae7b-79fd6f90195b" opacity="1.000" fill="none" stroke="#bb434e" stroke-width="1.600" stroke-opacity="1.000" stroke-linecap="round" stroke-linejoin="round" d="M 342.007 658.825 Q 342.278 658.401 342.246 658.459 Q 342.327 658.354 342.507 658.187 Q 342.688 658.020 342.741 657.997 Q 342.795 657.974 342.735 657.983 Q 342.676 657.992 342.784 657.903 Q 342.892 657.814 342.896 657.824 Q 342.900 657.833 342.896 657.818 Q 342.892 657.802 343.398 657.896 Q 343.904 657.990 343.751 658.058 Q 343.530 658.667 343.547 658.533 Q 343.269 658.874 343.253 658.875 Q 343.121 658.977 342.418 659.178 Q 342.225 659.004 342.319 658.622 Q 342.413 658.241 342.580 658.017 Q 342.747 657.792 342.738 657.849 Q 342.730 657.907 342.691 657.820 Q 342.652 657.733 343.129 657.597 Q 343.606 657.460 343.728 657.443 Q 343.849 657.426 344.000 657.445 Q 344.151 657.465 344.636 657.642 "></path>
    <path id="STROKE_485c4b37-06bd-4def-a0af-412c6d162e0e" opacity="1.000" fill="none" stroke="#bb434e" stroke-width="1.600" stroke-opacity="1.000" stroke-linecap="round" stroke-linejoin="round" d="M 588.430 657.379 Q 588.459 657.301 588.426 657.322 Q 588.393 657.342 588.795 657.116 Q 589.196 656.889 589.217 656.906 Q 589.637 656.825 589.647 656.833 Q 589.704 656.828 589.953 656.823 Q 590.202 656.818 590.207 656.826 Q 590.212 656.834 590.277 656.920 Q 590.636 656.964 589.760 657.302 Q 588.884 657.641 588.298 657.915 Q 587.712 658.189 586.909 657.753 Q 587.018 657.268 587.017 657.348 Q 587.004 657.385 587.531 656.781 Q 588.059 656.178 589.797 656.853 "></path>
    <path id="STROKE_88ed9ccd-1afa-4768-a480-fa5775313ef8" opacity="1.000" fill="none" stroke="#000000" stroke-width="1.600" stroke-opacity="1.000" stroke-linecap="round" stroke-linejoin="round" d="M 473.657 559.060 Q 473.664 559.052 473.752 559.028 Q 473.967 559.865 473.884 559.705 Q 473.779 560.338 472.316 563.818 "></path>
    <path id="STROKE_d1ca59f0-594e-4681-bb69-4fdfc203dea7" opacity="1.000" fill="none" stroke="#000000" stroke-width="1.600" stroke-opacity="1.000" stroke-linecap="round" stroke-linejoin="round" d="M 475.707 562.767 Q 475.505 563.027 475.520 563.031 Q 475.407 563.211 475.261 563.449 Q 475.115 563.688 475.111 563.699 Q 475.107 563.711 475.002 563.799 Q 474.897 563.887 474.603 565.317 "></path>
    <path id="STROKE_60234a4f-2f1e-4446-8981-c6b81e7fbac6" opacity="1.000" fill="none" stroke="#000000" stroke-width="1.600" stroke-opacity="1.000" stroke-linecap="round" stroke-linejoin="round" d="M 481.254 564.318 L 481.259 564.292 Q 481.336 564.114 480.868 566.462 Q 480.401 568.811 480.188 570.100 Q 479.974 571.389 479.933 572.119 Q 479.892 572.849 480.113 573.265 Q 480.335 573.681 480.784 573.801 Q 481.232 573.922 481.754 573.791 Q 482.275 573.661 486.328 572.231 "></path>
    <path id="STROKE_db46e152-3302-4947-a714-33d928a9b455" opacity="1.000" fill="none" stroke="#000000" stroke-width="1.600" stroke-opacity="1.000" stroke-linecap="round" stroke-linejoin="round" d="M 490.639 571.232 Q 490.573 571.353 491.755 571.222 Q 492.936 571.091 493.552 570.662 Q 494.168 570.234 494.743 569.749 Q 495.318 569.264 495.205 568.891 Q 495.091 568.519 494.484 568.129 Q 493.876 567.739 493.425 567.606 Q 492.973 567.472 492.077 567.571 Q 491.181 567.671 490.560 568.137 Q 489.939 568.604 489.798 569.996 "></path>
    <path id="STROKE_a63803a8-ffcb-4fdc-85cf-bccb2732c311" opacity="1.000" fill="none" stroke="#000000" stroke-width="1.600" stroke-opacity="1.000" stroke-linecap="round" stroke-linejoin="round" d="M 494.740 568.734 Q 494.737 568.736 494.622 568.900 Q 494.508 569.064 494.568 569.055 Q 494.629 569.047 494.591 569.016 Q 494.553 568.985 494.723 569.798 Q 494.894 570.612 496.009 571.132 Q 497.124 571.653 499.866 571.205 "></path>
    <path id="STROKE_0a6b7de5-2717-4e64-87ff-32c69f336f05" opacity="1.000" fill="none" stroke="#000000" stroke-width="1.600" stroke-opacity="1.000" stroke-linecap="round" stroke-linejoin="round" d="M 505.781 564.449 Q 505.753 564.442 505.591 564.424 Q 505.373 564.065 505.297 567.275 Q 505.222 570.485 505.360 573.992 "></path>
    <path id="STROKE_e91990c0-3652-42a1-ae0d-499c217f2f49" opacity="1.000" fill="none" stroke="#000000" stroke-width="1.600" stroke-opacity="1.000" stroke-linecap="round" stroke-linejoin="round" d="M 503.389 569.786 Q 503.385 569.747 503.407 569.646 Q 502.875 569.785 508.278 569.365 "></path>
    <path id="STROKE_e698af77-569a-4626-8d9b-9baa015a877a" opacity="1.000" fill="none" stroke="#000000" stroke-width="1.600" stroke-opacity="1.000" stroke-linecap="round" stroke-linejoin="round" d="M 512.011 569.207 Q 512.094 569.145 513.180 568.824 Q 514.266 568.502 514.813 568.113 Q 515.361 567.724 515.516 567.515 Q 515.670 567.306 515.707 567.277 Q 515.743 567.249 515.768 567.013 Q 515.794 566.778 515.693 566.628 Q 515.591 566.479 515.618 566.497 Q 515.645 566.515 515.260 566.382 Q 514.875 566.250 514.527 566.302 Q 514.180 566.354 514.107 566.386 Q 514.033 566.418 513.545 566.613 Q 513.057 566.809 512.448 567.302 Q 511.839 567.796 511.433 568.629 Q 511.026 569.462 511.530 570.174 Q 512.034 570.887 512.425 571.088 Q 512.816 571.288 513.202 571.498 Q 513.587 571.709 514.414 571.748 Q 515.240 571.787 516.107 571.570 Q 516.974 571.353 517.769 571.131 Q 518.564 570.908 520.633 569.023 "></path>
    <path id="STROKE_53e113c3-c869-4b2b-aad5-1faa559358d9" opacity="1.000" fill="none" stroke="#000000" stroke-width="1.600" stroke-opacity="1.000" stroke-linecap="round" stroke-linejoin="round" d="M 522.526 558.666 Q 522.372 559.219 522.411 559.102 Q 522.336 559.319 521.886 561.377 Q 522.125 561.464 522.631 561.137 "></path>
    <path id="STROKE_bd6ead3d-6445-4523-b391-bed6c596a52b" opacity="1.000" fill="none" stroke="#000000" stroke-width="1.600" stroke-opacity="1.000" stroke-linecap="round" stroke-linejoin="round" d="M 525.365 559.875 Q 525.279 559.986 525.183 560.147 Q 525.088 560.308 524.925 560.490 Q 524.762 560.672 524.649 561.217 Q 524.536 561.762 524.468 562.243 Q 524.401 562.725 525.102 563.450 "></path>
    <path id="STROKE_34e5fdaa-c3c1-4c8c-b490-dd388a87e2d6" opacity="1.000" fill="none" stroke="#000000" stroke-width="1.600" stroke-opacity="1.000" stroke-linecap="round" stroke-linejoin="round" d="M 485.592 585.138 Q 485.633 585.657 485.618 585.562 Q 485.537 586.492 485.544 586.439 Q 485.611 586.286 484.856 592.262 "></path>
    <path id="STROKE_6b30c5b7-8634-446e-9ba2-ae03608056fe" opacity="1.000" fill="none" stroke="#000000" stroke-width="1.600" stroke-opacity="1.000" stroke-linecap="round" stroke-linejoin="round" d="M 480.071 584.770 L 480.047 584.786 Q 479.754 585.082 486.564 584.639 "></path>
    <path id="STROKE_7f26c036-df76-4c93-bc03-de1f9f706871" opacity="1.000" fill="none" stroke="#000000" stroke-width="1.600" stroke-opacity="1.000" stroke-linecap="round" stroke-linejoin="round" d="M 495.975 583.719 Q 495.932 583.676 495.282 583.793 Q 494.632 583.911 493.819 584.338 Q 493.007 584.766 492.608 585.106 Q 492.209 585.446 492.180 585.776 Q 492.151 586.106 493.160 586.933 Q 494.170 587.761 494.678 588.234 Q 495.186 588.708 495.388 589.591 Q 495.589 590.475 494.925 591.262 Q 494.261 592.048 492.190 592.052 "></path>
    <path id="STROKE_9345fbba-b467-4fc2-b023-e4534d34fbb4" opacity="1.000" fill="none" stroke="#000000" stroke-width="1.600" stroke-opacity="1.000" stroke-linecap="round" stroke-linejoin="round" d="M 454.309 676.543 L 454.319 676.536 Q 454.446 676.635 453.682 680.075 Q 452.918 683.514 452.206 689.582 "></path>
    <path id="STROKE_09411667-515e-4e0d-b1be-3a8d8c58bb26" opacity="1.000" fill="none" stroke="#000000" stroke-width="1.600" stroke-opacity="1.000" stroke-linecap="round" stroke-linejoin="round" d="M 463.878 680.513 Q 463.600 680.525 461.789 686.240 L 461.796 686.246 Q 462.262 685.780 462.204 685.791 Q 462.504 685.347 463.580 683.737 Q 464.656 682.127 465.294 681.329 Q 465.932 680.531 466.429 680.243 Q 466.926 679.956 466.996 679.950 Q 467.067 679.944 467.045 679.969 Q 467.022 679.994 467.187 679.934 Q 467.352 679.874 467.460 680.812 Q 467.568 681.750 467.623 682.394 Q 467.679 683.038 467.881 683.301 Q 468.082 683.565 468.495 683.414 Q 468.908 683.263 469.161 683.038 Q 469.413 682.813 469.663 682.581 Q 469.912 682.348 470.031 682.228 Q 470.150 682.107 470.215 681.877 Q 470.281 681.648 471.567 681.394 Q 471.609 681.174 471.869 682.246 Q 472.130 683.319 472.711 684.587 "></path>
    <path id="STROKE_e2831cd7-f1f4-476a-9e9a-e99c5831d72a" opacity="1.000" fill="none" stroke="#000000" stroke-width="1.600" stroke-opacity="1.000" stroke-linecap="round" stroke-linejoin="round" d="M 480.991 685.350 Q 480.978 685.346 480.652 687.107 Q 480.327 688.868 481.175 690.949 "></path>
    <path id="STROKE_ef8950c7-1d38-48a2-a13e-53d908a651b8" opacity="1.000" fill="none" stroke="#000000" stroke-width="1.600" stroke-opacity="1.000" stroke-linecap="round" stroke-linejoin="round" d="M 487.958 678.094 Q 487.740 678.469 487.327 690.739 "></path>
    <path id="STROKE_a71b2f61-1e11-4496-8067-17cb0d042158" opacity="1.000" fill="none" stroke="#000000" stroke-width="1.600" stroke-opacity="1.000" stroke-linecap="round" stroke-linejoin="round" d="M 503.152 679.934 Q 503.100 680.025 503.099 680.027 Q 503.099 680.030 495.813 689.484 Q 495.559 689.593 503.730 689.714 "></path>
    <path id="STROKE_50c89a24-8cb2-4da8-a5ab-ef27c44b13a6" opacity="1.000" fill="none" stroke="#000000" stroke-width="1.600" stroke-opacity="1.000" stroke-linecap="round" stroke-linejoin="round" d="M 509.645 680.171 Q 509.738 679.965 508.987 680.567 Q 508.235 681.169 507.100 682.559 Q 505.966 683.950 504.554 685.472 Q 503.668 685.623 508.567 685.954 "></path>
    <path id="STROKE_1b229b4b-9f9c-4f03-b7fa-f69183ac5467" opacity="1.000" fill="none" stroke="#000000" stroke-width="1.600" stroke-opacity="1.000" stroke-linecap="round" stroke-linejoin="round" d="M 519.266 678.672 L 519.297 678.621 Q 519.249 679.007 519.234 679.329 Q 519.220 679.651 519.089 680.636 Q 518.958 681.621 518.644 684.505 Q 518.330 687.389 517.821 690.791 "></path>
    <path id="STROKE_eef0eecf-dfd2-47e9-b6e5-466336ae760f" opacity="1.000" fill="none" stroke="#000000" stroke-width="1.600" stroke-opacity="1.000" stroke-linecap="round" stroke-linejoin="round" d="M 522.894 686.638 Q 522.572 686.646 521.987 687.821 Q 522.232 687.324 522.176 687.413 Q 522.102 686.763 525.908 683.071 Q 526.109 683.055 526.232 686.096 Q 526.666 686.009 526.686 685.990 Q 526.705 685.971 526.705 685.970 Q 526.706 685.969 526.848 685.891 Q 526.990 685.814 528.035 684.924 Q 529.080 684.035 530.793 683.612 Q 530.901 683.583 530.518 687.269 "></path>
    <path id="STROKE_30241600-6f96-4de3-8d29-6fb64229b5f1" opacity="1.000" fill="none" stroke="#000000" stroke-width="1.600" stroke-opacity="1.000" stroke-linecap="round" stroke-linejoin="round" d="M 535.065 687.900 Q 534.861 687.727 534.807 687.552 Q 535.174 687.357 535.079 687.337 Q 534.985 687.318 535.323 687.257 Q 535.661 687.197 535.959 687.311 Q 536.257 687.426 536.304 687.669 Q 536.351 687.913 536.343 688.299 Q 536.335 688.686 536.264 688.966 Q 536.193 689.247 535.992 689.824 Q 535.791 690.402 535.708 690.698 Q 535.625 690.995 535.432 692.303 Q 535.415 692.414 539.429 691.238 "></path>
    <path id="STROKE_771ce6cb-6e75-49d7-ac01-4b7ddf6efad7" opacity="1.000" fill="none" stroke="#000000" stroke-width="1.600" stroke-opacity="1.000" stroke-linecap="round" stroke-linejoin="round" d="M 545.554 680.276 Q 545.121 680.333 544.222 684.019 Q 543.323 687.704 543.372 692.605 "></path>
    <path id="STROKE_4aa2317e-710f-4057-9eaf-17619fbdd7f6" opacity="1.000" fill="none" stroke="#000000" stroke-width="1.600" stroke-opacity="1.000" stroke-linecap="round" stroke-linejoin="round" d="M -100.525 605.988 L -100.566 606.011 Q -100.528 605.962 -100.663 609.631 Q -100.798 613.301 -100.632 615.678 Q -100.465 618.055 -100.231 619.226 Q -99.997 620.397 -99.699 620.949 Q -99.401 621.500 -98.616 622.296 Q -97.831 623.091 -96.095 621.469 Q -94.358 619.848 -93.032 618.767 Q -91.707 617.685 -90.553 617.197 "></path>
    <path id="STROKE_648c851e-1859-4452-b8fc-81f8b916e2c3" opacity="1.000" fill="none" stroke="#000000" stroke-width="1.600" stroke-opacity="1.000" stroke-linecap="round" stroke-linejoin="round" d="M -99.186 613.215 Q -98.978 613.344 -93.498 610.974 "></path>
    <path id="STROKE_93d24b66-6bb5-4fb3-9216-069628a1fedc" opacity="1.000" fill="none" stroke="#000000" stroke-width="1.600" stroke-opacity="1.000" stroke-linecap="round" stroke-linejoin="round" d="M -100.759 607.192 Q -99.700 606.566 -99.925 606.653 Q -99.339 606.109 -93.197 602.274 "></path>
    <path id="STROKE_26f32637-585e-43ff-8657-c8b833826902" opacity="1.000" fill="none" stroke="#000000" stroke-width="1.600" stroke-opacity="1.000" stroke-linecap="round" stroke-linejoin="round" d="M -85.601 600.333 Q -86.148 601.111 -86.111 601.156 Q -86.074 601.200 -86.084 601.170 Q -86.094 601.141 -86.976 602.992 Q -87.858 604.844 -88.398 606.759 Q -88.939 608.674 -88.986 610.031 Q -89.034 611.387 -88.700 613.067 Q -88.366 614.747 -86.960 615.582 Q -85.553 616.416 -82.556 615.959 "></path>
    <path id="STROKE_2ba357be-f610-4b64-b5d6-a9377ec20e66" opacity="1.000" fill="none" stroke="#000000" stroke-width="1.600" stroke-opacity="1.000" stroke-linecap="round" stroke-linejoin="round" d="M -80.883 609.468 Q -80.880 610.061 -80.859 609.952 Q -80.838 609.968 -80.829 609.969 Q -80.833 610.016 -81.172 608.996 Q -81.512 607.975 -80.796 606.360 Q -80.081 604.744 -76.500 602.407 "></path>
    <path id="STROKE_65bcae73-9679-418b-b197-b3dfa187e614" opacity="1.000" fill="none" stroke="#000000" stroke-width="1.600" stroke-opacity="1.000" stroke-linecap="round" stroke-linejoin="round" d="M -76.065 597.288 Q -76.107 597.302 -76.176 597.403 Q -75.660 597.928 -75.657 597.940 Q -74.767 598.813 -73.295 601.026 Q -71.823 603.240 -71.279 604.739 Q -70.734 606.239 -70.496 607.186 Q -70.257 608.133 -71.113 610.304 "></path>
  </g>
</svg>