<?xml version="1.0" encoding="UTF-8" standalone="yes"?>
<svg xmlns="http://www.w3.org/2000/svg" xmlns:xlink="http://www.w3.org/1999/xlink" width="329.430pt" height="233.196pt" version="1.1" viewBox="-164.345 598.791 329.430 233.195">
  <!--
	Exported with Concepts: Smarter Sketching
	Version: 2024.10.3 on Microsoft Windows NT 10.0.22631.0
	https://concepts.app/
	-->
  <title>Drawing 4</title>
  <desc>Drawing exported from Concepts: Smarter Sketching</desc>
  <defs></defs>
  <g id="Pen" opacity="1.000">
    <path id="STROKE_39303ebd-f135-4e53-b7f2-d8bc9ce7a421" opacity="1.000" fill="none" stroke="#000000" stroke-width="1.600" stroke-opacity="1.000" stroke-linecap="round" stroke-linejoin="round" d="M -128.000 640.000 L -128.000 752.000 L -128.000 768.000 "></path>
    <path id="STROKE_5a6837fc-8b40-4f7a-ac1f-41f865ab429a" opacity="1.000" fill="none" stroke="#000000" stroke-width="1.600" stroke-opacity="1.000" stroke-linecap="round" stroke-linejoin="round" d="M -128.000 768.000 L 0.000 768.000 L 0.000 768.000 "></path>
    <path id="STROKE_62be7927-cd35-48f7-9e69-e6393b958f86" opacity="1.000" fill="none" stroke="#000000" stroke-width="1.600" stroke-opacity="1.000" stroke-linecap="round" stroke-linejoin="round" d="M -158.418 624.579 Q -158.472 624.030 -158.457 624.103 Q -158.453 624.039 -158.448 624.000 Q -158.373 623.998 -158.722 626.300 Q -159.071 628.602 -159.338 631.428 Q -159.605 634.253 -159.406 636.207 Q -159.207 638.161 -158.917 638.890 Q -158.627 639.620 -157.974 640.246 Q -157.321 640.873 -156.076 640.510 Q -154.830 640.148 -154.212 639.649 Q -153.594 639.150 -153.128 638.806 Q -152.663 638.463 -150.988 636.550 Q -149.312 634.636 -147.835 631.366 "></path>
    <path id="STROKE_1abed26e-e512-402a-bee2-7cde0680a404" opacity="1.000" fill="none" stroke="#000000" stroke-width="1.600" stroke-opacity="1.000" stroke-linecap="round" stroke-linejoin="round" d="M -158.348 631.401 Q -158.371 630.693 -158.300 630.879 Q -157.796 630.626 -149.839 624.228 "></path>
    <path id="STROKE_993192b9-43e7-46ca-bc9c-9b32a5a169fa" opacity="1.000" fill="none" stroke="#000000" stroke-width="1.600" stroke-opacity="1.000" stroke-linecap="round" stroke-linejoin="round" d="M -158.805 623.490 Q -158.817 622.583 -158.808 622.822 Q -158.904 622.837 -156.882 620.908 Q -154.860 618.978 -150.050 616.879 "></path>
    <path id="STROKE_fa88c83e-dbae-40ad-afb6-50e7f67426db" opacity="1.000" fill="none" stroke="#000000" stroke-width="1.600" stroke-opacity="1.000" stroke-linecap="round" stroke-linejoin="round" d="M -141.436 612.801 Q -142.239 612.923 -142.783 615.584 Q -143.327 618.245 -143.442 620.447 Q -143.557 622.649 -143.205 624.235 Q -142.853 625.820 -142.513 626.720 Q -142.172 627.620 -140.790 628.652 Q -139.407 629.684 -135.037 629.045 "></path>
    <path id="STROKE_f45f6213-258f-4bf2-9e08-9e64a8ace1b7" opacity="1.000" fill="none" stroke="#000000" stroke-width="1.600" stroke-opacity="1.000" stroke-linecap="round" stroke-linejoin="round" d="M -135.951 617.969 Q -135.949 618.034 -135.710 618.668 L -135.650 618.092 Q -135.448 617.094 -135.458 617.245 Q -135.507 615.774 -130.501 610.128 "></path>
    <path id="STROKE_040e0e03-a792-4ed9-8a68-8eaa4cd185bc" opacity="1.000" fill="none" stroke="#000000" stroke-width="1.600" stroke-opacity="1.000" stroke-linecap="round" stroke-linejoin="round" d="M -127.970 604.503 L -127.993 604.528 Q -127.648 604.927 -126.500 605.670 Q -125.351 606.413 -124.439 607.626 Q -123.527 608.839 -122.628 610.667 Q -121.730 612.495 -121.089 614.258 Q -120.449 616.021 -120.578 617.621 Q -120.707 619.221 -122.449 621.099 "></path>
    <path id="STROKE_bc59d3a1-ac4c-498f-abd5-52ae6d74282e" opacity="1.000" fill="none" stroke="#000000" stroke-width="1.600" stroke-opacity="1.000" stroke-linecap="round" stroke-linejoin="round" d="M 4.198 768.000 L 4.198 768.000 "></path>
    <path id="STROKE_62a31fa5-c5da-4dcd-af8a-7618f3a1ca03" opacity="1.000" fill="none" stroke="#000000" stroke-width="1.600" stroke-opacity="1.000" stroke-linecap="round" stroke-linejoin="round" d="M 0.000 768.000 L 48.000 768.000 L 59.048 768.000 "></path>
    <path id="STROKE_b5c8fc53-2b20-49b5-8542-209495875658" opacity="1.000" fill="none" stroke="#000000" stroke-width="1.600" stroke-opacity="1.000" stroke-linecap="round" stroke-linejoin="round" d="M 55.778 768.000 L 104.467 768.000 "></path>
    <path id="STROKE_7e58da52-97cb-4ac3-9992-3f8539fdf807" opacity="1.000" fill="none" stroke="#000000" stroke-width="1.600" stroke-opacity="1.000" stroke-linecap="round" stroke-linejoin="round" d="M -66.052 762.586 Q -66.048 762.516 -65.985 762.297 Q -65.214 762.589 -65.173 777.389 "></path>
    <path id="STROKE_e46601b3-e55c-4596-8e34-fc69783eef83" opacity="1.000" fill="none" stroke="#000000" stroke-width="1.600" stroke-opacity="1.000" stroke-linecap="round" stroke-linejoin="round" d="M -72.311 788.852 L -72.332 788.868 Q -72.445 789.695 -72.436 789.610 Q -72.432 790.144 -72.542 793.583 Q -72.652 797.022 -72.013 800.508 Q -71.763 800.540 -71.377 798.033 Q -70.992 795.525 -70.402 793.826 Q -69.813 792.127 -69.406 791.201 Q -69.000 790.275 -68.203 789.397 Q -67.406 788.519 -66.251 787.448 Q -65.095 786.377 -60.216 785.019 "></path>
    <path id="STROKE_ed707439-22a3-43a5-9c20-cd2a77be593e" opacity="1.000" fill="none" stroke="#000000" stroke-width="1.600" stroke-opacity="1.000" stroke-linecap="round" stroke-linejoin="round" d="M -58.282 801.580 Q -58.820 802.750 -58.790 802.711 Q -58.761 802.672 -58.751 802.583 Q -58.742 802.493 -59.105 804.271 Q -59.467 806.050 -59.566 807.473 Q -59.665 808.897 -58.528 810.089 "></path>
    <path id="STROKE_643491a7-5f18-46b9-ace4-c1f4cff35cdf" opacity="1.000" fill="none" stroke="#000000" stroke-width="1.600" stroke-opacity="1.000" stroke-linecap="round" stroke-linejoin="round" d="M -2.693 762.059 Q -2.656 762.051 -2.501 762.064 Q -0.647 762.816 0.155 778.549 "></path>
    <path id="STROKE_8fbbec4d-991b-4aa9-b6de-587b20a8fa53" opacity="1.000" fill="none" stroke="#000000" stroke-width="1.600" stroke-opacity="1.000" stroke-linecap="round" stroke-linejoin="round" d="M -7.897 795.673 Q -8.073 796.544 -8.595 801.330 Q -8.428 800.356 -8.450 800.524 Q -8.353 800.280 -7.567 798.138 Q -6.781 795.996 -4.822 794.067 Q -2.862 792.138 0.788 790.680 "></path>
    <path id="STROKE_b059be50-fd55-4757-8887-2d79dc4a4930" opacity="1.000" fill="none" stroke="#000000" stroke-width="1.600" stroke-opacity="1.000" stroke-linecap="round" stroke-linejoin="round" d="M 13.375 781.995 Q 13.429 782.168 13.391 784.706 Q 13.353 787.245 13.107 789.745 Q 12.862 792.246 12.531 794.407 "></path>
    <path id="STROKE_09b6085c-5311-44a1-b97f-a238c7ede2d9" opacity="1.000" fill="none" stroke="#000000" stroke-width="1.600" stroke-opacity="1.000" stroke-linecap="round" stroke-linejoin="round" d="M 8.734 786.777 Q 8.428 786.631 9.995 786.645 Q 11.561 786.659 14.852 786.707 "></path>
    <path id="STROKE_81d50aea-4a07-4f4a-b81f-6fe690587dd9" opacity="1.000" fill="none" stroke="#000000" stroke-width="1.600" stroke-opacity="1.000" stroke-linecap="round" stroke-linejoin="round" d="M 8.628 790.047 L 8.561 790.081 Q 8.606 791.192 15.274 790.082 "></path>
    <path id="STROKE_b55c9ce4-6f69-4e84-977e-0837f3e5f64e" opacity="1.000" fill="none" stroke="#000000" stroke-width="1.600" stroke-opacity="1.000" stroke-linecap="round" stroke-linejoin="round" d="M 60.701 763.430 Q 60.383 763.285 59.769 767.623 Q 59.156 771.961 60.771 779.639 "></path>
    <path id="STROKE_350a800d-30d5-4f14-a764-4540140a993b" opacity="1.000" fill="none" stroke="#000000" stroke-width="1.600" stroke-opacity="1.000" stroke-linecap="round" stroke-linejoin="round" d="M 57.185 788.219 Q 57.305 788.284 57.193 788.131 Q 57.080 787.978 56.494 789.659 Q 55.908 791.340 55.947 792.675 Q 55.987 794.009 56.245 794.593 Q 56.502 795.176 56.766 795.413 Q 57.030 795.650 57.010 795.684 Q 56.990 795.719 57.189 795.411 Q 57.388 795.102 57.395 794.930 Q 57.402 794.757 57.437 794.741 Q 57.472 794.724 57.533 793.830 Q 57.594 792.935 58.336 790.798 Q 59.078 788.662 60.183 787.050 Q 61.287 785.439 62.295 784.577 Q 63.303 783.715 64.043 783.388 Q 64.783 783.061 66.010 782.980 "></path>
    <path id="STROKE_a8e30b59-3376-4505-980a-c1a14854fdc0" opacity="1.000" fill="none" stroke="#000000" stroke-width="1.600" stroke-opacity="1.000" stroke-linecap="round" stroke-linejoin="round" d="M 66.362 798.380 Q 66.185 798.491 66.354 797.805 Q 66.523 797.120 67.551 796.531 Q 68.578 795.942 69.418 795.875 Q 70.258 795.807 70.601 795.959 Q 70.943 796.111 71.454 796.525 Q 71.964 796.940 72.007 797.941 Q 72.051 798.942 71.711 800.021 Q 71.371 801.099 70.096 802.814 Q 68.821 804.530 68.116 805.194 Q 67.411 805.859 67.039 806.241 Q 66.667 806.624 66.545 806.742 Q 66.424 806.861 66.421 806.850 Q 66.418 806.839 73.605 805.061 "></path>
    <path id="STROKE_ab159c5b-881a-4b89-a77c-9742f74b5a1f" opacity="1.000" fill="none" stroke="#000000" stroke-width="1.600" stroke-opacity="1.000" stroke-linecap="round" stroke-linejoin="round" d="M -149.874 701.582 Q -149.913 701.627 -150.776 703.957 Q -151.639 706.286 -151.936 707.970 Q -152.233 709.654 -152.127 710.860 Q -152.022 712.066 -150.779 712.433 Q -149.536 712.801 -147.695 711.819 Q -145.855 710.838 -144.787 710.159 Q -143.718 709.481 -142.392 708.142 Q -141.066 706.804 -140.299 705.695 Q -139.531 704.587 -139.602 703.603 Q -139.673 702.620 -140.074 702.080 Q -140.475 701.540 -140.890 701.178 Q -141.305 700.816 -141.923 700.442 Q -142.541 700.068 -142.830 699.843 Q -143.119 699.617 -144.493 698.973 Q -145.868 698.330 -147.330 698.228 Q -148.791 698.127 -150.121 698.514 Q -151.450 698.902 -152.450 699.697 Q -153.450 700.493 -153.850 701.286 Q -154.250 702.080 -153.566 703.164 "></path>
    <path id="STROKE_3046b0f0-08e3-464f-bf8c-66835951acbb" opacity="1.000" fill="none" stroke="#000000" stroke-width="1.600" stroke-opacity="1.000" stroke-linecap="round" stroke-linejoin="round" d="M -120.516 705.344 L -120.480 705.352 Q -120.472 705.125 -117.962 704.647 Q -115.452 704.170 -112.394 703.903 "></path>
    <path id="STROKE_f8c7be1d-0c26-43ff-9e02-fd808c4805f7" opacity="1.000" fill="none" stroke="#000000" stroke-width="1.600" stroke-opacity="1.000" stroke-linecap="round" stroke-linejoin="round" d="M -89.504 703.832 Q -89.575 703.522 -78.182 703.059 "></path>
    <path id="STROKE_ea7cd36a-cf33-44cf-9706-45309bd7f1ab" opacity="1.000" fill="none" stroke="#000000" stroke-width="1.600" stroke-opacity="1.000" stroke-linecap="round" stroke-linejoin="round" d="M -66.052 703.586 Q -64.941 703.886 -65.209 703.816 Q -64.627 704.312 -55.610 703.235 "></path>
    <path id="STROKE_7bd78d89-8b20-4e9a-a958-c2f6d92a1008" opacity="1.000" fill="none" stroke="#000000" stroke-width="1.600" stroke-opacity="1.000" stroke-linecap="round" stroke-linejoin="round" d="M -46.609 703.094 Q -45.670 703.151 -45.902 703.134 Q -44.807 703.344 -36.553 702.250 "></path>
    <path id="STROKE_10a9614c-5b1b-488b-861b-7dff2f7b9619" opacity="1.000" fill="none" stroke="#000000" stroke-width="1.600" stroke-opacity="1.000" stroke-linecap="round" stroke-linejoin="round" d="M -23.121 701.934 Q -22.281 702.145 -14.296 701.898 "></path>
    <path id="STROKE_ea05121c-14ea-4921-9017-54177d24995d" opacity="1.000" fill="none" stroke="#000000" stroke-width="1.600" stroke-opacity="1.000" stroke-linecap="round" stroke-linejoin="round" d="M 2.229 700.598 Q 2.311 700.733 13.551 700.914 "></path>
    <path id="STROKE_96ce40ed-7741-4569-8f7d-3ab67c816c4e" opacity="1.000" fill="none" stroke="#000000" stroke-width="1.600" stroke-opacity="1.000" stroke-linecap="round" stroke-linejoin="round" d="M 26.103 701.793 Q 25.831 701.753 33.733 701.617 "></path>
    <path id="STROKE_518609fc-1f2b-4974-828c-6e4737447f08" opacity="1.000" fill="none" stroke="#000000" stroke-width="1.600" stroke-opacity="1.000" stroke-linecap="round" stroke-linejoin="round" d="M 47.656 701.547 Q 49.206 701.258 59.857 701.652 "></path>
    <path id="STROKE_b0b773a1-ad5d-4dbe-a621-d0cd03556236" opacity="1.000" fill="none" stroke="#000000" stroke-width="1.600" stroke-opacity="1.000" stroke-linecap="round" stroke-linejoin="round" d="M 68.999 701.582 Q 68.652 701.585 76.242 701.477 "></path>
    <path id="STROKE_f28f83b1-af35-49cb-88d8-be9682789cac" opacity="1.000" fill="none" stroke="#000000" stroke-width="1.600" stroke-opacity="1.000" stroke-linecap="round" stroke-linejoin="round" d="M 89.849 700.703 L 90.622 700.709 Q 90.988 700.815 96.775 700.598 "></path>
    <path id="STROKE_a9558b4c-940e-4fea-9e6b-60affb6617d5" opacity="1.000" fill="none" stroke="#000000" stroke-width="1.600" stroke-opacity="1.000" stroke-linecap="round" stroke-linejoin="round" d="M 109.785 700.140 Q 109.972 700.018 114.707 700.351 "></path>
    <path id="STROKE_47f921e5-d673-4d49-9f48-e24b639c8d92" opacity="1.000" fill="none" stroke="#000000" stroke-width="1.600" stroke-opacity="1.000" stroke-linecap="round" stroke-linejoin="round" d="M 124.833 700.211 Q 125.216 700.321 133.834 699.613 "></path>
    <circle id="STROKE_9c02cddc-55d8-4e62-9493-625aaa33c310" opacity="1.000" fill="#000000" stroke="#000000" stroke-width="0.1" stroke-opacity="1.000" fill-opacity="1.000" cx="-36.599" cy="678.885" r="0.800"></circle>
    <path id="STROKE_b3c49918-55e9-4952-b23b-82a905469817" opacity="1.000" fill="none" stroke="#000000" stroke-width="1.600" stroke-opacity="1.000" stroke-linecap="round" stroke-linejoin="round" d="M -14.312 655.468 Q -14.175 655.331 -13.916 655.072 Q -13.656 654.812 -13.717 654.874 Q -13.779 654.936 -13.766 654.922 Q -13.753 654.909 -13.662 654.818 Q -13.571 654.728 -13.309 654.466 "></path>
    <circle id="STROKE_9d5f6227-255c-48d9-af90-3d7c4adedb51" opacity="1.000" fill="#000000" stroke="#000000" stroke-width="0.1" stroke-opacity="1.000" fill-opacity="1.000" cx="-11.779" cy="652.938" r="0.800"></circle>
    <path id="STROKE_777f2ee9-ff85-4c0f-9904-b1bfe0311cb6" opacity="1.000" fill="none" stroke="#000000" stroke-width="1.600" stroke-opacity="1.000" stroke-linecap="round" stroke-linejoin="round" d="M -9.598 650.760 Q -9.595 650.757 -8.926 650.089 Q -8.258 649.421 -4.479 645.647 Q -4.284 645.453 -4.624 645.792 Q -4.963 646.131 -5.465 646.632 Q -5.967 647.133 -6.230 647.396 Q -6.493 647.659 -6.719 647.884 Q -6.944 648.109 -6.993 648.159 Q -7.043 648.208 -6.996 648.161 Q -6.949 648.114 -7.414 648.578 Q -7.878 649.043 -8.219 649.383 Q -8.560 649.723 -8.846 650.009 Q -9.132 650.295 -9.308 650.470 Q -9.484 650.646 -10.393 651.554 Q -11.301 652.461 -11.802 652.961 Q -12.302 653.461 -12.731 653.888 Q -13.159 654.316 -13.510 654.667 Q -13.862 655.018 -14.202 655.358 Q -14.543 655.698 -15.634 656.788 Q -16.726 657.879 -17.652 658.804 Q -18.578 659.729 -18.966 660.116 Q -19.354 660.503 -19.553 660.702 Q -19.751 660.900 -19.748 660.897 Q -19.745 660.894 -20.449 661.597 Q -21.152 662.299 -21.847 662.993 Q -22.542 663.687 -22.900 664.044 Q -23.257 664.402 -23.261 664.405 Q -23.265 664.409 -23.596 664.740 Q -23.927 665.070 -23.922 665.066 Q -23.918 665.061 -23.988 665.131 Q -24.058 665.201 -23.911 665.054 Q -23.764 664.908 -24.380 665.523 Q -24.996 666.138 -25.433 666.575 Q -25.871 667.012 -26.230 667.370 Q -26.589 667.729 -26.537 667.677 Q -26.484 667.624 -26.910 668.049 Q -27.335 668.474 -27.554 668.693 Q -27.772 668.911 -27.983 669.121 Q -28.194 669.332 -28.361 669.498 Q -28.527 669.664 -28.552 669.689 Q -28.577 669.715 -28.943 670.080 Q -29.309 670.445 -29.341 670.477 Q -29.373 670.509 -29.433 670.569 Q -29.493 670.629 -29.644 670.780 Q -29.795 670.930 -30.010 671.145 Q -30.224 671.360 -30.454 671.588 Q -30.683 671.817 -30.987 672.121 Q -31.291 672.425 -31.284 672.418 Q -31.277 672.411 -31.198 672.332 Q -31.118 672.253 -32.255 673.388 Q -33.392 674.523 -34.229 675.359 Q -35.067 676.196 -35.565 676.694 Q -36.064 677.192 -36.334 677.462 Q -36.605 677.732 -36.898 678.024 Q -37.190 678.317 -37.558 678.684 Q -37.926 679.051 -38.422 679.547 Q -38.918 680.042 -39.287 680.411 Q -39.656 680.779 -39.734 680.857 Q -39.812 680.934 -40.041 681.163 Q -40.270 681.392 -40.492 681.614 Q -40.713 681.835 -40.734 681.855 Q -40.754 681.876 -40.867 681.989 Q -40.980 682.102 -41.135 682.256 Q -41.289 682.410 -41.663 682.783 Q -42.036 683.156 -42.023 683.143 Q -42.011 683.131 -41.991 683.111 Q -41.971 683.091 -42.336 683.455 Q -42.700 683.819 -42.983 684.101 Q -43.265 684.384 -43.442 684.560 Q -43.618 684.736 -43.816 684.934 Q -44.013 685.131 -44.039 685.156 Q -44.065 685.182 -44.035 685.152 Q -44.004 685.122 -44.387 685.504 Q -44.770 685.886 -44.698 685.815 Q -44.627 685.743 -44.939 686.055 Q -45.252 686.368 -45.300 686.416 Q -45.349 686.465 -45.336 686.452 Q -45.323 686.439 -45.342 686.458 Q -45.361 686.477 -45.302 686.418 Q -45.243 686.359 -45.674 686.789 Q -46.104 687.219 -46.010 687.125 Q -45.915 687.030 -45.947 687.062 Q -45.980 687.094 -46.134 687.248 Q -46.288 687.402 -46.450 687.565 Q -46.613 687.727 -46.600 687.714 Q -46.587 687.701 -46.587 687.701 Q -46.587 687.701 -46.970 688.084 Q -47.354 688.467 -47.317 688.431 Q -47.281 688.394 -47.277 688.390 Q -47.272 688.385 -47.601 688.713 Q -47.929 689.041 -47.922 689.034 Q -47.915 689.027 -47.899 689.011 Q -47.882 688.995 -48.118 689.230 Q -48.353 689.465 -48.527 689.638 Q -48.701 689.812 -48.701 689.812 Q -48.702 689.813 -48.657 689.768 Q -48.612 689.724 -48.948 690.059 Q -49.284 690.395 -49.610 690.720 Q -49.936 691.045 -50.059 691.169 Q -50.182 691.292 -50.364 691.474 Q -50.546 691.655 -50.570 691.679 Q -50.595 691.704 -50.580 691.689 Q -50.565 691.673 -50.577 691.686 Q -50.589 691.698 -50.518 691.627 Q -50.447 691.556 -50.685 691.794 Q -50.924 692.032 -51.119 692.227 Q -51.314 692.422 -51.465 692.573 Q -51.616 692.723 -51.791 692.899 Q -51.967 693.074 -51.941 693.049 Q -51.916 693.023 -51.908 693.015 Q -51.901 693.008 -52.537 693.643 Q -53.173 694.278 -53.849 694.954 Q -54.525 695.629 -54.997 696.100 Q -55.468 696.570 -55.714 696.817 Q -55.961 697.063 -55.996 697.098 Q -56.031 697.133 -56.107 697.208 Q -56.182 697.284 -56.363 697.464 Q -56.543 697.645 -56.797 697.898 Q -57.051 698.151 -57.246 698.346 Q -57.441 698.541 -57.498 698.598 Q -57.555 698.655 -57.795 698.894 Q -58.035 699.134 -58.043 699.142 Q -58.052 699.151 -58.074 699.173 Q -58.096 699.195 -58.401 699.500 Q -58.707 699.805 -59.015 700.113 Q -59.324 700.422 -59.340 700.438 Q -59.356 700.453 -59.349 700.447 Q -59.342 700.440 -59.382 700.479 Q -59.421 700.519 -59.758 700.855 Q -60.094 701.191 -60.093 701.190 Q -60.093 701.189 -60.076 701.172 Q -60.059 701.156 -60.372 701.468 Q -60.684 701.780 -60.679 701.775 Q -60.673 701.769 -60.806 701.902 Q -60.939 702.034 -61.110 702.205 Q -61.281 702.376 -61.269 702.364 Q -61.257 702.352 -61.238 702.333 Q -61.218 702.313 -61.557 702.652 Q -61.897 702.991 -62.001 703.095 Q -62.106 703.200 -62.082 703.176 Q -62.058 703.152 -62.036 703.130 Q -62.013 703.107 -62.382 703.476 Q -62.751 703.844 -62.723 703.816 Q -62.694 703.787 -62.696 703.789 Q -62.698 703.792 -62.687 703.780 Q -62.676 703.769 -62.730 703.823 Q -62.784 703.877 -63.083 704.176 Q -63.382 704.474 -63.349 704.441 Q -63.315 704.407 -63.343 704.436 Q -63.371 704.464 -63.326 704.418 Q -63.281 704.373 -63.495 704.587 Q -63.709 704.801 -63.925 705.017 Q -64.141 705.233 -64.146 705.237 Q -64.150 705.241 -64.141 705.232 Q -64.132 705.224 -64.418 705.509 Q -64.704 705.794 -64.666 705.757 Q -64.628 705.719 -64.656 705.747 Q -64.684 705.775 -64.682 705.773 Q -64.681 705.771 -64.644 705.735 Q -64.608 705.698 -64.731 705.822 Q -64.855 705.946 -65.126 706.216 Q -65.397 706.486 -65.557 706.646 Q -64.936 706.027 -64.290 705.381 Q -63.644 704.736 -63.093 704.185 Q -62.542 703.635 -60.862 701.958 Q -59.182 700.280 -57.681 698.781 Q -56.181 697.282 -55.376 696.478 Q -54.571 695.674 -54.216 695.320 Q -53.861 694.966 -53.643 694.748 Q -53.426 694.531 -53.203 694.308 Q -52.980 694.086 -51.987 693.094 Q -50.993 692.102 -49.658 690.768 Q -48.322 689.434 -47.657 688.769 Q -46.991 688.104 -46.671 687.785 Q -46.351 687.466 -46.060 687.175 Q -45.768 686.884 -45.416 686.532 Q -45.065 686.181 -44.773 685.890 Q -44.482 685.599 -44.270 685.387 Q -44.058 685.175 -43.827 684.945 Q -43.597 684.715 -43.414 684.533 Q -43.232 684.350 -43.259 684.377 Q -43.286 684.404 -42.935 684.054 Q -42.585 683.705 -41.928 683.048 Q -41.270 682.391 -40.629 681.751 Q -39.987 681.110 -39.613 680.736 Q -39.239 680.363 -38.907 680.031 Q -38.574 679.699 -37.901 679.026 Q -37.227 678.353 -36.538 677.665 Q -35.848 676.976 -35.525 676.653 Q -35.201 676.330 -34.064 675.194 Q -32.927 674.058 -32.010 673.143 Q -31.093 672.227 -29.627 670.763 Q -28.161 669.299 -27.248 668.387 Q -26.334 667.475 -25.906 667.047 Q -25.477 666.619 -25.082 666.224 Q -24.687 665.829 -23.965 665.109 Q -23.244 664.388 -22.619 663.764 Q -21.995 663.141 -21.738 662.884 Q -21.481 662.627 -21.272 662.419 Q -21.063 662.210 -19.575 660.724 Q -18.086 659.237 -16.424 657.577 Q -14.762 655.917 -14.121 655.277 Q -13.480 654.637 -13.112 654.269 Q -12.743 653.901 -12.513 653.671 Q -12.283 653.442 -12.166 653.324 Q -12.048 653.207 -11.989 653.148 Q -11.930 653.089 -11.876 653.035 Q -11.823 652.982 -11.601 652.761 Q -11.380 652.540 -11.294 652.454 Q -11.208 652.368 -10.857 652.017 Q -10.506 651.666 -10.133 651.294 Q -9.759 650.921 -9.519 650.681 Q -9.278 650.440 -9.082 650.245 Q -8.887 650.050 -8.119 649.283 Q -7.351 648.516 -6.880 648.046 Q -6.409 647.575 -6.144 647.310 Q -5.879 647.045 -5.873 647.040 Q -5.868 647.035 -5.884 647.051 Q -5.901 647.067 -5.611 646.778 Q -5.322 646.490 -5.201 646.369 Q -5.080 646.248 -5.034 646.202 Q -4.988 646.156 -5.235 646.402 Q -5.481 646.649 -2.719 643.890 "></path>
    <circle id="STROKE_a30ca0f5-887b-442a-a171-f1fa425464ef" opacity="1.000" fill="#000000" stroke="#000000" stroke-width="0.1" stroke-opacity="1.000" fill-opacity="1.000" cx="-2.104" cy="643.275" r="0.800"></circle>
    <path id="STROKE_ac567972-405c-44b1-b6db-f82f6e8dba20" opacity="1.000" fill="none" stroke="#000000" stroke-width="1.600" stroke-opacity="1.000" stroke-linecap="round" stroke-linejoin="round" d="M -5.956 647.123 Q -5.779 646.946 -5.856 647.023 Q -5.932 647.099 -5.713 646.880 Q -5.495 646.662 -5.360 646.528 Q -5.226 646.394 -5.262 646.430 Q -5.298 646.466 -5.076 646.244 Q -4.853 646.021 -4.471 645.640 Q -4.089 645.258 -3.859 645.029 Q -3.629 644.799 -3.358 644.528 Q -3.087 644.257 -3.126 644.296 Q -3.165 644.335 -2.806 643.977 Q -2.447 643.619 -1.594 642.766 Q -1.611 642.784 -1.787 642.959 L -1.770 642.942 "></path>
    <path id="STROKE_8556b2ed-16ea-4793-9e5a-ca3ff2537322" opacity="1.000" fill="none" stroke="#000000" stroke-width="1.600" stroke-opacity="1.000" stroke-linecap="round" stroke-linejoin="round" d="M 6.268 654.148 Q 5.922 653.564 6.007 653.708 Q 5.559 652.948 5.145 652.246 Q 4.730 651.544 3.673 649.755 Q 2.617 647.965 2.196 647.252 Q 1.774 646.539 1.386 645.881 Q 0.997 645.223 0.908 645.072 Q 0.819 644.921 0.762 644.825 Q 0.706 644.729 0.605 644.559 Q 0.505 644.389 0.406 644.220 Q 0.306 644.052 0.320 644.075 Q 0.333 644.098 0.361 644.145 Q 0.388 644.191 0.239 643.939 Q 0.090 643.686 -0.172 643.242 Q -0.435 642.797 -0.428 642.808 Q -0.422 642.819 -0.438 642.791 Q -0.356 642.931 -0.404 642.849 Q -0.453 642.767 -0.242 643.125 Q -0.030 643.482 0.067 643.648 Q 0.165 643.813 0.153 643.793 Q 0.141 643.773 0.164 643.812 Q 0.187 643.850 0.470 644.330 Q 0.754 644.810 1.140 645.465 Q 1.527 646.119 1.962 646.857 Q 2.398 647.595 2.735 648.166 Q 3.072 648.736 3.227 648.999 Q 3.382 649.261 5.059 652.102 Q 6.737 654.943 8.275 657.548 Q 9.813 660.153 10.790 661.807 Q 11.767 663.462 12.506 664.713 Q 13.245 665.964 15.608 669.967 Q 17.971 673.969 19.289 676.201 Q 20.608 678.434 22.539 681.704 Q 24.470 684.975 26.343 688.148 Q 28.217 691.320 29.198 692.983 Q 30.180 694.645 33.886 700.922 Q 37.593 707.199 39.517 710.458 Q 41.441 713.716 42.421 715.376 Q 43.401 717.035 44.092 718.206 Q 44.783 719.377 47.453 723.898 Q 50.122 728.418 52.819 732.986 Q 55.516 737.553 56.743 739.631 Q 57.970 741.710 58.546 742.684 Q 59.121 743.659 59.847 744.888 Q 60.572 746.117 60.974 746.797 Q 61.375 747.477 61.684 747.999 Q 61.992 748.522 62.172 748.827 Q 62.353 749.132 62.325 749.086 Q 62.298 749.039 62.481 749.350 Q 62.665 749.660 62.898 750.055 Q 63.131 750.450 63.176 750.527 Q 63.221 750.603 63.440 750.973 Q 63.658 751.343 63.724 751.453 Q 63.789 751.564 63.779 751.548 Q 63.770 751.532 64.063 752.028 Q 64.355 752.524 64.799 753.275 Q 65.243 754.027 66.740 756.562 "></path>
    <path id="STROKE_8317b841-9498-4169-ac80-26367f4adf94" opacity="1.000" fill="none" stroke="#000000" stroke-width="1.600" stroke-opacity="1.000" stroke-linecap="round" stroke-linejoin="round" d="M 105.636 768.000 L 112.000 768.000 L 128.000 768.000 "></path>
    <path id="STROKE_f04f1868-0c46-4b02-a3ea-bff3a955638f" opacity="1.000" fill="none" stroke="#000000" stroke-width="1.600" stroke-opacity="1.000" stroke-linecap="round" stroke-linejoin="round" d="M -6.491 657.455 Q -6.492 657.437 -7.392 660.302 L -7.386 660.323 Q -7.309 660.670 -6.292 657.886 Q -5.275 655.102 -2.864 652.460 Q -2.823 653.476 -2.843 653.221 Q -3.034 653.577 -2.211 656.036 Q -1.389 658.495 1.491 661.217 "></path>
    <path id="STROKE_8a6b58b5-d474-41c7-9369-76cf7e922988" opacity="1.000" fill="none" stroke="#000000" stroke-width="1.600" stroke-opacity="1.000" stroke-linecap="round" stroke-linejoin="round" d="M -2.412 655.873 Q -2.550 656.476 -2.542 656.440 Q -2.712 656.377 -2.327 662.758 Q -1.942 669.139 -1.882 672.646 Q -1.822 676.152 -1.942 677.699 Q -2.061 679.246 -2.317 681.773 Q -2.573 684.301 -2.412 688.713 "></path>
    <path id="STROKE_302cfdab-7598-4bd4-bf15-7267dd6f63db" opacity="1.000" fill="none" stroke="#000000" stroke-width="1.600" stroke-opacity="1.000" stroke-linecap="round" stroke-linejoin="round" d="M -3.185 687.799 Q -3.294 688.761 -3.256 688.539 Q -3.105 689.555 -3.101 689.452 Q -2.877 689.741 -2.553 694.796 "></path>
    <path id="STROKE_450ea25b-aa70-4bdd-9441-ded8e6d78980" opacity="1.000" fill="none" stroke="#000000" stroke-width="1.600" stroke-opacity="1.000" stroke-linecap="round" stroke-linejoin="round" d="M -5.365 690.155 L -5.449 690.146 Q -5.369 690.687 -5.356 690.696 Q -5.216 690.789 -4.674 693.231 Q -4.132 695.673 -3.645 697.262 Q -3.158 698.851 -2.265 699.849 Q -1.603 699.976 1.631 692.335 "></path>
    <path id="STROKE_eaf571f4-d979-4f5c-80d1-ca522c7eda0b" opacity="1.000" fill="none" stroke="#000000" stroke-width="1.600" stroke-opacity="1.000" stroke-linecap="round" stroke-linejoin="round" d="M -26.391 679.606 Q -26.380 679.720 -26.447 679.660 Q -26.513 679.600 -26.243 681.992 Q -25.973 684.383 -25.702 685.861 Q -25.431 687.340 -24.891 689.137 Q -24.351 690.934 -24.041 691.566 Q -23.731 692.199 -23.246 692.706 Q -22.761 693.213 -22.115 692.773 Q -21.469 692.334 -21.276 692.059 Q -21.084 691.785 -20.535 691.052 Q -19.986 690.320 -18.726 688.010 "></path>
    <path id="STROKE_c1de7a21-4c06-4466-a869-7b3534ba4013" opacity="1.000" fill="none" stroke="#000000" stroke-width="1.600" stroke-opacity="1.000" stroke-linecap="round" stroke-linejoin="round" d="M -25.653 687.693 L -25.912 687.663 Q -25.838 688.135 -21.434 683.720 "></path>
    <path id="STROKE_abe94bf5-0f82-4e38-9bbd-e8c6758f6d6a" opacity="1.000" fill="none" stroke="#000000" stroke-width="1.600" stroke-opacity="1.000" stroke-linecap="round" stroke-linejoin="round" d="M -26.602 681.575 Q -26.609 680.821 -26.579 680.979 Q -26.342 680.510 -26.331 680.510 Q -26.356 680.217 -21.296 675.471 L -21.293 675.457 "></path>
    <path id="STROKE_7de40b34-a980-44ff-b966-431ed1cc516b" opacity="1.000" fill="none" stroke="#000000" stroke-width="1.600" stroke-opacity="1.000" stroke-linecap="round" stroke-linejoin="round" d="M -15.456 689.311 L -15.361 689.322 L -15.352 689.326 Q -15.205 689.210 -15.249 689.270 Q -15.293 689.331 -15.065 689.077 Q -14.837 688.824 -14.588 688.449 Q -14.339 688.074 -14.260 687.795 Q -14.180 687.516 -14.096 687.266 Q -14.013 687.015 -13.963 686.768 Q -13.913 686.522 -14.048 686.046 Q -14.183 685.569 -14.564 684.920 Q -14.944 684.271 -15.471 683.886 Q -15.997 683.501 -17.000 684.004 Q -18.003 684.507 -18.473 685.453 Q -18.942 686.399 -19.043 687.198 Q -19.143 687.997 -19.070 688.318 Q -18.997 688.638 -18.374 688.870 Q -17.750 689.102 -16.968 688.854 "></path>
    <path id="STROKE_ab26c69c-fd16-45cd-93cd-cf5aa6b26183" opacity="1.000" fill="none" stroke="#000000" stroke-width="1.600" stroke-opacity="1.000" stroke-linecap="round" stroke-linejoin="round" d="M -14.367 685.373 L -14.109 685.306 Q -13.599 685.992 -13.641 685.893 Q -13.032 686.396 -12.890 686.612 Q -12.748 686.828 -11.776 686.964 Q -10.805 687.100 -9.339 686.498 "></path>
    <path id="STROKE_a63e9ecd-e2a2-44a2-9f9d-31d7cf63a940" opacity="1.000" fill="none" stroke="#000000" stroke-width="1.600" stroke-opacity="1.000" stroke-linecap="round" stroke-linejoin="round" d="M -14.472 626.513 Q -14.496 627.291 -9.841 633.577 L -9.732 633.552 Q -9.727 633.518 -9.760 633.475 "></path>
    <path id="STROKE_82f4ea3b-e49b-4618-ad76-3a144c7c8e51" opacity="1.000" fill="none" stroke="#000000" stroke-width="1.600" stroke-opacity="1.000" stroke-linecap="round" stroke-linejoin="round" d="M -23.403 614.348 Q -22.947 615.230 -23.006 615.104 Q -22.816 616.271 -17.355 622.329 "></path>
    <path id="STROKE_d57c00df-2457-46e4-a05f-9475506c0f50" opacity="1.000" fill="none" stroke="#000000" stroke-width="1.600" stroke-opacity="1.000" stroke-linecap="round" stroke-linejoin="round" d="M -28.817 603.764 Q -28.855 603.732 -29.000 603.646 L -29.019 603.656 Q -28.557 604.260 -25.266 610.093 "></path>
    <path id="STROKE_66034e4f-51f8-44ba-8868-7d89d67af737" opacity="1.000" fill="none" stroke="#000000" stroke-width="1.600" stroke-opacity="1.000" stroke-linecap="round" stroke-linejoin="round" d="M 5.851 637.554 Q 6.736 636.568 6.495 636.814 Q 6.332 636.782 12.602 631.752 "></path>
    <path id="STROKE_3295856f-8659-45ea-a6a1-fdda0d212352" opacity="1.000" fill="none" stroke="#000000" stroke-width="1.600" stroke-opacity="1.000" stroke-linecap="round" stroke-linejoin="round" d="M 25.294 622.259 Q 25.707 622.094 30.604 617.231 "></path>
    <path id="STROKE_1ef6f998-126b-41d0-b8b7-d7434fda585e" opacity="1.000" fill="none" stroke="#000000" stroke-width="1.600" stroke-opacity="1.000" stroke-linecap="round" stroke-linejoin="round" d="M 41.257 608.054 Q 41.564 607.704 41.645 607.609 Q 41.727 607.515 42.011 607.175 Q 42.294 606.836 42.630 606.505 Q 42.966 606.175 43.224 605.904 Q 43.481 605.633 43.481 605.634 Q 43.482 605.636 43.816 605.243 Q 44.150 604.850 45.336 603.905 "></path>
    <path id="STROKE_13ccb591-fc79-4c55-a9e8-131124d67b79" opacity="1.000" fill="none" stroke="#e55951" stroke-width="1.600" stroke-opacity="1.000" stroke-linecap="round" stroke-linejoin="round" d="M -66.298 705.661 Q -65.960 704.856 -66.034 705.063 Q -65.680 704.547 -65.671 704.561 Q -65.638 704.527 -65.632 704.523 Q -65.626 704.518 -65.029 704.137 Q -64.433 703.756 -64.525 703.818 Q -64.618 703.880 -64.341 703.879 Q -64.064 703.878 -64.032 703.931 Q -64.000 703.984 -64.003 704.300 Q -64.006 704.617 -64.244 705.340 Q -64.482 706.064 -64.693 706.476 Q -64.904 706.888 -64.994 707.106 Q -65.084 707.324 -65.383 707.583 Q -65.681 707.842 -65.882 707.895 Q -66.084 707.947 -66.104 707.929 Q -66.124 707.911 -66.117 707.922 Q -66.110 707.933 -66.366 707.774 Q -66.622 707.616 -66.825 707.327 Q -67.028 707.039 -66.858 706.166 Q -66.689 705.294 -66.101 704.874 Q -65.514 704.454 -65.471 704.414 Q -65.428 704.375 -64.858 704.606 Q -64.288 704.836 -64.228 705.272 Q -64.168 705.707 -64.182 705.732 Q -64.196 705.756 -64.466 706.174 Q -64.736 706.592 -64.754 706.525 Q -65.207 706.580 -65.205 706.537 Q -65.102 706.866 -65.469 706.056 Q -65.836 705.245 -65.475 704.365 Q -65.114 703.485 -64.772 703.196 Q -64.430 702.906 -64.339 702.868 Q -64.248 702.829 -64.276 702.853 Q -64.303 702.877 -63.904 702.854 Q -63.505 702.830 -63.422 702.866 Q -63.338 702.903 -63.333 702.907 Q -63.328 702.911 -63.142 703.274 Q -62.955 703.638 -62.945 703.849 Q -62.936 704.060 -63.085 704.380 Q -63.234 704.699 -63.278 704.739 Q -63.322 704.778 -63.477 704.953 Q -63.632 705.128 -63.812 705.207 Q -63.992 705.286 -64.145 705.409 Q -64.299 705.533 -64.726 705.656 Q -65.154 705.778 -65.744 705.454 Q -66.334 705.130 -66.293 705.102 Q -66.252 705.074 -66.202 705.010 Q -66.152 704.946 -66.178 704.829 Q -66.205 704.711 -65.634 704.392 Q -65.064 704.074 -64.332 703.990 Q -63.600 703.906 -63.064 704.043 "></path>
    <path id="STROKE_25395fb2-f424-4b88-a24c-6c2d48156f1a" opacity="1.000" fill="none" stroke="#e55951" stroke-width="1.600" stroke-opacity="1.000" stroke-linecap="round" stroke-linejoin="round" d="M -3.748 643.355 Q -3.772 643.296 -3.236 641.916 Q -2.700 640.537 -1.083 640.280 Q -0.811 640.585 -0.855 641.812 Q -0.898 643.039 -1.459 644.062 Q -2.019 645.086 -2.352 645.597 Q -2.684 646.109 -3.210 646.523 Q -3.735 646.938 -4.290 647.062 Q -4.844 647.187 -5.062 647.065 Q -5.280 646.944 -5.252 646.852 Q -5.224 646.761 -5.130 646.270 Q -5.036 645.779 -4.423 645.249 Q -3.810 644.720 -3.435 644.584 Q -3.060 644.448 -2.311 644.495 Q -1.562 644.543 -1.668 645.286 Q -1.774 646.028 -2.350 646.478 Q -2.925 646.927 -3.465 647.249 Q -4.004 647.570 -4.569 647.475 Q -5.134 647.379 -5.180 647.109 Q -5.227 646.840 -5.200 646.788 Q -5.172 646.735 -4.865 646.009 Q -4.557 645.283 -3.745 644.526 Q -2.934 643.770 -1.218 643.939 Q -2.052 644.192 -1.863 644.159 Q -1.674 644.126 -2.556 644.044 Q -2.495 643.943 -2.201 643.777 "></path>
    <path id="STROKE_c7911232-d072-478c-b3f6-ea2dbe6553df" opacity="1.000" fill="none" stroke="#e55951" stroke-width="1.600" stroke-opacity="1.000" stroke-linecap="round" stroke-linejoin="round" d="M 65.518 759.527 L 65.431 759.545 Q 64.770 759.206 64.924 759.285 Q 65.078 759.365 64.966 759.298 Q 64.854 759.232 64.444 758.829 Q 64.034 758.426 64.169 758.502 Q 64.304 758.578 64.257 758.534 Q 64.529 758.001 64.542 758.006 Q 64.930 757.354 65.149 757.219 Q 65.367 757.083 66.098 757.079 Q 66.829 757.075 66.788 757.229 Q 66.748 757.383 66.789 757.430 Q 66.872 757.925 66.854 757.934 Q 66.873 757.858 66.664 758.387 Q 66.455 758.917 66.219 758.999 Q 65.984 759.082 65.357 759.004 Q 64.731 758.926 64.554 758.840 Q 64.377 758.753 64.314 758.556 Q 64.251 758.358 64.197 758.125 Q 64.142 757.891 64.191 757.950 Q 64.240 758.010 64.285 757.711 Q 64.331 757.412 65.092 756.366 Q 65.852 755.320 67.971 755.273 Q 67.542 756.430 67.615 756.120 Q 67.089 757.332 64.147 757.520 Q 63.205 757.410 66.258 754.997 Q 66.830 755.359 64.107 757.460 L 64.097 757.451 Q 64.103 757.415 64.182 757.277 "></path>
    <path id="STROKE_6751bbc7-78dc-4d88-be71-30f0e2ce4d10" opacity="1.000" fill="none" stroke="#000000" stroke-width="1.600" stroke-opacity="1.000" stroke-linecap="round" stroke-linejoin="round" d="M -16.277 814.601 Q -16.394 815.174 -16.356 815.090 Q -16.098 815.380 -18.952 827.131 Q -18.970 827.149 -17.844 823.660 Q -16.719 820.171 -15.919 817.739 Q -15.119 815.307 -14.745 814.224 Q -14.370 813.141 -14.366 812.638 Q -14.361 812.135 -14.249 811.706 Q -14.212 811.750 -13.458 813.399 Q -12.703 815.049 -11.959 817.059 Q -11.216 819.070 -10.695 821.023 Q -10.173 822.975 -9.783 826.831 "></path>
    <path id="STROKE_760e55c3-0581-4c83-a680-0acf3de09834" opacity="1.000" fill="none" stroke="#000000" stroke-width="1.600" stroke-opacity="1.000" stroke-linecap="round" stroke-linejoin="round" d="M -16.699 824.188 L -16.706 824.141 Q -16.120 823.963 -16.153 823.982 Q -15.465 823.801 -11.751 822.867 "></path>
    <path id="STROKE_b245d23c-b6b5-4236-9ebf-78523f75732f" opacity="1.000" fill="none" stroke="#000000" stroke-width="1.600" stroke-opacity="1.000" stroke-linecap="round" stroke-linejoin="round" d="M -5.959 823.007 Q -6.092 822.984 -6.184 822.978 Q -6.436 822.948 -5.338 823.164 L -5.312 823.148 "></path>
    <circle id="STROKE_4c7ba225-5786-4d41-a9d2-e613091dd744" opacity="1.000" fill="#000000" stroke="#000000" stroke-width="0.1" stroke-opacity="1.000" fill-opacity="1.000" cx="-0.589" cy="822.023" r="0.800"></circle>
    <path id="STROKE_a5237696-3c3a-491c-a853-eed066054d5a" opacity="1.000" fill="none" stroke="#000000" stroke-width="1.600" stroke-opacity="1.000" stroke-linecap="round" stroke-linejoin="round" d="M 3.544 821.123 Q 3.444 821.070 3.112 820.947 L 3.112 820.913 Q 3.141 820.905 3.909 821.123 "></path>
    <path id="STROKE_35ac110d-a412-4b52-baf0-c4ddef6e971d" opacity="1.000" fill="none" stroke="#000000" stroke-width="1.600" stroke-opacity="1.000" stroke-linecap="round" stroke-linejoin="round" d="M 10.460 815.922 Q 10.485 815.756 10.553 818.873 Q 10.620 821.989 11.332 825.538 "></path>
    <path id="STROKE_e547e5d5-3fb3-4ab9-8b31-c527f2119100" opacity="1.000" fill="none" stroke="#000000" stroke-width="1.600" stroke-opacity="1.000" stroke-linecap="round" stroke-linejoin="round" d="M 11.248 817.328 Q 10.935 816.810 10.811 815.874 Q 10.687 814.937 10.923 814.590 Q 11.160 814.244 11.700 813.809 Q 12.240 813.374 12.717 813.174 Q 13.194 812.975 13.865 813.019 Q 14.536 813.063 14.763 813.895 Q 14.991 814.727 14.925 815.022 Q 14.858 815.317 14.799 815.765 Q 14.740 816.213 14.132 817.368 Q 13.523 818.523 12.801 819.129 Q 12.078 819.735 11.331 819.938 L 11.319 819.919 Q 11.399 819.659 12.992 819.602 Q 14.585 819.545 15.515 819.935 Q 16.445 820.325 17.000 820.892 Q 17.554 821.460 17.765 822.175 Q 17.977 822.891 17.016 823.650 Q 16.055 824.409 15.311 824.803 Q 14.566 825.196 10.620 825.984 Q 10.614 825.961 10.629 825.931 "></path>
    <path id="STROKE_e566dcde-b334-4fa4-aa4d-8b4c98fee99f" opacity="1.000" fill="none" stroke="#000000" stroke-width="1.600" stroke-opacity="1.000" stroke-linecap="round" stroke-linejoin="round" d="M 21.172 821.292 L 21.084 821.173 Q 21.758 821.008 21.660 821.030 Q 21.562 821.051 22.297 820.983 "></path>
    <path id="STROKE_2ddb64a0-d7a1-41b7-94d4-1eb2871a9d0d" opacity="1.000" fill="none" stroke="#000000" stroke-width="1.600" stroke-opacity="1.000" stroke-linecap="round" stroke-linejoin="round" d="M 26.177 819.718 Q 26.087 819.721 25.935 819.735 Q 25.782 819.750 25.312 820.158 Q 25.277 820.269 26.064 820.224 "></path>
    <path id="STROKE_143cee1f-3ac4-4c48-9c62-fabf142d7db6" opacity="1.000" fill="none" stroke="#000000" stroke-width="1.600" stroke-opacity="1.000" stroke-linecap="round" stroke-linejoin="round" d="M 28.454 819.549 Q 28.008 819.441 28.031 819.459 Q 27.977 819.472 27.853 819.569 Q 27.910 819.704 30.169 819.437 "></path>
    <path id="STROKE_0f7568bf-c6e4-45e6-8cc7-42d95bdf1c7e" opacity="1.000" fill="none" stroke="#000000" stroke-width="1.600" stroke-opacity="1.000" stroke-linecap="round" stroke-linejoin="round" d="M 36.579 816.034 Q 36.733 815.843 35.480 816.939 Q 34.227 818.034 33.393 819.539 Q 32.559 821.043 32.385 822.198 Q 32.210 823.352 32.566 824.609 Q 32.921 825.865 33.873 826.348 Q 34.825 826.830 35.610 826.880 Q 36.395 826.931 37.339 826.719 "></path>
    <path id="STROKE_f24406cf-0f05-46a1-99c8-163127ef5f83" opacity="1.000" fill="none" stroke="#000000" stroke-width="1.600" stroke-opacity="1.000" stroke-linecap="round" stroke-linejoin="round" d="M 123.849 705.033 Q 123.578 705.554 123.616 705.458 Q 123.361 705.529 119.260 714.107 Q 119.476 714.002 121.080 711.557 Q 122.684 709.112 123.635 707.779 Q 124.586 706.446 125.287 705.770 Q 125.988 705.094 126.338 704.906 Q 126.689 704.719 126.809 704.743 Q 126.930 704.768 127.021 704.831 Q 127.113 704.895 127.309 705.166 Q 127.504 705.438 127.505 705.439 Q 127.505 705.440 127.603 705.708 Q 127.701 705.977 127.739 706.765 Q 127.777 707.552 131.750 715.042 "></path>
    <path id="STROKE_205395e0-04de-465f-88e7-3bd77cf71e4e" opacity="1.000" fill="none" stroke="#000000" stroke-width="1.600" stroke-opacity="1.000" stroke-linecap="round" stroke-linejoin="round" d="M 125.733 708.519 L 125.786 708.486 Q 126.077 708.142 125.662 716.245 Q 125.247 724.347 124.803 729.328 Q 124.358 734.309 124.257 736.792 Q 124.156 739.274 123.833 741.614 Q 123.510 743.954 123.389 746.099 Q 123.269 748.244 124.440 751.368 "></path>
    <path id="STROKE_934a69df-ed06-4377-b562-f326ff2f183c" opacity="1.000" fill="none" stroke="#000000" stroke-width="1.600" stroke-opacity="1.000" stroke-linecap="round" stroke-linejoin="round" d="M 123.596 750.721 Q 123.607 750.671 123.654 750.631 Q 123.927 750.854 124.080 752.023 Q 124.233 753.193 124.218 754.546 Q 124.203 755.900 124.155 756.841 Q 124.107 757.782 124.018 760.534 "></path>
    <path id="STROKE_6286672a-9d23-4881-aa1c-34e87d97437b" opacity="1.000" fill="none" stroke="#000000" stroke-width="1.600" stroke-opacity="1.000" stroke-linecap="round" stroke-linejoin="round" d="M 119.829 755.838 Q 119.529 755.896 119.550 755.920 Q 119.513 756.396 119.511 756.398 Q 119.270 756.776 120.349 758.629 Q 121.428 760.483 121.995 761.467 Q 122.562 762.451 122.910 762.962 Q 123.259 763.473 123.528 763.510 Q 123.798 763.547 124.074 763.357 Q 124.351 763.166 124.433 763.081 Q 124.515 762.996 124.909 762.387 Q 125.304 761.778 129.332 755.923 "></path>
    <path id="STROKE_dba28580-cc3b-47e9-ba71-e4f07150d4cd" opacity="1.000" fill="none" stroke="#000000" stroke-width="1.600" stroke-opacity="1.000" stroke-linecap="round" stroke-linejoin="round" d="M 142.265 725.586 Q 142.051 726.072 140.918 728.401 Q 139.785 730.729 138.864 733.082 Q 137.944 735.434 136.595 737.808 L 136.585 737.809 Q 136.434 737.656 138.385 736.355 Q 138.252 736.258 138.359 736.245 Q 138.466 736.231 137.721 736.379 L 137.690 736.424 L 137.654 736.438 "></path>
    <path id="STROKE_bf63a03d-720f-4c36-a44c-14585af37a38" opacity="1.000" fill="none" stroke="#000000" stroke-width="1.600" stroke-opacity="1.000" stroke-linecap="round" stroke-linejoin="round" d="M 142.968 726.092 Q 142.816 726.372 142.836 726.366 Q 142.693 726.591 143.795 730.180 Q 144.897 733.769 147.213 737.929 "></path>
    <path id="STROKE_6d1ede23-90ee-4a5c-873e-eced8e4defa4" opacity="1.000" fill="none" stroke="#000000" stroke-width="1.600" stroke-opacity="1.000" stroke-linecap="round" stroke-linejoin="round" d="M 140.213 738.744 Q 140.124 738.695 146.482 738.885 "></path>
    <path id="STROKE_728dcc2c-edf6-41ce-9b58-6c774486d6f4" opacity="1.000" fill="none" stroke="#000000" stroke-width="1.600" stroke-opacity="1.000" stroke-linecap="round" stroke-linejoin="round" d="M 151.796 728.060 L 151.841 728.085 Q 151.944 728.714 151.936 728.687 Q 151.987 728.589 151.952 729.861 Q 151.917 731.134 151.729 733.399 Q 151.542 735.665 151.458 736.878 Q 151.374 738.092 151.535 738.746 Q 151.696 739.401 151.794 739.544 Q 151.893 739.687 152.460 739.805 Q 153.027 739.924 158.206 736.579 "></path>
    <path id="STROKE_4a1ed3a7-8140-4041-b3bb-4eddc8f29fd6" opacity="1.000" fill="none" stroke="#000000" stroke-width="1.600" stroke-opacity="1.000" stroke-linecap="round" stroke-linejoin="round" d="M 152.499 734.976 Q 151.919 734.904 151.976 734.902 Q 151.895 734.875 151.798 734.834 Q 151.284 734.497 158.460 731.068 "></path>
    <path id="STROKE_d4078c76-80ac-4bc0-847e-b5b1759acb36" opacity="1.000" fill="none" stroke="#000000" stroke-width="1.600" stroke-opacity="1.000" stroke-linecap="round" stroke-linejoin="round" d="M 154.889 728.425 Q 154.290 728.411 155.212 727.369 Q 156.134 726.327 156.746 725.876 Q 157.359 725.424 158.082 724.980 Q 158.805 724.536 160.231 724.039 "></path>
  </g>
</svg>