<?xml version="1.0" encoding="UTF-8" standalone="yes"?>
<svg xmlns="http://www.w3.org/2000/svg" xmlns:xlink="http://www.w3.org/1999/xlink" width="283.511pt" height="250.837pt" version="1.1" viewBox="-172.688 560.690 283.511 250.837">
  <!--
	Exported with Concepts: Smarter Sketching
	Version: 2024.9.7 on Microsoft Windows NT 10.0.22631.0
	https://concepts.app/
	-->
  <title>Drawing 2</title>
  <desc>Drawing exported from Concepts: Smarter Sketching</desc>
  <defs></defs>
  <g id="Pen" opacity="1.000">
    <path id="STROKE_0a0aba66-d2c6-41ba-bfe2-5313dfeb21a0" opacity="1.000" fill="none" stroke="#000000" stroke-width="1.600" stroke-opacity="1.000" stroke-linecap="round" stroke-linejoin="round" d="M -100.000 568.000 L -100.000 758.000 L -100.000 768.000 "></path>
    <path id="STROKE_179a745c-34eb-464a-8e2d-b965269ba388" opacity="1.000" fill="none" stroke="#000000" stroke-width="1.600" stroke-opacity="1.000" stroke-linecap="round" stroke-linejoin="round" d="M -100.000 768.000 L 90.000 768.000 L 100.000 768.000 "></path>
    <path id="STROKE_754dc064-9b03-432c-878c-61ae89c981b4" opacity="1.000" fill="none" stroke="#bb3e45" stroke-width="1.600" stroke-opacity="1.000" stroke-linecap="round" stroke-linejoin="round" d="M -100.246 668.574 Q -100.402 668.527 -98.318 669.158 Q -96.234 669.790 -94.658 670.268 Q -93.083 670.745 -88.839 672.032 Q -84.595 673.319 -81.398 674.288 Q -78.202 675.257 -72.027 677.129 Q -65.853 679.001 -61.764 680.240 Q -57.675 681.480 -55.679 682.085 Q -53.683 682.690 -52.443 683.066 Q -51.204 683.442 -50.676 683.602 Q -50.148 683.762 -42.646 686.036 Q -35.144 688.311 -31.086 689.541 Q -27.029 690.771 -25.290 691.298 Q -23.551 691.825 -22.272 692.213 Q -20.992 692.601 -20.077 692.879 Q -19.161 693.156 -16.481 693.969 Q -13.801 694.781 -12.440 695.194 Q -11.078 695.607 -10.423 695.805 Q -9.768 696.004 -9.287 696.150 Q -8.807 696.295 -6.459 697.007 Q -4.112 697.719 -1.207 698.599 Q 1.697 699.480 3.808 700.120 Q 5.919 700.760 7.832 701.340 Q 9.746 701.920 10.477 702.142 Q 11.208 702.363 12.705 702.817 Q 14.202 703.271 16.500 703.968 Q 18.799 704.665 20.855 705.288 Q 22.911 705.911 27.890 707.421 Q 32.869 708.930 35.370 709.688 Q 37.871 710.447 39.172 710.841 Q 40.473 711.236 42.787 711.937 Q 45.100 712.638 46.462 713.051 Q 47.824 713.464 48.666 713.720 Q 49.508 713.975 52.776 714.966 Q 56.044 715.956 64.133 718.408 Q 72.221 720.860 76.201 722.067 Q 80.182 723.274 81.981 723.820 Q 83.780 724.365 84.558 724.601 Q 85.335 724.836 85.759 724.965 Q 86.183 725.093 86.422 725.166 Q 86.662 725.239 86.378 725.153 Q 86.095 725.067 89.873 726.212 Q 89.224 726.015 89.289 726.035 Q 88.529 725.805 88.685 725.852 "></path>
    <path id="STROKE_2fbaac90-1271-4600-baef-90f4b44a586d" opacity="1.000" fill="none" stroke="#bb3e45" stroke-width="1.600" stroke-opacity="1.000" stroke-linecap="round" stroke-linejoin="round" d="M 84.336 724.533 Q 83.583 724.305 85.930 725.017 Q 88.277 725.728 90.064 726.270 Q 91.851 726.812 92.693 727.067 Q 93.534 727.322 93.855 727.419 Q 94.176 727.517 94.598 727.645 Q 95.020 727.773 95.013 727.770 Q 95.005 727.768 95.333 727.867 Q 95.660 727.967 95.410 727.891 Q 95.160 727.815 98.508 728.830 "></path>
    <path id="STROKE_3180b695-01be-4891-8504-c8d3572e2389" opacity="1.000" fill="none" stroke="#bb3e45" stroke-width="1.600" stroke-opacity="1.000" stroke-linecap="round" stroke-linejoin="round" d="M 20.186 680.956 Q 19.836 681.204 20.522 684.677 Q 21.208 688.149 21.935 690.269 Q 22.663 692.389 21.970 695.048 "></path>
    <path id="STROKE_23993c44-ff48-43ea-a89d-5883a0fbcd9f" opacity="1.000" fill="none" stroke="#bb3e45" stroke-width="1.600" stroke-opacity="1.000" stroke-linecap="round" stroke-linejoin="round" d="M 21.169 679.390 Q 21.444 679.250 22.620 679.032 Q 23.796 678.814 24.627 679.204 Q 25.458 679.594 25.940 680.192 Q 26.423 680.789 26.344 681.433 Q 26.265 682.077 26.084 682.405 Q 25.903 682.732 25.642 682.981 Q 25.380 683.229 24.555 684.050 Q 23.730 684.871 21.388 685.690 Q 21.856 685.090 22.968 684.941 Q 24.080 684.793 25.054 685.048 Q 26.028 685.304 26.641 686.073 Q 27.254 686.842 27.609 687.957 Q 27.964 689.071 26.877 690.582 Q 25.791 692.092 25.002 692.934 Q 24.214 693.776 19.822 695.339 "></path>
    <path id="STROKE_8ee7a81d-8d12-4ce4-8015-fac1ce272796" opacity="1.000" fill="none" stroke="#405ab9" stroke-width="1.600" stroke-opacity="1.000" stroke-linecap="round" stroke-linejoin="round" d="M -97.831 599.349 L -98.451 599.344 Q -98.159 599.346 -98.051 599.347 Q -98.233 599.346 -98.451 599.344 Q -98.206 599.346 -89.577 599.403 Q -80.949 599.460 -76.372 599.490 Q -71.796 599.520 -69.847 599.533 Q -67.899 599.546 -63.344 599.576 Q -58.790 599.606 -56.052 599.624 Q -53.313 599.642 -51.589 599.653 Q -49.864 599.665 -48.108 599.676 Q -46.352 599.688 -37.166 599.748 Q -27.980 599.809 -23.061 599.841 Q -18.142 599.874 -15.704 599.890 Q -13.266 599.906 -11.570 599.917 Q -9.874 599.928 -6.732 599.949 Q -3.591 599.970 2.733 600.011 Q 9.056 600.053 12.262 600.074 Q 15.469 600.095 18.146 600.113 Q 20.823 600.130 23.192 600.146 Q 25.560 600.162 26.909 600.171 Q 28.257 600.180 29.003 600.184 Q 29.749 600.189 30.902 600.197 Q 32.055 600.205 35.635 600.228 Q 39.215 600.252 43.123 600.277 Q 47.032 600.303 49.050 600.317 Q 51.069 600.330 51.896 600.335 Q 52.724 600.341 53.492 600.346 Q 54.261 600.351 54.673 600.354 Q 55.086 600.356 55.482 600.359 Q 55.879 600.362 55.590 600.360 Q 55.300 600.358 58.464 600.379 Q 61.628 600.399 64.619 600.419 Q 67.610 600.439 69.183 600.449 Q 70.757 600.460 73.440 600.477 Q 76.123 600.495 77.498 600.504 Q 78.873 600.513 79.544 600.518 Q 80.216 600.522 80.515 600.524 Q 80.815 600.526 80.923 600.527 Q 81.032 600.527 81.224 600.529 Q 81.415 600.530 81.572 600.531 Q 81.729 600.532 81.914 600.533 Q 82.099 600.534 82.450 600.537 Q 82.800 600.539 82.986 600.540 Q 83.171 600.541 83.358 600.543 Q 83.546 600.544 83.702 600.545 Q 83.859 600.546 83.971 600.547 Q 84.084 600.547 83.961 600.547 Q 83.838 600.546 84.977 600.553 Q 86.116 600.561 88.459 600.576 Q 90.802 600.592 91.733 600.598 Q 92.664 600.604 93.777 600.611 Q 94.890 600.619 98.293 600.641 L 97.893 600.638 "></path>
    <path id="STROKE_8d05f796-8987-4d97-aa63-1704e944e672" opacity="1.000" fill="none" stroke="#405ab9" stroke-width="1.600" stroke-opacity="1.000" stroke-linecap="round" stroke-linejoin="round" d="M -38.731 606.783 Q -38.680 606.723 -38.094 606.601 Q -37.297 607.155 -37.362 611.709 Q -37.427 616.263 -37.631 619.171 Q -37.836 622.079 -38.840 624.807 "></path>
    <path id="STROKE_11c752bc-83cb-4bb5-adfe-c10349165f1c" opacity="1.000" fill="none" stroke="#405ab9" stroke-width="1.600" stroke-opacity="1.000" stroke-linecap="round" stroke-linejoin="round" d="M -38.149 606.601 Q -37.830 606.562 -36.380 606.209 Q -34.930 605.855 -33.256 606.407 Q -31.582 606.960 -30.456 607.768 Q -29.330 608.577 -28.297 610.352 Q -27.263 612.128 -27.154 613.839 Q -27.044 615.549 -27.647 617.361 Q -28.249 619.172 -31.233 620.993 Q -34.218 622.814 -38.440 624.043 "></path>
    <path id="STROKE_3a8bad3a-032d-4805-9d66-600713d119db" opacity="1.000" fill="none" stroke="#71c047" stroke-width="1.600" stroke-opacity="1.000" stroke-linecap="round" stroke-linejoin="round" d="M -100.067 765.924 Q -99.269 765.797 -99.248 765.794 Q -99.228 765.791 -99.155 765.779 Q -99.081 765.768 -99.264 765.797 Q -99.448 765.826 -95.175 765.150 Q -90.902 764.474 -88.177 764.044 Q -85.452 763.613 -84.150 763.407 Q -82.847 763.201 -79.116 762.611 Q -75.385 762.021 -72.356 761.542 Q -69.328 761.063 -67.880 760.834 Q -66.432 760.605 -65.940 760.527 Q -65.448 760.449 -63.811 760.191 Q -62.175 759.932 -61.102 759.762 Q -60.029 759.592 -59.405 759.494 Q -58.781 759.395 -59.105 759.446 Q -59.430 759.498 -52.984 758.479 Q -46.538 757.459 -42.645 756.844 Q -38.751 756.228 -35.597 755.729 Q -32.443 755.230 -30.929 754.991 Q -29.415 754.752 -26.387 754.273 Q -23.359 753.794 -20.788 753.388 Q -18.218 752.981 -12.556 752.086 Q -6.894 751.190 -3.711 750.687 Q -0.527 750.184 1.020 749.939 Q 2.567 749.694 9.843 748.544 Q 17.118 747.393 22.243 746.583 Q 27.367 745.773 31.196 745.167 Q 35.026 744.562 36.933 744.260 Q 38.839 743.959 39.287 743.888 Q 39.735 743.817 43.114 743.283 Q 46.494 742.748 51.579 741.944 Q 56.664 741.140 59.539 740.686 Q 62.414 740.231 63.415 740.073 Q 64.417 739.914 66.563 739.575 Q 68.709 739.236 69.705 739.078 Q 70.701 738.921 72.845 738.582 Q 74.989 738.243 75.759 738.121 Q 76.529 737.999 85.108 736.643 "></path>
    <path id="STROKE_c0a007ca-5319-404a-9331-6650e78c66c8" opacity="1.000" fill="none" stroke="#71c047" stroke-width="1.600" stroke-opacity="1.000" stroke-linecap="round" stroke-linejoin="round" d="M 80.245 737.411 Q 79.737 737.492 81.363 737.235 Q 82.989 736.978 85.602 736.564 Q 88.216 736.151 90.149 735.845 Q 92.082 735.540 92.565 735.463 Q 93.048 735.387 98.507 734.524 "></path>
    <path id="STROKE_0ab2c2db-fafa-4b13-92a7-5ccc699e1d64" opacity="1.000" fill="none" stroke="#000000" stroke-width="1.600" stroke-opacity="1.000" stroke-linecap="round" stroke-linejoin="round" d="M -103.475 569.023 Q -104.370 569.556 -104.130 569.551 Q -104.737 570.225 -109.410 577.689 Q -109.004 577.560 -106.784 574.574 Q -104.564 571.587 -102.724 569.234 Q -100.884 566.881 -99.251 565.163 Q -99.194 565.254 -99.189 566.698 Q -99.184 568.142 -98.385 569.108 Q -97.587 570.073 -96.750 570.565 Q -95.913 571.058 -94.517 571.281 "></path>
    <path id="STROKE_7644f955-694a-424e-b9ca-64e864bee857" opacity="1.000" fill="none" stroke="#000000" stroke-width="1.600" stroke-opacity="1.000" stroke-linecap="round" stroke-linejoin="round" d="M 96.035 760.555 Q 96.150 761.370 96.145 761.174 Q 96.389 761.408 99.116 763.333 Q 101.843 765.258 106.304 767.218 Q 106.261 767.156 106.353 767.132 Q 106.445 767.108 106.115 767.727 Q 105.785 768.346 103.598 769.446 Q 101.411 770.547 96.727 774.064 "></path>
    <path id="STROKE_f1a2a4f5-9c74-4462-bf1d-86bd496aebc0" opacity="1.000" fill="none" stroke="#000000" stroke-width="1.600" stroke-opacity="1.000" stroke-linecap="round" stroke-linejoin="round" d="M -147.025 663.150 Q -147.049 663.235 -148.478 671.314 Q -149.907 679.393 -151.759 687.620 "></path>
    <path id="STROKE_94de1bf3-716f-4f7c-ba21-7dac5acef30c" opacity="1.000" fill="none" stroke="#000000" stroke-width="1.600" stroke-opacity="1.000" stroke-linecap="round" stroke-linejoin="round" d="M -156.784 667.884 Q -156.784 667.811 -156.784 667.738 Q -156.825 667.856 -155.712 669.891 Q -154.599 671.926 -150.011 675.167 "></path>
    <path id="STROKE_be2d2572-8155-4699-aec9-d0f993af74ae" opacity="1.000" fill="none" stroke="#000000" stroke-width="1.600" stroke-opacity="1.000" stroke-linecap="round" stroke-linejoin="round" d="M -168.218 698.981 Q -167.721 699.664 -167.509 699.668 Q -167.297 699.672 -167.082 699.732 Q -166.868 699.793 -166.529 699.841 Q -166.190 699.889 -162.245 700.121 Q -158.299 700.354 -154.463 700.205 Q -150.628 700.056 -146.952 699.417 "></path>
    <path id="STROKE_65d99db2-a284-4246-8c4f-35b70f0c0ef8" opacity="1.000" fill="none" stroke="#000000" stroke-width="1.600" stroke-opacity="1.000" stroke-linecap="round" stroke-linejoin="round" d="M -162.319 712.126 Q -162.748 712.998 -159.855 715.462 Q -156.962 717.925 -155.082 719.386 Q -153.202 720.847 -151.358 721.666 "></path>
    <path id="STROKE_18e070c2-33b1-420d-bf5e-dc5855a6ca35" opacity="1.000" fill="none" stroke="#000000" stroke-width="1.600" stroke-opacity="1.000" stroke-linecap="round" stroke-linejoin="round" d="M -152.669 709.504 Q -153.725 709.901 -154.767 712.369 Q -155.809 714.837 -161.226 724.652 "></path>
    <path id="STROKE_ffa54445-ea8f-4c5b-884b-71694b5a3dcd" opacity="1.000" fill="none" stroke="#000000" stroke-width="1.600" stroke-opacity="1.000" stroke-linecap="round" stroke-linejoin="round" d="M -144.476 723.596 Q -144.419 723.083 -144.410 724.138 Q -144.401 725.193 -144.958 727.498 Q -145.515 729.804 -145.751 733.573 Q -145.550 733.312 -144.168 728.156 Q -142.787 722.999 -141.126 717.114 Q -140.151 717.532 -140.218 717.535 Q -140.286 717.538 -140.263 717.590 Q -140.241 717.641 -140.169 717.530 Q -140.098 717.419 -139.013 719.390 Q -137.928 721.361 -136.993 723.925 Q -136.058 726.489 -134.717 729.640 "></path>
    <path id="STROKE_ff71c464-2354-4f96-b5c3-ba5847482072" opacity="1.000" fill="none" stroke="#000000" stroke-width="1.600" stroke-opacity="1.000" stroke-linecap="round" stroke-linejoin="round" d="M -141.017 727.201 Q -141.017 727.237 -141.017 727.383 Q -141.592 727.504 -141.472 727.492 Q -141.581 727.528 -141.709 727.528 Q -141.896 727.270 -142.219 727.201 Q -142.219 727.146 -142.291 726.836 Q -141.386 726.662 -137.667 726.145 "></path>
    <path id="STROKE_7a7bcabb-cecb-48e0-8a3e-ef44435c1b72" opacity="1.000" fill="none" stroke="#000000" stroke-width="1.600" stroke-opacity="1.000" stroke-linecap="round" stroke-linejoin="round" d="M -139.961 682.267 Q -140.074 681.965 -139.558 683.041 Q -139.043 684.116 -139.384 685.208 Q -139.726 686.301 -140.034 686.678 Q -140.342 687.056 -140.798 687.414 Q -141.255 687.772 -143.311 686.891 "></path>
    <path id="STROKE_dea8b92c-6cba-479f-a85c-dcfb52a2ea96" opacity="1.000" fill="none" stroke="#000000" stroke-width="1.600" stroke-opacity="1.000" stroke-linecap="round" stroke-linejoin="round" d="M -143.602 675.968 Q -143.718 676.200 -141.818 675.421 "></path>
    <path id="STROKE_41a3c334-2ef9-47fa-8f10-73de4b3e289e" opacity="1.000" fill="none" stroke="#000000" stroke-width="1.600" stroke-opacity="1.000" stroke-linecap="round" stroke-linejoin="round" d="M -10.875 782.366 Q -11.211 782.431 -9.155 785.509 Q -7.100 788.587 -4.658 790.875 Q -2.216 793.162 0.377 794.637 "></path>
    <path id="STROKE_82ddd45e-59ba-4ce7-bff8-74a772986018" opacity="1.000" fill="none" stroke="#000000" stroke-width="1.600" stroke-opacity="1.000" stroke-linecap="round" stroke-linejoin="round" d="M -1.881 782.548 Q -1.868 782.667 -3.031 783.248 Q -4.193 783.829 -5.634 786.681 Q -7.074 789.534 -8.399 795.584 "></path>
    <path id="STROKE_28fb1486-39e0-4bbb-adf1-461602a6d81d" opacity="1.000" fill="none" stroke="#000000" stroke-width="1.600" stroke-opacity="1.000" stroke-linecap="round" stroke-linejoin="round" d="M 8.352 792.962 Q 8.252 793.664 8.206 793.672 Q 8.056 794.340 7.042 798.582 Q 6.029 802.824 4.419 807.054 Q 3.925 806.262 4.715 802.740 Q 5.505 799.219 6.646 797.009 Q 7.788 794.799 9.225 791.833 Q 9.578 791.823 9.925 791.992 Q 10.272 792.161 10.889 792.868 Q 11.506 793.575 11.655 793.915 Q 11.803 794.255 11.899 794.566 Q 11.996 794.877 12.398 795.644 Q 12.801 796.411 13.607 798.791 Q 14.413 801.171 14.756 802.692 Q 15.098 804.214 15.161 805.306 "></path>
    <path id="STROKE_a3d9faa7-e724-4a30-9c07-a41ba50e4b6a" opacity="1.000" fill="none" stroke="#000000" stroke-width="1.600" stroke-opacity="1.000" stroke-linecap="round" stroke-linejoin="round" d="M 7.878 801.119 Q 7.611 801.312 10.718 801.119 "></path>
    <path id="STROKE_6e217bfc-ab11-429a-a46a-acacd72d0c73" opacity="1.000" fill="none" stroke="#71c047" stroke-width="1.600" stroke-opacity="1.000" stroke-linecap="round" stroke-linejoin="round" d="M -15.343 734.675 Q -15.384 734.249 -16.816 735.512 Q -18.247 736.775 -19.283 738.124 Q -20.318 739.473 -20.833 740.475 Q -21.348 741.478 -21.638 742.355 Q -21.928 743.232 -21.530 743.946 Q -21.133 744.660 -18.696 744.294 Q -16.258 743.927 -13.658 743.100 "></path>
  </g>
</svg>