<?xml version="1.0" standalone="no" ?>
<!DOCTYPE svg PUBLIC "-//W3C//DTD SVG 1.1//EN" "http://www.w3.org/Graphics/SVG/1.1/DTD/svg11.dtd">
<svg width="661px" height="267px" viewBox="0 0 661 267" style="background-color: #ffffff00" xmlns="http://www.w3.org/2000/svg" xmlns:xlink="http://www.w3.org/1999/xlink" version="1.1" >
<path stroke="none" fill="#000000" transform="matrix(0.1 0 0 0.1 -222.05 -411.9)" d="M 2579.6,4685.14 L 2591.6,4692.06 L 2591.6,4972.94 L 2585.6,4976.4 L 2579.6,4972.94 L 2579.6,4685.14 Z " />
<path stroke="none" fill="#000000" transform="matrix(0.1 0 0 0.1 -222.05 -411.9)" d="M 2631.4,4718.51 L 2643.4,4718.51 L 2643.4,4946.49 L 2631.4,4946.49 L 2631.4,4718.51 Z " />
<path stroke="none" fill="#000000" transform="matrix(0.1 0 0 0.1 -222.05 -411.9)" d="M 2585.6,4983.33 L 2585.6,4976.4 L 2591.6,4972.94 L 2835,5113.47 L 2835,5127.33 L 2585.6,4983.33 Z " />
<path stroke="none" fill="#000000" transform="matrix(0.1 0 0 0.1 -222.05 -411.9)" d="M 2835,5127.33 L 2835,5113.47 L 3078.4,4972.94 L 3090.4,4979.86 L 2835,5127.33 Z " />
<path stroke="none" fill="#000000" transform="matrix(0.1 0 0 0.1 -222.05 -411.9)" d="M 2838,5065.74 L 2832,5055.35 L 3029.56,4941.28 L 3035.56,4951.67 L 2838,5065.74 Z " />
<path stroke="none" fill="#000000" transform="matrix(0.1 0 0 0.1 -222.05 -411.9)" d="M 3090.4,4979.86 L 3078.4,4972.94 L 3078.4,4692.06 L 3084.4,4688.6 L 3090.4,4692.06 L 3090.4,4979.86 Z " />
<path stroke="none" fill="#000000" transform="matrix(0.1 0 0 0.1 -222.05 -411.9)" d="M 3084.4,4681.67 L 3084.4,4688.6 L 3078.4,4692.06 L 2835,4551.53 L 2835,4537.67 L 3084.4,4681.67 Z " />
<path stroke="none" fill="#000000" transform="matrix(0.1 0 0 0.1 -222.05 -411.9)" d="M 3035.56,4713.33 L 3029.56,4723.72 L 2832,4609.65 L 2838,4599.26 L 3035.56,4713.33 Z " />
<path stroke="none" fill="#000000" transform="matrix(0.1 0 0 0.1 -222.05 -411.9)" d="M 2835,4537.67 L 2835,4551.53 L 2591.6,4692.06 L 2579.6,4685.14 L 2835,4537.67 Z " />
<path stroke="none" fill="#000000" transform="matrix(0.1 0 0 0.1 -222.05 -411.9)" d="M 3090.4,4692.06 L 3084.4,4688.6 L 3084.4,4681.67 L 3333.8,4537.67 L 3333.8,4551.53 L 3090.4,4692.06 Z " />
<text x="0" y="0" stroke="none" fill="#000000" transform="matrix(0.1 0 0 0.1 128.492 64.76)" font-style="normal" font-weight="normal" font-size="200px" font-family="Arial" >
OH</text>
<path stroke="none" fill="#000000" transform="matrix(0.1 0 0 0.1 -222.05 -411.9)" d="M 3333.8,4551.53 L 3333.8,4537.67 L 3500.72,4634.05 L 3494.72,4644.44 L 3333.8,4551.53 Z " />
<text x="0" y="0" stroke="none" fill="#000000" transform="matrix(0.1 0 0 0.1 103.552 21.56)" font-style="normal" font-weight="normal" font-size="200px" font-family="Arial" >
O</text>
<path stroke="none" fill="#000000" transform="matrix(0.1 0 0 0.1 -222.05 -411.9)" d="M 3313.88,4559.57 L 3301.88,4559.57 L 3301.88,4368.27 L 3313.88,4368.27 L 3313.88,4559.57 Z " />
<path stroke="none" fill="#000000" transform="matrix(0.1 0 0 0.1 -222.05 -411.9)" d="M 3365.72,4559.57 L 3353.72,4559.57 L 3353.72,4368.27 L 3365.72,4368.27 L 3365.72,4559.57 Z " />
<text x="0" y="0" stroke="none" fill="#000000" transform="matrix(0.1 0 0 0.1 4.34832 107.94)" font-style="normal" font-weight="normal" font-size="200px" font-family="Arial" >
R</text>
<path stroke="none" fill="#000000" transform="matrix(0.1 0 0 0.1 -222.05 -411.9)" d="M 2579.6,4972.94 L 2585.6,4976.4 L 2585.6,4983.33 L 2425.6,5075.71 L 2419.6,5065.32 L 2579.6,4972.94 Z " />
<path stroke="none" fill="#000000" transform="matrix(0.1 0 0 0.1 -222.05 -411.9)" d="M 6704.8,4741.14 L 6716.8,4748.06 L 6716.8,5029.14 L 6710.8,5032.6 L 6704.8,5029.14 L 6704.8,4741.14 Z " />
<path stroke="none" fill="#000000" transform="matrix(0.1 0 0 0.1 -222.05 -411.9)" d="M 6756.64,4774.53 L 6768.64,4774.53 L 6768.64,5002.67 L 6756.64,5002.67 L 6756.64,4774.53 Z " />
<path stroke="none" fill="#000000" transform="matrix(0.1 0 0 0.1 -222.05 -411.9)" d="M 6710.8,5039.53 L 6710.8,5032.6 L 6716.8,5029.14 L 6960.2,5169.67 L 6960.2,5183.53 L 6710.8,5039.53 Z " />
<path stroke="none" fill="#000000" transform="matrix(0.1 0 0 0.1 -222.05 -411.9)" d="M 6960.2,5183.53 L 6960.2,5169.67 L 7203.8,5029.13 L 7215.8,5036.07 L 6960.2,5183.53 Z " />
<path stroke="none" fill="#000000" transform="matrix(0.1 0 0 0.1 -222.05 -411.9)" d="M 6963.21,5121.91 L 6957.21,5111.51 L 7154.93,4997.45 L 7160.93,5007.84 L 6963.21,5121.91 Z " />
<path stroke="none" fill="#000000" transform="matrix(0.1 0 0 0.1 -222.05 -411.9)" d="M 7215.8,5036.07 L 7203.8,5029.13 L 7203.8,4748.07 L 7209.8,4744.6 L 7215.8,4748.06 L 7215.8,5036.07 Z " />
<path stroke="none" fill="#000000" transform="matrix(0.1 0 0 0.1 -222.05 -411.9)" d="M 7209.8,4737.67 L 7209.8,4744.6 L 7203.8,4748.07 L 6960.2,4607.53 L 6960.2,4593.67 L 7209.8,4737.67 Z " />
<path stroke="none" fill="#000000" transform="matrix(0.1 0 0 0.1 -222.05 -411.9)" d="M 7160.93,4769.36 L 7154.93,4779.75 L 6957.21,4665.68 L 6963.21,4655.29 L 7160.93,4769.36 Z " />
<path stroke="none" fill="#000000" transform="matrix(0.1 0 0 0.1 -222.05 -411.9)" d="M 6960.2,4593.67 L 6960.2,4607.53 L 6716.8,4748.06 L 6704.8,4741.14 L 6960.2,4593.67 Z " />
<path stroke="none" fill="#000000" transform="matrix(0.1 0 0 0.1 -222.05 -411.9)" d="M 7215.8,4748.06 L 7209.8,4744.6 L 7209.8,4737.67 L 7459.2,4593.67 L 7459.2,4607.53 L 7215.8,4748.06 Z " />
<text x="0" y="0" stroke="none" fill="#000000" transform="matrix(0.1 0 0 0.1 541.032 70.36)" font-style="normal" font-weight="normal" font-size="200px" font-family="Arial" >
O</text>
<path stroke="none" fill="#000000" transform="matrix(0.1 0 0 0.1 -222.05 -411.9)" d="M 7459.2,4607.53 L 7459.2,4593.67 L 7626.12,4690.05 L 7620.12,4700.44 L 7459.2,4607.53 Z " />
<text x="0" y="0" stroke="none" fill="#000000" transform="matrix(0.1 0 0 0.1 516.092 27.16)" font-style="normal" font-weight="normal" font-size="200px" font-family="Arial" >
O</text>
<path stroke="none" fill="#000000" transform="matrix(0.1 0 0 0.1 -222.05 -411.9)" d="M 7439.28,4615.57 L 7427.28,4615.57 L 7427.28,4424.27 L 7439.28,4424.27 L 7439.28,4615.57 Z " />
<path stroke="none" fill="#000000" transform="matrix(0.1 0 0 0.1 -222.05 -411.9)" d="M 7491.12,4615.57 L 7479.12,4615.57 L 7479.12,4424.27 L 7491.12,4424.27 L 7491.12,4615.57 Z " />
<text x="0" y="0" stroke="none" fill="#000000" transform="matrix(0.1 0 0 0.1 416.868 113.56)" font-style="normal" font-weight="normal" font-size="200px" font-family="Arial" >
R</text>
<path stroke="none" fill="#000000" transform="matrix(0.1 0 0 0.1 -222.05 -411.9)" d="M 6704.8,5029.14 L 6710.8,5032.6 L 6710.8,5039.53 L 6550.8,5131.91 L 6544.8,5121.52 L 6704.8,5029.14 Z " />
<path stroke="#000000" stroke-width="10" fill="none" transform="matrix(0.1 0 0 0.1 -222.05 -411.9)" d="M 7774.33,4607.73 A 71.7999,71.7999 0 1 0 7917.93,4607.73 A 71.7999,71.7999 0 1 0 7774.33,4607.73 Z " />
<path stroke="none" fill="#000000" transform="matrix(0.1 0 0 0.1 -222.05 -411.9)" d="M 7806.47,4602.4 L 7885.13,4602.4 L 7885.13,4612.4 L 7806.47,4612.4 Z " />
<text x="0" y="0" stroke="none" fill="#000000" transform="matrix(0.1 0 0 0.1 604.448 78.34)" font-style="normal" font-weight="normal" font-size="200px" font-family="Arial" >
H</text>
<text x="0" y="0" stroke="none" fill="#000000" transform="matrix(0.1 0 0 0.1 618.892 82.74)" font-style="normal" font-weight="normal" font-size="150px" font-family="Arial" >
3</text>
<text x="0" y="0" stroke="none" fill="#000000" transform="matrix(0.1 0 0 0.1 627.234 78.34)" font-style="normal" font-weight="normal" font-size="200px" font-family="Arial" >
O</text>
<path stroke="#000000" stroke-width="10" fill="none" transform="matrix(0.1 0 0 0.1 -222.05 -411.9)" d="M 8636.53,4667.53 A 71.7999,71.7999 0 1 0 8780.13,4667.53 A 71.7999,71.7999 0 1 0 8636.53,4667.53 Z " />
<path stroke="none" fill="#000000" transform="matrix(0.1 0 0 0.1 -222.05 -411.9)" d="M 8668.67,4662.2 L 8747.33,4662.2 L 8747.33,4672.2 L 8668.67,4672.2 Z " />
<path stroke="none" fill="#000000" transform="matrix(0.1 0 0 0.1 -222.05 -411.9)" d="M 8713,4627.87 L 8713,4706.53 L 8703,4706.53 L 8703,4627.87 Z " />
<text x="0" y="0" stroke="none" fill="#000000" transform="matrix(0.1 0 0 0.1 576.45 78.34)" font-style="normal" font-weight="normal" font-size="200px" font-family="Arial" >
+</text>
<text x="0" y="0" stroke="none" fill="#000000" transform="matrix(0.1 0 0 0.1 214.448 88.34)" font-style="normal" font-weight="normal" font-size="200px" font-family="Arial" >
H</text>
<text x="0" y="0" stroke="none" fill="#000000" transform="matrix(0.1 0 0 0.1 228.892 92.74)" font-style="normal" font-weight="normal" font-size="150px" font-family="Arial" >
2</text>
<text x="0" y="0" stroke="none" fill="#000000" transform="matrix(0.1 0 0 0.1 237.234 88.34)" font-style="normal" font-weight="normal" font-size="200px" font-family="Arial" >
O</text>
<text x="0" y="0" stroke="none" fill="#000000" transform="matrix(0.1 0 0 0.1 177.45 86.34)" font-style="normal" font-weight="normal" font-size="200px" font-family="Arial" >
+</text>
<path stroke="none" fill="#000000" transform="matrix(0.1 0 0 0.1 -222.05 -411.9)" d="M 5919,4880.4 L 5265,4880.4 L 5265,4868.4 L 5919,4868.4 Z " />
<path stroke="none" fill="#000000" transform="matrix(0.1 0 0 0.1 -222.05 -411.9)" d="M 5351,4904.4 L 6005,4904.4 L 6005,4916.4 L 5351,4916.4 Z " />
<path stroke="none" fill="#000000" transform="matrix(0.1 0 0 0.1 -222.05 -411.9)" d="M 6023,4880.4 C 6023,4880.4 5918,4880.4 5918,4880.4 C 5918,4860.4 5903,4842.4 5903,4842.4 C 5903,4842.4 6023,4880.4 6023,4880.4 C 6023,4880.4 6023,4880.4 6023,4880.4 " />
<path stroke="#000000" stroke-width="1" fill="none" transform="matrix(0.1 0 0 0.1 -222.05 -411.9)" d="M 6023,4880.4 C 6023,4880.4 5918,4880.4 5918,4880.4 C 5918,4860.4 5903,4842.4 5903,4842.4 C 5903,4842.4 6023,4880.4 6023,4880.4 C 6023,4880.4 6023,4880.4 6023,4880.4 " />
<path stroke="none" fill="#000000" transform="matrix(0.1 0 0 0.1 -222.05 -411.9)" d="M 5247,4904.4 C 5247,4904.4 5367,4942.4 5367,4942.4 C 5367,4942.4 5352,4912.4 5352,4904.4 C 5352,4904.4 5247,4904.4 5247,4904.4 C 5247,4904.4 5247,4904.4 5247,4904.4 " />
<path stroke="#000000" stroke-width="1" fill="none" transform="matrix(0.1 0 0 0.1 -222.05 -411.9)" d="M 5247,4904.4 C 5247,4904.4 5367,4942.4 5367,4942.4 C 5367,4942.4 5352,4912.4 5352,4904.4 C 5352,4904.4 5247,4904.4 5247,4904.4 C 5247,4904.4 5247,4904.4 5247,4904.4 " />
<text x="0" y="0" stroke="none" fill="#000000" transform="matrix(0.1 0 0 0.1 332.44 66.39)" font-style="italic" font-weight="normal" font-size="200px" font-family="Arial" >
K</text>
<path stroke="none" fill="#000000" transform="matrix(0.1 0 0 0.1 -222.05 -411.9)" d="M 2584.4,6173.14 L 2596.4,6180.06 L 2596.4,6461.14 L 2590.4,6464.6 L 2584.4,6461.13 L 2584.4,6173.14 Z " />
<path stroke="none" fill="#000000" transform="matrix(0.1 0 0 0.1 -222.05 -411.9)" d="M 2636.24,6206.53 L 2648.24,6206.53 L 2648.24,6434.67 L 2636.24,6434.67 L 2636.24,6206.53 Z " />
<path stroke="none" fill="#000000" transform="matrix(0.1 0 0 0.1 -222.05 -411.9)" d="M 2590.4,6471.53 L 2590.4,6464.6 L 2596.4,6461.14 L 2839.8,6601.67 L 2839.8,6615.53 L 2590.4,6471.53 Z " />
<path stroke="none" fill="#000000" transform="matrix(0.1 0 0 0.1 -222.05 -411.9)" d="M 2839.8,6615.53 L 2839.8,6601.67 L 3083.2,6461.14 L 3095.2,6468.06 L 2839.8,6615.53 Z " />
<path stroke="none" fill="#000000" transform="matrix(0.1 0 0 0.1 -222.05 -411.9)" d="M 2842.8,6553.94 L 2836.8,6543.55 L 3034.36,6429.48 L 3040.36,6439.87 L 2842.8,6553.94 Z " />
<path stroke="none" fill="#000000" transform="matrix(0.1 0 0 0.1 -222.05 -411.9)" d="M 3095.2,6468.06 L 3083.2,6461.14 L 3083.2,6180.06 L 3089.2,6176.6 L 3095.2,6180.06 L 3095.2,6468.06 Z " />
<path stroke="none" fill="#000000" transform="matrix(0.1 0 0 0.1 -222.05 -411.9)" d="M 3089.2,6169.67 L 3089.2,6176.6 L 3083.2,6180.06 L 2839.8,6039.53 L 2839.8,6025.67 L 3089.2,6169.67 Z " />
<path stroke="none" fill="#000000" transform="matrix(0.1 0 0 0.1 -222.05 -411.9)" d="M 3040.36,6201.33 L 3034.36,6211.72 L 2836.8,6097.65 L 2842.8,6087.26 L 3040.36,6201.33 Z " />
<path stroke="none" fill="#000000" transform="matrix(0.1 0 0 0.1 -222.05 -411.9)" d="M 2839.8,6025.67 L 2839.8,6039.53 L 2596.4,6180.06 L 2584.4,6173.14 L 2839.8,6025.67 Z " />
<path stroke="none" fill="#000000" transform="matrix(0.1 0 0 0.1 -222.05 -411.9)" d="M 3095.2,6180.06 L 3089.2,6176.6 L 3089.2,6169.67 L 3338.6,6025.67 L 3338.6,6039.53 L 3095.2,6180.06 Z " />
<text x="0" y="0" stroke="none" fill="#000000" transform="matrix(0.1 0 0 0.1 128.972 213.56)" font-style="normal" font-weight="normal" font-size="200px" font-family="Arial" >
OH</text>
<path stroke="none" fill="#000000" transform="matrix(0.1 0 0 0.1 -222.05 -411.9)" d="M 3338.6,6039.53 L 3338.6,6025.67 L 3505.52,6122.05 L 3499.52,6132.44 L 3338.6,6039.53 Z " />
<text x="0" y="0" stroke="none" fill="#000000" transform="matrix(0.1 0 0 0.1 104.032 170.36)" font-style="normal" font-weight="normal" font-size="200px" font-family="Arial" >
O</text>
<path stroke="none" fill="#000000" transform="matrix(0.1 0 0 0.1 -222.05 -411.9)" d="M 3318.68,6047.57 L 3306.68,6047.57 L 3306.68,5856.27 L 3318.68,5856.27 L 3318.68,6047.57 Z " />
<path stroke="none" fill="#000000" transform="matrix(0.1 0 0 0.1 -222.05 -411.9)" d="M 3370.52,6047.57 L 3358.52,6047.57 L 3358.52,5856.27 L 3370.52,5856.27 L 3370.52,6047.57 Z " />
<text x="0" y="0" stroke="none" fill="#000000" transform="matrix(0.1 0 0 0.1 4.80831 256.76)" font-style="normal" font-weight="normal" font-size="200px" font-family="Arial" >
R</text>
<path stroke="none" fill="#000000" transform="matrix(0.1 0 0 0.1 -222.05 -411.9)" d="M 2584.4,6461.13 L 2590.4,6464.6 L 2590.4,6471.53 L 2430.21,6563.95 L 2424.21,6553.55 L 2584.4,6461.13 Z " />
<path stroke="none" fill="#000000" transform="matrix(0.1 0 0 0.1 -222.05 -411.9)" d="M 6709.6,6229.34 L 6721.6,6236.26 L 6721.6,6517.34 L 6715.6,6520.8 L 6709.6,6517.34 L 6709.6,6229.34 Z " />
<path stroke="none" fill="#000000" transform="matrix(0.1 0 0 0.1 -222.05 -411.9)" d="M 6761.44,6262.73 L 6773.44,6262.73 L 6773.44,6490.87 L 6761.44,6490.87 L 6761.44,6262.73 Z " />
<path stroke="none" fill="#000000" transform="matrix(0.1 0 0 0.1 -222.05 -411.9)" d="M 6715.6,6527.73 L 6715.6,6520.8 L 6721.6,6517.34 L 6965,6657.87 L 6965,6671.73 L 6715.6,6527.73 Z " />
<path stroke="none" fill="#000000" transform="matrix(0.1 0 0 0.1 -222.05 -411.9)" d="M 6965,6671.73 L 6965,6657.87 L 7208.4,6517.34 L 7220.4,6524.26 L 6965,6671.73 Z " />
<path stroke="none" fill="#000000" transform="matrix(0.1 0 0 0.1 -222.05 -411.9)" d="M 6968,6610.14 L 6962,6599.75 L 7159.56,6485.68 L 7165.56,6496.07 L 6968,6610.14 Z " />
<path stroke="none" fill="#000000" transform="matrix(0.1 0 0 0.1 -222.05 -411.9)" d="M 7220.4,6524.26 L 7208.4,6517.34 L 7208.4,6236.26 L 7214.4,6232.8 L 7220.4,6236.26 L 7220.4,6524.26 Z " />
<path stroke="none" fill="#000000" transform="matrix(0.1 0 0 0.1 -222.05 -411.9)" d="M 7214.4,6225.87 L 7214.4,6232.8 L 7208.4,6236.26 L 6965,6095.73 L 6965,6081.87 L 7214.4,6225.87 Z " />
<path stroke="none" fill="#000000" transform="matrix(0.1 0 0 0.1 -222.05 -411.9)" d="M 7165.56,6257.53 L 7159.56,6267.92 L 6962,6153.85 L 6968,6143.46 L 7165.56,6257.53 Z " />
<path stroke="none" fill="#000000" transform="matrix(0.1 0 0 0.1 -222.05 -411.9)" d="M 6965,6081.87 L 6965,6095.73 L 6721.6,6236.26 L 6709.6,6229.34 L 6965,6081.87 Z " />
<path stroke="none" fill="#000000" transform="matrix(0.1 0 0 0.1 -222.05 -411.9)" d="M 7220.4,6236.26 L 7214.4,6232.8 L 7214.4,6225.87 L 7463.8,6081.87 L 7463.8,6095.73 L 7220.4,6236.26 Z " />
<text x="0" y="0" stroke="none" fill="#000000" transform="matrix(0.1 0 0 0.1 541.492 219.18)" font-style="normal" font-weight="normal" font-size="200px" font-family="Arial" >
O</text>
<path stroke="none" fill="#000000" transform="matrix(0.1 0 0 0.1 -222.05 -411.9)" d="M 7463.8,6095.73 L 7463.8,6081.87 L 7630.72,6178.25 L 7624.72,6188.64 L 7463.8,6095.73 Z " />
<text x="0" y="0" stroke="none" fill="#000000" transform="matrix(0.1 0 0 0.1 516.552 175.98)" font-style="normal" font-weight="normal" font-size="200px" font-family="Arial" >
O</text>
<path stroke="none" fill="#000000" transform="matrix(0.1 0 0 0.1 -222.05 -411.9)" d="M 7443.88,6103.77 L 7431.88,6103.77 L 7431.88,5912.47 L 7443.88,5912.47 L 7443.88,6103.77 Z " />
<path stroke="none" fill="#000000" transform="matrix(0.1 0 0 0.1 -222.05 -411.9)" d="M 7495.72,6103.77 L 7483.72,6103.77 L 7483.72,5912.47 L 7495.72,5912.47 L 7495.72,6103.77 Z " />
<text x="0" y="0" stroke="none" fill="#000000" transform="matrix(0.1 0 0 0.1 417.348 262.38)" font-style="normal" font-weight="normal" font-size="200px" font-family="Arial" >
R</text>
<path stroke="none" fill="#000000" transform="matrix(0.1 0 0 0.1 -222.05 -411.9)" d="M 6709.6,6517.34 L 6715.6,6520.8 L 6715.6,6527.73 L 6555.6,6620.11 L 6549.6,6609.72 L 6709.6,6517.34 Z " />
<path stroke="#000000" stroke-width="10" fill="none" transform="matrix(0.1 0 0 0.1 -222.05 -411.9)" d="M 7779.13,6095.73 A 71.7999,71.7999 0 1 0 7922.73,6095.73 A 71.7999,71.7999 0 1 0 7779.13,6095.73 Z " />
<path stroke="none" fill="#000000" transform="matrix(0.1 0 0 0.1 -222.05 -411.9)" d="M 7811.27,6090.4 L 7889.93,6090.4 L 7889.93,6100.4 L 7811.27,6100.4 Z " />
<text x="0" y="0" stroke="none" fill="#000000" transform="matrix(0.1 0 0 0.1 576.93 227.16)" font-style="normal" font-weight="normal" font-size="200px" font-family="Arial" >
+</text>
<text x="0" y="0" stroke="none" fill="#000000" transform="matrix(0.1 0 0 0.1 214.372 237.16)" font-style="normal" font-weight="normal" font-size="200px" font-family="Arial" >
OH</text>
<text x="0" y="0" stroke="none" fill="#000000" transform="matrix(0.1 0 0 0.1 177.93 235.16)" font-style="normal" font-weight="normal" font-size="200px" font-family="Arial" >
+</text>
<text x="0" y="0" stroke="none" fill="#000000" transform="matrix(0.1 0 0 0.1 335.45 216.34)" font-style="italic" font-weight="normal" font-size="200px" font-family="Arial" >
k</text>
<path stroke="#000000" stroke-width="10" fill="none" transform="matrix(0.1 0 0 0.1 -222.05 -411.9)" d="M 4657.73,6275.53 A 71.7999,71.7999 0 1 0 4801.33,6275.53 A 71.7999,71.7999 0 1 0 4657.73,6275.53 Z " />
<path stroke="none" fill="#000000" transform="matrix(0.1 0 0 0.1 -222.05 -411.9)" d="M 4689.87,6270.2 L 4768.53,6270.2 L 4768.53,6280.2 L 4689.87,6280.2 Z " />
<text x="0" y="0" stroke="none" fill="#000000" transform="matrix(0.1 0 0 0.1 606.448 229.34)" font-style="normal" font-weight="normal" font-size="200px" font-family="Arial" >
H</text>
<text x="0" y="0" stroke="none" fill="#000000" transform="matrix(0.1 0 0 0.1 620.892 233.74)" font-style="normal" font-weight="normal" font-size="150px" font-family="Arial" >
2</text>
<text x="0" y="0" stroke="none" fill="#000000" transform="matrix(0.1 0 0 0.1 629.234 229.34)" font-style="normal" font-weight="normal" font-size="200px" font-family="Arial" >
O</text>
<path stroke="none" fill="#000000" transform="matrix(0.1 0 0 0.1 -222.05 -411.9)" d="M 5936,6411 L 5275,6411 L 5275,6399 L 5936,6399 Z " />
<path stroke="none" fill="#000000" transform="matrix(0.1 0 0 0.1 -222.05 -411.9)" d="M 6040,6405 C 6040,6405 5920,6436 5920,6436 C 5920,6436 5935,6418.56 5935,6405 C 5935,6391 5920,6373 5920,6373 C 5920,6373 6040,6405 6040,6405 C 6040,6405 6040,6405 6040,6405 " />
<path stroke="#000000" stroke-width="1" fill="none" transform="matrix(0.1 0 0 0.1 -222.05 -411.9)" d="M 6040,6405 C 6040,6405 5920,6436 5920,6436 C 5920,6436 5935,6418.56 5935,6405 C 5935,6391 5920,6373 5920,6373 C 5920,6373 6040,6405 6040,6405 C 6040,6405 6040,6405 6040,6405 " />
</svg>
