<?xml version="1.0" encoding="UTF-8" standalone="yes"?>
<svg xmlns="http://www.w3.org/2000/svg" xmlns:xlink="http://www.w3.org/1999/xlink" width="387.402pt" height="269.534pt" version="1.1" viewBox="419.614 1653.256 387.402 269.534">
  <!--
	Exported with Concepts: Smarter Sketching
	Version: 2024.10.4 on Microsoft Windows NT 10.0.22631.0
	https://concepts.app/
	-->
  <title>Drawing 5</title>
  <desc>Drawing exported from Concepts: Smarter Sketching</desc>
  <defs></defs>
  <g id="Pen" opacity="1.000">
    <path id="STROKE_b982356c-1906-42fd-8c11-7bd700059018" opacity="1.000" fill="none" stroke="#000000" stroke-width="1.600" stroke-opacity="1.000" stroke-linecap="round" stroke-linejoin="round" d="M 512.000 1664.000 L 512.000 1776.000 L 512.000 1792.000 "></path>
    <path id="STROKE_262c5354-62db-4e9e-af38-88c79b1fa271" opacity="1.000" fill="none" stroke="#000000" stroke-width="1.600" stroke-opacity="1.000" stroke-linecap="round" stroke-linejoin="round" d="M 512.000 1792.000 L 512.000 1840.000 L 512.000 1856.000 "></path>
    <path id="STROKE_7cc1eef8-692a-4e58-b984-932604c9c948" opacity="1.000" fill="none" stroke="#000000" stroke-width="1.600" stroke-opacity="1.000" stroke-linecap="round" stroke-linejoin="round" d="M 512.000 1856.000 L 704.000 1856.000 L 704.000 1856.000 "></path>
    <path id="STROKE_f59a9c32-2bda-4a79-9653-6788c1e4dc7a" opacity="1.000" fill="none" stroke="#000000" stroke-width="1.600" stroke-opacity="1.000" stroke-linecap="round" stroke-linejoin="round" d="M 425.472 1767.747 Q 425.050 1768.680 425.177 1768.454 Q 424.949 1769.178 425.247 1769.526 Q 425.546 1769.873 425.864 1769.800 Q 426.182 1769.726 426.213 1769.764 Q 426.245 1769.801 427.474 1768.966 Q 428.704 1768.130 429.856 1766.987 Q 431.009 1765.843 432.623 1763.797 Q 434.238 1761.751 435.143 1759.536 Q 436.048 1757.321 436.334 1755.964 Q 436.620 1754.607 436.643 1752.935 Q 436.667 1751.263 436.476 1750.504 Q 436.284 1749.746 435.765 1749.404 Q 435.246 1749.062 434.940 1749.230 Q 434.633 1749.398 434.503 1749.345 Q 434.373 1749.291 433.601 1750.390 Q 432.829 1751.490 431.770 1756.946 Q 430.711 1762.402 429.814 1775.058 "></path>
    <path id="STROKE_ba47484c-e6be-482f-a3c4-8352995902fe" opacity="1.000" fill="none" stroke="#000000" stroke-width="1.600" stroke-opacity="1.000" stroke-linecap="round" stroke-linejoin="round" d="M 440.763 1768.155 Q 440.897 1768.387 440.901 1768.396 Q 440.904 1768.406 441.207 1768.512 Q 441.510 1768.618 441.879 1768.644 Q 442.248 1768.669 442.706 1768.686 Q 443.163 1768.703 444.369 1768.037 Q 445.575 1767.371 446.664 1766.113 Q 447.754 1764.855 448.204 1763.785 Q 448.655 1762.715 448.321 1761.761 Q 447.987 1760.806 447.061 1760.322 Q 446.135 1759.838 445.083 1759.501 Q 444.030 1759.164 443.291 1759.723 Q 442.553 1760.282 442.135 1760.694 Q 441.717 1761.107 441.427 1761.737 Q 441.138 1762.367 440.846 1762.686 Q 440.555 1763.004 440.731 1764.101 Q 440.906 1765.198 441.653 1766.262 "></path>
    <path id="STROKE_42d30a73-cc67-4e32-8767-a98cea29bad1" opacity="1.000" fill="none" stroke="#000000" stroke-width="1.600" stroke-opacity="1.000" stroke-linecap="round" stroke-linejoin="round" d="M 456.684 1766.411 Q 457.232 1766.729 457.222 1766.684 Q 457.306 1766.770 458.714 1766.446 Q 460.122 1766.122 461.092 1764.946 Q 462.062 1763.771 462.445 1762.839 Q 462.827 1761.908 461.969 1761.230 Q 461.111 1760.552 459.274 1760.326 Q 457.437 1760.100 455.546 1762.054 Q 455.323 1762.062 456.090 1762.328 "></path>
    <path id="STROKE_e3515429-5c8b-4032-8ae6-aab404a2eb08" opacity="1.000" fill="none" stroke="#000000" stroke-width="1.600" stroke-opacity="1.000" stroke-linecap="round" stroke-linejoin="round" d="M 461.175 1761.512 Q 461.215 1762.087 461.807 1766.456 Q 462.400 1770.825 462.779 1773.237 Q 463.158 1775.649 463.002 1777.184 Q 462.845 1778.719 462.516 1779.345 Q 462.187 1779.971 461.241 1780.822 Q 460.295 1781.672 459.211 1782.009 Q 458.127 1782.345 457.298 1782.447 Q 456.469 1782.549 454.346 1781.071 "></path>
    <path id="STROKE_447b8972-c521-46c9-a021-864203ef6c57" opacity="1.000" fill="none" stroke="#000000" stroke-width="1.600" stroke-opacity="1.000" stroke-linecap="round" stroke-linejoin="round" d="M 478.655 1751.417 Q 478.485 1751.436 478.301 1751.295 Q 478.117 1751.155 476.799 1752.816 Q 475.481 1754.477 474.371 1757.428 Q 473.260 1760.378 472.718 1762.002 Q 472.175 1763.626 471.433 1767.318 Q 470.691 1771.009 470.612 1774.331 Q 470.533 1777.652 471.169 1780.268 Q 471.805 1782.884 472.985 1785.063 Q 474.164 1787.242 475.121 1788.408 Q 476.078 1789.573 477.133 1790.238 "></path>
    <path id="STROKE_20b75e0e-bd1c-4abe-b5d3-14ab6e4909c0" opacity="1.000" fill="none" stroke="#000000" stroke-width="1.600" stroke-opacity="1.000" stroke-linecap="round" stroke-linejoin="round" d="M 485.595 1754.794 L 485.606 1754.500 Q 486.139 1755.429 484.556 1767.302 "></path>
    <path id="STROKE_16eed842-2c1c-4932-b1d0-cbc0a9cb0d55" opacity="1.000" fill="none" stroke="#000000" stroke-width="1.600" stroke-opacity="1.000" stroke-linecap="round" stroke-linejoin="round" d="M 487.673 1760.510 Q 487.912 1759.549 487.890 1759.730 Q 488.445 1758.701 490.528 1757.105 Q 492.611 1755.509 495.294 1754.778 Q 495.400 1754.873 495.430 1754.980 "></path>
    <path id="STROKE_67bcb001-bd12-4d98-910d-52c3b6c03470" opacity="1.000" fill="none" stroke="#000000" stroke-width="1.600" stroke-opacity="1.000" stroke-linecap="round" stroke-linejoin="round" d="M 490.197 1760.213 Q 490.171 1760.335 490.113 1760.207 Q 490.054 1760.078 490.010 1760.387 Q 489.965 1760.695 490.037 1761.091 Q 490.109 1761.486 490.181 1761.637 Q 490.252 1761.788 490.864 1762.888 Q 491.475 1763.988 494.094 1765.446 "></path>
    <path id="STROKE_24b3ad72-dc7b-4b65-b18c-930996c48ba0" opacity="1.000" fill="none" stroke="#000000" stroke-width="1.600" stroke-opacity="1.000" stroke-linecap="round" stroke-linejoin="round" d="M 477.579 1774.019 Q 477.679 1774.268 481.413 1774.123 Q 485.147 1773.977 492.609 1773.834 "></path>
    <path id="STROKE_b4058491-d36f-4de5-8cf5-fb040a446a61" opacity="1.000" fill="none" stroke="#000000" stroke-width="1.600" stroke-opacity="1.000" stroke-linecap="round" stroke-linejoin="round" d="M 484.593 1777.916 L 484.591 1777.774 Q 484.560 1778.182 484.065 1780.486 Q 483.571 1782.790 483.962 1786.749 "></path>
    <path id="STROKE_701366e1-a633-4672-bda7-c62a9350d887" opacity="1.000" fill="none" stroke="#000000" stroke-width="1.600" stroke-opacity="1.000" stroke-linecap="round" stroke-linejoin="round" d="M 484.444 1784.559 Q 484.162 1784.123 487.339 1782.170 Q 490.516 1780.217 494.532 1779.290 Q 494.645 1779.401 494.688 1779.475 "></path>
    <path id="STROKE_5a970f76-1f9f-4047-b92d-1fefcde66f49" opacity="1.000" fill="none" stroke="#000000" stroke-width="1.600" stroke-opacity="1.000" stroke-linecap="round" stroke-linejoin="round" d="M 488.416 1782.518 Q 488.653 1782.238 487.895 1783.117 Q 487.939 1783.425 488.580 1784.190 Q 489.221 1784.956 492.795 1786.638 "></path>
    <path id="STROKE_c1a6c118-ee50-4f62-96cd-dab5b55d7c1c" opacity="1.000" fill="none" stroke="#000000" stroke-width="1.600" stroke-opacity="1.000" stroke-linecap="round" stroke-linejoin="round" d="M 497.545 1784.448 Q 497.416 1784.518 497.436 1784.399 Q 497.455 1784.280 497.320 1784.451 Q 497.184 1784.623 497.026 1784.990 Q 496.869 1785.357 496.774 1785.623 Q 496.680 1785.889 496.505 1786.411 Q 496.329 1786.932 495.706 1788.954 Q 495.083 1790.975 494.576 1794.988 "></path>
    <path id="STROKE_d6247743-ea7c-4301-9520-604f9b6106ac" opacity="1.000" fill="none" stroke="#000000" stroke-width="1.600" stroke-opacity="1.000" stroke-linecap="round" stroke-linejoin="round" d="M 502.815 1784.931 Q 502.773 1785.512 502.801 1785.530 Q 503.904 1786.611 499.364 1799.442 "></path>
    <path id="STROKE_90894d57-23af-466f-ab80-8d8e64dd6ad9" opacity="1.000" fill="none" stroke="#000000" stroke-width="1.600" stroke-opacity="1.000" stroke-linecap="round" stroke-linejoin="round" d="M 496.246 1792.242 L 496.240 1792.211 Q 496.929 1791.891 496.894 1791.932 Q 497.416 1791.890 498.987 1791.482 Q 500.559 1791.073 502.184 1792.428 "></path>
    <path id="STROKE_66f5c74f-5e78-40a9-b9c0-abf2a21c7949" opacity="1.000" fill="none" stroke="#000000" stroke-width="1.600" stroke-opacity="1.000" stroke-linecap="round" stroke-linejoin="round" d="M 501.888 1750.563 Q 501.848 1750.530 501.785 1750.481 Q 501.460 1749.787 503.337 1753.391 Q 505.213 1756.994 506.154 1760.148 Q 507.094 1763.302 507.496 1766.728 Q 507.898 1770.155 507.729 1774.218 Q 507.561 1778.281 506.272 1783.817 Q 504.982 1789.353 503.298 1794.617 "></path>
    <path id="STROKE_e521af53-7f3d-41a6-8c94-137c95b0777c" opacity="1.000" fill="none" stroke="#000000" stroke-width="1.600" stroke-opacity="1.000" stroke-linecap="round" stroke-linejoin="round" d="M 579.082 1889.962 Q 578.891 1889.869 578.391 1889.675 Q 577.891 1889.481 577.345 1890.473 Q 576.798 1891.465 576.506 1892.374 Q 576.213 1893.283 576.301 1894.555 Q 576.388 1895.827 577.337 1897.197 Q 578.285 1898.566 579.624 1899.353 Q 580.962 1900.139 582.866 1900.028 Q 584.769 1899.917 586.412 1898.854 Q 588.055 1897.792 589.005 1896.585 Q 589.955 1895.377 590.325 1893.894 Q 590.695 1892.410 590.256 1891.137 Q 589.817 1889.865 589.091 1888.780 Q 588.364 1887.695 587.482 1886.818 Q 586.599 1885.941 585.261 1885.212 Q 583.924 1884.483 582.376 1884.397 Q 580.828 1884.310 579.729 1885.017 Q 579.595 1886.595 593.222 1885.212 "></path>
    <path id="STROKE_f005f566-32b6-4efe-b158-4554e65952fc" opacity="1.000" fill="none" stroke="#000000" stroke-width="1.600" stroke-opacity="1.000" stroke-linecap="round" stroke-linejoin="round" d="M 596.303 1901.059 Q 596.317 1901.037 596.378 1900.911 Q 596.584 1900.493 595.647 1905.930 Q 594.710 1911.367 593.594 1917.315 "></path>
    <path id="STROKE_381ca19f-b589-4a2f-9561-45e1b9376c04" opacity="1.000" fill="none" stroke="#000000" stroke-width="1.600" stroke-opacity="1.000" stroke-linecap="round" stroke-linejoin="round" d="M 597.862 1901.022 Q 598.224 1900.133 598.864 1899.365 Q 599.504 1898.597 600.072 1898.411 Q 600.639 1898.224 601.314 1898.230 Q 601.988 1898.236 602.555 1899.349 Q 603.121 1900.463 603.254 1901.776 Q 603.386 1903.088 601.919 1905.277 Q 600.453 1907.466 599.626 1908.332 Q 598.798 1909.199 598.078 1909.831 Q 597.357 1910.463 596.417 1909.661 L 596.335 1909.708 Q 596.326 1909.663 596.377 1909.264 Q 596.550 1909.257 596.742 1909.345 Q 596.934 1909.434 596.858 1909.386 Q 596.783 1909.338 597.209 1909.563 Q 597.635 1909.787 598.351 1911.256 Q 599.068 1912.724 599.421 1913.870 Q 599.775 1915.015 599.974 1915.492 Q 600.173 1915.969 600.563 1916.525 Q 600.952 1917.080 602.389 1917.055 "></path>
    <path id="STROKE_dac16657-17fa-48cd-89f2-8bae0cf0a131" opacity="1.000" fill="none" stroke="#000000" stroke-width="1.600" stroke-opacity="1.000" stroke-linecap="round" stroke-linejoin="round" d="M 511.203 1660.526 Q 509.886 1661.457 507.439 1668.050 Q 508.283 1667.479 509.510 1664.828 Q 510.738 1662.177 512.683 1658.728 Q 512.931 1659.543 512.957 1659.845 Q 512.984 1660.147 513.038 1660.510 Q 513.093 1660.873 513.343 1661.536 Q 513.592 1662.199 514.297 1663.354 Q 515.002 1664.508 519.628 1666.464 "></path>
    <path id="STROKE_e6c1d894-1aff-4ab4-a417-71b98d6ad3a6" opacity="1.000" fill="none" stroke="#000000" stroke-width="1.600" stroke-opacity="1.000" stroke-linecap="round" stroke-linejoin="round" d="M 702.446 1852.218 L 702.438 1852.205 Q 702.828 1851.816 706.435 1852.528 Q 710.041 1853.240 713.549 1855.178 Q 713.692 1855.693 710.975 1857.130 Q 708.258 1858.566 705.341 1861.125 "></path>
    <path id="STROKE_07ed6825-a4df-4797-a520-63173638636c" opacity="1.000" fill="none" stroke="#e55951" stroke-width="1.600" stroke-opacity="1.000" stroke-linecap="round" stroke-linejoin="round" d="M 520.850 1850.467 Q 520.685 1850.596 521.033 1850.324 Q 521.380 1850.053 523.355 1848.511 Q 525.330 1846.969 530.389 1843.020 Q 535.447 1839.071 538.095 1837.004 Q 540.742 1834.937 542.015 1833.943 Q 543.287 1832.950 543.878 1832.489 Q 544.468 1832.028 544.799 1831.770 Q 545.130 1831.511 545.739 1831.036 Q 546.348 1830.561 547.079 1829.990 Q 547.810 1829.418 549.616 1828.009 Q 551.422 1826.599 552.962 1825.397 Q 554.502 1824.194 558.625 1820.975 Q 562.749 1817.756 566.994 1814.442 Q 571.238 1811.128 579.849 1804.406 Q 588.459 1797.683 593.038 1794.108 Q 597.618 1790.533 599.681 1788.922 Q 601.744 1787.312 602.706 1786.561 Q 603.667 1785.810 608.636 1781.931 Q 613.605 1778.051 616.343 1775.914 Q 619.081 1773.776 621.978 1771.514 Q 624.876 1769.252 627.686 1767.058 Q 630.496 1764.864 644.917 1753.605 Q 659.339 1742.346 667.852 1735.699 Q 676.366 1729.052 680.226 1726.039 Q 684.085 1723.026 685.867 1721.634 Q 687.650 1720.243 688.511 1719.570 Q 689.373 1718.897 689.946 1718.450 Q 690.519 1718.002 691.181 1717.486 Q 691.842 1716.970 694.861 1714.613 Q 697.879 1712.256 702.325 1708.786 "></path>
    <path id="STROKE_2a6430ea-569b-4776-a548-4983331af11d" opacity="1.000" fill="none" stroke="#e55951" stroke-width="1.600" stroke-opacity="1.000" stroke-linecap="round" stroke-linejoin="round" d="M 703.522 1736.831 Q 703.429 1736.826 703.139 1736.746 Q 701.828 1735.223 704.169 1731.136 Q 706.510 1727.050 708.542 1724.802 Q 710.574 1722.554 711.711 1721.658 Q 712.848 1720.762 713.839 1720.332 Q 714.831 1719.902 716.070 1720.091 Q 717.308 1720.280 716.857 1722.470 Q 716.406 1724.660 715.776 1726.058 Q 715.146 1727.455 714.336 1728.167 Q 713.527 1728.878 710.425 1727.405 "></path>
    <path id="STROKE_9f223ac4-0d45-4673-a0d1-cce78ba46f2e" opacity="1.000" fill="none" stroke="#e55951" stroke-width="1.600" stroke-opacity="1.000" stroke-linecap="round" stroke-linejoin="round" d="M 726.013 1725.400 Q 726.016 1725.364 726.024 1725.229 Q 725.014 1724.878 734.620 1728.919 Q 734.497 1729.718 731.732 1730.681 Q 728.967 1731.644 727.575 1732.361 Q 726.183 1733.079 725.334 1733.691 Q 724.484 1734.303 724.140 1735.250 Q 724.222 1735.355 724.491 1735.458 "></path>
    <path id="STROKE_0101f98d-2818-4a4f-906c-ce60c91fead3" opacity="1.000" fill="none" stroke="#e55951" stroke-width="1.600" stroke-opacity="1.000" stroke-linecap="round" stroke-linejoin="round" d="M 703.040 1752.159 Q 703.196 1751.814 701.884 1753.058 Q 700.571 1754.303 698.973 1756.066 Q 697.375 1757.829 695.876 1759.913 Q 694.377 1761.997 693.457 1763.449 Q 692.537 1764.900 691.803 1766.837 Q 691.070 1768.774 690.922 1770.527 Q 690.775 1772.280 690.962 1773.994 Q 691.149 1775.709 695.246 1778.250 "></path>
    <path id="STROKE_040fdeee-305d-4fa8-b482-cd6cf7e8289d" opacity="1.000" fill="none" stroke="#e55951" stroke-width="1.600" stroke-opacity="1.000" stroke-linecap="round" stroke-linejoin="round" d="M 704.153 1766.708 Q 703.940 1766.874 704.238 1767.816 Q 704.535 1768.758 705.239 1769.464 Q 705.942 1770.170 707.013 1770.367 Q 708.084 1770.564 709.640 1769.998 Q 711.197 1769.432 711.833 1768.255 Q 712.470 1767.078 711.991 1766.133 Q 711.513 1765.188 710.648 1764.110 Q 709.783 1763.031 709.093 1762.533 Q 708.403 1762.035 707.574 1761.788 Q 706.745 1761.541 705.452 1761.910 Q 704.158 1762.280 703.262 1765.223 "></path>
    <path id="STROKE_6daf1647-5813-49b0-ab36-63f87af8498b" opacity="1.000" fill="none" stroke="#e55951" stroke-width="1.600" stroke-opacity="1.000" stroke-linecap="round" stroke-linejoin="round" d="M 712.244 1763.627 Q 711.036 1763.177 710.691 1764.934 Q 710.347 1766.691 710.786 1768.236 Q 711.226 1769.781 712.311 1770.690 Q 713.397 1771.598 714.542 1771.921 Q 715.687 1772.244 719.369 1771.310 "></path>
    <path id="STROKE_1635bad6-0390-453b-9035-7a3f71b60f39" opacity="1.000" fill="none" stroke="#e55951" stroke-width="1.600" stroke-opacity="1.000" stroke-linecap="round" stroke-linejoin="round" d="M 726.309 1763.516 Q 725.674 1763.935 725.274 1764.279 Q 724.875 1764.623 724.469 1765.253 Q 724.063 1765.884 723.535 1766.686 Q 723.007 1767.488 722.409 1768.829 Q 721.812 1770.170 721.573 1771.207 Q 721.333 1772.244 721.634 1773.039 Q 721.934 1773.834 723.674 1773.797 "></path>
    <path id="STROKE_70eede77-18b4-4859-9856-9185acacb535" opacity="1.000" fill="none" stroke="#e55951" stroke-width="1.600" stroke-opacity="1.000" stroke-linecap="round" stroke-linejoin="round" d="M 737.109 1765.223 Q 736.419 1764.961 733.776 1766.415 Q 731.133 1767.870 729.826 1769.336 Q 728.518 1770.802 728.258 1771.149 Q 727.998 1771.495 727.516 1772.829 Q 727.035 1774.163 727.840 1774.762 Q 728.644 1775.361 729.257 1775.499 Q 729.871 1775.637 730.398 1775.562 Q 730.926 1775.488 731.654 1775.318 "></path>
    <path id="STROKE_cf84d1b6-fda9-4e8c-afe3-c8ed74c919dc" opacity="1.000" fill="none" stroke="#e55951" stroke-width="1.600" stroke-opacity="1.000" stroke-linecap="round" stroke-linejoin="round" d="M 740.041 1769.677 Q 739.992 1769.704 739.880 1769.860 L 739.888 1769.892 L 739.905 1769.910 Q 740.048 1770.391 741.623 1769.893 Q 743.198 1769.395 744.082 1768.658 Q 744.967 1767.920 745.270 1767.387 Q 745.574 1766.853 745.591 1766.632 Q 745.608 1766.412 745.545 1766.166 Q 745.482 1765.920 745.405 1765.679 Q 745.328 1765.438 745.092 1765.232 Q 744.857 1765.026 744.619 1764.810 Q 744.381 1764.594 743.643 1764.472 Q 742.905 1764.351 742.098 1765.189 Q 741.292 1766.027 741.221 1766.072 Q 741.150 1766.118 740.513 1767.846 Q 739.877 1769.574 739.955 1770.807 Q 740.033 1772.041 740.296 1772.982 Q 740.559 1773.924 741.670 1774.739 Q 742.782 1775.553 745.682 1774.502 "></path>
    <path id="STROKE_75f8e5fb-7403-4070-98ed-fdc1c98b56cf" opacity="1.000" fill="none" stroke="#e55951" stroke-width="1.600" stroke-opacity="1.000" stroke-linecap="round" stroke-linejoin="round" d="M 755.406 1764.926 Q 755.022 1764.355 753.142 1775.801 "></path>
    <path id="STROKE_1721cdf8-a962-45fd-a206-f02bd2f7db73" opacity="1.000" fill="none" stroke="#e55951" stroke-width="1.600" stroke-opacity="1.000" stroke-linecap="round" stroke-linejoin="round" d="M 753.031 1765.112 Q 752.974 1764.687 752.963 1764.400 Q 752.952 1764.112 753.380 1763.863 Q 753.808 1763.615 754.973 1763.330 Q 756.138 1763.046 757.369 1763.168 Q 758.600 1763.290 759.516 1763.753 Q 760.432 1764.216 760.691 1764.562 Q 760.951 1764.908 761.239 1765.295 Q 761.528 1765.682 761.375 1766.298 Q 761.221 1766.915 761.037 1767.183 Q 760.853 1767.452 760.322 1767.868 Q 759.791 1768.284 758.821 1768.574 Q 757.851 1768.864 755.332 1769.083 "></path>
    <path id="STROKE_cb63a701-2b8d-4e18-94b0-cc60e7260dcd" opacity="1.000" fill="none" stroke="#e55951" stroke-width="1.600" stroke-opacity="1.000" stroke-linecap="round" stroke-linejoin="round" d="M 770.622 1760.658 Q 770.118 1761.529 770.246 1761.294 Q 769.646 1760.776 766.874 1774.242 "></path>
    <path id="STROKE_7e337560-6b73-47ba-8787-3c52911c7a41" opacity="1.000" fill="none" stroke="#e55951" stroke-width="1.600" stroke-opacity="1.000" stroke-linecap="round" stroke-linejoin="round" d="M 765.649 1767.970 Q 765.556 1767.959 765.362 1768.005 Q 765.429 1768.245 765.751 1768.576 Q 766.073 1768.907 767.667 1769.509 Q 769.261 1770.112 772.775 1769.157 "></path>
    <path id="STROKE_788f83d4-6aa4-40e7-9edd-a0be5de2105f" opacity="1.000" fill="none" stroke="#e55951" stroke-width="1.600" stroke-opacity="1.000" stroke-linecap="round" stroke-linejoin="round" d="M 778.453 1768.267 Q 778.688 1767.877 778.014 1768.981 Q 777.341 1770.085 776.152 1775.133 "></path>
    <path id="STROKE_b608bbec-6071-4541-bd46-d39f706d87c8" opacity="1.000" fill="none" stroke="#e55951" stroke-width="1.600" stroke-opacity="1.000" stroke-linecap="round" stroke-linejoin="round" d="M 780.569 1763.442 Q 780.552 1763.391 779.987 1762.709 Q 779.624 1762.604 780.569 1764.370 "></path>
    <path id="STROKE_0fdcafaa-03d3-470d-9654-c5b97bed2d69" opacity="1.000" fill="none" stroke="#e55951" stroke-width="1.600" stroke-opacity="1.000" stroke-linecap="round" stroke-linejoin="round" d="M 782.090 1770.790 Q 781.857 1771.182 782.382 1772.656 Q 782.899 1772.498 782.755 1772.650 Q 782.612 1772.801 783.982 1771.087 Q 785.351 1769.372 786.342 1768.278 Q 787.334 1767.183 787.905 1766.874 Q 788.476 1766.565 788.940 1766.585 Q 789.404 1766.604 789.641 1766.818 Q 789.878 1767.031 789.874 1767.163 Q 789.870 1767.295 790.223 1767.775 Q 790.575 1768.256 788.395 1775.863 L 788.399 1775.875 "></path>
    <path id="STROKE_2dd4f049-aafc-4395-af44-dd6be8168058" opacity="1.000" fill="none" stroke="#e55951" stroke-width="1.600" stroke-opacity="1.000" stroke-linecap="round" stroke-linejoin="round" d="M 796.453 1770.976 L 796.489 1770.888 Q 796.613 1770.874 798.148 1770.587 Q 799.683 1770.300 800.260 1769.966 Q 800.836 1769.632 801.134 1769.321 Q 801.432 1769.009 801.499 1768.764 Q 801.566 1768.520 801.536 1768.115 Q 801.506 1767.709 800.923 1767.202 Q 800.339 1766.695 798.629 1766.619 Q 796.918 1766.544 794.820 1769.566 "></path>
    <path id="STROKE_4b903f59-9c73-4613-9a7c-40fdefcb6147" opacity="1.000" fill="none" stroke="#e55951" stroke-width="1.600" stroke-opacity="1.000" stroke-linecap="round" stroke-linejoin="round" d="M 800.609 1769.603 Q 800.556 1769.430 800.911 1771.874 Q 801.267 1774.318 800.918 1776.353 Q 800.568 1778.387 799.580 1779.765 Q 798.591 1781.142 797.559 1781.996 Q 796.528 1782.849 793.669 1782.444 "></path>
    <path id="STROKE_a13460ec-df17-4af5-a858-cce12d9a9604" opacity="1.000" fill="none" stroke="#e55951" stroke-width="1.600" stroke-opacity="1.000" stroke-linecap="round" stroke-linejoin="round" d="M 718.924 1795.100 Q 719.138 1796.382 719.128 1796.189 Q 719.118 1795.996 719.160 1796.086 Q 719.203 1796.176 719.220 1796.227 Q 719.237 1796.278 719.769 1796.473 Q 720.302 1796.668 721.235 1796.431 Q 722.169 1796.193 723.276 1795.530 Q 724.383 1794.867 725.092 1794.103 Q 725.801 1793.339 725.903 1792.860 Q 726.004 1792.381 725.623 1791.908 Q 725.242 1791.436 724.896 1791.267 Q 724.550 1791.099 722.771 1791.210 Q 720.991 1791.320 719.237 1792.771 Q 717.482 1794.221 716.603 1795.541 Q 715.724 1796.862 715.297 1797.869 Q 714.870 1798.877 715.099 1800.625 Q 715.327 1802.372 716.684 1803.505 Q 718.041 1804.637 720.590 1804.930 Q 723.139 1805.223 726.458 1803.933 "></path>
    <path id="STROKE_b537ab2e-0bf4-479d-9a07-b855eb018ebd" opacity="1.000" fill="none" stroke="#e55951" stroke-width="1.600" stroke-opacity="1.000" stroke-linecap="round" stroke-linejoin="round" d="M 732.285 1789.199 Q 732.271 1789.124 732.248 1788.912 Q 731.574 1788.514 737.666 1790.089 "></path>
    <path id="STROKE_c50f13d3-2503-4305-99a7-13d54edc78ab" opacity="1.000" fill="none" stroke="#e55951" stroke-width="1.600" stroke-opacity="1.000" stroke-linecap="round" stroke-linejoin="round" d="M 745.460 1784.114 Q 745.982 1784.037 746.977 1786.579 Q 747.971 1789.122 748.196 1791.731 Q 748.420 1794.340 747.859 1796.923 Q 747.297 1799.506 746.116 1801.830 Q 744.934 1804.155 741.340 1806.568 "></path>
    <path id="STROKE_50b69599-49fc-4298-9a8e-cef61458ae84" opacity="1.000" fill="none" stroke="#e55951" stroke-width="1.600" stroke-opacity="1.000" stroke-linecap="round" stroke-linejoin="round" d="M 650.785 1876.750 Q 650.745 1876.602 650.469 1875.962 L 650.451 1875.963 Q 650.509 1876.596 648.949 1879.596 Q 647.388 1882.596 646.177 1884.525 Q 644.965 1886.454 645.386 1888.477 Q 645.784 1889.853 655.832 1884.618 "></path>
    <path id="STROKE_14d541b3-4abf-46af-8c3d-5c09179dc190" opacity="1.000" fill="none" stroke="#e55951" stroke-width="1.600" stroke-opacity="1.000" stroke-linecap="round" stroke-linejoin="round" d="M 650.339 1882.168 Q 650.325 1882.075 650.300 1881.879 Q 649.252 1882.101 656.982 1881.203 "></path>
    <path id="STROKE_8cec874a-9220-4754-94fd-599672fb9484" opacity="1.000" fill="none" stroke="#e55951" stroke-width="1.600" stroke-opacity="1.000" stroke-linecap="round" stroke-linejoin="round" d="M 651.416 1877.344 Q 651.062 1877.055 654.003 1875.845 Q 656.945 1874.635 660.545 1873.818 "></path>
    <path id="STROKE_e14941e2-5d15-40a3-88b0-cda1959b2042" opacity="1.000" fill="none" stroke="#e55951" stroke-width="1.600" stroke-opacity="1.000" stroke-linecap="round" stroke-linejoin="round" d="M 667.411 1877.455 Q 667.504 1877.073 667.030 1878.844 Q 666.557 1880.614 666.780 1881.882 Q 667.002 1883.151 667.231 1883.870 Q 667.460 1884.589 667.655 1884.880 Q 667.850 1885.170 668.358 1885.005 Q 668.867 1884.840 669.136 1884.443 Q 669.405 1884.047 669.506 1883.933 Q 669.607 1883.819 669.552 1883.693 Q 669.497 1883.568 671.341 1882.345 Q 671.556 1882.571 671.889 1883.348 Q 672.222 1884.126 672.679 1884.543 Q 673.137 1884.961 673.245 1884.988 Q 673.354 1885.015 673.448 1885.082 Q 673.542 1885.150 674.014 1885.161 Q 674.486 1885.172 675.162 1884.705 Q 675.837 1884.238 675.770 1884.279 Q 675.702 1884.320 676.132 1883.746 Q 676.562 1883.172 676.734 1882.772 Q 676.906 1882.372 676.907 1882.359 Q 676.909 1882.346 677.050 1881.789 Q 677.191 1881.232 678.100 1877.121 "></path>
    <path id="STROKE_30d33b2b-6f5b-4389-8e3d-534c0a81b801" opacity="1.000" fill="none" stroke="#e55951" stroke-width="1.600" stroke-opacity="1.000" stroke-linecap="round" stroke-linejoin="round" d="M 692.797 1874.597 Q 692.736 1874.550 692.482 1874.482 Q 691.537 1874.935 689.798 1877.114 Q 688.059 1879.293 687.416 1881.064 Q 686.772 1882.834 686.588 1883.777 Q 686.403 1884.720 686.800 1885.406 Q 687.196 1886.093 687.676 1886.329 Q 688.157 1886.565 688.440 1886.547 Q 688.722 1886.529 688.983 1886.595 Q 689.245 1886.661 690.567 1886.015 Q 691.890 1885.369 692.855 1884.539 Q 693.820 1883.709 694.085 1883.014 Q 694.350 1882.318 694.499 1881.771 Q 694.648 1881.225 693.372 1880.849 Q 692.095 1880.473 690.070 1881.076 Q 689.850 1880.965 699.403 1880.127 "></path>
    <path id="STROKE_1803f571-c1e6-4e45-adc7-5ca9345bc1bc" opacity="1.000" fill="none" stroke="#000000" stroke-width="1.600" stroke-opacity="1.000" stroke-linecap="round" stroke-linejoin="round" d="M 610.480 1852.886 Q 610.173 1852.904 610.221 1852.778 Q 610.269 1852.652 610.096 1853.610 Q 610.120 1853.927 611.151 1852.276 Q 610.802 1854.222 610.814 1863.760 "></path>
    <path id="STROKE_ba83ee2d-0485-4d6a-a4cb-72654a7c4dba" opacity="1.000" fill="none" stroke="#000000" stroke-width="1.600" stroke-opacity="1.000" stroke-linecap="round" stroke-linejoin="round" d="M 608.699 1869.030 Q 608.599 1869.000 608.443 1869.129 Q 608.287 1869.259 607.969 1869.607 Q 607.650 1869.956 607.691 1869.948 Q 607.732 1869.940 607.698 1869.952 Q 607.664 1869.964 607.457 1870.789 Q 607.251 1871.615 607.265 1872.491 Q 607.279 1873.367 607.876 1874.385 Q 608.473 1875.403 610.266 1875.139 Q 612.060 1874.876 612.950 1874.373 Q 613.840 1873.871 614.538 1873.165 Q 615.236 1872.459 615.176 1871.596 Q 615.117 1870.733 614.661 1869.845 Q 614.206 1868.956 613.645 1868.603 Q 613.083 1868.249 612.345 1868.106 Q 611.608 1867.964 611.072 1868.042 Q 610.536 1868.121 609.527 1868.385 Q 608.519 1868.648 607.920 1869.108 Q 607.321 1869.568 606.916 1870.336 Q 606.511 1871.104 608.661 1872.853 "></path>
    <path id="STROKE_980a673b-cd73-4f37-b496-99f543400cd2" opacity="1.000" fill="none" stroke="#000000" stroke-width="1.600" stroke-opacity="1.000" stroke-linecap="round" stroke-linejoin="round" d="M 512.242 1770.865 L 512.247 1770.873 Q 511.991 1771.030 513.534 1770.209 Q 515.078 1769.389 517.610 1769.344 Q 517.674 1769.425 517.846 1769.528 "></path>
    <path id="STROKE_76c4704f-efe2-4bed-b1d7-0e87c1194d6a" opacity="1.000" fill="none" stroke="#000000" stroke-width="1.600" stroke-opacity="1.000" stroke-linecap="round" stroke-linejoin="round" d="M 521.632 1771.050 Q 521.442 1771.191 521.569 1771.771 Q 521.696 1772.351 522.237 1772.984 Q 522.778 1773.617 523.452 1773.757 Q 524.126 1773.897 525.662 1773.442 Q 527.198 1772.987 528.154 1772.062 Q 529.110 1771.138 529.752 1770.091 Q 530.393 1769.045 529.266 1768.141 Q 528.139 1767.238 526.931 1766.885 Q 525.723 1766.532 525.178 1766.606 Q 524.632 1766.680 524.435 1766.854 Q 524.238 1767.029 524.153 1767.266 Q 524.067 1767.503 524.267 1768.118 "></path>
    <path id="STROKE_3ac3aac3-c07b-46d0-a151-1302272cb091" opacity="1.000" fill="none" stroke="#405ab9" stroke-width="1.600" stroke-opacity="1.000" stroke-linecap="round" stroke-linejoin="round" d="M 527.366 1713.475 Q 527.326 1713.446 526.614 1712.925 Q 526.918 1713.147 527.413 1713.510 Q 527.908 1713.872 528.216 1714.098 Q 528.524 1714.323 528.853 1714.564 Q 529.181 1714.805 529.524 1715.056 Q 529.867 1715.307 532.054 1716.908 Q 534.240 1718.510 535.736 1719.605 Q 537.233 1720.701 540.760 1723.284 Q 544.286 1725.867 546.177 1727.251 Q 548.067 1728.635 553.904 1732.910 Q 559.741 1737.185 562.894 1739.494 Q 566.046 1741.802 569.245 1744.145 Q 572.444 1746.488 575.164 1748.480 Q 577.885 1750.472 580.094 1752.090 Q 582.304 1753.708 591.328 1760.317 Q 600.353 1766.926 605.159 1770.446 Q 609.965 1773.965 615.877 1778.295 Q 621.790 1782.625 624.937 1784.930 Q 628.084 1787.235 630.604 1789.080 Q 633.125 1790.926 634.922 1792.243 Q 636.719 1793.559 642.253 1797.611 Q 647.787 1801.664 651.719 1804.543 Q 655.650 1807.423 658.975 1809.857 Q 662.299 1812.292 664.620 1813.991 Q 666.940 1815.691 669.445 1817.525 Q 671.951 1819.360 673.923 1820.804 Q 675.895 1822.249 677.275 1823.260 Q 678.655 1824.270 679.753 1825.074 Q 680.851 1825.878 683.041 1827.482 Q 685.231 1829.086 686.372 1829.921 Q 687.513 1830.757 689.009 1831.852 Q 690.504 1832.948 691.580 1833.735 Q 692.656 1834.523 693.667 1835.264 Q 694.679 1836.005 695.334 1836.485 Q 695.989 1836.965 696.881 1837.617 Q 696.810 1837.565 696.721 1837.500 "></path>
    <path id="STROKE_2481af1a-31f3-4088-849c-202176b89cf5" opacity="1.000" fill="none" stroke="#405ab9" stroke-width="1.600" stroke-opacity="1.000" stroke-linecap="round" stroke-linejoin="round" d="M 543.602 1697.343 Q 543.580 1697.353 543.495 1697.372 Q 543.223 1697.547 543.296 1694.818 Q 543.369 1692.089 544.196 1690.035 Q 545.022 1687.981 545.677 1686.821 Q 546.332 1685.660 547.462 1684.655 Q 548.592 1683.649 549.885 1682.928 Q 551.178 1682.208 552.309 1682.703 Q 553.441 1683.198 554.090 1684.067 Q 554.740 1684.936 554.858 1686.036 Q 554.976 1687.136 554.615 1688.130 Q 554.255 1689.125 552.697 1690.415 Q 551.140 1691.705 546.534 1691.590 "></path>
    <path id="STROKE_223159eb-712c-4ca4-9042-b9557db1aee2" opacity="1.000" fill="none" stroke="#405ab9" stroke-width="1.600" stroke-opacity="1.000" stroke-linecap="round" stroke-linejoin="round" d="M 564.847 1686.299 Q 562.179 1689.642 558.850 1693.696 Q 559.762 1693.989 559.797 1693.882 Q 559.263 1693.573 565.425 1694.225 "></path>
    <path id="STROKE_db88721d-8e5b-4b3d-bc6e-1d91b9d705a2" opacity="1.000" fill="none" stroke="#405ab9" stroke-width="1.600" stroke-opacity="1.000" stroke-linecap="round" stroke-linejoin="round" d="M 546.646 1702.984 Q 546.385 1703.179 546.283 1703.272 Q 546.180 1703.365 546.172 1703.383 Q 546.164 1703.401 546.201 1703.347 Q 546.238 1703.292 546.025 1703.646 Q 545.811 1703.999 545.080 1705.235 Q 544.348 1706.470 543.882 1708.269 Q 543.416 1710.068 543.526 1711.526 Q 543.637 1712.983 544.543 1714.721 Q 545.450 1716.458 549.837 1718.238 "></path>
    <path id="STROKE_61aac1f0-a5eb-447d-9cc2-c4dcf36e2ffb" opacity="1.000" fill="none" stroke="#405ab9" stroke-width="1.600" stroke-opacity="1.000" stroke-linecap="round" stroke-linejoin="round" d="M 557.112 1703.095 Q 557.163 1702.619 557.149 1702.650 Q 557.131 1702.617 557.116 1702.606 Q 556.445 1702.548 555.589 1712.786 L 555.633 1712.828 Q 555.615 1712.873 555.938 1712.320 Q 556.262 1711.766 556.413 1710.807 Q 556.564 1709.849 556.326 1709.443 Q 556.089 1709.037 555.936 1708.655 Q 555.782 1708.273 554.569 1708.319 Q 553.356 1708.364 552.256 1709.134 Q 551.156 1709.903 550.701 1710.606 Q 550.247 1711.309 550.056 1711.765 Q 549.866 1712.220 549.897 1712.735 Q 549.927 1713.249 550.866 1713.653 Q 551.805 1714.056 553.903 1713.630 Q 556.000 1713.204 558.225 1712.485 "></path>
    <path id="STROKE_6ebf25e1-92c4-4336-bae9-b3f5d42eeb88" opacity="1.000" fill="none" stroke="#405ab9" stroke-width="1.600" stroke-opacity="1.000" stroke-linecap="round" stroke-linejoin="round" d="M 564.163 1710.629 Q 564.146 1710.666 564.106 1711.050 Q 564.066 1711.435 564.244 1711.528 Q 564.421 1711.622 564.393 1711.729 Q 564.365 1711.836 565.057 1711.948 Q 565.750 1712.060 566.854 1711.177 Q 567.959 1710.293 568.107 1709.414 Q 568.255 1708.534 567.724 1707.925 Q 567.193 1707.316 566.907 1707.210 Q 566.621 1707.105 566.544 1707.009 Q 566.468 1706.912 565.646 1706.657 Q 564.824 1706.401 564.165 1706.699 Q 563.506 1706.997 563.288 1707.816 Q 563.069 1708.635 563.446 1709.280 Q 563.823 1709.925 564.193 1710.192 Q 564.563 1710.459 564.979 1710.629 "></path>
    <path id="STROKE_e6d52794-e118-4fc7-b40c-48da5d691dd6" opacity="1.000" fill="none" stroke="#405ab9" stroke-width="1.600" stroke-opacity="1.000" stroke-linecap="round" stroke-linejoin="round" d="M 572.365 1710.518 Q 572.484 1710.691 572.177 1710.364 Q 571.869 1710.036 572.142 1709.364 Q 572.414 1708.691 572.977 1708.056 Q 573.540 1707.422 574.516 1707.148 Q 575.492 1706.873 575.990 1707.290 Q 576.487 1707.708 576.751 1708.450 Q 577.015 1709.193 576.781 1712.151 "></path>
    <path id="STROKE_2d6aea9d-2168-4895-9bc4-1f3aec842a3c" opacity="1.000" fill="none" stroke="#405ab9" stroke-width="1.600" stroke-opacity="1.000" stroke-linecap="round" stroke-linejoin="round" d="M 583.907 1709.924 Q 583.910 1710.072 583.930 1710.146 Q 584.054 1710.337 585.229 1709.707 Q 586.404 1709.076 586.876 1708.399 Q 587.348 1707.722 587.730 1707.185 Q 588.112 1706.647 587.555 1705.975 Q 586.999 1705.303 585.655 1705.269 Q 584.312 1705.235 583.253 1705.625 Q 582.194 1706.015 581.847 1706.545 Q 581.500 1707.075 581.422 1707.269 Q 581.344 1707.462 581.418 1707.700 Q 581.492 1707.939 581.812 1708.189 Q 582.131 1708.438 582.497 1708.439 "></path>
    <path id="STROKE_1a200348-6233-4a9c-87cc-9e5690595c38" opacity="1.000" fill="none" stroke="#405ab9" stroke-width="1.600" stroke-opacity="1.000" stroke-linecap="round" stroke-linejoin="round" d="M 587.210 1706.992 L 587.371 1707.543 Q 587.380 1707.283 587.603 1708.298 Q 587.826 1709.314 588.519 1710.235 Q 589.211 1711.156 589.885 1711.526 Q 590.558 1711.895 592.443 1710.963 "></path>
    <path id="STROKE_8b74b06f-bf22-4e25-96c5-f89d34cd4788" opacity="1.000" fill="none" stroke="#405ab9" stroke-width="1.600" stroke-opacity="1.000" stroke-linecap="round" stroke-linejoin="round" d="M 598.864 1704.357 L 598.822 1704.349 Q 598.695 1705.291 598.763 1704.912 Q 598.831 1704.534 598.724 1707.161 Q 598.616 1709.788 598.270 1712.819 "></path>
    <path id="STROKE_e42e523f-eda3-4422-97b6-7397c4c31ada" opacity="1.000" fill="none" stroke="#405ab9" stroke-width="1.600" stroke-opacity="1.000" stroke-linecap="round" stroke-linejoin="round" d="M 593.371 1709.701 L 593.397 1709.689 Q 593.630 1709.796 596.780 1709.624 Q 599.929 1709.452 603.651 1707.512 "></path>
    <path id="STROKE_bf55bd0c-92ae-4afb-9ef4-e42fb9052bcb" opacity="1.000" fill="none" stroke="#405ab9" stroke-width="1.600" stroke-opacity="1.000" stroke-linecap="round" stroke-linejoin="round" d="M 605.507 1708.625 Q 605.263 1709.284 605.292 1709.254 L 605.219 1709.920 Q 605.115 1710.116 605.408 1711.616 Q 606.068 1711.102 605.862 1711.021 L 605.841 1710.889 "></path>
    <path id="STROKE_a9e3a30a-e60d-4bff-8fb6-003de41baf37" opacity="1.000" fill="none" stroke="#405ab9" stroke-width="1.600" stroke-opacity="1.000" stroke-linecap="round" stroke-linejoin="round" d="M 606.509 1702.501 Q 606.025 1702.394 606.083 1702.427 L 606.065 1702.445 Q 605.975 1702.859 606.917 1704.617 "></path>
    <path id="STROKE_0ef4fc0a-3210-4b24-bb7b-161998fd408f" opacity="1.000" fill="none" stroke="#405ab9" stroke-width="1.600" stroke-opacity="1.000" stroke-linecap="round" stroke-linejoin="round" d="M 610.591 1709.108 Q 610.380 1709.119 610.444 1708.512 Q 610.508 1707.905 611.784 1706.810 Q 613.060 1705.714 613.809 1705.297 Q 614.557 1704.880 614.857 1704.721 Q 615.156 1704.562 615.693 1704.670 Q 616.230 1704.777 616.433 1704.800 Q 616.636 1704.823 616.940 1705.995 Q 617.244 1707.167 616.986 1708.430 Q 616.728 1709.692 616.641 1710.703 "></path>
    <path id="STROKE_1b702579-fb58-433f-adad-613ce852da11" opacity="1.000" fill="none" stroke="#405ab9" stroke-width="1.600" stroke-opacity="1.000" stroke-linecap="round" stroke-linejoin="round" d="M 622.022 1709.033 Q 623.616 1707.881 623.608 1707.924 Q 623.600 1707.968 624.716 1707.283 Q 625.832 1706.599 626.244 1705.934 Q 626.656 1705.268 626.496 1704.646 Q 626.336 1704.024 625.857 1703.526 Q 625.379 1703.027 624.644 1702.761 Q 623.910 1702.496 623.167 1702.541 Q 622.424 1702.586 621.817 1702.813 Q 621.209 1703.040 620.844 1703.274 Q 620.479 1703.509 620.428 1703.555 Q 620.376 1703.601 620.373 1703.602 Q 620.370 1703.603 619.863 1704.183 Q 619.355 1704.763 620.649 1705.545 "></path>
    <path id="STROKE_b8ad68dd-9907-439a-962a-6e4b7b4a7eb6" opacity="1.000" fill="none" stroke="#405ab9" stroke-width="1.600" stroke-opacity="1.000" stroke-linecap="round" stroke-linejoin="round" d="M 625.919 1705.582 Q 626.299 1706.379 626.214 1706.232 Q 626.489 1707.074 626.868 1708.179 Q 627.246 1709.284 627.394 1711.030 Q 627.541 1712.776 627.225 1713.972 Q 626.910 1715.169 626.626 1715.809 Q 626.343 1716.448 625.952 1717.100 Q 625.562 1717.752 625.079 1718.150 Q 624.596 1718.548 624.448 1718.762 Q 624.300 1718.976 623.168 1719.339 Q 622.037 1719.701 620.241 1718.349 "></path>
    <path id="STROKE_e18898e1-93ff-4166-aa4e-b93ec68bebe8" opacity="1.000" fill="none" stroke="#405ab9" stroke-width="1.600" stroke-opacity="1.000" stroke-linecap="round" stroke-linejoin="round" d="M 567.243 1725.029 Q 567.218 1725.196 568.965 1724.622 Q 570.712 1724.047 571.480 1723.457 Q 572.248 1722.867 572.614 1722.196 Q 572.979 1721.526 572.786 1721.185 Q 572.594 1720.845 571.946 1720.588 Q 571.298 1720.331 570.492 1720.478 Q 569.687 1720.624 568.462 1721.504 Q 567.237 1722.383 566.474 1723.426 Q 565.710 1724.468 565.462 1725.291 Q 565.213 1726.113 565.537 1726.997 Q 565.861 1727.881 567.266 1728.465 Q 568.670 1729.049 572.365 1728.741 "></path>
    <path id="STROKE_2d4a4830-1fe9-423d-b959-52ee8edb875f" opacity="1.000" fill="none" stroke="#405ab9" stroke-width="1.600" stroke-opacity="1.000" stroke-linecap="round" stroke-linejoin="round" d="M 577.932 1717.681 Q 577.719 1717.391 583.796 1717.495 "></path>
    <path id="STROKE_b7584ff0-b9a5-4251-a1e9-251a967fa90d" opacity="1.000" fill="none" stroke="#405ab9" stroke-width="1.600" stroke-opacity="1.000" stroke-linecap="round" stroke-linejoin="round" d="M 589.437 1716.790 Q 590.252 1718.344 591.243 1720.531 Q 592.234 1722.719 592.228 1724.953 Q 592.222 1727.187 591.123 1729.470 Q 590.024 1731.753 586.802 1735.235 "></path>
    <path id="STROKE_39ea0293-c5a7-46b1-a6c4-38df253789e1" opacity="1.000" fill="none" stroke="#405ab9" stroke-width="1.600" stroke-opacity="1.000" stroke-linecap="round" stroke-linejoin="round" d="M 539.075 1864.057 Q 538.275 1864.776 537.513 1867.527 Q 536.752 1870.277 536.627 1871.805 Q 536.503 1873.333 536.673 1874.517 Q 536.844 1875.702 537.772 1875.545 Q 538.701 1875.388 540.311 1874.728 Q 541.920 1874.067 542.996 1873.937 Q 544.071 1873.806 544.939 1874.115 "></path>
    <path id="STROKE_d956c8d0-1cc3-4790-a882-34b275864aff" opacity="1.000" fill="none" stroke="#405ab9" stroke-width="1.600" stroke-opacity="1.000" stroke-linecap="round" stroke-linejoin="round" d="M 537.405 1870.960 Q 537.847 1870.504 537.646 1870.621 Q 537.445 1870.739 537.698 1870.610 Q 537.952 1870.482 538.501 1870.278 Q 539.050 1870.074 539.429 1869.998 Q 539.808 1869.922 544.408 1868.887 Q 544.407 1868.849 544.382 1868.807 "></path>
    <path id="STROKE_e3d46b02-a8d6-440e-9045-d0905a4810b5" opacity="1.000" fill="none" stroke="#405ab9" stroke-width="1.600" stroke-opacity="1.000" stroke-linecap="round" stroke-linejoin="round" d="M 539.223 1865.059 Q 540.028 1864.852 539.876 1864.917 Q 540.567 1864.794 547.202 1863.018 "></path>
    <path id="STROKE_c2f63972-148f-44dc-aab5-f2b6dde4809e" opacity="1.000" fill="none" stroke="#405ab9" stroke-width="1.600" stroke-opacity="1.000" stroke-linecap="round" stroke-linejoin="round" d="M 551.656 1862.906 L 551.529 1862.828 Q 551.386 1862.714 551.491 1863.511 Q 551.596 1864.309 552.137 1866.742 Q 552.679 1869.174 552.715 1870.412 Q 552.752 1871.649 552.673 1873.127 Q 552.594 1874.606 552.732 1876.379 "></path>
    <path id="STROKE_fa193b46-137e-4d76-ab11-5678b560a3cf" opacity="1.000" fill="none" stroke="#405ab9" stroke-width="1.600" stroke-opacity="1.000" stroke-linecap="round" stroke-linejoin="round" d="M 552.064 1866.284 Q 552.042 1865.753 552.092 1865.807 Q 552.440 1865.587 552.414 1865.601 Q 552.387 1865.614 552.348 1865.626 Q 552.309 1865.637 553.662 1865.231 Q 555.015 1864.825 556.368 1864.971 Q 557.720 1865.117 558.623 1865.607 Q 559.526 1866.097 559.828 1866.990 Q 560.130 1867.883 559.997 1868.924 Q 559.863 1869.966 558.644 1871.878 Q 557.425 1873.790 553.883 1875.080 "></path>
    <path id="STROKE_2c2bf55e-d6a8-4f91-b873-e351f8ed8034" opacity="1.000" fill="none" stroke="#405ab9" stroke-width="1.600" stroke-opacity="1.000" stroke-linecap="round" stroke-linejoin="round" d="M 565.870 1865.430 Q 565.120 1866.077 565.001 1866.204 Q 564.882 1866.331 564.054 1867.572 Q 563.227 1868.814 562.749 1870.198 Q 562.270 1871.583 562.202 1872.852 Q 562.134 1874.121 563.137 1874.637 Q 564.141 1875.153 566.084 1874.754 Q 568.027 1874.354 569.085 1872.091 Q 568.895 1871.379 566.846 1871.151 Q 567.466 1870.228 567.415 1870.413 Q 567.521 1870.365 567.792 1870.179 Q 568.063 1869.993 568.344 1869.863 Q 568.624 1869.732 568.994 1869.643 Q 569.363 1869.553 570.138 1869.513 "></path>
    <path id="STROKE_0307ccb0-1cb6-4118-a835-4ef8d9042941" opacity="1.000" fill="none" stroke="#000000" stroke-width="1.600" stroke-opacity="1.000" stroke-linecap="round" stroke-linejoin="round" d="M 497.630 1764.205 Q 497.637 1764.301 497.792 1765.902 Q 497.947 1767.504 497.593 1769.007 Q 497.239 1770.510 496.677 1771.864 "></path>
    <path id="STROKE_fcd6a1ea-0632-487d-924e-e484d3309dcc" opacity="1.000" fill="none" stroke="#000000" stroke-width="1.600" stroke-opacity="1.000" stroke-linecap="round" stroke-linejoin="round" d="M 497.771 1764.840 Q 497.951 1764.268 497.957 1764.314 Q 498.228 1763.805 498.599 1763.544 Q 498.971 1763.283 499.296 1763.091 Q 499.621 1762.900 500.010 1762.826 Q 500.399 1762.752 501.008 1763.411 Q 501.616 1764.071 501.921 1764.756 Q 502.226 1765.442 502.139 1766.037 Q 502.051 1766.633 501.470 1767.037 Q 500.889 1767.441 500.496 1767.565 Q 500.104 1767.690 499.890 1767.708 Q 499.676 1767.725 499.671 1767.728 Q 499.666 1767.731 499.623 1767.673 Q 499.580 1767.615 499.468 1768.138 Q 499.357 1768.661 499.515 1768.893 Q 499.673 1769.125 499.681 1769.168 Q 499.690 1769.211 499.678 1769.157 Q 499.666 1769.104 499.818 1769.854 Q 499.970 1770.604 500.582 1771.150 Q 501.193 1771.696 502.289 1771.899 "></path>
    <path id="STROKE_ab9e2280-df25-4ba5-8480-3e630d1dd639" opacity="1.000" fill="none" stroke="#4245a3" stroke-width="1.600" stroke-opacity="1.000" stroke-linecap="round" stroke-linejoin="round" d="M 573.410 1687.411 Q 573.108 1687.784 573.111 1687.783 Q 573.086 1687.772 572.766 1689.142 Q 572.446 1690.513 572.874 1691.329 Q 573.301 1692.145 574.788 1692.326 Q 576.275 1692.506 577.593 1692.100 Q 578.910 1691.693 580.028 1690.801 Q 581.147 1689.908 581.459 1689.364 Q 581.771 1688.820 581.761 1687.850 Q 581.751 1686.880 580.871 1685.753 Q 579.990 1684.625 579.299 1684.208 Q 578.608 1683.790 577.560 1683.490 Q 576.511 1683.190 575.067 1683.423 Q 573.623 1683.656 572.725 1684.307 Q 571.827 1684.959 571.567 1685.440 Q 571.308 1685.922 571.334 1686.294 Q 571.360 1686.667 571.538 1686.777 Q 571.717 1686.888 572.177 1687.078 "></path>
    <path id="STROKE_8f829750-54ff-4950-bd23-ed17ab70a3d2" opacity="1.000" fill="none" stroke="#e55951" stroke-width="1.600" stroke-opacity="1.000" stroke-linecap="round" stroke-linejoin="round" d="M 742.911 1725.512 Q 743.061 1725.586 742.732 1725.505 Q 742.404 1725.424 741.452 1726.076 Q 740.501 1726.728 739.925 1727.732 Q 739.349 1728.735 739.144 1729.439 Q 738.939 1730.143 739.089 1731.038 Q 739.238 1731.934 740.392 1732.707 Q 741.545 1733.479 743.650 1733.690 Q 745.754 1733.901 747.092 1733.424 Q 748.429 1732.947 749.202 1732.050 Q 749.975 1731.153 749.834 1729.989 Q 749.693 1728.825 748.993 1727.510 Q 748.293 1726.196 747.435 1725.253 Q 746.578 1724.311 745.183 1723.880 Q 743.787 1723.449 741.975 1724.406 Q 741.952 1724.619 742.111 1724.879 "></path>
  </g>
</svg>