<?xml version="1.0" encoding="UTF-8" standalone="yes"?>
<svg xmlns="http://www.w3.org/2000/svg" xmlns:xlink="http://www.w3.org/1999/xlink" width="548.094pt" height="246.765pt" version="1.1" viewBox="-36.817 456.102 548.094 246.765">
  <!--
	Exported with Concepts: Smarter Sketching
	Version: 2024.9.7 on Microsoft Windows NT 10.0.22631.0
	https://concepts.app/
	-->
  <title>Drawing 3</title>
  <desc>Drawing exported from Concepts: Smarter Sketching</desc>
  <defs></defs>
  <g id="Pen" opacity="1.000">
    <path id="STROKE_da73161d-f4a0-4863-88a2-352b97cc7386" opacity="1.000" fill="none" stroke="#4a4745" stroke-width="1.600" stroke-opacity="1.000" stroke-linecap="round" stroke-linejoin="round" d="M 0.000 468.000 L 0.000 668.000 L 0.000 668.000 "></path>
    <path id="STROKE_a17cebb5-cf55-44f0-9a98-d9316cf194a4" opacity="1.000" fill="none" stroke="#4a4745" stroke-width="1.600" stroke-opacity="1.000" stroke-linecap="round" stroke-linejoin="round" d="M 0.000 668.000 L 190.000 668.000 L 200.000 668.000 "></path>
    <path id="STROKE_cb6a668f-e8aa-4304-baa4-912ddf21d3db" opacity="1.000" fill="none" stroke="#4a4745" stroke-width="1.600" stroke-opacity="1.000" stroke-linecap="round" stroke-linejoin="round" d="M 31.083 577.816 Q 31.247 578.284 32.047 580.977 Q 32.847 583.669 33.143 585.291 Q 33.439 586.912 33.947 588.037 Q 34.454 589.161 34.707 589.874 Q 34.960 590.586 35.481 591.613 Q 36.002 592.641 36.607 594.891 Q 37.213 597.140 37.707 598.518 Q 38.202 599.896 39.442 602.206 Q 40.683 604.516 41.503 606.669 Q 42.324 608.822 42.792 610.245 Q 43.260 611.668 43.765 612.926 Q 44.269 614.184 44.594 614.733 Q 44.920 615.282 45.093 615.548 Q 45.266 615.813 45.854 617.691 Q 46.442 619.568 47.524 621.351 Q 48.606 623.133 49.234 624.056 Q 49.861 624.979 50.478 625.637 Q 51.096 626.295 51.791 626.645 Q 52.487 626.995 53.232 628.952 Q 53.977 630.909 55.641 632.888 Q 57.305 634.866 59.105 636.327 Q 60.904 637.788 61.950 638.903 Q 62.995 640.018 63.837 641.231 Q 64.678 642.443 65.471 643.398 Q 66.265 644.353 67.717 645.224 Q 69.169 646.095 70.514 646.733 Q 71.859 647.370 72.871 647.877 Q 73.883 648.385 75.576 648.883 Q 77.269 649.382 78.181 649.458 Q 79.092 649.533 79.995 649.472 Q 80.898 649.410 81.646 649.512 Q 82.393 649.613 82.905 649.597 Q 83.418 649.580 83.968 649.487 Q 84.518 649.395 84.899 649.433 Q 85.281 649.470 86.497 649.423 Q 87.714 649.375 89.299 648.817 Q 90.884 648.259 91.665 647.848 Q 92.446 647.438 92.741 647.266 Q 93.035 647.094 93.038 647.058 Q 93.041 647.022 93.349 646.968 Q 93.657 646.913 95.274 646.097 Q 96.891 645.282 98.117 644.236 Q 99.343 643.191 100.399 642.066 Q 101.455 640.941 102.364 639.778 Q 103.273 638.616 104.484 636.952 Q 105.694 635.289 106.336 634.405 Q 106.978 633.522 107.328 632.972 Q 107.678 632.422 108.209 631.409 Q 108.741 630.396 109.620 629.280 Q 110.500 628.164 111.446 626.989 Q 112.392 625.813 113.755 623.935 Q 115.117 622.058 115.959 620.976 Q 116.801 619.894 118.004 618.341 Q 119.208 616.787 120.004 616.022 Q 120.800 615.256 122.572 612.598 Q 124.344 609.940 125.098 608.543 Q 125.852 607.147 126.570 606.339 Q 127.288 605.530 128.002 604.941 Q 128.716 604.352 129.293 603.899 Q 129.869 603.446 132.336 601.016 Q 134.804 598.585 136.054 597.197 Q 137.304 595.810 137.901 595.295 Q 138.498 594.779 139.345 594.445 Q 140.191 594.112 141.751 593.247 Q 143.311 592.382 144.198 591.940 Q 145.085 591.499 145.756 591.198 Q 146.427 590.897 147.389 590.407 Q 148.350 589.918 149.688 589.581 Q 151.025 589.245 151.665 589.209 Q 152.305 589.174 152.696 589.093 Q 153.086 589.012 154.200 588.707 Q 155.314 588.402 156.520 588.392 Q 157.726 588.383 158.312 588.330 Q 158.898 588.278 159.073 588.219 Q 159.249 588.159 159.228 588.187 Q 159.206 588.215 159.472 588.131 Q 159.738 588.046 161.680 587.680 Q 163.621 587.313 165.119 587.247 Q 166.617 587.181 167.347 587.158 Q 168.077 587.135 168.733 587.121 Q 169.388 587.107 169.681 587.113 Q 169.973 587.120 170.446 587.139 Q 170.918 587.158 171.440 587.152 Q 171.963 587.146 172.238 587.146 Q 172.513 587.147 172.821 587.106 Q 173.129 587.065 173.340 587.074 Q 173.550 587.082 173.557 587.083 Q 173.563 587.085 173.461 587.063 Q 173.359 587.042 175.113 587.313 Q 176.868 587.585 178.268 587.706 Q 179.669 587.827 180.261 587.865 Q 180.853 587.902 181.265 587.894 Q 181.677 587.886 181.651 587.891 Q 181.626 587.895 181.655 587.869 Q 181.684 587.844 181.907 587.825 Q 182.130 587.806 182.404 587.793 Q 182.678 587.781 182.585 587.769 Q 182.493 587.757 182.796 587.775 Q 183.099 587.793 183.360 587.831 Q 183.620 587.868 183.933 587.906 Q 184.246 587.945 184.512 588.002 Q 184.778 588.059 185.017 588.019 Q 185.257 587.978 185.791 587.964 Q 186.326 587.950 186.753 587.902 Q 187.180 587.854 187.302 587.821 Q 187.425 587.789 187.421 587.802 Q 187.417 587.815 187.434 587.820 Q 187.451 587.825 187.492 587.799 Q 187.532 587.774 188.099 587.807 Q 188.666 587.840 189.317 587.948 Q 189.969 588.057 190.256 588.036 Q 190.544 588.015 190.796 588.049 Q 191.048 588.084 191.307 588.072 Q 191.566 588.059 191.838 588.116 Q 192.111 588.172 192.427 588.238 Q 192.743 588.305 192.767 588.278 Q 192.790 588.252 192.744 588.299 Q 192.697 588.346 193.566 588.376 Q 194.435 588.405 195.640 588.142 "></path>
    <path id="STROKE_f04cdbe4-eb93-46ee-a343-4df91c335b6d" opacity="1.000" fill="none" stroke="#cec7b6" stroke-width="1.600" stroke-opacity="1.000" stroke-linecap="round" stroke-linejoin="round" d="M 0.000 588.000 L 190.000 588.000 L 200.000 588.000 "></path>
    <path id="STROKE_9ab13c4f-865c-4a74-87f6-b420208ebd61" opacity="1.000" fill="none" stroke="#000000" stroke-width="1.600" stroke-opacity="1.000" stroke-linecap="round" stroke-linejoin="round" d="M 62.004 682.532 Q 61.789 682.058 62.004 688.158 Q 62.221 688.104 62.223 688.063 Q 62.225 688.022 62.411 687.637 Q 62.598 687.251 62.717 686.771 Q 62.836 686.292 63.305 684.764 Q 63.774 683.237 64.858 681.726 Q 65.943 680.216 67.859 678.887 Q 69.776 677.558 73.479 676.098 "></path>
    <path id="STROKE_6e858088-090d-4654-980c-f1072aebf800" opacity="1.000" fill="none" stroke="#000000" stroke-width="1.600" stroke-opacity="1.000" stroke-linecap="round" stroke-linejoin="round" d="M 73.312 687.684 Q 73.294 687.474 72.539 689.565 Q 71.785 691.656 71.808 694.787 Q 72.046 694.691 75.122 684.732 Q 75.257 684.778 75.338 684.844 Q 75.419 684.911 75.712 685.612 Q 76.005 686.312 76.383 686.898 Q 76.760 687.484 76.954 687.965 Q 77.148 688.445 77.638 689.682 Q 78.128 690.918 78.449 691.419 Q 78.770 691.919 79.217 692.447 Q 79.663 692.975 80.943 694.118 "></path>
    <path id="STROKE_25bc414f-17cf-4631-94c1-0cddbc7d6ecb" opacity="1.000" fill="none" stroke="#000000" stroke-width="1.600" stroke-opacity="1.000" stroke-linecap="round" stroke-linejoin="round" d="M 74.816 693.116 Q 74.165 693.905 77.991 693.784 "></path>
    <path id="STROKE_f9bff40e-416c-49a0-b480-da2186d9a42e" opacity="1.000" fill="none" stroke="#000000" stroke-width="1.600" stroke-opacity="1.000" stroke-linecap="round" stroke-linejoin="round" d="M 87.182 689.968 Q 87.780 689.773 87.781 689.801 Q 88.039 689.726 90.135 689.216 "></path>
    <path id="STROKE_31d9ef5d-d522-46ee-ae6f-6133a60ea6e9" opacity="1.000" fill="none" stroke="#000000" stroke-width="1.600" stroke-opacity="1.000" stroke-linecap="round" stroke-linejoin="round" d="M 94.340 682.783 Q 94.038 683.086 94.365 685.599 Q 94.691 688.112 94.987 689.895 Q 95.283 691.677 95.476 692.687 Q 95.668 693.697 96.234 695.594 "></path>
    <path id="STROKE_32f27fca-f574-41aa-965a-f0248c07ca2e" opacity="1.000" fill="none" stroke="#000000" stroke-width="1.600" stroke-opacity="1.000" stroke-linecap="round" stroke-linejoin="round" d="M 93.811 684.008 Q 93.675 683.709 93.672 683.729 Q 94.099 683.116 95.023 683.183 Q 95.948 683.250 96.816 683.623 Q 97.684 683.997 98.059 684.515 Q 98.435 685.034 98.566 685.479 Q 98.696 685.925 98.745 686.137 Q 98.793 686.349 98.540 687.418 Q 98.286 688.488 96.234 690.163 Q 96.590 690.023 98.081 689.754 Q 99.572 689.486 100.524 689.581 Q 101.475 689.676 102.210 689.882 Q 102.944 690.087 103.093 690.778 Q 103.242 691.469 102.870 692.440 Q 102.498 693.412 100.842 694.289 Q 99.186 695.166 96.151 695.260 "></path>
    <path id="STROKE_b4a69b65-9d60-4af3-8d1f-9488a31cf446" opacity="1.000" fill="none" stroke="#000000" stroke-width="1.600" stroke-opacity="1.000" stroke-linecap="round" stroke-linejoin="round" d="M 80.414 694.174 Q 80.387 694.211 80.329 694.700 Q 80.271 695.190 80.523 695.507 Q 80.775 695.824 80.962 695.856 Q 81.149 695.888 81.835 695.650 "></path>
    <path id="STROKE_0b6175e6-3b02-4cae-9a51-b617dab2cf25" opacity="1.000" fill="none" stroke="#4a4745" stroke-width="1.600" stroke-opacity="1.000" stroke-linecap="round" stroke-linejoin="round" d="M 12.418 471.163 Q 12.439 471.000 12.411 471.526 Q 12.383 472.053 12.368 472.493 Q 12.352 472.933 12.371 473.167 Q 12.390 473.401 12.407 473.504 Q 12.423 473.607 12.423 473.761 Q 12.423 473.915 12.420 473.953 Q 12.416 473.991 12.728 476.012 Q 13.040 478.033 13.247 479.724 Q 13.455 481.416 13.487 482.427 Q 13.519 483.438 13.620 483.888 Q 13.720 484.339 13.788 484.841 Q 13.856 485.343 13.890 485.965 Q 13.924 486.588 13.961 488.048 Q 13.997 489.508 14.203 491.307 Q 14.410 493.106 14.600 493.968 Q 14.791 494.831 15.147 496.737 Q 15.504 498.643 15.726 499.656 Q 15.949 500.669 16.032 501.220 Q 16.115 501.771 16.186 502.188 Q 16.256 502.606 16.407 503.298 Q 16.558 503.989 17.001 506.637 Q 17.443 509.285 17.798 511.390 Q 18.153 513.495 18.543 515.110 Q 18.932 516.726 19.175 517.626 Q 19.417 518.526 19.722 519.871 Q 20.028 521.216 20.324 522.241 Q 20.621 523.266 21.286 527.288 Q 21.952 531.309 22.315 533.672 Q 22.677 536.035 22.847 537.185 Q 23.017 538.335 23.185 539.471 Q 23.352 540.607 23.569 541.455 Q 23.786 542.303 24.441 545.184 "></path>
    <path id="STROKE_4bb67448-1941-47c7-b556-ce550d9491f9" opacity="1.000" fill="none" stroke="#4a4745" stroke-width="1.600" stroke-opacity="1.000" stroke-linecap="round" stroke-linejoin="round" d="M 31.106 576.955 Q 31.214 577.317 31.069 576.527 Q 30.923 575.738 30.821 575.289 Q 30.718 574.840 30.648 574.673 Q 30.578 574.505 30.521 574.416 Q 30.465 574.326 30.460 574.311 Q 30.456 574.297 30.461 574.309 Q 30.466 574.320 30.457 574.181 Q 30.448 574.041 30.211 573.441 Q 29.975 572.841 29.816 572.296 Q 29.657 571.751 29.585 571.403 Q 29.512 571.056 29.328 570.525 Q 29.143 569.993 29.052 569.608 Q 28.962 569.223 28.890 568.987 Q 28.819 568.751 28.769 568.538 Q 28.719 568.324 28.725 568.375 Q 28.730 568.426 28.720 568.172 Q 28.709 567.918 28.692 567.657 Q 28.674 567.397 28.644 567.238 Q 28.613 567.079 28.591 566.962 Q 28.569 566.845 28.563 566.704 Q 28.557 566.563 28.457 566.238 Q 28.356 565.914 28.238 565.516 Q 28.119 565.118 28.048 564.794 Q 27.976 564.470 27.943 564.262 Q 27.910 564.053 27.915 563.997 Q 27.920 563.941 27.848 563.653 Q 27.776 563.365 27.658 563.132 Q 27.539 562.900 27.459 562.661 Q 27.378 562.423 27.291 561.998 Q 27.205 561.572 27.036 560.714 Q 26.867 559.856 26.711 559.114 Q 26.556 558.372 26.254 557.573 Q 25.952 556.773 25.746 555.447 Q 25.540 554.121 25.311 552.421 "></path>
    <path id="STROKE_933da34d-92a3-471a-92a4-85915aa860f3" opacity="1.000" fill="none" stroke="#4a4745" stroke-width="1.600" stroke-opacity="1.000" stroke-linecap="round" stroke-linejoin="round" d="M 24.670 549.915 Q 24.750 551.361 24.920 552.149 Q 25.091 552.937 25.267 553.772 Q 25.442 554.607 25.735 556.029 "></path>
    <path id="STROKE_a5d1e20a-8d5a-4a72-8615-dce30f1748c4" opacity="1.000" fill="none" stroke="#4a4745" stroke-width="1.600" stroke-opacity="1.000" stroke-linecap="round" stroke-linejoin="round" d="M 24.409 545.518 Q 24.358 545.538 24.385 545.864 Q 24.413 546.190 24.455 547.294 "></path>
    <path id="STROKE_399b7f07-1f6c-4247-9b41-6c1ee5872e3b" opacity="1.000" fill="none" stroke="#4a4745" stroke-width="1.600" stroke-opacity="1.000" stroke-linecap="round" stroke-linejoin="round" d="M 24.957 549.556 Q 24.928 549.560 25.222 550.386 "></path>
    <path id="STROKE_37014626-8771-4acd-bac5-e250319ed01b" opacity="1.000" fill="none" stroke="#4a4745" stroke-width="1.600" stroke-opacity="1.000" stroke-linecap="round" stroke-linejoin="round" d="M 24.443 547.860 Q 24.437 547.922 24.709 549.804 "></path>
    <path id="STROKE_95f7ae9c-911f-4447-adfd-27a6071a38bc" opacity="1.000" fill="none" stroke="#000000" stroke-width="1.600" stroke-opacity="1.000" stroke-linecap="round" stroke-linejoin="round" d="M -13.419 583.362 Q -13.730 583.441 -13.933 584.277 Q -14.135 585.113 -14.097 586.010 Q -14.059 586.907 -14.156 587.524 Q -14.253 588.141 -13.903 588.983 Q -13.553 589.825 -13.346 590.382 Q -13.138 590.940 -12.544 591.184 Q -11.949 591.429 -11.580 591.490 Q -11.212 591.550 -10.421 591.282 Q -9.630 591.013 -8.862 590.504 Q -8.094 589.995 -7.395 589.309 Q -6.697 588.622 -6.437 588.042 Q -6.177 587.462 -6.105 586.908 Q -6.032 586.355 -6.224 585.604 Q -6.416 584.853 -7.286 583.931 Q -8.157 583.009 -9.286 582.374 Q -10.415 581.739 -11.220 581.554 Q -12.026 581.369 -12.559 581.431 Q -13.091 581.494 -13.467 581.869 Q -13.843 582.244 -13.605 582.966 "></path>
    <path id="STROKE_288a62d3-074c-44c8-8fca-fcb55eb5f7ab" opacity="1.000" fill="none" stroke="#000000" stroke-width="1.600" stroke-opacity="1.000" stroke-linecap="round" stroke-linejoin="round" d="M -28.871 534.139 Q -28.758 534.843 -29.054 536.163 Q -29.350 537.484 -29.487 539.160 Q -29.625 540.836 -29.474 541.968 Q -29.322 543.101 -29.171 543.796 Q -29.020 544.491 -28.778 544.938 Q -28.537 545.384 -27.532 545.381 Q -26.528 545.379 -24.833 544.678 Q -23.139 543.978 -21.553 542.995 "></path>
    <path id="STROKE_6aa20623-616b-4b6e-8607-c1a6b5586689" opacity="1.000" fill="none" stroke="#000000" stroke-width="1.600" stroke-opacity="1.000" stroke-linecap="round" stroke-linejoin="round" d="M -28.102 539.243 Q -27.989 539.074 -26.602 538.515 Q -25.216 537.956 -24.394 537.446 Q -23.572 536.937 -23.068 536.376 "></path>
    <path id="STROKE_52325aec-96bc-4ff3-9dc0-2422facfa312" opacity="1.000" fill="none" stroke="#000000" stroke-width="1.600" stroke-opacity="1.000" stroke-linecap="round" stroke-linejoin="round" d="M -29.803 531.738 Q -30.091 531.541 -25.328 528.312 "></path>
    <path id="STROKE_ca104dcd-7301-4f40-9c18-3ecc8a61bf88" opacity="1.000" fill="none" stroke="#000000" stroke-width="1.600" stroke-opacity="1.000" stroke-linecap="round" stroke-linejoin="round" d="M 300.000 468.000 L 300.000 658.000 L 300.000 668.000 "></path>
    <path id="STROKE_0b0e3a93-2f30-4269-989e-a99ea78e61cc" opacity="1.000" fill="none" stroke="#000000" stroke-width="1.600" stroke-opacity="1.000" stroke-linecap="round" stroke-linejoin="round" d="M 300.000 668.000 L 480.000 668.000 L 480.000 668.000 "></path>
    <path id="STROKE_01bbede8-ef26-406b-80c4-bf4ac548593d" opacity="1.000" fill="none" stroke="#000000" stroke-width="1.600" stroke-opacity="1.000" stroke-linecap="round" stroke-linejoin="round" d="M 476.312 668.000 L 490.000 668.000 L 500.000 668.000 "></path>
    <path id="STROKE_c0f4cd38-2b8d-44db-8f3a-cef5b5ef33c5" opacity="1.000" fill="none" stroke="#4a4745" stroke-width="1.600" stroke-opacity="1.000" stroke-linecap="round" stroke-linejoin="round" d="M 340.000 568.000 L 340.000 478.000 L 340.000 468.000 "></path>
    <path id="STROKE_dfcf4839-2549-4ab6-960e-13035876c3fd" opacity="1.000" fill="none" stroke="#4a4745" stroke-width="1.600" stroke-opacity="1.000" stroke-linecap="round" stroke-linejoin="round" d="M 340.000 568.000 L 340.000 568.000 "></path>
    <path id="STROKE_d2e903ec-271b-4c96-9c4c-cbbd1d38d680" opacity="1.000" fill="none" stroke="#4a4745" stroke-width="1.600" stroke-opacity="1.000" stroke-linecap="round" stroke-linejoin="round" d="M 340.000 568.000 L 340.000 578.000 L 340.000 588.000 "></path>
    <path id="STROKE_c08da7fc-2f95-45db-9b44-9f00362e19c6" opacity="1.000" fill="none" stroke="#4a4745" stroke-width="1.600" stroke-opacity="1.000" stroke-linecap="round" stroke-linejoin="round" d="M 340.000 588.000 L 460.000 588.000 L 464.912 588.000 "></path>
    <path id="STROKE_dc2d05c8-28a9-4e9e-9dd8-0307062fc487" opacity="1.000" fill="none" stroke="#4a4745" stroke-width="1.600" stroke-opacity="1.000" stroke-linecap="round" stroke-linejoin="round" d="M 465.413 588.000 L 498.806 588.000 "></path>
    <path id="STROKE_7d87d8d0-1582-41dc-b8b7-13ea977e45ae" opacity="1.000" fill="none" stroke="#000000" stroke-width="1.600" stroke-opacity="1.000" stroke-linecap="round" stroke-linejoin="round" d="M 271.120 537.090 Q 271.060 537.514 270.740 540.221 Q 270.420 542.929 270.579 544.733 Q 270.737 546.536 271.105 547.641 Q 271.473 548.746 271.844 549.208 Q 272.215 549.671 273.064 550.123 Q 273.913 550.576 277.675 547.015 "></path>
    <path id="STROKE_0773e227-7eec-4181-9e90-7f36ebed3e9d" opacity="1.000" fill="none" stroke="#000000" stroke-width="1.600" stroke-opacity="1.000" stroke-linecap="round" stroke-linejoin="round" d="M 272.673 542.329 Q 272.369 542.456 276.385 541.065 "></path>
    <path id="STROKE_da822b41-ef72-4376-abd0-555877b0b295" opacity="1.000" fill="none" stroke="#000000" stroke-width="1.600" stroke-opacity="1.000" stroke-linecap="round" stroke-linejoin="round" d="M 272.383 535.484 Q 271.922 535.089 273.020 533.975 Q 274.118 532.860 275.885 531.772 "></path>
    <path id="STROKE_b0b9c6ef-1d25-48da-9cf7-f9b4180fe335" opacity="1.000" fill="none" stroke="#000000" stroke-width="1.600" stroke-opacity="1.000" stroke-linecap="round" stroke-linejoin="round" d="M 279.439 583.293 Q 279.400 583.437 279.436 583.276 Q 279.472 583.115 279.004 583.839 Q 278.536 584.564 278.427 585.172 Q 278.318 585.779 278.269 586.471 Q 278.220 587.162 278.306 587.534 Q 278.391 587.906 278.493 588.185 Q 278.595 588.463 278.673 588.628 Q 278.751 588.793 279.372 589.406 Q 279.994 590.019 281.424 589.954 Q 282.855 589.888 283.661 589.616 Q 284.467 589.343 285.317 588.449 Q 286.168 587.556 286.760 586.705 Q 287.353 585.855 287.491 585.150 Q 287.628 584.445 287.309 583.436 Q 286.991 582.428 286.084 581.615 Q 285.177 580.801 284.425 580.105 Q 283.673 579.409 282.654 579.172 Q 281.636 578.935 280.988 578.995 Q 280.339 579.055 279.810 579.283 Q 279.281 579.510 279.018 580.634 "></path>
    <path id="STROKE_7d0a47f8-d943-40f6-8abb-11017cd4a8b9" opacity="1.000" fill="none" stroke="#000000" stroke-width="1.600" stroke-opacity="1.000" stroke-linecap="round" stroke-linejoin="round" d="M 308.583 597.035 Q 308.912 597.212 307.454 599.534 Q 305.995 601.855 304.461 603.490 Q 302.928 605.126 302.050 605.979 Q 301.171 606.833 300.817 607.618 Q 300.961 607.968 302.347 607.936 Q 303.732 607.904 304.946 608.224 Q 306.159 608.543 307.583 609.961 "></path>
    <path id="STROKE_8500bbaf-1ecd-4148-890c-a71949970f67" opacity="1.000" fill="none" stroke="#000000" stroke-width="1.600" stroke-opacity="1.000" stroke-linecap="round" stroke-linejoin="round" d="M 304.529 604.459 Q 305.056 604.547 305.055 604.551 Q 305.097 604.660 309.358 604.737 Q 313.620 604.814 318.356 604.430 Q 323.091 604.046 325.386 603.708 Q 327.682 603.369 329.576 603.140 Q 331.470 602.911 335.594 603.064 "></path>
    <path id="STROKE_b6e706ad-9667-4cb5-8133-882948e3e127" opacity="1.000" fill="none" stroke="#000000" stroke-width="1.600" stroke-opacity="1.000" stroke-linecap="round" stroke-linejoin="round" d="M 334.594 599.826 Q 334.862 600.004 336.728 600.835 Q 338.594 601.667 339.767 602.096 Q 340.941 602.525 341.333 602.679 Q 341.726 602.833 342.094 603.086 Q 342.462 603.339 342.298 603.773 Q 342.134 604.207 341.835 604.536 Q 341.536 604.865 340.967 605.230 Q 340.399 605.595 338.859 606.723 "></path>
    <path id="STROKE_bb7d155c-fd94-4fdf-b541-2cba70e461eb" opacity="1.000" fill="none" stroke="#000000" stroke-width="1.600" stroke-opacity="1.000" stroke-linecap="round" stroke-linejoin="round" d="M 315.007 617.807 Q 314.482 617.657 314.179 619.139 Q 313.876 620.620 313.806 621.567 Q 313.737 622.514 314.182 623.709 Q 314.628 624.903 315.684 625.979 Q 316.740 627.054 317.696 627.508 Q 318.652 627.963 319.606 628.034 Q 320.560 628.105 321.672 627.679 Q 322.785 627.253 323.463 626.587 Q 324.141 625.922 324.551 624.753 Q 324.961 623.584 324.850 622.326 Q 324.739 621.067 324.268 619.704 Q 323.797 618.341 323.220 617.515 Q 322.644 616.689 321.698 616.005 Q 320.752 615.322 318.350 615.911 Q 318.451 616.017 318.678 616.213 Q 318.906 616.410 318.898 616.333 Q 318.890 616.257 318.910 616.425 Q 318.930 616.593 322.014 616.495 Q 325.099 616.397 329.329 615.279 "></path>
    <path id="STROKE_0c160295-b66c-4926-b8d7-b529fb2694d3" opacity="1.000" fill="none" stroke="#000000" stroke-width="1.600" stroke-opacity="1.000" stroke-linecap="round" stroke-linejoin="round" d="M 328.039 632.760 Q 328.104 632.786 328.170 632.813 Q 328.372 632.574 329.316 630.790 Q 330.259 629.005 330.759 627.748 Q 331.258 626.490 331.014 624.467 Q 331.093 624.467 331.172 624.467 Q 331.341 625.069 333.147 626.937 Q 334.952 628.804 338.306 630.996 "></path>
    <path id="STROKE_69723eae-16d8-4ed6-88bd-a49dc852ae15" opacity="1.000" fill="none" stroke="#000000" stroke-width="1.600" stroke-opacity="1.000" stroke-linecap="round" stroke-linejoin="round" d="M 330.171 630.733 Q 330.211 630.799 330.382 631.049 Q 331.265 630.959 334.726 629.785 "></path>
    <path id="STROKE_0fc64b97-7558-4c20-8317-719fabe22342" opacity="1.000" fill="none" stroke="#000000" stroke-width="1.600" stroke-opacity="1.000" stroke-linecap="round" stroke-linejoin="round" d="M 342.992 625.547 Q 342.887 625.573 342.782 625.599 Q 342.689 625.747 342.571 626.902 Q 342.452 628.058 342.687 629.054 Q 342.922 630.050 344.098 631.444 Q 344.394 631.283 344.361 631.233 "></path>
    <path id="STROKE_90497d5c-a8e7-4837-a7fb-dd9f8b3d2445" opacity="1.000" fill="none" stroke="#000000" stroke-width="1.600" stroke-opacity="1.000" stroke-linecap="round" stroke-linejoin="round" d="M 341.781 626.494 Q 341.636 626.402 341.492 626.310 Q 342.014 625.508 341.926 625.731 Q 342.036 625.335 343.406 625.108 Q 344.775 624.880 345.640 624.994 Q 346.506 625.107 347.066 625.295 Q 347.626 625.484 347.853 625.830 Q 348.080 626.177 348.152 626.350 Q 348.223 626.523 348.230 626.710 Q 348.236 626.898 348.183 627.289 Q 348.130 627.679 347.984 627.845 Q 347.838 628.010 347.726 628.118 Q 347.615 628.225 347.555 628.260 Q 347.495 628.294 347.397 628.366 Q 347.299 628.438 346.283 628.837 Q 346.271 628.807 346.268 628.847 Q 346.266 628.886 351.509 630.575 Q 351.661 630.418 351.581 630.696 Q 351.502 630.975 351.311 631.340 Q 351.119 631.705 350.926 631.753 Q 350.733 631.801 350.627 631.983 Q 350.520 632.165 345.493 632.312 "></path>
    <circle id="STROKE_627cf5e1-7ae9-487b-8566-bdef0d457ed3" opacity="1.000" fill="#000000" stroke="#000000" stroke-width="0.1" stroke-opacity="1.000" fill-opacity="1.000" cx="381.245" cy="680.385" r="0.800"></circle>
    <path id="STROKE_23078af9-c65b-4539-a3fc-ab5dee18c8ec" opacity="1.000" fill="none" stroke="#000000" stroke-width="1.600" stroke-opacity="1.000" stroke-linecap="round" stroke-linejoin="round" d="M 381.245 678.989 Q 381.163 679.382 381.153 679.371 Q 380.913 680.229 380.794 682.089 Q 380.676 683.949 381.324 688.493 Q 381.440 688.398 381.529 686.781 Q 381.618 685.165 382.037 683.936 Q 382.456 682.708 382.929 682.088 Q 383.402 681.468 383.662 681.193 Q 383.922 680.918 384.278 680.588 Q 384.634 680.257 387.669 679.042 "></path>
    <path id="STROKE_a98d35f2-00c8-49af-8161-886c0e12eae6" opacity="1.000" fill="none" stroke="#000000" stroke-width="1.600" stroke-opacity="1.000" stroke-linecap="round" stroke-linejoin="round" d="M 390.433 686.466 Q 390.354 686.499 390.092 686.569 Q 389.830 686.638 389.582 686.854 Q 389.333 687.071 389.059 687.478 Q 388.786 687.886 388.515 689.490 Q 388.243 691.094 388.301 693.995 Q 388.261 693.995 388.222 693.995 Q 388.195 694.131 388.473 693.036 Q 388.750 691.941 389.590 690.848 Q 390.430 689.754 390.740 688.789 Q 391.051 687.823 391.362 687.137 Q 391.672 686.451 391.880 686.240 Q 392.087 686.029 392.246 686.000 Q 392.404 685.972 392.642 686.019 Q 392.879 686.067 392.883 686.075 Q 392.887 686.084 393.123 686.277 Q 393.358 686.471 393.698 686.985 Q 394.039 687.499 394.792 689.124 Q 395.546 690.750 396.077 691.765 Q 396.607 692.781 397.068 693.548 "></path>
    <path id="STROKE_f50868a4-4841-47e3-886d-a753a3dddd5e" opacity="1.000" fill="none" stroke="#000000" stroke-width="1.600" stroke-opacity="1.000" stroke-linecap="round" stroke-linejoin="round" d="M 390.881 690.336 Q 390.736 690.362 390.591 690.389 Q 390.957 690.818 394.935 690.704 "></path>
    <path id="STROKE_3599ef0b-1a82-4ace-a1ad-ca8fa95f782e" opacity="1.000" fill="none" stroke="#000000" stroke-width="1.600" stroke-opacity="1.000" stroke-linecap="round" stroke-linejoin="round" d="M 402.544 689.256 Q 402.518 689.217 402.491 689.177 Q 403.086 689.318 403.057 689.283 Q 403.736 689.395 404.290 689.413 Q 404.844 689.431 406.967 688.941 "></path>
    <path id="STROKE_f8b1fd01-9a00-4f44-ba15-1a4a35b8c56b" opacity="1.000" fill="none" stroke="#000000" stroke-width="1.600" stroke-opacity="1.000" stroke-linecap="round" stroke-linejoin="round" d="M 413.022 684.939 Q 413.522 684.862 413.377 684.939 Q 413.439 684.673 413.820 686.233 Q 414.202 687.793 414.267 688.980 Q 414.333 690.167 414.294 690.878 Q 414.255 691.589 414.101 692.231 "></path>
    <path id="STROKE_bada6cd3-b981-46d5-af1f-26bdae32ff6b" opacity="1.000" fill="none" stroke="#000000" stroke-width="1.600" stroke-opacity="1.000" stroke-linecap="round" stroke-linejoin="round" d="M 413.022 684.886 Q 412.804 685.010 413.209 684.603 Q 413.615 684.196 414.023 683.833 Q 414.431 683.471 415.281 683.334 Q 416.131 683.198 416.731 683.346 Q 417.331 683.494 417.613 683.685 Q 417.896 683.876 418.330 684.183 Q 418.763 684.491 418.974 684.903 Q 419.186 685.316 419.164 685.523 Q 419.143 685.730 419.004 686.074 Q 418.864 686.417 418.690 686.681 Q 418.515 686.945 416.523 687.677 Q 417.179 688.302 417.580 688.412 Q 417.980 688.522 418.743 689.054 Q 419.505 689.585 419.755 689.816 Q 420.004 690.047 420.218 690.564 Q 420.432 691.082 418.793 691.491 Q 417.155 691.900 414.233 691.521 "></path>
    <path id="STROKE_17fc6f6a-6807-4058-af40-eeb8921a9772" opacity="1.000" fill="none" stroke="#000000" stroke-width="1.600" stroke-opacity="1.000" stroke-linecap="round" stroke-linejoin="round" d="M -5.769 470.468 Q -5.858 471.127 -5.800 470.938 Q -5.158 471.592 -3.905 469.032 Q -2.653 466.471 -1.013 463.106 Q -1.015 463.316 -1.156 463.706 Q -1.298 464.097 -1.011 464.610 Q -0.724 465.123 -0.426 465.425 Q -0.128 465.726 0.174 465.810 Q 0.476 465.895 0.635 465.913 Q 0.793 465.930 0.794 465.911 Q 0.795 465.893 0.956 465.893 "></path>
    <path id="STROKE_ffa7ac30-771d-4272-b963-16aaa51a3d8e" opacity="1.000" fill="none" stroke="#000000" stroke-width="1.600" stroke-opacity="1.000" stroke-linecap="round" stroke-linejoin="round" d="M -1.164 464.500 Q -1.309 464.751 -0.565 465.184 Q 0.178 465.616 0.676 465.697 Q 1.173 465.778 1.287 465.758 Q 1.401 465.738 1.631 465.718 Q 1.860 465.698 2.197 465.657 Q 2.534 465.617 2.783 465.592 Q 3.033 465.567 3.282 465.548 Q 3.532 465.528 3.835 465.530 "></path>
    <path id="STROKE_fc7a901f-df2b-498f-8e08-1e83c93c9b01" opacity="1.000" fill="none" stroke="#000000" stroke-width="1.600" stroke-opacity="1.000" stroke-linecap="round" stroke-linejoin="round" d="M 198.213 663.449 Q 198.147 663.541 197.395 663.510 Q 197.480 663.649 197.422 663.620 Q 197.364 663.592 197.550 663.812 Q 197.736 664.033 197.986 664.214 Q 198.235 664.395 198.378 664.478 Q 198.520 664.561 198.693 664.564 Q 198.865 664.567 203.788 669.266 Q 204.017 669.679 199.031 671.962 "></path>
    <path id="STROKE_a752cd9a-c1a2-42be-83d5-ef12870307bd" opacity="1.000" fill="none" stroke="#000000" stroke-width="1.600" stroke-opacity="1.000" stroke-linecap="round" stroke-linejoin="round" d="M 297.250 469.377 Q 296.945 469.978 296.917 469.968 Q 296.692 470.593 294.797 473.891 Q 295.468 473.782 298.402 464.439 Q 298.434 464.548 298.326 465.640 Q 298.219 466.731 299.866 468.252 Q 301.512 469.773 305.279 470.680 "></path>
    <path id="STROKE_752812a8-5424-4c87-b976-457d7cabf31d" opacity="1.000" fill="none" stroke="#000000" stroke-width="1.600" stroke-opacity="1.000" stroke-linecap="round" stroke-linejoin="round" d="M 498.446 664.752 Q 498.028 664.951 496.628 664.449 Q 496.719 664.449 496.810 664.449 Q 496.673 664.419 496.537 664.388 Q 496.422 664.350 497.385 664.600 Q 496.847 664.846 504.262 666.570 Q 505.219 665.829 500.324 670.872 "></path>
    <path id="STROKE_30f3c396-7082-42ad-9c4c-99d00513c82e" opacity="1.000" fill="none" stroke="#000000" stroke-width="1.600" stroke-opacity="1.000" stroke-linecap="round" stroke-linejoin="round" d="M 0.000 468.000 L 0.000 658.000 L 0.000 668.000 "></path>
    <path id="STROKE_a0f2e2bd-03c2-4210-a842-ef84a30a2fd3" opacity="1.000" fill="none" stroke="#000000" stroke-width="1.600" stroke-opacity="1.000" stroke-linecap="round" stroke-linejoin="round" d="M 0.000 668.000 L 190.000 668.000 L 200.000 668.000 "></path>
  </g>
</svg>