<?xml version="1.0" encoding="UTF-8" standalone="yes"?>
<svg xmlns="http://www.w3.org/2000/svg" xmlns:xlink="http://www.w3.org/1999/xlink" width="354.715pt" height="307.733pt" version="1.1" viewBox="-72.999 570.619 354.715 307.733">
  <!--
	Exported with Concepts: Smarter Sketching
	Version: 2024.8.5 on Microsoft Windows NT 10.0.22631.0
	https://concepts.app/
	-->
  <title>Drawing</title>
  <desc>Drawing exported from Concepts: Smarter Sketching</desc>
  <defs></defs>
  <g id="Pen" opacity="1.000">
    <path id="STROKE_7eb7c6ae-5af0-4e33-a3ad-bc2465cba976" opacity="1.000" fill="none" stroke="#000000" stroke-width="1.600" stroke-opacity="1.000" stroke-linecap="round" stroke-linejoin="round" d="M 0.000 640.000 L 0.000 816.000 L 0.000 832.000 "></path>
    <path id="STROKE_878fd44e-5eff-430c-9efc-80acb88174cd" opacity="1.000" fill="none" stroke="#000000" stroke-width="1.600" stroke-opacity="1.000" stroke-linecap="round" stroke-linejoin="round" d="M 0.000 832.000 L 192.000 832.000 L 192.000 832.000 "></path>
    <path id="STROKE_f403e4d8-bde5-42a4-8404-7b1323b13857" opacity="1.000" fill="none" stroke="#000000" stroke-width="1.600" stroke-opacity="1.000" stroke-linecap="round" stroke-linejoin="round" d="M 0.000 576.000 L 0.000 640.000 L 0.000 640.000 "></path>
    <path id="STROKE_cce8100c-e3d5-48dc-b596-353569fa540a" opacity="1.000" fill="none" stroke="#000000" stroke-width="1.600" stroke-opacity="1.000" stroke-linecap="round" stroke-linejoin="round" d="M 192.000 832.000 L 256.000 832.000 L 256.000 832.000 "></path>
    <path id="STROKE_f5cbc5e3-7ef3-4290-9685-d1979fea3633" opacity="1.000" fill="none" stroke="#000000" stroke-width="1.600" stroke-opacity="1.000" stroke-linecap="round" stroke-linejoin="round" d="M 5.126 828.485 Q 5.126 828.512 5.126 828.538 Q 5.126 828.512 5.126 828.485 L 5.126 828.512 Q 5.100 828.512 5.074 828.485 Q 4.841 828.698 4.443 829.064 Q 4.443 829.037 4.390 828.906 Q 4.364 828.906 4.285 828.880 L 4.285 828.854 Q 4.259 828.854 4.232 828.854 Q 4.403 826.667 4.435 826.860 Q 4.467 827.054 4.454 826.938 Q 4.442 826.821 4.418 827.006 Q 4.395 827.191 4.672 825.419 Q 4.949 823.646 5.157 822.326 Q 5.365 821.006 5.495 820.005 Q 5.625 819.005 5.762 818.434 Q 5.899 817.863 6.036 817.471 Q 6.172 817.078 6.272 816.605 Q 6.372 816.131 6.458 815.659 Q 6.545 815.187 6.689 814.546 Q 6.834 813.904 6.837 813.877 Q 6.839 813.849 6.862 813.774 Q 6.885 813.698 6.853 813.788 Q 6.820 813.877 7.147 812.487 Q 7.473 811.097 8.130 808.040 Q 8.788 804.982 9.096 803.837 Q 9.404 802.692 9.657 801.270 Q 9.909 799.847 9.981 798.855 Q 10.052 797.863 10.109 797.407 Q 10.166 796.952 10.266 796.373 Q 10.365 795.793 10.331 795.989 Q 10.297 796.184 10.532 794.498 Q 10.768 792.811 11.136 790.726 Q 11.504 788.641 12.033 786.534 Q 12.563 784.426 12.838 783.242 Q 13.114 782.057 13.179 781.636 Q 13.244 781.216 13.433 780.600 Q 13.622 779.984 13.892 779.103 Q 14.162 778.222 14.420 777.501 Q 14.677 776.779 14.809 776.436 Q 14.940 776.092 15.319 774.581 Q 15.698 773.070 15.897 772.399 Q 16.096 771.729 16.082 771.929 Q 16.068 772.129 16.299 771.004 Q 16.531 769.878 17.308 767.092 Q 18.086 764.306 18.731 762.515 Q 19.377 760.724 19.913 759.189 Q 20.448 757.655 20.918 756.274 Q 21.388 754.893 21.885 753.247 Q 22.383 751.601 22.553 750.766 Q 22.723 749.931 22.841 749.423 Q 22.958 748.914 22.853 749.280 Q 22.747 749.645 23.256 747.681 Q 23.764 745.718 24.167 744.475 Q 24.570 743.232 25.013 741.490 Q 25.456 739.748 26.155 737.586 Q 26.854 735.424 27.594 733.818 Q 28.335 732.213 28.588 731.442 Q 28.841 730.670 29.289 729.425 Q 29.738 728.180 30.006 727.607 Q 30.275 727.034 30.552 726.558 Q 30.829 726.083 32.254 722.345 Q 33.679 718.607 34.664 716.124 Q 35.649 713.640 36.644 711.533 Q 37.639 709.427 38.205 707.997 Q 38.770 706.567 40.490 703.336 Q 42.211 700.106 44.087 696.977 Q 45.964 693.848 46.938 692.240 Q 47.912 690.632 48.184 690.180 Q 48.455 689.727 48.752 689.180 Q 49.049 688.633 49.303 688.250 Q 49.557 687.866 49.792 687.542 Q 50.028 687.217 50.025 687.204 Q 50.023 687.191 51.213 685.607 Q 52.402 684.022 54.514 681.027 Q 56.625 678.031 57.386 677.063 Q 58.147 676.094 59.354 674.409 Q 60.562 672.724 61.489 671.414 Q 62.415 670.105 62.950 669.510 Q 63.484 668.916 64.160 668.033 Q 64.836 667.151 65.223 666.654 Q 65.610 666.157 66.214 665.411 Q 66.818 664.665 67.298 664.029 Q 67.778 663.392 68.165 662.913 Q 68.552 662.434 70.175 660.591 Q 71.798 658.748 73.274 657.185 Q 74.751 655.621 75.670 654.552 Q 76.590 653.483 76.764 653.288 Q 76.938 653.093 77.394 652.612 Q 77.850 652.130 78.126 651.886 Q 78.401 651.641 78.846 651.249 Q 79.290 650.856 79.009 651.124 Q 78.729 651.393 80.059 650.160 Q 81.389 648.928 83.031 647.450 Q 84.674 645.972 86.227 644.482 Q 87.779 642.992 90.698 640.416 Q 93.616 637.840 95.233 636.664 Q 96.850 635.488 97.607 634.884 Q 98.363 634.281 98.752 633.963 Q 99.140 633.645 99.447 633.437 Q 99.755 633.229 99.870 633.140 Q 99.986 633.051 99.765 633.206 Q 99.545 633.362 101.002 632.312 Q 102.460 631.263 103.491 630.541 Q 104.522 629.819 104.325 629.961 Q 104.129 630.103 105.001 629.586 Q 105.874 629.070 106.783 628.543 Q 107.692 628.017 108.640 627.509 Q 109.588 627.001 110.354 626.570 Q 111.120 626.140 111.404 625.993 Q 111.688 625.846 111.754 625.804 Q 111.819 625.762 112.479 625.489 Q 113.139 625.216 113.133 625.209 Q 113.127 625.203 113.064 625.216 Q 113.000 625.228 113.297 625.048 Q 113.595 624.868 116.948 623.199 Q 120.302 621.530 122.284 620.248 Q 124.265 618.966 125.191 618.355 Q 126.116 617.745 126.496 617.530 Q 126.876 617.314 126.951 617.267 Q 127.026 617.219 127.244 617.069 Q 127.463 616.920 127.589 616.855 Q 127.716 616.790 128.354 616.347 Q 128.992 615.904 132.314 614.311 Q 135.635 612.718 137.498 611.939 Q 139.361 611.160 140.599 610.484 Q 141.837 609.809 142.393 609.563 Q 142.949 609.317 143.415 609.124 Q 143.881 608.931 144.400 608.668 Q 144.919 608.406 145.230 608.240 Q 145.542 608.073 145.612 608.031 Q 145.683 607.988 146.492 607.560 Q 147.302 607.133 147.636 606.964 Q 147.969 606.795 147.952 606.810 Q 147.935 606.824 147.976 606.821 Q 148.018 606.818 148.925 606.403 Q 149.831 605.988 150.861 605.593 Q 151.891 605.199 153.337 604.889 Q 154.784 604.578 155.538 604.442 Q 156.292 604.306 156.135 604.336 Q 155.979 604.366 156.905 604.135 Q 157.831 603.904 159.153 603.584 Q 160.474 603.264 161.060 603.118 Q 161.646 602.971 162.089 602.893 Q 162.532 602.814 162.798 602.769 Q 163.063 602.725 163.166 602.680 Q 163.269 602.635 163.119 602.720 Q 162.968 602.805 165.137 602.420 Q 167.307 602.035 168.301 601.855 Q 169.296 601.675 170.198 601.326 Q 171.099 600.978 171.920 600.734 Q 172.740 600.491 173.441 600.301 Q 174.141 600.112 174.144 600.138 Q 174.146 600.165 174.085 600.160 Q 174.025 600.154 174.503 600.124 Q 174.980 600.094 175.074 600.078 Q 175.167 600.063 175.656 600.011 Q 176.144 599.959 176.036 599.991 Q 175.928 600.023 176.216 599.979 Q 176.504 599.935 177.119 599.655 Q 177.734 599.375 178.940 599.074 Q 180.146 598.774 180.724 598.738 Q 181.302 598.702 181.600 598.739 Q 181.897 598.775 182.101 598.756 Q 182.305 598.737 182.267 598.789 Q 182.229 598.842 183.353 598.635 Q 184.476 598.427 185.526 598.203 Q 186.575 597.978 187.149 597.948 Q 187.723 597.917 188.557 597.906 Q 189.391 597.895 189.135 597.938 Q 188.880 597.981 190.727 597.600 Q 192.574 597.219 193.739 597.115 Q 194.904 597.011 195.462 597.120 Q 196.021 597.229 196.440 597.310 Q 196.859 597.391 197.527 597.552 Q 198.195 597.713 198.192 597.675 Q 198.188 597.637 198.248 597.680 Q 198.308 597.723 199.047 597.842 Q 199.786 597.960 202.257 597.828 Q 204.728 597.696 206.284 597.546 Q 207.840 597.397 208.538 597.482 Q 209.236 597.567 209.671 597.678 Q 210.106 597.790 210.076 597.776 Q 210.046 597.763 209.995 597.853 Q 209.945 597.944 211.297 597.815 Q 212.649 597.687 214.458 597.675 Q 216.266 597.663 217.598 597.711 Q 218.930 597.759 219.423 597.723 Q 219.916 597.688 219.898 597.699 Q 219.879 597.711 220.572 597.813 Q 221.266 597.915 221.213 597.936 Q 222.481 598.270 222.080 598.173 Q 223.596 598.325 223.125 598.284 Q 222.653 598.242 224.157 598.357 "></path>
    <path id="STROKE_da961080-ab06-4bb5-a9c6-e1407b228bcd" opacity="1.000" fill="none" stroke="#000000" stroke-width="1.600" stroke-opacity="1.000" stroke-linecap="round" stroke-linejoin="round" d="M 210.645 608.714 Q 210.671 608.714 210.698 608.609 Q 210.416 608.637 211.013 614.527 Q 211.610 620.418 212.397 624.680 Q 213.185 628.942 214.536 633.163 "></path>
    <path id="STROKE_b78ba993-b3d0-4c53-a4bf-426324390bbe" opacity="1.000" fill="none" stroke="#000000" stroke-width="1.600" stroke-opacity="1.000" stroke-linecap="round" stroke-linejoin="round" d="M 202.496 617.284 Q 202.338 617.443 202.047 617.733 Q 201.757 618.023 201.784 618.009 Q 201.810 617.995 201.942 617.798 Q 202.074 617.602 200.813 619.282 Q 200.888 619.492 204.151 615.308 Q 207.413 611.123 210.356 603.930 Q 210.452 603.992 212.748 604.814 Q 215.044 605.635 220.529 607.663 "></path>
    <path id="STROKE_a8df535f-e2f5-44df-940a-cc075bf39707" opacity="1.000" fill="none" stroke="#000000" stroke-width="1.600" stroke-opacity="1.000" stroke-linecap="round" stroke-linejoin="round" d="M 210.750 650.828 Q 209.026 652.748 209.101 652.857 Q 209.177 652.965 208.680 655.178 Q 208.183 657.391 208.077 659.090 Q 207.972 660.789 208.433 662.498 Q 208.895 664.206 210.222 665.019 Q 211.549 665.832 213.554 665.487 Q 215.559 665.143 216.503 664.565 Q 217.447 663.987 217.662 663.875 Q 217.877 663.763 219.062 662.895 Q 220.246 662.026 221.388 660.233 Q 222.531 658.441 222.123 656.587 Q 221.715 654.734 220.951 653.289 Q 220.186 651.844 218.960 650.580 Q 217.734 649.317 215.239 648.424 Q 212.744 647.532 210.361 649.575 Q 207.979 651.618 206.673 653.637 Q 205.368 655.657 205.309 657.023 Q 205.251 658.389 205.516 658.730 Q 205.780 659.071 206.417 659.511 Q 207.054 659.951 208.416 659.929 Q 209.777 659.908 218.847 657.190 "></path>
    <path id="STROKE_3debdcb6-cd28-4645-9ad3-315815788338" opacity="1.000" fill="none" stroke="#000000" stroke-width="1.600" stroke-opacity="1.000" stroke-linecap="round" stroke-linejoin="round" d="M 229.678 665.445 Q 228.934 666.629 229.152 666.260 Q 228.527 667.304 227.760 668.108 Q 226.993 668.913 226.234 672.832 Q 226.624 672.930 228.650 670.007 Q 230.677 667.084 235.776 656.191 Q 235.844 655.776 236.539 657.175 Q 237.234 658.574 237.701 662.443 Q 238.168 666.313 238.645 668.951 Q 239.122 671.589 241.349 674.120 "></path>
    <path id="STROKE_9ab852fb-7b6d-4fc7-b929-a3ba93ef84e0" opacity="1.000" fill="none" stroke="#000000" stroke-width="1.600" stroke-opacity="1.000" stroke-linecap="round" stroke-linejoin="round" d="M 231.675 671.964 Q 231.597 671.938 231.465 671.833 Q 232.101 671.222 233.806 670.200 Q 235.510 669.177 241.612 668.547 "></path>
    <path id="STROKE_4acea3d8-26d8-4c17-84f1-cb1fa391333c" opacity="1.000" fill="none" stroke="#000000" stroke-width="1.600" stroke-opacity="1.000" stroke-linecap="round" stroke-linejoin="round" d="M 249.709 658.399 Q 249.656 658.347 249.551 658.163 Q 250.279 657.704 256.123 657.243 "></path>
    <path id="STROKE_ff7b5424-5e3a-46a6-bc6d-b47819c85410" opacity="1.000" fill="none" stroke="#000000" stroke-width="1.600" stroke-opacity="1.000" stroke-linecap="round" stroke-linejoin="round" d="M 250.655 666.707 Q 250.629 666.707 250.603 666.707 Q 251.291 666.898 259.856 664.130 "></path>
    <path id="STROKE_41c6248a-2f35-4f15-9248-8883d16a6f08" opacity="1.000" fill="none" stroke="#000000" stroke-width="1.600" stroke-opacity="1.000" stroke-linecap="round" stroke-linejoin="round" d="M 272.527 655.192 Q 272.527 655.166 272.527 655.140 Q 272.604 654.355 276.365 665.129 "></path>
    <path id="STROKE_bd3d10b2-9798-4bd4-9c49-43b654e377c5" opacity="1.000" fill="none" stroke="#000000" stroke-width="1.600" stroke-opacity="1.000" stroke-linecap="round" stroke-linejoin="round" d="M 36.669 751.553 Q 36.612 751.553 36.555 751.553 Q 36.584 751.525 36.612 751.496 Q 36.764 752.585 36.812 752.583 Q 36.584 753.451 41.488 761.219 Q 46.392 768.987 54.081 777.029 L 54.110 777.000 "></path>
    <path id="STROKE_25dc9eba-c0da-4a70-93dc-048c646c16c3" opacity="1.000" fill="none" stroke="#000000" stroke-width="1.600" stroke-opacity="1.000" stroke-linecap="round" stroke-linejoin="round" d="M 35.068 761.961 Q 34.175 763.797 34.335 763.380 Q 34.496 762.964 34.582 763.877 L 34.639 763.877 Q 35.201 762.451 38.213 748.752 Q 38.863 749.022 39.275 750.465 Q 39.687 751.908 41.583 752.685 Q 43.480 753.463 44.837 753.487 Q 46.193 753.510 47.591 753.383 "></path>
    <path id="STROKE_1c2d924f-bef3-4971-ba15-ed6af7cf1f79" opacity="1.000" fill="none" stroke="#000000" stroke-width="1.600" stroke-opacity="1.000" stroke-linecap="round" stroke-linejoin="round" d="M 73.038 775.971 Q 71.920 775.692 72.208 775.828 Q 71.916 775.961 70.275 778.808 Q 68.634 781.656 68.113 784.437 Q 67.591 787.218 67.773 788.913 Q 67.955 790.607 68.421 791.836 Q 68.887 793.064 69.704 793.952 Q 70.521 794.839 72.195 795.423 Q 73.869 796.007 75.802 795.428 Q 77.734 794.849 78.846 794.179 Q 79.958 793.509 82.339 790.641 Q 84.720 787.774 85.770 784.685 Q 86.821 781.595 86.831 778.580 Q 86.841 775.565 86.076 773.523 Q 85.310 771.480 84.311 770.597 Q 83.312 769.713 82.485 769.496 Q 81.658 769.279 80.437 769.268 Q 79.215 769.258 79.260 769.141 Q 79.305 769.024 76.993 769.955 Q 74.682 770.886 72.926 772.292 Q 71.169 773.698 70.101 775.070 Q 69.032 776.442 68.981 777.557 Q 68.930 778.673 70.220 780.205 Q 71.511 781.737 73.420 781.923 Q 75.328 782.109 77.746 781.504 Q 80.164 780.900 83.788 777.229 "></path>
    <path id="STROKE_e5ad95ea-24b2-46c0-a9b9-ecdfdce562ce" opacity="1.000" fill="none" stroke="#000000" stroke-width="1.600" stroke-opacity="1.000" stroke-linecap="round" stroke-linejoin="round" d="M 95.396 787.522 Q 94.647 788.454 94.910 788.180 Q 94.282 789.821 94.338 789.752 Q 93.027 789.735 94.653 798.187 Q 95.673 799.658 100.228 777.801 Q 99.657 778.986 101.006 784.578 Q 102.354 790.171 105.003 795.528 "></path>
    <path id="STROKE_ca291dd5-9240-4d59-bd7b-d4e031c25077" opacity="1.000" fill="none" stroke="#000000" stroke-width="1.600" stroke-opacity="1.000" stroke-linecap="round" stroke-linejoin="round" d="M 98.084 793.641 Q 97.883 793.641 97.340 793.526 Q 98.530 793.222 98.455 793.269 Q 99.804 792.797 106.547 792.268 "></path>
    <path id="STROKE_cbcb3bfb-ad57-4a12-aaf0-26f5e46dd281" opacity="1.000" fill="none" stroke="#000000" stroke-width="1.600" stroke-opacity="1.000" stroke-linecap="round" stroke-linejoin="round" d="M 115.639 779.173 Q 116.146 777.713 123.644 780.088 "></path>
    <path id="STROKE_ca94abb0-9264-4dc4-9e99-1e653de9c403" opacity="1.000" fill="none" stroke="#000000" stroke-width="1.600" stroke-opacity="1.000" stroke-linecap="round" stroke-linejoin="round" d="M 116.439 787.179 Q 116.382 787.208 116.325 787.236 Q 116.356 787.607 124.330 785.292 "></path>
    <path id="STROKE_e7dfb7f0-65e2-4324-9ee6-b7a5cbe36441" opacity="1.000" fill="none" stroke="#000000" stroke-width="1.600" stroke-opacity="1.000" stroke-linecap="round" stroke-linejoin="round" d="M 142.000 767.622 Q 141.943 767.536 141.685 766.964 Q 141.312 766.850 141.814 767.903 Q 142.315 768.956 141.869 774.460 Q 141.422 779.964 140.848 783.426 Q 140.274 786.888 141.028 789.724 Q 141.044 789.871 141.657 789.295 "></path>
    <path id="STROKE_517dff6c-bc36-4015-afa8-890bb0c6c8cf" opacity="1.000" fill="none" stroke="#000000" stroke-width="1.600" stroke-opacity="1.000" stroke-linecap="round" stroke-linejoin="round" d="M 143.772 777.744 Q 143.278 778.466 145.167 774.965 Q 147.056 771.464 151.635 767.365 Q 151.620 766.799 151.778 768.766 "></path>
    <path id="STROKE_e3ab0b0e-4b55-4b61-a1b4-886c16bbb3ce" opacity="1.000" fill="none" stroke="#000000" stroke-width="1.600" stroke-opacity="1.000" stroke-linecap="round" stroke-linejoin="round" d="M 144.516 777.172 Q 142.676 777.335 153.322 787.751 "></path>
    <path id="STROKE_ff84dfee-5d3a-4f86-b103-b7145de5f462" opacity="1.000" fill="none" stroke="#000000" stroke-width="1.600" stroke-opacity="1.000" stroke-linecap="round" stroke-linejoin="round" d="M 157.039 790.553 Q 158.629 792.585 158.182 791.897 Q 159.345 792.387 159.820 792.475 Q 160.295 792.563 162.309 791.099 Q 164.322 789.634 164.538 788.547 Q 164.755 787.460 164.822 787.300 Q 164.889 787.141 164.195 786.229 Q 163.501 785.317 162.573 784.902 Q 161.645 784.486 161.179 784.393 Q 160.714 784.300 159.949 784.100 Q 159.184 783.900 158.263 783.882 Q 157.341 783.864 155.852 784.427 Q 154.363 784.990 153.987 786.033 Q 153.612 787.077 153.734 787.582 Q 153.855 788.088 154.072 788.517 Q 154.289 788.947 154.751 789.409 "></path>
    <path id="STROKE_561f6a30-8ff9-47a9-a56b-cf968a3a6367" opacity="1.000" fill="none" stroke="#000000" stroke-width="1.600" stroke-opacity="1.000" stroke-linecap="round" stroke-linejoin="round" d="M 164.244 784.434 Q 164.455 784.773 164.962 785.236 Q 165.468 785.700 166.345 786.499 Q 167.221 787.299 167.737 787.744 Q 168.252 788.190 169.429 788.306 Q 170.605 788.423 171.539 788.325 Q 172.473 788.228 174.479 787.007 "></path>
    <path id="STROKE_9e7136d2-b2ad-4063-b96a-76a8ca54deba" opacity="1.000" fill="none" stroke="#000000" stroke-width="1.600" stroke-opacity="1.000" stroke-linecap="round" stroke-linejoin="round" d="M 179.569 775.628 Q 179.563 776.395 179.597 776.314 Q 179.726 777.903 179.740 777.744 Q 179.667 777.652 180.163 779.505 Q 180.660 781.358 181.342 782.248 Q 182.024 783.137 182.681 783.507 Q 183.338 783.877 183.223 783.837 Q 183.108 783.798 183.213 783.727 Q 183.318 783.655 183.213 783.792 Q 183.109 783.929 183.385 783.688 Q 183.662 783.447 184.091 782.969 Q 184.520 782.492 184.378 782.570 Q 184.236 782.648 184.335 782.662 Q 184.434 782.675 184.608 781.881 Q 184.782 781.086 184.561 780.562 Q 184.340 780.037 184.351 780.193 Q 184.363 780.348 184.358 780.289 Q 184.353 780.230 183.935 780.032 Q 183.517 779.834 181.791 781.056 Q 180.064 782.278 179.476 783.350 Q 178.888 784.422 178.652 784.939 Q 178.416 785.455 178.478 786.359 Q 178.540 787.263 178.885 787.643 Q 179.229 788.023 180.697 788.193 Q 182.165 788.364 185.401 787.007 "></path>
    <path id="STROKE_fb74a49a-68fe-4d31-9f2b-bf25bb164cb1" opacity="1.000" fill="none" stroke="#000000" stroke-width="1.600" stroke-opacity="1.000" stroke-linecap="round" stroke-linejoin="round" d="M 199.640 772.483 Q 200.053 772.253 198.179 773.127 Q 196.304 774.001 195.680 775.056 Q 195.057 776.112 194.975 776.491 Q 194.893 776.870 194.982 776.933 Q 195.071 776.995 195.240 777.439 Q 195.409 777.883 197.310 778.597 Q 199.210 779.311 200.111 780.011 Q 201.011 780.711 201.109 780.733 Q 201.207 780.755 201.840 781.828 Q 202.474 782.902 202.072 784.417 Q 201.671 785.931 200.513 787.292 Q 199.355 788.652 198.245 788.719 Q 197.136 788.786 196.545 788.418 Q 195.955 788.051 195.523 787.293 "></path>
    <path id="STROKE_5fb94319-1c64-4916-8bae-1b977aeef17e" opacity="1.000" fill="none" stroke="#000000" stroke-width="1.600" stroke-opacity="1.000" stroke-linecap="round" stroke-linejoin="round" d="M 223.313 756.243 Q 223.342 756.243 223.371 756.185 Q 222.592 755.487 223.479 761.110 Q 224.365 766.733 225.164 769.765 Q 225.962 772.796 226.145 773.669 Q 226.328 774.541 225.200 777.229 L 225.143 777.229 "></path>
    <path id="STROKE_ca935f4d-f771-4281-bfc0-12af45de804b" opacity="1.000" fill="none" stroke="#000000" stroke-width="1.600" stroke-opacity="1.000" stroke-linecap="round" stroke-linejoin="round" d="M 221.712 760.932 Q 221.189 760.576 221.560 758.069 Q 221.931 755.563 223.868 753.067 Q 225.806 750.571 227.785 749.193 Q 229.763 747.815 231.138 747.291 Q 232.513 746.767 233.232 746.909 Q 233.951 747.051 234.575 747.565 Q 235.199 748.078 235.557 748.709 Q 235.915 749.340 235.832 749.451 Q 235.748 749.562 235.967 749.723 Q 236.185 749.885 236.046 752.936 Q 235.906 755.986 234.498 758.261 Q 233.090 760.537 232.465 761.252 Q 231.839 761.966 230.394 763.188 Q 228.949 764.411 225.801 764.363 Q 225.744 764.248 225.715 764.191 "></path>
    <path id="STROKE_a460b05e-4aa4-4b73-8cad-11bcfd6057f9" opacity="1.000" fill="none" stroke="#000000" stroke-width="1.600" stroke-opacity="1.000" stroke-linecap="round" stroke-linejoin="round" d="M 238.581 774.599 Q 238.607 774.538 238.185 775.176 Q 237.764 775.815 237.604 776.288 Q 237.445 776.762 237.233 777.457 Q 237.021 778.152 237.001 778.341 Q 236.982 778.530 236.944 778.776 Q 236.906 779.022 237.152 779.345 Q 237.925 779.478 238.826 774.875 Q 239.727 770.272 240.004 767.837 Q 240.281 765.401 240.565 764.524 Q 240.850 763.646 241.360 762.944 Q 241.870 762.242 242.985 762.999 Q 244.099 763.757 244.640 764.978 Q 245.181 766.200 245.498 767.016 Q 245.814 767.832 246.376 769.186 Q 246.938 770.540 248.695 772.795 Q 250.451 775.051 253.048 776.085 "></path>
    <path id="STROKE_30eef7ab-eacf-4f14-8756-152a77d02bff" opacity="1.000" fill="none" stroke="#000000" stroke-width="1.600" stroke-opacity="1.000" stroke-linecap="round" stroke-linejoin="round" d="M 243.327 775.342 Q 243.127 775.285 242.355 774.913 Q 243.436 773.416 243.184 773.855 Q 244.146 773.110 245.405 772.592 Q 246.664 772.075 249.789 771.911 "></path>
    <path id="STROKE_9354f1e9-5ab5-4161-896f-3bbab706f936" opacity="1.000" fill="none" stroke="#000000" stroke-width="1.600" stroke-opacity="1.000" stroke-linecap="round" stroke-linejoin="round" d="M 109.577 850.481 Q 109.520 850.424 109.206 850.338 Q 108.994 851.740 109.034 851.539 Q 108.448 852.778 110.607 868.208 "></path>
    <path id="STROKE_29c968a8-5d9b-491a-a56a-9a2d1d5feba9" opacity="1.000" fill="none" stroke="#000000" stroke-width="1.600" stroke-opacity="1.000" stroke-linecap="round" stroke-linejoin="round" d="M 108.262 848.194 Q 108.332 848.105 108.319 848.188 Q 108.306 848.271 108.238 848.232 Q 108.170 848.193 110.083 846.457 Q 111.995 844.721 113.648 844.590 Q 115.300 844.459 115.514 844.384 Q 115.728 844.308 117.345 844.870 Q 118.962 845.432 119.698 847.105 Q 120.434 848.778 120.378 849.627 Q 120.322 850.476 120.224 852.051 Q 120.125 853.627 110.321 857.286 "></path>
    <path id="STROKE_a342768d-3761-47a2-80bd-5b12458c0c55" opacity="1.000" fill="none" stroke="#000000" stroke-width="1.600" stroke-opacity="1.000" stroke-linecap="round" stroke-linejoin="round" d="M 126.160 866.664 Q 126.093 866.757 125.801 867.209 Q 125.509 867.661 125.539 867.629 Q 125.569 867.597 125.505 867.727 Q 125.441 867.858 124.791 868.744 Q 124.140 869.629 123.501 873.011 L 123.558 873.040 Q 123.836 871.884 125.461 868.089 Q 127.087 864.294 130.906 856.257 Q 130.531 855.999 132.139 859.464 Q 133.748 862.929 134.764 865.259 Q 135.781 867.589 138.855 872.840 "></path>
    <path id="STROKE_b0d20aec-31a4-40df-b255-85e38140daf2" opacity="1.000" fill="none" stroke="#000000" stroke-width="1.600" stroke-opacity="1.000" stroke-linecap="round" stroke-linejoin="round" d="M 130.106 869.009 Q 130.012 868.892 128.305 868.551 Q 127.077 868.740 135.538 867.350 "></path>
    <path id="STROKE_dd83a956-e4eb-4e76-876d-83d292b5619f" opacity="1.000" fill="none" stroke="#000000" stroke-width="1.600" stroke-opacity="1.000" stroke-linecap="round" stroke-linejoin="round" d="M -63.000 700.489 Q -63.118 700.682 -63.359 701.154 Q -63.600 701.627 -63.471 701.505 Q -63.342 701.382 -63.631 701.713 Q -63.921 702.045 -65.020 705.281 Q -66.120 708.517 -66.696 711.199 Q -67.273 713.881 -67.184 715.722 Q -67.095 717.563 -66.269 718.950 Q -65.443 720.338 -64.487 720.973 Q -63.531 721.609 -62.901 721.738 Q -62.270 721.867 -61.681 721.918 Q -61.091 721.970 -60.089 721.734 Q -59.087 721.499 -57.997 720.975 Q -56.908 720.452 -54.618 718.490 Q -52.328 716.529 -51.211 713.864 Q -50.094 711.198 -50.021 708.541 Q -49.948 705.884 -50.701 703.626 Q -51.453 701.368 -53.104 699.902 Q -54.754 698.436 -56.919 698.473 Q -59.084 698.510 -61.471 699.737 Q -63.858 700.965 -64.721 701.876 Q -65.584 702.787 -66.366 703.417 Q -67.149 704.046 -67.551 705.708 Q -67.953 707.371 -67.019 709.112 Q -66.085 710.853 -65.176 711.632 Q -64.266 712.412 -63.647 712.854 Q -63.027 713.296 -60.708 713.931 Q -58.388 714.565 -55.730 713.625 Q -53.072 712.685 -50.968 711.199 Q -48.863 709.713 -47.217 707.236 "></path>
    <path id="STROKE_a6a37335-6bc4-4931-a916-82bede37e21e" opacity="1.000" fill="none" stroke="#000000" stroke-width="1.600" stroke-opacity="1.000" stroke-linecap="round" stroke-linejoin="round" d="M -43.272 725.249 Q -43.903 726.032 -43.758 725.907 Q -43.960 726.342 -44.332 726.686 Q -44.704 727.029 -45.016 730.281 Q -44.028 729.104 -44.162 729.203 Q -44.295 729.303 -44.084 729.089 Q -43.874 728.875 -41.417 723.495 Q -38.959 718.114 -35.981 712.554 L -36.010 712.526 Q -36.363 713.596 -36.238 713.240 Q -37.209 713.991 -30.863 728.709 Q -30.892 728.680 -30.920 728.680 "></path>
    <path id="STROKE_fb338dd2-06ea-44bd-9f63-efa5da6682f0" opacity="1.000" fill="none" stroke="#000000" stroke-width="1.600" stroke-opacity="1.000" stroke-linecap="round" stroke-linejoin="round" d="M -38.869 726.907 Q -38.879 726.903 -39.415 726.784 Q -39.951 726.666 -39.865 726.693 Q -39.779 726.721 -39.793 726.699 Q -39.808 726.678 -39.841 726.621 Q -39.496 725.509 -31.835 724.734 "></path>
    <path id="STROKE_ada4dfae-c47b-4c7e-9170-0fbc55b5d3c3" opacity="1.000" fill="none" stroke="#000000" stroke-width="1.600" stroke-opacity="1.000" stroke-linecap="round" stroke-linejoin="round" d="M -1.700 578.459 Q -1.645 576.572 -1.681 576.893 Q -1.716 577.215 -1.729 576.858 Q -1.726 576.685 -1.950 577.188 Q -2.173 577.692 -2.177 577.698 Q -2.181 577.703 -2.209 577.805 Q -2.236 577.906 -7.561 589.724 Q -7.135 588.871 -7.132 588.952 Q -7.415 589.418 0.845 576.686 Q 1.910 577.961 9.050 586.293 "></path>
    <path id="STROKE_11c87821-6182-4a89-bb99-2bb0dc15db5c" opacity="1.000" fill="none" stroke="#000000" stroke-width="1.600" stroke-opacity="1.000" stroke-linecap="round" stroke-linejoin="round" d="M 254.707 827.608 Q 254.707 827.579 254.707 827.551 Q 254.678 827.551 254.649 827.522 Q 254.678 827.493 254.621 827.322 L 254.592 827.322 Q 252.929 826.140 264.599 833.955 Q 263.532 835.668 263.797 835.369 Q 264.061 835.070 262.456 836.520 Q 260.851 837.969 259.716 838.541 Q 258.581 839.112 256.193 840.789 Q 256.200 840.946 256.536 841.103 "></path>
  </g>
</svg>