<?xml version="1.0" encoding="UTF-8" standalone="yes"?>
<svg xmlns="http://www.w3.org/2000/svg" xmlns:xlink="http://www.w3.org/1999/xlink" width="264.352pt" height="264.352pt" version="1.1" viewBox="-68.176 699.824 264.352 264.352">
  <!--
	Exported with Concepts: Smarter Sketching
	Version: 2024.8.5 on Microsoft Windows NT 10.0.22631.0
	https://concepts.app/
	-->
  <title>Drawing 2</title>
  <desc>Drawing exported from Concepts: Smarter Sketching</desc>
  <defs></defs>
  <g id="Pen" opacity="1.000">
    <path id="STROKE_14c9feb1-dc92-4e57-8d58-bb0cff94c51f" opacity="1.000" fill="none" stroke="#000000" stroke-width="1.600" stroke-opacity="1.000" stroke-linecap="round" stroke-linejoin="round" d="M 0.000 710.707 L 0.000 896.000 L 0.000 896.000 "></path>
    <path id="STROKE_6494a236-16c4-4de3-98eb-2f67b207c8c1" opacity="1.000" fill="none" stroke="#000000" stroke-width="1.600" stroke-opacity="1.000" stroke-linecap="round" stroke-linejoin="round" d="M 0.000 896.000 L 121.251 896.000 "></path>
    <path id="STROKE_59d09c5f-4b13-48f6-9976-0a61ed288672" opacity="1.000" fill="none" stroke="#000000" stroke-width="1.600" stroke-opacity="1.000" stroke-linecap="round" stroke-linejoin="round" d="M 8.048 704.000 L 127.412 704.000 "></path>
    <path id="STROKE_c3edda56-8370-4b83-9a17-afed4ab1c714" opacity="1.000" fill="none" stroke="#000000" stroke-width="1.600" stroke-opacity="1.000" stroke-linecap="round" stroke-linejoin="round" d="M 0.000 704.000 L 0.000 711.478 "></path>
    <path id="STROKE_58d04c62-e74f-4019-8efa-527fc0786553" opacity="1.000" fill="none" stroke="#000000" stroke-width="1.600" stroke-opacity="1.000" stroke-linecap="round" stroke-linejoin="round" d="M 0.000 704.000 L 9.097 704.000 "></path>
    <path id="STROKE_28fc3aa7-79ef-4af8-945a-da0c53ebf40d" opacity="1.000" fill="none" stroke="#000000" stroke-width="1.600" stroke-opacity="1.000" stroke-linecap="round" stroke-linejoin="round" d="M 0.000 768.000 L 122.895 768.000 "></path>
    <path id="STROKE_f827ce7a-5ddc-4ebf-ba8c-428aa1e0001d" opacity="1.000" fill="none" stroke="#000000" stroke-width="1.600" stroke-opacity="1.000" stroke-linecap="round" stroke-linejoin="round" d="M 3.809 832.000 L 119.419 832.000 "></path>
    <path id="STROKE_82954e90-86b6-4c93-9869-8cc36a877661" opacity="1.000" fill="none" stroke="#000000" stroke-width="1.600" stroke-opacity="1.000" stroke-linecap="round" stroke-linejoin="round" d="M 6.311 832.000 L -64.000 832.000 L -64.000 832.000 "></path>
    <path id="STROKE_8c5d8e63-c71f-4fdf-a77a-d4727356c757" opacity="1.000" fill="none" stroke="#000000" stroke-width="1.600" stroke-opacity="1.000" stroke-linecap="round" stroke-linejoin="round" d="M -64.000 704.000 L -64.000 880.000 L -64.000 896.000 "></path>
    <path id="STROKE_3860e6f2-37c6-4460-90fc-052c693abcd3" opacity="1.000" fill="none" stroke="#000000" stroke-width="1.600" stroke-opacity="1.000" stroke-linecap="round" stroke-linejoin="round" d="M -64.000 896.000 L 0.000 896.000 L 16.000 896.000 "></path>
    <path id="STROKE_5b61d3c4-4897-46cc-b767-fcad6ace2eea" opacity="1.000" fill="none" stroke="#000000" stroke-width="1.600" stroke-opacity="1.000" stroke-linecap="round" stroke-linejoin="round" d="M 127.429 704.000 L -64.000 704.000 L -64.000 704.000 "></path>
    <path id="STROKE_ea07ec1a-49d1-4d90-b8ec-eb883806d1e9" opacity="1.000" fill="none" stroke="#000000" stroke-width="1.600" stroke-opacity="1.000" stroke-linecap="round" stroke-linejoin="round" d="M -64.000 768.000 L 0.000 768.000 L 0.000 768.000 "></path>
    <path id="STROKE_cc6a14e2-e621-4119-aeb3-26e7f2dd1e43" opacity="1.000" fill="none" stroke="#000000" stroke-width="1.600" stroke-opacity="1.000" stroke-linecap="round" stroke-linejoin="round" d="M 128.000 723.188 L 128.000 756.814 "></path>
    <path id="STROKE_0392fb17-ae08-49e0-a378-efc427c44ed1" opacity="1.000" fill="none" stroke="#000000" stroke-width="1.600" stroke-opacity="1.000" stroke-linecap="round" stroke-linejoin="round" d="M 64.000 704.000 L 64.000 880.000 L 64.000 896.000 "></path>
    <path id="STROKE_f3fe81b2-13c7-445b-bd0b-25097984ed83" opacity="1.000" fill="none" stroke="#000000" stroke-width="1.600" stroke-opacity="1.000" stroke-linecap="round" stroke-linejoin="round" d="M 128.000 704.000 L 128.000 896.000 L 128.000 896.000 "></path>
    <path id="STROKE_201d18a9-eeb4-4eea-a608-f3e8f3656c8d" opacity="1.000" fill="none" stroke="#000000" stroke-width="1.600" stroke-opacity="1.000" stroke-linecap="round" stroke-linejoin="round" d="M 121.504 896.000 L 128.000 896.000 "></path>
    <path id="STROKE_42a3f98d-7e65-4abf-9e1e-a3e3a7452e91" opacity="1.000" fill="none" stroke="#000000" stroke-width="1.600" stroke-opacity="1.000" stroke-linecap="round" stroke-linejoin="round" d="M 120.606 832.000 L 128.000 832.000 "></path>
    <path id="STROKE_d88104f2-3381-4799-bd37-a6b1b9f84037" opacity="1.000" fill="none" stroke="#000000" stroke-width="1.600" stroke-opacity="1.000" stroke-linecap="round" stroke-linejoin="round" d="M 122.637 768.000 L 128.000 768.000 "></path>
    <path id="STROKE_860618ae-3982-4610-9bd4-d015445830fb" opacity="1.000" fill="none" stroke="#000000" stroke-width="1.600" stroke-opacity="1.000" stroke-linecap="round" stroke-linejoin="round" d="M -64.000 896.000 L -64.000 944.000 L -64.000 960.000 "></path>
    <path id="STROKE_41b76856-1189-4c1f-96ef-907795131e79" opacity="1.000" fill="none" stroke="#000000" stroke-width="1.600" stroke-opacity="1.000" stroke-linecap="round" stroke-linejoin="round" d="M -64.000 960.000 L 128.000 960.000 L 128.000 960.000 "></path>
    <path id="STROKE_aeb33561-fbaf-4c86-866c-1430ee9b30e5" opacity="1.000" fill="none" stroke="#000000" stroke-width="1.600" stroke-opacity="1.000" stroke-linecap="round" stroke-linejoin="round" d="M 128.000 896.000 L 128.000 944.000 L 128.000 960.000 "></path>
    <path id="STROKE_ede7b5ef-3b96-4553-a5b0-231418c785b9" opacity="1.000" fill="none" stroke="#000000" stroke-width="1.600" stroke-opacity="1.000" stroke-linecap="round" stroke-linejoin="round" d="M 64.000 896.000 L 64.000 944.000 L 64.000 960.000 "></path>
    <path id="STROKE_88854e8a-6f0b-4247-b590-90d4205a0c30" opacity="1.000" fill="none" stroke="#000000" stroke-width="1.600" stroke-opacity="1.000" stroke-linecap="round" stroke-linejoin="round" d="M 0.000 896.000 L 0.000 944.000 L 0.000 955.962 "></path>
    <path id="STROKE_df0e1cb0-26e0-4087-9d2c-3ec2c42b78e2" opacity="1.000" fill="none" stroke="#000000" stroke-width="1.600" stroke-opacity="1.000" stroke-linecap="round" stroke-linejoin="round" d="M 0.000 954.026 L 0.000 960.000 "></path>
    <path id="STROKE_c7838c80-f732-4bbf-a3fb-04ee3d1b6f53" opacity="1.000" fill="none" stroke="#000000" stroke-width="1.600" stroke-opacity="1.000" stroke-linecap="round" stroke-linejoin="round" d="M 160.000 896.000 L 160.000 896.000 "></path>
    <path id="STROKE_9231035f-5e4d-4c92-89f1-6640b2963301" opacity="1.000" fill="none" stroke="#000000" stroke-width="1.600" stroke-opacity="1.000" stroke-linecap="round" stroke-linejoin="round" d="M 132.765 896.000 L 160.000 896.000 L 167.047 896.000 "></path>
    <path id="STROKE_12f24228-1f87-47ca-ad37-71c42261ee46" opacity="1.000" fill="none" stroke="#000000" stroke-width="1.600" stroke-opacity="1.000" stroke-linecap="round" stroke-linejoin="round" d="M 128.000 896.000 L 192.000 896.000 L 192.000 896.000 "></path>
    <path id="STROKE_f64f4e15-0ae9-4f81-93df-ff743bac11f2" opacity="1.000" fill="none" stroke="#000000" stroke-width="1.600" stroke-opacity="1.000" stroke-linecap="round" stroke-linejoin="round" d="M 192.000 896.000 L 192.000 960.000 L 192.000 960.000 "></path>
    <path id="STROKE_c8591183-aa8c-42d5-aea0-124d9426077f" opacity="1.000" fill="none" stroke="#000000" stroke-width="1.600" stroke-opacity="1.000" stroke-linecap="round" stroke-linejoin="round" d="M 128.000 960.000 L 192.000 960.000 L 192.000 960.000 "></path>
    <path id="STROKE_1f447765-b178-4a15-a3a6-141c058c45d9" opacity="1.000" fill="none" stroke="#000000" stroke-width="1.600" stroke-opacity="1.000" stroke-linecap="round" stroke-linejoin="round" d="M 192.000 899.203 L 192.000 720.000 L 192.000 704.000 "></path>
    <path id="STROKE_ce04db1d-c0b2-4cf4-ad7b-0ee5d09c0a3e" opacity="1.000" fill="none" stroke="#000000" stroke-width="1.600" stroke-opacity="1.000" stroke-linecap="round" stroke-linejoin="round" d="M 128.000 704.000 L 176.000 704.000 L 192.000 704.000 "></path>
    <path id="STROKE_45fa4c52-17f3-4385-b31f-acd78102b2a5" opacity="1.000" fill="none" stroke="#000000" stroke-width="1.600" stroke-opacity="1.000" stroke-linecap="round" stroke-linejoin="round" d="M 128.000 768.000 L 176.000 768.000 L 188.508 768.000 "></path>
    <path id="STROKE_a8a3db6d-8422-4217-95d6-c2ae1af7cb7b" opacity="1.000" fill="none" stroke="#000000" stroke-width="1.600" stroke-opacity="1.000" stroke-linecap="round" stroke-linejoin="round" d="M 192.000 770.928 L 192.000 768.000 L 192.000 768.000 "></path>
    <path id="STROKE_b5c488b7-6ab2-45d9-96c1-75a83d09a21f" opacity="1.000" fill="none" stroke="#000000" stroke-width="1.600" stroke-opacity="1.000" stroke-linecap="round" stroke-linejoin="round" d="M 188.154 768.000 L 192.000 768.000 "></path>
    <path id="STROKE_cab7e38b-4164-47cc-bc87-cb7a7f3b01cd" opacity="1.000" fill="none" stroke="#000000" stroke-width="1.600" stroke-opacity="1.000" stroke-linecap="round" stroke-linejoin="round" d="M 128.000 832.000 L 176.000 832.000 L 192.000 832.000 "></path>
    <path id="STROKE_82166ddf-5c7a-4198-b781-2bafd90c4e6f" opacity="1.000" fill="none" stroke="#000000" stroke-width="1.600" stroke-opacity="1.000" stroke-linecap="round" stroke-linejoin="round" d="M 20.052 732.184 Q 19.905 732.160 19.361 735.388 Q 18.816 738.615 18.537 740.360 Q 18.257 742.106 17.812 743.618 Q 17.367 745.130 16.180 746.574 Q 15.663 746.543 16.599 743.174 Q 17.535 739.805 18.425 737.167 Q 19.316 734.529 19.768 733.093 Q 20.220 731.657 20.783 729.833 Q 21.346 728.009 21.745 726.942 Q 22.144 725.875 22.353 725.393 Q 22.562 724.910 22.633 724.753 Q 22.705 724.596 22.881 724.339 Q 23.057 724.081 23.138 723.996 Q 23.219 723.911 23.239 723.902 Q 23.259 723.894 23.221 723.911 Q 23.184 723.927 23.566 723.676 Q 23.947 723.425 23.996 723.395 Q 24.046 723.365 24.063 723.342 Q 24.080 723.319 24.023 723.419 Q 23.967 723.519 24.821 722.669 Q 25.063 722.902 25.194 726.019 Q 25.326 729.136 26.124 733.094 Q 26.922 737.052 28.363 744.367 "></path>
    <path id="STROKE_cb52797f-8838-4c85-9297-21a24d7d66f2" opacity="1.000" fill="none" stroke="#000000" stroke-width="1.600" stroke-opacity="1.000" stroke-linecap="round" stroke-linejoin="round" d="M 18.683 739.125 Q 19.059 738.876 18.978 738.936 Q 19.072 738.462 21.671 738.124 Q 24.269 737.786 27.324 737.661 "></path>
    <path id="STROKE_95ee0037-8b35-4696-9a58-d385079bad8b" opacity="1.000" fill="none" stroke="#000000" stroke-width="1.600" stroke-opacity="1.000" stroke-linecap="round" stroke-linejoin="round" d="M 85.451 854.343 Q 85.151 854.502 85.227 854.532 Q 85.117 854.430 84.200 857.237 Q 83.284 860.045 82.468 863.972 Q 81.653 867.899 81.139 870.258 Q 80.626 872.616 79.856 874.377 L 79.820 874.377 Q 79.490 874.285 80.551 870.459 Q 81.613 866.634 82.564 864.221 Q 83.515 861.809 84.237 860.302 Q 84.960 858.796 85.326 858.085 Q 85.691 857.374 86.541 855.779 Q 87.390 854.183 88.546 852.018 Q 89.703 849.853 91.684 847.189 Q 91.963 847.614 92.218 849.854 Q 92.474 852.094 93.186 855.555 Q 93.898 859.016 94.514 861.326 Q 95.129 863.636 95.832 865.632 Q 96.535 867.628 98.744 873.869 Q 98.696 873.893 98.673 873.893 "></path>
    <path id="STROKE_824e3a47-1771-40b4-93a7-1099deb331b2" opacity="1.000" fill="none" stroke="#000000" stroke-width="1.600" stroke-opacity="1.000" stroke-linecap="round" stroke-linejoin="round" d="M 85.829 866.951 Q 85.490 866.904 85.564 866.999 Q 85.638 867.093 85.576 867.037 Q 85.514 866.982 85.414 866.795 Q 85.315 866.609 85.521 866.394 Q 85.727 866.179 85.697 866.229 Q 85.667 866.280 86.004 866.059 Q 86.341 865.838 86.094 865.876 Q 85.848 865.914 87.405 865.800 Q 88.961 865.686 89.866 865.540 Q 90.770 865.395 91.819 865.855 Q 92.868 866.315 95.061 866.408 "></path>
    <path id="STROKE_e2652d73-bdc4-491f-aa53-6e7ad8cbac5d" opacity="1.000" fill="none" stroke="#000000" stroke-width="1.600" stroke-opacity="1.000" stroke-linecap="round" stroke-linejoin="round" d="M -40.696 919.012 Q -41.051 919.647 -40.967 919.519 Q -41.002 919.026 -41.659 922.551 Q -42.316 926.075 -42.882 928.251 Q -43.448 930.427 -43.889 931.611 Q -44.331 932.795 -46.563 937.782 Q -46.483 937.649 -46.384 937.242 Q -46.285 936.835 -46.072 936.173 Q -45.859 935.512 -45.573 934.708 Q -45.287 933.903 -44.838 933.000 Q -44.388 932.097 -43.862 930.956 Q -43.336 929.816 -41.258 925.606 Q -39.179 921.396 -38.073 919.227 Q -36.967 917.058 -36.323 916.012 Q -35.680 914.967 -35.400 914.580 Q -35.120 914.193 -34.699 913.770 Q -34.512 913.708 -34.324 914.984 Q -34.135 916.260 -33.738 917.861 Q -33.341 919.463 -32.965 920.989 Q -32.590 922.515 -31.718 925.221 Q -30.846 927.926 -30.389 930.440 Q -29.933 932.955 -29.835 935.279 "></path>
    <path id="STROKE_a27c9812-1232-4300-bda1-17d102da27d8" opacity="1.000" fill="none" stroke="#000000" stroke-width="1.600" stroke-opacity="1.000" stroke-linecap="round" stroke-linejoin="round" d="M -40.177 930.156 Q -40.188 930.168 -40.236 930.179 Q -40.236 930.191 -40.236 930.203 Q -40.466 930.336 -40.572 930.410 Q -40.678 930.484 -40.684 930.475 Q -40.731 930.486 -40.802 930.510 Q -40.599 929.900 -40.495 929.825 Q -40.009 930.151 -38.219 929.939 Q -36.428 929.727 -35.209 929.691 Q -33.989 929.655 -33.689 929.665 Q -33.389 929.675 -32.598 929.930 Q -31.806 930.184 -30.638 929.495 "></path>
  </g>
</svg>