<?xml version="1.0" encoding="UTF-8" standalone="yes"?>
<svg xmlns="http://www.w3.org/2000/svg" xmlns:xlink="http://www.w3.org/1999/xlink" width="265.936pt" height="37.695pt" version="1.1" viewBox="282.485 953.440 265.936 37.695">
  <!--
	Exported with Concepts: Smarter Sketching
	Version: 2024.8.7 on Microsoft Windows NT 10.0.22631.0
	https://concepts.app/
	-->
  <title>Drawing 3</title>
  <desc>Drawing exported from Concepts: Smarter Sketching</desc>
  <defs></defs>
  <g id="Pen" opacity="1.000">
    <path id="STROKE_b4ed39a7-0e8c-404e-ab08-462ff047c3a4" opacity="1.000" fill="none" stroke="#000000" stroke-width="1.600" stroke-opacity="1.000" stroke-linecap="round" stroke-linejoin="round" d="M 317.759 973.416 Q 317.248 973.971 317.906 976.568 Q 318.563 979.165 319.022 980.541 Q 319.482 981.916 320.107 982.909 Q 320.732 983.902 322.134 984.652 Q 323.536 985.402 325.367 984.853 Q 327.199 984.303 328.633 983.270 Q 330.066 982.237 331.268 980.890 Q 332.469 979.544 333.089 978.119 Q 333.709 976.694 333.596 974.681 Q 333.482 972.668 332.702 970.671 Q 331.923 968.673 330.652 967.053 Q 329.380 965.433 328.393 964.659 Q 327.405 963.884 326.700 963.438 Q 325.994 962.993 324.765 962.560 Q 323.537 962.127 322.080 962.562 Q 320.623 962.997 319.590 963.529 Q 318.558 964.061 317.263 965.701 "></path>
    <path id="STROKE_fd7b4b7f-f6b4-4f74-8c79-ae502c21fd8a" opacity="1.000" fill="none" stroke="#000000" stroke-width="1.600" stroke-opacity="1.000" stroke-linecap="round" stroke-linejoin="round" d="M 327.031 986.860 Q 327.416 986.941 325.840 986.502 Q 326.497 986.551 326.484 986.547 Q 327.235 986.539 339.242 986.312 Q 351.249 986.084 358.051 985.799 Q 364.853 985.515 367.896 985.375 Q 370.939 985.236 372.862 985.130 Q 374.786 985.024 375.986 984.995 Q 377.186 984.965 379.636 984.811 Q 382.086 984.658 389.924 984.551 Q 397.762 984.445 403.336 984.505 Q 408.910 984.564 411.528 984.588 Q 414.145 984.612 417.830 984.759 Q 421.516 984.907 432.883 984.854 Q 444.250 984.801 451.588 984.717 Q 458.926 984.632 462.295 984.710 Q 465.665 984.788 471.676 985.001 Q 477.687 985.214 481.043 985.267 Q 484.399 985.321 486.752 985.345 Q 489.104 985.369 491.035 985.303 "></path>
    <path id="STROKE_0b35fb03-aaa7-4a11-b03f-a2548b95a7e6" opacity="1.000" fill="none" stroke="#000000" stroke-width="1.600" stroke-opacity="1.000" stroke-linecap="round" stroke-linejoin="round" d="M 331.832 965.668 Q 331.936 965.656 331.838 965.678 Q 331.740 965.700 335.279 965.832 Q 338.818 965.964 354.717 965.194 Q 370.616 964.425 379.282 964.018 Q 387.948 963.611 392.021 963.501 Q 396.095 963.390 402.247 963.118 Q 408.399 962.845 414.544 962.595 Q 420.688 962.344 429.482 962.189 Q 438.276 962.033 442.656 961.989 Q 447.036 961.944 449.043 961.924 Q 451.050 961.903 454.552 961.719 Q 458.054 961.534 460.235 961.502 Q 462.416 961.469 468.159 960.969 Q 473.903 960.469 480.783 960.015 Q 487.664 959.560 494.015 959.244 "></path>
    <path id="STROKE_cebe6a6e-ffc6-462f-9ae8-c03ce49e2602" opacity="1.000" fill="none" stroke="#000000" stroke-width="1.600" stroke-opacity="1.000" stroke-linecap="round" stroke-linejoin="round" d="M 492.558 962.356 Q 492.535 962.408 492.586 962.310 Q 492.637 962.211 491.925 963.339 Q 491.213 964.466 490.540 966.098 Q 489.868 967.731 489.404 969.250 Q 488.940 970.769 488.752 972.035 Q 488.565 973.301 488.509 973.905 Q 488.452 974.510 488.580 975.730 Q 488.707 976.950 489.354 978.416 Q 490.000 979.881 491.359 980.744 Q 492.718 981.606 494.265 981.853 Q 495.812 982.101 497.461 981.920 Q 499.109 981.740 500.500 981.038 Q 501.891 980.336 502.771 979.306 Q 503.652 978.276 504.026 976.231 Q 504.401 974.186 503.894 971.503 Q 503.388 968.821 502.784 967.030 Q 502.180 965.239 500.822 962.674 Q 499.465 960.110 496.399 957.721 "></path>
    <path id="STROKE_8b47b86b-4007-4e8f-9552-c60df28f80fe" opacity="1.000" fill="none" stroke="#000000" stroke-width="1.600" stroke-opacity="1.000" stroke-linecap="round" stroke-linejoin="round" d="M 361.103 974.310 Q 360.439 974.581 359.236 975.982 Q 358.033 977.382 357.734 978.299 Q 357.434 979.216 357.510 979.961 Q 357.585 980.706 358.170 981.133 Q 358.754 981.560 360.247 981.519 Q 361.740 981.478 363.141 980.667 Q 364.542 979.856 365.452 979.000 Q 366.362 978.144 366.682 977.310 Q 367.002 976.476 366.521 975.625 Q 366.039 974.774 364.909 974.195 Q 363.778 973.617 362.190 973.534 Q 360.601 973.450 359.017 974.740 "></path>
    <path id="STROKE_2e9d90b0-25d3-4d4e-a21d-5bcff69b94c6" opacity="1.000" fill="none" stroke="#000000" stroke-width="1.600" stroke-opacity="1.000" stroke-linecap="round" stroke-linejoin="round" d="M 372.692 973.581 Q 372.786 973.439 372.676 973.554 Q 372.566 973.670 372.308 974.099 Q 372.049 974.528 372.077 974.562 Q 372.105 974.597 372.076 974.554 Q 372.047 974.511 371.660 975.710 Q 371.272 976.910 371.182 978.043 Q 371.092 979.176 371.771 980.066 Q 372.449 980.956 372.945 981.230 Q 373.441 981.503 373.737 981.543 Q 374.033 981.582 374.860 981.750 Q 375.687 981.918 377.253 981.505 Q 378.818 981.091 380.108 980.292 Q 381.399 979.492 382.259 978.642 Q 383.119 977.792 383.169 976.611 Q 383.219 975.430 382.680 974.276 Q 382.141 973.122 381.144 972.513 Q 380.147 971.903 379.142 971.704 Q 378.137 971.505 377.126 971.793 Q 376.115 972.080 375.341 972.820 "></path>
    <path id="STROKE_ea89c3c8-d167-428b-8f74-976cf7cea643" opacity="1.000" fill="none" stroke="#000000" stroke-width="1.600" stroke-opacity="1.000" stroke-linecap="round" stroke-linejoin="round" d="M 388.420 971.230 Q 387.966 971.508 387.253 971.883 Q 386.539 972.257 384.756 975.646 Q 384.431 975.933 386.706 976.144 Q 388.981 976.356 390.036 976.449 Q 391.091 976.542 391.944 976.404 Q 392.797 976.267 393.303 975.729 Q 393.808 975.191 394.132 974.535 Q 394.455 973.880 394.650 973.234 Q 394.845 972.588 394.554 971.672 Q 394.264 970.756 394.006 970.248 Q 393.747 969.740 392.428 969.030 Q 391.109 968.320 388.156 969.078 "></path>
    <path id="STROKE_c156470b-325a-4e4d-8d02-a1e9b8ccdef9" opacity="1.000" fill="none" stroke="#000000" stroke-width="1.600" stroke-opacity="1.000" stroke-linecap="round" stroke-linejoin="round" d="M 371.566 970.800 Q 371.556 970.899 371.580 971.165 Q 371.394 971.201 372.825 971.608 Q 374.255 972.014 375.891 971.466 Q 377.527 970.918 378.042 970.544 Q 378.558 970.170 379.302 969.658 Q 380.046 969.146 380.327 968.255 Q 380.608 967.363 380.435 967.082 Q 380.262 966.802 379.686 966.101 Q 379.110 965.400 377.928 964.691 Q 376.746 963.982 372.725 965.270 "></path>
    <path id="STROKE_0d737e9c-1bb9-416d-a966-a48bbb29c7ac" opacity="1.000" fill="none" stroke="#000000" stroke-width="1.600" stroke-opacity="1.000" stroke-linecap="round" stroke-linejoin="round" d="M 359.480 968.383 Q 359.160 968.443 359.336 969.105 Q 359.511 969.768 359.844 970.328 Q 360.177 970.889 361.055 971.348 Q 361.932 971.806 363.579 971.499 Q 365.226 971.192 366.222 970.779 Q 367.219 970.365 367.892 969.854 Q 368.565 969.343 368.698 968.783 Q 368.832 968.223 368.702 967.908 Q 368.572 967.593 368.477 967.312 Q 368.382 967.031 367.215 965.967 Q 366.048 964.904 361.600 964.873 "></path>
    <path id="STROKE_750b10f7-4873-489b-860c-4463095c2fa0" opacity="1.000" fill="none" stroke="#000000" stroke-width="1.600" stroke-opacity="1.000" stroke-linecap="round" stroke-linejoin="round" d="M 348.322 971.628 Q 347.690 972.108 348.072 972.721 Q 348.454 973.334 348.730 973.574 Q 349.007 973.815 349.387 973.952 Q 349.766 974.090 350.113 974.137 Q 350.459 974.185 350.769 974.188 Q 351.079 974.192 351.215 974.176 Q 351.351 974.160 352.738 973.844 Q 354.125 973.529 354.827 972.888 Q 355.530 972.246 355.870 971.417 Q 356.210 970.588 355.725 969.365 Q 355.240 968.142 354.577 967.390 Q 353.915 966.637 353.705 966.536 Q 353.495 966.435 352.778 965.927 Q 352.060 965.420 350.318 965.830 Q 348.576 966.239 346.898 967.257 "></path>
    <path id="STROKE_f9a480e7-8043-42fa-9687-e299c177c3b2" opacity="1.000" fill="none" stroke="#000000" stroke-width="1.600" stroke-opacity="1.000" stroke-linecap="round" stroke-linejoin="round" d="M 340.640 968.979 Q 340.150 968.960 339.524 970.541 Q 338.897 972.123 338.677 973.022 Q 338.457 973.922 338.483 974.695 Q 338.509 975.469 338.857 976.008 Q 339.206 976.547 340.412 976.748 Q 341.619 976.949 343.406 976.293 Q 345.194 975.637 346.102 974.826 Q 347.011 974.015 347.236 973.377 Q 347.460 972.739 347.203 971.868 Q 346.945 970.997 345.791 970.178 Q 344.638 969.360 343.569 968.813 Q 342.500 968.266 340.405 968.973 Q 340.379 969.062 340.408 969.211 "></path>
    <path id="STROKE_c06e11a8-8b0d-41cc-9c79-ea5543d70810" opacity="1.000" fill="none" stroke="#000000" stroke-width="1.600" stroke-opacity="1.000" stroke-linecap="round" stroke-linejoin="round" d="M 347.361 980.899 Q 346.980 981.190 346.874 981.616 Q 346.768 982.043 347.215 982.653 Q 347.662 983.262 348.444 983.227 Q 349.226 983.192 350.494 982.378 Q 351.762 981.564 352.469 980.662 Q 353.177 979.761 353.157 978.537 Q 353.137 977.313 352.849 976.702 Q 352.560 976.090 352.161 975.360 Q 351.762 974.630 351.111 974.060 Q 350.460 973.490 350.130 973.304 Q 349.800 973.118 349.261 973.196 Q 348.722 973.273 348.219 973.901 Q 347.716 974.530 347.130 975.767 "></path>
    <path id="STROKE_26d32e04-616f-4cbd-a3a4-701652e3dfa0" opacity="1.000" fill="none" stroke="#000000" stroke-width="1.600" stroke-opacity="1.000" stroke-linecap="round" stroke-linejoin="round" d="M 338.090 979.972 Q 337.677 980.193 337.340 981.161 Q 337.003 982.129 337.174 983.086 Q 337.345 984.042 337.876 984.662 Q 338.406 985.282 339.716 985.570 Q 341.025 985.859 342.394 985.368 Q 343.763 984.876 344.715 984.059 Q 345.667 983.242 345.969 982.303 Q 346.270 981.365 346.248 980.471 Q 346.225 979.578 345.668 978.812 Q 345.112 978.047 344.574 977.511 Q 344.036 976.975 342.891 977.389 "></path>
    <path id="STROKE_3973dd65-e41b-40fb-b08e-9ddeca5ecc6a" opacity="1.000" fill="none" stroke="#000000" stroke-width="1.600" stroke-opacity="1.000" stroke-linecap="round" stroke-linejoin="round" d="M 387.559 979.012 Q 387.839 979.070 387.031 979.029 Q 386.223 978.988 385.372 979.938 Q 384.520 980.888 384.106 981.637 Q 383.691 982.386 383.972 983.471 Q 384.253 984.556 386.007 984.672 Q 387.762 984.788 389.164 984.311 Q 390.566 983.833 391.379 983.268 Q 392.192 982.702 392.598 981.744 Q 393.003 980.786 392.258 979.709 Q 391.512 978.633 389.830 978.074 Q 388.149 977.515 385.630 978.903 Q 385.831 979.247 386.367 979.343 "></path>
    <path id="STROKE_3582932e-8776-43a4-b8aa-2bfb7b8f589e" opacity="1.000" fill="none" stroke="#000000" stroke-width="1.600" stroke-opacity="1.000" stroke-linecap="round" stroke-linejoin="round" d="M 386.136 968.052 Q 386.363 967.913 384.208 968.458 L 384.197 968.469 Q 383.858 968.730 386.128 967.807 Q 388.399 966.884 389.684 965.920 Q 390.970 964.956 391.625 964.132 Q 392.280 963.307 391.983 962.410 Q 391.687 961.512 390.611 961.395 Q 389.536 961.278 388.650 961.555 Q 387.764 961.833 387.067 962.242 Q 386.371 962.651 386.030 962.958 Q 385.689 963.265 385.640 963.323 Q 385.591 963.380 385.176 964.109 Q 384.760 964.838 385.639 966.098 "></path>
    <path id="STROKE_36bcc637-1735-4ce9-9bc7-dea23d0d83bc" opacity="1.000" fill="none" stroke="#000000" stroke-width="1.600" stroke-opacity="1.000" stroke-linecap="round" stroke-linejoin="round" d="M 398.718 968.350 Q 398.533 968.430 398.318 968.701 Q 398.104 968.972 398.048 969.109 Q 397.992 969.246 398.057 969.728 Q 398.122 970.210 398.985 970.373 Q 399.848 970.537 400.747 970.320 Q 401.646 970.103 402.543 969.603 Q 403.441 969.104 403.982 968.627 Q 404.524 968.151 404.755 967.459 Q 404.986 966.766 404.192 966.112 Q 403.397 965.459 402.131 965.120 Q 400.866 964.782 399.599 964.985 Q 398.333 965.188 397.699 965.872 Q 397.065 966.555 396.930 968.383 "></path>
    <path id="STROKE_ce9e4247-7ae5-40ff-b383-76c59ef09155" opacity="1.000" fill="none" stroke="#000000" stroke-width="1.600" stroke-opacity="1.000" stroke-linecap="round" stroke-linejoin="round" d="M 399.381 976.760 Q 399.308 976.825 399.189 976.910 Q 399.070 976.995 398.899 977.249 Q 398.729 977.503 398.987 977.897 Q 399.245 978.292 399.400 978.377 Q 399.554 978.462 400.415 978.478 Q 401.277 978.494 402.013 978.234 Q 402.750 977.974 403.400 977.729 Q 404.049 977.485 404.930 976.796 Q 405.811 976.108 406.230 975.580 Q 406.650 975.051 406.685 974.816 Q 406.720 974.580 406.644 973.839 Q 406.568 973.097 405.573 972.784 Q 404.577 972.470 403.923 972.556 Q 403.268 972.642 402.939 972.704 Q 402.609 972.765 401.687 973.214 Q 400.766 973.663 400.218 974.211 Q 399.671 974.758 399.485 975.046 Q 399.300 975.333 399.910 976.197 "></path>
    <path id="STROKE_6cafa513-8087-41f8-9595-db43bd0be199" opacity="1.000" fill="none" stroke="#000000" stroke-width="1.600" stroke-opacity="1.000" stroke-linecap="round" stroke-linejoin="round" d="M 411.268 972.919 Q 411.156 972.835 410.452 973.210 Q 409.749 973.586 409.295 974.288 Q 408.841 974.991 408.749 975.534 Q 408.658 976.076 408.689 975.984 Q 408.720 975.891 409.105 976.466 Q 409.491 977.040 410.823 976.835 Q 412.154 976.631 413.689 976.033 Q 415.225 975.436 416.199 974.855 Q 417.174 974.275 417.699 973.497 Q 418.224 972.719 418.013 971.666 Q 417.802 970.613 417.030 969.883 Q 416.257 969.153 414.938 968.840 Q 413.619 968.526 412.432 968.752 Q 411.246 968.978 410.093 969.795 Q 408.941 970.612 409.347 973.019 "></path>
    <path id="STROKE_3e6a4c42-f90a-4528-acb9-4d5e7f4c0c08" opacity="1.000" fill="none" stroke="#000000" stroke-width="1.600" stroke-opacity="1.000" stroke-linecap="round" stroke-linejoin="round" d="M 419.413 973.184 Q 419.087 974.317 419.206 974.012 Q 419.176 974.352 419.592 975.204 Q 420.008 976.055 421.496 976.167 Q 422.983 976.279 424.392 975.896 Q 425.800 975.512 426.569 974.800 Q 427.338 974.089 427.329 973.389 Q 427.320 972.689 426.636 971.819 Q 425.951 970.948 424.919 970.664 Q 423.886 970.381 423.037 970.474 Q 422.189 970.568 421.669 971.013 Q 421.150 971.459 421.102 972.290 "></path>
    <path id="STROKE_8a51358e-015c-4d27-be97-2570dfcde5da" opacity="1.000" fill="none" stroke="#000000" stroke-width="1.600" stroke-opacity="1.000" stroke-linecap="round" stroke-linejoin="round" d="M 407.824 981.231 Q 407.716 981.275 407.587 982.107 Q 407.732 982.397 408.957 983.072 Q 410.181 983.748 411.542 983.451 Q 412.903 983.153 413.599 982.953 Q 414.295 982.754 414.990 982.291 Q 415.685 981.829 415.841 981.394 Q 415.996 980.958 415.756 980.291 Q 415.517 979.623 414.648 979.071 Q 413.780 978.518 413.109 978.349 Q 412.439 978.180 411.474 978.133 Q 410.509 978.085 409.817 978.539 Q 409.125 978.993 408.851 979.774 "></path>
    <path id="STROKE_4ed2cfab-eafb-4b09-8a29-6830caa9c01a" opacity="1.000" fill="none" stroke="#000000" stroke-width="1.600" stroke-opacity="1.000" stroke-linecap="round" stroke-linejoin="round" d="M 420.539 978.813 Q 420.246 979.088 420.388 979.943 Q 420.530 980.799 420.777 981.136 Q 421.024 981.473 421.960 981.652 Q 422.896 981.831 424.164 981.401 Q 425.432 980.971 425.992 980.564 Q 426.553 980.157 426.573 980.103 Q 426.594 980.050 426.597 979.784 Q 426.600 979.518 426.619 979.481 Q 426.638 979.445 426.161 978.781 Q 425.685 978.117 424.505 977.462 Q 423.326 976.807 422.348 976.695 Q 421.369 976.584 420.383 976.722 Q 419.398 976.860 419.215 977.787 "></path>
    <path id="STROKE_141d604f-3f23-4c0d-a014-e6a48f980556" opacity="1.000" fill="none" stroke="#000000" stroke-width="1.600" stroke-opacity="1.000" stroke-linecap="round" stroke-linejoin="round" d="M 414.711 964.542 Q 414.443 964.803 414.367 964.909 Q 414.290 965.015 414.298 965.042 Q 414.306 965.069 414.297 965.055 Q 414.288 965.041 414.091 966.023 Q 413.894 967.005 413.947 967.737 Q 413.999 968.469 414.280 968.840 Q 414.561 969.211 415.167 969.611 Q 415.774 970.011 415.951 970.029 Q 416.127 970.048 416.260 970.070 Q 416.393 970.092 416.448 970.139 Q 416.503 970.186 417.678 970.225 Q 418.852 970.265 419.699 969.905 Q 420.547 969.545 421.082 969.142 Q 421.617 968.739 421.798 968.285 Q 421.979 967.831 421.832 967.453 Q 421.685 967.075 421.359 966.779 Q 421.034 966.482 420.493 966.076 Q 419.952 965.670 418.884 965.215 Q 417.817 964.761 416.280 965.003 Q 416.240 965.105 416.235 965.171 "></path>
    <path id="STROKE_80d58f0c-52de-43b2-a339-fd49592e7531" opacity="1.000" fill="none" stroke="#000000" stroke-width="1.600" stroke-opacity="1.000" stroke-linecap="round" stroke-linejoin="round" d="M 426.499 967.422 Q 426.026 967.787 426.528 968.680 Q 427.030 969.574 427.476 970.026 Q 427.921 970.478 429.218 970.399 Q 430.516 970.320 431.779 969.889 Q 433.043 969.457 433.775 968.802 Q 434.507 968.147 434.758 967.429 Q 435.010 966.710 434.164 965.825 Q 433.318 964.940 432.273 964.498 Q 431.228 964.057 430.308 963.969 Q 429.388 963.881 428.728 964.138 Q 428.068 964.396 427.712 964.778 Q 427.356 965.160 427.320 965.641 Q 427.283 966.122 428.221 967.290 "></path>
    <path id="STROKE_91002aea-ed97-4b2b-bc08-a37990570da6" opacity="1.000" fill="none" stroke="#000000" stroke-width="1.600" stroke-opacity="1.000" stroke-linecap="round" stroke-linejoin="round" d="M 431.135 975.237 Q 430.748 974.793 430.177 975.380 Q 429.606 975.967 429.336 976.358 Q 429.066 976.748 428.968 977.290 Q 428.869 977.831 429.391 978.369 Q 429.913 978.908 430.621 979.029 Q 431.330 979.150 431.824 979.197 Q 432.318 979.244 433.289 979.167 Q 434.259 979.090 435.083 978.825 Q 435.906 978.560 436.612 977.935 Q 437.319 977.310 437.541 976.596 Q 437.763 975.883 437.290 974.799 Q 436.817 973.715 436.385 973.109 Q 435.952 972.502 435.031 972.042 Q 434.111 971.582 433.067 971.577 Q 432.023 971.572 431.402 971.724 Q 430.780 971.875 430.270 972.210 Q 429.760 972.544 429.567 972.706 Q 429.373 972.867 429.016 974.376 "></path>
    <path id="STROKE_46b1a1a8-6052-4b28-8a42-bf26ad796fb6" opacity="1.000" fill="none" stroke="#000000" stroke-width="1.600" stroke-opacity="1.000" stroke-linecap="round" stroke-linejoin="round" d="M 433.022 980.601 Q 432.666 980.825 432.664 980.854 Q 432.375 981.476 432.420 981.521 Q 432.351 981.690 432.361 981.778 Q 432.371 981.865 432.373 981.918 Q 432.375 981.970 432.389 981.885 Q 432.403 981.799 432.665 982.423 Q 432.927 983.047 433.567 983.099 Q 434.207 983.152 434.838 983.045 Q 435.470 982.938 435.720 982.903 Q 435.970 982.868 436.811 982.428 Q 437.652 981.987 437.837 981.749 Q 438.022 981.510 437.993 981.024 Q 437.963 980.538 437.837 980.366 Q 437.711 980.193 437.714 980.217 Q 437.716 980.240 437.657 980.097 Q 437.598 979.954 436.835 979.279 Q 436.073 978.603 435.582 978.576 Q 435.092 978.549 434.689 978.617 Q 434.286 978.686 434.254 978.732 Q 434.221 978.777 433.614 979.067 Q 433.006 979.356 432.923 981.297 "></path>
    <path id="STROKE_7530a27d-a58f-4d12-b696-ae8aea576b7a" opacity="1.000" fill="none" stroke="#000000" stroke-width="1.600" stroke-opacity="1.000" stroke-linecap="round" stroke-linejoin="round" d="M 440.936 969.177 Q 440.622 969.078 439.804 970.245 Q 438.987 971.413 438.381 972.791 Q 437.776 974.168 437.461 975.196 Q 437.147 976.224 437.706 976.906 Q 438.264 977.588 438.550 977.677 Q 438.835 977.767 439.469 977.893 Q 440.102 978.020 441.035 977.829 Q 441.968 977.638 442.329 977.523 Q 442.691 977.409 443.833 976.931 Q 444.975 976.454 445.678 975.643 Q 446.382 974.833 446.539 974.168 Q 446.695 973.504 446.227 972.353 Q 445.758 971.202 444.703 970.738 Q 443.648 970.274 442.536 970.100 Q 441.423 969.925 440.804 971.098 "></path>
    <path id="STROKE_e012f065-de8e-4e33-96f5-558c361b0de5" opacity="1.000" fill="none" stroke="#000000" stroke-width="1.600" stroke-opacity="1.000" stroke-linecap="round" stroke-linejoin="round" d="M 446.532 977.489 Q 446.030 977.622 445.455 978.791 Q 444.879 979.959 444.823 980.791 Q 444.767 981.623 445.255 982.475 Q 445.742 983.327 447.280 983.112 Q 448.817 982.897 449.381 982.545 Q 449.944 982.193 450.583 981.806 Q 451.221 981.419 451.489 980.567 Q 451.758 979.714 451.568 979.034 Q 451.378 978.354 450.783 977.488 Q 450.189 976.622 449.526 976.087 Q 448.863 975.552 448.021 975.289 Q 447.180 975.026 446.555 975.238 Q 445.931 975.451 445.654 975.588 Q 445.377 975.725 445.605 976.595 "></path>
    <path id="STROKE_11ac1d08-8c5e-4f67-8c9b-9d3a4e20a693" opacity="1.000" fill="none" stroke="#000000" stroke-width="1.600" stroke-opacity="1.000" stroke-linecap="round" stroke-linejoin="round" d="M 455.141 971.495 Q 454.186 971.749 453.622 972.909 Q 453.058 974.069 452.935 974.694 Q 452.811 975.319 453.099 976.013 Q 453.386 976.707 453.565 976.884 Q 453.743 977.061 454.750 977.244 Q 455.757 977.427 456.451 976.987 Q 457.146 976.547 457.469 976.290 Q 457.792 976.033 458.208 975.681 Q 458.623 975.329 458.728 974.278 Q 458.834 973.227 458.127 972.352 Q 457.420 971.477 455.921 971.117 Q 454.422 970.757 452.260 972.555 "></path>
    <path id="STROKE_c3a99448-8363-4d72-a858-c910985e9b9e" opacity="1.000" fill="none" stroke="#000000" stroke-width="1.600" stroke-opacity="1.000" stroke-linecap="round" stroke-linejoin="round" d="M 445.936 965.336 Q 445.637 965.607 445.666 965.631 Q 445.294 966.300 445.287 967.293 Q 445.281 968.287 445.699 968.737 Q 446.117 969.188 447.454 969.624 Q 448.791 970.060 449.987 969.770 Q 451.184 969.480 451.816 968.786 Q 452.448 968.093 452.643 967.198 Q 452.837 966.304 452.760 966.166 Q 452.683 966.029 452.427 965.278 Q 452.170 964.528 451.404 963.969 Q 450.638 963.411 449.843 963.286 Q 449.047 963.161 448.220 963.444 Q 447.393 963.727 446.824 964.324 Q 446.255 964.920 446.466 966.562 "></path>
    <path id="STROKE_3008b7eb-d6fc-4dce-838d-666dc1ae9ace" opacity="1.000" fill="none" stroke="#000000" stroke-width="1.600" stroke-opacity="1.000" stroke-linecap="round" stroke-linejoin="round" d="M 466.598 965.502 Q 466.069 964.803 466.050 964.863 Q 466.032 964.924 466.053 964.896 Q 466.075 964.869 465.290 965.168 Q 464.506 965.466 463.199 966.567 Q 461.892 967.667 461.126 968.759 Q 460.359 969.850 460.229 970.460 Q 460.099 971.070 460.084 971.486 Q 460.068 971.903 460.618 972.416 Q 461.168 972.929 462.845 972.664 Q 464.521 972.400 465.601 971.776 Q 466.680 971.153 467.523 970.303 Q 468.366 969.453 467.957 968.562 Q 467.548 967.672 466.880 967.107 Q 466.212 966.543 465.167 966.235 Q 464.123 965.927 463.452 966.064 Q 462.781 966.201 462.265 966.483 Q 461.749 966.764 461.896 967.654 "></path>
    <path id="STROKE_64c24810-271c-4ee8-a6d2-b19c0fe01319" opacity="1.000" fill="none" stroke="#000000" stroke-width="1.600" stroke-opacity="1.000" stroke-linecap="round" stroke-linejoin="round" d="M 477.161 965.966 Q 476.647 965.732 476.715 965.798 Q 476.440 965.943 476.117 966.122 Q 475.794 966.300 475.081 967.205 Q 474.367 968.110 474.294 968.715 Q 474.221 969.320 474.436 969.817 Q 474.652 970.313 474.939 970.676 Q 475.226 971.039 476.266 970.917 Q 477.305 970.796 477.858 970.393 Q 478.411 969.990 478.882 969.550 Q 479.352 969.110 479.511 968.422 Q 479.671 967.734 479.600 967.139 Q 479.529 966.545 479.398 966.278 Q 479.268 966.011 479.191 965.940 Q 479.115 965.869 478.998 965.595 Q 478.882 965.322 477.961 964.703 Q 477.041 964.084 475.964 964.368 Q 474.887 964.652 474.518 965.441 Q 474.149 966.231 474.744 967.257 "></path>
    <path id="STROKE_e92b0a7f-e710-411c-9667-efa45c358350" opacity="1.000" fill="none" stroke="#000000" stroke-width="1.600" stroke-opacity="1.000" stroke-linecap="round" stroke-linejoin="round" d="M 466.863 974.740 Q 466.172 974.560 465.328 975.501 Q 464.484 976.442 464.161 976.908 Q 463.838 977.374 463.903 977.918 Q 463.968 978.463 464.615 978.610 Q 465.262 978.758 466.705 978.557 Q 468.147 978.356 469.022 977.979 Q 469.896 977.601 470.561 977.248 Q 471.226 976.894 471.462 976.322 Q 471.698 975.749 471.390 975.036 Q 471.081 974.323 470.762 974.044 Q 470.442 973.765 469.792 973.507 Q 469.142 973.249 468.289 973.187 Q 467.436 973.125 466.306 973.424 Q 465.176 973.723 464.678 975.171 "></path>
    <path id="STROKE_0e548d71-2574-4499-a26b-edb06459b623" opacity="1.000" fill="none" stroke="#000000" stroke-width="1.600" stroke-opacity="1.000" stroke-linecap="round" stroke-linejoin="round" d="M 477.359 975.270 Q 476.877 975.570 476.770 975.677 Q 476.664 975.785 476.698 975.842 Q 476.660 976.178 476.548 976.584 Q 476.436 976.989 476.703 977.300 Q 476.969 977.611 477.206 977.753 Q 477.443 977.894 478.255 977.907 Q 479.068 977.920 479.736 977.722 Q 480.404 977.524 480.934 977.248 Q 481.464 976.973 481.435 976.967 Q 481.405 976.961 481.752 976.680 Q 482.100 976.399 482.159 975.761 Q 482.217 975.123 481.702 974.351 Q 481.187 973.579 480.908 973.380 Q 480.630 973.182 480.384 972.926 Q 480.138 972.670 479.254 972.413 Q 478.369 972.156 476.366 974.641 "></path>
    <path id="STROKE_5ba5ef4c-aeb2-4a99-b0af-44abb6bee963" opacity="1.000" fill="none" stroke="#000000" stroke-width="1.600" stroke-opacity="1.000" stroke-linecap="round" stroke-linejoin="round" d="M 458.452 979.707 Q 458.064 979.991 457.732 980.690 Q 457.400 981.388 457.330 981.934 Q 457.260 982.479 457.320 982.390 Q 457.379 982.302 457.333 982.697 Q 457.287 983.093 458.325 983.290 Q 459.362 983.488 460.044 983.327 Q 460.726 983.166 460.866 983.114 Q 461.005 983.062 462.134 982.610 Q 463.263 982.158 463.902 981.492 Q 464.541 980.827 464.373 979.926 Q 464.205 979.026 463.483 978.583 Q 462.762 978.140 461.866 978.108 Q 460.969 978.075 460.298 978.232 Q 459.626 978.388 459.148 979.144 "></path>
    <path id="STROKE_1d14218a-91b2-45a6-af2b-c02e45392966" opacity="1.000" fill="none" stroke="#000000" stroke-width="1.600" stroke-opacity="1.000" stroke-linecap="round" stroke-linejoin="round" d="M 470.803 978.449 Q 470.194 978.855 470.289 978.830 Q 469.813 979.171 469.552 980.026 Q 469.291 980.881 469.455 981.249 Q 469.620 981.617 470.638 982.272 Q 471.657 982.927 473.527 982.755 Q 475.398 982.582 476.477 982.075 Q 477.555 981.569 478.206 980.825 Q 478.856 980.080 478.667 979.374 Q 478.478 978.668 477.727 978.107 Q 476.975 977.546 475.974 977.156 Q 474.973 976.765 472.724 978.118 "></path>
    <path id="STROKE_b29f24d7-3dde-44f7-831a-67fb4779203b" opacity="1.000" fill="none" stroke="#000000" stroke-width="1.600" stroke-opacity="1.000" stroke-linecap="round" stroke-linejoin="round" d="M 397.162 980.138 L 397.169 980.085 Q 396.758 980.032 396.735 980.068 Q 396.027 980.453 396.044 980.491 Q 395.882 980.691 395.381 981.365 Q 394.880 982.038 394.679 982.711 Q 394.479 983.385 394.855 983.863 Q 395.232 984.341 395.626 984.419 Q 396.020 984.498 395.993 984.464 Q 395.966 984.430 396.158 984.514 Q 396.350 984.599 397.784 984.341 Q 399.218 984.083 400.121 983.586 Q 401.023 983.088 401.058 983.044 Q 401.093 983.000 401.422 982.406 Q 401.750 981.812 400.379 980.715 Q 399.007 979.618 397.313 978.418 Q 397.309 978.398 397.924 978.515 "></path>
    <path id="STROKE_e1b64705-723d-4b8c-9ade-bf0613d6e520" opacity="1.000" fill="none" stroke="#000000" stroke-width="1.600" stroke-opacity="1.000" stroke-linecap="round" stroke-linejoin="round" d="M 480.538 967.555 Q 480.230 968.557 480.314 968.300 Q 480.190 968.813 480.189 969.518 Q 480.188 970.224 481.202 970.583 Q 482.216 970.943 483.403 970.751 Q 484.590 970.560 485.426 970.253 Q 486.263 969.946 487.100 969.381 Q 487.937 968.815 488.047 967.939 Q 488.156 967.063 487.984 966.648 Q 487.812 966.233 487.268 965.483 Q 486.724 964.733 485.647 964.303 Q 484.569 963.872 483.640 963.994 Q 482.711 964.115 481.896 964.707 "></path>
    <path id="STROKE_f51be386-32c8-4ed8-a1e7-6660a247b28b" opacity="1.000" fill="none" stroke="#000000" stroke-width="1.600" stroke-opacity="1.000" stroke-linecap="round" stroke-linejoin="round" d="M 286.766 976.131 Q 287.444 974.804 307.197 976.694 "></path>
    <path id="STROKE_95639cd0-1eb4-40ad-afa2-e935a2a76672" opacity="1.000" fill="none" stroke="#000000" stroke-width="1.600" stroke-opacity="1.000" stroke-linecap="round" stroke-linejoin="round" d="M 306.932 971.926 Q 307.273 972.220 307.231 972.185 Q 307.124 972.036 311.735 975.928 Q 312.134 975.741 310.501 976.762 Q 308.868 977.784 307.844 978.372 Q 306.820 978.960 306.465 979.406 Q 306.110 979.853 306.071 980.204 "></path>
    <path id="STROKE_265294f2-00fe-42a3-b773-699221b8dc70" opacity="1.000" fill="none" stroke="#000000" stroke-width="1.600" stroke-opacity="1.000" stroke-linecap="round" stroke-linejoin="round" d="M 513.187 974.045 Q 513.144 973.960 513.076 973.690 Q 512.835 973.528 532.094 972.853 "></path>
    <path id="STROKE_af7566ce-2666-4045-ad16-5e4d32a06a69" opacity="1.000" fill="none" stroke="#000000" stroke-width="1.600" stroke-opacity="1.000" stroke-linecap="round" stroke-linejoin="round" d="M 533.153 968.350 Q 533.038 968.082 535.922 968.872 Q 538.806 969.663 544.146 972.275 Q 543.813 972.475 542.266 972.586 Q 540.719 972.697 536.961 976.330 "></path>
  </g>
</svg>