<?xml version="1.0" encoding="UTF-8" standalone="yes"?>
<svg xmlns="http://www.w3.org/2000/svg" xmlns:xlink="http://www.w3.org/1999/xlink" width="431.807pt" height="348.860pt" version="1.1" viewBox="-225.714 561.907 431.807 348.860">
  <!--
	Exported with Concepts: Smarter Sketching
	Version: 2024.8.5 on Microsoft Windows NT 10.0.22631.0
	https://concepts.app/
	-->
  <title>Drawing 8</title>
  <desc>Drawing exported from Concepts: Smarter Sketching</desc>
  <defs></defs>
  <g id="Pen" opacity="1.000">
    <path id="STROKE_33db1c39-468d-4b3b-8a97-60cf00265836" opacity="1.000" fill="none" stroke="#000000" stroke-width="1.600" stroke-opacity="1.000" stroke-linecap="round" stroke-linejoin="round" d="M -100.000 572.686 L -100.000 868.000 L -100.000 868.000 "></path>
    <path id="STROKE_e7b5f0fb-1926-4d8c-88ca-f72c6e1b1e47" opacity="1.000" fill="none" stroke="#000000" stroke-width="1.600" stroke-opacity="1.000" stroke-linecap="round" stroke-linejoin="round" d="M -100.000 572.581 L -100.000 572.581 "></path>
    <path id="STROKE_9454a670-f30f-4275-a7a9-5db8b9b69756" opacity="1.000" fill="none" stroke="#000000" stroke-width="1.600" stroke-opacity="1.000" stroke-linecap="round" stroke-linejoin="round" d="M -100.000 578.000 L -100.000 568.000 L -100.000 568.000 "></path>
    <path id="STROKE_20fe3544-1bf2-46f1-946e-3d4be930d084" opacity="1.000" fill="none" stroke="#000000" stroke-width="1.600" stroke-opacity="1.000" stroke-linecap="round" stroke-linejoin="round" d="M -100.000 868.000 L 200.000 868.000 L 200.000 868.000 "></path>
    <path id="STROKE_1054833a-226e-4b8d-9e4c-914790af1859" opacity="1.000" fill="none" stroke="#000000" stroke-width="1.600" stroke-opacity="1.000" stroke-linecap="round" stroke-linejoin="round" d="M -219.646 711.637 Q -219.263 711.203 -219.256 715.578 Q -219.250 719.953 -219.054 722.391 Q -218.858 724.830 -218.698 726.038 Q -218.538 727.246 -217.956 727.802 Q -217.373 728.358 -216.848 728.427 Q -216.322 728.496 -215.868 728.431 Q -215.414 728.366 -215.220 728.377 Q -215.027 728.387 -213.208 727.979 Q -211.389 727.571 -208.785 725.585 Q -206.180 723.600 -204.271 721.009 "></path>
    <path id="STROKE_72f94cd7-599b-4988-9b2a-a7f988ae4b32" opacity="1.000" fill="none" stroke="#000000" stroke-width="1.600" stroke-opacity="1.000" stroke-linecap="round" stroke-linejoin="round" d="M -217.645 719.482 Q -216.648 719.379 -216.776 719.245 Q -215.464 718.503 -215.591 718.613 Q -214.952 718.724 -209.220 714.269 "></path>
    <path id="STROKE_3419dc7e-ac33-46bd-a8d5-9f4e89ef0034" opacity="1.000" fill="none" stroke="#000000" stroke-width="1.600" stroke-opacity="1.000" stroke-linecap="round" stroke-linejoin="round" d="M -218.066 709.741 Q -217.933 709.654 -208.536 704.055 "></path>
    <path id="STROKE_e88c706f-2423-43f3-9769-2cd086a84a99" opacity="1.000" fill="none" stroke="#000000" stroke-width="1.600" stroke-opacity="1.000" stroke-linecap="round" stroke-linejoin="round" d="M -199.848 710.005 Q -200.095 709.511 -198.531 715.059 Q -198.346 715.289 -197.780 713.514 Q -197.214 711.738 -196.364 710.114 Q -195.515 708.490 -194.888 707.777 Q -194.261 707.064 -193.731 706.677 Q -193.200 706.289 -192.265 706.377 Q -191.330 706.466 -190.990 706.856 Q -190.649 707.246 -190.392 707.613 Q -190.135 707.981 -190.176 707.898 Q -190.218 707.816 -189.866 708.380 Q -189.513 708.945 -189.068 709.643 Q -188.623 710.341 -187.843 711.268 "></path>
    <path id="STROKE_33c7991c-12bd-4873-88a3-17926f85bb8d" opacity="1.000" fill="none" stroke="#000000" stroke-width="1.600" stroke-opacity="1.000" stroke-linecap="round" stroke-linejoin="round" d="M -179.313 707.846 Q -178.653 708.208 -174.969 702.238 Q -174.863 701.874 -175.890 701.618 Q -176.916 701.362 -177.864 701.858 Q -178.812 702.353 -179.647 703.340 Q -180.481 704.326 -181.095 705.104 Q -181.709 705.882 -181.784 705.952 Q -181.859 706.021 -182.051 706.436 Q -182.243 706.850 -182.335 707.721 Q -182.428 708.592 -182.170 709.179 Q -181.912 709.766 -182.037 709.637 Q -182.161 709.508 -181.614 710.053 Q -181.068 710.597 -179.773 711.444 Q -178.478 712.291 -176.641 712.209 Q -174.804 712.128 -173.653 711.701 Q -172.503 711.274 -170.046 709.215 "></path>
    <path id="STROKE_86829f10-4a82-40e5-baf3-b44e34dcb18c" opacity="1.000" fill="none" stroke="#000000" stroke-width="1.600" stroke-opacity="1.000" stroke-linecap="round" stroke-linejoin="round" d="M -164.096 705.318 Q -164.212 705.803 -163.839 703.713 Q -163.466 701.622 -162.794 699.881 Q -162.121 698.140 -160.839 697.303 Q -159.558 696.465 -158.564 696.152 Q -157.570 695.839 -156.680 695.545 Q -155.790 695.251 -155.092 694.419 "></path>
    <path id="STROKE_6ed3183c-0b37-4ede-91bd-e99c8489d622" opacity="1.000" fill="none" stroke="#000000" stroke-width="1.600" stroke-opacity="1.000" stroke-linecap="round" stroke-linejoin="round" d="M -148.826 697.947 Q -148.333 699.095 -148.484 698.710 Q -147.886 699.067 -147.957 699.079 Q -147.075 699.162 -147.096 699.126 Q -147.118 699.091 -147.154 699.059 Q -147.191 699.027 -147.032 699.098 Q -146.872 699.169 -145.822 698.519 Q -144.771 697.868 -144.175 696.991 Q -143.578 696.113 -143.622 695.615 Q -143.665 695.116 -143.662 695.169 Q -143.658 695.222 -143.721 695.282 Q -143.783 695.343 -143.843 694.724 Q -143.903 694.105 -144.556 693.864 Q -145.208 693.624 -146.094 693.484 Q -146.980 693.345 -147.872 693.727 Q -148.764 694.108 -149.476 694.489 Q -150.189 694.869 -150.985 697.315 Q -150.609 697.758 -149.669 697.947 "></path>
    <path id="STROKE_d85c4f36-c8f9-48e2-abca-0443f6f5422c" opacity="1.000" fill="none" stroke="#000000" stroke-width="1.600" stroke-opacity="1.000" stroke-linecap="round" stroke-linejoin="round" d="M -145.983 696.157 Q -145.203 696.855 -145.325 696.815 Q -146.041 696.073 -143.935 698.586 Q -141.829 701.099 -141.044 702.965 Q -140.258 704.831 -139.946 706.266 Q -139.635 707.701 -140.414 709.373 Q -141.193 711.046 -143.003 712.068 Q -144.812 713.090 -146.361 713.117 Q -147.910 713.144 -149.100 712.325 Q -150.290 711.507 -150.985 709.847 "></path>
    <path id="STROKE_8c8d99d0-6262-4da5-9d72-8e66e1577abe" opacity="1.000" fill="none" stroke="#000000" stroke-width="1.600" stroke-opacity="1.000" stroke-linecap="round" stroke-linejoin="round" d="M -125.606 686.785 Q -125.633 686.877 -125.592 686.921 Q -125.550 686.965 -127.185 703.792 Q -127.106 703.713 -127.027 703.634 "></path>
    <path id="STROKE_e15ad7a9-1c18-49e3-bde1-750b1b5562f8" opacity="1.000" fill="none" stroke="#000000" stroke-width="1.600" stroke-opacity="1.000" stroke-linecap="round" stroke-linejoin="round" d="M -128.712 692.998 Q -128.529 693.126 -129.175 692.681 Q -129.822 692.236 -133.872 692.524 "></path>
    <path id="STROKE_fc2afbe1-31c3-4bc9-af0c-755cbc55a335" opacity="1.000" fill="none" stroke="#000000" stroke-width="1.600" stroke-opacity="1.000" stroke-linecap="round" stroke-linejoin="round" d="M -31.671 883.285 Q -31.763 883.283 -31.554 883.262 Q -31.345 883.241 -32.672 902.029 "></path>
    <path id="STROKE_17bb3501-96b5-4516-9d9b-8e92098dee2b" opacity="1.000" fill="none" stroke="#000000" stroke-width="1.600" stroke-opacity="1.000" stroke-linecap="round" stroke-linejoin="round" d="M -32.830 883.548 Q -32.487 883.312 -31.659 882.941 Q -30.831 882.570 -30.370 882.516 Q -29.909 882.462 -29.763 882.517 Q -29.617 882.571 -29.654 882.490 Q -29.692 882.408 -28.913 882.708 Q -28.134 883.009 -27.780 883.394 Q -27.426 883.778 -27.145 884.178 Q -26.865 884.578 -26.904 884.582 Q -26.943 884.585 -26.759 884.887 Q -26.575 885.189 -26.281 886.078 Q -25.988 886.968 -25.645 887.588 Q -25.303 888.207 -26.459 889.594 Q -27.616 890.981 -28.217 891.393 Q -28.819 891.806 -31.987 893.026 Q -30.447 893.026 -30.829 893.026 Q -30.257 892.760 -28.099 894.839 Q -25.941 896.919 -24.662 898.256 Q -23.384 899.593 -22.462 900.437 Q -21.540 901.281 -20.035 901.398 "></path>
    <path id="STROKE_40be0bed-fcbf-4006-9a95-8cb6a7889492" opacity="1.000" fill="none" stroke="#000000" stroke-width="1.600" stroke-opacity="1.000" stroke-linecap="round" stroke-linejoin="round" d="M -13.295 890.341 Q -13.628 889.767 -12.545 891.701 Q -11.461 893.634 -9.786 895.289 Q -8.112 896.943 -4.081 897.185 "></path>
    <path id="STROKE_5f0ab31c-ce64-4dd3-8418-c08057ef105c" opacity="1.000" fill="none" stroke="#000000" stroke-width="1.600" stroke-opacity="1.000" stroke-linecap="round" stroke-linejoin="round" d="M -1.343 886.076 Q -2.563 886.495 -2.396 886.576 Q -4.085 886.442 -11.452 902.661 "></path>
    <path id="STROKE_774c58f3-cd4b-4d14-a000-7ab529a9a6fa" opacity="1.000" fill="none" stroke="#000000" stroke-width="1.600" stroke-opacity="1.000" stroke-linecap="round" stroke-linejoin="round" d="M 2.080 893.921 Q 1.977 894.072 1.922 897.185 Q 3.098 896.768 4.252 894.870 Q 5.406 892.971 6.579 891.786 Q 7.751 890.601 8.770 890.201 Q 9.790 889.802 10.200 890.371 Q 10.609 890.940 10.658 891.477 Q 10.706 892.014 10.747 892.390 Q 10.789 892.766 10.779 892.883 Q 10.769 892.999 10.682 893.443 Q 10.595 893.888 11.452 898.238 "></path>
    <path id="STROKE_a78ab3f6-f507-44a0-b343-602d34565d66" opacity="1.000" fill="none" stroke="#000000" stroke-width="1.600" stroke-opacity="1.000" stroke-linecap="round" stroke-linejoin="round" d="M 47.836 886.286 Q 46.501 886.460 46.809 886.444 Q 46.098 886.015 43.354 889.564 Q 40.609 893.112 39.136 895.469 Q 37.664 897.825 37.096 899.512 Q 36.527 901.198 36.674 902.203 Q 36.820 903.208 37.231 903.732 Q 37.642 904.255 37.860 904.318 Q 38.078 904.379 38.350 904.698 Q 38.622 905.016 43.413 903.135 "></path>
    <path id="STROKE_755ea3ea-6d78-43b2-8580-31e0e0eeecd7" opacity="1.000" fill="none" stroke="#000000" stroke-width="1.600" stroke-opacity="1.000" stroke-linecap="round" stroke-linejoin="round" d="M 53.944 899.239 Q 53.806 899.862 55.575 898.978 Q 57.344 898.094 58.188 897.431 Q 59.032 896.767 59.525 896.211 Q 60.018 895.655 60.288 894.959 Q 60.558 894.264 60.489 894.413 Q 60.420 894.561 60.392 893.957 Q 60.364 893.352 60.333 893.349 Q 60.302 893.346 59.550 893.148 Q 58.798 892.950 57.929 892.894 Q 57.059 892.837 56.272 892.996 Q 55.485 893.154 54.991 893.548 Q 54.497 893.942 54.281 894.109 Q 54.064 894.277 53.850 894.501 Q 53.636 894.726 53.350 895.098 Q 53.064 895.470 52.998 895.599 Q 52.933 895.728 52.799 896.006 Q 52.664 896.284 52.571 896.969 Q 52.478 897.655 52.685 898.149 Q 52.892 898.643 53.457 899.138 Q 54.022 899.633 55.208 899.344 "></path>
    <path id="STROKE_dbf76cac-0777-4485-bf9d-a295c099d85e" opacity="1.000" fill="none" stroke="#000000" stroke-width="1.600" stroke-opacity="1.000" stroke-linecap="round" stroke-linejoin="round" d="M 67.318 897.080 Q 68.311 897.395 68.187 897.343 Q 69.341 897.242 69.319 897.133 Q 69.719 897.100 71.406 896.306 Q 73.093 895.512 73.666 894.620 Q 74.240 893.728 74.366 892.875 Q 74.491 892.022 74.063 891.880 Q 73.635 891.738 73.661 891.714 Q 73.686 891.691 73.324 891.552 Q 72.963 891.414 72.784 891.425 Q 72.604 891.437 72.309 891.278 Q 72.013 891.119 70.362 891.463 Q 68.711 891.808 67.366 892.366 Q 66.020 892.924 65.140 894.001 Q 64.260 895.079 64.109 895.751 Q 63.957 896.423 64.120 896.942 Q 64.283 897.460 64.696 898.040 Q 65.110 898.620 66.739 898.976 "></path>
    <path id="STROKE_7e915a4b-bb13-4cdc-8fea-5ae22ed47050" opacity="1.000" fill="none" stroke="#000000" stroke-width="1.600" stroke-opacity="1.000" stroke-linecap="round" stroke-linejoin="round" d="M 82.272 897.817 Q 81.947 898.869 81.929 898.791 Q 81.916 898.915 81.587 899.607 Q 81.728 899.734 81.898 898.968 Q 82.067 898.201 83.689 896.420 Q 85.311 894.639 87.198 893.678 Q 89.084 892.718 91.960 891.867 "></path>
    <path id="STROKE_3561d35b-84d9-457b-b421-247eb1788adf" opacity="1.000" fill="none" stroke="#000000" stroke-width="1.600" stroke-opacity="1.000" stroke-linecap="round" stroke-linejoin="round" d="M 106.966 884.549 Q 106.491 884.603 105.427 885.795 Q 104.363 886.988 104.074 888.000 Q 103.785 889.013 103.778 889.967 Q 103.771 890.922 103.780 891.482 Q 103.788 892.042 103.843 892.463 Q 103.898 892.884 104.010 892.991 Q 104.122 893.099 104.121 893.200 Q 104.120 893.301 104.209 893.527 Q 104.297 893.754 104.650 894.816 Q 104.752 894.630 104.750 894.093 Q 104.749 893.556 104.374 893.387 Q 103.998 893.218 104.065 892.928 Q 104.131 892.639 102.766 892.741 Q 101.401 892.844 100.921 893.095 Q 100.442 893.345 99.635 893.730 Q 98.827 894.114 97.942 895.086 Q 97.056 896.058 96.826 897.086 Q 96.596 898.115 97.004 898.892 Q 97.412 899.670 98.161 899.628 Q 98.910 899.586 99.886 899.203 Q 100.863 898.821 101.662 898.483 Q 102.461 898.146 103.649 897.343 "></path>
    <circle id="STROKE_25dd4674-7ec2-4087-a92b-3bc7a7939949" opacity="1.000" fill="#000000" stroke="#000000" stroke-width="0.1" stroke-opacity="1.000" fill-opacity="1.000" cx="117.076" cy="899.344" r="0.800"></circle>
    <path id="STROKE_c0c8ff0c-65c0-4cd7-ad8e-957da3e4365f" opacity="1.000" fill="none" stroke="#000000" stroke-width="1.600" stroke-opacity="1.000" stroke-linecap="round" stroke-linejoin="round" d="M -55.629 768.000 L 0.000 768.000 L 0.000 768.000 "></path>
    <path id="STROKE_44c3c242-7e28-4c1a-ac53-b2bf8d3ed341" opacity="1.000" fill="none" stroke="#000000" stroke-width="1.600" stroke-opacity="1.000" stroke-linecap="round" stroke-linejoin="round" d="M 130.000 668.000 L 160.000 668.000 L 160.000 668.000 "></path>
    <path id="STROKE_46b34a72-b57d-4522-a815-8de32f5b4626" opacity="1.000" fill="none" stroke="#000000" stroke-width="1.600" stroke-opacity="1.000" stroke-linecap="round" stroke-linejoin="round" d="M 160.000 668.000 L 180.000 668.000 L 180.000 668.000 "></path>
    <path id="STROKE_f0d631a2-c2bc-49b2-bb6f-4043079ee569" opacity="1.000" fill="none" stroke="#000000" stroke-width="1.600" stroke-opacity="1.000" stroke-linecap="round" stroke-linejoin="round" d="M 180.460 668.000 L 180.000 668.000 L 180.000 668.000 "></path>
    <path id="STROKE_9518f4bf-d176-47b6-adf5-e73add879b52" opacity="1.000" fill="none" stroke="#000000" stroke-width="1.600" stroke-opacity="1.000" stroke-linecap="round" stroke-linejoin="round" d="M 1.659 766.396 Q 2.545 765.914 -1.501 769.028 Q -0.550 768.189 -0.793 768.476 Q -1.036 768.763 -0.433 768.190 Q 0.169 767.618 0.539 766.950 Q 0.908 766.282 0.929 766.227 Q 0.951 766.171 0.938 766.168 Q 0.926 766.165 0.972 766.067 Q 1.019 765.969 1.054 766.154 Q 1.089 766.338 1.383 765.248 Q 1.677 764.157 2.010 762.807 Q 2.343 761.456 2.579 760.809 Q 2.815 760.161 2.903 760.088 Q 2.990 760.015 3.028 759.479 Q 3.067 758.944 3.379 757.022 Q 3.690 755.101 3.809 754.014 Q 3.927 752.926 4.820 748.743 Q 5.714 744.560 6.761 740.604 Q 7.808 736.647 8.765 731.730 Q 9.723 726.812 10.125 724.195 Q 10.528 721.577 10.981 718.899 Q 11.433 716.221 11.733 714.801 Q 12.034 713.381 12.417 711.206 Q 12.799 709.030 13.080 706.673 Q 13.360 704.315 14.587 699.422 Q 15.814 694.529 16.886 689.963 Q 17.959 685.396 18.923 682.577 Q 19.888 679.757 20.362 677.380 Q 20.836 675.004 21.325 672.731 Q 21.815 670.459 23.448 665.697 Q 25.081 660.936 26.436 656.984 Q 27.790 653.032 28.410 650.966 Q 29.029 648.900 29.703 646.785 Q 30.376 644.669 30.962 642.938 Q 31.547 641.206 32.061 639.991 Q 32.576 638.776 32.958 637.893 Q 33.341 637.010 33.591 636.291 Q 33.841 635.572 34.082 635.165 Q 34.323 634.757 34.448 634.515 Q 34.574 634.273 34.945 633.505 Q 35.316 632.737 36.130 630.703 Q 36.944 628.669 38.945 624.668 Q 40.946 620.668 42.516 618.130 Q 44.085 615.592 45.180 614.370 Q 46.276 613.148 46.882 612.400 Q 47.489 611.651 47.481 611.598 Q 47.473 611.546 47.600 611.473 Q 47.727 611.400 48.445 610.561 Q 49.163 609.723 50.221 608.372 Q 51.279 607.021 52.430 605.641 Q 53.581 604.260 54.494 603.032 Q 55.407 601.805 56.384 600.648 Q 57.361 599.492 58.694 598.679 Q 60.027 597.865 61.083 597.100 Q 62.138 596.336 61.907 596.228 Q 61.677 596.121 64.621 594.734 Q 67.565 593.346 70.174 592.374 Q 72.784 591.401 74.258 590.957 Q 75.732 590.512 77.061 590.170 Q 78.390 589.828 79.622 589.923 Q 80.854 590.018 81.417 590.047 Q 81.981 590.076 81.952 590.096 Q 81.923 590.117 81.874 590.118 Q 81.825 590.118 83.450 589.973 Q 85.075 589.828 88.172 590.739 Q 91.269 591.650 92.098 591.959 Q 92.928 592.268 93.951 592.929 Q 94.974 593.590 95.736 594.414 Q 96.499 595.239 96.895 595.852 Q 97.292 596.466 97.690 596.976 Q 98.088 597.485 98.123 597.493 Q 98.159 597.502 98.129 597.495 Q 98.100 597.488 98.118 597.500 Q 98.136 597.513 99.180 598.415 Q 100.223 599.317 100.736 599.837 Q 101.248 600.358 101.595 600.936 Q 101.942 601.514 101.956 601.554 Q 101.970 601.594 101.991 601.634 Q 102.012 601.675 101.980 601.539 Q 101.948 601.403 102.679 603.110 Q 103.410 604.817 104.180 606.521 Q 104.950 608.224 105.483 609.350 Q 106.016 610.476 106.435 611.157 Q 106.853 611.838 107.036 612.356 Q 107.220 612.874 107.142 612.573 Q 107.065 612.272 107.445 613.325 Q 107.826 614.377 107.864 615.191 Q 107.902 616.004 108.081 616.584 Q 108.260 617.163 108.636 617.876 Q 109.012 618.589 108.976 618.556 Q 108.941 618.523 109.034 618.734 Q 109.126 618.945 109.163 619.062 Q 109.201 619.178 109.161 619.061 Q 109.122 618.945 109.484 619.918 Q 109.845 620.891 110.037 621.823 Q 110.229 622.754 110.394 623.219 Q 110.559 623.683 110.822 624.097 Q 111.084 624.511 111.383 625.111 Q 111.681 625.711 111.952 626.136 Q 112.224 626.561 112.065 626.285 Q 111.907 626.009 112.338 627.601 Q 112.770 629.192 112.913 629.834 Q 113.056 630.475 113.274 630.947 Q 113.491 631.419 113.611 632.099 Q 113.730 632.779 114.032 633.019 Q 114.333 633.258 114.893 634.603 Q 115.453 635.948 116.091 637.844 Q 116.728 639.740 117.038 641.145 Q 117.347 642.550 117.402 643.415 Q 117.457 644.279 117.703 644.821 Q 117.949 645.364 118.025 645.570 Q 118.100 645.777 118.245 646.120 Q 118.389 646.463 118.334 646.335 Q 118.278 646.207 118.566 646.840 Q 118.854 647.473 119.946 649.878 Q 121.038 652.283 121.582 653.576 Q 122.127 654.870 122.315 655.392 Q 122.504 655.915 122.557 656.214 Q 122.611 656.514 122.703 657.054 Q 122.795 657.595 122.797 657.559 Q 122.799 657.523 122.749 657.472 Q 122.700 657.421 122.859 657.940 Q 123.019 658.460 123.410 659.140 Q 123.801 659.821 123.927 660.133 Q 124.054 660.445 124.332 660.812 Q 124.609 661.179 124.801 661.494 Q 124.993 661.809 125.130 661.976 Q 125.267 662.142 125.267 662.146 Q 125.268 662.149 125.382 662.572 Q 125.496 662.994 125.950 664.653 Q 126.405 666.312 126.739 667.125 Q 127.073 667.938 127.476 668.475 Q 127.879 669.012 128.405 669.271 Q 128.931 669.530 129.450 669.357 "></path>
    <circle id="STROKE_f389828f-005b-47fa-a105-bbfd8ecbfec7" opacity="1.000" fill="#000000" stroke="#000000" stroke-width="0.1" stroke-opacity="1.000" fill-opacity="1.000" cx="74.005" cy="600.961" r="0.800"></circle>
    <circle id="STROKE_ca2cdb88-9ecc-4232-a51e-e9f28cf8344b" opacity="1.000" fill="#000000" stroke="#000000" stroke-width="0.1" stroke-opacity="1.000" fill-opacity="1.000" cx="75.163" cy="604.014" r="0.800"></circle>
    <circle id="STROKE_f44bfc7b-89e9-47fd-9a7f-fd2dd1b56eb0" opacity="1.000" fill="#000000" stroke="#000000" stroke-width="0.1" stroke-opacity="1.000" fill-opacity="1.000" cx="77.006" cy="612.228" r="0.800"></circle>
    <circle id="STROKE_38e0d5d3-ddc1-4d57-98d7-7eb91fb62563" opacity="1.000" fill="#000000" stroke="#000000" stroke-width="0.1" stroke-opacity="1.000" fill-opacity="1.000" cx="76.585" cy="619.231" r="0.800"></circle>
    <circle id="STROKE_e9f6b7f4-7e02-40e0-9578-f17f840c205b" opacity="1.000" fill="#000000" stroke="#000000" stroke-width="0.1" stroke-opacity="1.000" fill-opacity="1.000" cx="75.901" cy="627.340" r="0.800"></circle>
    <circle id="STROKE_a4bede62-b600-4b89-8597-c7e519be9e25" opacity="1.000" fill="#000000" stroke="#000000" stroke-width="0.1" stroke-opacity="1.000" fill-opacity="1.000" cx="75.163" cy="634.132" r="0.800"></circle>
    <circle id="STROKE_691da801-ee0f-4514-9e78-413024aa0a55" opacity="1.000" fill="#000000" stroke="#000000" stroke-width="0.1" stroke-opacity="1.000" fill-opacity="1.000" cx="74.900" cy="642.030" r="0.800"></circle>
    <path id="STROKE_1ef3ca45-fb65-475a-9951-905e1fa13e9a" opacity="1.000" fill="none" stroke="#000000" stroke-width="1.600" stroke-opacity="1.000" stroke-linecap="round" stroke-linejoin="round" d="M 75.163 648.822 Q 74.905 649.894 75.005 649.585 Q 74.829 650.704 74.900 650.480 Q 74.952 651.357 75.005 651.507 "></path>
    <path id="STROKE_41693c0b-995a-4ac9-bfbe-f4cf3d7a7923" opacity="1.000" fill="none" stroke="#000000" stroke-width="1.600" stroke-opacity="1.000" stroke-linecap="round" stroke-linejoin="round" d="M 75.163 658.984 Q 75.125 659.215 74.742 662.248 "></path>
    <path id="STROKE_eb970dce-16f3-4e9b-9d54-158e153243a6" opacity="1.000" fill="none" stroke="#000000" stroke-width="1.600" stroke-opacity="1.000" stroke-linecap="round" stroke-linejoin="round" d="M 74.584 670.515 Q 74.377 671.362 74.005 672.516 "></path>
    <path id="STROKE_a07a8061-98ff-4a5a-9812-a34a1ee4637f" opacity="1.000" fill="none" stroke="#000000" stroke-width="1.600" stroke-opacity="1.000" stroke-linecap="round" stroke-linejoin="round" d="M 73.900 682.520 Q 73.895 683.514 73.821 683.494 Q 73.731 684.095 73.695 684.161 Q 73.659 684.226 73.655 684.219 Q 73.652 684.213 73.650 684.240 Q 73.648 684.268 73.643 684.338 Q 73.637 684.407 73.645 684.876 Q 73.654 685.345 73.742 686.205 "></path>
    <path id="STROKE_4d6b96e6-5ad9-4f14-9adb-facfe63f2260" opacity="1.000" fill="none" stroke="#000000" stroke-width="1.600" stroke-opacity="1.000" stroke-linecap="round" stroke-linejoin="round" d="M 73.742 694.577 Q 73.726 695.649 73.663 695.341 Q 73.647 694.939 73.163 699.527 "></path>
    <path id="STROKE_fa26b93f-0d37-499e-8341-6ae765026cfe" opacity="1.000" fill="none" stroke="#000000" stroke-width="1.600" stroke-opacity="1.000" stroke-linecap="round" stroke-linejoin="round" d="M 73.478 708.741 Q 73.066 709.781 73.163 709.715 Q 72.980 710.900 73.005 710.531 Q 73.270 712.148 73.163 711.637 Q 73.345 712.557 73.350 712.554 Q 73.354 712.551 73.320 712.532 "></path>
    <path id="STROKE_2525c2cc-dd47-4b29-8e31-a8be06d9aaa2" opacity="1.000" fill="none" stroke="#000000" stroke-width="1.600" stroke-opacity="1.000" stroke-linecap="round" stroke-linejoin="round" d="M 73.584 719.903 Q 73.363 720.801 73.320 723.062 "></path>
    <circle id="STROKE_397f8f71-9a53-40c4-a328-36b418200091" opacity="1.000" fill="#000000" stroke="#000000" stroke-width="0.1" stroke-opacity="1.000" fill-opacity="1.000" cx="72.899" cy="733.698" r="0.800"></circle>
    <circle id="STROKE_f60cb783-0024-4654-9159-f2c9d527876c" opacity="1.000" fill="#000000" stroke="#000000" stroke-width="0.1" stroke-opacity="1.000" fill-opacity="1.000" cx="71.478" cy="742.175" r="0.800"></circle>
    <path id="STROKE_23a2dd15-ccc1-4ddb-b035-7e700779f396" opacity="1.000" fill="none" stroke="#000000" stroke-width="1.600" stroke-opacity="1.000" stroke-linecap="round" stroke-linejoin="round" d="M 72.057 747.493 Q 72.053 748.573 71.978 748.573 Q 71.844 749.084 71.899 751.074 "></path>
    <circle id="STROKE_4d969e52-cf4b-45d1-b4ff-4d758ce2611d" opacity="1.000" fill="#000000" stroke="#000000" stroke-width="0.1" stroke-opacity="1.000" fill-opacity="1.000" cx="72.057" cy="757.234" r="0.800"></circle>
    <circle id="STROKE_3895b956-14d2-4d95-a278-2ca17fe04061" opacity="1.000" fill="#000000" stroke="#000000" stroke-width="0.1" stroke-opacity="1.000" fill-opacity="1.000" cx="71.583" cy="762.183" r="0.800"></circle>
    <path id="STROKE_b6e390cc-17d0-4b46-8dae-998e85a1089d" opacity="1.000" fill="none" stroke="#000000" stroke-width="1.600" stroke-opacity="1.000" stroke-linecap="round" stroke-linejoin="round" d="M 64.053 763.605 Q 65.281 764.063 66.355 765.077 Q 67.429 766.091 68.009 766.602 Q 68.589 767.113 69.358 767.253 Q 70.127 767.393 70.507 767.435 Q 70.887 767.478 71.331 767.160 Q 71.775 766.843 72.057 766.610 Q 72.339 766.377 72.614 765.954 Q 72.889 765.531 72.859 765.611 Q 72.830 765.691 74.280 763.245 Q 75.730 760.799 77.585 757.866 "></path>
    <path id="STROKE_69fa4dc0-87b6-4bd0-b8ae-05d8a7a1a7d9" opacity="1.000" fill="none" stroke="#000000" stroke-width="1.600" stroke-opacity="1.000" stroke-linecap="round" stroke-linejoin="round" d="M 73.900 599.065 Q 73.745 599.150 73.649 599.016 Q 73.554 598.881 72.130 600.739 Q 70.706 602.598 69.609 604.186 Q 68.512 605.774 67.213 607.542 Q 67.436 607.770 75.321 596.643 Q 76.335 598.171 76.122 597.662 Q 75.909 597.153 76.438 599.047 Q 76.968 600.940 77.519 602.457 Q 78.070 603.975 79.008 605.307 Q 79.946 606.639 82.008 607.542 "></path>
    <path id="STROKE_9d9df928-7652-4b1e-b3fd-6b91108f63b8" opacity="1.000" fill="none" stroke="#000000" stroke-width="1.600" stroke-opacity="1.000" stroke-linecap="round" stroke-linejoin="round" d="M 84.852 720.535 Q 84.851 720.579 85.115 720.009 Q 85.390 720.031 84.139 723.857 Q 82.889 727.683 82.585 730.374 Q 82.280 733.065 82.330 734.106 Q 82.380 735.147 82.784 735.625 Q 83.188 736.103 83.686 736.299 Q 84.184 736.495 84.515 736.487 Q 84.846 736.479 84.664 736.442 Q 84.481 736.405 85.259 736.413 Q 86.036 736.420 88.409 735.279 Q 90.782 734.138 92.039 733.137 Q 93.296 732.135 94.119 730.908 "></path>
    <path id="STROKE_647d1c32-175a-477b-93de-a34260d7be03" opacity="1.000" fill="none" stroke="#000000" stroke-width="1.600" stroke-opacity="1.000" stroke-linecap="round" stroke-linejoin="round" d="M 83.272 727.380 Q 83.441 727.030 84.747 726.412 Q 86.053 725.795 88.019 724.904 Q 89.985 724.013 91.025 723.732 Q 92.065 723.451 92.568 722.860 Q 93.072 722.269 93.276 721.536 "></path>
    <path id="STROKE_bb6b30f6-9889-4b63-8cb4-a9deedbae78c" opacity="1.000" fill="none" stroke="#000000" stroke-width="1.600" stroke-opacity="1.000" stroke-linecap="round" stroke-linejoin="round" d="M 86.695 717.007 Q 86.495 716.219 94.382 712.532 "></path>
    <path id="STROKE_d396e459-f349-4150-adfb-bd7c50ef1cdb" opacity="1.000" fill="none" stroke="#000000" stroke-width="1.600" stroke-opacity="1.000" stroke-linecap="round" stroke-linejoin="round" d="M 99.384 733.962 Q 100.474 733.956 100.437 733.883 Q 101.112 733.681 101.961 733.546 Q 102.810 733.411 104.557 732.516 Q 106.303 731.621 107.072 729.381 Q 107.011 728.477 105.105 727.975 Q 103.199 727.473 101.478 727.957 Q 99.757 728.441 98.542 732.066 Q 98.781 732.091 99.542 732.171 "></path>
    <path id="STROKE_3b1b10e7-3fb4-4e5b-963b-d952537f54fd" opacity="1.000" fill="none" stroke="#000000" stroke-width="1.600" stroke-opacity="1.000" stroke-linecap="round" stroke-linejoin="round" d="M 105.071 730.539 Q 105.553 731.732 105.518 731.487 Q 105.990 732.329 106.562 733.039 Q 107.133 733.749 109.261 733.870 Q 111.388 733.990 114.496 732.329 "></path>
  </g>
</svg>