<?xml version="1.0" encoding="UTF-8" standalone="yes"?>
<svg xmlns="http://www.w3.org/2000/svg" xmlns:xlink="http://www.w3.org/1999/xlink" width="416.930pt" height="328.129pt" version="1.1" viewBox="-342.078 489.440 416.930 328.129">
  <!--
	Exported with Concepts: Smarter Sketching
	Version: 2024.10.3 on Microsoft Windows NT 10.0.22631.0
	https://concepts.app/
	-->
  <title>Drawing 5</title>
  <desc>Drawing exported from Concepts: Smarter Sketching</desc>
  <defs></defs>
  <g id="Pen" opacity="1.000">
    <path id="STROKE_098f42ed-75f7-4c5e-9518-96a199d5fce7" opacity="1.000" fill="none" stroke="#000000" stroke-width="1.600" stroke-opacity="1.000" stroke-linecap="round" stroke-linejoin="round" d="M -294.648 504.435 L -295.764 758.490 L -295.791 764.659 "></path>
    <path id="STROKE_e0612210-7cd3-4a70-a30f-631f131fbb3f" opacity="1.000" fill="none" stroke="#000000" stroke-width="1.600" stroke-opacity="1.000" stroke-linecap="round" stroke-linejoin="round" d="M -280.839 505.295 L -280.879 505.289 Q -281.022 504.864 -280.469 506.535 Q -279.916 508.207 -279.056 510.863 "></path>
    <path id="STROKE_67a1bd39-00d9-4a63-8c7a-106331b9e09d" opacity="1.000" fill="none" stroke="#000000" stroke-width="1.600" stroke-opacity="1.000" stroke-linecap="round" stroke-linejoin="round" d="M -276.724 518.033 Q -277.125 518.140 -274.948 522.159 L -274.901 522.176 "></path>
    <path id="STROKE_c59f02ff-5e4f-4c29-8187-0fe31c7f83c5" opacity="1.000" fill="none" stroke="#000000" stroke-width="1.600" stroke-opacity="1.000" stroke-linecap="round" stroke-linejoin="round" d="M -273.208 532.436 Q -273.184 532.693 -273.222 532.369 Q -273.261 532.046 -272.004 538.414 Q -271.951 538.419 -271.774 538.281 "></path>
    <path id="STROKE_8871da2c-4af1-430b-a20b-67da5f7405a1" opacity="1.000" fill="none" stroke="#000000" stroke-width="1.600" stroke-opacity="1.000" stroke-linecap="round" stroke-linejoin="round" d="M -268.867 548.823 Q -268.853 548.787 -268.357 550.412 Q -267.860 552.038 -266.948 553.884 L -267.013 553.975 "></path>
    <path id="STROKE_9dff4910-58d8-4d83-bfb2-c25e914def1a" opacity="1.000" fill="none" stroke="#000000" stroke-width="1.600" stroke-opacity="1.000" stroke-linecap="round" stroke-linejoin="round" d="M -260.610 567.835 Q -260.425 568.353 -260.453 568.283 Q -260.313 568.447 -258.476 572.570 "></path>
    <path id="STROKE_3aad280e-84f5-4d67-8082-ff9cd7c17c4b" opacity="1.000" fill="none" stroke="#000000" stroke-width="1.600" stroke-opacity="1.000" stroke-linecap="round" stroke-linejoin="round" d="M -254.944 583.394 Q -255.161 583.053 -253.498 589.011 L -253.440 589.031 "></path>
    <path id="STROKE_9af56657-972a-4a33-a619-92cb4226476c" opacity="1.000" fill="none" stroke="#000000" stroke-width="1.600" stroke-opacity="1.000" stroke-linecap="round" stroke-linejoin="round" d="M -250.019 601.453 Q -249.729 602.695 -249.812 602.372 Q -250.208 602.311 -247.919 605.910 "></path>
    <path id="STROKE_49ccd52e-117f-4253-b97b-9736d333471a" opacity="1.000" fill="none" stroke="#000000" stroke-width="1.600" stroke-opacity="1.000" stroke-linecap="round" stroke-linejoin="round" d="M -243.223 620.840 Q -242.888 621.256 -242.915 621.207 Q -242.708 621.260 -241.325 623.767 "></path>
    <path id="STROKE_bb4177a5-24e7-4e52-8344-f2b65ec05928" opacity="1.000" fill="none" stroke="#000000" stroke-width="1.600" stroke-opacity="1.000" stroke-linecap="round" stroke-linejoin="round" d="M -233.488 635.618 Q -233.623 634.907 -234.004 634.588 Q -233.965 634.904 -233.681 635.509 Q -233.398 636.115 -233.111 636.677 Q -232.823 637.240 -232.653 637.460 Q -232.482 637.680 -232.324 637.980 Q -232.166 638.281 -232.068 638.488 Q -231.970 638.696 -231.918 638.796 Q -231.867 638.897 -231.748 639.361 Q -231.630 639.825 -230.992 640.211 Q -230.929 640.163 -230.901 640.112 "></path>
    <path id="STROKE_bf576fdf-0000-4c48-9c8b-37f31ef32e59" opacity="1.000" fill="none" stroke="#000000" stroke-width="1.600" stroke-opacity="1.000" stroke-linecap="round" stroke-linejoin="round" d="M -229.142 643.178 Q -229.148 643.180 -229.344 642.313 Q -229.347 642.328 -229.362 642.669 Q -229.212 642.690 -228.734 643.140 Q -228.257 643.590 -227.770 644.626 Q -227.283 645.663 -227.053 646.072 Q -226.823 646.481 -226.812 646.492 Q -226.802 646.503 -226.734 646.589 Q -226.666 646.674 -226.668 646.666 Q -226.670 646.659 -226.376 647.176 Q -226.083 647.692 -225.711 648.185 Q -225.340 648.677 -225.111 648.908 Q -224.882 649.139 -224.858 649.174 Q -224.833 649.209 -224.515 649.581 Q -224.198 649.954 -224.193 649.955 Q -224.189 649.956 -224.145 650.007 Q -224.101 650.057 -224.085 650.031 Q -224.068 650.004 -223.743 650.613 Q -223.418 651.223 -223.415 651.380 Q -223.411 651.537 -223.411 651.539 Q -223.411 651.542 -223.284 651.767 Q -223.156 651.992 -222.958 652.297 Q -222.759 652.602 -222.761 652.610 Q -222.573 653.130 -222.586 653.143 Q -222.409 653.615 -222.398 653.664 Q -222.388 653.714 -222.248 653.992 Q -222.107 654.271 -221.783 654.819 Q -221.460 655.367 -221.401 655.494 Q -221.342 655.621 -221.334 655.626 Q -221.327 655.630 -221.338 655.625 Q -221.348 655.620 -221.093 655.981 Q -220.838 656.341 -220.794 656.389 Q -220.749 656.436 -220.728 656.425 Q -220.192 656.878 -220.335 656.779 Q -220.173 657.089 -220.176 657.108 Q -219.947 657.794 -219.986 657.670 Q -220.020 657.643 -220.010 657.685 Q -220.000 657.727 -219.889 657.913 Q -219.778 658.099 -219.474 658.564 Q -219.171 659.029 -219.204 658.964 Q -219.161 659.055 -218.662 659.525 Q -218.163 659.995 -217.713 660.493 Q -217.262 660.991 -217.263 660.995 Q -217.264 660.998 -217.021 661.398 Q -216.777 661.798 -216.852 661.705 Q -216.927 661.612 -216.811 661.754 Q -216.695 661.895 -216.395 662.247 Q -216.096 662.599 -216.238 662.409 Q -216.379 662.219 -215.955 662.851 Q -215.531 663.482 -215.232 663.911 Q -214.933 664.340 -214.961 664.325 Q -214.990 664.310 -214.970 664.329 Q -214.951 664.348 -214.882 664.410 Q -214.814 664.472 -214.816 664.480 Q -214.818 664.487 -214.500 664.797 Q -214.183 665.107 -213.980 665.323 Q -213.777 665.540 -213.782 665.554 Q -213.786 665.568 -213.785 665.565 Q -213.783 665.562 -213.555 665.893 Q -213.327 666.224 -213.320 666.227 Q -212.904 666.618 -212.961 666.566 Q -212.950 666.602 -212.590 666.789 Q -212.230 666.976 -211.841 667.317 Q -211.451 667.658 -211.460 667.645 Q -211.469 667.632 -211.385 667.693 Q -211.302 667.753 -211.230 667.828 Q -211.159 667.902 -210.688 668.267 Q -210.217 668.631 -209.896 668.951 Q -209.576 669.271 -209.269 669.627 Q -208.962 669.983 -208.971 669.944 Q -208.674 670.053 -208.440 670.143 Q -208.206 670.234 -208.104 670.443 Q -208.002 670.653 -207.927 670.781 Q -207.853 670.909 -207.850 670.925 Q -207.846 670.940 -207.696 671.244 Q -207.545 671.548 -207.502 671.592 Q -207.458 671.635 -207.428 671.684 Q -207.398 671.732 -207.435 671.685 Q -207.472 671.637 -206.934 671.916 Q -206.395 672.194 -206.011 672.524 Q -205.626 672.853 -205.620 672.869 Q -205.615 672.885 -205.603 672.893 Q -205.592 672.901 -205.575 672.920 Q -205.557 672.938 -205.555 672.948 Q -205.553 672.957 -205.250 673.197 Q -204.947 673.437 -204.945 673.435 Q -204.944 673.433 -204.942 673.430 Q -204.941 673.426 -204.710 673.603 Q -204.479 673.779 -204.282 673.937 Q -204.086 674.095 -204.086 674.097 Q -204.087 674.099 -203.558 674.600 Q -203.029 675.101 -202.756 675.423 Q -202.483 675.744 -202.474 675.735 Q -202.465 675.725 -202.483 675.722 Q -202.500 675.719 -202.369 675.771 Q -202.238 675.824 -201.971 675.969 Q -201.704 676.114 -201.702 676.110 Q -201.700 676.107 -201.644 676.162 Q -201.589 676.217 -201.258 676.578 Q -200.927 676.940 -200.927 676.948 Q -200.927 676.957 -200.787 677.104 Q -200.648 677.252 -200.402 677.365 Q -200.156 677.478 -199.976 677.597 Q -199.796 677.717 -199.747 677.736 Q -199.698 677.755 -199.717 677.745 Q -199.736 677.735 -199.397 678.185 Q -199.058 678.634 -198.694 678.798 Q -198.331 678.962 -197.966 679.152 Q -197.600 679.343 -197.648 679.319 Q -197.697 679.295 -197.383 679.503 Q -197.070 679.711 -196.692 679.910 Q -196.314 680.109 -196.319 680.111 Q -196.323 680.113 -196.033 680.283 Q -195.743 680.453 -195.409 680.662 Q -195.074 680.871 -195.080 680.866 Q -195.085 680.860 -195.090 680.860 Q -195.095 680.860 -195.031 680.877 Q -194.968 680.894 -195.043 680.878 Q -195.118 680.863 -194.817 680.907 Q -194.516 680.951 -194.117 681.104 Q -193.718 681.258 -193.387 681.392 Q -193.055 681.525 -193.039 681.526 Q -193.023 681.526 -193.035 681.540 Q -193.046 681.553 -192.801 681.485 Q -192.555 681.417 -192.077 681.624 Q -191.599 681.830 -191.362 682.062 Q -191.125 682.295 -191.143 682.286 Q -191.162 682.278 -191.097 682.303 Q -191.033 682.329 -191.118 682.309 Q -191.203 682.289 -190.846 682.391 Q -190.488 682.494 -190.116 682.585 Q -189.743 682.677 -189.402 682.805 Q -189.062 682.934 -189.059 682.932 Q -189.055 682.930 -189.058 682.942 Q -189.062 682.954 -188.808 682.942 Q -188.554 682.930 -188.234 682.919 Q -187.915 682.908 -187.585 683.036 Q -187.254 683.164 -186.875 683.271 Q -186.496 683.378 -186.499 683.371 Q -186.501 683.364 -186.555 683.369 Q -186.608 683.374 -186.427 683.359 Q -186.245 683.344 -185.975 683.373 Q -185.705 683.402 -185.701 683.408 Q -185.697 683.413 -185.729 683.425 Q -185.761 683.437 -185.006 683.488 Q -184.251 683.539 -183.849 683.552 Q -183.447 683.564 -183.312 683.611 Q -183.177 683.657 -183.138 683.693 Q -183.099 683.729 -183.096 683.770 Q -183.093 683.811 -182.869 683.933 Q -182.644 684.055 -181.991 684.082 Q -181.337 684.108 -181.156 684.158 Q -180.976 684.209 -181.022 684.206 Q -181.069 684.204 -181.090 684.213 Q -181.110 684.221 -180.842 684.183 Q -180.575 684.144 -180.414 684.110 Q -180.253 684.075 -180.101 684.064 Q -179.950 684.053 -179.925 684.049 Q -179.900 684.045 -179.827 683.997 Q -179.754 683.948 -179.479 684.071 Q -179.205 684.193 -178.998 684.306 Q -178.791 684.419 -178.339 684.511 Q -177.886 684.602 -177.587 684.715 Q -177.288 684.829 -177.286 684.830 Q -177.283 684.830 -177.181 684.829 Q -177.078 684.827 -177.076 684.860 Q -177.073 684.893 -176.315 684.842 Q -175.556 684.790 -174.910 684.579 Q -174.265 684.367 -174.418 684.397 Q -174.571 684.427 -174.323 684.328 Q -174.074 684.229 -173.647 684.139 Q -173.219 684.048 -172.843 683.904 Q -172.466 683.761 -172.447 683.744 Q -172.427 683.727 -172.210 683.613 Q -171.993 683.499 -171.688 683.428 Q -171.384 683.358 -171.298 683.345 Q -171.213 683.333 -170.852 683.256 Q -170.492 683.179 -170.496 683.179 Q -170.500 683.179 -170.521 683.166 Q -170.543 683.153 -170.312 683.043 Q -170.081 682.933 -169.668 682.906 Q -169.255 682.879 -169.279 682.877 Q -169.303 682.875 -169.228 682.859 Q -169.152 682.844 -169.201 682.860 Q -169.250 682.877 -168.655 682.716 Q -168.059 682.555 -167.930 682.506 Q -167.801 682.457 -167.794 682.444 Q -167.788 682.431 -167.605 682.322 Q -167.422 682.213 -167.144 682.306 Q -166.866 682.400 -165.982 681.911 Q -165.098 681.422 -164.721 680.996 Q -164.343 680.570 -164.165 680.439 Q -163.986 680.308 -163.989 680.317 Q -163.991 680.326 -163.986 680.335 Q -163.982 680.345 -163.649 680.257 Q -163.316 680.169 -162.955 679.988 Q -162.594 679.808 -162.597 679.806 Q -162.600 679.804 -162.610 679.822 Q -162.621 679.839 -162.318 679.481 Q -162.016 679.123 -162.016 679.121 Q -162.017 679.119 -161.725 678.772 Q -161.434 678.425 -161.434 678.421 Q -161.435 678.417 -161.364 678.326 Q -161.293 678.234 -161.220 678.164 Q -161.148 678.093 -161.157 678.102 Q -161.166 678.111 -160.505 677.823 Q -159.845 677.535 -159.999 677.605 Q -159.309 677.060 -159.362 677.103 Q -159.415 677.146 -159.424 677.160 Q -159.432 677.173 -159.056 676.729 Q -158.680 676.286 -158.319 675.925 Q -157.957 675.564 -157.992 675.615 Q -158.027 675.665 -157.976 675.630 Q -157.925 675.595 -157.570 675.417 Q -157.215 675.240 -157.069 675.169 Q -156.923 675.099 -156.877 675.063 Q -156.831 675.028 -156.438 674.686 Q -156.045 674.345 -155.994 674.304 Q -155.943 674.264 -155.640 674.017 Q -155.336 673.771 -155.403 673.783 Q -155.470 673.796 -155.293 673.787 Q -155.115 673.778 -153.811 672.592 Q -152.507 671.406 -151.622 670.453 Q -150.738 669.501 -149.944 668.754 Q -149.150 668.006 -148.642 667.421 Q -148.134 666.836 -147.763 666.452 Q -147.391 666.069 -147.153 665.807 Q -146.915 665.545 -146.837 665.453 Q -146.760 665.361 -146.775 665.383 Q -146.791 665.405 -146.742 665.308 Q -146.692 665.212 -146.142 664.857 Q -145.592 664.502 -144.887 663.679 Q -144.182 662.857 -143.809 662.386 Q -143.435 661.914 -143.253 661.738 Q -143.071 661.561 -142.901 661.376 Q -142.731 661.192 -142.709 661.168 Q -142.687 661.143 -142.704 661.204 Q -142.721 661.264 -142.138 660.462 Q -141.556 659.660 -141.151 659.112 Q -140.745 658.564 -140.426 658.202 Q -140.108 657.839 -140.189 657.924 Q -140.271 658.009 -139.894 657.590 Q -139.518 657.172 -139.088 656.712 Q -138.659 656.251 -138.345 655.819 Q -138.031 655.386 -137.873 655.161 Q -137.714 654.935 -137.654 654.840 Q -137.594 654.746 -137.578 654.723 Q -137.562 654.701 -137.597 654.729 Q -137.631 654.756 -137.472 654.579 Q -137.313 654.401 -136.736 653.758 Q -136.159 653.116 -135.799 652.621 Q -135.438 652.126 -135.440 652.109 Q -135.441 652.092 -135.184 651.706 Q -134.927 651.319 -134.817 651.151 Q -134.707 650.984 -134.504 650.780 Q -134.302 650.577 -134.125 650.383 Q -133.949 650.190 -133.843 650.061 Q -133.737 649.933 -133.582 649.711 Q -133.427 649.489 -133.405 649.455 Q -133.382 649.421 -133.114 648.977 Q -132.846 648.533 -132.958 648.730 Q -133.071 648.928 -132.668 648.314 Q -132.265 647.700 -131.840 646.905 Q -131.415 646.109 -131.188 645.774 Q -130.961 645.440 -130.891 645.340 Q -130.820 645.241 -130.731 645.109 Q -130.641 644.977 -130.627 644.964 Q -130.612 644.950 -129.564 643.192 Q -128.516 641.433 -127.761 639.850 Q -127.006 638.267 -126.680 637.437 Q -126.354 636.608 -126.236 636.423 Q -126.118 636.238 -126.076 636.160 Q -126.035 636.082 -125.765 635.669 Q -125.494 635.257 -125.668 635.514 Q -125.842 635.770 -125.308 634.833 Q -124.774 633.895 -124.406 633.432 Q -124.038 632.969 -123.803 632.573 Q -123.567 632.178 -123.547 632.136 Q -123.527 632.094 -123.182 631.528 Q -122.836 630.962 -122.736 630.773 Q -122.636 630.585 -122.479 630.309 Q -122.323 630.033 -122.222 629.884 Q -122.120 629.735 -122.132 629.755 Q -122.144 629.774 -121.849 629.274 Q -121.554 628.774 -121.449 628.627 Q -121.344 628.480 -121.352 628.500 Q -121.360 628.520 -121.371 628.533 Q -121.382 628.546 -121.168 628.227 Q -120.954 627.908 -120.578 627.442 Q -120.202 626.976 -120.116 626.813 Q -120.030 626.650 -119.916 626.449 Q -119.803 626.248 -119.768 626.161 Q -119.734 626.074 -119.632 625.865 Q -119.530 625.655 -119.515 625.642 Q -119.500 625.629 -119.543 625.565 Q -119.587 625.500 -119.210 624.970 Q -118.833 624.440 -118.497 624.118 Q -118.161 623.796 -118.161 623.792 Q -118.161 623.789 -117.812 623.433 Q -117.462 623.076 -117.463 623.090 Q -117.068 622.733 -117.124 622.793 Q -116.713 622.428 -116.694 622.409 Q -116.675 622.390 -116.741 622.401 Q -116.808 622.411 -116.260 622.041 Q -115.713 621.671 -115.280 621.476 Q -114.848 621.280 -114.837 621.265 Q -114.827 621.251 -114.435 621.147 Q -114.043 621.044 -114.056 621.075 Q -114.070 621.105 -114.104 621.085 Q -114.139 621.064 -113.903 621.168 Q -113.666 621.271 -113.609 621.315 Q -113.552 621.358 -113.156 621.606 Q -112.761 621.853 -112.779 621.878 Q -112.798 621.903 -112.749 622.081 Q -112.700 622.259 -112.535 622.580 Q -112.508 622.592 -112.461 622.612 L -112.409 622.603 Q -112.192 622.875 -111.897 622.936 Q -111.601 622.997 -111.263 623.058 Q -110.925 623.119 -110.585 623.367 Q -110.244 623.615 -110.208 623.596 Q -110.172 623.578 -110.120 623.575 Q -110.069 623.573 -109.890 623.670 Q -109.712 623.766 -109.678 623.789 Q -109.644 623.812 -109.664 623.792 Q -109.684 623.772 -109.678 623.783 Q -109.672 623.794 -109.339 624.101 Q -109.006 624.407 -109.002 624.405 Q -108.999 624.402 -108.976 624.432 Q -108.953 624.462 -108.987 624.417 Q -109.022 624.373 -108.608 624.793 Q -108.194 625.213 -108.117 625.289 Q -108.040 625.364 -107.810 625.611 Q -107.579 625.857 -107.548 625.911 Q -107.516 625.966 -107.150 626.197 Q -106.783 626.428 -106.792 626.432 Q -106.800 626.436 -106.795 626.436 Q -106.789 626.437 -106.457 626.833 Q -106.125 627.230 -106.173 627.180 Q -106.222 627.130 -105.838 627.538 Q -105.453 627.947 -105.513 627.887 Q -105.572 627.828 -105.555 627.836 Q -105.539 627.844 -105.403 628.047 Q -105.267 628.251 -105.150 628.436 Q -105.033 628.621 -105.022 628.622 Q -104.693 628.973 -104.728 628.933 Q -104.444 629.297 -104.490 629.265 Q -104.137 630.085 -104.241 629.832 Q -104.344 629.579 -104.221 629.975 Q -104.097 630.371 -103.918 630.767 Q -103.740 631.162 -103.735 631.172 Q -103.730 631.182 -103.617 631.297 Q -103.505 631.412 -103.190 632.181 Q -102.874 632.949 -102.762 633.364 Q -102.651 633.778 -102.524 634.150 Q -102.397 634.523 -102.393 634.511 Q -102.389 634.500 -102.392 634.429 Q -102.395 634.357 -101.960 635.505 Q -101.524 636.653 -101.263 637.550 Q -101.003 638.448 -100.912 638.718 Q -100.822 638.987 -100.646 639.489 Q -100.469 639.991 -100.515 639.842 Q -100.562 639.692 -100.368 640.363 Q -100.174 641.034 -99.962 641.647 Q -99.750 642.260 -99.625 642.628 Q -99.500 642.996 -99.394 643.423 Q -99.287 643.849 -99.270 643.866 Q -99.252 643.882 -99.268 643.833 Q -99.284 643.784 -99.142 644.843 Q -99.001 645.902 -98.680 646.774 Q -98.359 647.646 -98.128 648.024 Q -97.898 648.402 -97.793 648.681 Q -97.688 648.960 -97.708 648.926 Q -97.727 648.891 -97.583 649.118 Q -97.438 649.345 -97.317 649.534 Q -97.196 649.723 -97.196 649.726 Q -97.195 649.728 -97.069 649.909 Q -96.944 650.090 -96.767 650.258 Q -96.589 650.425 -96.375 650.927 Q -96.161 651.428 -95.869 652.451 Q -95.576 653.474 -95.497 654.075 Q -95.417 654.677 -95.339 654.855 Q -95.262 655.033 -95.257 655.041 Q -95.253 655.049 -95.189 655.251 Q -95.125 655.453 -95.117 655.469 Q -95.110 655.486 -95.017 655.714 Q -94.924 655.942 -94.743 656.463 Q -94.562 656.985 -94.564 656.995 Q -94.567 657.005 -94.478 657.297 Q -94.388 657.590 -94.358 657.671 Q -94.328 657.753 -94.390 657.633 Q -94.452 657.514 -94.118 658.400 Q -93.784 659.287 -93.484 659.982 Q -93.183 660.677 -93.057 660.963 Q -92.930 661.248 -92.798 661.574 Q -92.666 661.899 -92.588 662.111 Q -92.510 662.322 -92.516 662.312 Q -92.295 662.853 -92.292 662.837 Q -92.171 663.049 -92.025 663.325 Q -91.878 663.601 -91.869 663.627 Q -91.860 663.653 -91.860 663.540 Q -91.861 663.428 -91.685 665.591 Q -91.704 665.565 -91.520 664.808 Q -91.518 664.544 -91.403 665.143 Q -91.288 665.743 -91.056 666.472 Q -90.824 667.202 -90.571 668.013 Q -90.318 668.823 -90.192 669.296 Q -90.066 669.770 -90.035 669.885 Q -90.003 670.000 -89.994 670.030 Q -89.984 670.059 -89.883 670.418 Q -89.782 670.776 -89.747 670.891 Q -89.712 671.006 -89.689 671.092 Q -89.665 671.178 -89.600 671.437 Q -89.534 671.697 -89.530 671.710 Q -89.526 671.723 -89.289 672.649 Q -89.051 673.575 -88.894 674.113 Q -88.737 674.651 -88.688 674.813 Q -88.640 674.976 -88.642 674.975 Q -88.643 674.975 -88.645 674.996 Q -88.647 675.018 -88.490 675.306 Q -88.333 675.594 -88.156 675.981 Q -87.978 676.369 -87.937 676.496 Q -87.895 676.624 -87.853 676.753 Q -87.811 676.882 -87.846 676.806 Q -87.881 676.729 -87.660 677.561 Q -87.440 678.394 -87.087 679.323 Q -86.734 680.252 -86.679 680.423 Q -86.624 680.593 -86.627 680.591 Q -86.631 680.589 -86.599 680.674 Q -86.566 680.759 -86.240 681.577 Q -85.914 682.395 -85.745 682.945 Q -85.576 683.496 -85.506 683.785 Q -85.436 684.074 -85.433 684.057 Q -85.430 684.041 -85.355 684.380 Q -85.281 684.720 -85.237 684.989 Q -85.193 685.257 -85.101 685.644 Q -85.010 686.031 -84.979 686.137 Q -84.947 686.243 -84.875 686.502 Q -84.803 686.761 -84.785 686.810 Q -84.766 686.858 -84.763 686.861 Q -84.760 686.864 -84.748 686.909 Q -84.736 686.954 -84.428 687.994 Q -84.121 689.033 -83.848 689.820 Q -83.576 690.606 -83.441 690.921 Q -83.307 691.237 -83.178 691.469 Q -83.050 691.701 -82.939 691.895 Q -82.828 692.089 -82.813 692.096 Q -82.799 692.102 -82.731 692.221 Q -82.663 692.341 -82.364 693.150 Q -82.064 693.958 -81.696 694.566 Q -81.327 695.173 -81.156 695.537 Q -80.984 695.901 -80.881 696.128 Q -80.778 696.354 -80.706 696.558 Q -80.633 696.761 -80.627 696.803 Q -80.620 696.845 -80.409 697.213 Q -80.197 697.581 -80.121 697.728 Q -80.045 697.875 -80.008 697.945 Q -79.972 698.016 -79.816 698.780 Q -79.660 699.544 -79.283 700.501 Q -78.906 701.457 -78.678 701.911 Q -78.450 702.365 -78.379 702.537 Q -78.308 702.710 -78.366 702.617 Q -78.425 702.525 -78.211 702.946 Q -77.997 703.368 -77.804 703.651 Q -77.610 703.935 -77.600 703.958 Q -77.590 703.981 -77.618 703.926 Q -77.645 703.872 -77.312 704.511 Q -76.978 705.150 -76.727 705.614 Q -76.476 706.078 -76.318 706.343 Q -76.160 706.609 -76.150 706.633 Q -76.140 706.658 -76.131 706.664 Q -76.122 706.670 -76.102 706.715 Q -76.083 706.759 -75.891 707.205 Q -75.699 707.650 -75.159 708.479 Q -74.620 709.308 -74.447 709.544 Q -74.274 709.779 -74.292 709.751 Q -74.309 709.722 -73.989 710.273 Q -73.668 710.824 -73.729 710.740 L -73.455 711.212 Q -73.207 711.568 -73.051 711.795 Q -72.896 712.022 -72.875 712.007 Q -72.474 712.397 -72.436 712.452 Q -72.397 712.507 -72.058 712.939 Q -71.720 713.371 -71.690 713.386 Q -71.660 713.401 -71.646 713.383 Q -71.633 713.365 -71.009 714.168 Q -70.386 714.970 -69.596 715.674 Q -68.807 716.378 -68.609 716.460 Q -68.411 716.542 -68.238 716.771 Q -68.064 716.999 -67.872 717.169 Q -67.680 717.339 -67.671 717.346 Q -67.661 717.353 -67.446 717.520 Q -67.231 717.686 -67.103 717.762 Q -66.976 717.837 -66.973 717.841 Q -66.970 717.846 -66.887 717.878 Q -66.805 717.909 -66.592 718.143 Q -66.380 718.377 -66.094 718.553 Q -65.808 718.729 -65.380 718.869 Q -64.951 719.009 -64.945 719.024 Q -64.939 719.039 -64.929 719.045 Q -64.918 719.051 -64.910 719.043 Q -64.901 719.035 -64.682 719.303 Q -64.463 719.571 -64.441 719.618 Q -64.419 719.665 -64.439 719.674 Q -64.460 719.684 -64.436 719.727 Q -64.412 719.769 -63.969 720.038 Q -63.526 720.307 -63.523 720.306 Q -63.520 720.305 -63.241 720.435 Q -62.962 720.566 -63.006 720.544 Q -63.049 720.522 -63.025 720.532 Q -63.001 720.543 -62.858 720.655 Q -62.715 720.767 -62.517 720.872 Q -62.320 720.977 -62.310 720.980 Q -62.300 720.983 -62.300 721.010 Q -62.299 721.037 -62.148 721.288 Q -61.997 721.539 -61.469 721.693 Q -60.940 721.848 -60.902 721.893 Q -60.863 721.939 -60.713 722.103 Q -60.562 722.268 -60.520 722.302 Q -60.478 722.336 -59.953 722.660 Q -59.427 722.985 -59.424 722.979 Q -59.122 723.050 -59.120 723.048 Q -59.303 722.978 -58.795 723.136 Q -58.286 723.294 -57.508 723.405 Q -56.730 723.516 -56.206 723.507 Q -55.682 723.499 -55.384 723.644 Q -55.085 723.789 -55.063 723.780 Q -55.042 723.771 -55.050 723.778 Q -55.059 723.785 -54.802 723.953 Q -54.545 724.122 -54.240 724.016 Q -53.935 723.910 -53.588 723.792 Q -53.242 723.675 -53.045 723.673 Q -52.848 723.670 -52.733 723.657 Q -52.618 723.644 -52.616 723.645 Q -52.614 723.645 -51.730 723.365 Q -50.845 723.085 -50.334 722.861 Q -49.822 722.636 -49.766 722.621 Q -49.710 722.606 -49.695 722.595 Q -49.679 722.585 -49.662 722.589 Q -49.645 722.593 -49.431 722.518 Q -49.217 722.443 -48.837 722.280 Q -48.456 722.118 -48.428 722.104 Q -48.401 722.089 -48.409 722.089 Q -48.416 722.089 -48.101 721.950 Q -47.786 721.811 -47.779 721.810 Q -47.373 721.471 -47.375 721.495 Q -47.040 721.429 -46.101 720.526 Q -45.162 719.624 -44.648 718.856 Q -44.133 718.088 -43.674 717.775 Q -43.214 717.462 -43.213 717.460 Q -43.212 717.457 -42.791 717.049 Q -42.371 716.640 -42.412 716.667 Q -42.454 716.694 -42.313 716.612 Q -42.173 716.529 -41.391 715.759 Q -40.609 714.988 -40.242 714.486 Q -39.875 713.984 -39.650 713.638 Q -39.424 713.292 -39.266 713.128 Q -39.107 712.963 -38.897 712.708 Q -38.688 712.452 -38.727 712.518 Q -38.767 712.583 -38.649 712.370 Q -38.532 712.158 -38.228 711.720 Q -37.923 711.281 -37.661 711.046 Q -37.398 710.810 -37.376 710.779 Q -37.353 710.748 -37.347 710.746 Q -37.341 710.745 -37.363 710.756 Q -37.385 710.767 -37.271 710.674 Q -37.157 710.581 -36.882 710.324 Q -36.608 710.067 -36.603 710.067 Q -36.599 710.067 -36.351 709.704 Q -36.103 709.340 -36.207 709.522 Q -36.311 709.704 -35.968 708.862 Q -35.625 708.020 -35.459 707.660 Q -35.293 707.301 -34.995 706.920 Q -34.698 706.540 -34.589 706.396 Q -34.480 706.251 -34.400 706.046 Q -34.320 705.842 -34.204 705.544 Q -34.088 705.247 -34.008 705.047 Q -33.929 704.846 -33.960 704.894 Q -33.992 704.942 -33.747 704.326 Q -33.502 703.709 -32.632 701.713 Q -31.763 699.716 -31.345 698.748 Q -30.927 697.780 -30.709 697.379 Q -30.492 696.978 -30.251 696.429 Q -30.010 695.881 -30.002 695.861 Q -29.995 695.840 -29.592 694.879 Q -29.190 693.919 -28.760 693.072 Q -28.330 692.225 -28.192 691.938 Q -28.054 691.651 -27.718 691.143 Q -27.383 690.636 -27.247 690.328 Q -27.112 690.020 -27.175 690.200 Q -27.238 690.381 -26.874 689.449 Q -26.511 688.518 -26.255 687.786 Q -25.999 687.053 -25.533 686.178 Q -25.066 685.304 -24.787 684.694 Q -24.507 684.084 -24.363 683.687 Q -24.218 683.290 -24.130 683.079 Q -24.042 682.867 -23.953 682.585 Q -23.864 682.303 -23.883 682.360 Q -23.902 682.418 -23.768 682.007 Q -23.634 681.595 -22.909 680.425 Q -22.183 679.255 -21.770 678.433 Q -21.357 677.610 -21.254 677.329 Q -21.152 677.047 -20.981 676.714 Q -20.811 676.381 -20.769 676.269 Q -20.728 676.157 -20.717 676.169 Q -20.707 676.181 -20.468 675.654 Q -20.228 675.127 -20.000 674.447 Q -19.772 673.767 -19.613 673.370 Q -19.453 672.973 -19.335 672.656 Q -19.217 672.338 -19.212 672.340 Q -19.206 672.341 -19.219 672.445 Q -19.232 672.549 -18.327 670.233 Q -17.421 667.917 -16.967 666.696 Q -16.512 665.475 -16.310 664.771 Q -16.107 664.068 -15.928 663.359 Q -15.749 662.650 -15.623 662.233 Q -15.497 661.816 -15.390 661.475 Q -15.283 661.134 -15.335 661.296 Q -15.388 661.458 -15.291 660.461 Q -15.195 659.463 -14.779 658.210 Q -14.362 656.956 -14.089 656.361 Q -13.816 655.766 -13.688 655.502 Q -13.561 655.238 -13.396 654.823 Q -13.231 654.409 -13.255 654.470 Q -13.278 654.532 -13.280 654.535 Q -13.283 654.537 -12.810 653.585 Q -12.337 652.632 -11.990 651.694 Q -11.644 650.756 -11.389 649.824 Q -11.134 648.891 -11.077 648.519 Q -11.020 648.147 -9.832 645.601 "></path>
    <path id="STROKE_c9aa02c4-7ad7-41bd-bc62-8307267a55e0" opacity="1.000" fill="none" stroke="#000000" stroke-width="1.600" stroke-opacity="1.000" stroke-linecap="round" stroke-linejoin="round" d="M -9.495 640.112 Q -10.085 641.539 -7.175 634.249 "></path>
    <path id="STROKE_f305855c-eaf8-4b74-91ce-95d7ddc2e5d6" opacity="1.000" fill="none" stroke="#000000" stroke-width="1.600" stroke-opacity="1.000" stroke-linecap="round" stroke-linejoin="round" d="M -4.546 621.228 Q -4.656 621.128 -3.731 619.137 Q -2.806 617.146 -1.594 613.560 "></path>
    <path id="STROKE_3919f234-d70e-41af-924d-5af20fa8dfdf" opacity="1.000" fill="none" stroke="#000000" stroke-width="1.600" stroke-opacity="1.000" stroke-linecap="round" stroke-linejoin="round" d="M -0.791 604.806 Q -0.563 604.396 -0.580 604.364 Q -0.196 603.461 -0.232 603.589 Q 0.122 602.792 0.351 602.147 Q 0.580 601.501 0.898 600.226 "></path>
    <path id="STROKE_4672099c-6303-47fc-a471-dc7f3c0cdbdd" opacity="1.000" fill="none" stroke="#000000" stroke-width="1.600" stroke-opacity="1.000" stroke-linecap="round" stroke-linejoin="round" d="M 3.635 586.268 Q 3.530 586.820 4.012 584.806 Q 4.494 582.792 4.798 581.448 Q 5.102 580.104 5.265 579.046 "></path>
    <path id="STROKE_3bba620e-2092-482c-acf6-52f4e1ee16d8" opacity="1.000" fill="none" stroke="#000000" stroke-width="1.600" stroke-opacity="1.000" stroke-linecap="round" stroke-linejoin="round" d="M 6.968 571.061 Q 6.561 571.397 8.343 566.722 "></path>
    <path id="STROKE_456007b5-6c42-40e0-9636-b5ebe1cc33b8" opacity="1.000" fill="none" stroke="#000000" stroke-width="1.600" stroke-opacity="1.000" stroke-linecap="round" stroke-linejoin="round" d="M 9.240 560.262 Q 8.743 561.049 10.684 555.855 "></path>
    <path id="STROKE_7277ddce-968b-41fc-a513-69a8b1e5f508" opacity="1.000" fill="none" stroke="#000000" stroke-width="1.600" stroke-opacity="1.000" stroke-linecap="round" stroke-linejoin="round" d="M 12.565 547.036 Q 12.217 547.809 13.938 542.907 "></path>
    <path id="STROKE_dec205f5-7b19-464c-9df2-7098ddf40de9" opacity="1.000" fill="none" stroke="#000000" stroke-width="1.600" stroke-opacity="1.000" stroke-linecap="round" stroke-linejoin="round" d="M 14.886 532.867 Q 14.940 532.366 14.926 532.412 Q 14.928 531.772 14.922 531.846 Q 14.802 531.875 15.560 529.812 "></path>
    <path id="STROKE_f8e5f48a-8def-4cc3-8905-f298e27f6862" opacity="1.000" fill="none" stroke="#000000" stroke-width="1.600" stroke-opacity="1.000" stroke-linecap="round" stroke-linejoin="round" d="M 17.127 521.026 L 17.310 520.563 Q 17.598 520.258 18.491 516.183 L 18.504 516.167 "></path>
    <path id="STROKE_37c60d0f-bcff-433f-bcd6-a7e491b29b88" opacity="1.000" fill="none" stroke="#000000" stroke-width="1.600" stroke-opacity="1.000" stroke-linecap="round" stroke-linejoin="round" d="M -120.344 622.040 L -120.240 621.961 Q -120.232 621.966 -120.156 622.016 Q -120.220 622.437 -119.753 620.171 L -119.781 620.339 "></path>
    <path id="STROKE_6ef84986-da85-45c8-8a3d-270a1ade1c2c" opacity="1.000" fill="none" stroke="#000000" stroke-width="1.600" stroke-opacity="1.000" stroke-linecap="round" stroke-linejoin="round" d="M -120.341 621.240 Q -120.568 621.080 -118.161 615.377 "></path>
    <path id="STROKE_436272fe-3b82-4f41-aa61-3661b8930407" opacity="1.000" fill="none" stroke="#000000" stroke-width="1.600" stroke-opacity="1.000" stroke-linecap="round" stroke-linejoin="round" d="M -114.119 605.212 Q -113.796 604.429 -113.867 604.664 Q -113.650 604.551 -112.331 601.571 "></path>
    <path id="STROKE_ad868efc-1468-4dae-ac87-ef28ef555b16" opacity="1.000" fill="none" stroke="#000000" stroke-width="1.600" stroke-opacity="1.000" stroke-linecap="round" stroke-linejoin="round" d="M -93.479 550.393 Q -93.364 549.548 -93.384 549.685 Q -93.475 549.593 -92.213 546.993 "></path>
    <path id="STROKE_53905393-4026-4d3f-a1bb-caa5fffadd37" opacity="1.000" fill="none" stroke="#000000" stroke-width="1.600" stroke-opacity="1.000" stroke-linecap="round" stroke-linejoin="round" d="M -89.712 539.393 Q -90.261 539.985 -88.025 535.022 "></path>
    <path id="STROKE_f88c792e-6a11-470c-b64a-dc1608e503c2" opacity="1.000" fill="none" stroke="#000000" stroke-width="1.600" stroke-opacity="1.000" stroke-linecap="round" stroke-linejoin="round" d="M -85.567 529.333 Q -85.621 528.417 -85.602 528.676 Q -85.669 528.706 -83.034 522.324 "></path>
    <path id="STROKE_4842a295-79ab-4aeb-b9d7-f8d15a3af7b2" opacity="1.000" fill="none" stroke="#000000" stroke-width="1.600" stroke-opacity="1.000" stroke-linecap="round" stroke-linejoin="round" d="M -81.906 518.680 Q -81.731 517.957 -81.772 518.122 Q -81.652 517.751 -80.952 515.139 "></path>
    <path id="STROKE_bc77fdec-cef7-42b4-907f-5ef18deed31f" opacity="1.000" fill="none" stroke="#000000" stroke-width="1.600" stroke-opacity="1.000" stroke-linecap="round" stroke-linejoin="round" d="M -105.960 622.659 Q -105.958 622.729 -105.948 622.851 Q -105.950 622.854 -105.964 622.893 Q -105.978 622.932 -105.981 622.933 Q -106.130 622.943 -106.682 621.022 "></path>
    <path id="STROKE_c98de607-1c68-450e-b670-303a5e412307" opacity="1.000" fill="none" stroke="#000000" stroke-width="1.600" stroke-opacity="1.000" stroke-linecap="round" stroke-linejoin="round" d="M -107.672 616.848 L -108.144 616.945 Q -107.979 617.167 -108.428 614.933 "></path>
    <path id="STROKE_6941b5ad-96c5-4987-b578-2f922e5b6bf7" opacity="1.000" fill="none" stroke="#000000" stroke-width="1.600" stroke-opacity="1.000" stroke-linecap="round" stroke-linejoin="round" d="M -109.419 611.002 Q -109.778 610.545 -109.689 610.620 Q -109.598 609.620 -110.622 608.008 "></path>
    <path id="STROKE_2a94427c-8e80-4bcf-8d35-c808106a5f73" opacity="1.000" fill="none" stroke="#000000" stroke-width="1.600" stroke-opacity="1.000" stroke-linecap="round" stroke-linejoin="round" d="M -110.268 606.654 Q -110.915 606.388 -110.727 606.436 Q -110.982 605.650 -110.899 605.796 L -110.891 605.209 Q -110.909 605.106 -110.990 604.913 "></path>
    <path id="STROKE_bbcffb67-be9c-48b9-83b4-7e0193d2f6de" opacity="1.000" fill="none" stroke="#000000" stroke-width="1.600" stroke-opacity="1.000" stroke-linecap="round" stroke-linejoin="round" d="M -111.664 600.045 Q -111.942 599.847 -111.918 599.831 Q -111.899 599.224 -111.889 599.244 Q -111.855 598.634 -111.845 598.641 Q -111.659 598.046 -112.204 596.463 "></path>
    <path id="STROKE_99547767-bada-4db7-838d-77905d99cb04" opacity="1.000" fill="none" stroke="#000000" stroke-width="1.600" stroke-opacity="1.000" stroke-linecap="round" stroke-linejoin="round" d="M -120.708 555.160 Q -120.792 553.349 -120.904 551.593 "></path>
    <path id="STROKE_56ef887e-5073-44ac-86df-520546234010" opacity="1.000" fill="none" stroke="#000000" stroke-width="1.600" stroke-opacity="1.000" stroke-linecap="round" stroke-linejoin="round" d="M -121.788 547.211 Q -121.855 547.132 -121.814 547.229 Q -121.772 547.325 -121.945 547.024 Q -122.117 546.722 -122.279 546.395 Q -122.441 546.068 -122.445 546.068 Q -122.450 546.068 -122.541 545.396 Q -122.633 544.725 -123.301 543.555 "></path>
    <path id="STROKE_37bcca03-b1f9-4f1f-9088-b5753ae53cda" opacity="1.000" fill="none" stroke="#000000" stroke-width="1.600" stroke-opacity="1.000" stroke-linecap="round" stroke-linejoin="round" d="M -124.387 537.503 Q -124.566 537.177 -124.564 537.151 Q -124.746 536.515 -125.033 534.303 "></path>
    <path id="STROKE_0dcae35b-4e3f-4784-a2db-6cc9df5e7275" opacity="1.000" fill="none" stroke="#000000" stroke-width="1.600" stroke-opacity="1.000" stroke-linecap="round" stroke-linejoin="round" d="M -126.246 525.644 Q -126.581 525.161 -126.529 525.230 Q -126.900 524.774 -127.271 521.782 "></path>
    <path id="STROKE_873c4970-a870-44ef-9604-9b77c2140fdd" opacity="1.000" fill="none" stroke="#000000" stroke-width="1.600" stroke-opacity="1.000" stroke-linecap="round" stroke-linejoin="round" d="M -128.038 514.342 Q -128.311 513.809 -128.240 513.921 Q -128.340 512.969 -128.316 513.094 Q -128.292 513.218 -128.296 513.154 Q -128.299 513.090 -128.248 512.954 Q -128.197 512.818 -128.204 512.638 "></path>
    <path id="STROKE_33f01d8f-667c-43ce-b1ca-5e483feb6b97" opacity="1.000" fill="none" stroke="#000000" stroke-width="1.600" stroke-opacity="1.000" stroke-linecap="round" stroke-linejoin="round" d="M -15.486 690.790 Q -15.585 691.045 -15.779 691.841 Q -15.682 691.815 -14.541 688.057 Q -14.992 688.266 -15.722 689.190 "></path>
    <circle id="STROKE_eb9944ca-075a-4b37-a14a-0eb9bd914c42" opacity="1.000" fill="#000000" stroke="#000000" stroke-width="0.1" stroke-opacity="1.000" fill-opacity="1.000" cx="-17.193" cy="691.790" r="0.800"></circle>
    <path id="STROKE_8139feec-0c0e-48fb-9ffa-24ff2bc0bfd4" opacity="1.000" fill="none" stroke="#000000" stroke-width="1.600" stroke-opacity="1.000" stroke-linecap="round" stroke-linejoin="round" d="M -13.938 686.418 L -14.000 686.446 Q -14.278 686.906 -14.275 686.915 Q -14.326 687.151 -18.650 695.470 Q -18.377 695.065 -16.631 692.106 Q -14.885 689.146 -13.978 687.641 Q -13.071 686.136 -12.722 685.436 Q -12.373 684.736 -11.406 684.507 Q -11.193 685.193 -11.239 685.143 Q -11.460 685.583 -10.786 687.479 Q -10.111 689.375 -8.875 691.030 Q -7.638 692.684 -6.955 693.732 Q -6.273 694.779 -5.811 695.594 "></path>
    <path id="STROKE_3b7cf371-6073-417e-b530-5cd51e65c979" opacity="1.000" fill="none" stroke="#000000" stroke-width="1.600" stroke-opacity="1.000" stroke-linecap="round" stroke-linejoin="round" d="M -12.450 687.919 Q -12.329 688.429 -11.994 690.819 Q -11.659 693.210 -11.621 696.003 Q -11.582 698.796 -11.538 700.409 Q -11.493 702.021 -11.794 705.616 Q -12.095 709.211 -12.158 711.852 Q -12.220 714.494 -12.069 717.059 Q -11.918 719.623 -13.302 723.537 "></path>
    <path id="STROKE_f539613f-e490-4972-b672-e754045481ce" opacity="1.000" fill="none" stroke="#000000" stroke-width="1.600" stroke-opacity="1.000" stroke-linecap="round" stroke-linejoin="round" d="M -18.700 718.230 Q -19.165 718.974 -19.012 718.799 Q -19.036 719.000 -18.870 720.399 Q -18.704 721.798 -15.963 725.429 Q -14.736 724.830 -12.809 722.230 Q -10.881 719.631 -6.838 715.746 "></path>
    <path id="STROKE_a059f431-7bc7-4cae-94e9-3dc7c8abe056" opacity="1.000" fill="none" stroke="#000000" stroke-width="1.600" stroke-opacity="1.000" stroke-linecap="round" stroke-linejoin="round" d="M 4.701 699.602 Q 4.665 699.207 4.041 700.307 Q 3.418 701.407 3.022 702.110 Q 2.626 702.814 2.056 703.799 Q 1.486 704.784 0.971 705.774 Q 0.456 706.763 -0.376 708.010 Q -1.208 709.256 -2.773 711.178 Q -2.391 711.191 -2.261 711.124 Q -2.130 711.057 -2.013 711.018 Q -1.897 710.978 -2.026 710.982 Q -2.156 710.986 0.926 710.178 Q 4.007 709.370 7.183 707.730 Q 8.199 708.497 2.681 700.670 "></path>
    <path id="STROKE_326365fc-b5e9-4fa2-8816-7aa487c2ca40" opacity="1.000" fill="none" stroke="#000000" stroke-width="1.600" stroke-opacity="1.000" stroke-linecap="round" stroke-linejoin="round" d="M 14.057 697.801 Q 13.892 698.600 13.904 698.511 Q 13.453 699.383 11.472 713.226 Q 10.997 713.478 13.939 712.169 Q 16.880 710.859 18.462 710.382 Q 20.045 709.906 20.847 709.592 Q 21.649 709.279 22.141 708.885 Q 22.632 708.492 21.798 707.635 "></path>
    <path id="STROKE_6956b390-2d36-45f9-a039-984695051640" opacity="1.000" fill="none" stroke="#000000" stroke-width="1.600" stroke-opacity="1.000" stroke-linecap="round" stroke-linejoin="round" d="M 12.535 704.084 Q 13.505 703.598 21.451 701.626 Q 21.367 701.802 19.495 701.856 "></path>
    <path id="STROKE_f182e100-55c6-458f-a926-62d47d83506b" opacity="1.000" fill="none" stroke="#000000" stroke-width="1.600" stroke-opacity="1.000" stroke-linecap="round" stroke-linejoin="round" d="M 14.126 697.975 Q 14.461 697.689 14.251 697.801 Q 14.041 697.912 15.165 696.737 Q 16.289 695.562 20.784 693.243 "></path>
    <path id="STROKE_c44774e7-ccff-4e43-af52-434846c03dce" opacity="1.000" fill="none" stroke="#000000" stroke-width="1.600" stroke-opacity="1.000" stroke-linecap="round" stroke-linejoin="round" d="M -115.745 627.273 Q -115.775 627.252 -115.810 627.302 Q -115.870 627.358 -116.049 627.716 Q -116.227 628.075 -116.170 627.925 Q -116.112 627.774 -116.415 628.632 Q -116.718 629.489 -119.044 634.244 Q -118.710 633.474 -118.709 633.478 Q -118.814 633.333 -115.157 627.985 Q -114.818 628.386 -114.797 628.360 Q -114.358 628.640 -114.387 628.624 Q -114.250 628.494 -113.745 630.189 Q -113.240 631.884 -112.825 632.772 Q -112.410 633.661 -112.052 634.123 Q -111.694 634.585 -111.399 634.694 "></path>
    <path id="STROKE_96e1eb56-5840-46e2-92ae-96ab18f5c167" opacity="1.000" fill="none" stroke="#000000" stroke-width="1.600" stroke-opacity="1.000" stroke-linecap="round" stroke-linejoin="round" d="M -115.622 630.888 L -115.658 630.894 Q -115.586 630.868 -115.862 631.201 Q -116.137 631.534 -116.495 633.406 Q -116.853 635.278 -116.956 638.150 Q -117.058 641.022 -117.518 643.634 Q -117.977 646.247 -118.201 647.565 Q -118.425 648.884 -118.300 649.140 Q -118.175 649.397 -118.274 651.685 Q -118.373 653.974 -118.619 655.217 Q -118.864 656.460 -119.140 657.784 Q -119.416 659.108 -119.519 661.137 Q -119.621 663.167 -119.667 664.158 Q -119.714 665.149 -119.802 666.101 Q -119.890 667.053 -119.950 667.918 Q -120.010 668.783 -120.053 669.616 Q -120.097 670.450 -120.104 670.498 Q -120.112 670.546 -120.147 670.939 Q -120.182 671.333 -120.066 672.743 Q -119.951 674.154 -120.035 675.635 Q -120.120 677.117 -120.256 677.670 Q -120.393 678.223 -120.389 678.907 Q -120.386 679.591 -120.008 681.156 Q -119.987 681.140 -119.942 680.704 "></path>
    <path id="STROKE_96e4b6bc-65b2-4c6c-8173-5ef43f9014eb" opacity="1.000" fill="none" stroke="#000000" stroke-width="1.600" stroke-opacity="1.000" stroke-linecap="round" stroke-linejoin="round" d="M -123.714 677.108 Q -123.228 677.611 -123.152 677.765 Q -123.077 677.919 -123.052 678.011 Q -123.027 678.103 -123.132 677.818 Q -123.236 677.534 -121.920 682.825 Q -121.650 682.714 -117.007 677.207 "></path>
    <path id="STROKE_c4040a29-4e2f-47d7-bebd-335aa50b23a6" opacity="1.000" fill="none" stroke="#000000" stroke-width="1.600" stroke-opacity="1.000" stroke-linecap="round" stroke-linejoin="round" d="M -114.182 658.974 L -114.131 659.496 Q -114.061 660.037 -114.028 660.634 Q -113.995 661.232 -113.847 663.091 Q -113.698 664.951 -113.598 666.073 Q -113.498 667.196 -113.299 668.025 Q -113.099 668.855 -112.883 669.133 Q -112.667 669.412 -112.623 669.448 Q -112.579 669.483 -112.593 669.474 Q -112.607 669.465 -112.215 669.448 Q -111.824 669.431 -108.763 667.408 "></path>
    <path id="STROKE_334f535f-ba54-4d2a-b185-d5d36d3d454e" opacity="1.000" fill="none" stroke="#000000" stroke-width="1.600" stroke-opacity="1.000" stroke-linecap="round" stroke-linejoin="round" d="M -113.722 665.093 Q -112.668 664.480 -112.905 664.628 Q -112.258 664.393 -110.294 663.051 Q -110.354 662.836 -110.930 662.325 "></path>
    <path id="STROKE_f95022f1-12ce-4e75-950a-3260352cf2a8" opacity="1.000" fill="none" stroke="#000000" stroke-width="1.600" stroke-opacity="1.000" stroke-linecap="round" stroke-linejoin="round" d="M -114.149 659.322 Q -114.077 658.948 -114.054 658.949 Q -114.065 658.380 -108.919 655.592 "></path>
    <path id="STROKE_e6f40d7d-cbff-411e-8152-585b20bd4f1a" opacity="1.000" fill="none" stroke="#000000" stroke-width="1.600" stroke-opacity="1.000" stroke-linecap="round" stroke-linejoin="round" d="M -107.104 669.501 Q -107.097 670.364 -107.084 670.145 Q -107.176 670.299 -106.900 670.623 Q -106.623 670.948 -106.130 671.260 Q -105.636 671.573 -105.033 671.202 Q -104.430 670.831 -104.185 670.637 Q -103.941 670.442 -103.719 670.215 Q -103.498 669.988 -103.560 670.010 Q -103.622 670.032 -103.521 669.991 Q -103.421 669.950 -102.481 668.751 Q -101.540 667.552 -102.150 666.378 Q -102.760 665.205 -103.527 664.520 Q -104.294 663.836 -105.084 663.686 Q -105.874 663.536 -106.176 663.580 Q -106.477 663.624 -107.134 664.428 Q -107.791 665.232 -107.514 667.970 "></path>
    <path id="STROKE_87060d63-111a-4b68-8de3-818af8d55ac8" opacity="1.000" fill="none" stroke="#000000" stroke-width="1.600" stroke-opacity="1.000" stroke-linecap="round" stroke-linejoin="round" d="M -102.604 665.628 Q -102.830 666.471 -102.753 666.292 Q -102.748 666.742 -101.866 667.532 Q -100.985 668.322 -100.208 668.747 Q -99.431 669.172 -98.210 668.872 Q -96.988 668.572 -95.906 667.673 "></path>
    <path id="STROKE_44b3a7bc-75e6-49dc-8679-64c3f31b026d" opacity="1.000" fill="none" stroke="#000000" stroke-width="1.600" stroke-opacity="1.000" stroke-linecap="round" stroke-linejoin="round" d="M -295.903 766.691 L -40.290 767.814 "></path>
    <path id="STROKE_e81a4e1f-bf14-48ba-a77f-40b26452a036" opacity="1.000" fill="none" stroke="#000000" stroke-width="1.600" stroke-opacity="1.000" stroke-linecap="round" stroke-linejoin="round" d="M -39.004 767.819 L 60.314 768.255 L 60.314 768.255 "></path>
    <path id="STROKE_654ae047-9e2a-40b9-84ea-39b4dd062946" opacity="1.000" fill="none" stroke="#000000" stroke-width="1.600" stroke-opacity="1.000" stroke-linecap="round" stroke-linejoin="round" d="M -295.237 499.880 L -295.307 499.861 Q -295.473 499.939 -296.040 501.120 Q -296.608 502.301 -301.246 509.475 Q -301.791 509.247 -292.248 495.512 Q -292.099 495.237 -292.389 495.910 Q -292.680 496.584 -292.739 497.867 Q -292.799 499.150 -291.832 500.828 Q -290.865 502.506 -289.478 503.691 Q -288.091 504.876 -286.576 505.999 "></path>
    <path id="STROKE_ef2cd372-8828-430e-a342-a02065cd96b3" opacity="1.000" fill="none" stroke="#000000" stroke-width="1.600" stroke-opacity="1.000" stroke-linecap="round" stroke-linejoin="round" d="M 57.839 762.320 L 57.853 762.348 Q 58.863 763.008 60.970 764.067 Q 63.077 765.125 64.847 765.744 Q 66.616 766.362 67.392 766.596 Q 68.168 766.831 68.428 767.098 Q 68.689 767.365 68.752 767.490 Q 68.814 767.615 68.713 767.773 Q 68.612 767.931 68.381 768.202 Q 68.150 768.474 68.283 768.412 Q 68.416 768.350 66.744 769.105 Q 65.071 769.861 60.988 773.351 "></path>
    <path id="STROKE_2337eebc-d510-4b2f-a88a-28eb236e6eb6" opacity="1.000" fill="none" stroke="#000000" stroke-width="1.600" stroke-opacity="1.000" stroke-linecap="round" stroke-linejoin="round" d="M -334.045 624.055 Q -334.115 624.041 -334.431 624.002 Q -334.484 623.918 -335.370 627.981 Q -336.256 632.044 -335.977 636.522 Q -335.697 641.000 -335.306 643.221 Q -334.916 645.442 -334.540 646.691 Q -334.165 647.940 -333.812 648.602 Q -333.460 649.263 -332.820 649.931 Q -332.180 650.600 -321.538 640.722 "></path>
    <path id="STROKE_58a55044-38cf-4ccb-b81b-a28ef575308d" opacity="1.000" fill="none" stroke="#000000" stroke-width="1.600" stroke-opacity="1.000" stroke-linecap="round" stroke-linejoin="round" d="M -332.388 634.627 Q -332.261 634.564 -331.974 634.488 Q -331.687 634.412 -330.386 634.083 Q -329.084 633.753 -323.681 630.252 "></path>
    <path id="STROKE_c9179124-83a4-481b-95ac-2023be1712ba" opacity="1.000" fill="none" stroke="#000000" stroke-width="1.600" stroke-opacity="1.000" stroke-linecap="round" stroke-linejoin="round" d="M -334.461 623.879 Q -334.419 623.880 -324.014 618.921 "></path>
    <path id="STROKE_3dcfeda4-b96e-45dc-8100-1464874b36b7" opacity="1.000" fill="none" stroke="#000000" stroke-width="1.600" stroke-opacity="1.000" stroke-linecap="round" stroke-linejoin="round" d="M -183.439 760.844 Q -183.610 761.013 -183.252 773.633 "></path>
    <path id="STROKE_12bd56c8-4401-44cf-b6ae-9ab87d672e63" opacity="1.000" fill="none" stroke="#000000" stroke-width="1.600" stroke-opacity="1.000" stroke-linecap="round" stroke-linejoin="round" d="M -119.259 762.446 Q -119.267 762.128 -119.341 773.289 "></path>
    <path id="STROKE_a6830069-d60f-48ed-ba5c-c5716d8c98a2" opacity="1.000" fill="none" stroke="#000000" stroke-width="1.600" stroke-opacity="1.000" stroke-linecap="round" stroke-linejoin="round" d="M -58.071 765.009 L -58.225 764.992 L -58.238 764.970 Q -58.496 764.777 -56.487 776.276 "></path>
    <path id="STROKE_93cafb7b-2a5b-4e52-b1ad-ece85d833284" opacity="1.000" fill="none" stroke="#000000" stroke-width="1.600" stroke-opacity="1.000" stroke-linecap="round" stroke-linejoin="round" d="M -217.467 611.917 Q -217.450 611.914 -217.088 611.782 Q -217.666 611.658 -220.831 622.741 Q -220.808 622.750 -218.987 617.889 Q -217.166 613.029 -215.347 608.001 Q -215.283 608.116 -215.144 608.342 Q -215.005 608.568 -214.809 608.830 Q -214.613 609.091 -214.596 609.081 Q -214.580 609.071 -214.561 608.980 Q -214.542 608.889 -213.847 609.603 Q -213.153 610.318 -212.883 610.860 Q -212.613 611.402 -212.485 611.836 Q -212.356 612.270 -211.235 614.932 Q -210.114 617.593 -205.733 622.533 "></path>
    <path id="STROKE_357b25a9-fd1b-4fa0-a08a-55c7de6367b9" opacity="1.000" fill="none" stroke="#000000" stroke-width="1.600" stroke-opacity="1.000" stroke-linecap="round" stroke-linejoin="round" d="M -217.603 618.971 L -217.673 618.937 Q -218.033 618.768 -210.787 618.132 "></path>
    <path id="STROKE_6ef95486-58a5-41b6-8a5a-f833a1f7a720" opacity="1.000" fill="none" stroke="#000000" stroke-width="1.600" stroke-opacity="1.000" stroke-linecap="round" stroke-linejoin="round" d="M -194.872 610.522 Q -194.913 610.457 -195.028 610.373 Q -195.751 610.931 -195.038 624.561 "></path>
    <path id="STROKE_a4493307-7e9c-4dad-8652-ef51514a9e64" opacity="1.000" fill="none" stroke="#000000" stroke-width="1.600" stroke-opacity="1.000" stroke-linecap="round" stroke-linejoin="round" d="M -195.851 611.734 Q -196.376 611.260 -196.064 610.664 Q -195.752 610.067 -194.953 609.491 Q -194.153 608.914 -192.903 608.302 Q -191.652 607.690 -190.656 607.729 Q -189.659 607.767 -189.244 608.034 Q -188.829 608.300 -188.581 609.420 Q -188.333 610.539 -189.606 612.438 Q -190.878 614.336 -192.938 615.187 L -192.958 615.175 Q -193.248 615.133 -192.192 615.214 Q -191.135 615.295 -190.099 616.345 Q -189.062 617.395 -188.683 618.263 Q -188.304 619.131 -188.245 619.738 Q -188.187 620.345 -188.578 620.998 Q -188.969 621.651 -189.482 621.995 Q -189.994 622.339 -194.647 622.443 "></path>
    <path id="STROKE_dc46f6ad-70cf-4afb-b6d9-7274cf3391d6" opacity="1.000" fill="none" stroke="#000000" stroke-width="1.600" stroke-opacity="1.000" stroke-linecap="round" stroke-linejoin="round" d="M -146.771 609.656 Q -147.769 609.762 -147.506 609.764 Q -147.977 609.933 -149.476 610.962 Q -150.975 611.992 -152.414 613.711 Q -153.852 615.430 -154.483 616.539 Q -155.115 617.648 -155.103 618.967 Q -155.091 620.285 -152.810 620.399 Q -150.528 620.513 -145.630 618.905 "></path>
    <path id="STROKE_47d66b91-4972-46e2-8ffd-13390a808e85" opacity="1.000" fill="none" stroke="#000000" stroke-width="1.600" stroke-opacity="1.000" stroke-linecap="round" stroke-linejoin="round" d="M -125.702 797.414 Q -125.813 797.586 -125.859 797.737 Q -125.906 797.888 -126.005 798.777 Q -126.103 799.666 -126.260 800.043 Q -126.417 800.420 -125.619 806.258 Q -125.174 806.284 -124.177 803.326 Q -123.179 800.368 -122.642 798.893 Q -122.106 797.418 -121.342 796.156 Q -120.578 794.894 -119.278 793.895 Q -117.978 792.896 -116.899 792.577 Q -115.819 792.258 -114.866 792.529 Q -113.913 792.799 -113.104 793.334 "></path>
    <path id="STROKE_47ac7a38-592e-4d76-bf5a-5bc2124ddc93" opacity="1.000" fill="none" stroke="#000000" stroke-width="1.600" stroke-opacity="1.000" stroke-linecap="round" stroke-linejoin="round" d="M -106.524 782.763 Q -106.493 782.852 -106.757 781.935 Q -107.290 781.547 -107.327 785.110 Q -107.363 788.674 -106.400 794.093 "></path>
    <path id="STROKE_3a09c85e-a6e6-4cbf-8669-0e3f2e7217c6" opacity="1.000" fill="none" stroke="#000000" stroke-width="1.600" stroke-opacity="1.000" stroke-linecap="round" stroke-linejoin="round" d="M -110.396 786.013 L -110.603 785.832 Q -110.458 785.791 -110.501 785.693 Q -110.543 785.594 -103.965 785.520 "></path>
    <path id="STROKE_b5894dd0-66fb-4619-8e91-14272cca5170" opacity="1.000" fill="none" stroke="#000000" stroke-width="1.600" stroke-opacity="1.000" stroke-linecap="round" stroke-linejoin="round" d="M -111.699 790.038 L -111.744 789.990 Q -111.984 790.024 -111.250 789.778 Q -110.515 789.533 -108.390 789.071 Q -106.265 788.609 -104.150 788.264 "></path>
    <path id="STROKE_de09036a-e3d9-4a24-b4eb-98b511fbebc6" opacity="1.000" fill="none" stroke="#000000" stroke-width="1.600" stroke-opacity="1.000" stroke-linecap="round" stroke-linejoin="round" d="M -190.755 796.607 Q -191.016 796.909 -190.878 800.613 Q -190.652 800.530 -190.510 800.257 Q -190.367 799.983 -190.356 799.950 Q -190.344 799.918 -190.267 799.821 Q -190.189 799.725 -189.720 797.690 Q -189.252 795.654 -188.669 793.938 Q -188.085 792.221 -186.476 791.015 Q -184.866 789.810 -182.282 789.213 "></path>
    <path id="STROKE_149e8f68-4088-451c-b182-72d944b3dc07" opacity="1.000" fill="none" stroke="#000000" stroke-width="1.600" stroke-opacity="1.000" stroke-linecap="round" stroke-linejoin="round" d="M -60.348 792.940 Q -60.459 793.483 -60.460 793.403 Q -60.700 793.318 -61.614 800.896 Q -62.620 800.192 -62.226 798.279 Q -61.831 796.366 -60.776 794.792 Q -59.721 793.218 -57.644 792.230 Q -55.567 791.241 -53.285 790.990 "></path>
    <path id="STROKE_99d79899-b92e-439b-b5ba-c7bcd4de63d4" opacity="1.000" fill="none" stroke="#000000" stroke-width="1.600" stroke-opacity="1.000" stroke-linecap="round" stroke-linejoin="round" d="M -177.503 801.982 Q -177.557 801.932 -177.709 801.800 Q -177.639 801.385 -178.405 803.620 Q -179.171 805.854 -179.399 807.121 Q -179.626 808.388 -179.602 809.074 Q -179.578 809.760 -179.208 810.315 "></path>
    <path id="STROKE_1b91354c-62b4-4fae-addd-fe1e1ad07241" opacity="1.000" fill="none" stroke="#000000" stroke-width="1.600" stroke-opacity="1.000" stroke-linecap="round" stroke-linejoin="round" d="M -53.618 803.500 Q -53.694 803.587 -53.687 803.560 Q -53.679 803.533 -53.668 803.520 Q -53.657 803.507 -53.471 803.230 Q -53.284 802.952 -53.044 802.734 Q -52.804 802.517 -52.740 802.555 Q -52.676 802.593 -52.161 802.295 Q -51.646 801.997 -50.665 802.251 Q -49.683 802.505 -49.243 802.898 Q -48.804 803.290 -48.488 803.768 Q -48.172 804.245 -47.901 804.904 Q -47.631 805.564 -48.936 806.994 Q -50.241 808.425 -51.512 809.285 Q -52.783 810.145 -53.484 811.425 Q -52.604 811.508 -52.600 811.427 Q -52.362 810.869 -45.381 811.251 "></path>
    <path id="STROKE_9bad99f7-caa0-404f-9356-e2915d224854" opacity="1.000" fill="none" stroke="#000000" stroke-width="1.600" stroke-opacity="1.000" stroke-linecap="round" stroke-linejoin="round" d="M -289.685 683.781 Q -289.738 683.788 -289.892 683.760 Q -289.532 683.946 -282.283 683.849 "></path>
    <path id="STROKE_3dcb5b49-b993-4a12-8b5d-749c1dc805c9" opacity="1.000" fill="none" stroke="#000000" stroke-width="1.600" stroke-opacity="1.000" stroke-linecap="round" stroke-linejoin="round" d="M -259.697 684.504 Q -259.150 684.426 -259.162 684.432 Q -258.505 684.386 -258.536 684.384 Q -257.688 684.224 -252.677 684.431 "></path>
    <path id="STROKE_524bbc53-e051-4398-9c2c-81523d1f070c" opacity="1.000" fill="none" stroke="#000000" stroke-width="1.600" stroke-opacity="1.000" stroke-linecap="round" stroke-linejoin="round" d="M -246.734 684.283 Q -246.858 683.936 -241.486 684.341 "></path>
    <path id="STROKE_6b2c6f9d-9634-42b9-846b-b45010a25ecf" opacity="1.000" fill="none" stroke="#000000" stroke-width="1.600" stroke-opacity="1.000" stroke-linecap="round" stroke-linejoin="round" d="M -230.294 683.764 Q -230.675 683.671 -222.579 683.798 "></path>
    <path id="STROKE_8bfcd137-526b-496f-b4d2-128d39bc8422" opacity="1.000" fill="none" stroke="#000000" stroke-width="1.600" stroke-opacity="1.000" stroke-linecap="round" stroke-linejoin="round" d="M -214.760 683.833 Q -214.296 683.683 -214.313 683.699 Q -214.159 683.650 -209.546 683.716 "></path>
    <path id="STROKE_f1256a8f-feb5-43f1-ab24-380f577bbd80" opacity="1.000" fill="none" stroke="#000000" stroke-width="1.600" stroke-opacity="1.000" stroke-linecap="round" stroke-linejoin="round" d="M -197.524 684.047 Q -197.059 683.896 -197.111 683.915 Q -197.392 683.854 -194.083 684.097 "></path>
    <path id="STROKE_c7b10509-d834-4878-a51c-986a0fc64c6c" opacity="1.000" fill="none" stroke="#000000" stroke-width="1.600" stroke-opacity="1.000" stroke-linecap="round" stroke-linejoin="round" d="M -182.789 684.043 Q -183.641 684.016 -177.297 683.893 "></path>
    <path id="STROKE_3a12713e-31a3-4e0f-a532-d4d7736f5c88" opacity="1.000" fill="none" stroke="#000000" stroke-width="1.600" stroke-opacity="1.000" stroke-linecap="round" stroke-linejoin="round" d="M -162.325 685.175 L -162.338 685.185 Q -162.664 684.961 -159.302 685.432 "></path>
    <path id="STROKE_945aa27d-7ef3-40ff-a9b8-e3affc86a561" opacity="1.000" fill="none" stroke="#000000" stroke-width="1.600" stroke-opacity="1.000" stroke-linecap="round" stroke-linejoin="round" d="M -152.212 685.289 L -152.217 685.315 Q -151.118 685.597 -151.471 685.505 Q -151.823 685.412 -149.017 685.685 "></path>
    <path id="STROKE_98fcbc3e-7434-45f8-b809-a7231e584739" opacity="1.000" fill="none" stroke="#000000" stroke-width="1.600" stroke-opacity="1.000" stroke-linecap="round" stroke-linejoin="round" d="M -143.109 685.642 Q -143.134 685.475 -140.189 685.550 "></path>
    <path id="STROKE_6ed1f084-133f-4304-b20e-23f6293f6d85" opacity="1.000" fill="none" stroke="#000000" stroke-width="1.600" stroke-opacity="1.000" stroke-linecap="round" stroke-linejoin="round" d="M -133.759 685.440 Q -134.285 685.394 -130.286 685.837 "></path>
    <path id="STROKE_8d21bb87-631a-406e-a3c9-742bce967bfe" opacity="1.000" fill="none" stroke="#000000" stroke-width="1.600" stroke-opacity="1.000" stroke-linecap="round" stroke-linejoin="round" d="M -122.879 684.862 L -122.847 684.870 Q -122.565 685.030 -119.683 685.119 "></path>
    <path id="STROKE_6f8b8448-8920-4ed9-9c2b-e7537cdf6d98" opacity="1.000" fill="none" stroke="#000000" stroke-width="1.600" stroke-opacity="1.000" stroke-linecap="round" stroke-linejoin="round" d="M -113.290 685.460 L -113.306 685.476 Q -113.564 685.443 -110.614 685.333 "></path>
    <path id="STROKE_a1b8bdde-35f3-40b7-a9e2-52d34cbf7a8c" opacity="1.000" fill="none" stroke="#000000" stroke-width="1.600" stroke-opacity="1.000" stroke-linecap="round" stroke-linejoin="round" d="M -99.838 684.755 Q -99.140 684.766 -99.133 684.773 Q -98.403 684.825 -96.780 684.768 "></path>
    <circle id="STROKE_60682560-a911-4eca-a3c2-c824bbf068c9" opacity="1.000" fill="#000000" stroke="#000000" stroke-width="0.1" stroke-opacity="1.000" fill-opacity="1.000" cx="-87.150" cy="683.941" r="0.800"></circle>
    <path id="STROKE_12c1891c-12b9-49d5-8d57-65a0325d7ee0" opacity="1.000" fill="none" stroke="#000000" stroke-width="1.600" stroke-opacity="1.000" stroke-linecap="round" stroke-linejoin="round" d="M -73.917 685.668 Q -74.133 685.583 -74.211 685.559 L -74.233 685.562 Q -75.293 685.532 -69.539 685.930 "></path>
    <path id="STROKE_934f89ed-4584-482a-b077-82e6af5b74d9" opacity="1.000" fill="none" stroke="#000000" stroke-width="1.600" stroke-opacity="1.000" stroke-linecap="round" stroke-linejoin="round" d="M -64.185 685.328 Q -63.248 685.371 -63.419 685.368 Q -62.580 685.446 -57.792 685.739 "></path>
    <path id="STROKE_44ba4bed-cb82-4765-8335-8d44aabb76f7" opacity="1.000" fill="none" stroke="#000000" stroke-width="1.600" stroke-opacity="1.000" stroke-linecap="round" stroke-linejoin="round" d="M -55.008 684.778 Q -55.209 684.625 -52.540 684.684 "></path>
    <path id="STROKE_1567ec6a-3690-471f-9f2d-efd634cd30c5" opacity="1.000" fill="none" stroke="#000000" stroke-width="1.600" stroke-opacity="1.000" stroke-linecap="round" stroke-linejoin="round" d="M -46.563 684.711 L -46.580 684.654 Q -47.034 684.505 -41.664 684.906 "></path>
    <path id="STROKE_c2b06920-00db-47d4-b875-fb328a14a5c0" opacity="1.000" fill="none" stroke="#000000" stroke-width="1.600" stroke-opacity="1.000" stroke-linecap="round" stroke-linejoin="round" d="M -33.216 684.178 Q -33.758 684.038 -30.124 684.505 "></path>
    <path id="STROKE_4febe50b-7f05-4e36-8c13-cb4087cde0ee" opacity="1.000" fill="none" stroke="#000000" stroke-width="1.600" stroke-opacity="1.000" stroke-linecap="round" stroke-linejoin="round" d="M -23.970 683.941 Q -24.624 683.859 -20.946 683.815 "></path>
    <path id="STROKE_9bd3b871-e7df-43e4-954d-f4905ef16183" opacity="1.000" fill="none" stroke="#000000" stroke-width="1.600" stroke-opacity="1.000" stroke-linecap="round" stroke-linejoin="round" d="M -15.731 683.282 L -15.297 683.285 Q -14.418 683.334 -14.549 683.342 Q -14.283 683.387 -13.438 683.327 "></path>
    <path id="STROKE_177b4488-0c4e-4639-a542-f2c4348e4d68" opacity="1.000" fill="none" stroke="#000000" stroke-width="1.600" stroke-opacity="1.000" stroke-linecap="round" stroke-linejoin="round" d="M -6.240 682.420 Q -6.437 682.366 -3.774 682.605 "></path>
    <circle id="STROKE_9d3c9f90-c425-425f-867e-f1b4c9b04268" opacity="1.000" fill="#000000" stroke="#000000" stroke-width="0.1" stroke-opacity="1.000" fill-opacity="1.000" cx="10.996" cy="682.635" r="0.800"></circle>
    <path id="STROKE_feaf03e9-948e-4d37-86de-2151378f1a19" opacity="1.000" fill="none" stroke="#000000" stroke-width="1.600" stroke-opacity="1.000" stroke-linecap="round" stroke-linejoin="round" d="M 10.264 683.118 Q 10.316 683.133 10.409 683.164 L 10.410 683.182 Q 9.170 683.436 14.749 682.721 "></path>
    <circle id="STROKE_58eff479-a494-4233-a352-0017e04d3e2c" opacity="1.000" fill="#000000" stroke="#000000" stroke-width="0.1" stroke-opacity="1.000" fill-opacity="1.000" cx="15.825" cy="683.004" r="0.800"></circle>
    <path id="STROKE_4deff725-8652-432b-9bb0-cb1361708a5f" opacity="1.000" fill="none" stroke="#000000" stroke-width="1.600" stroke-opacity="1.000" stroke-linecap="round" stroke-linejoin="round" d="M 1.331 683.531 Q 2.293 683.123 5.364 683.201 "></path>
    <path id="STROKE_6f8bf0e6-1a87-4de0-a55c-9614929bb045" opacity="1.000" fill="none" stroke="#000000" stroke-width="1.600" stroke-opacity="1.000" stroke-linecap="round" stroke-linejoin="round" d="M 27.915 683.856 Q 28.435 683.867 28.368 683.914 Q 27.830 684.398 34.134 684.161 "></path>
    <path id="STROKE_0a7e9b69-fcbb-41ee-ad3a-f97b0820e0e2" opacity="1.000" fill="none" stroke="#000000" stroke-width="1.600" stroke-opacity="1.000" stroke-linecap="round" stroke-linejoin="round" d="M 40.079 683.736 Q 40.516 683.623 40.757 683.585 Q 40.999 683.546 40.999 683.547 Q 40.998 683.547 40.992 683.530 Q 40.985 683.512 44.319 683.685 "></path>
    <path id="STROKE_ce6a5575-49b5-4a31-986a-91a1ff683ccc" opacity="1.000" fill="none" stroke="#000000" stroke-width="1.600" stroke-opacity="1.000" stroke-linecap="round" stroke-linejoin="round" d="M 50.055 683.119 L 50.042 683.092 Q 49.757 682.902 52.416 683.686 "></path>
    <path id="STROKE_9570a019-4747-44c5-982c-9c175c51b2ed" opacity="1.000" fill="none" stroke="#000000" stroke-width="1.600" stroke-opacity="1.000" stroke-linecap="round" stroke-linejoin="round" d="M -311.811 681.113 Q -312.423 681.124 -312.847 682.754 Q -313.271 684.384 -313.395 685.068 Q -313.518 685.753 -313.329 686.733 Q -313.141 687.712 -311.930 688.020 Q -310.720 688.327 -308.913 687.782 Q -307.106 687.236 -305.747 686.369 Q -304.387 685.503 -303.369 684.620 Q -302.351 683.738 -302.269 682.786 Q -302.188 681.833 -302.462 681.024 Q -302.737 680.214 -303.697 679.004 Q -304.658 677.794 -305.860 677.337 Q -307.062 676.880 -308.562 676.847 Q -310.062 676.813 -311.310 677.277 Q -312.559 677.742 -313.312 678.373 Q -314.065 679.004 -314.449 680.475 "></path>
    <path id="STROKE_858eb9de-6e99-4157-b2cf-134a9c95aff0" opacity="1.000" fill="none" stroke="#000000" stroke-width="1.600" stroke-opacity="1.000" stroke-linecap="round" stroke-linejoin="round" d="M -118.909 564.252 Q -119.404 563.624 -117.501 568.981 L -117.470 568.985 "></path>
    <path id="STROKE_7119a80b-23b2-4f9b-b025-ef8da32b5359" opacity="1.000" fill="none" stroke="#000000" stroke-width="1.600" stroke-opacity="1.000" stroke-linecap="round" stroke-linejoin="round" d="M -116.148 576.567 L -116.150 577.054 Q -116.107 577.849 -116.096 577.873 Q -116.084 577.897 -116.027 578.120 Q -115.971 578.343 -115.964 578.351 Q -115.958 578.360 -115.992 578.269 Q -116.027 578.179 -115.333 580.741 "></path>
    <path id="STROKE_a2812d09-79ce-46f3-be5d-528ba5b5d535" opacity="1.000" fill="none" stroke="#000000" stroke-width="1.600" stroke-opacity="1.000" stroke-linecap="round" stroke-linejoin="round" d="M -113.750 584.327 Q -114.263 584.493 -113.580 588.097 Q -113.571 588.028 -113.038 588.535 "></path>
    <path id="STROKE_24c071ce-36c3-42a0-baed-31944ad9be67" opacity="1.000" fill="none" stroke="#000000" stroke-width="1.600" stroke-opacity="1.000" stroke-linecap="round" stroke-linejoin="round" d="M -106.479 582.656 L -106.807 582.965 L -106.807 582.970 Q -106.590 582.671 -105.777 580.956 "></path>
    <path id="STROKE_2d47d7cd-f9de-45e4-9a5e-a74b4961d840" opacity="1.000" fill="none" stroke="#000000" stroke-width="1.600" stroke-opacity="1.000" stroke-linecap="round" stroke-linejoin="round" d="M -101.358 571.870 Q -101.145 571.542 -101.150 571.540 Q -100.630 570.745 -100.858 571.025 Q -101.085 571.305 -99.191 569.030 "></path>
    <path id="STROKE_0e23be04-03f8-4b39-b3e3-0a6dce296545" opacity="1.000" fill="none" stroke="#000000" stroke-width="1.600" stroke-opacity="1.000" stroke-linecap="round" stroke-linejoin="round" d="M -96.789 560.144 Q -97.251 560.925 -93.748 556.230 "></path>
    <path id="STROKE_b50fc7be-1547-48e6-8f03-940086adadea" opacity="1.000" fill="none" stroke="#000000" stroke-width="1.600" stroke-opacity="1.000" stroke-linecap="round" stroke-linejoin="round" d="M -89.554 614.217 Q -89.698 614.764 -89.701 614.716 Q -89.993 613.528 -91.539 622.880 Q -91.144 622.491 -91.141 622.463 Q -90.541 621.885 -89.580 618.666 Q -88.618 615.446 -88.338 613.514 Q -88.059 611.582 -86.429 610.319 Q -86.002 609.926 -85.184 612.536 Q -84.365 615.146 -83.674 616.829 Q -82.982 618.513 -82.330 619.612 Q -81.677 620.712 -80.345 622.215 "></path>
    <path id="STROKE_9ada0aa8-0ff2-4df0-a79d-1a8c88a61c89" opacity="1.000" fill="none" stroke="#000000" stroke-width="1.600" stroke-opacity="1.000" stroke-linecap="round" stroke-linejoin="round" d="M -87.389 619.578 Q -87.460 619.549 -87.734 619.517 Q -86.964 619.860 -86.893 619.807 Q -86.579 619.815 -84.748 619.624 "></path>
    <path id="STROKE_83b164b2-6be6-4aa9-b496-73082ceee00d" opacity="1.000" fill="none" stroke="#000000" stroke-width="1.600" stroke-opacity="1.000" stroke-linecap="round" stroke-linejoin="round" d="M -45.079 615.872 L -45.016 615.770 Q -44.952 616.831 -44.993 616.601 Q -45.040 615.861 -45.211 618.434 Q -45.383 621.007 -45.395 622.769 Q -45.408 624.531 -45.539 625.774 "></path>
    <path id="STROKE_515b3b33-fceb-4956-b214-8c22926d25ff" opacity="1.000" fill="none" stroke="#000000" stroke-width="1.600" stroke-opacity="1.000" stroke-linecap="round" stroke-linejoin="round" d="M -45.769 614.722 Q -45.356 613.996 -45.428 614.229 Q -45.131 614.151 -44.171 614.003 Q -43.211 613.856 -42.327 613.957 Q -41.442 614.058 -41.084 614.609 Q -40.725 615.160 -40.900 615.918 Q -41.074 616.677 -41.332 617.057 Q -41.589 617.438 -41.624 617.503 Q -41.659 617.567 -41.793 617.709 Q -41.926 617.851 -42.410 618.158 Q -42.894 618.465 -42.928 618.452 L -43.419 618.595 L -43.426 618.607 Q -42.928 618.831 -42.953 618.809 Q -42.827 618.814 -42.038 619.377 Q -41.250 619.940 -40.673 620.687 Q -40.097 621.435 -40.370 622.201 Q -40.643 622.968 -40.852 623.273 Q -41.060 623.577 -41.261 623.727 Q -41.462 623.876 -41.856 624.059 Q -42.251 624.243 -42.297 624.213 Q -42.344 624.183 -42.442 624.231 Q -42.540 624.279 -43.118 623.837 Q -43.696 623.395 -44.310 622.721 "></path>
    <path id="STROKE_a8ff1f05-44d0-4dc1-8a56-cd530965a827" opacity="1.000" fill="none" stroke="#000000" stroke-width="1.600" stroke-opacity="1.000" stroke-linecap="round" stroke-linejoin="round" d="M -23.946 615.026 Q -24.873 615.594 -26.599 617.289 Q -28.325 618.984 -29.016 620.105 Q -29.707 621.227 -29.896 622.053 Q -30.085 622.880 -30.119 623.154 Q -30.152 623.428 -29.847 623.828 Q -29.543 624.228 -28.977 624.458 Q -28.410 624.687 -27.794 624.666 Q -27.177 624.645 -26.906 624.644 Q -26.636 624.642 -25.837 624.484 Q -25.038 624.326 -22.732 623.511 "></path>
    <path id="STROKE_bbaded12-856f-43f2-9c93-bc3bf6f9d0e9" opacity="1.000" fill="none" stroke="#000000" stroke-width="1.600" stroke-opacity="1.000" stroke-linecap="round" stroke-linejoin="round" d="M -316.442 619.823 Q -316.631 619.515 -317.532 623.395 Q -318.433 627.274 -318.796 629.465 Q -319.160 631.656 -319.227 633.758 Q -319.294 635.860 -319.081 637.346 Q -318.869 638.832 -318.146 639.990 Q -317.424 641.148 -316.740 641.616 Q -316.057 642.084 -314.862 642.701 Q -313.667 643.317 -309.065 641.402 "></path>
    <path id="STROKE_c2b17433-22ac-41a4-878e-5e229f0511e7" opacity="1.000" fill="none" stroke="#000000" stroke-width="1.600" stroke-opacity="1.000" stroke-linecap="round" stroke-linejoin="round" d="M -310.878 627.041 Q -311.300 628.212 -310.407 633.870 Q -310.327 633.872 -310.844 632.104 Q -311.361 630.337 -310.934 628.266 Q -310.507 626.195 -309.696 624.350 Q -308.884 622.504 -305.949 620.356 "></path>
    <path id="STROKE_6fcc834f-7f56-4666-9c04-8cc2deb2b0b1" opacity="1.000" fill="none" stroke="#000000" stroke-width="1.600" stroke-opacity="1.000" stroke-linecap="round" stroke-linejoin="round" d="M -305.082 612.818 Q -305.101 612.784 -305.204 612.644 Q -305.156 612.842 -303.378 614.512 Q -301.600 616.182 -300.358 618.594 Q -299.117 621.007 -298.508 623.026 Q -297.899 625.045 -297.871 627.761 Q -297.843 630.477 -299.269 634.495 "></path>
    <path id="STROKE_3c600b20-ee2e-43d2-91d1-f63c47da8bfa" opacity="1.000" fill="none" stroke="#5a6edc" stroke-width="1.600" stroke-opacity="1.000" stroke-linecap="round" stroke-linejoin="round" d="M -209.649 630.593 Q -210.022 630.399 -209.950 630.438 Q -209.767 630.529 -210.838 630.108 Q -211.909 629.687 -213.134 629.677 Q -214.358 629.667 -215.447 630.000 Q -216.537 630.333 -217.504 630.934 Q -218.471 631.534 -219.243 632.529 Q -220.015 633.524 -220.286 634.200 Q -220.557 634.875 -220.750 635.607 Q -220.943 636.338 -220.959 637.481 Q -220.976 638.624 -220.543 639.778 Q -220.109 640.933 -219.684 641.573 Q -219.258 642.214 -218.576 642.880 Q -217.893 643.547 -216.916 644.077 Q -215.939 644.608 -214.853 644.868 Q -213.767 645.129 -212.655 644.974 Q -211.543 644.819 -210.880 644.612 Q -210.217 644.404 -209.334 643.898 Q -208.451 643.393 -207.595 642.489 Q -206.739 641.585 -206.326 640.509 Q -205.913 639.434 -205.781 638.856 Q -205.648 638.279 -205.644 637.189 Q -205.641 636.099 -206.003 634.967 Q -206.366 633.835 -207.000 632.957 Q -207.634 632.079 -208.412 631.444 Q -209.191 630.810 -209.855 630.487 Q -210.518 630.164 -211.432 629.920 Q -212.345 629.677 -213.464 629.687 Q -214.583 629.697 -215.691 630.063 Q -216.798 630.430 -217.784 631.092 Q -218.770 631.753 -219.988 633.602 "></path>
    <path id="STROKE_1eccd76c-fc10-4024-b271-137c5d9b9f9c" opacity="1.000" fill="none" stroke="#71c047" stroke-width="1.600" stroke-opacity="1.000" stroke-linecap="round" stroke-linejoin="round" d="M -188.781 630.849 Q -189.154 630.656 -189.082 630.695 Q -188.899 630.785 -189.970 630.364 Q -191.041 629.943 -192.266 629.933 Q -193.491 629.923 -194.580 630.256 Q -195.669 630.590 -196.636 631.190 Q -197.603 631.791 -198.375 632.786 Q -199.148 633.781 -199.418 634.456 Q -199.689 635.132 -199.882 635.863 Q -200.075 636.595 -200.092 637.738 Q -200.108 638.881 -199.675 640.035 Q -199.242 641.189 -198.816 641.830 Q -198.390 642.471 -197.708 643.137 Q -197.026 643.803 -196.049 644.334 Q -195.071 644.864 -193.985 645.125 Q -192.899 645.385 -191.787 645.231 Q -190.675 645.076 -190.012 644.868 Q -189.349 644.661 -188.466 644.155 Q -187.583 643.650 -186.727 642.746 Q -185.872 641.841 -185.459 640.766 Q -185.046 639.690 -184.913 639.113 Q -184.780 638.536 -184.777 637.446 Q -184.773 636.356 -185.136 635.224 Q -185.498 634.092 -186.132 633.214 Q -186.767 632.335 -187.545 631.701 Q -188.323 631.066 -188.987 630.743 Q -189.651 630.420 -190.564 630.177 Q -191.477 629.934 -192.596 629.943 Q -193.715 629.953 -194.823 630.320 Q -195.931 630.686 -196.917 631.348 Q -197.903 632.010 -199.121 633.858 "></path>
    <path id="STROKE_30cffdaa-4a62-4e78-bfc3-fa18412f96a8" opacity="1.000" fill="none" stroke="#ffb352" stroke-width="1.600" stroke-opacity="1.000" stroke-linecap="round" stroke-linejoin="round" d="M -147.767 630.673 Q -148.140 630.479 -148.069 630.519 Q -147.885 630.609 -148.957 630.188 Q -150.028 629.767 -151.252 629.757 Q -152.477 629.747 -153.566 630.080 Q -154.655 630.413 -155.622 631.014 Q -156.590 631.615 -157.362 632.609 Q -158.134 633.604 -158.405 634.280 Q -158.675 634.955 -158.868 635.687 Q -159.061 636.419 -159.078 637.562 Q -159.095 638.705 -158.661 639.859 Q -158.228 641.013 -157.802 641.653 Q -157.377 642.294 -156.694 642.961 Q -156.012 643.627 -155.035 644.157 Q -154.058 644.688 -152.972 644.948 Q -151.885 645.209 -150.773 645.054 Q -149.661 644.900 -148.998 644.692 Q -148.335 644.484 -147.452 643.979 Q -146.569 643.473 -145.714 642.569 Q -144.858 641.665 -144.445 640.589 Q -144.032 639.514 -143.899 638.937 Q -143.767 638.359 -143.763 637.269 Q -143.759 636.180 -144.122 635.048 Q -144.485 633.915 -145.119 633.037 Q -145.753 632.159 -146.531 631.524 Q -147.309 630.890 -147.973 630.567 Q -148.637 630.244 -149.550 630.001 Q -150.463 629.757 -151.583 629.767 Q -152.702 629.777 -153.809 630.143 Q -154.917 630.510 -155.903 631.172 Q -156.889 631.833 -158.107 633.682 "></path>
    <path id="STROKE_db22f3d4-58fd-42ae-83b2-fb0270b92d32" opacity="1.000" fill="none" stroke="#5a6edc" stroke-width="1.600" stroke-opacity="1.000" stroke-linecap="round" stroke-linejoin="round" d="M -82.662 630.721 Q -83.035 630.528 -82.963 630.567 Q -82.780 630.657 -83.851 630.236 Q -84.922 629.815 -86.147 629.805 Q -87.372 629.795 -88.461 630.128 Q -89.550 630.461 -90.517 631.062 Q -91.484 631.663 -92.257 632.658 Q -93.029 633.653 -93.299 634.328 Q -93.570 635.003 -93.763 635.735 Q -93.956 636.467 -93.973 637.610 Q -93.989 638.753 -93.556 639.907 Q -93.123 641.061 -92.697 641.702 Q -92.271 642.342 -91.589 643.009 Q -90.907 643.675 -89.930 644.205 Q -88.952 644.736 -87.866 644.997 Q -86.780 645.257 -85.668 645.103 Q -84.556 644.948 -83.893 644.740 Q -83.230 644.532 -82.347 644.027 Q -81.464 643.521 -80.608 642.617 Q -79.753 641.713 -79.340 640.638 Q -78.927 639.562 -78.794 638.985 Q -78.661 638.407 -78.658 637.318 Q -78.654 636.228 -79.017 635.096 Q -79.379 633.964 -80.014 633.085 Q -80.648 632.207 -81.426 631.573 Q -82.204 630.938 -82.868 630.615 Q -83.532 630.292 -84.445 630.049 Q -85.358 629.805 -86.477 629.815 Q -87.597 629.825 -88.704 630.192 Q -89.812 630.558 -90.798 631.220 Q -91.784 631.882 -93.002 633.730 "></path>
    <path id="STROKE_74a991fa-a24f-4d81-84a0-48bb43b61708" opacity="1.000" fill="none" stroke="#71c047" stroke-width="1.600" stroke-opacity="1.000" stroke-linecap="round" stroke-linejoin="round" d="M -38.488 630.288 Q -38.862 630.094 -38.790 630.134 Q -38.607 630.224 -39.678 629.803 Q -40.749 629.382 -41.974 629.372 Q -43.198 629.362 -44.287 629.695 Q -45.376 630.028 -46.344 630.629 Q -47.311 631.230 -48.083 632.225 Q -48.855 633.219 -49.126 633.895 Q -49.396 634.570 -49.590 635.302 Q -49.783 636.034 -49.799 637.177 Q -49.816 638.320 -49.383 639.474 Q -48.949 640.628 -48.524 641.269 Q -48.098 641.909 -47.416 642.576 Q -46.733 643.242 -45.756 643.772 Q -44.779 644.303 -43.693 644.563 Q -42.607 644.824 -41.495 644.669 Q -40.383 644.515 -39.720 644.307 Q -39.057 644.099 -38.174 643.594 Q -37.291 643.088 -36.435 642.184 Q -35.579 641.280 -35.166 640.204 Q -34.753 639.129 -34.621 638.552 Q -34.488 637.974 -34.484 636.884 Q -34.481 635.795 -34.843 634.663 Q -35.206 633.531 -35.840 632.652 Q -36.474 631.774 -37.252 631.139 Q -38.030 630.505 -38.694 630.182 Q -39.358 629.859 -40.271 629.616 Q -41.185 629.372 -42.304 629.382 Q -43.423 629.392 -44.531 629.758 Q -45.638 630.125 -46.624 630.787 Q -47.610 631.449 -48.828 633.297 "></path>
    <path id="STROKE_7db97773-36d9-451f-aa2c-7ab78f5b21b1" opacity="1.000" fill="none" stroke="#ffb352" stroke-width="1.600" stroke-opacity="1.000" stroke-linecap="round" stroke-linejoin="round" d="M -20.716 629.598 Q -21.089 629.405 -21.018 629.444 Q -20.835 629.534 -21.906 629.113 Q -22.977 628.692 -24.201 628.682 Q -25.426 628.672 -26.515 629.005 Q -27.604 629.339 -28.572 629.939 Q -29.539 630.540 -30.311 631.535 Q -31.083 632.530 -31.354 633.205 Q -31.624 633.881 -31.817 634.612 Q -32.011 635.344 -32.027 636.487 Q -32.044 637.630 -31.611 638.784 Q -31.177 639.938 -30.752 640.579 Q -30.326 641.220 -29.644 641.886 Q -28.961 642.552 -27.984 643.083 Q -27.007 643.613 -25.921 643.874 Q -24.835 644.134 -23.723 643.980 Q -22.610 643.825 -21.948 643.617 Q -21.285 643.409 -20.402 642.904 Q -19.519 642.399 -18.663 641.495 Q -17.807 640.590 -17.394 639.515 Q -16.981 638.439 -16.849 637.862 Q -16.716 637.285 -16.712 636.195 Q -16.708 635.105 -17.071 633.973 Q -17.434 632.841 -18.068 631.962 Q -18.702 631.084 -19.480 630.450 Q -20.258 629.815 -20.922 629.492 Q -21.586 629.169 -22.499 628.926 Q -23.413 628.683 -24.532 628.692 Q -25.651 628.702 -26.759 629.069 Q -27.866 629.435 -28.852 630.097 Q -29.838 630.759 -31.056 632.607 "></path>
  </g>
</svg>