<?xml version="1.0" encoding="UTF-8" standalone="yes"?>
<svg xmlns="http://www.w3.org/2000/svg" xmlns:xlink="http://www.w3.org/1999/xlink" width="150.574pt" height="25.778pt" version="1.1" viewBox="248.956 696.065 150.574 25.778">
  <!--
	Exported with Concepts: Smarter Sketching
	Version: 2024.8.7 on Microsoft Windows NT 10.0.22631.0
	https://concepts.app/
	-->
  <title>Drawing</title>
  <desc>Drawing exported from Concepts: Smarter Sketching</desc>
  <defs></defs>
  <g id="Pen" opacity="1.000">
    <path id="STROKE_e769af50-2d09-40ac-88c8-79dc20db725c" opacity="1.000" fill="none" stroke="#000000" stroke-width="1.600" stroke-opacity="1.000" stroke-linecap="round" stroke-linejoin="round" d="M 275.611 701.579 Q 275.413 701.557 274.688 703.657 Q 273.964 705.757 273.752 707.580 Q 273.539 709.402 273.585 710.876 Q 273.631 712.350 273.825 713.644 Q 274.019 714.939 274.554 716.082 Q 275.090 717.225 275.874 717.773 Q 276.659 718.321 277.409 718.472 Q 278.159 718.624 279.063 718.317 Q 279.967 718.009 280.425 717.110 Q 280.883 716.210 280.926 714.851 Q 280.969 713.492 280.525 711.886 Q 280.082 710.280 275.838 700.814 "></path>
    <path id="STROKE_b25c02a6-7550-496a-8d47-92b5e65293b1" opacity="1.000" fill="none" stroke="#000000" stroke-width="1.600" stroke-opacity="1.000" stroke-linecap="round" stroke-linejoin="round" d="M 278.897 718.344 Q 279.246 718.466 279.208 718.457 Q 279.701 718.552 283.552 718.407 Q 287.404 718.262 289.757 718.135 Q 292.109 718.008 293.376 717.888 Q 294.642 717.768 303.628 717.406 Q 312.613 717.044 320.369 716.975 Q 328.124 716.905 332.049 716.942 Q 335.973 716.978 343.453 716.946 Q 350.933 716.915 355.427 716.779 Q 359.921 716.643 362.639 716.450 Q 365.357 716.257 368.273 715.682 "></path>
    <path id="STROKE_7334cb00-4fb6-41f9-8288-683dcf822272" opacity="1.000" fill="none" stroke="#000000" stroke-width="1.600" stroke-opacity="1.000" stroke-linecap="round" stroke-linejoin="round" d="M 277.226 700.758 Q 277.103 700.630 282.125 700.510 Q 287.147 700.389 290.545 700.331 Q 293.943 700.272 295.404 700.283 Q 296.865 700.294 297.699 700.253 Q 298.532 700.211 306.999 699.958 Q 315.466 699.704 321.228 699.661 Q 326.991 699.619 329.487 699.724 Q 331.984 699.828 336.293 699.822 Q 340.602 699.815 343.936 699.749 Q 347.270 699.684 350.630 699.540 "></path>
    <path id="STROKE_696ebbb1-03b1-4c21-a529-8eccce1693bc" opacity="1.000" fill="none" stroke="#000000" stroke-width="1.600" stroke-opacity="1.000" stroke-linecap="round" stroke-linejoin="round" d="M 349.724 699.455 Q 349.919 699.369 354.751 699.413 Q 359.583 699.457 364.903 699.653 "></path>
    <path id="STROKE_bab1592e-637f-4ad8-af56-e3778c371912" opacity="1.000" fill="none" stroke="#000000" stroke-width="1.600" stroke-opacity="1.000" stroke-linecap="round" stroke-linejoin="round" d="M 366.801 699.880 Q 366.459 700.269 366.301 700.821 Q 366.143 701.373 365.769 702.836 Q 365.395 704.298 365.539 706.567 Q 365.682 708.836 365.950 710.216 Q 366.217 711.597 366.524 712.561 Q 366.831 713.524 367.287 714.136 Q 367.743 714.747 368.107 714.905 Q 368.471 715.062 368.487 715.060 Q 368.504 715.058 368.536 715.082 Q 368.569 715.106 368.879 715.025 Q 369.189 714.944 369.457 714.751 Q 369.725 714.559 369.915 714.362 Q 370.105 714.166 370.245 714.093 Q 370.385 714.020 370.902 713.287 Q 371.419 712.555 371.677 711.941 Q 371.935 711.328 372.498 710.001 Q 373.061 708.673 373.239 706.773 Q 373.417 704.873 373.202 703.664 Q 372.986 702.456 372.689 701.556 Q 372.392 700.657 369.179 699.880 "></path>
    <path id="STROKE_6a1e89a7-a60e-4158-9ed1-3cd5db6a1226" opacity="1.000" fill="none" stroke="#000000" stroke-width="1.600" stroke-opacity="1.000" stroke-linecap="round" stroke-linejoin="round" d="M 252.304 712.340 Q 252.315 712.317 252.202 712.339 Q 252.090 712.362 252.726 712.426 Q 253.362 712.490 253.872 712.428 Q 254.382 712.366 254.719 712.362 Q 255.055 712.357 255.414 712.316 Q 255.773 712.274 256.390 712.258 Q 257.007 712.241 260.318 712.168 Q 263.629 712.095 271.392 711.037 "></path>
    <path id="STROKE_220371c9-2a58-4893-87aa-44a968c170e7" opacity="1.000" fill="none" stroke="#000000" stroke-width="1.600" stroke-opacity="1.000" stroke-linecap="round" stroke-linejoin="round" d="M 268.192 708.177 Q 267.876 708.293 269.008 708.850 Q 270.139 709.407 270.923 709.793 Q 271.706 710.178 271.819 710.360 Q 271.932 710.542 272.300 710.838 Q 272.668 711.133 272.934 711.530 Q 273.199 711.928 273.291 712.060 Q 273.383 712.193 273.153 712.499 Q 272.922 712.805 272.841 712.808 Q 272.760 712.811 272.538 712.914 Q 272.317 713.018 272.271 712.999 Q 272.225 712.980 268.956 714.323 "></path>
    <path id="STROKE_042dedbb-c6eb-476a-b248-c60e84d00f42" opacity="1.000" fill="none" stroke="#000000" stroke-width="1.600" stroke-opacity="1.000" stroke-linecap="round" stroke-linejoin="round" d="M 375.863 707.498 Q 375.557 707.377 375.551 707.214 Q 375.204 707.266 375.240 707.299 Q 375.551 707.313 373.626 707.214 Q 373.913 707.075 378.767 706.660 Q 383.622 706.245 388.635 706.138 "></path>
    <path id="STROKE_e6265e46-6ebc-4e12-81b7-eec33d670b9a" opacity="1.000" fill="none" stroke="#000000" stroke-width="1.600" stroke-opacity="1.000" stroke-linecap="round" stroke-linejoin="round" d="M 389.796 702.315 Q 390.341 702.509 390.306 702.457 Q 390.103 702.410 391.596 702.864 Q 393.089 703.319 393.843 703.643 Q 394.597 703.967 395.229 704.372 Q 395.861 704.778 396.070 705.012 Q 396.280 705.247 396.165 705.773 Q 396.051 706.299 395.773 706.585 Q 395.496 706.871 395.535 706.842 Q 395.574 706.813 395.257 707.089 Q 394.940 707.364 394.477 707.633 Q 394.015 707.902 393.851 707.966 Q 393.687 708.030 393.522 708.151 Q 393.357 708.271 392.743 708.466 Q 392.129 708.661 390.787 709.282 "></path>
    <path id="STROKE_6b645a63-3fe5-4576-a947-14ee23e86104" opacity="1.000" fill="none" stroke="#000000" stroke-width="1.600" stroke-opacity="1.000" stroke-linecap="round" stroke-linejoin="round" d="M 388.408 705.402 Q 388.407 705.456 392.855 705.119 "></path>
    <path id="STROKE_6cdf7f69-5958-45d7-ab18-716758006c5b" opacity="1.000" fill="none" stroke="#000000" stroke-width="1.600" stroke-opacity="1.000" stroke-linecap="round" stroke-linejoin="round" d="M 290.564 705.600 Q 290.493 705.600 290.423 705.600 Q 290.560 706.010 295.071 706.086 Q 299.581 706.163 304.667 705.544 "></path>
    <path id="STROKE_05a11037-70d7-4dd2-a397-3b753c39e600" opacity="1.000" fill="none" stroke="#000000" stroke-width="1.600" stroke-opacity="1.000" stroke-linecap="round" stroke-linejoin="round" d="M 305.120 702.542 Q 304.898 702.138 308.844 704.793 L 308.802 704.864 Q 308.923 704.905 309.198 705.260 Q 309.092 705.350 308.795 705.635 Q 308.498 705.920 308.405 706.002 Q 308.312 706.084 308.391 706.048 Q 308.470 706.013 307.499 706.422 "></path>
    <path id="STROKE_06fee959-b8a1-468c-b893-43cbb1c5c898" opacity="1.000" fill="none" stroke="#000000" stroke-width="1.600" stroke-opacity="1.000" stroke-linecap="round" stroke-linejoin="round" d="M 292.716 712.963 Q 293.057 712.901 305.885 711.802 "></path>
    <path id="STROKE_acc10a09-0382-4878-a08a-8e7110957e42" opacity="1.000" fill="none" stroke="#000000" stroke-width="1.600" stroke-opacity="1.000" stroke-linecap="round" stroke-linejoin="round" d="M 306.423 708.744 Q 307.051 709.094 311.492 710.499 Q 311.537 710.704 310.386 711.088 Q 309.236 711.471 307.811 713.643 "></path>
    <path id="STROKE_28084293-e788-421d-9393-9dd776024c8a" opacity="1.000" fill="none" stroke="#000000" stroke-width="1.600" stroke-opacity="1.000" stroke-linecap="round" stroke-linejoin="round" d="M 329.645 705.940 Q 330.294 706.089 330.268 706.053 Q 330.017 706.382 344.513 705.685 "></path>
    <path id="STROKE_1dcfb454-3181-4d4c-a639-49e8d04c43f9" opacity="1.000" fill="none" stroke="#000000" stroke-width="1.600" stroke-opacity="1.000" stroke-linecap="round" stroke-linejoin="round" d="M 344.456 702.400 Q 343.873 702.332 345.448 702.603 Q 347.022 702.874 348.017 703.312 Q 349.012 703.749 349.542 704.003 Q 350.072 704.258 350.109 704.507 Q 350.147 704.756 350.136 704.814 Q 350.126 704.872 350.023 705.158 Q 349.920 705.444 346.212 707.158 "></path>
    <path id="STROKE_6b4b580c-37ff-4d2a-9cec-f496cc113d43" opacity="1.000" fill="none" stroke="#000000" stroke-width="1.600" stroke-opacity="1.000" stroke-linecap="round" stroke-linejoin="round" d="M 328.116 714.039 Q 327.865 714.046 342.077 713.360 "></path>
    <path id="STROKE_b5273b78-0243-4bae-9450-e21e4964aa7a" opacity="1.000" fill="none" stroke="#000000" stroke-width="1.600" stroke-opacity="1.000" stroke-linecap="round" stroke-linejoin="round" d="M 342.616 710.160 Q 342.639 710.026 347.600 711.321 Q 347.303 712.293 347.312 712.193 Q 347.321 712.093 346.997 712.376 Q 346.674 712.659 345.136 714.464 "></path>
  </g>
</svg>