<?xml version="1.0" encoding="UTF-8" standalone="yes"?>
<svg xmlns="http://www.w3.org/2000/svg" xmlns:xlink="http://www.w3.org/1999/xlink" width="309.794pt" height="99.794pt" version="1.1" viewBox="-304.897 613.103 309.794 99.794">
  <!--
	Exported with Concepts: Smarter Sketching
	Version: 2024.8.5 on Microsoft Windows NT 10.0.22631.0
	https://concepts.app/
	-->
  <title>Drawing 5</title>
  <desc>Drawing exported from Concepts: Smarter Sketching</desc>
  <defs></defs>
  <g id="Pen" opacity="1.000">
    <path id="STROKE_f605c68e-39c9-4edd-844a-c27f81df1098" opacity="1.000" fill="none" stroke="#000000" stroke-width="1.600" stroke-opacity="1.000" stroke-linecap="round" stroke-linejoin="round" d="M -300.000 668.000 L -220.414 668.000 "></path>
    <path id="STROKE_5b93a36b-b784-4707-9055-9d4c1d009c58" opacity="1.000" fill="none" stroke="#000000" stroke-width="1.600" stroke-opacity="1.000" stroke-linecap="round" stroke-linejoin="round" d="M -220.000 668.000 L -210.000 668.000 L -210.000 668.000 "></path>
    <path id="STROKE_d5fd234a-529e-4d41-8fb9-772e84bc80a5" opacity="1.000" fill="none" stroke="#000000" stroke-width="1.600" stroke-opacity="1.000" stroke-linecap="round" stroke-linejoin="round" d="M -206.482 668.000 L -200.000 668.000 "></path>
    <path id="STROKE_b8cadadc-b2bc-486c-8303-d908212ef3d4" opacity="1.000" fill="none" stroke="#000000" stroke-width="1.600" stroke-opacity="1.000" stroke-linecap="round" stroke-linejoin="round" d="M -206.640 668.000 L -210.000 668.000 L -210.000 668.000 "></path>
    <path id="STROKE_dfb60b02-ac78-4250-a7d1-1b475958b157" opacity="1.000" fill="none" stroke="#000000" stroke-width="1.600" stroke-opacity="1.000" stroke-linecap="round" stroke-linejoin="round" d="M -206.377 668.000 L -206.377 668.000 "></path>
    <path id="STROKE_db3bdf5b-45d7-4d3d-9b30-35290a50be34" opacity="1.000" fill="none" stroke="#000000" stroke-width="1.600" stroke-opacity="1.000" stroke-linecap="round" stroke-linejoin="round" d="M -199.374 667.935 Q -199.635 667.111 -199.532 667.250 Q -199.000 666.574 -200.375 665.180 Q -201.751 663.787 -202.675 662.826 Q -203.599 661.865 -203.757 661.635 Q -203.915 661.406 -204.156 661.245 Q -204.397 661.084 -205.536 659.783 Q -206.676 658.481 -207.874 656.803 Q -209.072 655.125 -210.800 652.876 "></path>
    <path id="STROKE_e963ca02-a578-4cf7-bf8d-9f9760afd185" opacity="1.000" fill="none" stroke="#000000" stroke-width="1.600" stroke-opacity="1.000" stroke-linecap="round" stroke-linejoin="round" d="M -199.216 666.566 Q -199.395 667.921 -199.453 667.566 Q -198.872 667.644 -207.219 680.466 "></path>
    <path id="STROKE_8d023ffb-88d8-4553-95ef-709b3f702c02" opacity="1.000" fill="none" stroke="#000000" stroke-width="1.600" stroke-opacity="1.000" stroke-linecap="round" stroke-linejoin="round" d="M -200.000 620.811 L -200.000 688.000 L -200.000 688.000 "></path>
    <path id="STROKE_68927dae-79a5-471b-a08c-5eeafa31eded" opacity="1.000" fill="none" stroke="#000000" stroke-width="1.600" stroke-opacity="1.000" stroke-linecap="round" stroke-linejoin="round" d="M -200.000 678.000 L -200.000 698.000 L -200.000 698.000 "></path>
    <path id="STROKE_bb8a9a36-280f-441a-a56d-07e32080aa96" opacity="1.000" fill="none" stroke="#000000" stroke-width="1.600" stroke-opacity="1.000" stroke-linecap="round" stroke-linejoin="round" d="M -200.000 692.998 L -200.000 698.000 L -200.000 708.000 "></path>
    <path id="STROKE_0f740a1d-a45e-4367-af31-3813dc61d5ba" opacity="1.000" fill="none" stroke="#000000" stroke-width="1.600" stroke-opacity="1.000" stroke-linecap="round" stroke-linejoin="round" d="M -200.000 618.000 L -120.000 618.000 L -120.000 618.000 "></path>
    <path id="STROKE_051740a3-5c63-4f6f-b734-2edb5cf15898" opacity="1.000" fill="none" stroke="#000000" stroke-width="1.600" stroke-opacity="1.000" stroke-linecap="round" stroke-linejoin="round" d="M -126.132 618.000 L -110.000 618.000 L -100.000 618.000 "></path>
    <path id="STROKE_a9387031-db3e-42a7-899c-97465977df43" opacity="1.000" fill="none" stroke="#000000" stroke-width="1.600" stroke-opacity="1.000" stroke-linecap="round" stroke-linejoin="round" d="M -100.000 618.000 L -100.000 658.000 L -100.000 668.000 "></path>
    <path id="STROKE_b196e57b-987c-4a76-90b6-1a8f97794185" opacity="1.000" fill="none" stroke="#000000" stroke-width="1.600" stroke-opacity="1.000" stroke-linecap="round" stroke-linejoin="round" d="M -200.000 708.000 L -110.000 708.000 L -100.000 708.000 "></path>
    <path id="STROKE_1de0c2b1-73b5-4467-b767-c55b5aae1ba0" opacity="1.000" fill="none" stroke="#000000" stroke-width="1.600" stroke-opacity="1.000" stroke-linecap="round" stroke-linejoin="round" d="M -100.000 668.000 L -100.000 688.000 L -100.000 698.000 "></path>
    <path id="STROKE_5ab523c1-45e5-43b5-9872-3b6fa7615615" opacity="1.000" fill="none" stroke="#000000" stroke-width="1.600" stroke-opacity="1.000" stroke-linecap="round" stroke-linejoin="round" d="M -100.000 695.156 L -100.000 698.000 L -100.000 708.000 "></path>
    <path id="STROKE_eb604a5f-3e93-4d3c-acff-ee7437a5de1f" opacity="1.000" fill="none" stroke="#000000" stroke-width="1.600" stroke-opacity="1.000" stroke-linecap="round" stroke-linejoin="round" d="M -100.000 668.000 L -20.000 668.000 L -20.000 668.000 "></path>
    <path id="STROKE_88ddd5e0-3e54-471e-9c9c-262a0b3f6ea3" opacity="1.000" fill="none" stroke="#000000" stroke-width="1.600" stroke-opacity="1.000" stroke-linecap="round" stroke-linejoin="round" d="M -23.984 668.000 L -20.000 668.000 L -10.000 668.000 "></path>
    <path id="STROKE_2efe4977-5de4-4913-bd08-28077fb980c8" opacity="1.000" fill="none" stroke="#000000" stroke-width="1.600" stroke-opacity="1.000" stroke-linecap="round" stroke-linejoin="round" d="M -14.401 668.000 L -10.000 668.000 L -10.000 668.000 "></path>
    <path id="STROKE_79e4a258-4311-4ca2-8daf-f1818471a42a" opacity="1.000" fill="none" stroke="#000000" stroke-width="1.600" stroke-opacity="1.000" stroke-linecap="round" stroke-linejoin="round" d="M -10.000 668.000 L 0.000 668.000 L 0.000 668.000 "></path>
    <path id="STROKE_cfb32b9a-1bc7-409c-9191-2ca14f6c41eb" opacity="1.000" fill="none" stroke="#000000" stroke-width="1.600" stroke-opacity="1.000" stroke-linecap="round" stroke-linejoin="round" d="M -2.606 668.935 Q -3.011 667.602 -2.949 667.961 Q -3.102 667.120 -4.168 665.995 Q -5.233 664.869 -7.537 662.180 Q -9.842 659.492 -10.823 658.141 Q -11.804 656.790 -12.136 655.948 Q -12.468 655.105 -12.662 654.639 Q -12.856 654.172 -13.137 653.877 "></path>
    <path id="STROKE_2707ffd0-c34e-4485-a4a0-db9f34d147f6" opacity="1.000" fill="none" stroke="#000000" stroke-width="1.600" stroke-opacity="1.000" stroke-linecap="round" stroke-linejoin="round" d="M -0.026 667.935 Q -0.452 668.031 -2.723 670.524 Q -4.993 673.017 -6.372 674.704 Q -7.751 676.391 -9.451 678.939 "></path>
    <path id="STROKE_abde4905-5679-4d79-8061-967e3b93eb43" opacity="1.000" fill="none" stroke="#000000" stroke-width="1.600" stroke-opacity="1.000" stroke-linecap="round" stroke-linejoin="round" d="M -3.607 669.988 Q -3.304 669.697 -3.948 670.727 Q -4.592 671.756 -5.357 673.160 Q -6.122 674.563 -7.072 676.099 Q -8.023 677.634 -9.557 679.571 "></path>
    <path id="STROKE_99c6effa-9503-4cfb-85a6-a8d3c6f182f1" opacity="1.000" fill="none" stroke="#000000" stroke-width="1.600" stroke-opacity="1.000" stroke-linecap="round" stroke-linejoin="round" d="M -168.677 652.560 Q -168.835 652.560 -169.098 652.560 Q -169.133 651.879 -166.982 657.394 Q -164.831 662.909 -163.819 665.873 Q -162.808 668.837 -162.235 669.995 Q -161.662 671.154 -161.010 671.675 Q -160.357 672.197 -160.090 672.292 Q -159.823 672.388 -159.317 672.016 Q -158.811 671.644 -158.633 671.466 Q -158.454 671.288 -158.066 671.014 Q -157.677 670.740 -155.897 668.212 Q -154.117 665.685 -153.133 663.923 Q -152.149 662.161 -150.439 659.174 Q -148.728 656.187 -146.720 652.560 "></path>
    <path id="STROKE_7a062dbf-dcc0-46af-851c-97b7a246b7f5" opacity="1.000" fill="none" stroke="#000000" stroke-width="1.600" stroke-opacity="1.000" stroke-linecap="round" stroke-linejoin="round" d="M -272.036 641.082 Q -272.067 641.195 -272.148 641.634 Q -272.229 642.073 -272.210 642.034 Q -272.191 641.995 -272.178 641.958 Q -272.166 641.920 -273.458 650.981 Q -273.755 649.883 -272.807 646.122 Q -271.859 642.360 -270.623 640.012 Q -269.388 637.663 -268.219 636.409 Q -267.049 635.154 -266.628 634.939 Q -266.208 634.724 -265.137 635.085 Q -264.067 635.447 -263.490 636.579 Q -262.913 637.712 -262.600 638.532 Q -262.287 639.352 -262.078 640.147 Q -261.869 640.941 -261.485 642.546 Q -261.100 644.152 -261.189 646.663 "></path>
    <path id="STROKE_100769f0-cf99-40d8-8e77-d1113fe880f5" opacity="1.000" fill="none" stroke="#000000" stroke-width="1.600" stroke-opacity="1.000" stroke-linecap="round" stroke-linejoin="round" d="M -250.501 644.873 Q -250.490 645.080 -250.377 644.933 Q -250.264 644.786 -249.429 646.437 Q -248.595 648.089 -248.077 649.416 Q -247.559 650.743 -247.691 651.547 Q -247.824 652.352 -248.182 652.697 Q -248.540 653.041 -248.465 652.998 Q -248.389 652.955 -249.226 653.508 Q -250.063 654.060 -252.923 654.877 "></path>
    <circle id="STROKE_7cdfc473-091a-4aa3-a45a-8a7b958327f8" opacity="1.000" fill="#000000" stroke="#000000" stroke-width="0.1" stroke-opacity="1.000" fill-opacity="1.000" cx="-254.924" cy="639.713" r="0.800"></circle>
    <path id="STROKE_52786549-9609-43d1-83a6-5792e40ded11" opacity="1.000" fill="none" stroke="#000000" stroke-width="1.600" stroke-opacity="1.000" stroke-linecap="round" stroke-linejoin="round" d="M -240.812 652.086 Q -240.546 653.708 -240.654 653.429 Q -240.668 654.070 -240.970 657.299 "></path>
    <path id="STROKE_e0655b42-b5a3-43cf-87e7-e900db1360cf" opacity="1.000" fill="none" stroke="#000000" stroke-width="1.600" stroke-opacity="1.000" stroke-linecap="round" stroke-linejoin="round" d="M -233.862 649.085 Q -234.039 650.717 -233.967 650.375 Q -233.759 650.952 -233.645 651.936 Q -233.532 652.919 -232.873 653.835 Q -232.215 654.750 -231.487 655.149 Q -230.760 655.547 -230.059 655.463 Q -229.359 655.380 -229.024 655.244 Q -228.688 655.109 -228.458 654.876 Q -228.227 654.642 -227.014 653.745 Q -225.801 652.849 -224.841 651.073 Q -223.882 649.298 -223.900 647.937 Q -223.918 646.576 -225.078 645.351 Q -226.238 644.125 -228.004 644.556 Q -229.769 644.988 -231.712 646.003 Q -233.655 647.019 -236.126 650.559 Q -235.968 650.691 -235.389 650.981 "></path>
    <path id="STROKE_0be43dab-60ec-442d-a8c2-215abca0dbd8" opacity="1.000" fill="none" stroke="#000000" stroke-width="1.600" stroke-opacity="1.000" stroke-linecap="round" stroke-linejoin="round" d="M -78.112 644.399 Q -78.372 644.965 -80.534 653.877 Q -80.515 653.424 -79.237 650.322 Q -77.959 647.221 -76.187 644.611 Q -74.415 642.001 -73.107 640.924 Q -71.800 639.846 -70.493 639.127 Q -69.185 638.408 -68.139 639.424 Q -67.092 640.440 -66.686 648.401 "></path>
    <path id="STROKE_c13c5b92-f44c-4825-90a1-51a1d47a3f41" opacity="1.000" fill="none" stroke="#000000" stroke-width="1.600" stroke-opacity="1.000" stroke-linecap="round" stroke-linejoin="round" d="M -59.999 646.031 Q -60.093 644.750 -58.999 652.718 Q -60.198 653.223 -62.158 652.613 "></path>
    <circle id="STROKE_d3bb7917-46eb-40a0-878f-3254227ea89e" opacity="1.000" fill="#000000" stroke="#000000" stroke-width="0.1" stroke-opacity="1.000" fill-opacity="1.000" cx="-61.737" cy="637.765" r="0.800"></circle>
    <path id="STROKE_27829cdb-2406-440e-a820-b2b76aabe544" opacity="1.000" fill="none" stroke="#000000" stroke-width="1.600" stroke-opacity="1.000" stroke-linecap="round" stroke-linejoin="round" d="M -52.469 653.350 Q -52.353 654.149 -52.891 657.141 "></path>
    <path id="STROKE_369d3f1b-5943-483e-ba5d-1082bf6a2ce5" opacity="1.000" fill="none" stroke="#000000" stroke-width="1.600" stroke-opacity="1.000" stroke-linecap="round" stroke-linejoin="round" d="M -45.309 648.664 Q -45.274 649.275 -45.435 650.900 Q -45.596 652.526 -44.782 654.877 "></path>
    <path id="STROKE_d93bca59-2690-4b79-8aec-86ebc68a9bc5" opacity="1.000" fill="none" stroke="#000000" stroke-width="1.600" stroke-opacity="1.000" stroke-linecap="round" stroke-linejoin="round" d="M -130.660 670.568 Q -131.225 670.486 -132.371 673.978 Q -133.517 677.470 -134.083 679.534 Q -134.649 681.598 -134.656 683.835 Q -134.662 686.072 -134.392 687.327 Q -134.121 688.582 -133.859 689.472 Q -133.597 690.363 -132.480 690.941 Q -131.362 691.519 -130.538 691.524 Q -129.714 691.529 -129.144 691.146 Q -128.574 690.764 -127.836 690.163 Q -127.099 689.561 -126.586 689.052 Q -126.073 688.544 -125.509 687.869 Q -124.945 687.194 -124.656 686.575 Q -124.366 685.956 -124.129 685.443 Q -123.892 684.930 -123.828 684.245 Q -123.763 683.559 -124.037 682.942 Q -124.310 682.326 -124.560 682.086 Q -124.809 681.847 -124.831 681.858 Q -124.853 681.869 -125.350 681.750 Q -125.847 681.630 -126.975 682.098 Q -126.864 681.724 -120.130 678.939 "></path>
    <path id="STROKE_53cbec58-207e-4b32-862c-6a5edbfb60ed" opacity="1.000" fill="none" stroke="#000000" stroke-width="1.600" stroke-opacity="1.000" stroke-linecap="round" stroke-linejoin="round" d="M -115.128 687.206 Q -115.174 686.951 -114.210 689.289 Q -113.247 691.627 -112.920 693.195 Q -112.593 694.763 -112.786 695.669 Q -112.978 696.575 -112.953 696.656 Q -112.927 696.736 -113.386 697.471 Q -113.846 698.205 -115.138 697.482 Q -116.429 696.758 -117.550 695.525 "></path>
    <path id="STROKE_1ab222bb-9080-4bd9-ba31-8f8cb7a280f7" opacity="1.000" fill="none" stroke="#000000" stroke-width="1.600" stroke-opacity="1.000" stroke-linecap="round" stroke-linejoin="round" d="M -119.287 684.257 Q -119.208 684.205 -119.129 683.994 Q -119.281 684.291 -116.444 681.625 "></path>
    <path id="STROKE_5bf4bd44-3cee-4d22-b9de-7d4ed811c61b" opacity="1.000" fill="none" stroke="#000000" stroke-width="1.600" stroke-opacity="1.000" stroke-linecap="round" stroke-linejoin="round" d="M -125.395 652.455 Q -125.457 652.539 -124.289 662.459 "></path>
    <path id="STROKE_84b416f5-d794-4f6a-975a-5cec5a395223" opacity="1.000" fill="none" stroke="#000000" stroke-width="1.600" stroke-opacity="1.000" stroke-linecap="round" stroke-linejoin="round" d="M -118.445 666.039 Q -118.267 665.517 -110.757 658.668 "></path>
    <path id="STROKE_af626b00-d565-4143-a94a-3a70e5dca7b8" opacity="1.000" fill="none" stroke="#000000" stroke-width="1.600" stroke-opacity="1.000" stroke-linecap="round" stroke-linejoin="round" d="M -140.243 679.308 Q -140.971 679.937 -148.089 679.308 Q -148.142 679.124 -148.194 678.939 "></path>
    <path id="STROKE_5601b6b6-cc0f-4f3b-ad48-2d666ebdce19" opacity="1.000" fill="none" stroke="#000000" stroke-width="1.600" stroke-opacity="1.000" stroke-linecap="round" stroke-linejoin="round" d="M -143.771 692.892 Q -142.455 691.613 -152.038 700.211 "></path>
    <path id="STROKE_5f31825b-e078-40da-9963-a80a81f2d274" opacity="1.000" fill="none" stroke="#000000" stroke-width="1.600" stroke-opacity="1.000" stroke-linecap="round" stroke-linejoin="round" d="M -131.556 697.947 Q -131.077 696.949 -132.661 703.370 "></path>
    <path id="STROKE_3b31b9a0-b14a-4f93-81b9-72b708c7f8b2" opacity="1.000" fill="none" stroke="#000000" stroke-width="1.600" stroke-opacity="1.000" stroke-linecap="round" stroke-linejoin="round" d="M -266.034 625.497 Q -265.955 625.497 -265.876 625.497 Q -265.876 625.049 -265.876 625.049 Q -265.876 623.627 -265.876 623.996 Q -265.876 623.864 -265.876 623.706 Q -265.720 623.606 -265.454 625.655 Q -266.055 626.210 -265.876 626.128 Q -267.442 626.256 -266.876 625.892 Q -266.955 625.707 -267.034 625.655 Q -266.662 624.682 -266.692 624.786 Q -266.534 624.470 -265.876 623.496 Q -266.760 624.127 -266.839 624.214 Q -266.918 624.302 -266.955 624.128 L -267.034 624.128 Q -267.144 624.592 -266.876 623.233 "></path>
    <path id="STROKE_1b4c9924-ad33-4c91-ac78-cdff4261851d" opacity="1.000" fill="none" stroke="#000000" stroke-width="1.600" stroke-opacity="1.000" stroke-linecap="round" stroke-linejoin="round" d="M -72.952 630.815 Q -74.013 630.948 -73.689 630.815 Q -73.768 630.815 -73.952 630.709 Q -74.754 630.866 -72.425 627.655 Q -70.715 628.990 -75.374 630.341 Q -75.453 630.209 -75.532 630.077 Q -74.908 629.257 -74.810 629.133 Q -74.711 629.008 -74.689 629.024 "></path>
  </g>
</svg>