<?xml version="1.0" encoding="UTF-8" standalone="yes"?>
<svg xmlns="http://www.w3.org/2000/svg" xmlns:xlink="http://www.w3.org/1999/xlink" width="133.723pt" height="119.502pt" version="1.1" viewBox="-35.616 668.219 133.723 119.502">
  <!--
	Exported with Concepts: Smarter Sketching
	Version: 2024.9.7 on Microsoft Windows NT 10.0.22631.0
	https://concepts.app/
	-->
  <title>Drawing 4</title>
  <desc>Drawing exported from Concepts: Smarter Sketching</desc>
  <defs></defs>
  <g id="Pen" opacity="1.000">
    <path id="STROKE_28aca4b9-8ceb-46a6-9479-46faddc11fe8" opacity="1.000" fill="none" stroke="#000000" stroke-width="1.600" stroke-opacity="1.000" stroke-linecap="round" stroke-linejoin="round" d="M 34.165 675.625 Q 34.510 678.957 32.374 694.467 "></path>
    <path id="STROKE_af28d1a9-dd31-4596-804b-239c9b585ad4" opacity="1.000" fill="none" stroke="#000000" stroke-width="1.600" stroke-opacity="1.000" stroke-linecap="round" stroke-linejoin="round" d="M 20.965 700.461 L 20.953 700.386 Q 21.069 700.385 21.807 700.421 Q 22.545 700.456 22.512 700.426 Q 22.478 700.395 22.738 700.540 Q 22.997 700.685 43.940 694.730 "></path>
    <path id="STROKE_6061bb87-b743-4f76-8d06-108f87c670f7" opacity="1.000" fill="none" stroke="#000000" stroke-width="1.600" stroke-opacity="1.000" stroke-linecap="round" stroke-linejoin="round" d="M -14.524 754.510 Q -14.543 754.470 -9.124 747.995 Q -3.705 741.520 1.272 735.572 Q 6.250 729.624 9.096 725.949 Q 11.943 722.274 14.445 718.494 "></path>
    <path id="STROKE_5dfda124-37dd-4063-ae06-415a99a2021d" opacity="1.000" fill="none" stroke="#000000" stroke-width="1.600" stroke-opacity="1.000" stroke-linecap="round" stroke-linejoin="round" d="M 10.975 715.445 Q 11.158 715.406 11.130 715.347 Q 11.101 715.288 11.094 715.323 Q 11.087 715.358 11.086 715.315 Q 11.085 715.271 10.952 715.094 Q 10.819 714.916 10.336 714.640 Q 9.852 714.364 9.854 714.423 Q 9.856 714.482 9.823 714.485 Q 9.789 714.487 9.326 714.868 Q 8.863 715.250 8.859 715.267 Q 8.343 715.780 8.036 716.007 Q 7.730 716.235 7.661 716.313 Q 8.264 716.218 7.962 716.366 Q 7.661 716.515 8.941 715.963 Q 10.221 715.411 14.114 712.860 Q 18.008 710.310 20.343 708.860 Q 22.679 707.409 25.828 706.493 Q 25.925 707.593 25.801 707.643 Q 24.666 708.099 23.699 720.703 "></path>
    <path id="STROKE_757c9ddd-85b1-4c3e-9266-97013d2324f9" opacity="1.000" fill="none" stroke="#000000" stroke-width="1.600" stroke-opacity="1.000" stroke-linecap="round" stroke-linejoin="round" d="M -28.614 767.706 L -28.694 767.738 Q -28.669 766.797 -32.423 784.557 Q -32.732 784.583 -31.894 781.592 Q -31.057 778.601 -30.405 776.773 Q -29.753 774.946 -29.429 774.021 Q -29.106 773.096 -28.602 771.921 Q -28.098 770.746 -27.493 769.361 Q -26.888 767.977 -26.440 767.274 Q -25.991 766.571 -23.429 760.871 Q -23.771 762.005 -23.670 764.849 Q -23.570 767.693 -23.112 769.070 Q -22.654 770.447 -22.391 771.110 Q -22.129 771.774 -21.657 772.408 Q -21.184 773.041 -20.106 772.792 Q -19.029 772.542 -18.371 771.831 Q -17.714 771.120 -17.135 770.473 Q -16.557 769.826 -16.193 769.372 Q -15.828 768.918 -15.607 768.630 Q -15.385 768.342 -14.961 767.865 Q -14.537 767.389 -10.665 760.399 Q -10.190 761.918 -10.324 761.559 Q -10.107 762.194 -10.073 763.821 Q -10.039 765.449 -9.421 770.285 Q -8.803 775.121 -5.881 780.402 "></path>
    <path id="STROKE_38e34b8f-aeef-4ac6-87f1-81e48510d71d" opacity="1.000" fill="none" stroke="#000000" stroke-width="1.600" stroke-opacity="1.000" stroke-linecap="round" stroke-linejoin="round" d="M 47.936 702.721 Q 47.704 703.492 47.764 703.452 Q 47.798 704.456 47.834 704.407 Q 48.270 705.603 48.274 705.632 Q 48.277 705.661 51.351 709.595 Q 54.425 713.528 59.106 719.764 Q 63.787 725.999 67.150 731.099 Q 70.514 736.199 73.172 740.682 "></path>
    <path id="STROKE_61cef073-d940-4162-a231-de355bf35b67" opacity="1.000" fill="none" stroke="#000000" stroke-width="1.600" stroke-opacity="1.000" stroke-linecap="round" stroke-linejoin="round" d="M 66.075 740.945 L 65.833 740.846 L 65.822 740.827 Q 65.706 740.544 68.856 742.406 Q 72.007 744.269 73.514 745.072 Q 75.021 745.876 75.794 746.117 Q 76.567 746.359 77.150 746.066 Q 77.733 745.774 77.866 745.401 Q 77.999 745.028 78.097 744.824 Q 78.195 744.620 78.414 740.792 Q 78.632 736.966 78.851 732.690 "></path>
    <path id="STROKE_01b2c52d-b783-4335-a752-2d7f71e7a3a3" opacity="1.000" fill="none" stroke="#000000" stroke-width="1.600" stroke-opacity="1.000" stroke-linecap="round" stroke-linejoin="round" d="M 81.374 758.768 Q 81.629 758.944 82.798 762.712 Q 83.967 766.480 84.283 769.086 Q 84.600 771.691 84.190 773.031 Q 83.780 774.371 82.909 775.984 Q 82.038 777.597 80.061 778.655 Q 78.083 779.712 73.488 777.486 "></path>
    <path id="STROKE_cfc6cfc5-06e3-4e50-a7b6-300ef425016e" opacity="1.000" fill="none" stroke="#000000" stroke-width="1.600" stroke-opacity="1.000" stroke-linecap="round" stroke-linejoin="round" d="M 72.279 756.665 Q 73.696 756.078 73.394 756.206 Q 73.927 755.016 94.939 756.350 "></path>
    <path id="STROKE_4afa3e9f-df21-4709-a88c-51ac6768eb68" opacity="1.000" fill="none" stroke="#000000" stroke-width="1.600" stroke-opacity="1.000" stroke-linecap="round" stroke-linejoin="round" d="M 61.501 767.075 Q 60.561 767.346 55.879 768.916 Q 51.196 770.487 43.227 770.445 Q 35.258 770.403 31.190 770.194 Q 27.121 769.985 25.043 769.715 Q 22.965 769.445 17.179 769.231 "></path>
    <path id="STROKE_8b513023-2d82-4fd1-8b9e-77793faa3f1b" opacity="1.000" fill="none" stroke="#000000" stroke-width="1.600" stroke-opacity="1.000" stroke-linecap="round" stroke-linejoin="round" d="M 19.282 763.500 Q 19.343 763.107 18.562 763.347 Q 17.782 763.587 17.069 764.045 Q 16.357 764.504 16.181 764.610 Q 16.005 764.716 15.714 764.963 Q 15.422 765.210 15.167 765.455 Q 14.912 765.700 14.623 765.957 Q 14.333 766.215 13.578 766.816 Q 12.822 767.416 12.863 767.397 Q 12.904 767.378 12.487 767.632 Q 12.070 767.886 10.424 769.471 L 10.420 769.471 Q 10.667 769.980 11.735 770.438 Q 12.803 770.895 15.234 773.017 "></path>
    <path id="STROKE_0f2856e6-0a53-4b5f-9811-a409d507c760" opacity="1.000" fill="none" stroke="#000000" stroke-width="1.600" stroke-opacity="1.000" stroke-linecap="round" stroke-linejoin="round" d="M 24.224 674.908 Q 25.062 674.650 25.023 674.650 Q 24.484 674.719 31.345 673.227 Q 38.206 671.734 46.779 671.386 "></path>
  </g>
</svg>