<?xml version="1.0" encoding="UTF-8" standalone="yes"?>
<svg xmlns="http://www.w3.org/2000/svg" xmlns:xlink="http://www.w3.org/1999/xlink" width="268.318pt" height="248.133pt" version="1.1" viewBox="240.382 859.434 268.318 248.133">
  <!--
	Exported with Concepts: Smarter Sketching
	Version: 2024.9.7 on Microsoft Windows NT 10.0.22631.0
	https://concepts.app/
	-->
  <title>Drawing 2</title>
  <desc>Drawing exported from Concepts: Smarter Sketching</desc>
  <defs></defs>
  <g id="Pen" opacity="1.000">
    <path id="STROKE_1a283b28-ef7b-49ff-97ef-65b53f7d2b0c" opacity="1.000" fill="none" stroke="#000000" stroke-width="1.600" stroke-opacity="1.000" stroke-linecap="round" stroke-linejoin="round" d="M 300.000 868.000 L 300.000 1058.000 L 300.000 1068.000 "></path>
    <path id="STROKE_94d52653-adfb-4462-b6e8-a1efe2153185" opacity="1.000" fill="none" stroke="#000000" stroke-width="1.600" stroke-opacity="1.000" stroke-linecap="round" stroke-linejoin="round" d="M 300.000 1068.000 L 490.000 1068.000 L 500.000 1068.000 "></path>
    <path id="STROKE_ad407056-57b3-4fc8-8318-4f973eec1175" opacity="1.000" fill="none" stroke="#000000" stroke-width="1.600" stroke-opacity="1.000" stroke-linecap="round" stroke-linejoin="round" d="M 296.840 865.239 Q 296.954 865.396 296.691 865.119 Q 296.428 864.842 295.010 867.942 Q 293.591 871.042 292.782 873.529 Q 291.972 876.015 291.713 878.024 Q 291.665 878.103 291.943 877.918 Q 292.220 877.733 294.204 874.252 Q 296.187 870.771 302.600 863.708 Q 302.564 863.881 302.560 866.085 Q 302.556 868.288 304.131 871.565 "></path>
    <path id="STROKE_ee1e1147-e1d6-4a88-806b-b8c145786e85" opacity="1.000" fill="none" stroke="#000000" stroke-width="1.600" stroke-opacity="1.000" stroke-linecap="round" stroke-linejoin="round" d="M 497.200 1061.833 Q 497.825 1061.894 497.799 1061.983 Q 497.975 1062.125 499.710 1062.806 Q 501.446 1063.488 502.662 1064.489 Q 503.879 1065.491 504.218 1066.467 Q 504.556 1067.443 504.363 1068.728 Q 504.169 1070.013 500.362 1075.283 "></path>
    <path id="STROKE_17628a23-bbe1-495d-a945-a145f2e5dab8" opacity="1.000" fill="none" stroke="#5a6edc" stroke-width="1.600" stroke-opacity="1.000" stroke-linecap="round" stroke-linejoin="round" d="M 304.457 886.942 Q 304.441 887.055 304.493 888.064 Q 304.545 889.072 304.557 889.772 Q 304.569 890.473 304.550 890.800 Q 304.532 891.126 304.576 891.323 Q 304.620 891.521 304.640 891.650 Q 304.659 891.780 304.645 891.630 Q 304.631 891.481 304.826 894.467 Q 305.022 897.453 305.183 898.874 Q 305.344 900.294 305.450 901.972 Q 305.556 903.651 305.704 904.967 Q 305.853 906.283 306.395 908.616 Q 306.937 910.948 307.306 912.204 Q 307.675 913.460 307.813 914.282 Q 307.951 915.105 308.075 915.576 Q 308.199 916.048 308.675 918.525 Q 309.150 921.002 309.445 922.313 Q 309.740 923.624 309.859 924.131 Q 309.977 924.637 310.102 925.277 Q 310.227 925.917 310.358 926.485 Q 310.489 927.054 310.699 927.660 Q 310.908 928.266 311.449 930.863 Q 311.990 933.461 312.530 935.552 Q 313.070 937.643 313.528 938.626 Q 313.987 939.610 315.348 943.470 Q 316.709 947.329 317.570 949.393 Q 318.431 951.457 319.162 952.975 Q 319.892 954.494 320.373 955.279 Q 320.854 956.064 322.406 958.616 Q 323.958 961.167 325.516 963.466 Q 327.073 965.764 328.879 967.973 Q 330.685 970.182 331.970 971.843 Q 333.254 973.504 333.859 974.368 Q 334.463 975.233 335.074 976.261 Q 335.684 977.289 337.427 979.185 Q 339.170 981.082 340.646 982.239 Q 342.121 983.396 343.235 984.326 Q 344.349 985.255 346.189 986.730 Q 348.029 988.205 350.727 990.195 Q 353.424 992.185 355.354 993.731 Q 357.284 995.277 358.519 996.142 Q 359.754 997.006 361.429 998.198 Q 363.105 999.391 368.569 1002.871 Q 374.033 1006.351 377.214 1008.356 Q 380.395 1010.361 383.848 1012.169 Q 387.301 1013.977 391.116 1015.544 Q 394.931 1017.112 398.313 1018.141 Q 401.694 1019.170 403.939 1019.626 Q 406.183 1020.082 407.892 1020.265 Q 409.602 1020.448 414.263 1021.298 Q 418.924 1022.148 421.540 1022.537 Q 424.156 1022.926 425.855 1023.344 Q 427.554 1023.761 432.571 1024.698 Q 437.588 1025.634 442.755 1026.219 Q 447.921 1026.803 451.434 1026.971 Q 454.947 1027.140 457.328 1026.899 "></path>
    <path id="STROKE_ebc9a4a8-b651-4548-9bca-e83d57e698d5" opacity="1.000" fill="none" stroke="#5a6edc" stroke-width="1.600" stroke-opacity="1.000" stroke-linecap="round" stroke-linejoin="round" d="M 319.759 909.942 Q 319.672 909.391 322.566 922.025 "></path>
    <path id="STROKE_2213e72e-94b0-42f0-ab6b-a461b76b1729" opacity="1.000" fill="none" stroke="#5a6edc" stroke-width="1.600" stroke-opacity="1.000" stroke-linecap="round" stroke-linejoin="round" d="M 320.011 910.920 Q 319.851 910.720 320.736 910.151 Q 321.621 909.582 322.838 909.249 Q 324.055 908.917 325.007 908.646 Q 325.960 908.376 327.019 908.455 Q 328.077 908.534 329.234 909.093 Q 330.390 909.651 330.995 910.983 Q 331.600 912.315 331.591 913.625 Q 331.583 914.936 330.899 916.260 Q 330.214 917.585 329.503 918.511 Q 328.792 919.437 325.027 922.403 "></path>
    <path id="STROKE_17f3099a-6c93-444e-ac21-c7b81e86a1a9" opacity="1.000" fill="none" stroke="#bb3e45" stroke-width="1.600" stroke-opacity="1.000" stroke-linecap="round" stroke-linejoin="round" d="M 301.807 900.445 Q 301.919 900.905 301.920 900.975 Q 301.921 901.045 301.915 901.068 Q 301.908 901.091 301.846 901.829 Q 301.784 902.567 301.778 902.564 Q 301.772 902.561 301.768 902.670 Q 301.763 902.780 301.776 902.857 Q 301.789 902.933 301.836 903.363 Q 301.882 903.792 301.903 903.777 Q 301.924 903.762 301.982 904.065 Q 302.041 904.367 302.063 904.368 Q 302.085 904.369 302.029 904.258 Q 301.973 904.146 302.055 906.220 Q 302.136 908.294 302.360 909.406 Q 302.584 910.519 302.684 910.926 Q 302.784 911.333 302.865 911.486 Q 302.947 911.639 302.977 911.725 Q 303.007 911.811 303.092 912.336 Q 303.177 912.860 303.640 915.507 Q 304.103 918.153 304.551 919.938 Q 304.998 921.722 305.250 922.364 Q 305.502 923.006 305.876 924.592 Q 306.250 926.178 306.583 927.542 Q 306.915 928.906 307.123 931.052 Q 307.331 933.198 307.905 935.811 Q 308.478 938.424 309.261 940.986 Q 310.045 943.548 310.335 944.915 Q 310.625 946.282 310.803 947.191 Q 310.982 948.099 311.311 949.152 Q 311.639 950.204 311.967 950.963 Q 312.294 951.722 312.463 952.120 Q 312.632 952.518 312.785 952.813 Q 312.939 953.108 313.042 953.244 Q 313.145 953.381 313.221 953.571 Q 313.298 953.760 313.578 954.229 Q 313.857 954.697 314.172 955.204 Q 314.488 955.711 314.662 955.884 Q 314.837 956.057 315.114 957.049 Q 315.390 958.042 315.726 958.989 Q 316.063 959.937 316.730 960.827 Q 317.398 961.718 317.971 962.264 Q 318.544 962.810 319.862 964.501 Q 321.179 966.193 322.004 967.465 Q 322.830 968.737 323.385 969.720 Q 323.940 970.702 324.124 971.055 Q 324.309 971.407 325.448 972.896 Q 326.587 974.385 327.496 975.731 Q 328.405 977.076 328.724 977.606 Q 329.043 978.136 329.403 978.418 Q 329.764 978.701 331.183 980.149 Q 332.602 981.597 333.812 983.220 Q 335.022 984.843 335.819 986.087 Q 336.615 987.331 337.666 988.567 Q 338.717 989.803 339.434 990.488 Q 340.151 991.172 340.517 991.559 Q 340.883 991.946 341.359 992.545 Q 341.835 993.144 342.396 993.615 Q 342.958 994.086 344.326 995.772 Q 345.693 997.458 346.745 998.946 Q 347.796 1000.434 348.607 1001.315 Q 349.419 1002.196 350.080 1003.169 Q 350.741 1004.142 352.137 1005.410 Q 353.532 1006.678 354.277 1007.309 Q 355.022 1007.941 355.843 1008.586 Q 356.663 1009.231 357.422 1009.930 Q 358.180 1010.628 360.392 1012.788 Q 362.604 1014.947 366.151 1017.200 Q 369.699 1019.452 371.425 1020.563 Q 373.150 1021.674 374.556 1022.335 Q 375.961 1022.996 378.043 1024.238 Q 380.125 1025.480 383.055 1026.797 Q 385.986 1028.115 387.480 1028.932 Q 388.974 1029.749 391.947 1030.835 Q 394.920 1031.920 397.807 1032.788 Q 400.693 1033.657 404.693 1034.666 Q 408.693 1035.675 410.740 1036.190 Q 412.787 1036.705 414.326 1037.091 Q 415.864 1037.476 418.492 1037.952 Q 421.120 1038.427 424.392 1039.000 Q 427.665 1039.574 430.246 1039.832 Q 432.828 1040.091 435.288 1040.175 Q 437.749 1040.259 440.126 1040.439 Q 442.503 1040.618 443.783 1040.605 Q 445.063 1040.591 446.221 1040.718 Q 447.378 1040.844 448.095 1040.968 Q 448.811 1041.091 449.618 1040.997 "></path>
    <path id="STROKE_47003c58-f793-4f14-aafb-be2ff246ad97" opacity="1.000" fill="none" stroke="#bb3e45" stroke-width="1.600" stroke-opacity="1.000" stroke-linecap="round" stroke-linejoin="round" d="M 334.177 1009.732 Q 334.085 1010.514 334.082 1010.489 Q 333.912 1010.104 333.924 1023.866 "></path>
    <path id="STROKE_d373feff-2ba1-4e0e-9884-ddaa5cb35109" opacity="1.000" fill="none" stroke="#bb3e45" stroke-width="1.600" stroke-opacity="1.000" stroke-linecap="round" stroke-linejoin="round" d="M 334.082 1010.962 Q 333.998 1010.961 334.059 1010.824 Q 334.120 1010.688 334.286 1010.389 Q 334.452 1010.089 334.484 1010.115 Q 334.517 1010.141 334.464 1010.160 Q 334.411 1010.178 334.739 1010.049 Q 335.068 1009.920 335.628 1009.835 Q 336.187 1009.751 337.155 1010.189 Q 338.123 1010.627 338.433 1010.998 Q 338.743 1011.369 338.905 1011.675 Q 339.066 1011.982 339.000 1011.954 Q 338.933 1011.926 339.083 1012.054 Q 339.233 1012.181 338.510 1013.726 Q 337.788 1015.271 335.029 1018.376 Q 335.556 1018.004 336.444 1017.668 Q 337.333 1017.332 338.216 1017.602 Q 339.099 1017.871 339.556 1018.325 Q 340.014 1018.779 340.059 1019.271 Q 340.105 1019.764 340.095 1020.153 Q 340.084 1020.542 339.963 1021.322 Q 339.841 1022.102 338.893 1023.435 Q 337.944 1024.768 334.871 1025.286 "></path>
    <path id="STROKE_153ae3e3-21b6-46bb-bb3d-7c97e152933d" opacity="1.000" fill="none" stroke="#71c047" stroke-width="1.600" stroke-opacity="1.000" stroke-linecap="round" stroke-linejoin="round" d="M 301.049 1065.290 Q 301.250 1065.246 301.855 1065.096 Q 302.459 1064.947 302.750 1064.851 Q 303.042 1064.755 303.137 1064.722 Q 303.233 1064.689 303.242 1064.688 Q 303.250 1064.687 304.019 1064.428 Q 304.788 1064.170 306.884 1063.587 Q 308.980 1063.005 310.198 1062.610 Q 311.417 1062.215 312.853 1061.695 Q 314.290 1061.174 315.101 1060.861 Q 315.912 1060.548 317.242 1060.052 Q 318.571 1059.556 319.712 1059.104 Q 320.853 1058.651 323.062 1057.701 Q 325.272 1056.751 327.691 1055.835 Q 330.110 1054.919 332.757 1054.171 Q 335.405 1053.423 336.674 1052.930 Q 337.943 1052.437 340.815 1051.584 Q 343.686 1050.732 345.511 1050.362 Q 347.335 1049.993 350.613 1049.070 Q 353.890 1048.147 356.671 1047.580 Q 359.453 1047.012 361.584 1046.472 Q 363.715 1045.932 367.176 1045.592 Q 370.638 1045.252 373.095 1044.911 Q 375.552 1044.571 377.218 1044.400 Q 378.884 1044.229 382.992 1044.111 Q 387.100 1043.993 391.972 1043.882 Q 396.844 1043.772 400.544 1043.787 Q 404.245 1043.802 406.283 1044.097 Q 408.321 1044.393 411.001 1044.562 "></path>
    <path id="STROKE_617b5bc7-4be5-4e37-9695-6b4b96b3d307" opacity="1.000" fill="none" stroke="#71c047" stroke-width="1.600" stroke-opacity="1.000" stroke-linecap="round" stroke-linejoin="round" d="M 411.001 1044.941 Q 411.214 1044.742 414.359 1044.933 Q 417.503 1045.123 421.396 1045.252 Q 425.290 1045.381 427.184 1045.623 Q 429.077 1045.865 431.788 1046.098 Q 434.500 1046.332 435.867 1046.453 Q 437.235 1046.573 440.141 1046.532 Q 443.046 1046.491 449.184 1046.833 Q 455.321 1047.174 461.386 1047.307 "></path>
    <path id="STROKE_d361e6be-693c-42e6-ac25-fb7cdf930825" opacity="1.000" fill="none" stroke="#71c047" stroke-width="1.600" stroke-opacity="1.000" stroke-linecap="round" stroke-linejoin="round" d="M 320.263 1036.075 Q 319.677 1035.837 317.830 1037.398 Q 315.982 1038.959 314.846 1040.634 Q 313.711 1042.308 313.151 1043.327 Q 312.592 1044.346 312.434 1045.487 Q 312.276 1046.628 312.351 1047.353 Q 312.427 1048.077 313.169 1048.947 Q 313.912 1049.817 318.118 1050.020 "></path>
    <path id="STROKE_7e30b640-3f6c-4edf-9ba2-27ae04c80da0" opacity="1.000" fill="none" stroke="#000000" stroke-width="1.600" stroke-opacity="1.000" stroke-linecap="round" stroke-linejoin="round" d="M 383.016 1085.261 Q 383.167 1086.119 383.160 1086.001 Q 383.154 1085.883 383.205 1085.976 Q 383.257 1086.070 383.456 1086.322 Q 383.654 1086.574 383.697 1086.593 Q 383.740 1086.611 383.789 1086.671 Q 383.838 1086.731 386.273 1088.443 Q 388.708 1090.155 390.413 1091.582 Q 392.117 1093.008 393.019 1093.764 Q 393.921 1094.521 394.612 1095.001 Q 395.303 1095.482 396.929 1095.577 "></path>
    <path id="STROKE_c1767533-7860-45ce-a300-bffb837ab1c0" opacity="1.000" fill="none" stroke="#000000" stroke-width="1.600" stroke-opacity="1.000" stroke-linecap="round" stroke-linejoin="round" d="M 393.270 1082.768 Q 393.222 1082.721 393.175 1082.674 Q 391.851 1084.200 392.063 1084.050 Q 392.275 1083.900 390.086 1087.853 Q 387.898 1091.805 384.562 1097.786 "></path>
    <path id="STROKE_ae60fa45-b6c2-4494-88c9-34ce5859a6d8" opacity="1.000" fill="none" stroke="#000000" stroke-width="1.600" stroke-opacity="1.000" stroke-linecap="round" stroke-linejoin="round" d="M 402.388 1094.820 Q 401.814 1094.640 399.832 1103.307 Q 400.101 1103.203 400.423 1102.873 Q 400.746 1102.543 400.693 1102.544 Q 400.640 1102.545 400.671 1102.596 Q 400.702 1102.647 401.242 1101.584 Q 401.782 1100.522 402.556 1097.834 Q 403.329 1095.146 405.385 1089.204 Q 405.761 1088.739 407.066 1092.959 Q 408.370 1097.180 409.234 1101.887 "></path>
    <path id="STROKE_fca8a9e8-4deb-444f-bd5e-0cb67e0ce989" opacity="1.000" fill="none" stroke="#000000" stroke-width="1.600" stroke-opacity="1.000" stroke-linecap="round" stroke-linejoin="round" d="M 402.735 1099.079 Q 402.554 1099.147 402.646 1098.713 Q 402.737 1098.279 403.141 1098.049 Q 403.544 1097.818 403.896 1097.715 Q 404.248 1097.612 404.236 1097.630 Q 404.224 1097.647 404.423 1097.610 Q 404.621 1097.573 405.890 1097.470 "></path>
    <path id="STROKE_489b3650-99f8-49c8-89e8-4f77f0cd055e" opacity="1.000" fill="none" stroke="#000000" stroke-width="1.600" stroke-opacity="1.000" stroke-linecap="round" stroke-linejoin="round" d="M 255.902 961.272 Q 256.207 961.624 255.198 968.624 Q 254.188 975.623 253.346 982.947 "></path>
    <path id="STROKE_4ea3c025-d781-45a2-b8a0-76ad2283c6cc" opacity="1.000" fill="none" stroke="#000000" stroke-width="1.600" stroke-opacity="1.000" stroke-linecap="round" stroke-linejoin="round" d="M 252.557 973.387 Q 252.353 973.739 245.301 970.895 "></path>
    <path id="STROKE_11723d4b-c7ad-4105-804f-945687685ef2" opacity="1.000" fill="none" stroke="#000000" stroke-width="1.600" stroke-opacity="1.000" stroke-linecap="round" stroke-linejoin="round" d="M 263.158 980.612 Q 263.160 980.388 263.594 981.699 Q 264.027 983.010 264.136 983.796 Q 264.246 984.582 264.214 985.017 Q 264.182 985.452 264.014 985.686 Q 263.846 985.921 263.838 985.887 Q 263.831 985.852 263.866 985.910 Q 263.901 985.967 262.811 985.754 "></path>
    <circle id="STROKE_07d42156-5986-49cc-ad18-23c236c1ae9d" opacity="1.000" fill="#000000" stroke="#000000" stroke-width="0.1" stroke-opacity="1.000" fill-opacity="1.000" cx="259.751" cy="975.816" r="0.800"></circle>
    <path id="STROKE_57dc9bed-0575-4602-b3ee-b41011eaf339" opacity="1.000" fill="none" stroke="#000000" stroke-width="1.600" stroke-opacity="1.000" stroke-linecap="round" stroke-linejoin="round" d="M 245.143 994.967 Q 245.096 994.998 244.638 995.188 Q 246.067 995.422 248.529 995.084 Q 250.991 994.747 270.667 991.149 "></path>
    <path id="STROKE_593029b1-fd69-494a-9a32-acd065533551" opacity="1.000" fill="none" stroke="#000000" stroke-width="1.600" stroke-opacity="1.000" stroke-linecap="round" stroke-linejoin="round" d="M 252.242 1009.669 Q 252.057 1009.594 254.546 1011.709 Q 257.035 1013.823 258.486 1014.972 Q 259.937 1016.122 260.723 1016.570 Q 261.509 1017.017 261.913 1017.185 Q 262.317 1017.353 262.643 1017.430 Q 262.968 1017.507 263.231 1017.529 Q 263.494 1017.550 263.743 1017.601 Q 263.991 1017.652 264.862 1017.556 "></path>
    <path id="STROKE_4f0a8bf0-8b74-45fc-89e4-9ebb9b4a3c5a" opacity="1.000" fill="none" stroke="#000000" stroke-width="1.600" stroke-opacity="1.000" stroke-linecap="round" stroke-linejoin="round" d="M 262.054 1006.703 Q 261.473 1006.849 255.996 1020.522 "></path>
    <path id="STROKE_d579018a-21a9-41c3-a822-e69c34b14542" opacity="1.000" fill="none" stroke="#000000" stroke-width="1.600" stroke-opacity="1.000" stroke-linecap="round" stroke-linejoin="round" d="M 269.058 1017.556 Q 269.439 1017.863 267.764 1023.424 Q 267.931 1022.774 267.906 1022.809 Q 267.977 1022.539 269.561 1018.401 Q 271.145 1014.263 272.623 1009.290 Q 272.463 1009.483 273.402 1012.747 Q 274.341 1016.011 276.472 1022.415 "></path>
    <path id="STROKE_cc553b2a-689b-4b5b-8ee7-9aac2fd867c7" opacity="1.000" fill="none" stroke="#000000" stroke-width="1.600" stroke-opacity="1.000" stroke-linecap="round" stroke-linejoin="round" d="M 270.415 1019.165 Q 270.196 1018.982 272.812 1019.386 "></path>
    <path id="STROKE_fa901560-6c05-4864-ba33-362e0ad90597" opacity="1.000" fill="none" stroke="#000000" stroke-width="1.600" stroke-opacity="1.000" stroke-linecap="round" stroke-linejoin="round" d="M 276.819 1000.046 Q 276.952 1000.094 277.562 999.853 Q 278.173 999.611 278.927 1000.209 Q 279.682 1000.806 279.947 1001.205 Q 280.213 1001.605 280.367 1002.077 Q 280.522 1002.548 279.718 1003.633 Q 278.914 1004.717 278.175 1005.639 Q 277.436 1006.562 276.914 1007.460 Q 277.727 1007.385 282.782 1005.126 "></path>
  </g>
</svg>