<?xml version="1.0" encoding="UTF-8" standalone="yes"?>
<svg xmlns="http://www.w3.org/2000/svg" xmlns:xlink="http://www.w3.org/1999/xlink" width="275.330pt" height="242.558pt" version="1.1" viewBox="-170.971 863.641 275.330 242.558">
  <!--
	Exported with Concepts: Smarter Sketching
	Version: 2024.9.7 on Microsoft Windows NT 10.0.22631.0
	https://concepts.app/
	-->
  <title>Drawing 2</title>
  <desc>Drawing exported from Concepts: Smarter Sketching</desc>
  <defs></defs>
  <g id="Pen" opacity="1.000">
    <path id="STROKE_9f7780d8-4c56-4b7e-b4e8-43e4f3c44b57" opacity="1.000" fill="none" stroke="#000000" stroke-width="1.600" stroke-opacity="1.000" stroke-linecap="round" stroke-linejoin="round" d="M -145.393 950.016 Q -145.417 950.101 -146.846 958.180 Q -148.275 966.259 -150.127 974.485 "></path>
    <path id="STROKE_d9166eca-c633-4595-ae94-aad70408946c" opacity="1.000" fill="none" stroke="#000000" stroke-width="1.600" stroke-opacity="1.000" stroke-linecap="round" stroke-linejoin="round" d="M -155.152 954.749 Q -155.152 954.677 -155.152 954.604 Q -155.193 954.722 -154.080 956.757 Q -152.967 958.791 -148.379 962.032 "></path>
    <path id="STROKE_36efce1d-92a3-40c1-8d34-0e9adbc466fd" opacity="1.000" fill="none" stroke="#000000" stroke-width="1.600" stroke-opacity="1.000" stroke-linecap="round" stroke-linejoin="round" d="M -166.586 985.846 Q -166.090 986.530 -165.877 986.533 Q -165.665 986.537 -165.450 986.598 Q -165.236 986.659 -164.897 986.706 Q -164.558 986.754 -160.613 986.987 Q -156.667 987.220 -152.831 987.071 Q -148.996 986.922 -145.321 986.283 "></path>
    <path id="STROKE_4c6feca1-7eb4-483e-9393-10060a71276f" opacity="1.000" fill="none" stroke="#000000" stroke-width="1.600" stroke-opacity="1.000" stroke-linecap="round" stroke-linejoin="round" d="M -160.687 998.991 Q -161.116 999.864 -158.223 1002.327 Q -155.330 1004.790 -153.450 1006.252 Q -151.570 1007.713 -149.727 1008.531 "></path>
    <path id="STROKE_4b24688c-1292-49c0-802e-437c21523840" opacity="1.000" fill="none" stroke="#000000" stroke-width="1.600" stroke-opacity="1.000" stroke-linecap="round" stroke-linejoin="round" d="M -151.038 996.369 Q -152.093 996.767 -153.135 999.235 Q -154.177 1001.703 -159.595 1011.517 "></path>
    <path id="STROKE_76d7d6a3-83b6-4894-b567-559d6ea2dc7b" opacity="1.000" fill="none" stroke="#000000" stroke-width="1.600" stroke-opacity="1.000" stroke-linecap="round" stroke-linejoin="round" d="M -142.844 1010.461 Q -142.787 1009.948 -142.778 1011.003 Q -142.769 1012.058 -143.326 1014.364 Q -143.884 1016.669 -144.119 1020.438 Q -143.918 1020.178 -142.537 1015.021 Q -141.155 1009.865 -139.494 1003.980 Q -138.519 1004.398 -138.587 1004.401 Q -138.654 1004.404 -138.632 1004.455 Q -138.609 1004.507 -138.538 1004.396 Q -138.467 1004.285 -137.382 1006.256 Q -136.296 1008.227 -135.361 1010.791 Q -134.427 1013.355 -133.086 1016.506 "></path>
    <path id="STROKE_220ccf36-9348-4884-8f58-10c681c3b1b1" opacity="1.000" fill="none" stroke="#000000" stroke-width="1.600" stroke-opacity="1.000" stroke-linecap="round" stroke-linejoin="round" d="M -139.385 1014.066 Q -139.385 1014.102 -139.385 1014.248 Q -139.960 1014.369 -139.840 1014.357 Q -139.950 1014.394 -140.077 1014.394 Q -140.264 1014.135 -140.587 1014.066 Q -140.587 1014.011 -140.660 1013.702 Q -139.754 1013.527 -136.035 1013.010 "></path>
    <path id="STROKE_9ad22146-d708-40b4-b03d-009bc790bf29" opacity="1.000" fill="none" stroke="#000000" stroke-width="1.600" stroke-opacity="1.000" stroke-linecap="round" stroke-linejoin="round" d="M -138.329 969.133 Q -138.443 968.831 -137.927 969.906 Q -137.411 970.982 -137.753 972.074 Q -138.094 973.166 -138.402 973.544 Q -138.710 973.921 -139.167 974.280 Q -139.623 974.638 -141.679 973.757 "></path>
    <path id="STROKE_c8549859-b5e3-4790-9156-1085325fc6e5" opacity="1.000" fill="none" stroke="#000000" stroke-width="1.600" stroke-opacity="1.000" stroke-linecap="round" stroke-linejoin="round" d="M -141.971 962.833 Q -142.086 963.065 -140.186 962.287 "></path>
    <path id="STROKE_747a1a4d-d668-49bb-b24f-1e6a9175fe8d" opacity="1.000" fill="none" stroke="#000000" stroke-width="1.600" stroke-opacity="1.000" stroke-linecap="round" stroke-linejoin="round" d="M -133.738 994.941 Q -133.601 994.907 -133.464 994.787 Q -133.615 994.785 -133.373 994.166 Q -133.130 993.548 -132.411 993.043 Q -131.693 992.538 -131.066 992.258 Q -130.438 991.978 -129.779 992.012 Q -129.121 992.046 -128.972 992.854 Q -128.824 993.661 -128.962 994.390 Q -129.100 995.119 -129.333 995.782 Q -129.566 996.446 -129.793 996.904 Q -130.019 997.362 -132.336 1001.610 Q -131.642 1001.698 -124.846 999.319 "></path>
    <path id="STROKE_6837d856-6592-47e6-a392-faf9bb76821d" opacity="1.000" fill="none" stroke="#000000" stroke-width="1.600" stroke-opacity="1.000" stroke-linecap="round" stroke-linejoin="round" d="M -100.000 868.000 L -100.000 1058.000 L -100.000 1068.000 "></path>
    <path id="STROKE_1149ef79-81b9-4ade-83f4-08ba5f11f234" opacity="1.000" fill="none" stroke="#000000" stroke-width="1.600" stroke-opacity="1.000" stroke-linecap="round" stroke-linejoin="round" d="M -100.000 1068.000 L 90.000 1068.000 L 100.000 1068.000 "></path>
    <path id="STROKE_c03b7d37-9638-48f9-8b44-48b1cbd3391e" opacity="1.000" fill="none" stroke="#000000" stroke-width="1.600" stroke-opacity="1.000" stroke-linecap="round" stroke-linejoin="round" d="M -8.530 1083.279 Q -8.813 1083.553 -6.418 1085.400 Q -4.024 1087.247 -2.169 1088.560 Q -0.315 1089.873 0.742 1090.806 Q 1.799 1091.739 4.055 1093.094 "></path>
    <path id="STROKE_60565e42-9653-45b3-bee6-5aab4e1469c2" opacity="1.000" fill="none" stroke="#000000" stroke-width="1.600" stroke-opacity="1.000" stroke-linecap="round" stroke-linejoin="round" d="M 0.259 1083.450 Q 0.126 1084.245 0.140 1084.083 Q 0.221 1085.988 -5.384 1093.744 "></path>
    <path id="STROKE_03366eb8-4a86-4383-9c82-9f921ed21afa" opacity="1.000" fill="none" stroke="#000000" stroke-width="1.600" stroke-opacity="1.000" stroke-linecap="round" stroke-linejoin="round" d="M 13.974 1092.000 Q 13.507 1091.770 10.554 1100.003 Q 10.702 1099.488 11.742 1096.887 Q 12.782 1094.285 13.718 1092.811 Q 14.654 1091.336 15.205 1090.704 Q 15.757 1090.073 16.368 1090.119 Q 16.837 1090.990 16.693 1090.664 Q 16.549 1090.337 17.240 1092.890 Q 17.931 1095.443 18.375 1096.885 Q 18.820 1098.327 19.047 1098.814 Q 19.274 1099.302 19.588 1099.986 Q 19.903 1100.670 20.540 1101.815 "></path>
    <path id="STROKE_e6640460-2e3f-4448-b24c-da204f3fa691" opacity="1.000" fill="none" stroke="#000000" stroke-width="1.600" stroke-opacity="1.000" stroke-linecap="round" stroke-linejoin="round" d="M 12.503 1098.019 Q 12.111 1098.762 17.291 1097.369 "></path>
    <path id="STROKE_cbfcf264-2897-416d-a406-c8852997d329" opacity="1.000" fill="none" stroke="#5a6edc" stroke-width="1.600" stroke-opacity="1.000" stroke-linecap="round" stroke-linejoin="round" d="M -92.962 880.126 Q -92.778 880.843 -92.906 880.739 Q -93.000 881.359 -92.962 881.333 Q -92.962 882.079 -92.962 882.038 Q -93.149 883.001 -93.073 882.892 Q -93.248 883.347 -92.416 890.421 Q -91.585 897.496 -91.220 901.380 Q -90.855 905.264 -89.627 909.727 Q -88.400 914.190 -87.000 919.000 Q -85.599 923.810 -84.797 926.800 Q -83.994 929.790 -83.436 932.152 Q -82.879 934.513 -81.338 938.149 Q -79.797 941.785 -78.226 944.923 Q -76.654 948.061 -75.841 949.499 Q -75.028 950.937 -74.324 951.654 Q -73.620 952.371 -71.144 956.365 Q -68.668 960.358 -67.231 962.756 Q -65.793 965.154 -64.745 966.383 Q -63.696 967.613 -63.359 968.276 Q -63.022 968.939 -62.197 970.285 Q -61.372 971.631 -60.512 973.125 Q -59.651 974.619 -58.954 975.760 Q -58.256 976.902 -55.426 980.188 Q -52.596 983.473 -51.319 985.342 Q -50.041 987.211 -48.683 989.346 Q -47.324 991.481 -45.059 993.183 Q -42.793 994.884 -40.766 996.271 Q -38.738 997.658 -37.551 998.890 Q -36.365 1000.122 -34.070 1001.446 Q -31.776 1002.771 -29.258 1004.634 Q -26.739 1006.497 -24.572 1007.846 Q -22.405 1009.196 -20.978 1009.893 Q -19.551 1010.591 -18.788 1010.995 Q -18.025 1011.399 -16.690 1012.106 Q -15.356 1012.813 -14.579 1013.015 Q -13.803 1013.217 -12.140 1013.560 Q -10.478 1013.902 -8.178 1014.991 Q -5.878 1016.080 -3.096 1016.652 Q -0.313 1017.225 1.101 1017.602 Q 2.516 1017.979 3.118 1018.122 Q 3.720 1018.265 4.786 1018.374 Q 5.851 1018.483 7.852 1019.079 Q 9.852 1019.675 12.556 1019.917 Q 15.260 1020.158 17.329 1019.849 Q 19.397 1019.539 21.828 1019.617 Q 24.260 1019.696 25.729 1019.750 Q 27.199 1019.803 28.617 1020.097 Q 30.034 1020.390 31.073 1020.406 Q 32.112 1020.423 33.520 1020.745 Q 34.927 1021.067 35.834 1021.359 Q 36.741 1021.651 37.294 1021.713 Q 37.846 1021.775 38.292 1021.851 Q 38.738 1021.927 39.232 1021.988 Q 39.725 1022.049 40.097 1022.135 Q 40.470 1022.220 41.057 1022.375 Q 41.643 1022.530 42.816 1022.549 Q 43.988 1022.568 44.536 1022.548 Q 45.084 1022.527 46.252 1022.597 Q 47.420 1022.667 48.243 1022.682 Q 49.065 1022.698 49.777 1022.584 Q 50.488 1022.470 50.994 1022.653 Q 51.500 1022.836 53.526 1022.380 Q 55.553 1021.923 57.718 1021.827 Q 59.883 1021.730 60.811 1021.790 Q 61.738 1021.850 62.553 1021.831 Q 63.367 1021.812 64.095 1021.807 Q 64.823 1021.801 65.371 1021.814 Q 65.918 1021.828 66.354 1021.876 Q 66.791 1021.925 67.366 1021.968 Q 67.942 1022.011 68.142 1022.020 Q 68.343 1022.029 68.431 1022.059 Q 68.519 1022.089 68.798 1022.087 Q 69.077 1022.086 70.999 1022.358 Q 72.922 1022.631 74.663 1022.929 Q 76.404 1023.227 77.355 1023.134 Q 78.307 1023.041 79.192 1023.134 Q 80.078 1023.226 80.502 1023.233 Q 80.926 1023.239 81.779 1023.100 Q 82.631 1022.960 83.124 1022.918 Q 83.616 1022.876 83.787 1022.869 Q 83.958 1022.862 84.223 1022.967 Q 84.488 1023.071 87.746 1022.262 "></path>
    <path id="STROKE_0cd4d01e-eeb5-4385-8127-8dcfc13be7a6" opacity="1.000" fill="none" stroke="#5a6edc" stroke-width="1.600" stroke-opacity="1.000" stroke-linecap="round" stroke-linejoin="round" d="M -61.928 933.506 Q -62.075 934.562 -61.984 934.249 Q -61.518 935.282 -60.850 937.733 Q -60.182 940.183 -59.121 942.643 Q -58.060 945.103 -57.425 946.518 Q -56.790 947.933 -56.434 949.023 "></path>
    <path id="STROKE_6c9c5dfa-fef8-4bae-9cb2-e1d59e15d107" opacity="1.000" fill="none" stroke="#5a6edc" stroke-width="1.600" stroke-opacity="1.000" stroke-linecap="round" stroke-linejoin="round" d="M -63.153 934.917 Q -62.989 934.574 -61.949 933.639 Q -60.908 932.704 -59.345 932.439 Q -57.782 932.174 -56.972 932.261 Q -56.162 932.347 -55.445 932.486 Q -54.728 932.625 -53.479 933.199 Q -52.230 933.774 -51.374 935.135 Q -50.518 936.495 -50.274 938.359 Q -50.030 940.223 -51.003 942.942 Q -51.977 945.661 -55.395 947.686 "></path>
    <path id="STROKE_6471ffb9-b688-4a39-b4c2-7e97ab3e548a" opacity="1.000" fill="none" stroke="#bb434e" stroke-width="1.600" stroke-opacity="1.000" stroke-linecap="round" stroke-linejoin="round" d="M -97.788 884.915 Q -97.293 885.347 -97.454 885.268 Q -97.360 885.201 -97.287 885.405 Q -97.214 885.609 -97.241 885.404 Q -97.267 885.200 -97.268 885.267 Q -97.269 885.334 -96.984 886.168 Q -96.698 887.003 -96.756 886.937 Q -96.814 886.871 -96.791 886.954 Q -96.768 887.037 -96.741 887.199 Q -96.714 887.360 -96.564 889.512 Q -96.414 891.663 -96.385 892.658 Q -96.356 893.653 -95.554 901.752 Q -94.752 909.850 -94.163 914.268 Q -93.575 918.686 -93.260 921.351 Q -92.946 924.017 -91.762 926.910 Q -90.577 929.802 -89.791 932.020 Q -89.005 934.237 -88.516 936.659 Q -88.026 939.080 -86.082 945.570 Q -84.138 952.061 -83.099 955.401 Q -82.060 958.742 -81.479 960.612 Q -80.898 962.482 -80.122 964.990 Q -79.345 967.498 -78.646 969.207 Q -77.947 970.915 -76.618 974.113 Q -75.289 977.311 -74.604 979.081 Q -73.919 980.851 -73.423 981.634 Q -72.927 982.418 -72.829 983.063 Q -72.730 983.709 -70.423 986.769 Q -68.116 989.829 -66.102 992.229 Q -64.087 994.629 -62.393 996.786 Q -60.699 998.942 -58.921 1001.048 Q -57.144 1003.153 -56.341 1004.383 Q -55.539 1005.612 -54.997 1006.216 Q -54.455 1006.819 -52.831 1008.711 Q -51.206 1010.602 -50.440 1011.648 Q -49.673 1012.694 -48.329 1014.418 Q -46.984 1016.143 -45.167 1018.061 Q -43.349 1019.979 -42.536 1020.865 Q -41.722 1021.750 -39.688 1023.502 Q -37.653 1025.253 -36.508 1026.175 Q -35.364 1027.098 -33.148 1028.516 Q -30.932 1029.935 -28.069 1031.756 Q -25.206 1033.576 -21.824 1035.590 Q -18.441 1037.603 -15.235 1038.780 Q -12.028 1039.958 -10.246 1040.407 Q -8.463 1040.856 -7.607 1041.133 Q -6.750 1041.409 -5.910 1041.631 Q -5.070 1041.853 -4.734 1041.947 Q -4.398 1042.041 -3.715 1042.260 Q -3.033 1042.481 -2.584 1042.627 Q -2.134 1042.774 -1.371 1043.100 Q -0.609 1043.427 4.603 1044.335 Q 9.816 1045.243 12.349 1045.563 Q 14.882 1045.882 17.128 1046.319 Q 19.374 1046.756 21.905 1046.999 Q 24.436 1047.242 27.074 1047.501 Q 29.712 1047.760 33.945 1048.414 Q 38.178 1049.068 41.376 1049.569 Q 44.575 1050.069 48.778 1050.183 Q 52.980 1050.297 56.381 1050.139 Q 59.781 1049.982 61.559 1050.013 Q 63.338 1050.045 65.826 1049.323 Q 68.313 1048.600 69.600 1048.263 Q 70.887 1047.925 71.714 1047.864 Q 72.541 1047.802 73.566 1048.395 "></path>
    <path id="STROKE_360f36a1-b791-49fd-9118-4520fe01067d" opacity="1.000" fill="none" stroke="#71c047" stroke-width="1.600" stroke-opacity="1.000" stroke-linecap="round" stroke-linejoin="round" d="M -99.421 1056.339 Q -99.662 1056.304 -98.122 1056.265 Q -98.159 1056.302 -98.419 1056.450 "></path>
    <path id="STROKE_0d661439-ccde-4933-a159-040611e19605" opacity="1.000" fill="none" stroke="#71c047" stroke-width="1.600" stroke-opacity="1.000" stroke-linecap="round" stroke-linejoin="round" d="M -100.906 1057.861 Q -100.737 1057.843 -100.201 1057.787 Q -100.256 1057.787 -100.312 1057.787 Q -101.024 1058.170 -96.673 1058.063 Q -92.323 1057.956 -89.936 1057.564 Q -87.550 1057.171 -85.365 1057.041 Q -83.180 1056.911 -76.718 1056.127 Q -70.257 1055.344 -66.961 1055.093 Q -63.666 1054.842 -61.797 1054.510 Q -59.928 1054.179 -52.526 1053.688 Q -45.123 1053.197 -41.334 1052.919 Q -37.544 1052.641 -33.981 1052.494 Q -30.417 1052.346 -23.225 1051.962 Q -16.032 1051.578 -9.642 1051.150 Q -3.252 1050.722 -0.126 1050.423 Q 3.000 1050.124 6.991 1049.962 Q 10.982 1049.799 12.872 1049.800 Q 14.762 1049.801 18.267 1049.800 Q 21.772 1049.800 26.686 1049.553 Q 31.600 1049.307 37.153 1048.751 Q 42.706 1048.195 45.550 1047.824 Q 48.393 1047.453 52.514 1047.152 Q 56.635 1046.851 58.864 1046.717 Q 61.093 1046.583 62.828 1046.421 Q 64.562 1046.259 66.074 1046.220 Q 67.585 1046.181 75.131 1045.471 Q 82.677 1044.761 90.456 1044.015 "></path>
    <path id="STROKE_4d628594-1ee5-45c5-9edc-30ca026e2c0d" opacity="1.000" fill="none" stroke="#bb3e45" stroke-width="1.600" stroke-opacity="1.000" stroke-linecap="round" stroke-linejoin="round" d="M -78.867 994.660 Q -78.916 994.612 -78.964 994.563 Q -78.964 994.583 -79.052 994.631 Q -79.099 994.807 -78.282 997.964 Q -77.465 1001.121 -76.870 1006.259 "></path>
    <path id="STROKE_ed91ff54-e938-48fc-b9e2-e2845d7c7376" opacity="1.000" fill="none" stroke="#bb3e45" stroke-width="1.600" stroke-opacity="1.000" stroke-linecap="round" stroke-linejoin="round" d="M -79.643 994.466 Q -79.463 994.281 -78.961 993.932 Q -78.458 993.583 -77.688 993.249 Q -76.918 992.915 -76.143 993.115 Q -75.368 993.315 -74.890 993.543 Q -74.412 993.771 -74.084 994.148 Q -73.756 994.526 -73.563 994.792 Q -73.371 995.058 -73.818 996.202 Q -74.264 997.347 -76.656 998.520 Q -76.597 998.417 -75.616 998.214 Q -74.636 998.010 -73.760 998.250 Q -72.884 998.490 -72.196 998.947 Q -71.509 999.404 -71.098 1000.164 Q -70.687 1000.924 -70.582 1001.607 Q -70.476 1002.291 -70.826 1002.950 Q -71.175 1003.609 -71.829 1004.224 Q -72.483 1004.839 -73.447 1005.309 Q -74.412 1005.778 -76.404 1005.095 "></path>
    <path id="STROKE_9f7ae2eb-9c2d-4da3-91da-6a72a0dd721d" opacity="1.000" fill="none" stroke="#71c047" stroke-width="1.600" stroke-opacity="1.000" stroke-linecap="round" stroke-linejoin="round" d="M -81.079 1039.273 Q -81.540 1039.310 -81.466 1039.348 Q -82.178 1039.742 -83.245 1041.640 Q -84.313 1043.538 -84.614 1044.966 Q -84.915 1046.393 -84.871 1046.988 Q -84.828 1047.584 -84.513 1048.148 Q -84.199 1048.712 -82.858 1048.488 Q -81.517 1048.263 -78.737 1046.449 "></path>
  </g>
</svg>