<?xml version="1.0" encoding="UTF-8" standalone="yes"?>
<svg xmlns="http://www.w3.org/2000/svg" xmlns:xlink="http://www.w3.org/1999/xlink" width="257.234pt" height="247.797pt" version="1.1" viewBox="551.505 859.795 257.234 247.797">
  <!--
	Exported with Concepts: Smarter Sketching
	Version: 2024.9.7 on Microsoft Windows NT 10.0.22631.0
	https://concepts.app/
	-->
  <title>Drawing 2</title>
  <desc>Drawing exported from Concepts: Smarter Sketching</desc>
  <defs></defs>
  <g id="Pen" opacity="1.000">
    <path id="STROKE_2dae6651-84bb-428a-844a-c898dfaab5db" opacity="1.000" fill="none" stroke="#000000" stroke-width="1.600" stroke-opacity="1.000" stroke-linecap="round" stroke-linejoin="round" d="M 600.000 868.000 L 600.000 1058.000 L 600.000 1068.000 "></path>
    <path id="STROKE_384ef6eb-b5b8-49db-8923-7f56bf208a35" opacity="1.000" fill="none" stroke="#000000" stroke-width="1.600" stroke-opacity="1.000" stroke-linecap="round" stroke-linejoin="round" d="M 600.000 1068.000 L 770.000 1068.000 L 770.000 1068.000 "></path>
    <path id="STROKE_153fcbc1-b47c-4536-9964-b4ab3ae91617" opacity="1.000" fill="none" stroke="#000000" stroke-width="1.600" stroke-opacity="1.000" stroke-linecap="round" stroke-linejoin="round" d="M 770.000 1068.000 L 790.000 1068.000 L 800.000 1068.000 "></path>
    <path id="STROKE_b6eda65e-e61f-4cda-ad84-e5d4b1cffa11" opacity="1.000" fill="none" stroke="#000000" stroke-width="1.600" stroke-opacity="1.000" stroke-linecap="round" stroke-linejoin="round" d="M 598.856 865.207 Q 598.538 865.659 596.521 868.385 Q 594.504 871.111 592.702 874.544 Q 592.711 874.778 594.163 873.664 Q 595.616 872.549 597.636 870.068 Q 599.656 867.588 600.806 866.096 Q 601.957 864.604 603.191 863.964 Q 603.167 864.153 603.213 865.600 Q 603.260 867.047 603.535 868.031 Q 603.810 869.015 606.071 871.907 "></path>
    <path id="STROKE_26ac531d-0850-4ce1-a784-ceb304addcd4" opacity="1.000" fill="none" stroke="#000000" stroke-width="1.600" stroke-opacity="1.000" stroke-linecap="round" stroke-linejoin="round" d="M 795.090 1063.104 Q 795.019 1063.077 797.437 1064.203 Q 799.856 1065.329 801.356 1066.021 Q 802.857 1066.713 803.483 1067.279 Q 804.110 1067.844 804.132 1067.768 Q 804.154 1067.692 804.584 1068.581 Q 805.013 1069.470 796.878 1074.109 "></path>
    <path id="STROKE_0fa5ca04-ba1d-4955-8545-06ca717c2023" opacity="1.000" fill="none" stroke="#000000" stroke-width="1.600" stroke-opacity="1.000" stroke-linecap="round" stroke-linejoin="round" d="M 686.802 1085.992 Q 686.846 1085.780 687.475 1086.548 Q 688.104 1087.315 689.487 1088.832 Q 690.871 1090.348 691.688 1091.118 Q 692.505 1091.888 693.262 1092.449 Q 694.019 1093.009 698.201 1095.329 "></path>
    <path id="STROKE_6e6ac808-2998-456a-b493-b19be102e8a2" opacity="1.000" fill="none" stroke="#000000" stroke-width="1.600" stroke-opacity="1.000" stroke-linecap="round" stroke-linejoin="round" d="M 695.654 1085.871 Q 695.630 1086.236 693.239 1090.313 Q 690.848 1094.391 688.197 1098.755 "></path>
    <path id="STROKE_de877191-96c0-4758-b3f0-1f4c767336bb" opacity="1.000" fill="none" stroke="#000000" stroke-width="1.600" stroke-opacity="1.000" stroke-linecap="round" stroke-linejoin="round" d="M 700.414 1102.635 Q 700.114 1100.986 706.386 1091.692 Q 706.483 1091.343 707.596 1094.018 Q 708.710 1096.694 710.085 1103.424 "></path>
    <path id="STROKE_5eab24ea-4d94-433c-979e-380c7161c3fa" opacity="1.000" fill="none" stroke="#000000" stroke-width="1.600" stroke-opacity="1.000" stroke-linecap="round" stroke-linejoin="round" d="M 705.173 1099.937 Q 704.979 1099.742 704.355 1099.998 Q 704.703 1100.684 707.205 1100.301 "></path>
    <path id="STROKE_09604144-0e8d-40f3-817e-db63daf02e71" opacity="1.000" fill="none" stroke="#000000" stroke-width="1.600" stroke-opacity="1.000" stroke-linecap="round" stroke-linejoin="round" d="M 572.603 963.368 Q 572.782 963.364 572.569 963.371 Q 572.355 963.378 569.889 968.579 Q 567.423 973.781 565.539 980.284 "></path>
    <path id="STROKE_ac23cd4f-17a2-42a8-84a6-3b24960155a1" opacity="1.000" fill="none" stroke="#000000" stroke-width="1.600" stroke-opacity="1.000" stroke-linecap="round" stroke-linejoin="round" d="M 566.691 972.250 Q 566.925 972.230 565.640 971.236 Q 564.355 970.243 561.022 968.885 "></path>
    <path id="STROKE_96993240-efae-4301-a257-6211baa00e63" opacity="1.000" fill="none" stroke="#000000" stroke-width="1.600" stroke-opacity="1.000" stroke-linecap="round" stroke-linejoin="round" d="M 576.787 978.434 Q 576.821 978.304 577.565 979.285 Q 578.309 980.266 578.526 981.303 Q 578.744 982.340 578.614 983.222 Q 578.485 984.103 576.696 984.346 "></path>
    <circle id="STROKE_267fdf8f-2e44-4cfb-b615-f30af99ad291" opacity="1.000" fill="#000000" stroke="#000000" stroke-width="0.1" stroke-opacity="1.000" fill-opacity="1.000" cx="576.271" cy="973.190" r="0.800"></circle>
    <path id="STROKE_6410e48c-1853-42e2-98c2-6c30975efa81" opacity="1.000" fill="none" stroke="#000000" stroke-width="1.600" stroke-opacity="1.000" stroke-linecap="round" stroke-linejoin="round" d="M 555.444 995.290 Q 555.931 994.868 579.000 993.046 "></path>
    <path id="STROKE_ec6d022b-c467-4c4d-8111-1dec8407cb36" opacity="1.000" fill="none" stroke="#000000" stroke-width="1.600" stroke-opacity="1.000" stroke-linecap="round" stroke-linejoin="round" d="M 557.172 1007.385 Q 557.180 1007.353 558.220 1008.111 Q 559.260 1008.869 560.209 1010.039 Q 561.157 1011.208 562.635 1013.113 Q 564.114 1015.017 564.963 1016.330 Q 565.812 1017.643 570.208 1018.905 "></path>
    <path id="STROKE_dacbc1e1-9852-4d55-b5ea-71a986cb41af" opacity="1.000" fill="none" stroke="#000000" stroke-width="1.600" stroke-opacity="1.000" stroke-linecap="round" stroke-linejoin="round" d="M 565.691 1006.082 Q 565.545 1006.012 565.207 1007.074 Q 564.869 1008.136 561.932 1018.693 "></path>
    <path id="STROKE_22dacec3-752b-43cd-a586-c624e456ec8d" opacity="1.000" fill="none" stroke="#000000" stroke-width="1.600" stroke-opacity="1.000" stroke-linecap="round" stroke-linejoin="round" d="M 573.482 1025.332 Q 573.564 1025.337 572.936 1028.333 Q 573.203 1028.185 573.500 1027.720 Q 573.797 1027.255 574.136 1026.501 Q 574.476 1025.747 574.616 1025.602 Q 574.756 1025.457 577.999 1017.025 Q 578.398 1017.828 578.299 1017.676 Q 578.200 1017.525 578.833 1018.605 Q 579.466 1019.686 580.307 1022.158 Q 581.148 1024.631 583.092 1029.061 "></path>
    <path id="STROKE_94a13e25-bb9c-4926-bd50-86bb231d39fc" opacity="1.000" fill="none" stroke="#000000" stroke-width="1.600" stroke-opacity="1.000" stroke-linecap="round" stroke-linejoin="round" d="M 576.211 1025.332 Q 576.044 1025.302 575.877 1025.271 Q 576.539 1025.327 576.529 1025.332 Q 576.962 1025.416 579.727 1025.271 "></path>
    <path id="STROKE_3e18ffdf-05d7-429c-8787-b8e330e476ec" opacity="1.000" fill="none" stroke="#000000" stroke-width="1.600" stroke-opacity="1.000" stroke-linecap="round" stroke-linejoin="round" d="M 580.394 1004.202 Q 581.092 1003.714 581.000 1003.854 Q 581.298 1003.710 582.234 1003.516 Q 583.170 1003.321 583.625 1003.400 Q 584.079 1003.478 584.669 1004.114 Q 585.258 1004.750 581.698 1008.416 Q 581.915 1008.917 583.098 1008.964 Q 584.281 1009.012 585.141 1009.359 Q 586.001 1009.707 586.412 1010.386 Q 586.472 1010.469 585.942 1010.956 Q 585.413 1011.443 582.274 1012.296 "></path>
    <path id="STROKE_64219365-ad3f-4bf8-8a48-d92348466c4c" opacity="1.000" fill="none" stroke="#71c047" stroke-width="1.600" stroke-opacity="1.000" stroke-linecap="round" stroke-linejoin="round" d="M 600.008 1020.512 Q 600.790 1020.514 600.645 1020.557 Q 601.456 1020.634 601.266 1020.603 Q 601.961 1020.703 601.873 1020.663 Q 601.737 1020.585 608.302 1020.506 Q 614.867 1020.428 618.462 1020.709 Q 622.057 1020.990 624.746 1021.100 Q 627.436 1021.211 628.711 1021.279 Q 629.987 1021.347 635.071 1021.450 Q 640.155 1021.552 644.958 1021.541 Q 649.761 1021.530 653.388 1021.441 Q 657.015 1021.352 659.089 1021.302 Q 661.163 1021.253 664.401 1021.224 Q 667.639 1021.196 674.274 1021.179 Q 680.909 1021.161 687.245 1021.417 Q 693.581 1021.673 697.296 1021.724 Q 701.011 1021.774 703.378 1021.708 Q 705.745 1021.642 712.104 1021.673 Q 718.464 1021.703 721.797 1021.788 Q 725.130 1021.874 728.913 1021.590 Q 732.697 1021.307 734.813 1021.185 Q 736.929 1021.063 743.660 1020.730 Q 750.391 1020.398 755.056 1020.277 Q 759.722 1020.157 762.319 1019.938 Q 764.916 1019.720 767.042 1019.784 Q 769.167 1019.848 772.641 1019.969 Q 776.115 1020.089 779.326 1020.148 "></path>
    <path id="STROKE_f9c50e65-8f53-4775-831b-752d6669766e" opacity="1.000" fill="none" stroke="#71c047" stroke-width="1.600" stroke-opacity="1.000" stroke-linecap="round" stroke-linejoin="round" d="M 621.351 998.988 Q 620.347 999.237 618.760 1000.972 Q 617.173 1002.707 616.267 1004.103 Q 615.360 1005.498 614.913 1006.487 Q 614.467 1007.477 614.664 1008.256 Q 614.861 1009.036 616.295 1009.112 Q 617.730 1009.188 624.382 1006.809 "></path>
    <path id="STROKE_986b79db-e0ac-4c8d-89ba-950271d5ad08" opacity="1.000" fill="none" stroke="#bb3e45" stroke-width="1.600" stroke-opacity="1.000" stroke-linecap="round" stroke-linejoin="round" d="M 607.163 878.910 Q 606.949 878.253 607.402 882.975 Q 607.855 887.697 608.058 890.023 Q 608.261 892.348 608.744 894.272 Q 609.226 896.195 609.504 897.295 Q 609.781 898.395 609.969 899.113 Q 610.156 899.832 610.337 900.578 Q 610.517 901.324 610.767 902.743 Q 611.017 904.162 611.893 905.976 Q 612.770 907.790 614.379 910.224 Q 615.989 912.658 617.234 914.840 Q 618.479 917.021 619.052 917.908 Q 619.626 918.795 620.453 919.659 Q 621.281 920.523 624.468 924.262 Q 627.655 928.001 629.361 930.332 Q 631.068 932.662 633.005 934.749 Q 634.943 936.836 636.680 938.595 Q 638.418 940.353 640.316 941.891 Q 642.214 943.428 643.480 944.383 Q 644.746 945.337 646.100 945.956 Q 647.453 946.575 649.664 947.625 Q 651.875 948.676 654.034 950.579 Q 656.192 952.483 657.833 953.771 Q 659.474 955.059 660.448 955.407 Q 661.421 955.754 665.329 957.847 Q 669.237 959.939 671.491 961.272 Q 673.745 962.606 674.920 963.201 Q 676.094 963.797 678.430 965.112 Q 680.766 966.426 683.420 967.409 Q 686.074 968.391 690.508 969.799 Q 694.941 971.206 697.192 971.914 Q 699.444 972.623 700.616 973.127 Q 701.788 973.630 703.422 974.592 Q 705.057 975.553 707.701 976.814 Q 710.345 978.075 717.561 979.920 Q 724.777 981.765 729.332 982.891 Q 733.886 984.017 736.042 984.520 Q 738.198 985.022 740.151 985.696 Q 742.103 986.370 743.851 986.907 Q 745.599 987.445 747.170 987.849 Q 748.741 988.253 751.457 989.115 Q 754.174 989.978 756.685 990.998 Q 759.197 992.018 764.294 992.960 Q 769.391 993.902 774.438 994.457 Q 779.485 995.012 782.003 995.096 Q 784.521 995.180 786.810 995.770 Q 789.099 996.361 790.412 996.869 Q 791.726 997.378 792.968 997.745 "></path>
    <path id="STROKE_837de578-c99d-4775-94f2-d71affcc2a7e" opacity="1.000" fill="none" stroke="#bb3e45" stroke-width="1.600" stroke-opacity="1.000" stroke-linecap="round" stroke-linejoin="round" d="M 676.646 977.555 Q 676.555 977.479 676.464 977.404 Q 676.479 978.080 677.024 980.112 Q 677.570 982.145 679.496 990.773 "></path>
    <path id="STROKE_7baf0b1b-dd2c-400d-a2c2-e944ba86e420" opacity="1.000" fill="none" stroke="#bb3e45" stroke-width="1.600" stroke-opacity="1.000" stroke-linecap="round" stroke-linejoin="round" d="M 676.555 976.312 Q 676.677 975.812 677.405 975.656 Q 678.134 975.501 679.411 975.748 Q 680.687 975.995 681.533 976.503 Q 682.379 977.010 682.948 977.701 Q 683.516 978.391 683.392 979.990 Q 683.268 981.590 680.315 984.043 Q 680.612 983.872 682.604 983.781 Q 684.595 983.690 685.804 984.007 Q 687.013 984.325 687.726 984.724 Q 688.439 985.124 688.774 985.773 Q 689.110 986.422 687.882 987.792 Q 686.653 989.161 681.467 990.833 "></path>
    <path id="STROKE_79718462-078b-41ed-895a-f80c5fe5490b" opacity="1.000" fill="none" stroke="#5a6edc" stroke-width="1.600" stroke-opacity="1.000" stroke-linecap="round" stroke-linejoin="round" d="M 614.044 875.030 Q 613.841 874.994 614.517 878.063 Q 615.192 881.131 616.619 884.914 Q 618.046 888.696 618.900 890.919 Q 619.754 893.142 621.008 894.777 Q 622.261 896.412 623.941 899.186 Q 625.621 901.959 627.164 904.052 Q 628.708 906.146 629.586 906.927 Q 630.465 907.708 631.029 908.300 Q 631.594 908.892 631.743 909.032 Q 631.892 909.172 632.577 909.777 Q 633.263 910.382 634.770 912.301 Q 636.278 914.221 637.152 915.368 Q 638.027 916.516 640.591 918.229 Q 643.155 919.941 645.565 920.869 Q 647.976 921.797 650.227 923.148 Q 652.478 924.500 653.557 925.426 Q 654.636 926.351 656.010 927.769 Q 657.384 929.187 659.297 930.318 Q 661.211 931.449 663.720 933.115 Q 666.229 934.781 667.679 935.898 Q 669.129 937.014 670.735 937.983 Q 672.340 938.951 675.269 940.747 Q 678.198 942.542 681.592 944.565 Q 684.986 946.587 686.804 947.618 Q 688.622 948.649 691.024 949.843 Q 693.427 951.038 697.932 952.983 Q 702.438 954.928 704.800 956.156 Q 707.162 957.385 708.487 957.827 Q 709.813 958.268 717.674 960.518 Q 725.535 962.768 730.185 964.068 Q 734.834 965.367 737.407 966.331 Q 739.980 967.295 742.059 968.385 Q 744.138 969.475 747.150 970.435 Q 750.161 971.394 752.012 971.730 Q 753.862 972.067 757.518 973.014 Q 761.174 973.961 763.123 974.479 Q 765.072 974.997 766.761 975.073 Q 768.451 975.150 770.655 974.221 "></path>
    <path id="STROKE_ac6bbba6-804e-45e8-a43b-3916e0581019" opacity="1.000" fill="none" stroke="#5a6edc" stroke-width="1.600" stroke-opacity="1.000" stroke-linecap="round" stroke-linejoin="round" d="M 767.624 974.645 Q 767.105 974.307 770.480 975.097 Q 773.855 975.888 775.645 976.456 Q 777.435 977.025 780.499 976.905 Q 783.562 976.786 785.471 976.617 Q 787.381 976.449 790.294 976.585 Q 793.207 976.721 796.333 977.040 "></path>
    <path id="STROKE_1c53ed4f-428b-41ff-acce-904eaf37503c" opacity="1.000" fill="none" stroke="#5a6edc" stroke-width="1.600" stroke-opacity="1.000" stroke-linecap="round" stroke-linejoin="round" d="M 650.120 902.828 Q 650.185 902.745 650.211 902.222 Q 650.025 902.071 650.660 902.456 Q 651.295 902.841 651.640 905.636 Q 651.985 908.431 652.434 910.722 Q 652.883 913.013 653.667 915.652 "></path>
    <path id="STROKE_31ae7a97-fe2b-42fb-a00e-089dc9b712a4" opacity="1.000" fill="none" stroke="#5a6edc" stroke-width="1.600" stroke-opacity="1.000" stroke-linecap="round" stroke-linejoin="round" d="M 651.606 901.282 Q 651.467 900.863 651.773 900.466 Q 652.079 900.068 654.475 900.422 Q 656.871 900.776 658.469 901.321 Q 660.068 901.865 661.542 902.705 Q 663.015 903.544 663.611 904.838 Q 664.206 906.131 664.267 906.907 Q 664.327 907.683 664.245 908.272 Q 664.162 908.862 663.698 910.376 Q 663.234 911.890 655.395 916.470 "></path>
  </g>
</svg>